<?xml version="1.0" encoding="utf-8"?>
<!-- Generator: Adobe Illustrator 23.0.0, SVG Export Plug-In . SVG Version: 6.00 Build 0)  -->
<svg version="1.1" id="Layer_1" xmlns="http://www.w3.org/2000/svg" xmlns:xlink="http://www.w3.org/1999/xlink" x="0px" y="0px"
	 viewBox="0 0 51 45.71" style="enable-background:new 0 0 51 45.71;" xml:space="preserve">
<style type="text/css">
	.st0{opacity:0.2;}
	.st1{fill:#FFFFFF;}
</style>
<g class="st0">
	<path class="st1" d="M49.42,21.1c-0.21-0.02-0.42-0.01-0.63-0.01c-15.52,0-31.04,0-46.56,0c-0.21,0-0.42-0.01-0.63,0.01
		C0.65,21.21-0.03,21.99,0,22.92c0.03,0.9,0.73,1.63,1.65,1.7c0.21,0.02,0.42,0.01,0.63,0.01c7.74,0,15.48,0,23.21,0
		c7.76,0,15.52,0,23.28,0c0.21,0,0.42,0.01,0.63-0.01c0.91-0.1,1.59-0.85,1.59-1.76C51,21.96,50.33,21.2,49.42,21.1z"/>
	<path class="st1" d="M17.82,42.15c-3.11-0.01-6.21,0-9.32,0c-1.54,0-2.3-0.75-2.3-2.29c0-3.11,0-6.21,0-9.32
		c0-1.16-0.76-1.97-1.8-1.96c-1.01,0.01-1.73,0.81-1.74,1.94c-0.01,1.63,0,3.25,0,4.88c0,0,0,0,0,0c0,1.65-0.02,3.3,0.01,4.95
		c0.05,2.78,2.35,5.24,5.13,5.31c3.42,0.09,6.85,0.03,10.27,0.02c0.76,0,1.38-0.52,1.6-1.23C20.05,43.24,19.18,42.16,17.82,42.15z"
		/>
	<path class="st1" d="M47.13,28.69c-1.2-0.41-2.33,0.45-2.34,1.8c-0.01,3.06,0,6.13,0,9.19c0,1.77-0.69,2.47-2.44,2.47
		c-3.06,0-6.13,0-9.19,0c-1.12,0-1.92,0.74-1.94,1.75c-0.01,1.03,0.8,1.78,1.96,1.78c1.63,0.01,3.25,0,4.88,0
		c1.63,0,3.26,0.02,4.88-0.01c2.82-0.05,5.28-2.35,5.35-5.16c0.09-3.4,0.03-6.8,0.02-10.21C48.33,29.55,47.84,28.93,47.13,28.69z"/>
	<path class="st1" d="M3.85,17.02c1.22,0.42,2.34-0.45,2.35-1.85c0.01-3.11,0-6.21,0-9.32c0-1.53,0.76-2.29,2.3-2.29
		c3.09,0,6.17,0,9.26,0c1.21,0,2.04-0.75,2.01-1.8c-0.02-1.03-0.83-1.73-2.01-1.73c-3.15,0-6.3-0.01-9.45,0
		C5.08,0.03,2.68,2.44,2.67,5.68c-0.01,1.52,0,3.04,0,4.57c0,1.67-0.01,3.34,0,5.01C2.67,16.12,3.11,16.76,3.85,17.02z"/>
	<path class="st1" d="M33.17,3.56c3.11,0.01,6.21,0,9.32,0c1.54,0,2.31,0.75,2.31,2.28c0,3.04,0,6.09,0,9.13
		c0,1.33,0.7,2.16,1.79,2.15c1.07-0.01,1.75-0.83,1.75-2.12c0-1.56,0-3.13,0-4.69c0-1.63,0.02-3.25-0.01-4.88
		c-0.04-2.83-2.32-5.3-5.13-5.38c-3.42-0.09-6.85-0.04-10.27-0.02c-0.76,0-1.38,0.51-1.6,1.22C30.94,2.46,31.8,3.55,33.17,3.56z"/>
</g>
</svg>
