<?xml version="1.0" encoding="utf-8"?>
<!-- Generator: Adobe Illustrator 23.0.0, SVG Export Plug-In . SVG Version: 6.00 Build 0)  -->
<svg version="1.1" id="Layer_1" xmlns="http://www.w3.org/2000/svg" xmlns:xlink="http://www.w3.org/1999/xlink" x="0px" y="0px"
	 viewBox="0 0 48.33 43.59" style="enable-background:new 0 0 48.33 43.59;" xml:space="preserve">
<style type="text/css">
	.st0{opacity:0.2;fill:#FFFFFF;}
</style>
<path class="st0" d="M48.33,36.38c-0.12,0.28-0.22,0.56-0.35,0.84c-0.66,1.43-1.74,2.5-2.99,3.43c-1.63,1.21-3.44,2.05-5.33,2.75
	c-0.16,0.06-0.33,0.12-0.55,0.2c0-0.15,0-0.26,0-0.37c0-5.11,0-10.21,0-15.32c0-0.38,0-0.38-0.35-0.5
	c-1.96-0.68-3.97-1.16-6.02-1.51c-1.84-0.31-3.69-0.54-5.55-0.61c-1.41-0.05-2.82-0.09-4.23-0.07c-1.93,0.02-3.85,0.19-5.76,0.45
	c-2.07,0.29-4.11,0.71-6.12,1.29c-0.5,0.15-0.99,0.33-1.5,0.48c-0.19,0.06-0.24,0.16-0.24,0.35c0.01,2.16,0,4.32,0,6.49c0,3,0,6,0,9
	c0,0.09,0,0.17,0,0.28c-0.09-0.01-0.15-0.01-0.21-0.03c-2-0.74-3.94-1.6-5.67-2.88c-1.29-0.96-2.41-2.07-3.06-3.58
	C0.15,36.43,0,35.76,0,35.05c0-8.09,0-16.18,0-24.28c0-1.26,0.46-2.34,1.18-3.34C2.14,6.1,3.42,5.13,4.82,4.3
	c1.84-1.1,3.83-1.87,5.88-2.49c1.71-0.51,3.44-0.91,5.2-1.17c1.43-0.21,2.88-0.36,4.32-0.49c0.97-0.09,1.95-0.11,2.92-0.13
	c1.14-0.02,2.29-0.04,3.43,0.03c1.54,0.09,3.07,0.21,4.6,0.41c1.34,0.17,2.68,0.41,4,0.69c2.35,0.5,4.62,1.22,6.79,2.26
	c1.45,0.69,2.83,1.52,4.03,2.6c1.02,0.93,1.86,1.99,2.26,3.34c0.01,0.04,0.05,0.08,0.08,0.12C48.33,18.44,48.33,27.41,48.33,36.38z
	 M39.12,26.25c0-0.07,0-0.16,0-0.25c0-2.45,0-4.91-0.01-7.36c0-0.27,0.09-0.37,0.33-0.46c1.48-0.55,2.91-1.21,4.24-2.09
	c1.17-0.77,2.23-1.66,2.97-2.87c0.75-1.23,0.94-2.52,0.41-3.88c-0.39-0.99-1.05-1.79-1.83-2.49c-1.55-1.4-3.37-2.33-5.29-3.09
	c-2.79-1.11-5.7-1.79-8.68-2.17c-1.68-0.21-3.37-0.35-5.06-0.44c-1.9-0.1-3.81-0.08-5.7,0.1c-1.46,0.13-2.93,0.26-4.37,0.51
	C14.56,2.03,13,2.38,11.46,2.79C9.31,3.36,7.25,4.17,5.34,5.31c-1.25,0.75-2.4,1.63-3.26,2.84c-1.27,1.76-1.27,3.67-0.02,5.43
	c0.64,0.91,1.46,1.63,2.37,2.26c1.42,1,2.98,1.73,4.6,2.33c0.27,0.1,0.34,0.22,0.34,0.5c-0.01,2.44-0.01,4.87-0.01,7.31
	c0,0.1,0.02,0.2,0.02,0.26C19.3,23.31,29.18,23.32,39.12,26.25z M40.27,41.93c0.12-0.05,0.21-0.08,0.3-0.12
	c0.65-0.31,1.32-0.6,1.95-0.95c1.41-0.77,2.71-1.68,3.72-2.97c0.66-0.84,1.12-1.78,1.12-2.88c0.01-6.81,0-13.62,0-20.43
	c0-0.08-0.01-0.15-0.02-0.3c-0.1,0.12-0.16,0.19-0.22,0.26c-0.53,0.53-1.02,1.11-1.59,1.59c-1.49,1.26-3.21,2.12-5,2.84
	c-0.22,0.09-0.28,0.2-0.28,0.42c0,7.41,0,14.81,0,22.22C40.25,41.71,40.26,41.8,40.27,41.93z M8.2,41.96
	c0.01-0.14,0.02-0.21,0.02-0.28c0-7.45,0-14.89,0-22.34c0-0.18-0.06-0.27-0.22-0.34c-0.87-0.4-1.76-0.77-2.6-1.22
	c-1.58-0.85-3.02-1.89-4.13-3.33c-0.03-0.03-0.07-0.06-0.15-0.12c0,0.15,0,0.24,0,0.33c0,6.78,0,13.57,0.01,20.35
	c0,0.39,0.07,0.79,0.18,1.16c0.33,1.13,1.06,2.01,1.92,2.8c0.99,0.91,2.11,1.61,3.31,2.21C7.07,41.44,7.61,41.68,8.2,41.96z"/>
</svg>
