<?xml version="1.0" encoding="utf-8"?>
<!-- Generator: Adobe Illustrator 23.0.0, SVG Export Plug-In . SVG Version: 6.00 Build 0)  -->
<svg version="1.1" id="Layer_1" xmlns="http://www.w3.org/2000/svg" xmlns:xlink="http://www.w3.org/1999/xlink" x="0px" y="0px"
	 viewBox="0 0 52.7 52.75" style="enable-background:new 0 0 52.7 52.75;" xml:space="preserve">
<style type="text/css">
	.st0{opacity:0.2;fill:#FFFFFF;}
</style>
<path class="st0" d="M51.25,28.95c1.92-2.18,1.93-4.79,0.03-6.98c-1.1-1.26-2.54-2.26-4.67-3.25c-2.93-1.35-6.25-2.28-10.45-2.91
	c-1.13-0.17-1.41-0.91-1.53-1.53c-0.54-2.8-1.25-5.21-2.17-7.4c-0.76-1.8-1.78-3.84-3.55-5.41c-2.19-1.94-4.85-1.95-6.93-0.02
	c-0.87,0.8-1.69,1.84-2.39,2.99c-1.96,3.25-2.84,6.87-3.51,10.3c-0.19,0.96-0.81,1.24-1.34,1.37l-1.26,0.32
	c-1.83,0.46-3.72,0.94-5.52,1.53c-2.52,0.83-4.54,1.99-6.15,3.56c-2.36,2.29-2.42,5.3-0.16,7.68c0.94,0.99,2.12,1.83,3.61,2.56
	c4.86,2.42,10.03,3.24,14.43,3.72c0.45,0.05,0.91,0.09,1.38,0.13l1.46,0.14v3.95l6.97-4.88l-7.02-4.91v3.96l-1-0.14
	c-0.72-0.1-1.43-0.2-2.13-0.29c-1.54-0.21-3.14-0.42-4.69-0.71c-3.89-0.71-6.74-1.68-9.23-3.15c-0.91-0.54-1.78-1.23-2.51-2
	c-1.28-1.35-1.29-2.91-0.01-4.29c0.64-0.69,1.43-1.34,2.29-1.88c2.19-1.38,4.64-2.13,6.75-2.69c0.51-0.14,1.03-0.25,1.58-0.38
	l1.96-0.46l-0.38,4.71h-3.97l4.87,6.95l4.9-7.01H17.1l0.46-4.89l1.05-0.15c0.24-0.04,0.45-0.07,0.67-0.09
	c4.22-0.44,8.49-0.48,12.7-0.14c0.81,0.07,1.27,0.51,1.36,1.31c0.47,3.94,0.58,8.01,0.32,12.11c-0.3,4.72-0.98,8.58-2.15,12.14
	c-0.7,2.15-1.58,4.39-3.21,6.27c-0.97,1.11-2,1.67-2.99,1.64c-0.99-0.02-1.93-0.59-2.8-1.68c-1-1.27-1.81-2.65-2.34-3.99
	c-0.55-1.39-0.96-2.83-1.37-4.22c-0.17-0.6-0.34-1.2-0.53-1.79c-0.68-0.1-1.37-0.18-2.06-0.27c0.56,2.71,1.21,4.91,2.03,6.86
	c0.79,1.9,1.84,4.05,3.68,5.66c2.17,1.9,4.76,1.91,6.93,0.02c1.6-1.39,2.78-3.25,3.83-6.01c2.36-6.21,3.33-13.09,3.05-21.63
	c-0.04-1.09-0.12-2.19-0.21-3.31c-0.04-0.54-0.08-1.09-0.12-1.65l-0.08-1.14l2.02,0.4c0.64,0.12,1.27,0.24,1.9,0.38
	c2.34,0.52,5.07,1.24,7.57,2.67c1.06,0.6,2.05,1.35,2.88,2.17c1.39,1.37,1.39,3.04,0.01,4.45c-0.91,0.93-1.77,1.59-2.63,2.02
	c-1.71,0.85-3.49,1.52-5.01,2.07c-0.81,0.29-1.64,0.49-2.45,0.69c-0.16,0.04-0.31,0.08-0.47,0.11l-0.22,2.03
	c2.83-0.54,6.31-1.69,8.55-2.86C49.14,30.87,50.34,29.99,51.25,28.95z M31.71,15.26c-4.18-0.34-8.31-0.28-12.63,0.18l-1.22,0.13
	l0.27-1.2c0.83-3.69,1.77-7.25,4.03-10.29c0.38-0.51,0.9-1.01,1.54-1.48c1.16-0.84,2.51-0.8,3.53,0.1c0.87,0.77,1.53,1.5,2.02,2.25
	c1.54,2.35,2.34,4.98,2.98,7.47c0.1,0.37,0.18,0.75,0.27,1.16l0.41,1.77L31.71,15.26z"/>
</svg>
