<?xml version="1.0" encoding="utf-8"?>
<!-- Generator: Adobe Illustrator 23.0.2, SVG Export Plug-In . SVG Version: 6.00 Build 0)  -->
<svg version="1.1" id="Layer_1" xmlns="http://www.w3.org/2000/svg" xmlns:xlink="http://www.w3.org/1999/xlink" x="0px" y="0px"
	 viewBox="0 0 268.3 243.2" style="enable-background:new 0 0 268.3 243.2;" xml:space="preserve">
<style type="text/css">
	.st0{fill:#FF6014;}
	.st1{fill:#584192;}
	.st2{fill:url(#Path_10_1_);}
	.st3{fill:url(#Path_11_1_);}
	.st4{fill:url(#Path_12_1_);}
	.st5{fill:#FEFEFE;}
	.st6{fill:none;stroke:#227FAA;}
</style>
<g>
	<g id="Group_2" transform="translate(920.181 161.061)">
		<path id="Path_2" class="st0" d="M-793.7-105.8v-8.4c6.4,0,12.7-0.4,19,0.1c4.7,0.4,9.6,4.7,10.1,10.8c0.5,4.2,0.4,8.5-0.2,12.7
			c-1,5.4-5.6,9.3-11.1,9.6c-6.4,0.1-12.8,0.2-19.2,0c-6.2-0.2-11.3-5.4-11.4-12.2c-0.2-11.3-0.1-22.7,0-34
			c0.1-6.9,5.7-12.4,12.6-12.3c5.6,0,11.1,0,16.7,0c6.8-0.1,12.5,5.3,12.6,12.2c0,0.2,0,0.3,0,0.5c-2.5,0-5,0-7.5,0
			c-0.7,0-0.8-0.5-1-1.1c-0.5-2-2.4-3.4-4.5-3.1c-5.3,0-10.6,0-15.9,0c-2.8,0-4.5,1.6-4.5,4.4c0,11.2,0,22.4,0.1,33.6
			c0.1,2.1,1.8,3.8,3.9,3.9c5.4,0,10.9,0,16.3,0c2.5,0.1,4.6-1.9,4.7-4.4c0-0.1,0-0.2,0-0.3c0-2.5,0.1-5.1,0-7.6
			c-0.1-2.8-1.6-4.2-4.4-4.3c-4.7,0-9.5,0-14.2,0C-792.3-105.8-792.9-105.8-793.7-105.8z"/>
		<path id="Path_3" class="st0" d="M-714.3-104.1c-0.4-7.3-0.2-14.6,0-21.8c0.2-7.2-5.3-13.7-12.5-13.6c-5.6,0.1-11.1-0.1-16.7,0
			c-2.9-0.1-5.7,1-8,2.9c-3.2,2.5-5,6.4-4.8,10.5c0,5.3,0,10.6,0,15.9h-0.1c0,5.4-0.1,10.9,0,16.3c0.2,7.3,4.3,13.1,12.5,13
			c5.9,0,11.8,0,17.7,0c2.1,0,4.1-0.6,5.8-1.7c2.9-1.6,5-4.3,5.8-7.6C-713.7-94.7-714.1-99.4-714.3-104.1z M-722.7-93.8
			c0,2.9-1.6,4.6-4.6,4.6c-5.2,0.1-10.3,0-15.5,0c-2.8,0-5-1.7-4.9-5c0.2-5.4,0.1-10.7,0.1-16.1h0c0-5.4,0-10.8,0-16.3
			c0-3,1.4-4.5,4.4-4.5c5.3,0,10.6,0,15.9,0c3.1,0,4.7,1.6,4.7,4.5C-722.7-115.6-722.7-104.7-722.7-93.8z"/>
		<path id="Path_4" class="st0" d="M-856.5-93.3c2.4,0,4.6,0,6.9,0c0.9,0,1.1,0.5,1.4,1.2c0.7,1.9,2.6,3.1,4.7,3
			c5.2-0.1,10.3,0,15.5,0c3.1,0,4.6-1.5,4.7-4.6c0-2.4,0-4.8,0-7.2c0-3.7-1.1-4.7-4.8-4.8c-3.3-0.1-6.6,0-9.9,0
			c-0.6,0.1-1.2,0-1.7-0.3v-8.1c3,0,5.9,0,8.8,0c1.3,0,2.6,0,3.9,0c2.1,0,3.7-1.7,3.7-3.8c0,0,0,0,0,0c0.1-2.7,0.1-5.5,0-8.2
			c-0.1-3.2-1.3-4.5-4.5-4.5c-5,0-10,0-15,0c-3.8,0-4.5,0.4-5.7,4h-7.7c-0.5-1.3-0.4-2.7,0.2-4c2.6-5.6,5.9-8.5,12.9-8.5
			c5,0,10,0.1,15.1,0c6.4-0.2,12.5,4.2,13.1,10.8c0.5,5.2,1,10.4-0.9,15.5c-1.2,3.1-1,3.2,0.1,6.5c1.7,5.6,1.8,11.6,0.4,17.3
			c-1.2,4.9-6.1,8.4-11.2,8.5c-6.2,0.1-12.4,0.1-18.6,0C-851.7-81.2-856.8-86.8-856.5-93.3z"/>
		<path id="Path_5" class="st0" d="M-697.5-160.5h-0.2c-6.9,0.1-12.4,5.8-12.3,12.7v0.8c0.2,6.7,5.8,11.9,12.4,11.7
			c7.4,0.5,12.8-6.3,12.8-12.4C-684.9-154.7-690.5-160.4-697.5-160.5z M-697.4-143.6c-2.3,0-4.1-1.8-4.3-4.1c0-2.3,1.8-4.2,4.1-4.2
			c2.2,0,4.1,1.8,4.2,4C-693.3-145.7-695.1-143.7-697.4-143.6z"/>
		<path id="Path_6" class="st1" d="M-759.9-18.7l-3.4,0.1C-762.3-19.2-761-19.3-759.9-18.7z"/>
		<path id="Path_7" class="st1" d="M-766.7-18.6c0.3-0.2,0.6-0.6,1.1-0.3C-765.9-18.4-766.4-18.6-766.7-18.6L-766.7-18.6z"/>
		<path id="Path_8" class="st1" d="M-764.4,56.9c0,5.5-0.1,11-0.1,16.5c-0.8-1.2-0.3-2.5-0.4-3.8c-0.1-2.4-0.1-4.8,0-7.1
			c0.2-1.5-1.1-2.6-0.9-4.1C-765.7,57.5-765.6,56.8-764.4,56.9z"/>
		<path id="Path_9" class="st0" d="M-761.5,13.4c-5.4-3.8-11-7.5-16.5-11.1c-6.1-4.1-12.3-8.1-18.4-12.2c-1.7-1.1-3.2-2.8-5.8-2.8
			V45l43.9-29.4C-759.5,14.8-760.5,14.1-761.5,13.4z M-779,19.3c-0.3,0.2-0.6,0.4-1,0.7c-1.1,0.8-2.2,1.5-3.3,2.3
			c-1.7,1.2-3.5,2.3-5.3,3.4c-1.1,0.7-2.1,1.3-3.2,2c-0.2,0.1-0.4,0.3-0.6,0.3c-0.1,0-0.2,0.1-0.3,0.1c-0.1,0-0.2,0-0.3,0
			c0,0,0,0,0,0c0,0,0,0,0,0h0c0,0,0,0,0,0c0,0-0.1,0-0.2,0c0,0-0.1-0.1-0.1-0.1c0,0,0,0-0.1-0.1c0,0,0,0,0,0c0,0-0.1-0.1-0.1-0.2
			c0-0.1-0.1-0.1-0.1-0.2c0,0,0,0,0,0c0-0.1,0-0.3,0-0.5v0c-0.1-8.1,0-16.2,0-24.7l20.2,13.4C-775.4,16.8-777.2,18.1-779,19.3z"/>
		<g id="Group_1" transform="translate(913.719 458.42)">
			
				<linearGradient id="Path_10_1_" gradientUnits="userSpaceOnUse" x1="-1993.3269" y1="-86.8976" x2="-1991.8429" y2="-86.9476" gradientTransform="matrix(46.1119 0 0 -30.495 90092.4609 -3215.7678)">
				<stop  offset="0" style="stop-color:#02A59F"/>
				<stop  offset="1" style="stop-color:#7D13C8"/>
			</linearGradient>
			<path id="Path_10" class="st2" d="M-1782.1-570.8c-0.3,0-0.5,0.1-0.8,0.1l-11.5,3.8l-0.4,0.1c-0.3,0.1-0.6,0.1-0.9,0.2
				c-0.4,0.5-1,0.8-1.7,0.8c-0.6,0.3-1.1,0.5-1.7,0.8c-8.5,3.6-16.7,7.6-22.9,14.7c-0.1,0.1-0.3,0.2-0.5,0.3
				c-3.3-3.4-3.4-9.1,0.7-12.1c7-5,14.7-9.1,22.8-12l0,0c1.3-0.6,2.7-1,4.1-1.4c5.1-2.2,10.6-3.3,16-5v5.4
				C-1778.7-571.6-1778.7-571.6-1782.1-570.8z"/>
			
				<linearGradient id="Path_11_1_" gradientUnits="userSpaceOnUse" x1="-1996.264" y1="-78.7589" x2="-1994.78" y2="-78.809" gradientTransform="matrix(268.2814 0 0 -177.058 533734.1875 -14413.4023)">
				<stop  offset="0" style="stop-color:#02A59F"/>
				<stop  offset="1" style="stop-color:#7D13C8"/>
			</linearGradient>
			<path id="Path_11" class="st3" d="M-1717.7-476.7c0.3,0.2,0.7,0.1,1.1,0.1c0.2,0,0.4,0,0.7,0
				C-1716.5-476.7-1717.1-476.7-1717.7-476.7z M-1565.1-549.8c0-1,0-2-0.1-2.9c-2.1,6.9-6.7,11.8-12.3,16.1c-7.3,5.5-15.5,9-24,12.2
				c-11.5,4.2-23.3,7.3-35.4,9.2c-4.6,0.8-9.1,1.8-13.7,2.3c-8.1,0.9-16.2,1.8-24.3,2.3c-13.8,0.9-27.6,1-41.4,0.4
				c-3.1-0.1-6.2-0.3-9.3-0.5c-7.2-0.7-14.5-1.3-21.7-2.2c-7.7-1-15.3-2.4-22.9-4c-8.1-1.7-16.1-3.9-24-6.6
				c-9.8-3.4-19.3-7.4-27.6-13.8c-5.2-4-9.6-8.8-11.4-15.5c0,0.3-0.1,0.7-0.1,1c0,0.3,0,0.7,0,1c0,42.3,0.1,84.7-0.1,127
				c0,6.5,2.4,11.7,6.7,16.2c4.7,5,10.4,8.5,16.4,11.5c9.5,4.7,19.5,8.3,29.9,10.8c13.6,3.5,27.3,5.9,41.3,7.2
				c10.3,1,20.5,1.9,30.8,2c9.3,0.4,18.7,0.1,28-0.3c9.8-0.4,19.6-1.3,29.3-2.6c15.4-2.1,30.5-5,45.3-10c6.8-2.2,13.3-4.9,19.6-8.2
				c7.4-4,14.4-8.6,18.6-16.3c1.4-2.4,2.2-5.1,2.3-7.8v-50.9c0-0.3-0.1-0.5-0.1-0.8l0-0.8c0-0.5,0.1-1,0.1-1.4
				C-1565.1-500-1565.1-524.9-1565.1-549.8z M-1791.3-513.6l12.5,3.4v8l0,8.1c-2.6-0.7-5.1-1.4-7.5-2.1c-5-1.4-5-1.3-5-6.5V-513.6z
				 M-1812.2-521.5c2.4,0.9,4.5,2.1,6.8,2.7c0.9,0.2,1.5,1,1.5,1.9c-0.1,4.6,0,9.2,0,13.9c-2.9-0.9-5.2-2.6-7.8-3.9
				c-0.5-0.2-0.5-0.6-0.5-1V-521.5z M-1825-529.8l4.5,2.6v14.4l-4.5-2.9V-529.8z M-1820.5-413.8l-0.2-0.1v0.2
				c-0.2-0.2-0.4-0.4-0.6-0.6l-3.8-2.4v-14.1l0.2,0.1v-0.1c0.3,0.2,0.5,0.3,0.8,0.5l3.6,2V-413.8z M-1804-402.4
				c-2.6-1.1-5.1-2.4-7.5-3.9c-0.9-0.5-0.7-1.3-0.7-2c0-3.4,0-6.7,0-10.1v-3.8c2.3,1.3,4.8,2.5,7.2,3.5c0.7,0.2,1.1,0.9,1,1.5
				C-1804-412.4-1804-407.6-1804-402.4z M-1778.8-393.6c-4.2-1-8-2.2-11.8-3.4c-0.5-0.1-0.8-0.6-0.7-1.1v-15.4
				c4.1,1.3,8.1,2.5,12,3.4l0.5,0.4V-393.6z M-1778.7-425v2.9c0,0.5,0,1.1,0,1.6c-0.2,0.6,0.2,1.3-0.5,1.8c-0.7-0.2-1.3-0.3-2-0.5
				l-2.9-0.8l-1.9-0.6c-1-0.4-2-0.7-3-1.1c-5.2-1.5-10.2-3.5-15.1-5.9c-6-2.9-11.8-6.1-16.4-11c-2.7-2.6-4.3-6.3-4.3-10.1
				c0.1-18.3,0-36.7,0-55c-0.1-0.8-0.1-1.6,0.3-2.3c0.9,0.8,1.8,1.5,2.7,2.2c10.9,8.1,23.3,12.8,36.2,16.6c2.4,0.7,4.9,0.9,7.1,2.4
				c0,7-0.1,14-0.1,21C-1778.8-450.9-1778.7-438-1778.7-425z M-1593.6-518.4c2.4-1,4.8-2.1,7.5-3.2h0c0,4.6,0,9,0,13.4
				c0.1,0.6-0.3,1.1-0.8,1.3c-2.4,1.2-4.5,2.9-7.4,3.7c0-4.8,0-9.4,0-14C-1594.5-517.6-1594.1-518.2-1593.6-518.4z M-1619.4-510.2
				l12.4-3.4c0,5.2,0,10,0,14.9c0,0.8-0.6,1-1.1,1.2c-3.7,1.2-7.4,2.3-11.3,3.5V-510.2z M-1678-501.9l16.4-1.3v16.6l-16.4,1.3
				V-501.9z M-1707.4-501.3h16.3v16.3h-16.3V-501.3z M-1736.8-503.2c5.4,0.4,10.6,1.1,15.9,1.1c0.6,0.1,0.8,0.4,0.8,1
				c0,5.1,0,10.1,0,15.2c0,0.2-0.2,0.5-0.4,0.7l-16.2-1.3V-503.2z M-1766.3-492.3c0-4.9,0-9.8,0-15l16.6,2.7v16.4
				c-2.3,0.2-4.4-0.6-6.5-0.8c-3-0.3-5.9-1.1-8.9-1.6c0,0-0.1,0-0.1,0C-1765.9-490.9-1766.4-491.6-1766.3-492.3z M-1749.7-387.6
				c-5.6-0.9-11.1-1.6-16.7-2.9v-8.4c0,0,0,0,0,0c0.1-0.1,0.2-0.3,0.2-0.4c0-0.1,0-0.2-0.1-0.3l0-0.5c0.3-1.6,0.3-3.3,0-4.9
				c0.1-0.1,0-0.2,0-0.3c-0.1-1.1,0.2-1.9,1.6-1.6c1.3,0.5,2.7,0.8,4.2,0.9c3.7,0.6,7.4,0.9,10.9,1.8V-387.6z M-1719.8-388.8
				c0,1.3,0.4,2.6-0.4,3.8c-2.4,0.2-4.9,0.2-7.3,0c-2.4-0.3-4.9-0.7-7.3-0.8c-1.8,0-2.3-0.8-2.2-2.5c0.1-3.6,0-7.1,0.1-10.7
				c-0.1-1.2-0.1-2.5,0.3-3.7c5.4,0.3,10.7,1.1,16.1,1.1c0.1,0.1,0.2,0.1,0.3,0.1c1.2-0.2,1.2,0.6,1.3,1.5c0.2,1.5-1.1,2.5-0.9,4.1
				C-1719.7-393.6-1719.7-391.2-1719.8-388.8z M-1691-384.3h-16.3v-16.5h16.3V-384.3z M-1663.1-385.9c-2.7,0.2-5.5,0.7-8.2,0.7
				c-2.2,0-4.4,1-6.6,0.2l0-16.4l16.4-1.3c0,5.3,0,10.4,0,15.5C-1661.5-386-1662.2-386-1663.1-385.9z M-1632.4-390.4
				c-5.4,1.2-10.9,1.8-16.3,2.8v-16.7l11.5-1.8l4.9-0.8V-390.4z M-1632.4-415.6l-4.1,0.9l-9.2,1.5c-0.5,0-1.1,0-1.6,0.1
				c-13.4,2-26.8,3.2-40.3,3.6c-11.3,0.4-22.5,0.1-33.8-0.3c-4.2-0.4-8.3-0.9-12.4-1.2c-10-0.8-19.9-2.2-29.7-4.1l-2.7-0.6v-2.9
				c0-20.5,0-41,0-61.5c0-0.5,0-1-0.1-1.4c0.3-1.3,1.3-0.8,2-0.7c6.1,1.2,12.2,2.3,18.3,3c2.9,0.3,5.8,0.7,8.7,1
				c0.8,0.1,1.5,0.2,2.3,0.3c0.1,0,0.2,0,0.3,0c2.3,0.3,4.7,0.5,7.1,0.5c0.1,0,0.2,0,0.2,0c0.3,0,0.7,0,1,0c0.1,0,0.1,0,0.2,0.1
				c0.5,0,1.1,0.1,1.6,0.1c1-0.5,2.3-0.4,3.2,0.2c0.1,0,0.2,0,0.4,0c0.9,0.1,1.8,0.4,2.6,0.2c0.1,0,0.3-0.1,0.4-0.2
				c-0.3-0.1-0.8,0.2-1-0.3c0.5-0.4,0.8,0.1,1.1,0.3c0.1,0.1,0.2,0.2,0.3,0.2c0.3,0.2,0.7,0.1,1.1,0.1c0.2,0,0.4,0,0.7,0
				c4.4,0.1,8.8,0.3,13.2,0.3c0.3,0,0.7,0,1,0c11.3,0,22.5-0.1,33.8-1.1c7.7-0.7,15.3-1.5,22.9-2.7c4.3-0.7,8.5-1.4,12.8-2.1
				c0,15.3,0.1,30.6,0.1,46C-1632.3-429.4-1632.4-422.5-1632.4-415.6z M-1633.6-490.7c-5,0.8-10,1.7-15.2,2.5v-16.6l16.6-2.7
				c0,5.2,0,10.2,0,15.2C-1632.2-491.1-1632.8-490.8-1633.6-490.7z M-1606.9-398.6c0,0.8,0,1.3-1,1.7c-3.8,1.2-7.7,2.4-11.6,3.3
				c0-0.7,0-1.4,0-2.1c0-4.2,0.1-8.4,0-12.5c0-1.2,0.3-1.7,1.6-2.1c3-1,6.3-1.2,9.1-2.8c0.6,0,1.3-0.1,1.9-0.1l0.1,0.9
				c0,0-0.1,0.1-0.1,0.1c0,0.1-0.1,0.2-0.1,0.2c0,0.1,0.1,0.3,0.2,0.4C-1606.9-407.3-1606.9-403-1606.9-398.6z M-1586.6-406
				c-2.5,1.2-5,2.3-7.7,3.5c0-5.2,0-10,0-14.8c-0.1-0.7,0.4-1.3,1.1-1.5c2.4-0.8,4.5-2.3,7.1-3.4c0,5.1,0,9.9,0,14.8
				C-1586.2-406.8-1586.1-406.2-1586.6-406z M-1590.4-429.4c-5.6,2.7-11.3,5.2-17.2,7.3c-0.8,0-1.5,0.2-2.2,0.7
				c-2.4,0.7-4.9,1.5-7.3,2.2l-2.3,0.3c-0.5-1.4,0-2.8-0.3-4.1c0-2.8,0-5.5,0-8.2v-3.3c0-0.3,0-0.7,0-1c0-15.9,0-31.9,0-47.8
				c0-1.3,0.2-2,1.7-2.4c4-1,7.9-2.3,11.8-3.6c10.5-3.4,20.5-7.7,29.4-14.3c1-0.7,1.7-2,3.2-2.1c0,0.7,0.1,1.2,0.1,1.7
				c0,12.1,0,24.2,0,36.3c0,0.6-0.4,1.4,0.4,1.9c-0.3,1-0.5,2-0.4,3c0,4.9-0.1,9.7,0.1,14.6c0.1,2.5-0.7,5-2.2,7
				C-1579.4-435.9-1584.7-432.4-1590.4-429.4z M-1577.8-413.1l-0.4-15.1l5-2.9l0.4,14.4L-1577.8-413.1z M-1577.8-512.1l-0.4-15.1
				l5-2.9l0.4,14.4L-1577.8-512.1z M-1721-477c0.9,0.1,1.8,0.4,2.6,0.2L-1721-477z M-1727.7-477.4c-2.4-0.1-4.7-0.3-7.1-0.5
				L-1727.7-477.4z"/>
			
				<linearGradient id="Path_12_1_" gradientUnits="userSpaceOnUse" x1="-1993.323" y1="-86.8679" x2="-1991.839" y2="-86.9179" gradientTransform="matrix(46.0612 0 0 -30.593 90196.5703 -3223.2961)">
				<stop  offset="0" style="stop-color:#02A59F"/>
				<stop  offset="1" style="stop-color:#7D13C8"/>
			</linearGradient>
			<path id="Path_12" class="st4" d="M-1619.5-571.9v-8.7c4.5,1.3,8.8,2.5,13,3.9c10.5,3.5,20.6,7.8,29.7,14.3
				c3.6,2.7,4.4,7.8,1.8,11.4c-0.3,0.4-0.5,0.7-0.9,1C-1587.8-562.5-1603.8-567-1619.5-571.9z"/>
		</g>
		<path id="Path_13" class="st5" d="M-773.6,15.6c-3.4,2.3-6.6,4.5-9.8,6.7c-2.8,1.8-5.6,3.6-8.4,5.4c-1,0.7-1.9,0.8-2-0.7
			c-0.1-8.1,0-16.2,0-24.7L-773.6,15.6z"/>
	</g>
	<path id="Path_18" class="st6" d="M96.8,216.7v16.9l17.5,1.2l0.3-17L96.8,216.7z"/>
</g>
</svg>
