<?xml version="1.0"?>
<svg xmlns="http://www.w3.org/2000/svg" xmlns:xlink="http://www.w3.org/1999/xlink" version="1.1" id="Capa_1" x="0px" y="0px" viewBox="0 0 432.8 432.8" style="enable-background:new 0 0 432.8 432.8;" xml:space="preserve" width="512px" height="512px" class=""><g><circle style="fill:#FAFCFD" cx="298" cy="176.4" r="14" data-original="#C5F3FF" class="active-path" data-old_color="#F9FCFD"/><g>
	<path style="fill:#F8F6F8" d="M326,107.2c-3.6-10.4-7.6-20.4-12.4-30C289.6,28.4,254,0,216.4,0c-70,0-126.8,97.2-126.8,216.4   c0,33.6,4.4,65.6,12.8,94.8c-54.4-20.4-90-55.2-90-94.8c0-34.8,28-67.2,77.2-89.2c3.2-1.2,4.4-5.2,3.2-8c-1.2-3.2-5.2-4.4-8-3.2   C30.8,140,0,176.4,0,216.4c0,46.4,43.2,87.2,107.2,109.2c5.2,15.2,11.6,29.6,18.8,42.4c24,41.6,56,64.8,90.4,64.8l0,0   c40,0,76.8-30.8,100.8-85.2c1.2-3.2,0-6.8-3.2-8s-6.8,0-8,3.2c-22,49.2-54.8,77.6-89.6,77.6l0,0c-30,0-58.4-20.8-80-58.4   c-5.6-9.6-10.4-20.4-14.8-31.6c28.8,8,60.8,12.8,94.8,12.8c119.2,0,216.4-56.8,216.4-126.8C432.8,170,389.6,129.2,326,107.2z    M216.4,330.8c-36,0-70-5.2-99.6-14.4c-9.6-30-14.8-64.4-14.8-99.6c0-112.4,51.2-204,114.4-204c32.8,0,64.4,25.6,86,70.4   c3.2,6.4,5.6,12.8,8.4,19.6C282.4,94.8,250,90,216.4,90c-29.6,0-58.4,3.6-85.2,10c-3.2,0.8-5.2,4-4.4,7.6c0.8,3.2,4,5.2,7.6,4.4   c26-6.4,53.6-9.6,82.4-9.6c36,0,70,5.2,99.6,14.4c2.8,8.4,5.2,17.6,7.2,26.8c5.2,23.2,7.6,48,7.6,73.2c0,28.4-3.2,55.6-9.6,81.6   c-0.8,3.2,1.2,6.8,4.4,7.6c3.2,0.8,6.8-1.2,7.6-4.4c6.4-26.8,10-55.2,10-84.4c0-26-2.8-51.6-8-75.6c-1.6-6.4-3.2-12.8-4.8-19.2   c54,19.6,89.6,54.4,89.6,94C420.4,279.6,328.8,330.8,216.4,330.8z" data-original="#000A3A" class="" data-old_color="#F6F0F5"/>
	<path style="fill:#F8F6F8" d="M154.4,227.2L154.4,227.2c8.4-3.2,12.4-8.8,12.4-15.6c0-9.2-8-16.8-22.4-16.8   c-8.8,0-16.8,2.4-20.8,5.2l3.2,11.2c2.8-1.6,8.4-4,14-4c6.4,0,10,2.8,10,6.8c0,5.6-6.8,7.6-12,7.6h-6v11.2h6.4   c6.8,0,13.6,2.8,13.6,9.6c0,5.2-4,8.8-12.4,8.8c-6.4,0-12.8-2.8-15.6-4l-3.2,11.6c4,2.4,11.2,4.8,20,4.8c16.8,0,27.2-8.8,27.2-20.4   C169.2,234.8,162.4,228.8,154.4,227.2z" data-original="#000A3A" class="" data-old_color="#F6F0F5"/>
	<path style="fill:#F8F6F8" d="M208.8,218c-6.4,0-10.8,2-14,5.2h-0.4c1.6-8,8-14.8,22-16c2.4-0.4,4.4-0.4,6-0.4v-12   c-1.6,0-3.2,0-6.4,0c-10.4,0.4-19.2,4-26,10c-7.2,6.8-12,17.2-12,29.6c0,16,8.8,29.2,26.4,29.2c14.4,0,24.8-10.8,24.8-24   C229.2,226,220,218,208.8,218z M204.4,252.4c-7.2,0-10.4-6.4-10.8-13.6c0-2,0.4-3.2,0.8-4c1.6-3.2,5.2-6,9.2-6   c6.8,0,10,5.2,10,11.6C213.6,247.6,210,252.4,204.4,252.4z" data-original="#000A3A" class="" data-old_color="#F6F0F5"/>
	<path style="fill:#F8F6F8" d="M260.8,194.8c-17.2,0-25.6,15.2-25.6,34.8c0,18.8,7.6,34.4,24.8,34.4c17.2,0,25.6-14,25.6-34.8   C285.6,210.8,278.8,194.8,260.8,194.8z M260.8,252c-6,0-9.6-7.2-9.6-22.8c0-15.6,4-22.8,9.6-22.8c6.4,0,9.6,8,9.6,22.8   C270,244.4,266.8,252,260.8,252z" data-original="#000A3A" class="" data-old_color="#F6F0F5"/>
	<path style="fill:#F8F6F8" d="M298,154c-12.4,0-22.8,10-22.8,22.8c0,12.4,10,22.8,22.8,22.8c12.4,0,22.8-10,22.8-22.8   C320.8,164,310.8,154,298,154z M298,186.8c-5.6,0-10.4-4.8-10.4-10.4S292.4,166,298,166s10.4,4.8,10.4,10.4   C308.4,182.4,304,186.8,298,186.8z" data-original="#000A3A" class="" data-old_color="#F6F0F5"/>
</g></g> </svg>
