<svg xmlns="http://www.w3.org/2000/svg" xmlns:xlink="http://www.w3.org/1999/xlink" viewBox="0 0 350.95 378.883">
  <defs>
    <style>
      .cls-1 {
        opacity: 0.41;
      }

      .cls-2 {
        fill: url(#linear-gradient);
      }
    </style>
    <linearGradient id="linear-gradient" x1="0.937" y1="-0.11" x2="0.5" y2="1" gradientUnits="objectBoundingBox">
      <stop offset="0" stop-color="#f61562"/>
      <stop offset="1" stop-color="#f6e81b"/>
    </linearGradient>
  </defs>
  <g id="Group_1" data-name="Group 1" class="cls-1" transform="translate(0 0.003)">
    <path id="Path_44" data-name="Path 44" class="cls-2" d="M350.95,9V378.88c-10-8.12-17.64-18.68-23.98-30.59-11.86-22.28-20.12-46.03-28.11-69.87-6.97-20.82-19.27-36.5-40.64-43.85a134.972,134.972,0,0,0-27.5-5.88c-19.56-2.43-38.78-.89-57.96,2.95-24.78,4.96-48.7,13.13-73.09,19.55-37.49,9.88-85.55-8.11-96.6-53.67a6.562,6.562,0,0,1-.12-.81c-.17-.49-.33-.99-.48-1.49a54.635,54.635,0,0,1-1.52-6.24,58.834,58.834,0,0,1,0-21.06q.465-2.535,1.14-4.96a53.974,53.974,0,0,1,3.6-9.42A59.255,59.255,0,0,1,23.71,129.2c10.76-8.54,23.3-13.2,36.4-16.56,16.92-4.34,34.26-4.72,51.56-4.67,32.43.08,60.75-9.93,84.05-33q16.875-16.7,34.75-32.33c16.66-14.5,33.12-29.33,54.04-36.84.01,0,.02-.01.03-.01a54.442,54.442,0,0,1,13.07-4.18.507.507,0,0,1,.13-.02L301.76.9a.784.784,0,0,1,.14-.02,94.846,94.846,0,0,1,25.83,0c2.46.34,4.82.78,7.05,1.3,1.2.28,2.35.58,3.47.91.02.01.05.01.07.02A39.632,39.632,0,0,1,350.95,9Z"/>
    <path id="Path_45" data-name="Path 45" class="cls-2" d="M301.76.9l-4.02.69Q299.69,1.2,301.76.9Z"/>
  </g>
</svg>
