<?xml version="1.0" encoding="utf-8"?>
<!-- Generator: Adobe Illustrator 23.0.0, SVG Export Plug-In . SVG Version: 6.00 Build 0)  -->
<svg version="1.1" id="Layer_1" xmlns="http://www.w3.org/2000/svg" xmlns:xlink="http://www.w3.org/1999/xlink" x="0px" y="0px"
	 viewBox="0 0 96.03 51.58" style="enable-background:new 0 0 96.03 51.58;" xml:space="preserve">
<style type="text/css">
	.st0{fill:url(#SVGID_1_);}
</style>
<linearGradient id="SVGID_1_" gradientUnits="userSpaceOnUse" x1="20.7709" y1="10.4369" x2="116.7307" y2="10.4369" gradientTransform="matrix(0.9997 0.024 -0.024 0.9997 -20.5051 14.0667)">
	<stop  offset="0" style="stop-color:#BE3084"/>
	<stop  offset="0.4714" style="stop-color:#DC7351"/>
	<stop  offset="1" style="stop-color:#FDBF17"/>
</linearGradient>
<path class="st0" d="M96.03,23.65c0.17-7.07-5.83-10.57-12.17-12.01c-0.85-0.19-2.1-0.6-3.18-0.84c-10.7-1.84-17.46-5.63-24.29-7.56
	C45.23,0.1,37-0.53,29.25,0.39C10.56,2.61,0.13,11,0,25.47c-0.13,14.2,9.95,25.39,27.4,26.05c26.55,1.01,33.29-13.26,52.83-15.74
	c1.34-0.18,2.09-0.32,3.16-0.53c1.55-0.31,2.93-0.75,4.34-1.24c0.06,0,0.12,0,0.18,0c0.05-0.03,0.08-0.07,0.13-0.1
	C92.78,32.13,95.9,29.03,96.03,23.65z"/>
</svg>
