<svg xmlns="http://www.w3.org/2000/svg" xmlns:xlink="http://www.w3.org/1999/xlink" viewBox="0 0 309.726 205.069"><defs><style>.a{fill:url(#a);}</style><linearGradient id="a" x1="0.637" y1="-0.25" x2="0.5" y2="1" gradientUnits="objectBoundingBox"><stop offset="0" stop-color="#f880a9"/><stop offset="0.047" stop-color="#f880a9"/><stop offset="1" stop-color="#fcf47a"/></linearGradient></defs><path class="a" d="M307.58,205.05a2.235,2.235,0,0,0-1-2.28c-13.74-12.35-20.86-28.84-28.09-45.21-6.82-15.42-11.41-31.69-17.61-47.35-6.86-17.31-19.47-28.66-37.53-33.62-23.09-6.34-46.34-6.02-69.68-1.39-22.33,4.43-43.93,11.56-65.86,17.47C61.9,99.65,22.79,90.62,7.28,57.37c-.01-.01-.02-.02-.02-.03A44.9,44.9,0,0,1,.92,40.63c-.25-1.3-.43-2.64-.57-4a57.415,57.415,0,0,1,0-12.66,55.143,55.143,0,0,1,1.49-8.2v-.01A45.883,45.883,0,0,1,5.3,6.63a.9.9,0,0,1,.05-.09C6.34,4.3,7.41,2.11,8.6,0H309.34q-.015,100.755-.08,201.53C309.25,202.63,311.07,205.32,307.58,205.05Z"/></svg>