<svg xmlns="http://www.w3.org/2000/svg" xmlns:xlink="http://www.w3.org/1999/xlink" viewBox="0 0 230.768 189.497"><defs><style>.a{fill:url(#a);}</style><linearGradient id="a" x1="0.062" y1="-0.324" x2="0.961" y2="1.419" gradientUnits="objectBoundingBox"><stop offset="0" stop-color="#c5b4ff"/><stop offset="1" stop-color="#e3aef9"/></linearGradient></defs><path class="a" d="M238.383,189.5H54V64.026c4.244-3.6,8.539-7.284,12.693-10.843,9.85-8.44,20.034-17.167,30.267-25.487C118.579,10.1,147.253,0,175.629,0a115.678,115.678,0,0,1,23.461,2.376,107.078,107.078,0,0,1,22.654,7.385A105.113,105.113,0,0,1,261.16,41.107a9.954,9.954,0,0,1,.66,1.03c.532.562,1.06,1.14,1.57,1.72a83.123,83.123,0,0,1,5.9,7.54,87.354,87.354,0,0,1,12.97,28.59c.643,2.625,1.134,5.058,1.5,7.439a80.4,80.4,0,0,1,.91,15.01,88.325,88.325,0,0,1-9.48,44.14,112.683,112.683,0,0,1-16.2,23.394,179.626,179.626,0,0,1-20.6,19.527Z" transform="translate(-54)"/></svg>