<?xml version="1.0" encoding="UTF-8"?>
<svg width="12px" height="24px" viewBox="0 0 12 24" version="1.1" xmlns="http://www.w3.org/2000/svg" xmlns:xlink="http://www.w3.org/1999/xlink">
    <!-- Generator: Sketch 49.3 (51167) - http://www.bohemiancoding.com/sketch -->
    <title>fb</title>
    <desc>Created with Sketch.</desc>
    <defs>
        <linearGradient x1="0%" y1="49.9963721%" x2="99.9593193%" y2="49.9963721%" id="linearGradient-1">
            <stop stop-color="#FDBF17" offset="0%"></stop>
            <stop stop-color="#9618CC" offset="99.82%"></stop>
        </linearGradient>
    </defs>
    <g id="Zinios-Home-Page" stroke="none" stroke-width="1" fill="none" fill-rule="evenodd">
        <g id="Zinios-Home-Page-Template-UI-Design" transform="translate(-844.000000, -6661.000000)" fill="url(#linearGradient-1)" fill-rule="nonzero">
            <g id="Group-45" transform="translate(0.000000, 5950.000000)">
                <g id="Zinios-Social-Footer" transform="translate(844.000000, 710.000000)">
                    <path d="M8.32119117,25 L2.94815209,25 L2.94815209,13.5747077 L0,13.5747077 L0,8.58571551 L2.89710183,8.58571551 L2.89710183,8.35752225 C2.89710183,7.85424673 2.89391119,7.38535648 2.90029248,6.91646624 L2.90348312,6.591369 C2.90667376,6.15686404 2.90667376,5.70672941 2.94496145,5.25972071 C3.1523531,2.74334306 4.63600106,1.24914615 7.12151024,1.05533818 C8.09784632,0.977189805 9.09332624,0.99907135 10.0568998,1.01782696 C10.4972082,1.02720476 10.9407073,1.03345663 11.3905876,1.03345663 L11.8691837,1.03345663 L11.8691837,5.95993014 L11.3905876,5.95993014 C11.1576708,5.95993014 10.9247541,5.9568042 10.6918373,5.95367827 C10.1717628,5.94430046 9.68359479,5.93804859 9.18904547,5.96930794 C8.37224143,6.02244884 8.30523797,6.08809347 8.28290348,6.88520689 C8.27014092,7.33846746 8.27333156,7.80423177 8.2765222,8.29500356 C8.2765222,8.38565567 8.2765222,8.47943372 8.27971284,8.5763377 L12,8.5763377 L11.467163,13.4934334 L8.32438181,13.4934334 L8.32438181,25 L8.32119117,25 Z M3.90534432,24.0622195 L7.36399894,24.0622195 L7.36399894,12.5556529 L10.6024993,12.5556529 L10.9311353,9.51411819 L7.31932997,9.51411819 L7.31932997,9.04522795 C7.31932997,8.78577534 7.31932997,8.53882648 7.31613932,8.30125542 C7.31294868,7.80110583 7.30975804,7.32908965 7.32252061,6.86019941 C7.35442701,5.57544014 7.81068865,5.1159277 9.12204201,5.03152745 C9.65168838,4.99714217 10.1845254,5.00651997 10.7014092,5.01589778 C10.7684127,5.01589778 10.8386068,5.01902371 10.9056102,5.01902371 L10.9056102,1.96498525 C10.6120713,1.96185932 10.3217229,1.95560745 10.0313746,1.94935558 C9.04865727,1.93059997 8.11699016,1.91184436 7.19170433,1.98374086 C5.17521936,2.14003761 4.06487636,3.26850013 3.89258176,5.32849127 C3.85748471,5.74111469 3.85748471,6.15373811 3.85429407,6.58824306 L3.85110343,6.91959217 C3.84791279,7.38535648 3.84791279,7.85112079 3.84791279,8.34814445 L3.84791279,9.51724413 L0.957192236,9.51724413 L0.957192236,12.6306753 L3.90534432,12.6306753 L3.90534432,24.0622195 Z" id="fb"></path>
                </g>
            </g>
        </g>
    </g>
</svg>