<svg xmlns="http://www.w3.org/2000/svg" width="80" height="79.896" viewBox="0 0 80 79.896">
  <g id="Group_383" data-name="Group 383" transform="translate(15 5.61)">
    <g id="Layer_1-2" data-name="Layer 1-2" transform="translate(-15 -5.61)">
      <circle id="Ellipse_99" data-name="Ellipse 99" cx="13.13" cy="13.13" r="13.13" transform="translate(53.74)" fill="#ffe9f6"/>
      <circle id="Ellipse_100" data-name="Ellipse 100" cx="22.46" cy="22.46" r="22.46" transform="translate(0 34.976)" fill="#ebe2f7"/>
      <path id="Path_2120" data-name="Path 2120" d="M27.16,22.81V32.89a30.809,30.809,0,0,0,3.58.19c2.84,0,5.14-.66,6.6-2a7.552,7.552,0,0,0,2.27-5.79,6.529,6.529,0,0,0-2.27-5.36c-1.34-1.13-3.22-1.69-6-1.69H27.11v2.07h4.47c3.33,0,5.19,1.84,5.17,5.06,0,3.69-2.06,5.59-5.51,5.57a10.757,10.757,0,0,1-1.48-.06V22.81Z" transform="translate(17.199 6.903)" fill="#ff3d33"/>
      <path id="Path_2121" data-name="Path 2121" d="M20.73,31a7.128,7.128,0,0,1-3.31-.9l-.63,2.08a7.909,7.909,0,0,0,4.07,1c3.6,0,5.66-2,5.66-4.4a3.67,3.67,0,0,0-3.19-3.63h0A3.549,3.549,0,0,0,26,21.69c0-1.9-1.54-3.55-4.53-3.55a7.878,7.878,0,0,0-4.19,1.12l.64,2a5.815,5.815,0,0,1,3-.92c1.59,0,2.33.83,2.33,1.81,0,1.46-1.6,2-2.88,2H19.1v2h1.27c1.68,0,3.29.74,3.29,2.46,0,1.14-.83,2.33-2.93,2.33Z" transform="translate(16.591 6.902)" fill="#ff3d33"/>
      <path id="Path_2122" data-name="Path 2122" d="M43.32,15.13h0a.4.4,0,0,1,.4.4V34.95a.4.4,0,0,1-.4.4h0a.4.4,0,0,1-.4-.4V15.53A.4.4,0,0,1,43.32,15.13Z" transform="translate(17.558 6.842)" fill="#ff6a00"/>
      <path id="Path_2123" data-name="Path 2123" d="M51.32,11.65h0a.4.4,0,0,1,.4.4V38.42a.4.4,0,0,1-.4.4h0a.4.4,0,0,1-.4-.4V12.05A.4.4,0,0,1,51.32,11.65Z" transform="translate(18.35 6.779)" fill="#ff6a00"/>
      <rect id="Rectangle_41" data-name="Rectangle 41" width="0.8" height="20.22" rx="0.4" transform="translate(28.61 21.972)" fill="#ff6a00"/>
      <path id="Path_2124" data-name="Path 2124" d="M4.73,11.65h0a.4.4,0,0,1,.4.4V38.42a.4.4,0,0,1-.4.4h0a.4.4,0,0,1-.4-.4V12.05A.4.4,0,0,1,4.73,11.65Z" transform="translate(15.854 6.779)" fill="#ff6a00"/>
      <path id="Path_2125" data-name="Path 2125" d="M27.84,0,12.71,4.94h-.06V5L3.45,8l8.68,2.85h0l15.56,5.1h.13l24-8ZM34.3,7.86l-6.66,2.25L21,7.79l6.53-2.25ZM28.71,5.12l5.88-2,7,2.32-6,2Zm6.84,3.17,6.36,2.16L35,12.75v-.08l-6.14-2.13Zm1.25-.43,6-2L49.31,8l-6.14,2ZM33.35,2.68l-5.87,2L21.87,2.79l6-1.95ZM20.6,3.21l5.64,1.91L19.72,7.37,14,5.38ZM12.71,5.79l5.79,2L12.14,10,6,8Zm7,2.43,6.68,2.31-6.2,2.09-6.8-2.23Zm8.12,6.91L21.47,13l6.16-2,6.24,2.16Z" transform="translate(18.35 5.61)" fill="#172428"/>
      <path id="Path_2126" data-name="Path 2126" d="M28.84,35.72,13.71,40.66h-.06l-9.19,3,8.68,2.85h0l15.56,5.1h.13l24-8Zm6.46,7.86-6.66,2.25L22,43.51l6.53-2.25Zm-5.59-2.75,5.88-2,7,2.32-6,2ZM36.55,44l6.36,2.16L36,48.47v-.09l-6.14-2.12Zm1.25-.42,6-2,6.49,2.16-6.14,2Zm-3.45-5.19-5.87,2-5.61-1.9,6-1.95Zm-12.75.53,5.64,1.92-6.52,2.25-5.76-2ZM13.71,41.5l5.79,2-6.36,2.2L7,43.69Zm7,2.43,6.68,2.32-6.2,2.09-6.8-2.23Zm8.12,6.91-6.37-2.08,6.16-2.09,6.24,2.17Z" transform="translate(18.35 7.89)" fill="#172428"/>
    </g>
  </g>
</svg>
