<svg xmlns="http://www.w3.org/2000/svg" width="154.048" height="110.154" viewBox="0 0 154.048 110.154">
  <g id="Group_826" data-name="Group 826" transform="translate(-903 -2132)">
    <g id="Group_551" data-name="Group 551" transform="translate(308.34 2148.964)">
      <rect id="Rectangle_60" data-name="Rectangle 60" width="17.048" height="6.921" rx="3.461" transform="translate(594.661 -5.818)" fill="rgba(217,202,242,0.51)"/>
      <rect id="Rectangle_61" data-name="Rectangle 61" width="11.256" height="7.067" rx="3.533" transform="translate(737.453 14.508)" fill="rgba(217,202,242,0.51)"/>
      <path id="Path_3023" data-name="Path 3023" d="M725.451,41.213v-.08a4.55,4.55,0,0,1,4.55-4.55h14.687a55.573,55.573,0,0,0-.585-6.776H713.388a5.026,5.026,0,0,1-5.027-5.026h0a5.027,5.027,0,0,1,5.027-5.027h28.191a55.091,55.091,0,0,0-78.406-29.943h15.766a5.027,5.027,0,0,1,5.027,5.027h0a5.027,5.027,0,0,1-5.027,5.027h-28.9a55.3,55.3,0,0,0-6.887,8.742h17.906a4.549,4.549,0,0,1,4.55,4.55v.08a4.549,4.549,0,0,1-4.55,4.55h-22.6a55.118,55.118,0,0,0-.67,38.9h16.888a4.371,4.371,0,0,1,0,8.742H641.832a55.2,55.2,0,0,0,5.828,8.306h19.258a4.371,4.371,0,0,1,4.371,4.371h0a4.371,4.371,0,0,1-4.371,4.371h-9.9a55.043,55.043,0,0,0,62.726,1.748h-9.6a4.371,4.371,0,1,1,0-8.742h19.941a54.875,54.875,0,0,0,14.092-29.724H730A4.55,4.55,0,0,1,725.451,41.213ZM673.712,51.882h-9a3.7,3.7,0,1,1,0-7.395h9a3.7,3.7,0,0,1,0,7.395ZM696.205-3.881A4.748,4.748,0,0,1,691.458.867H690.28a4.748,4.748,0,0,1-4.748-4.748V-4.84a4.748,4.748,0,0,1,4.748-4.748h1.178a4.748,4.748,0,0,1,4.747,4.748Zm33.768,60.152a3.3,3.3,0,0,1-3.3,3.3H722.56a3.3,3.3,0,0,1-3.3-3.3v-.328a3.3,3.3,0,0,1,3.3-3.3h4.116a3.3,3.3,0,0,1,3.3,3.3Z" transform="translate(-12.773)" fill="rgba(217,202,242,0.51)"/>
      <rect id="Rectangle_62" data-name="Rectangle 62" width="17.048" height="6.921" rx="3.461" transform="translate(604.095 76.834)" fill="rgba(217,202,242,0.51)"/>
    </g>
    <g id="Group_821" data-name="Group 821" transform="translate(286.899 2186.286)">
      <path id="Path_3379" data-name="Path 3379" d="M663.571-6.848V37.187a4.118,4.118,0,0,0,4.113,4.113h59.884a4.118,4.118,0,0,0,4.113-4.113v-74.36a4.118,4.118,0,0,0-4.113-4.113H694.281a.824.824,0,0,0-.823.823.824.824,0,0,0,.823.823h33.287a2.47,2.47,0,0,1,2.468,2.468v74.36a2.47,2.47,0,0,1-2.468,2.468H667.684a2.471,2.471,0,0,1-2.468-2.468V-6.848a.824.824,0,0,0-.823-.823A.824.824,0,0,0,663.571-6.848Z" transform="translate(0 0)" fill="#fe6231" stroke="#fe6231" stroke-width="1"/>
      <path id="Exclusion_1" data-name="Exclusion 1" d="M49.249,67.122H25.888a.823.823,0,1,1,0-1.645H49.249a.823.823,0,0,1,0,1.645Zm-30.389,0a.838.838,0,0,1-.581-.241.828.828,0,0,1-.241-.581.823.823,0,0,1,.822-.823.828.828,0,0,1,.581.241l0,0a.821.821,0,0,1,0,1.161A.838.838,0,0,1,18.86,67.122Zm30.389-9.212H25.888a.822.822,0,1,1,0-1.645H49.249a.822.822,0,1,1,0,1.645Zm-30.389,0a.838.838,0,0,1-.581-.241.828.828,0,0,1-.241-.581.822.822,0,0,1,1.4-.582l0,0a.821.821,0,0,1,0,1.161A.838.838,0,0,1,18.86,57.909ZM34.055,48.7A21.064,21.064,0,0,1,13.287,31.146a.823.823,0,0,1,1.623-.272,19.412,19.412,0,0,0,4.279,9.286l.754.9.587-1.014a15.666,15.666,0,0,1,8.176-6.856l1.227-.448L29,31.825a7.182,7.182,0,0,1-2.183-5.173v-1.6a7.239,7.239,0,1,1,14.477,0v1.6a7.182,7.182,0,0,1-2.183,5.173l-.935.914,1.228.448a15.661,15.661,0,0,1,8.159,6.828l.587,1.01.753-.893a19.4,19.4,0,0,0-14.848-31.9,19.641,19.641,0,0,0-2.969.225.823.823,0,1,1-.25-1.626,21.315,21.315,0,0,1,3.219-.244,21.058,21.058,0,0,1,0,42.116Zm0-14.807a13.877,13.877,0,0,0-12.532,7.783l-.289.586.506.414a19.444,19.444,0,0,0,24.619-.029l.505-.415-.29-.586A13.881,13.881,0,0,0,34.055,33.89Zm0-14.436a5.6,5.6,0,0,0-5.593,5.594v1.6a5.594,5.594,0,0,0,11.187,0v-1.6A5.6,5.6,0,0,0,34.055,19.454ZM12.668,25.335A12.668,12.668,0,1,1,25.335,12.667,12.682,12.682,0,0,1,12.668,25.335Zm0-23.69A11.022,11.022,0,1,0,23.69,12.667,11.035,11.035,0,0,0,12.668,1.645Zm-1.823,15.52a.818.818,0,0,1-.582-.241L7.268,13.93a.823.823,0,0,1,1.164-1.163l2.413,2.413L16.784,9.24A.823.823,0,1,1,17.947,10.4l-6.52,6.521A.82.82,0,0,1,10.844,17.165Z" transform="translate(663.571 -41.286)" fill="#13406d" stroke="rgba(0,0,0,0)" stroke-width="1"/>
    </g>
  </g>
</svg>
