<svg xmlns="http://www.w3.org/2000/svg" width="80" height="73.239" viewBox="0 0 80 73.239">
  <g id="Group_354" data-name="Group 354" transform="translate(-670 -934)">
    <g id="Group_304" data-name="Group 304" transform="translate(696 942)">
      <g id="Group_303" data-name="Group 303">
        <path id="Path_2035" data-name="Path 2035" d="M491.782,529.437l-.792-5.247a1.655,1.655,0,0,0-1.646-1.416h-2.4a6.252,6.252,0,0,0-5.343-3.83l-.3-.019c-5.156-.344-10.522-1.157-15.683-.814l-.508.035a10.285,10.285,0,0,0-18.571-8.829.715.715,0,1,0,1.275.646,8.855,8.855,0,1,1,15.644,8.293l-10.338.689a6.217,6.217,0,0,0-3.528,1.4,8.812,8.812,0,0,1-2.707-5.757.715.715,0,0,0-1.427.1,10.239,10.239,0,0,0,3.131,6.689,6.285,6.285,0,0,0-.813,1.4h-2.162a1.654,1.654,0,0,0-1.645,1.416l-.793,5.247a1.665,1.665,0,0,0,1.646,1.913h1.64l-.479,3.769a6.238,6.238,0,0,0,6.187,7.023h4.974a10.724,10.724,0,0,0,3.526-.595l6.445-2.24h.5l6.445,2.24a.715.715,0,0,0,.47-1.351l-6.559-2.28a.714.714,0,0,0-.235-.04h-.738a.713.713,0,0,0-.235.04l-6.559,2.28a9.284,9.284,0,0,1-3.056.517h-4.974a4.807,4.807,0,0,1-4.768-5.413l.581-4.567.991-7.076a4.821,4.821,0,0,1,4.242-3.285l12.309-.82c5.224-.349,10.689.467,15.943.818l.041,0a4.817,4.817,0,0,1,4.449,4.19l1.365,10.737a4.807,4.807,0,0,1-4.768,5.412h-3.089a.715.715,0,0,0,0,1.43h3.089a6.236,6.236,0,0,0,6.187-7.023l-.479-3.769h1.882a1.665,1.665,0,0,0,1.646-1.913Zm-44.441-5.054-.7,5.537h-1.822a.235.235,0,0,1-.231-.269l.792-5.246a.233.233,0,0,1,.232-.2h1.758c-.009.059-.018.117-.026.178Zm42.973,5.455a.232.232,0,0,1-.178.082h-1.83l-.8-5.715h1.837a.232.232,0,0,1,.231.2l.792,5.246a.231.231,0,0,1-.053.187Zm0,0" transform="translate(-443.15 -503.676)" fill="#172428"/>
        <path id="Path_2036" data-name="Path 2036" d="M469.547,522.358h-6a.715.715,0,0,0,0,1.43h6a.715.715,0,1,0,0-1.43Zm0,0" transform="translate(-442.711 -503.259)" fill="#ff3d33"/>
        <path id="Path_2037" data-name="Path 2037" d="M478.731,526.742a.716.716,0,0,0-1.009-.08l-3.459,2.956a.715.715,0,1,0,.929,1.087l3.459-2.955a.716.716,0,0,0,.08-1.008Zm0,0" transform="translate(-442.462 -503.167)" fill="#172428"/>
        <path id="Path_2038" data-name="Path 2038" d="M482.393,528.087a.716.716,0,0,0-1.009-.08l-8.641,7.38a.715.715,0,1,0,.929,1.088l8.641-7.38a.715.715,0,0,0,.08-1.008Zm0,0" transform="translate(-442.495 -503.137)" fill="#ff6a00"/>
        <path id="Path_2039" data-name="Path 2039" d="M457.762,526.742a.715.715,0,0,0-1.008-.08l-3.46,2.956a.715.715,0,1,0,.929,1.087l3.459-2.955a.714.714,0,0,0,.079-1.008Zm0,0" transform="translate(-442.929 -503.167)" fill="#ff6a00"/>
        <path id="Path_2040" data-name="Path 2040" d="M461.425,528.087a.715.715,0,0,0-1.008-.08l-8.641,7.38a.715.715,0,1,0,.929,1.088l8.641-7.38a.715.715,0,0,0,.08-1.008Zm0,0" transform="translate(-442.963 -503.137)" fill="#172428"/>
        <text id="VR" transform="translate(8 11)" fill="#ff3d33" font-size="6" font-family="SegoeUI-Bold, Segoe UI" font-weight="700" letter-spacing="0.02em"><tspan x="0" y="0">VR</tspan></text>
      </g>
    </g>
    <circle id="Ellipse_92" data-name="Ellipse 92" cx="22" cy="22" r="22" transform="translate(670 963.239)" fill="#af3794" opacity="0.2"/>
    <circle id="Ellipse_93" data-name="Ellipse 93" cx="13" cy="13" r="13" transform="translate(724 934)" fill="#355ba5" opacity="0.2"/>
  </g>
</svg>
