<svg xmlns="http://www.w3.org/2000/svg" width="154.048" height="110.154" viewBox="0 0 154.048 110.154">
  <g id="Group_824" data-name="Group 824" transform="translate(-209 -2132)">
    <g id="Group_551" data-name="Group 551" transform="translate(-385.66 2148.964)">
      <rect id="Rectangle_60" data-name="Rectangle 60" width="17.048" height="6.921" rx="3.461" transform="translate(594.661 -5.818)" fill="rgba(217,202,242,0.51)"/>
      <rect id="Rectangle_61" data-name="Rectangle 61" width="11.256" height="7.067" rx="3.533" transform="translate(737.453 14.508)" fill="rgba(217,202,242,0.51)"/>
      <path id="Path_3023" data-name="Path 3023" d="M725.451,41.213v-.08a4.55,4.55,0,0,1,4.55-4.55h14.687a55.573,55.573,0,0,0-.585-6.776H713.388a5.026,5.026,0,0,1-5.027-5.026h0a5.027,5.027,0,0,1,5.027-5.027h28.191a55.091,55.091,0,0,0-78.406-29.943h15.766a5.027,5.027,0,0,1,5.027,5.027h0a5.027,5.027,0,0,1-5.027,5.027h-28.9a55.3,55.3,0,0,0-6.887,8.742h17.906a4.549,4.549,0,0,1,4.55,4.55v.08a4.549,4.549,0,0,1-4.55,4.55h-22.6a55.118,55.118,0,0,0-.67,38.9h16.888a4.371,4.371,0,0,1,0,8.742H641.832a55.2,55.2,0,0,0,5.828,8.306h19.258a4.371,4.371,0,0,1,4.371,4.371h0a4.371,4.371,0,0,1-4.371,4.371h-9.9a55.043,55.043,0,0,0,62.726,1.748h-9.6a4.371,4.371,0,1,1,0-8.742h19.941a54.875,54.875,0,0,0,14.092-29.724H730A4.55,4.55,0,0,1,725.451,41.213ZM673.712,51.882h-9a3.7,3.7,0,1,1,0-7.395h9a3.7,3.7,0,0,1,0,7.395ZM696.205-3.881A4.748,4.748,0,0,1,691.458.867H690.28a4.748,4.748,0,0,1-4.748-4.748V-4.84a4.748,4.748,0,0,1,4.748-4.748h1.178a4.748,4.748,0,0,1,4.747,4.748Zm33.768,60.152a3.3,3.3,0,0,1-3.3,3.3H722.56a3.3,3.3,0,0,1-3.3-3.3v-.328a3.3,3.3,0,0,1,3.3-3.3h4.116a3.3,3.3,0,0,1,3.3,3.3Z" transform="translate(-12.773)" fill="rgba(217,202,242,0.51)"/>
      <rect id="Rectangle_62" data-name="Rectangle 62" width="17.048" height="6.921" rx="3.461" transform="translate(604.095 76.834)" fill="rgba(217,202,242,0.51)"/>
    </g>
    <g id="_04" data-name="04" transform="translate(255.044 2151.275)">
      <path id="Path_3302" data-name="Path 3302" d="M33.788.1C21.16,5.425,10.386,6.279,1.762,2.643A1.27,1.27,0,0,0,0,3.815V34.677C0,68.718,33.679,76.213,34.019,76.285a1.277,1.277,0,0,0,.523,0c.341-.072,34.019-7.566,34.019-41.607V3.815A1.269,1.269,0,0,0,66.8,2.643C58.174,6.279,47.4,5.426,34.773.1a1.284,1.284,0,0,0-.985,0ZM66.021,5.665V34.677c0,30.779-28.468,38.3-31.741,39.06-3.273-.763-31.741-8.288-31.741-39.06V5.665c8.832,3.07,19.5,2.056,31.741-3.015C46.527,7.72,57.189,8.73,66.021,5.665Zm0,0" transform="translate(0 -0.001)" fill="#fe6231"/>
      <path id="Path_3303" data-name="Path 3303" d="M34.137,61.769A19.109,19.109,0,1,0,53.246,42.66,19.109,19.109,0,0,0,34.137,61.769ZM52.415,45.123v8.461a19.648,19.648,0,0,1-5.933-1.171A21.081,21.081,0,0,1,52.415,45.123Zm0,10.128v5.687H44.32a21.106,21.106,0,0,1,1.477-7,21.307,21.307,0,0,0,6.618,1.31Zm1.662,0a21.261,21.261,0,0,0,6.618-1.31,21.119,21.119,0,0,1,1.477,7H54.076Zm0-1.667V45.123a21.072,21.072,0,0,1,5.933,7.291,19.648,19.648,0,0,1-5.933,1.17Zm-9.131-1.813a20.273,20.273,0,0,1-3.936-2.421,17.408,17.408,0,0,1,9.464-4.787,22.723,22.723,0,0,0-5.528,7.208Zm-.673,1.523a22.755,22.755,0,0,0-1.614,7.644H35.841a17.355,17.355,0,0,1,4.041-10.365,22.012,22.012,0,0,0,4.391,2.721ZM42.658,62.6a22.774,22.774,0,0,0,1.55,7.506,22.255,22.255,0,0,0-4.528,2.611A17.349,17.349,0,0,1,35.841,62.6Zm1.662,0h8.095v5.7a23.093,23.093,0,0,0-6.647,1.215A21.123,21.123,0,0,1,44.32,62.6Zm8.095,7.361v8.454a21.085,21.085,0,0,1-5.976-7.378A21.412,21.412,0,0,1,52.415,69.961Zm1.662,8.454V69.961a21.415,21.415,0,0,1,5.974,1.08,21.077,21.077,0,0,1-5.974,7.374Zm0-10.112V62.6h8.095a21.1,21.1,0,0,1-1.441,6.913A23.133,23.133,0,0,0,54.076,68.3Zm9.757-5.7h6.818a17.341,17.341,0,0,1-3.844,10.122,22.293,22.293,0,0,0-4.528-2.606A22.779,22.779,0,0,0,63.833,62.6Zm0-1.662a22.771,22.771,0,0,0-1.61-7.644,22.009,22.009,0,0,0,4.387-2.717,17.35,17.35,0,0,1,4.041,10.361Zm-2.288-9.167a22.734,22.734,0,0,0-5.528-7.208,17.4,17.4,0,0,1,9.463,4.787,20.235,20.235,0,0,1-3.935,2.421ZM40.792,73.966a20.64,20.64,0,0,1,4.084-2.339,22.739,22.739,0,0,0,5.6,7.348A17.408,17.408,0,0,1,40.792,73.966Zm15.226,5.009a22.721,22.721,0,0,0,5.593-7.339A20.683,20.683,0,0,1,65.7,73.966,17.4,17.4,0,0,1,56.017,78.974Zm0,0" transform="translate(-19.394 -23.632)" fill="#13406d"/>
    </g>
  </g>
</svg>
