<svg xmlns="http://www.w3.org/2000/svg" width="154.048" height="110.154" viewBox="0 0 154.048 110.154">
  <g id="Group_850" data-name="Group 850" transform="translate(-206 -1682)">
    <g id="Group_551" data-name="Group 551" transform="translate(-388.66 1698.964)">
      <rect id="Rectangle_60" data-name="Rectangle 60" width="17.048" height="6.921" rx="3.461" transform="translate(594.661 -5.818)" fill="rgba(217,202,242,0.51)"/>
      <rect id="Rectangle_61" data-name="Rectangle 61" width="11.256" height="7.067" rx="3.533" transform="translate(737.453 14.508)" fill="rgba(217,202,242,0.51)"/>
      <path id="Path_3023" data-name="Path 3023" d="M725.451,41.213v-.08a4.55,4.55,0,0,1,4.55-4.55h14.687a55.573,55.573,0,0,0-.585-6.776H713.388a5.026,5.026,0,0,1-5.027-5.026h0a5.027,5.027,0,0,1,5.027-5.027h28.191a55.091,55.091,0,0,0-78.406-29.943h15.766a5.027,5.027,0,0,1,5.027,5.027h0a5.027,5.027,0,0,1-5.027,5.027h-28.9a55.3,55.3,0,0,0-6.887,8.742h17.906a4.549,4.549,0,0,1,4.55,4.55v.08a4.549,4.549,0,0,1-4.55,4.55h-22.6a55.118,55.118,0,0,0-.67,38.9h16.888a4.371,4.371,0,0,1,0,8.742H641.832a55.2,55.2,0,0,0,5.828,8.306h19.258a4.371,4.371,0,0,1,4.371,4.371h0a4.371,4.371,0,0,1-4.371,4.371h-9.9a55.043,55.043,0,0,0,62.726,1.748h-9.6a4.371,4.371,0,1,1,0-8.742h19.941a54.875,54.875,0,0,0,14.092-29.724H730A4.55,4.55,0,0,1,725.451,41.213ZM673.712,51.882h-9a3.7,3.7,0,1,1,0-7.395h9a3.7,3.7,0,0,1,0,7.395ZM696.205-3.881A4.748,4.748,0,0,1,691.458.867H690.28a4.748,4.748,0,0,1-4.748-4.748V-4.84a4.748,4.748,0,0,1,4.748-4.748h1.178a4.748,4.748,0,0,1,4.747,4.748Zm33.768,60.152a3.3,3.3,0,0,1-3.3,3.3H722.56a3.3,3.3,0,0,1-3.3-3.3v-.328a3.3,3.3,0,0,1,3.3-3.3h4.116a3.3,3.3,0,0,1,3.3,3.3Z" transform="translate(-12.773)" fill="rgba(217,202,242,0.51)"/>
      <rect id="Rectangle_62" data-name="Rectangle 62" width="17.048" height="6.921" rx="3.461" transform="translate(604.095 76.834)" fill="rgba(217,202,242,0.51)"/>
    </g>
    <g id="_01" data-name="01" transform="translate(248 1702)">
      <path id="Path_3321" data-name="Path 3321" d="M120,208h41.29v2.581H120Zm0,0" transform="translate(-100.645 -174.452)" fill="#13406d"/>
      <path id="Path_3322" data-name="Path 3322" d="M272,240h16.774v2.581H272Zm0,0" transform="translate(-228.129 -201.29)" fill="#13406d"/>
      <path id="Path_3323" data-name="Path 3323" d="M120,240h16.774v2.581H120Zm0,0" transform="translate(-100.645 -201.29)" fill="#13406d"/>
      <path id="Path_3324" data-name="Path 3324" d="M272,176h16.774v2.581H272Zm0,0" transform="translate(-228.129 -147.613)" fill="#13406d"/>
      <path id="Path_3325" data-name="Path 3325" d="M120,176h16.774v2.581H120Zm0,0" transform="translate(-100.645 -147.613)" fill="#13406d"/>
      <path id="Path_3326" data-name="Path 3326" d="M120,144h41.29v2.581H120Zm0,0" transform="translate(-100.645 -120.774)" fill="#13406d"/>
      <path id="Path_3327" data-name="Path 3327" d="M383.742,110.414v-6.672A7.75,7.75,0,0,0,376,96V98.58a5.166,5.166,0,0,1,5.161,5.161v6.672a10.022,10.022,0,0,0,2.148,6.231,10.022,10.022,0,0,0-2.148,6.231v6.672A5.166,5.166,0,0,1,376,134.709v2.581a7.75,7.75,0,0,0,7.742-7.742v-6.672a7.472,7.472,0,0,1,2.2-5.319l.912-.912-.912-.912a7.47,7.47,0,0,1-2.2-5.319Zm0,0" transform="translate(-315.355 -80.516)" fill="#13406d"/>
      <path id="Path_3328" data-name="Path 3328" d="M58.383,129.548v-6.672a10.022,10.022,0,0,0-2.148-6.231,10.022,10.022,0,0,0,2.148-6.231v-6.672a5.166,5.166,0,0,1,5.161-5.161V96a7.75,7.75,0,0,0-7.742,7.742v6.672a7.472,7.472,0,0,1-2.2,5.319l-.912.912.912.912a7.47,7.47,0,0,1,2.2,5.319v6.672a7.75,7.75,0,0,0,7.742,7.742V134.71a5.166,5.166,0,0,1-5.161-5.161Zm0,0" transform="translate(-44.189 -80.516)" fill="#13406d"/>
      <path id="Path_3329" data-name="Path 3329" d="M221.161,352a5.161,5.161,0,1,0,5.161,5.161A5.166,5.166,0,0,0,221.161,352Zm0,7.742a2.581,2.581,0,1,1,2.581-2.581A2.583,2.583,0,0,1,221.161,359.742Zm0,0" transform="translate(-181.161 -295.226)" fill="#13406d"/>
      <path id="Path_3330" data-name="Path 3330" d="M222.455,320a10.354,10.354,0,0,0-4.912,1.241l1.23,2.27a7.744,7.744,0,0,1,10.494,10.494l2.27,1.23A10.326,10.326,0,0,0,222.455,320Zm0,0" transform="translate(-182.455 -268.387)" fill="#13406d"/>
      <path id="Path_3331" data-name="Path 3331" d="M194.323,366.2a7.744,7.744,0,0,1-6.811-11.425l-2.27-1.23a10.326,10.326,0,0,0,13.994,13.994l-1.23-2.27a7.76,7.76,0,0,1-3.683.931Zm0,0" transform="translate(-154.323 -296.52)" fill="#13406d"/>
      <path id="Path_3332" data-name="Path 3332" d="M80,3.871A3.876,3.876,0,0,0,76.129,0H3.871A3.876,3.876,0,0,0,0,3.871V63.226H21.935v2.3l3.23.808A15.5,15.5,0,0,0,26.4,69.315l-1.715,2.857,5.074,5.074,2.857-1.715A15.338,15.338,0,0,0,35.6,76.768L36.412,80h7.176l.808-3.23a15.5,15.5,0,0,0,2.983-1.237l2.857,1.715,5.074-5.074-1.715-2.857a15.338,15.338,0,0,0,1.237-2.983l3.232-.811v-2.3H80ZM3.871,2.581H76.129a1.293,1.293,0,0,1,1.29,1.29v6.452H2.581V3.871A1.293,1.293,0,0,1,3.871,2.581ZM55.484,63.509l-2.769.692-.183.76A12.8,12.8,0,0,1,51,68.654l-.409.667,1.471,2.45L49.837,74l-2.45-1.471-.667.409a12.82,12.82,0,0,1-3.693,1.532l-.76.183-.694,2.77H38.427l-.692-2.769-.76-.183a12.8,12.8,0,0,1-3.693-1.532l-.667-.409L30.164,74l-2.225-2.225,1.471-2.45L29,68.655a12.819,12.819,0,0,1-1.532-3.693l-.183-.76-2.77-.694V60.362l2.769-.692.183-.76A12.8,12.8,0,0,1,29,55.217l.409-.667L27.938,52.1l2.225-2.225,2.45,1.471.667-.409a12.82,12.82,0,0,1,3.693-1.532l.76-.183.694-2.77h3.146l.692,2.769.76.183a12.8,12.8,0,0,1,3.693,1.532l.667.409,2.45-1.471L52.061,52.1l-1.471,2.45.409.667a12.819,12.819,0,0,1,1.532,3.693l.183.76,2.77.694Zm2.581-2.864v-2.3l-3.23-.808A15.5,15.5,0,0,0,53.6,54.556L55.313,51.7l-5.074-5.074L47.382,48.34A15.339,15.339,0,0,0,44.4,47.1l-.811-3.232H36.412L35.6,47.1a15.5,15.5,0,0,0-2.983,1.237l-2.857-1.715L24.69,51.7l1.715,2.857a15.339,15.339,0,0,0-1.237,2.983l-3.232.811v2.3H2.581V12.9H77.419V60.645Zm0,0" fill="#fe6434"/>
      <path id="Path_3333" data-name="Path 3333" d="M32,32h2.581v2.581H32Zm0,0" transform="translate(-26.839 -26.839)" fill="#13406d"/>
      <path id="Path_3334" data-name="Path 3334" d="M64,32h2.581v2.581H64Zm0,0" transform="translate(-53.677 -26.839)" fill="#13406d"/>
      <path id="Path_3335" data-name="Path 3335" d="M96,32h2.581v2.581H96Zm0,0" transform="translate(-80.516 -26.839)" fill="#13406d"/>
    </g>
  </g>
</svg>
