<svg xmlns="http://www.w3.org/2000/svg" width="154.048" height="110.154" viewBox="0 0 154.048 110.154">
  <g id="Group_825" data-name="Group 825" transform="translate(-563 -2122)">
    <g id="Group_551" data-name="Group 551" transform="translate(-31.66 2138.964)">
      <rect id="Rectangle_60" data-name="Rectangle 60" width="17.048" height="6.921" rx="3.461" transform="translate(594.661 -5.818)" fill="rgba(217,202,242,0.51)"/>
      <rect id="Rectangle_61" data-name="Rectangle 61" width="11.256" height="7.067" rx="3.533" transform="translate(737.453 14.508)" fill="rgba(217,202,242,0.51)"/>
      <path id="Path_3023" data-name="Path 3023" d="M725.451,41.213v-.08a4.55,4.55,0,0,1,4.55-4.55h14.687a55.573,55.573,0,0,0-.585-6.776H713.388a5.026,5.026,0,0,1-5.027-5.026h0a5.027,5.027,0,0,1,5.027-5.027h28.191a55.091,55.091,0,0,0-78.406-29.943h15.766a5.027,5.027,0,0,1,5.027,5.027h0a5.027,5.027,0,0,1-5.027,5.027h-28.9a55.3,55.3,0,0,0-6.887,8.742h17.906a4.549,4.549,0,0,1,4.55,4.55v.08a4.549,4.549,0,0,1-4.55,4.55h-22.6a55.118,55.118,0,0,0-.67,38.9h16.888a4.371,4.371,0,0,1,0,8.742H641.832a55.2,55.2,0,0,0,5.828,8.306h19.258a4.371,4.371,0,0,1,4.371,4.371h0a4.371,4.371,0,0,1-4.371,4.371h-9.9a55.043,55.043,0,0,0,62.726,1.748h-9.6a4.371,4.371,0,1,1,0-8.742h19.941a54.875,54.875,0,0,0,14.092-29.724H730A4.55,4.55,0,0,1,725.451,41.213ZM673.712,51.882h-9a3.7,3.7,0,1,1,0-7.395h9a3.7,3.7,0,0,1,0,7.395ZM696.205-3.881A4.748,4.748,0,0,1,691.458.867H690.28a4.748,4.748,0,0,1-4.748-4.748V-4.84a4.748,4.748,0,0,1,4.748-4.748h1.178a4.748,4.748,0,0,1,4.747,4.748Zm33.768,60.152a3.3,3.3,0,0,1-3.3,3.3H722.56a3.3,3.3,0,0,1-3.3-3.3v-.328a3.3,3.3,0,0,1,3.3-3.3h4.116a3.3,3.3,0,0,1,3.3,3.3Z" transform="translate(-12.773)" fill="rgba(217,202,242,0.51)"/>
      <rect id="Rectangle_62" data-name="Rectangle 62" width="17.048" height="6.921" rx="3.461" transform="translate(604.095 76.834)" fill="rgba(217,202,242,0.51)"/>
    </g>
    <g id="Group_724" data-name="Group 724">
      <g id="Group_721" data-name="Group 721" transform="translate(-250.267 2167.353)">
        <path id="Path_3297" data-name="Path 3297" d="M845.267,213.988h5.246v3.285h-5.246Z" transform="translate(0 -197.953)" fill="#fe6231" stroke="#fe6231" stroke-width="0.5"/>
        <path id="Path_3298" data-name="Path 3298" d="M944.281,18.148l-1.379-.4.833-6.467H929.9l-1.155,12.605a35.414,35.414,0,0,1,9.769,3.527l3.537-6.74,1.381.581c-.821,1.667-1.5,3.313-2.393,4.811A26.894,26.894,0,0,1,925.079,38.7a24.468,24.468,0,0,1-17.256-1.243,2.927,2.927,0,0,0-2.908.032,25.126,25.126,0,0,1-8.563,2.907,9.59,9.59,0,0,1-5.923-.724c-2.578-1.349-3.671-3.741-3.88-6.677a21.764,21.764,0,0,1,1.21-8.034c.089-.289.169-.581.283-.973h-5.635v-1.61c.227-.017.458-.048.689-.049,1.677,0,3.353-.015,5.03.007a.705.705,0,0,0,.774-.518c.4-1,.847-1.97,1.318-3.053H878.085V17.1h.9q5.723,0,11.445-.008c.768,0,1.149-.464,1.016-1.289a31.241,31.241,0,0,1,1.073-14.7,3.565,3.565,0,0,0,.1-.374A.854.854,0,0,0,892.583.5h-4.958V-1.136c.853,0,1.693,0,2.532,0,.9,0,1.8.018,2.7-.024a.851.851,0,0,0,.631-.354c.465-.877.87-1.791,1.34-2.781H882.961V-5.979h1.1c3.742,0,7.484.015,11.226-.013a1.242,1.242,0,0,0,.9-.44A27.8,27.8,0,0,1,908.26-16.4a4.723,4.723,0,0,0,.411-.254h-9.879v-1.668h.873c5.176,0,10.352.039,15.527-.016a37.447,37.447,0,0,1,8.2.5,1.667,1.667,0,0,0,1.021-.263,38.025,38.025,0,0,1,8.638-3.672,14.3,14.3,0,0,1,5.994-.427c3.6.611,5.963,3.489,6.117,7.393a21.5,21.5,0,0,1-.613,5.873c-.058.245-.1.493-.191.9l2.63-1.225.641,1.486-5.08,2.476-2.3-5.4,1.4-.714,1.2,2.776a16.454,16.454,0,0,0,.541-7.42,5.411,5.411,0,0,0-5.062-4.568,16.13,16.13,0,0,0-7.279,1.23c-1.659.629-3.269,1.409-5.095,2.206A28.023,28.023,0,0,1,943.383.281,30.287,30.287,0,0,1,944.281,18.148Zm-17.262,5.4a66.792,66.792,0,0,0,1.129-12.242H909.179a67.119,67.119,0,0,0,1.144,12.08A56.242,56.242,0,0,1,927.019,23.549Zm-.1-26.309a55.575,55.575,0,0,1-16.459.182C909.757-.1,908.99,7.914,909.279,9.5h18.869A65.862,65.862,0,0,0,926.914-2.76ZM907.448,11.282a.281.281,0,0,0-.127-.03c-3.523-.006-7.045-.016-10.568,0a.892.892,0,0,0-.621.4c-.924,1.466-1.83,2.945-2.7,4.445a1.453,1.453,0,0,0-.148.941,28.216,28.216,0,0,0,4.214,9.777c.266.394.491.452.9.236a33.43,33.43,0,0,1,8.4-3c.632-.144,1.264-.291,1.8-.413ZM928.655-3.035l1.239,12.524h13.711a28.319,28.319,0,0,0-5.482-15.783c-1.61.657-3.126,1.357-4.691,1.893C931.845-3.856,930.21-3.472,928.655-3.035ZM904.619,35.849a29.3,29.3,0,0,1-12.585-17.181c-.447.951-.842,1.726-1.183,2.528a30.22,30.22,0,0,0-2.787,10.341c-.237,4.708,2.161,7.416,6.524,7.325C898.135,38.787,901.353,37.449,904.619,35.849Zm5.917-10.8c.556,1.823,1.031,3.57,1.623,5.271a17.222,17.222,0,0,0,3.27,5.942c2.051,2.3,4.32,2.322,6.41.074a16.834,16.834,0,0,0,3.36-6.058c.574-1.64,1.022-3.331,1.549-5.076A53.629,53.629,0,0,0,910.537,25.047Zm11.515-39.8c-.426.287-.852.534-1.237.84-2.827,2.238-5.628,4.513-8.476,6.72a3.786,3.786,0,0,0-1.533,2.962,52.047,52.047,0,0,0,15.7-.157C925.956-7.455,924.105-12.6,922.052-14.75ZM898.02-6.221A28.19,28.19,0,0,0,892.6,9.551c.82,0,1.569-.031,2.314.011A1.168,1.168,0,0,0,896.006,9c2.019-2.662,4.031-5.331,6.118-7.932,1.23-1.533,2.593-2.943,3.84-4.345Zm16.485,43.859a17.314,17.314,0,0,1-3.44-5.8c-.767-2.124-1.411-4.3-2.13-6.517a33.334,33.334,0,0,0-10.019,3.315C902.975,33.84,909.536,37.218,914.505,37.638Zm.02-54.085a25.165,25.165,0,0,0-15.34,8.742,32.638,32.638,0,0,0,8.009,2.844c.111.026.285.041.346-.027.865-.956,2.11-1.544,2.552-2.908a27.152,27.152,0,0,1,3-6.727C913.513-15.151,913.991-15.731,914.526-16.448Zm8.422,53.97A25.069,25.069,0,0,0,937.333,28.7a29.351,29.351,0,0,0-9-3.125c-.671,2.081-1.271,4.165-2.014,6.189A17.686,17.686,0,0,1,922.948,37.522Zm-15.5-28c.414-4.178.818-8.247,1.224-12.344a.826.826,0,0,0-1.1.234A104.774,104.774,0,0,0,897.85,9.118a2.758,2.758,0,0,0-.191.4Zm20.674-14.2a33.644,33.644,0,0,0,8.845-3,1.044,1.044,0,0,0-.09-.18,25.092,25.092,0,0,0-12.5-8.006,2.939,2.939,0,0,0-.976.131C925.9-12.377,927.12-8.611,928.125-4.678Zm-7.41-11.305a3.215,3.215,0,0,0-3.957-.1c-2.281,1.552-3.372,4.022-4.459,6.646ZM892.577,11.281c.059.852.115,1.656.17,2.459l.163.042,1.53-2.5Z" transform="translate(-22.361 0)" fill="#fe6231" stroke="#fe6231" stroke-width="0.5"/>
        <path id="Path_3299" data-name="Path 3299" d="M870.68,79.159V76.214h6.188v2.945Z" transform="translate(-17.316 -82.512)" fill="#fe6231" stroke="#fe6231" stroke-width="0.5"/>
        <path id="Path_3300" data-name="Path 3300" d="M879.435,245.966v2.946h-5.056v-2.946Z" transform="translate(-19.836 -224.616)" fill="#fe6231" stroke="#fe6231" stroke-width="0.5"/>
        <path id="Path_3301" data-name="Path 3301" d="M988.7,2.424c.018.342.042.63.045.918.007.642,0,1.285,0,2.052h-4.364V2.424Z" transform="translate(-116.551 -16.882)" fill="#fe6231" stroke="#fe6231" stroke-width="0.5"/>
      </g>
      <g id="Group_723" data-name="Group 723" transform="translate(100.665 2105.35)">
        <path id="Path_3309" data-name="Path 3309" d="M551.487,76.2h-4.152V75.1c1.61,0,3.223-.011,4.835.022.122,0,.3.3.347.492.664,2.857,1.309,5.718,1.96,8.578.052.228.114.454.181.719h3.035V82.739c.663-.415,1.549.309,1.971-.789.407-1.06-.654-1.142-.819-1.679l4.044-4.05c.525.093.6,1.271,1.691.818s.383-1.3.721-1.915h5.574c.39.585-.374,1.46.708,1.914s1.191-.664,1.785-.82l4.039,4.036-1.01.863c.014,1.579.987,1.575,2.045,1.455v2.337h3.683c-.744,2.73-1.457,5.354-2.174,7.977-.433,1.584-.9,3.16-1.294,4.753-.128.519-.348.659-.859.658q-9.623-.023-19.247-.008h-.874l.762,3.385h24.614v1.1c-.229.012-.474.036-.72.036-8.014,0-16.028-.007-24.042.018-.632,0-.831-.219-.959-.791q-2.812-12.57-5.663-25.133C551.622,76.7,551.564,76.5,551.487,76.2Zm7.393,7.483v3.544h1.251l1.081,2.621-.78.827,2.443,2.451.86-.8a7.043,7.043,0,0,0,1.424.641c.929.193,1.384.638,1.2,1.614-.006.03.052.072.076.1h3.413a5.92,5.92,0,0,1,.014-.957.661.661,0,0,1,.313-.439c.748-.327,1.514-.613,2.305-.925l.851.8,2.512-2.544a6.126,6.126,0,0,1-.695-.569.537.537,0,0,1-.1-.467c.313-.776.661-1.538,1.026-2.368h1.234V83.7c-1.291.4-1.589-.447-1.811-1.384a.339.339,0,0,0-.056-.128,1.152,1.152,0,0,1,.293-1.905c.029-.019.028-.083.022-.064l-2.431-2.451c-.536,1.015-1.289.851-2.094.293a.458.458,0,0,0-.2-.074,1.21,1.21,0,0,1-1.208-1.593c.006-.033-.043-.076-.079-.135H566.31c.39,1.251-.405,1.568-1.323,1.787a.338.338,0,0,0-.128.056,1.2,1.2,0,0,1-1.973-.281c-.02-.029-.085-.026,0,0l-2.457,2.464c1.027.518.768,1.278.248,2.07a.194.194,0,0,0-.025.066C560.453,83.344,560.1,84.07,558.88,83.685Zm14.583,11.089c-.693-.151-.765-1.3-1.861-.855s-.348,1.318-.734,1.9H565.31c-.334-.634.342-1.494-.762-1.913-1.081-.41-1.138.763-1.718.855l-4.015-4.013c.193-.586,1.276-.686.827-1.78-.443-1.078-1.328-.327-1.964-.783V86.122h-2.761c.8,3.558,1.6,7.056,2.379,10.559.1.446.368.466.72.466q9.515-.007,19.03,0a.628.628,0,0,0,.722-.562c.544-2.064,1.121-4.119,1.685-6.177.389-1.42.773-2.841,1.168-4.29h-2.172v2.174c-1.648.174-1.593.209-1.835.583-.688,1.063.54,1.291.813,1.968q-1.855,1.851-3.73,3.722C573.614,94.649,573.524,94.72,573.463,94.774Z" transform="translate(0)" fill="#13406d"/>
        <path id="Path_3310" data-name="Path 3310" d="M638.811,286.28a3.228,3.228,0,0,1-3.215,3.229,3.236,3.236,0,1,1,.023-6.471A3.2,3.2,0,0,1,638.811,286.28Zm-1.128,0a2.1,2.1,0,0,0-2.08-2.122,2.113,2.113,0,1,0,2.08,2.122Z" transform="translate(-73.021 -178.615)" fill="#13406d"/>
        <path id="Path_3311" data-name="Path 3311" d="M731.778,283.038a3.236,3.236,0,0,1-.048,6.471,3.236,3.236,0,1,1,.048-6.471Zm2.05,3.236a2.093,2.093,0,1,0-2.1,2.112A2.095,2.095,0,0,0,733.828,286.273Z" transform="translate(-155.613 -178.615)" fill="#13406d"/>
        <path id="Path_3312" data-name="Path 3312" d="M661.945,120.677a4.594,4.594,0,1,1,4.6,4.606A4.6,4.6,0,0,1,661.945,120.677Zm8.064,0a3.471,3.471,0,0,0-6.942-.024,3.471,3.471,0,1,0,6.942.024Z" transform="translate(-98.445 -35.203)" fill="#13406d"/>
        <path id="Path_3313" data-name="Path 3313" d="M690.73,203.367v-1.053h1.053v1.053Z" transform="translate(-123.17 -109.277)" fill="#13406d"/>
        <path id="Path_3314" data-name="Path 3314" d="M691.349,87.461c.2,1.1.14,1.16-.928,1.023C690.1,87.477,690.223,87.335,691.349,87.461Z" transform="translate(-122.773 -10.59)" fill="#13406d"/>
        <path id="Path_3315" data-name="Path 3315" d="M650.167,185.21l-.741.723-.763-.891.813-.59Z" transform="translate(-87.035 -93.935)" fill="#13406d"/>
        <path id="Path_3316" data-name="Path 3316" d="M648.647,104.461l-.809-.681.934-.728.577.8Z" transform="translate(-86.328 -24.015)" fill="#13406d"/>
        <path id="Path_3317" data-name="Path 3317" d="M729.949,185.649l-.777-.794.832-.7.824.751Z" transform="translate(-156.19 -93.677)" fill="#13406d"/>
        <path id="Path_3318" data-name="Path 3318" d="M634.438,145.224v1.023h-1.064v-1.023Z" transform="translate(-73.904 -60.239)" fill="#13406d"/>
        <path id="Path_3319" data-name="Path 3319" d="M748.215,146.242v-1.025h1.048v1.025Z" transform="translate(-172.547 -60.233)" fill="#13406d"/>
        <path id="Path_3320" data-name="Path 3320" d="M731.539,104.27l-.884.705-.6-.839.786-.552Z" transform="translate(-156.947 -24.472)" fill="#13406d"/>
      </g>
    </g>
  </g>
</svg>
