<svg xmlns="http://www.w3.org/2000/svg" width="80" height="65.934" viewBox="0 0 80 65.934">
  <g id="Group_366" data-name="Group 366" transform="translate(-670 -1087)">
    <circle id="Ellipse_92" data-name="Ellipse 92" cx="22" cy="22" r="22" transform="translate(670 1087)" fill="#af3794" opacity="0.2"/>
    <circle id="Ellipse_93" data-name="Ellipse 93" cx="13" cy="13" r="13" transform="translate(724 1126.934)" fill="#355ba5" opacity="0.2"/>
    <g id="Group_365" data-name="Group 365" transform="translate(693.239 1099.886)">
      <g id="Path_2103" data-name="Path 2103" transform="translate(10.36)">
        <path id="Path_2106" data-name="Path 2106" d="M32.169,9.15l-.379-.014a.5.5,0,0,1-.415-.573.509.509,0,0,1,.07-.186,6.579,6.579,0,0,0-.613-1.3c-1.006-1.8-4.825-7.513-11.725-5.645-6.844,1.854-7.7,7.228-7.707,7.282a.5.5,0,1,1-.989-.144c.036-.247.963-6.08,8.434-8.1,7.6-2.061,11.763,4.165,12.86,6.121.839,1.5.871,1.979.644,2.306Z" transform="translate(-10.406 -0.054)" fill="#ff3d33"/>
      </g>
      <g id="Path_2104" data-name="Path 2104" transform="translate(14.11 3.439)">
        <path id="Path_2107" data-name="Path 2107" d="M28.434,9.726,28.079,9.7a.5.5,0,0,1-.412-.575.566.566,0,0,1,.027-.1,4.826,4.826,0,0,0-.359-.738c-.631-1.129-3.027-4.718-7.348-3.551-4.271,1.157-4.816,4.408-4.837,4.546a.5.5,0,0,1-.989-.146c.024-.164.638-4.031,5.564-5.364C24.747,2.4,27.486,6.5,28.208,7.793c.524.936.627,1.359.406,1.675Z" transform="translate(-14.156 -3.493)" fill="#ff3d33"/>
      </g>
      <g id="Path_2105" data-name="Path 2105" transform="translate(17.658 7.835)">
        <path id="Path_2108" data-name="Path 2108" d="M24.891,11.375l-.331-.041a.5.5,0,0,1-.414-.561c-.024-.05-.062-.129-.126-.243A2.863,2.863,0,0,0,20.8,8.966a2.669,2.669,0,0,0-2.107,1.992.5.5,0,0,1-.972-.234,3.661,3.661,0,0,1,2.871-2.736,3.854,3.854,0,0,1,4.318,2.081c.2.362.382.738.164,1.048Z" transform="translate(-17.704 -7.889)" fill="#ff3d33"/>
      </g>
      <g id="Path_2090" data-name="Path 2090" transform="translate(10.225 13.189)">
        <path id="Path_2109" data-name="Path 2109" d="M10.271,13.243" transform="translate(-10.271 -13.243)" fill="none" stroke="#707070" stroke-width="1"/>
      </g>
      <path id="Path_2110" data-name="Path 2110" d="M42.136,24.949a5.925,5.925,0,0,0-4.04-3.943c.005-1.965-.022-3.874-.122-5.011a3.739,3.739,0,0,0-1.2-2.71,2.33,2.33,0,0,0-1.631-.529H12.787a.5.5,0,0,0,0,1l22.413,0a1.382,1.382,0,0,1,.961.324,2.832,2.832,0,0,1,.817,2.007c.214,2.43.08,8.7.021,11.011-.829-.786-1.669-1.562-2.526-2.3l-.085-.06c-.023-.012-.048-.018-.072-.03V18.01a4.026,4.026,0,0,0-.383-2.4.663.663,0,0,0-.481-.211H30.317a.5.5,0,1,0,0,1h2.915a6.982,6.982,0,0,1,.084,1.584v6.425a2.7,2.7,0,0,0-.954.09,2.64,2.64,0,0,0-1.592,1.271,2.466,2.466,0,0,0-.216.512,3.246,3.246,0,0,0-.131,1.818H12.175a3.148,3.148,0,0,0-.118-1.781,2.776,2.776,0,0,0-.228-.55A2.662,2.662,0,0,0,9.15,24.428V17.985l-.013-.114A1.4,1.4,0,0,1,9.33,16.84a1.566,1.566,0,0,1,1.282-.439H27.489a.5.5,0,1,0,0-1H10.612a2.487,2.487,0,0,0-2.067.818,2.358,2.358,0,0,0-.4,1.815v6.739l-.025.017c-.83.719-1.641,1.47-2.444,2.229l0-12.441a.694.694,0,0,1,.556-.762,31.846,31.846,0,0,1,3.834,0,.5.5,0,0,0,.06-1,32.675,32.675,0,0,0-4,0A1.681,1.681,0,0,0,4.681,14.63v6.323A5.932,5.932,0,0,0,.445,24.965C-.426,28.163.4,36.99.429,37.349c0,.04.315,4.024,5.669,4.466,1.731.143,3.075.2,4.124.2,2.528,0,3.344-.343,3.742-.681.624-.533.6-1.686.563-3.594-.009-.482-.02-1.008-.02-1.568V31.943H28.079v4.232c0,.56-.011,1.085-.02,1.567-.038,1.909-.062,3.062.564,3.594.4.339,1.212.682,3.74.682,1.05,0,2.4-.06,4.125-.2,5.354-.442,5.666-4.426,5.668-4.451C42.191,36.99,43.012,28.163,42.136,24.949ZM30.818,29.1a3.018,3.018,0,0,0,.744.835c.24.241.591.6.986,1h-22.5c.38-.391.715-.734.941-.961a3.246,3.246,0,0,0,.784-.878Zm-17.291,8.66c.025,1.212.052,2.586-.212,2.811s-1.5.71-7.135.244c-4.466-.369-4.744-3.407-4.755-3.548-.008-.09-.839-9.02-.019-12.027a4.921,4.921,0,0,1,3.275-3.255V27.2A.5.5,0,0,0,5,27.667c-.848.822-1.683,1.657-2.488,2.514l.728.685a75.3,75.3,0,0,1,5.5-5.283,1.664,1.664,0,0,1,2.216.674,1.761,1.761,0,0,1,.155.381,2.247,2.247,0,0,1-.778,2.594c-1.074,1.074-4.292,4.425-4.292,4.425l.722.694s1.173-1.223,2.326-2.416c.014,0,.026.008.04.008H9.9a.59.59,0,0,0,.037.047,2.848,2.848,0,0,1,.994,1.981,5.945,5.945,0,0,1,0,2.169.5.5,0,0,0,.4.582.473.473,0,0,0,.091.008.5.5,0,0,0,.492-.409,6.8,6.8,0,0,0,.006-2.48,3.8,3.8,0,0,0-.7-1.9h2.283v4.232C13.507,36.742,13.518,37.274,13.527,37.764Zm27.632-.481c-.01.129-.288,3.167-4.753,3.536-5.643.466-6.868-.014-7.135-.244s-.237-1.6-.212-2.812c.009-.489.02-1.021.02-1.588V31.943h2.477a3.683,3.683,0,0,0-.691,1.846,6.952,6.952,0,0,0,0,2.532.5.5,0,0,0,.49.409.47.47,0,0,0,.092-.008.5.5,0,0,0,.4-.582,6.1,6.1,0,0,1,.006-2.221,2.809,2.809,0,0,1,.987-1.929.425.425,0,0,0,.037-.047h.505a.472.472,0,0,0,.113-.023c1.166,1.2,2.342,2.43,2.343,2.431l.721-.694s-3.218-3.351-4.34-4.468A2.234,2.234,0,0,1,31.5,26.6a1.665,1.665,0,0,1,2.358-1.019,75.286,75.286,0,0,1,5.5,5.284l.729-.685c-.688-.731-1.405-1.439-2.123-2.145,0-.015.01-.028.011-.044.006-.2.089-3,.114-5.952a4.922,4.922,0,0,1,3.086,3.189C42,28.251,41.169,37.181,41.159,37.283Z" transform="translate(-0.046 -0.054)" fill="#172428"/>
      <g id="Ellipse_95" data-name="Ellipse 95" transform="translate(15.437 17.696)">
        <g id="Group_361" data-name="Group 361">
          <ellipse id="Ellipse_97" data-name="Ellipse 97" cx="6.5" cy="4.5" rx="6.5" ry="4.5" fill="none"/>
        </g>
        <g id="Group_362" data-name="Group 362" transform="translate(0)">
          <path id="Path_2111" data-name="Path 2111" d="M21.983,26.75c-3.584,0-6.5-2.019-6.5-4.5s2.916-4.5,6.5-4.5,6.5,2.019,6.5,4.5S25.567,26.75,21.983,26.75Zm0-8c-3.033,0-5.5,1.57-5.5,3.5s2.467,3.5,5.5,3.5,5.5-1.57,5.5-3.5S25.016,18.75,21.983,18.75Z" transform="translate(-15.483 -17.75)" fill="#ff3d33"/>
        </g>
      </g>
      <g id="Ellipse_96" data-name="Ellipse 96" transform="translate(19.437 19.696)">
        <g id="Group_363" data-name="Group 363">
          <circle id="Ellipse_98" data-name="Ellipse 98" cx="2.5" cy="2.5" r="2.5" fill="none"/>
        </g>
        <g id="Group_364" data-name="Group 364" transform="translate(0)">
          <path id="Path_2112" data-name="Path 2112" d="M21.983,24.75a2.5,2.5,0,1,1,2.5-2.5A2.5,2.5,0,0,1,21.983,24.75Zm0-4a1.5,1.5,0,1,0,1.5,1.5A1.5,1.5,0,0,0,21.983,20.75Z" transform="translate(-19.483 -19.75)" fill="#ff3d33"/>
        </g>
      </g>
    </g>
  </g>
</svg>
