<svg xmlns="http://www.w3.org/2000/svg" width="80" height="73.24" viewBox="0 0 80 73.24">
  <g id="Group_949" data-name="Group 949" transform="translate(-138 -2581)">
    <g id="Group_887" data-name="Group 887" transform="translate(0 -353)">
      <circle id="Ellipse_92" data-name="Ellipse 92" cx="22" cy="22" r="22" transform="translate(138 2963.24)" fill="#af3794" opacity="0.2"/>
      <circle id="Ellipse_93" data-name="Ellipse 93" cx="13" cy="13" r="13" transform="translate(192 2934)" fill="#355ba5" opacity="0.2"/>
    </g>
    <g id="Group_883" data-name="Group 883" transform="translate(-2744.929 2482.96)">
      <path id="Path_3586" data-name="Path 3586" d="M2953.225,162.884h-21.45l2.75-3.082c-.88-.984-1.757-1.962-2.721-3.037h21.379V106.04h-49.737v19.973a.537.537,0,0,1-.155.1v1.865q4.418,0,8.837,0c1.076,0,1.349.278,1.35,1.373,0,1.3,0,2.594,0,3.965h-.115V135.2h.066v12.277h3.227v.035h10.218V134.7h-11.537a10.7,10.7,0,0,1-.026-1.823h34.409V116.417h-42.668v9.692h-1.769V114.561h46.256V154.82c-.217.165-.466.083-.694.083q-10.286.009-20.573,0a3.609,3.609,0,0,0-1.4.269q-5.373,2.193-10.76,4.357l-.538.22c.1.237.3.24.461.3q5.488,2.228,10.98,4.446a2.873,2.873,0,0,0,1.108.211q10.437-.009,20.872,0h.541v3.769h1.443c.1-.147.255-.231.253-.472C2953.216,166.315,2953.225,164.628,2953.225,162.884Zm-37.907-26.333h9.73v9.075h-9.73Zm-6.415-18.3h39.009v12.742h-32.626c0-.631,0-1.236,0-1.841a2.786,2.786,0,0,0-2.973-3.01c-1.121-.009-2.242,0-3.408,0Zm42.634-5.587H2905.3v-4.91h46.241Zm-26.342,48.3-2.682-1.077c0-.052,0-.1,0-.153l2.679-1.1Zm4.51,1.493a.385.385,0,0,1-.524.119c-.036-.018-.073-.037-.108-.052-.665-.275-1.537-.377-1.935-.872-.386-.478-.1-1.364-.1-2.07,0-.561-.23-1.244.1-1.649.306-.371.95-.461,1.449-.666.9-.365.9-.364,1.563.382.625.7,1.248,1.4,1.921,2.16C2931.258,160.716,2930.476,161.58,2929.7,162.456Z" transform="translate(-0.306 0)" fill="#212121"/>
      <path id="Path_3587" data-name="Path 3587" d="M3080.12,293.81v12.746H3100.2V293.81Zm18.25,10.9h-16.394V295.64h16.394Z" transform="translate(-150.819 -159.082)" fill="#43d2e7"/>
      <path id="Path_3588" data-name="Path 3588" d="M3105.606,392.172H3103.8a9.834,9.834,0,0,1-.014-1.777h1.758A16.475,16.475,0,0,1,3105.606,392.172Z" transform="translate(-170.58 -240.911)" fill="#212121"/>
      <path id="Path_3589" data-name="Path 3589" d="M3127.994,390.367h1.748a10.4,10.4,0,0,1,.037,1.762,10.434,10.434,0,0,1-1.786.019Z" transform="translate(-191.171 -240.887)" fill="#212121"/>
      <path id="Path_3590" data-name="Path 3590" d="M3175.848,390.354h1.756v1.776h-1.756Z" transform="translate(-231.922 -240.876)" fill="#212121"/>
      <path id="Path_3591" data-name="Path 3591" d="M3151.886,392.148v-1.775h1.78v1.775Z" transform="translate(-211.465 -240.892)" fill="#212121"/>
      <path id="Path_3592" data-name="Path 3592" d="M3086.127,248.429v-1.767h15.313a11.183,11.183,0,0,1,.04,1.767Z" transform="translate(-155.908 -119.138)" fill="#f76132"/>
      <path id="Path_3593" data-name="Path 3593" d="M3084.1,222.675v1.753H3070a9.114,9.114,0,0,1-.018-1.753Z" transform="translate(-141.99 -98.815)" fill="#f76132"/>
      <path id="Path_3594" data-name="Path 3594" d="M3120.23,198.977v1.758h-11.956v-1.758Z" transform="translate(-174.671 -78.738)" fill="#f76132"/>
      <path id="Path_3595" data-name="Path 3595" d="M3038.253,248.341v-1.766h1.756v1.766Z" transform="translate(-114.945 -119.064)" fill="#f76132"/>
      <path id="Path_3596" data-name="Path 3596" d="M3174.857,224.506v-1.752h1.766v1.752Z" transform="translate(-231.082 -98.882)" fill="#f76132"/>
      <path id="Path_3597" data-name="Path 3597" d="M3061.972,246.538h1.781v1.774h-1.734A12.036,12.036,0,0,1,3061.972,246.538Z" transform="translate(-135.083 -119.033)" fill="#f76132"/>
      <path id="Path_3598" data-name="Path 3598" d="M3039.52,127.526V129.3h-30.976v-1.773Z" transform="translate(-90.178 -18.203)" fill="#43d2e7"/>
      <path id="Path_3599" data-name="Path 3599" d="M2953.962,129.311v-1.78h1.777v1.78Z" transform="translate(-43.237 -18.208)" fill="#f76132"/>
      <path id="Path_3600" data-name="Path 3600" d="M2979.8,127.571v1.769h-1.764v-1.769Z" transform="translate(-63.799 -18.241)" fill="#f76132"/>
      <path id="Path_3601" data-name="Path 3601" d="M2930.068,127.488h1.767v1.759h-1.767Z" transform="translate(-22.993 -18.171)" fill="#f76132"/>
      <rect id="Rectangle_125" data-name="Rectangle 125" width="1.768" height="50.483" transform="translate(2902.928 106.05)" fill="#212121"/>
    </g>
  </g>
</svg>
