<svg xmlns="http://www.w3.org/2000/svg" width="154.048" height="110.154" viewBox="0 0 154.048 110.154">
  <g id="Group_822" data-name="Group 822" transform="translate(-571 -1682)">
    <g id="Group_551" data-name="Group 551" transform="translate(-23.66 1698.964)">
      <rect id="Rectangle_60" data-name="Rectangle 60" width="17.048" height="6.921" rx="3.461" transform="translate(594.661 -5.818)" fill="rgba(217,202,242,0.51)"/>
      <rect id="Rectangle_61" data-name="Rectangle 61" width="11.256" height="7.067" rx="3.533" transform="translate(737.453 14.508)" fill="rgba(217,202,242,0.51)"/>
      <path id="Path_3023" data-name="Path 3023" d="M725.451,41.213v-.08a4.55,4.55,0,0,1,4.55-4.55h14.687a55.573,55.573,0,0,0-.585-6.776H713.388a5.026,5.026,0,0,1-5.027-5.026h0a5.027,5.027,0,0,1,5.027-5.027h28.191a55.091,55.091,0,0,0-78.406-29.943h15.766a5.027,5.027,0,0,1,5.027,5.027h0a5.027,5.027,0,0,1-5.027,5.027h-28.9a55.3,55.3,0,0,0-6.887,8.742h17.906a4.549,4.549,0,0,1,4.55,4.55v.08a4.549,4.549,0,0,1-4.55,4.55h-22.6a55.118,55.118,0,0,0-.67,38.9h16.888a4.371,4.371,0,0,1,0,8.742H641.832a55.2,55.2,0,0,0,5.828,8.306h19.258a4.371,4.371,0,0,1,4.371,4.371h0a4.371,4.371,0,0,1-4.371,4.371h-9.9a55.043,55.043,0,0,0,62.726,1.748h-9.6a4.371,4.371,0,1,1,0-8.742h19.941a54.875,54.875,0,0,0,14.092-29.724H730A4.55,4.55,0,0,1,725.451,41.213ZM673.712,51.882h-9a3.7,3.7,0,1,1,0-7.395h9a3.7,3.7,0,0,1,0,7.395ZM696.205-3.881A4.748,4.748,0,0,1,691.458.867H690.28a4.748,4.748,0,0,1-4.748-4.748V-4.84a4.748,4.748,0,0,1,4.748-4.748h1.178a4.748,4.748,0,0,1,4.747,4.748Zm33.768,60.152a3.3,3.3,0,0,1-3.3,3.3H722.56a3.3,3.3,0,0,1-3.3-3.3v-.328a3.3,3.3,0,0,1,3.3-3.3h4.116a3.3,3.3,0,0,1,3.3,3.3Z" transform="translate(-12.773)" fill="rgba(217,202,242,0.51)"/>
      <rect id="Rectangle_62" data-name="Rectangle 62" width="17.048" height="6.921" rx="3.461" transform="translate(604.095 76.834)" fill="rgba(217,202,242,0.51)"/>
    </g>
    <g id="Group_802" data-name="Group 802" transform="translate(44.103 1622.966)">
      <path id="Path_3366" data-name="Path 3366" d="M647.9,85.551v68.584a1.747,1.747,0,0,1-1.558.637q-23.427-.021-46.855-.011c-.13,0-.26,0-.391,0-.819-.031-1.179-.381-1.189-1.21-.014-1.223,0-2.447,0-3.67,0-1.713,0-3.425,0-5.185h-.991q-13.7,0-27.41,0c-1.325,0-1.594-.258-1.594-1.518q0-33.462-.011-66.924a1.694,1.694,0,0,1,.637-1.48h48.743a1.68,1.68,0,0,1,.641,1.479c-.03,2.447-.019,4.894-.01,7.341a3.331,3.331,0,0,0,.075,1.245h.947q13.666,0,27.332-.006C646.93,84.83,647.54,84.882,647.9,85.551Zm-45.139,67.155h43.075V86.878H617.9v.973q0,27.646.012,55.292a1.662,1.662,0,0,1-.972,1.679c-1.767.933-3.5,1.935-5.245,2.908Zm-32.8-75.892v65.849h45.885V76.814Zm29.981,75.169,12.989-7.235H599.942Z" transform="translate(0 0)" fill="#fd683c"/>
      <path id="Path_3367" data-name="Path 3367" d="M616.223,137.687A14.464,14.464,0,0,1,630.55,150.21a14.057,14.057,0,0,1-3.924,11.743c-.87.937-.823,1.495.187,2.269.274.21.588.367.882.551a.779.779,0,0,1-.039,1.447c-2.424,1.114-4.834,1.315-7.175-.225a.855.855,0,0,0-.75-.085,14.349,14.349,0,1,1-3.508-28.223Zm9.334,27.623c-1.541-1.9-1.521-2.844.1-4.647a12.3,12.3,0,0,0,3.2-10.993,12.824,12.824,0,0,0-15.64-10.051,12.177,12.177,0,0,0-9.632,9.71,12.027,12.027,0,0,0,4.478,12.586,12.512,12.512,0,0,0,11.546,2.4c.473-.122.92-.295,1.384.1A4.912,4.912,0,0,0,625.556,165.31Z" transform="translate(-24.605 -46.327)" fill="#13406d"/>
      <path id="Path_3368" data-name="Path 3368" d="M643.883,372.292q-4.023,0-8.045,0a2.924,2.924,0,0,1-.726-.076.691.691,0,0,1-.53-.738.741.741,0,0,1,.622-.737,2.572,2.572,0,0,1,.551-.024l16.4,0a3.05,3.05,0,0,1,.429.011.73.73,0,0,1,.692.731.694.694,0,0,1-.556.774,2.888,2.888,0,0,1-.666.068q-4.084.006-8.168,0Z" transform="translate(-50.488 -237.825)" fill="#13406d"/>
      <path id="Path_3369" data-name="Path 3369" d="M642.127,188.871c.222-1.306.421-2.7.709-4.084a1.42,1.42,0,0,0-.488-1.541c-.992-.885-1.913-1.85-2.87-2.775a.919.919,0,0,1-.376-.968c.126-.412.47-.531.854-.586,1.477-.214,2.951-.453,4.433-.633a.752.752,0,0,0,.661-.511c.63-1.305,1.28-2.6,1.91-3.905.182-.377.415-.663.87-.652a.921.921,0,0,1,.815.642c.643,1.322,1.3,2.634,1.941,3.959a.7.7,0,0,0,.625.463c1.4.174,2.794.393,4.19.6.081.012.161.029.242.04a.9.9,0,0,1,.863.577.91.91,0,0,1-.365.971c-1.045,1.011-2.072,2.04-3.128,3.038a.871.871,0,0,0-.3.905c.253,1.325.467,2.657.695,3.987.021.121.037.243.055.364a.886.886,0,0,1-.27.946.9.9,0,0,1-1.033-.024c-1.266-.663-2.543-1.305-3.791-2a1,1,0,0,0-1.118-.007c-1.285.713-2.592,1.387-3.9,2.052C642.657,190.076,642.1,189.707,642.127,188.871Zm1.815-1.233c1.119-.585,2.155-1.105,3.168-1.667a1.285,1.285,0,0,1,1.379,0c1.013.562,2.052,1.079,3.171,1.662-.206-1.234-.368-2.382-.6-3.516a1.274,1.274,0,0,1,.416-1.313c.747-.7,1.473-1.421,2.2-2.141.1-.1.3-.166.232-.393a20.829,20.829,0,0,0-2.6-.372,2.273,2.273,0,0,1-2.306-1.683,26.7,26.7,0,0,0-1.206-2.469c-.572,1.157-1.1,2.19-1.594,3.237a1.242,1.242,0,0,1-1.066.78c-1.164.143-2.32.341-3.389.5.793.847,1.571,1.71,2.387,2.536a1.314,1.314,0,0,1,.407,1.316C644.315,185.249,644.151,186.4,643.942,187.638Z" transform="translate(-56.13 -75.745)" fill="#13406d"/>
    </g>
  </g>
</svg>
