<svg xmlns="http://www.w3.org/2000/svg" width="80" height="73.24" viewBox="0 0 80 73.24">
  <g id="Group_950" data-name="Group 950" transform="translate(-138 -2734)">
    <g id="Group_889" data-name="Group 889" transform="translate(0 -353)">
      <circle id="Ellipse_92" data-name="Ellipse 92" cx="22" cy="22" r="22" transform="translate(138 3116.24)" fill="#af3794" opacity="0.2"/>
      <circle id="Ellipse_93" data-name="Ellipse 93" cx="13" cy="13" r="13" transform="translate(192 3087)" fill="#355ba5" opacity="0.2"/>
    </g>
    <g id="Group_886" data-name="Group 886" transform="translate(-7333 3170)">
      <g id="Group_885" data-name="Group 885" transform="translate(4134.071 -570.714)">
        <path id="Path_3602" data-name="Path 3602" d="M3404.429,147.714h-45a2.511,2.511,0,0,0-2.5,2.522v31.947a2.511,2.511,0,0,0,2.5,2.522H3378.6v3.363h-6.667a2.511,2.511,0,0,0-2.5,2.522v1.681a.837.837,0,0,0,.833.841H3393.6a.837.837,0,0,0,.833-.841V190.59a2.511,2.511,0,0,0-2.5-2.522H3386.1v-3.363h18.333a2.511,2.511,0,0,0,2.5-2.522V150.236A2.511,2.511,0,0,0,3404.429,147.714Zm-12.5,42.035a.837.837,0,0,1,.833.841v.841H3371.1v-.841a.837.837,0,0,1,.833-.841Zm-11.667-1.681v-3.363h4.167v3.363Zm25-5.885a.837.837,0,0,1-.833.841h-45a.837.837,0,0,1-.833-.841v-2.522h46.667Zm0-4.2H3358.6v-23.47h46.667Zm0-25.151H3358.6v-2.592a.837.837,0,0,1,.833-.841h45a.837.837,0,0,1,.833.841Z" fill="#212121"/>
        <g id="Group_884" data-name="Group 884" transform="translate(3360.292 156.121)">
          <path id="Path_3603" data-name="Path 3603" d="M3385.537,218.813h1.865l2.354,11.1a.841.841,0,0,0,.825.673h10.088a.841.841,0,0,0,.824-.673l1.681-8.407a.841.841,0,0,0-.824-1.009h-12.8l-.681-2.726a.841.841,0,0,0-.816-.637h-2.522a.841.841,0,0,0,0,1.681Zm15.789,3.363-1.344,6.726h-8.711l-1.345-6.726Z" transform="translate(-3384.696 -217.132)" fill="#43d2e7"/>
          <path id="Path_3604" data-name="Path 3604" d="M3428.869,335.143a2.522,2.522,0,1,0,2.522,2.522A2.522,2.522,0,0,0,3428.869,335.143Zm0,3.363a.841.841,0,1,1,.841-.841A.841.841,0,0,1,3428.869,338.506Z" transform="translate(-3421.303 -320.851)" fill="#43d2e7"/>
          <path id="Path_3605" data-name="Path 3605" d="M3491.345,335.143a2.522,2.522,0,1,0,2.522,2.522A2.522,2.522,0,0,0,3491.345,335.143Zm0,3.363a.841.841,0,1,1,.841-.841A.841.841,0,0,1,3491.345,338.506Z" transform="translate(-3476.212 -320.851)" fill="#43d2e7"/>
        </g>
        <path id="Path_3606" data-name="Path 3606" d="M3566.024,239.639h15.133a.841.841,0,0,0,0-1.681h-15.133a.841.841,0,0,0,0,1.681Z" transform="translate(-183.365 -79.315)" fill="#f76132"/>
        <path id="Path_3607" data-name="Path 3607" d="M3718.743,239.639h1.682a.841.841,0,0,0,0-1.681h-1.682a.841.841,0,0,0,0,1.681Z" transform="translate(-317.699 -79.315)" fill="#f76132"/>
        <path id="Path_3608" data-name="Path 3608" d="M3566.024,267.406h15.133a.841.841,0,0,0,0-1.681h-15.133a.841.841,0,0,0,0,1.681Z" transform="translate(-183.365 -103.719)" fill="#f76132"/>
        <path id="Path_3609" data-name="Path 3609" d="M3718.743,267.406h1.682a.841.841,0,0,0,0-1.681h-1.682a.841.841,0,0,0,0,1.681Z" transform="translate(-317.699 -103.719)" fill="#f76132"/>
        <path id="Path_3610" data-name="Path 3610" d="M3566.024,295.173h15.133a.841.841,0,0,0,0-1.681h-15.133a.841.841,0,0,0,0,1.681Z" transform="translate(-183.365 -128.123)" fill="#f76132"/>
        <path id="Path_3611" data-name="Path 3611" d="M3718.743,295.173h1.682a.841.841,0,0,0,0-1.681h-1.682a.841.841,0,0,0,0,1.681Z" transform="translate(-317.699 -128.123)" fill="#f76132"/>
        <path id="Path_3612" data-name="Path 3612" d="M3566.024,322.94h15.133a.841.841,0,0,0,0-1.681h-15.133a.841.841,0,0,0,0,1.681Z" transform="translate(-183.365 -152.527)" fill="#f76132"/>
        <path id="Path_3613" data-name="Path 3613" d="M3718.743,322.94h1.682a.841.841,0,0,0,0-1.681h-1.682a.841.841,0,0,0,0,1.681Z" transform="translate(-317.699 -152.527)" fill="#f76132"/>
      </g>
    </g>
  </g>
</svg>
