<svg xmlns="http://www.w3.org/2000/svg" width="154.048" height="110.154" viewBox="0 0 154.048 110.154">
  <g id="Group_823" data-name="Group 823" transform="translate(-903 -1674)">
    <g id="Group_551" data-name="Group 551" transform="translate(308.34 1690.964)">
      <rect id="Rectangle_60" data-name="Rectangle 60" width="17.048" height="6.921" rx="3.461" transform="translate(594.661 -5.818)" fill="rgba(217,202,242,0.51)"/>
      <rect id="Rectangle_61" data-name="Rectangle 61" width="11.256" height="7.067" rx="3.533" transform="translate(737.453 14.508)" fill="rgba(217,202,242,0.51)"/>
      <path id="Path_3023" data-name="Path 3023" d="M725.451,41.213v-.08a4.55,4.55,0,0,1,4.55-4.55h14.687a55.573,55.573,0,0,0-.585-6.776H713.388a5.026,5.026,0,0,1-5.027-5.026h0a5.027,5.027,0,0,1,5.027-5.027h28.191a55.091,55.091,0,0,0-78.406-29.943h15.766a5.027,5.027,0,0,1,5.027,5.027h0a5.027,5.027,0,0,1-5.027,5.027h-28.9a55.3,55.3,0,0,0-6.887,8.742h17.906a4.549,4.549,0,0,1,4.55,4.55v.08a4.549,4.549,0,0,1-4.55,4.55h-22.6a55.118,55.118,0,0,0-.67,38.9h16.888a4.371,4.371,0,0,1,0,8.742H641.832a55.2,55.2,0,0,0,5.828,8.306h19.258a4.371,4.371,0,0,1,4.371,4.371h0a4.371,4.371,0,0,1-4.371,4.371h-9.9a55.043,55.043,0,0,0,62.726,1.748h-9.6a4.371,4.371,0,1,1,0-8.742h19.941a54.875,54.875,0,0,0,14.092-29.724H730A4.55,4.55,0,0,1,725.451,41.213ZM673.712,51.882h-9a3.7,3.7,0,1,1,0-7.395h9a3.7,3.7,0,0,1,0,7.395ZM696.205-3.881A4.748,4.748,0,0,1,691.458.867H690.28a4.748,4.748,0,0,1-4.748-4.748V-4.84a4.748,4.748,0,0,1,4.748-4.748h1.178a4.748,4.748,0,0,1,4.747,4.748Zm33.768,60.152a3.3,3.3,0,0,1-3.3,3.3H722.56a3.3,3.3,0,0,1-3.3-3.3v-.328a3.3,3.3,0,0,1,3.3-3.3h4.116a3.3,3.3,0,0,1,3.3,3.3Z" transform="translate(-12.773)" fill="rgba(217,202,242,0.51)"/>
      <rect id="Rectangle_62" data-name="Rectangle 62" width="17.048" height="6.921" rx="3.461" transform="translate(604.095 76.834)" fill="rgba(217,202,242,0.51)"/>
    </g>
    <g id="_03" data-name="03" transform="translate(950.826 1691.099)">
      <path id="Path_3304" data-name="Path 3304" d="M0,376.48v2.263a1.2,1.2,0,0,0,2.393,0V376.48c0-9.089,6.542-15.688,15.557-15.688h6.685l8.026,8.026a1.2,1.2,0,0,0,1.692,0l8.026-8.026h6.685c9.015,0,15.557,6.6,15.557,15.688v2.263a1.2,1.2,0,0,0,2.393,0V376.48c0-10.477-7.55-18.082-17.951-18.082h-7.18a1.2,1.2,0,0,0-.846.351l-7.531,7.531-7.531-7.531a1.2,1.2,0,0,0-.846-.351h-7.18C7.551,358.4,0,366,0,376.48Zm0,0" transform="translate(0 -308.136)" fill="#fe6231"/>
      <path id="Path_3305" data-name="Path 3305" d="M46.967,37.942a20.474,20.474,0,0,1-3.477,1.612,1.2,1.2,0,0,0-.468,1.981A12.649,12.649,0,0,0,52.014,45.6a7.644,7.644,0,0,0,1.718-.169,1.2,1.2,0,0,0-.582-2.322,8.948,8.948,0,0,1-7.032-2.045,21.047,21.047,0,0,0,2.073-1.077c2.443-1.453,3.477-4.332,2.837-7.9-1.1-6.123-1.417-17.832,4.388-22.807a1.2,1.2,0,0,0,.139-.14c.056-.068,5.767-6.752,14.64-6.752S84.778,9.077,84.835,9.145a1.253,1.253,0,0,0,.139.141,14.2,14.2,0,0,1,4.195,7.741,1.2,1.2,0,0,0,1.164.92,1.213,1.213,0,0,0,.277-.032,1.2,1.2,0,0,0,.888-1.436A16.573,16.573,0,0,0,86.6,7.535,22.871,22.871,0,0,0,70.2,0,22.874,22.874,0,0,0,53.788,7.531c-8.068,7.026-5.441,23.168-5.114,24.992.267,1.486.4,4.167-1.706,5.419Zm0,0" transform="translate(-36.688 0)" fill="#fe6231"/>
      <path id="Path_3306" data-name="Path 3306" d="M350.746,277.285a7.671,7.671,0,0,0,1.718.169,12.648,12.648,0,0,0,8.992-4.069,1.2,1.2,0,0,0-.467-1.98,20.562,20.562,0,0,1-3.42-1.576,1.2,1.2,0,0,0-1.212,2.065,21.13,21.13,0,0,0,2,1.03,8.93,8.93,0,0,1-7.042,2.042,1.2,1.2,0,0,0-.573,2.324Zm0,0" transform="translate(-300.775 -231.846)" fill="#fe6231"/>
      <path id="Path_3307" data-name="Path 3307" d="M150.331,116.824h-4.714c-.025,0-.048-.016-.073-.016h-4.771v-4.771a1.212,1.212,0,0,0-2.425,0v4.771h-4.756v-4.771a1.212,1.212,0,0,0-2.425,0v4.771h-4.756v-4.771a1.212,1.212,0,0,0-2.425,0v4.771h-4.756v-4.771a1.212,1.212,0,0,0-2.425,0v4.771h-4.771a1.214,1.214,0,0,0-1.212,1.215c0,.024,0,.048,0,.072l.6,9.9c.559,10.506,7.487,17.567,17.233,17.567h.252a17.3,17.3,0,0,0,7.581-1.681,1.211,1.211,0,1,0-1.051-2.183,14.918,14.918,0,0,1-6.53,1.436h-.239c-8.377,0-14.331-6.137-14.818-15.28l-.524-8.623h30.928l-.524,8.623a1.212,1.212,0,1,0,2.419.147l.535-8.782h3.645a1.2,1.2,0,0,1,1.2,1.2v7.18a1.2,1.2,0,0,1-1.2,1.2,1.2,1.2,0,0,0,0,2.393,3.59,3.59,0,0,0,3.59-3.59v-7.18a3.59,3.59,0,0,0-3.59-3.59Zm0,0" transform="translate(-95.282 -95.283)" fill="#13406d"/>
      <path id="Path_3308" data-name="Path 3308" d="M238.261,188.834a1.212,1.212,0,0,0-2.425,0,13.164,13.164,0,0,1-13.148,13.148h-.159a4.8,4.8,0,1,0,0,2.425h.159A15.591,15.591,0,0,0,238.261,188.834ZM217.9,205.572a2.378,2.378,0,1,1,2.378-2.378A2.378,2.378,0,0,1,217.9,205.572Zm0,0" transform="translate(-183.197 -161.309)" fill="#fe6231"/>
    </g>
  </g>
</svg>
