<svg xmlns="http://www.w3.org/2000/svg" width="80" height="73.24" viewBox="0 0 80 73.24">
  <g id="Group_942" data-name="Group 942" transform="translate(-138 -2428)">
    <g id="Group_888" data-name="Group 888" transform="translate(0 -353)">
      <circle id="Ellipse_92" data-name="Ellipse 92" cx="22" cy="22" r="22" transform="translate(138 2810.24)" fill="#af3794" opacity="0.2"/>
      <circle id="Ellipse_93" data-name="Ellipse 93" cx="13" cy="13" r="13" transform="translate(192 2781)" fill="#355ba5" opacity="0.2"/>
    </g>
    <g id="Group_882" data-name="Group 882" transform="translate(-2017.2 2250)">
      <path id="Path_3550" data-name="Path 3550" d="M2175.2,380h1.541v1.571H2175.2Z" transform="translate(0 -168.549)" fill="#212121"/>
      <path id="Path_3551" data-name="Path 3551" d="M2175.2,405.6h1.543v1.571H2175.2Z" transform="translate(0 -191.022)" fill="#212121"/>
      <path id="Path_3552" data-name="Path 3552" d="M2175.2,431.2h1.541v1.571H2175.2Z" transform="translate(0 -213.495)" fill="#212121"/>
      <path id="Path_3553" data-name="Path 3553" d="M2273.474,223.964h17.877V197.382h-21.77q0-.782,0-1.563h21.781c0-1.658.03-3.282-.013-4.9a1.466,1.466,0,0,0-1.386-1.341c-.145-.014-.292-.01-.437-.01H2268.3a1.615,1.615,0,0,0-1.883,1.545h-1.492a3,3,0,0,1,2.443-3.033,5.037,5.037,0,0,1,.919-.073q10.611-.006,21.222,0a3.131,3.131,0,0,1,3.421,3.421q0,19.249,0,38.5a3.122,3.122,0,0,1-3.413,3.426q-10.635,0-21.271,0a3.1,3.1,0,0,1-3.341-2.9c0-.061,0-.123,0-.205h1.509a1.627,1.627,0,0,0,1.168,1.476,2.223,2.223,0,0,0,.625.066q10.708,0,21.417,0a1.557,1.557,0,0,0,1.75-1.737c0-1.481,0-2.962,0-4.511h-17.9Z" transform="translate(-78.693 0)" fill="#212121"/>
      <path id="Path_3554" data-name="Path 3554" d="M2331.693,317.442a7.858,7.858,0,1,1-8.02-7.857A7.9,7.9,0,0,1,2331.693,317.442Zm-3.489,4.47a6.261,6.261,0,1,0-8.725-.013,4.635,4.635,0,0,1,4.373-2.865A4.685,4.685,0,0,1,2328.2,321.912Zm-7.392,1a5.933,5.933,0,0,0,6.033-.021,3.153,3.153,0,0,0-2.958-2.3A3.185,3.185,0,0,0,2320.812,322.91Z" transform="translate(-123.618 -106.769)" fill="#43d2e7"/>
      <path id="Path_3555" data-name="Path 3555" d="M2202.325,229.8v1.571q-.008,4.393-.015,8.787c0,.194,0,.388,0,.613h-14.118V226.7h14.133Zm-12.552-1.55v10.938h10.939V228.251Z" transform="translate(-11.397 -33.945)" fill="#f76132"/>
      <path id="Path_3556" data-name="Path 3556" d="M2206.338,460.134q0,.789,0,1.578v3.111h-18.045v-7.8h18.047Zm-1.615,3.12V458.6h-14.868v4.653Z" transform="translate(-11.484 -236.215)" fill="#43d2e7"/>
      <path id="Path_3557" data-name="Path 3557" d="M2508.154,427.963v-9.372h9.37v9.372Zm7.8-1.539v-6.253h-6.208v6.24c.117.005.2.012.279.012Z" transform="translate(-292.324 -202.457)" fill="#f76132"/>
      <path id="Path_3558" data-name="Path 3558" d="M2265.006,354.525h1.521v10.953h-1.521Z" transform="translate(-78.837 -146.213)" fill="#212121"/>
      <path id="Path_3559" data-name="Path 3559" d="M2508.151,208.967v-1.508h7.8v1.508Z" transform="translate(-292.321 -17.071)" fill="#212121"/>
      <path id="Path_3560" data-name="Path 3560" d="M2360.913,516.136v-1.517h4.669v1.517Z" transform="translate(-163.037 -286.745)" fill="#212121"/>
      <path id="Path_3561" data-name="Path 3561" d="M2378.487,220.222v1.518h-4.672v-1.518Z" transform="translate(-174.363 -28.267)" fill="#212121"/>
      <path id="Path_3562" data-name="Path 3562" d="M2512.888,233.025v1.517h-4.673v-1.517Z" transform="translate(-292.377 -39.498)" fill="#212121"/>
      <path id="Path_3563" data-name="Path 3563" d="M2349.688,221.705h-1.511v-1.528h1.511Z" transform="translate(-151.849 -28.227)" fill="#212121"/>
      <path id="Path_3564" data-name="Path 3564" d="M2560.9,343.294h-1.526v-1.531h1.526Z" transform="translate(-337.255 -134.982)" fill="#212121"/>
      <path id="Path_3565" data-name="Path 3565" d="M2509.762,341.834v1.514h-1.528v-1.514Z" transform="translate(-292.394 -135.045)" fill="#212121"/>
      <path id="Path_3566" data-name="Path 3566" d="M2201.087,380.141h1.5v1.523h-1.5Z" transform="translate(-22.709 -168.673)" fill="#212121"/>
      <path id="Path_3567" data-name="Path 3567" d="M2226.55,381.678v-1.531h1.531v1.531Z" transform="translate(-45.047 -168.678)" fill="#212121"/>
      <path id="Path_3568" data-name="Path 3568" d="M2458.572,343.385h-1.511v-1.53h1.511Z" transform="translate(-247.433 -135.063)" fill="#212121"/>
      <path id="Path_3569" data-name="Path 3569" d="M2560.923,316.189v1.529h-1.531v-1.529Z" transform="translate(-337.272 -112.532)" fill="#212121"/>
      <path id="Path_3570" data-name="Path 3570" d="M2226.607,405.742h1.521v1.528h-1.521Z" transform="translate(-45.097 -191.147)" fill="#212121"/>
      <path id="Path_3571" data-name="Path 3571" d="M2456.925,317.741v-1.516h1.528v1.516Z" transform="translate(-247.313 -112.563)" fill="#212121"/>
      <path id="Path_3572" data-name="Path 3572" d="M2202.516,431.388v1.525h-1.529v-1.525Z" transform="translate(-22.622 -213.66)" fill="#212121"/>
      <path id="Path_3573" data-name="Path 3573" d="M2228.16,432.971h-1.515V431.44h1.515Z" transform="translate(-45.13 -213.706)" fill="#212121"/>
      <path id="Path_3574" data-name="Path 3574" d="M2535.4,341.877v1.507h-1.523v-1.507Z" transform="translate(-314.894 -135.082)" fill="#212121"/>
      <path id="Path_3575" data-name="Path 3575" d="M2560.912,292.115h-1.525v-1.528h1.525Z" transform="translate(-337.268 -90.057)" fill="#212121"/>
      <path id="Path_3576" data-name="Path 3576" d="M2535.268,292.079h-1.514v-1.531h1.514Z" transform="translate(-314.781 -90.023)" fill="#212121"/>
      <path id="Path_3577" data-name="Path 3577" d="M2508.236,290.524h1.517v1.532h-1.517Z" transform="translate(-292.396 -90.002)" fill="#212121"/>
      <path id="Path_3578" data-name="Path 3578" d="M2458.535,290.608v1.517H2457v-1.517Z" transform="translate(-247.381 -90.075)" fill="#212121"/>
      <path id="Path_3579" data-name="Path 3579" d="M2365.538,343.941a2.357,2.357,0,1,1-2.373-2.315A2.386,2.386,0,0,1,2365.538,343.941Zm-2.379-.741a.778.778,0,1,0,.8.758A.789.789,0,0,0,2363.159,343.2Z" transform="translate(-162.959 -134.87)" fill="#43d2e7"/>
      <path id="Path_3580" data-name="Path 3580" d="M2221.676,252.228v1.515h-7.809v-1.515Z" transform="translate(-33.92 -56.383)" fill="#f76132"/>
      <path id="Path_3581" data-name="Path 3581" d="M2221.714,277.857v1.517h-7.8v-1.517Z" transform="translate(-33.966 -78.882)" fill="#f76132"/>
      <path id="Path_3582" data-name="Path 3582" d="M2217.779,303.457v1.517h-3.868v-1.517Z" transform="translate(-33.959 -101.355)" fill="#f76132"/>
      <path id="Path_3583" data-name="Path 3583" d="M2235.248,482.7v1.5h-8.6v-1.5Z" transform="translate(-45.134 -258.702)" fill="#43d2e7"/>
      <path id="Path_3584" data-name="Path 3584" d="M2540.3,450.549h1.505v1.529H2540.3Z" transform="translate(-320.527 -230.481)" fill="#f76132"/>
      <path id="Path_3585" data-name="Path 3585" d="M2374.409,354.447a.783.783,0,0,1,.8.758.791.791,0,0,1-.761.8.778.778,0,0,1-.034-1.555Z" transform="translate(-174.209 -146.117)" fill="#fdfefe"/>
    </g>
  </g>
</svg>
