<svg id="Layer_1" data-name="Layer 1" xmlns="http://www.w3.org/2000/svg" xmlns:xlink="http://www.w3.org/1999/xlink" viewBox="0 0 35.76 11.56"><defs><style>.cls-1{fill:url(#linear-gradient);}</style><linearGradient id="linear-gradient" x1="-103.55" y1="2.99" x2="-67.8" y2="2.99" gradientTransform="translate(111.1 17.62) rotate(-3.16)" gradientUnits="userSpaceOnUse"><stop offset="0" stop-color="#bf3284"/><stop offset="0.47" stop-color="#dc7351"/><stop offset="1" stop-color="#fbbe1b"/></linearGradient></defs><title>Zinios-menu-botton-2</title><path class="cls-1" d="M37.33,19c-6.61-.11-7.64,3.89-13.31,3.9a12.22,12.22,0,0,1-6.43-1.5,9.48,9.48,0,0,0-2.08-.86l-.1,0c-2.8-.65-4.4,0-4.95.38l-.88.72c-2,2-2.39,4.81-.57,6.22,3.16,2.44,8.15,1,11.46.52,5.81-.71,8.2.95,10.62,1.57a14.89,14.89,0,0,0,6.08.5c4.17-.59,6.45-2.52,6.41-5.75S41.23,19.07,37.33,19Z" transform="translate(-7.83 -19.01)"/></svg>