<svg id="Layer_1" data-name="Layer 1" xmlns="http://www.w3.org/2000/svg" xmlns:xlink="http://www.w3.org/1999/xlink" viewBox="0 0 35.76 11.56"><defs><style>.cls-1{fill:url(#linear-gradient);}</style><linearGradient id="linear-gradient" x1="919.16" y1="-4169.95" x2="954.91" y2="-4169.95" gradientTransform="translate(730.26 -4191.37) rotate(176.84)" gradientUnits="userSpaceOnUse"><stop offset="0" stop-color="#bf3284"/><stop offset="0.47" stop-color="#dc7351"/><stop offset="1" stop-color="#fbbe1b"/></linearGradient></defs><title>Zinios-menu-botton-1</title><path class="cls-1" d="M13.11,30.26c6.61.1,7.64-3.9,13.32-3.9a12,12,0,0,1,6.42,1.5,9.41,9.41,0,0,0,2.08.85l.1,0c2.8.64,4.4,0,4.95-.38.1-.09.79-.64.88-.73,2-2,2.39-4.8.57-6.22-3.15-2.44-8.15-1-11.46-.52-5.81.71-8.2-.94-10.62-1.57a14.89,14.89,0,0,0-6.08-.5c-4.16.59-6.45,2.52-6.41,5.75S9.21,30.2,13.11,30.26Z" transform="translate(-6.86 -18.7)"/></svg>