<?xml version="1.0" encoding="UTF-8"?>
<svg width="26px" height="25px" viewBox="0 0 26 25" version="1.1" xmlns="http://www.w3.org/2000/svg" xmlns:xlink="http://www.w3.org/1999/xlink">
    <!-- Generator: Sketch 49.3 (51167) - http://www.bohemiancoding.com/sketch -->
    <title>link</title>
    <desc>Created with Sketch.</desc>
    <defs>
        <linearGradient x1="0.00732869183%" y1="50.0056332%" x2="99.9833272%" y2="50.0056332%" id="linearGradient-1">
            <stop stop-color="#FDBF17" offset="0%"></stop>
            <stop stop-color="#9618CC" offset="99.82%"></stop>
        </linearGradient>
        <linearGradient x1="0.00452944137%" y1="50.0007439%" x2="100.033216%" y2="50.0007439%" id="linearGradient-2">
            <stop stop-color="#FDBF17" offset="0%"></stop>
            <stop stop-color="#9618CC" offset="99.82%"></stop>
        </linearGradient>
        <linearGradient x1="0.043765583%" y1="49.9954292%" x2="100.062812%" y2="49.9954292%" id="linearGradient-3">
            <stop stop-color="#FDBF17" offset="0%"></stop>
            <stop stop-color="#9618CC" offset="99.82%"></stop>
        </linearGradient>
    </defs>
    <g id="Zinios-Home-Page" stroke="none" stroke-width="1" fill="none" fill-rule="evenodd">
        <g id="Zinios-Home-Page-Template-UI-Design" transform="translate(-904.000000, -6660.000000)" fill-rule="nonzero">
            <g id="Group-45" transform="translate(0.000000, 5950.000000)">
                <g id="Zinios-Social-Footer" transform="translate(844.000000, 710.000000)">
                    <g id="link" transform="translate(60.000000, 0.000000)">
                        <path d="M25.59375,24.76875 L19.403125,24.76875 L19.396875,24.159375 C19.396875,24.053125 19.39375,23.95 19.39375,23.84375 C19.39375,23.128125 19.39375,22.409375 19.396875,21.69375 C19.4,19.815625 19.403125,17.871875 19.384375,15.959375 C19.378125,15.3125 19.30625,14.725 19.171875,14.2125 C18.984375,13.50625 18.490625,12.975 17.8125,12.753125 C17.121875,12.528125 16.359375,12.678125 15.771875,13.153125 C15.090625,13.70625 14.775,14.396875 14.78125,15.334375 C14.79375,17.578125 14.790625,19.85625 14.7875,22.0625 L14.784375,23.9375 C14.784375,24.059375 14.765625,24.16875 14.746875,24.265625 C14.740625,24.296875 14.734375,24.33125 14.73125,24.3625 L14.675,24.765625 L8.678125,24.765625 L8.603125,24.3875 C8.6,24.365625 8.59375,24.346875 8.5875,24.325 C8.56875,24.25 8.540625,24.14375 8.540625,24.025 C8.553125,18.88125 8.565625,13.7375 8.58125,8.590625 C8.58125,8.54375 8.5875,8.49375 8.59375,8.4375 L8.640625,7.965625 L14.771875,7.965625 L14.771875,9.3 C15.70625,8.31875 16.884375,7.75625 18.28125,7.625 C20.1375,7.45 21.6625,7.825 22.940625,8.76875 C24.11875,9.640625 24.90625,10.90625 25.28125,12.53125 C25.371875,12.925 25.421875,13.325 25.471875,13.709375 C25.49375,13.884375 25.515625,14.05625 25.540625,14.228125 C25.55,14.2875 25.559375,14.346875 25.571875,14.403125 L25.596875,14.575 L25.596875,24.76875 L25.59375,24.76875 Z M20.328125,23.83125 L24.65625,23.83125 L24.646875,14.578125 C24.634375,14.509375 24.621875,14.440625 24.6125,14.371875 C24.584375,14.190625 24.5625,14.0125 24.540625,13.83125 C24.49375,13.453125 24.446875,13.09375 24.365625,12.746875 C24.0375,11.325 23.390625,10.271875 22.38125,9.525 C21.296875,8.721875 19.984375,8.40625 18.36875,8.559375 C17.06875,8.68125 16.0375,9.221875 15.215625,10.2125 C15.103125,10.346875 14.996875,10.490625 14.890625,10.63125 L14.553125,11.075 L13.83125,10.928125 L13.83125,8.90625 L9.515625,8.90625 C9.503125,13.88125 9.4875,18.85625 9.478125,23.83125 L13.840625,23.83125 L13.84375,22.0625 C13.846875,19.859375 13.85,17.58125 13.8375,15.340625 C13.83125,14.13125 14.28125,13.15 15.175,12.425 C16.009375,11.746875 17.103125,11.5375 18.096875,11.8625 C19.065625,12.178125 19.80625,12.96875 20.071875,13.975 C20.228125,14.5625 20.309375,15.225 20.315625,15.953125 C20.334375,17.86875 20.33125,19.815625 20.328125,21.696875 C20.33125,22.40625 20.328125,23.11875 20.328125,23.83125 Z" id="Shape" fill="url(#linearGradient-1)"></path>
                        <path d="M6.5,24.76875 L0.45625,24.76875 L0.409375,24.2375 C0.396875,24.1375 0.3875,24.034375 0.3875,23.934375 C0.3875,19.30625 0.3875,14.678125 0.3875,10.05 L0.3875,7.965625 L6.559375,7.965625 L6.5875,8.496875 C6.59375,8.575 6.596875,8.653125 6.596875,8.734375 C6.596875,13.821875 6.596875,18.90625 6.596875,23.99375 C6.596875,24.103125 6.58125,24.203125 6.565625,24.28125 L6.5,24.76875 Z M1.325,23.83125 L5.659375,23.83125 C5.6625,18.85625 5.6625,13.878125 5.659375,8.903125 L1.325,8.903125 L1.325,10.05 C1.325,14.64375 1.325,19.2375 1.325,23.83125 Z" id="Shape" fill="url(#linearGradient-2)"></path>
                        <path d="M3.5,6.74375 L3.465625,6.74375 C1.865625,6.7125 0.61875,5.846875 0.2125,4.484375 C-0.06875,3.534375 0.065625,2.540625 0.5875,1.75625 C1.115625,0.965625 1.99375,0.45 2.996875,0.34375 C4.0375,0.23125 4.884375,0.41875 5.58125,0.9125 C6.671875,1.68125 7.115625,2.80625 6.865625,4.159375 C6.63125,5.4375 5.7875,6.2875 4.428125,6.61875 C4.20625,6.671875 3.990625,6.69375 3.784375,6.7125 C3.7,6.721875 3.615625,6.728125 3.53125,6.7375 L3.5,6.74375 Z M3.56875,1.25 C3.41875,1.25 3.2625,1.259375 3.1,1.275 C2.3625,1.353125 1.75,1.709375 1.371875,2.275 C1,2.834375 0.909375,3.521875 1.115625,4.215625 C1.4,5.178125 2.275,5.76875 3.45625,5.803125 C3.5375,5.79375 3.621875,5.784375 3.703125,5.778125 C3.884375,5.7625 4.059375,5.74375 4.2125,5.70625 C5.2125,5.4625 5.78125,4.9 5.95,3.9875 C6.13125,3.00625 5.828125,2.228125 5.046875,1.675 C4.6375,1.3875 4.159375,1.25 3.56875,1.25 Z" id="Shape" fill="url(#linearGradient-3)"></path>
                    </g>
                </g>
            </g>
        </g>
    </g>
</svg>