<?xml version="1.0" encoding="UTF-8"?>
<svg width="16px" height="23px" viewBox="0 0 16 23" version="1.1" xmlns="http://www.w3.org/2000/svg" xmlns:xlink="http://www.w3.org/1999/xlink">
    <!-- Generator: Sketch 49.3 (51167) - http://www.bohemiancoding.com/sketch -->
    <title>location</title>
    <desc>Created with Sketch.</desc>
    <defs>
        <linearGradient x1="0.00564434504%" y1="50.0083328%" x2="100.007842%" y2="50.0083328%" id="linearGradient-1">
            <stop stop-color="#FDBF17" offset="0%"></stop>
            <stop stop-color="#9618CC" offset="99.82%"></stop>
        </linearGradient>
    </defs>
    <g id="Zinios-Home-Page" stroke="none" stroke-width="1" fill="none" fill-rule="evenodd">
        <g id="Zinios-Home-Page-Template-UI-Design" transform="translate(-940.000000, -6661.000000)" fill="url(#linearGradient-1)" fill-rule="nonzero">
            <g id="Group-45" transform="translate(0.000000, 5950.000000)">
                <g id="Zinios-Social-Footer" transform="translate(844.000000, 710.000000)">
                    <path d="M103.960332,24 C103.207495,24 102.63032,23.648601 102.28527,22.973545 C101.795926,22.0149039 101.306582,21.0593452 100.817238,20.1007041 C99.6283839,17.7672915 98.3987507,15.3568176 97.1565701,13.0018279 C96.2594398,11.3033994 95.8987055,9.74368101 96.0241783,8.09148923 C96.3002184,4.41412954 99.6346575,1.23920877 103.452167,1.01419011 C107.48298,0.776841668 111.084049,3.54179694 111.836885,7.44417529 C111.896485,7.75858491 111.927853,8.0699121 111.956085,8.37199194 C111.968632,8.50761962 111.981179,8.64016486 111.996863,8.77271009 L112,8.80045212 L112,8.82819415 C111.987453,10.1536465 111.614171,11.4482744 110.795461,13.0203225 C109.390166,15.7143815 107.978597,18.467007 106.614081,21.1240766 L105.823602,22.6653003 C105.597751,23.1030078 105.177418,23.9229388 104.120309,23.9907527 C104.066983,24 104.013658,24 103.960332,24 Z M103.928963,1.92659453 C103.787807,1.92659453 103.649786,1.92967698 103.50863,1.93892432 C100.142822,2.13620095 97.2067592,4.9258158 96.9620873,8.15930307 C96.8522986,9.63579535 97.1785279,11.0383089 97.9909641,12.5764501 C99.2362815,14.9345223 100.469052,17.3511611 101.657906,19.6876562 C102.14725,20.6462973 102.633457,21.601856 103.125938,22.5604971 C103.326694,22.9488855 103.602734,23.1030078 104.057573,23.0752658 C104.452812,23.0506062 104.675526,22.8502471 104.979798,22.2584172 L105.770276,20.7171936 C107.134793,18.0570415 108.546362,15.304416 109.954794,12.6072746 C110.701357,11.1801015 111.040133,10.0211013 111.055817,8.85593617 C111.040133,8.72647338 111.027586,8.59392815 111.018175,8.46446536 C110.989944,8.17163286 110.96485,7.8942126 110.911524,7.62295723 C110.274749,4.30932633 107.313592,1.92659453 103.928963,1.92659453 Z M103.837996,12.8600353 C102.89695,12.8600353 101.974725,12.4808943 101.231299,11.7842612 C100.409452,11.0167318 99.9232449,9.96253477 99.9012872,8.88984309 C99.8573717,6.79377889 101.686137,4.90732112 103.812901,4.85183706 C104.913925,4.81793014 105.958486,5.21556585 106.755238,5.95843566 C107.555127,6.70438792 108.009966,7.7123482 108.03506,8.79736967 C108.091523,11.0383089 106.331767,12.7860565 103.941511,12.8569528 C103.907006,12.8600353 103.872501,12.8600353 103.837996,12.8600353 Z M103.92269,5.77657127 C103.894458,5.77657127 103.86309,5.77657127 103.834859,5.77657127 C102.203713,5.81972553 100.804691,7.26539334 100.839196,8.87134841 C100.858017,9.6974443 101.234435,10.5142928 101.874347,11.1153701 C102.464069,11.6640457 103.191811,11.9507133 103.910143,11.9353011 C105.76714,11.879817 107.134793,10.5420349 107.090877,8.8251117 C107.06892,7.98668602 106.717596,7.20990929 106.102779,6.63349163 C105.513057,6.07865111 104.7414,5.77657127 103.92269,5.77657127 Z" id="location"></path>
                </g>
            </g>
        </g>
    </g>
</svg>