<svg xmlns="http://www.w3.org/2000/svg" viewBox="0 0 314.25 109.96"><defs><style>.cls-1{fill:#620c3c;}.cls-2{fill:#f2a222;}.cls-3{fill:#fcea00;}.cls-4{fill:#560933;}.cls-5{fill:#ffcb23;}.cls-6{fill:none;}</style></defs><title>Asset 1</title><g id="Layer_2" data-name="Layer 2"><g id="Layer_1-2" data-name="Layer 1"><polygon class="cls-1" points="66.82 21.46 66.82 32.56 71.3 32.56 71.3 22.12 71.3 21.46 66.82 21.46"/><path class="cls-1" d="M69.39,55.7V47.85a2.83,2.83,0,0,0-2.57-2.79V55.7Z"/><path class="cls-1" d="M61.83,32.56V21.46h5V.07A.52.52,0,0,0,66.55,0,.53.53,0,0,0,66,.55V2.71H64.89v2H64L62.26,7.94H61.11v2.18H60.9L48.75,19.71v2.37h1.84V35.47H47.91v2.6l4.63,2.09-7.71,69.49a51,51,0,0,0,21.72-2.3l.28-.09V55.7H63.71V47.85a2.82,2.82,0,0,1,2.62-2.8l.22,0h0l.22,0h0V32.56h-5ZM60.14,22.12V32.56L53,33.5V23.59l5-1.47,2.2-.66Z"/><path class="cls-2" d="M48.67,9a50.35,50.35,0,0,0-23.61,6.83l25.52,7.73V22.08H48.74V19.71L60.9,10.12h.2A50.81,50.81,0,0,0,50.48,9C49.87,9,49.27,9,48.67,9Z"/><path class="cls-2" d="M84.38,22.08H82.55v1.51l2.61-.79Z"/><path class="cls-2" d="M95.88,37.39,82.55,33.5v2h2.66v2.6l-4.62,2.09,6,54.55a50.52,50.52,0,0,0,9.24-57.32Z"/><path class="cls-2" d="M47.91,35.47h2.67v-2L1.35,47.85a50.52,50.52,0,0,0,43.48,61.8l7.71-69.49-4.63-2.09Z"/><path class="cls-3" d="M1.35,47.85,50.58,33.5V23.59L25.06,15.86A50.55,50.55,0,0,0,1.35,47.85Z"/><path class="cls-3" d="M85.16,22.8l-2.61.79V33.5l13.33,3.89A50.59,50.59,0,0,0,85.16,22.8Z"/><path class="cls-4" d="M80.59,40.16l4.62-2.09v-2.6H82.55V22.08h1.83V19.71L72.23,10.12H72V7.94H70.87L69.08,4.7h-.84v-2H67.11V.55A.56.56,0,0,0,66.55,0V21.46H71.3v11.1H66.55V45h0l.22,0a2.83,2.83,0,0,1,2.62,2.8V55.7H66.55v51.65A50.53,50.53,0,0,0,86.64,94.71Zm-.42-6.66L73,32.56V21.46l2.2.66,5,1.47Z"/><polygon class="cls-5" points="75.19 22.12 73 21.46 73 22.12 73 32.56 80.17 33.5 80.17 23.59 75.19 22.12"/><path class="cls-5" d="M66.77,45.05l-.22,0V55.7h2.84V47.85A2.83,2.83,0,0,0,66.77,45.05Z"/><polygon class="cls-5" points="66.55 22.12 66.55 32.56 71.3 32.56 71.3 22.12 71.3 21.46 66.55 21.46 66.55 22.12"/><polygon class="cls-3" points="52.96 23.59 52.96 33.5 60.14 32.56 60.14 22.12 60.14 21.46 57.94 22.12 52.96 23.59"/><polygon class="cls-3" points="66.55 22.12 66.55 21.46 61.83 21.46 61.83 22.12 61.83 32.56 66.55 32.56 66.55 22.12"/><polygon class="cls-6" points="52.96 23.59 52.96 33.5 60.14 32.56 60.14 22.12 60.14 21.46 57.94 22.12 52.96 23.59"/><path class="cls-3" d="M63.71,47.85V55.7h2.84V45h0l-.22,0A2.82,2.82,0,0,0,63.71,47.85Z"/><path class="cls-1" d="M117.15,74q0,.36,0,.72a1.9,1.9,0,0,0,.2.65,1.08,1.08,0,0,0,.49.45,2.12,2.12,0,0,0,1,.17,1.47,1.47,0,0,1,.46.06c.11,0,.18.19.22.49a.69.69,0,0,1-.12.39.39.39,0,0,1-.35.18c-1.12-.05-2.2-.08-3.22-.08h-1.53c-.5,0-1,0-1.58.07a.38.38,0,0,1-.36-.18.77.77,0,0,1-.11-.39c0-.3.09-.46.21-.49a1.42,1.42,0,0,1,.44-.06,2.06,2.06,0,0,0,1-.17,1.1,1.1,0,0,0,.5-.45,1.9,1.9,0,0,0,.19-.65q0-.36.06-.72V63.74c0-.24,0-.49-.06-.73a1.9,1.9,0,0,0-.19-.65,1.1,1.1,0,0,0-.5-.45,2.2,2.2,0,0,0-1-.17,1.84,1.84,0,0,1-.44-.05c-.12,0-.19-.2-.21-.49a.77.77,0,0,1,.11-.39.38.38,0,0,1,.36-.18l1.57.06h1.52c1,0,2.12,0,3.24-.07a.39.39,0,0,1,.35.18.69.69,0,0,1,.12.39c0,.29-.11.45-.22.49a1.89,1.89,0,0,1-.46.05,2.26,2.26,0,0,0-1,.17,1.08,1.08,0,0,0-.49.45,1.9,1.9,0,0,0-.2.65c0,.24,0,.49,0,.73Z"/><path class="cls-1" d="M125.57,63.74h-.08l.05,10.3q0,.36,0,.72a1.69,1.69,0,0,0,.18.65,1.16,1.16,0,0,0,.48.45,2,2,0,0,0,1,.17,1.58,1.58,0,0,1,.47.06c.12,0,.19.19.2.49a.77.77,0,0,1-.11.39.4.4,0,0,1-.35.18l-.72,0-.57,0h-2.41l-.53,0-.7,0a.39.39,0,0,1-.37-.18.87.87,0,0,1-.1-.39c0-.3.08-.46.2-.49a1.36,1.36,0,0,1,.45-.06,2,2,0,0,0,1-.17,1.16,1.16,0,0,0,.48-.45,1.69,1.69,0,0,0,.18-.65c0-.24,0-.48,0-.72l.06-10.3a3.65,3.65,0,0,0-.11-1,1.32,1.32,0,0,0-.31-.59,1.47,1.47,0,0,0-.53-.32,4.31,4.31,0,0,0-.79-.2,2.66,2.66,0,0,1-.52-.14c-.09,0-.13-.19-.13-.45s.1-.46.3-.48a5.13,5.13,0,0,1,.74,0,10.71,10.71,0,0,1,1.84.13,4.37,4.37,0,0,1,1.35.44,4.58,4.58,0,0,1,1.11.84,13.14,13.14,0,0,1,1.12,1.34l7.1,9.33h.08l-.05-8.89c0-.24,0-.49,0-.73a1.4,1.4,0,0,0-.18-.65,1.05,1.05,0,0,0-.48-.45,2.1,2.1,0,0,0-.94-.17,1.83,1.83,0,0,1-.46-.05c-.11,0-.18-.2-.22-.49a.69.69,0,0,1,.12-.39.39.39,0,0,1,.35-.18l.71,0,.56,0h2.41l.55,0,.7,0a.38.38,0,0,1,.36.18.76.76,0,0,1,.1.39c0,.29-.08.45-.19.49a1.75,1.75,0,0,1-.45.05,2.12,2.12,0,0,0-.95.17,1.05,1.05,0,0,0-.48.45,1.53,1.53,0,0,0-.18.65c0,.24,0,.49,0,.73l-.05,13.07a.31.31,0,0,1-.25.27,1.21,1.21,0,0,1-.4.07.87.87,0,0,1-.75-.34Z"/><path class="cls-1" d="M147.12,76.55a4.12,4.12,0,0,0,1.49-.26,3.75,3.75,0,0,0,1.12-.67,2.73,2.73,0,0,0,.68-1,2.57,2.57,0,0,0,.24-1.08,2.52,2.52,0,0,0-.65-1.76,6.15,6.15,0,0,0-1.61-1.22c-.64-.34-1.34-.67-2.09-1a15.48,15.48,0,0,1-2.11-1.08,5.91,5.91,0,0,1-1.65-1.49,3.77,3.77,0,0,1-.69-2.23,4.83,4.83,0,0,1,.39-2.1,3.7,3.7,0,0,1,1.18-1.44,5.29,5.29,0,0,1,1.81-.83,8.79,8.79,0,0,1,2.23-.27,8.54,8.54,0,0,1,1.73.18,5.55,5.55,0,0,1,1.59.57,3.47,3.47,0,0,1,1.14,1,2.56,2.56,0,0,1,.44,1.5,2,2,0,0,1-.64,1.55,2.29,2.29,0,0,1-1.64.61,1.42,1.42,0,0,1-1-.36.86.86,0,0,1-.27-.45s.06-.08.19-.12a1.75,1.75,0,0,0,.86-.65,1.26,1.26,0,0,0,.19-.75,1.74,1.74,0,0,0-.75-1.52,3.11,3.11,0,0,0-1.87-.54,4.44,4.44,0,0,0-1.46.22,2.93,2.93,0,0,0-1,.58,2.1,2.1,0,0,0-.57.82,2.64,2.64,0,0,0-.18,1,2.33,2.33,0,0,0,.51,1.57,5.75,5.75,0,0,0,1.56,1.17q1.17.63,2.37,1.14a13.62,13.62,0,0,1,2.21,1.19,5.92,5.92,0,0,1,1.63,1.64,4.38,4.38,0,0,1,.64,2.49,3.63,3.63,0,0,1-.48,1.83,4.71,4.71,0,0,1-1.3,1.45,6.23,6.23,0,0,1-1.93,1,7.93,7.93,0,0,1-2.36.35,7.68,7.68,0,0,1-4.16-.93,3.13,3.13,0,0,1-1.44-2.81,2.06,2.06,0,0,1,.63-1.54,2.27,2.27,0,0,1,1.65-.61,1.44,1.44,0,0,1,.95.35.84.84,0,0,1,.27.46s-.05.07-.14.11a1.71,1.71,0,0,0-.33.22,1.46,1.46,0,0,0-.32.43,1.54,1.54,0,0,0-.15.74,2.42,2.42,0,0,0,.72,1.85A3.25,3.25,0,0,0,147.12,76.55Z"/><path class="cls-1" d="M169.08,60.7a.9.9,0,0,1,.48.13.56.56,0,0,1,.2.5l.1,3.65a.41.41,0,0,1-.22.39.82.82,0,0,1-.43.13,1.33,1.33,0,0,1-.55-.12.49.49,0,0,1-.33-.34,14.89,14.89,0,0,0-.3-1.51,3.7,3.7,0,0,0-.44-1,1.65,1.65,0,0,0-.7-.61,3,3,0,0,0-1.1-.22H164V74q0,.36,0,.72a1.71,1.71,0,0,0,.2.65,1.08,1.08,0,0,0,.49.45,2.12,2.12,0,0,0,1,.17,1.42,1.42,0,0,1,.44.06c.12,0,.19.19.21.49a.87.87,0,0,1-.1.39.39.39,0,0,1-.37.18c-.55,0-1.07-.06-1.57-.07h-1.49c-1.05,0-2.13,0-3.24.08a.37.37,0,0,1-.36-.18.77.77,0,0,1-.11-.39c0-.3.08-.46.2-.49a1.36,1.36,0,0,1,.45-.06,2.06,2.06,0,0,0,1-.17,1.08,1.08,0,0,0,.49-.45,1.71,1.71,0,0,0,.2-.65c0-.24,0-.48,0-.72V61.66h-1.79a3,3,0,0,0-1.1.22,1.74,1.74,0,0,0-.71.61,3.42,3.42,0,0,0-.42,1,15.16,15.16,0,0,0-.29,1.51.48.48,0,0,1-.34.34,1.46,1.46,0,0,1-.57.12.73.73,0,0,1-.41-.13.41.41,0,0,1-.21-.39l.08-3.65a.54.54,0,0,1,.21-.5.94.94,0,0,1,.49-.13Z"/><path class="cls-1" d="M177.2,74a5.79,5.79,0,0,0,0,.72,1.7,1.7,0,0,0,.19.65,1.08,1.08,0,0,0,.49.45,2.12,2.12,0,0,0,1,.17,1.47,1.47,0,0,1,.46.06c.11,0,.18.19.22.49a.69.69,0,0,1-.12.39.39.39,0,0,1-.35.18c-1.12-.05-2.2-.08-3.22-.08h-1.53c-.5,0-1,0-1.58.07a.38.38,0,0,1-.36-.18.77.77,0,0,1-.11-.39c0-.3.09-.46.21-.49a1.42,1.42,0,0,1,.44-.06,2.06,2.06,0,0,0,1-.17,1.1,1.1,0,0,0,.5-.45,1.9,1.9,0,0,0,.19-.65q0-.36.06-.72V63.74c0-.24,0-.49-.06-.73a1.9,1.9,0,0,0-.19-.65,1.1,1.1,0,0,0-.5-.45,2.2,2.2,0,0,0-1-.17,1.84,1.84,0,0,1-.44-.05c-.12,0-.19-.2-.21-.49a.77.77,0,0,1,.11-.39.38.38,0,0,1,.36-.18l1.57.06h1.52c1,0,2.12,0,3.24-.07a.39.39,0,0,1,.35.18.69.69,0,0,1,.12.39c0,.29-.11.45-.22.49a1.89,1.89,0,0,1-.46.05,2.26,2.26,0,0,0-1,.17,1.08,1.08,0,0,0-.49.45,1.7,1.7,0,0,0-.19.65,6,6,0,0,0,0,.73Z"/><path class="cls-1" d="M195.45,60.7a.9.9,0,0,1,.48.13.56.56,0,0,1,.19.5l.11,3.65a.41.41,0,0,1-.22.39.82.82,0,0,1-.43.13,1.38,1.38,0,0,1-.56-.12.47.47,0,0,1-.32-.34,14.89,14.89,0,0,0-.3-1.51,3.7,3.7,0,0,0-.44-1,1.71,1.71,0,0,0-.7-.61,3,3,0,0,0-1.1-.22h-1.77V74c0,.24,0,.48,0,.72a1.71,1.71,0,0,0,.2.65,1,1,0,0,0,.49.45,2.06,2.06,0,0,0,1,.17,1.42,1.42,0,0,1,.44.06c.12,0,.19.19.21.49a.77.77,0,0,1-.11.39.38.38,0,0,1-.36.18c-.55,0-1.08-.06-1.57-.07H189.2c-1.06,0-2.14,0-3.24.08a.39.39,0,0,1-.37-.18.87.87,0,0,1-.1-.39c0-.3.08-.46.2-.49a1.36,1.36,0,0,1,.45-.06,2.12,2.12,0,0,0,1-.17,1.08,1.08,0,0,0,.49-.45,1.71,1.71,0,0,0,.2-.65c0-.24,0-.48,0-.72V61.66H186a3.07,3.07,0,0,0-1.11.22,1.71,1.71,0,0,0-.7.61,3.7,3.7,0,0,0-.43,1c-.1.42-.19.92-.28,1.51a.5.5,0,0,1-.34.34,1.46,1.46,0,0,1-.57.12.71.71,0,0,1-.41-.13A.41.41,0,0,1,182,65l.08-3.65a.56.56,0,0,1,.2-.5,1,1,0,0,1,.5-.13Z"/><path class="cls-1" d="M213.52,72.45a4.39,4.39,0,0,1-.59,2.35,5.28,5.28,0,0,1-1.52,1.6,6.57,6.57,0,0,1-2,.9,8.5,8.5,0,0,1-2.12.29,7.86,7.86,0,0,1-2.73-.43,5.74,5.74,0,0,1-2-1.13,4.75,4.75,0,0,1-1.18-1.59,4.48,4.48,0,0,1-.4-1.86V63.74c0-.24,0-.49,0-.73a1.71,1.71,0,0,0-.2-.65,1.08,1.08,0,0,0-.49-.45,2.26,2.26,0,0,0-1-.17,1.75,1.75,0,0,1-.45-.05c-.12,0-.18-.2-.2-.49a.77.77,0,0,1,.11-.39.37.37,0,0,1,.36-.18l1.55.06h1.51c1,0,2.12,0,3.24-.07a.37.37,0,0,1,.36.18.77.77,0,0,1,.11.39c0,.26-.07.41-.16.46a.69.69,0,0,1-.36.08,2.53,2.53,0,0,0-1,.17,1.3,1.3,0,0,0-.53.44,1.43,1.43,0,0,0-.22.64c0,.24,0,.49,0,.75v8.09a8.8,8.8,0,0,0,.13,1.41,3.58,3.58,0,0,0,.56,1.37,3.24,3.24,0,0,0,1.25,1,4.79,4.79,0,0,0,2.19.42,5.75,5.75,0,0,0,2.16-.34,3.39,3.39,0,0,0,1.34-.89,3.15,3.15,0,0,0,.69-1.25,5.06,5.06,0,0,0,.19-1.39V65.37c0-.84,0-1.51-.06-2a2.79,2.79,0,0,0-.28-1.08.87.87,0,0,0-.61-.46,4.86,4.86,0,0,0-1.05-.09,1.84,1.84,0,0,1-.44-.05c-.12,0-.19-.2-.2-.49a.76.76,0,0,1,.1-.39.38.38,0,0,1,.36-.18l1.48.06h2.85l1.48-.06a.39.39,0,0,1,.37.18.87.87,0,0,1,.1.39c0,.26-.07.41-.16.46a.69.69,0,0,1-.36.08,6.75,6.75,0,0,0-1.13.08,1,1,0,0,0-.65.41,2.41,2.41,0,0,0-.28,1c0,.47-.07,1.12-.07,1.95Z"/><path class="cls-1" d="M232.06,60.7a.9.9,0,0,1,.48.13.56.56,0,0,1,.2.5l.1,3.65a.41.41,0,0,1-.22.39.82.82,0,0,1-.43.13,1.33,1.33,0,0,1-.55-.12.49.49,0,0,1-.33-.34,10.87,10.87,0,0,0-.3-1.51,3.7,3.7,0,0,0-.44-1,1.65,1.65,0,0,0-.7-.61,3,3,0,0,0-1.1-.22H227V74q0,.36,0,.72a1.9,1.9,0,0,0,.2.65,1.08,1.08,0,0,0,.49.45,2.12,2.12,0,0,0,1,.17,1.37,1.37,0,0,1,.44.06c.12,0,.19.19.21.49a.76.76,0,0,1-.1.39.39.39,0,0,1-.37.18c-.55,0-1.07-.06-1.57-.07h-1.49c-1.05,0-2.13,0-3.24.08a.38.38,0,0,1-.36-.18.77.77,0,0,1-.11-.39c0-.3.09-.46.2-.49a1.36,1.36,0,0,1,.45-.06,2.06,2.06,0,0,0,1-.17,1,1,0,0,0,.49-.45,1.71,1.71,0,0,0,.2-.65,5.79,5.79,0,0,0,0-.72V61.66h-1.79a3,3,0,0,0-1.1.22,1.65,1.65,0,0,0-.7.61,3.19,3.19,0,0,0-.43,1,15.16,15.16,0,0,0-.29,1.51.47.47,0,0,1-.33.34,1.5,1.5,0,0,1-.57.12.76.76,0,0,1-.42-.13.41.41,0,0,1-.21-.39l.08-3.65a.54.54,0,0,1,.21-.5,1,1,0,0,1,.49-.13Z"/><path class="cls-1" d="M240.18,74a5.79,5.79,0,0,0,0,.72,1.7,1.7,0,0,0,.19.65,1.08,1.08,0,0,0,.49.45,2.12,2.12,0,0,0,1,.17,1.47,1.47,0,0,1,.46.06c.11,0,.18.19.22.49a.69.69,0,0,1-.12.39.39.39,0,0,1-.35.18c-1.12-.05-2.2-.08-3.22-.08h-1.53c-.5,0-1,0-1.58.07a.38.38,0,0,1-.36-.18.76.76,0,0,1-.1-.39c0-.3.08-.46.2-.49a1.42,1.42,0,0,1,.44-.06,2.06,2.06,0,0,0,1-.17,1.1,1.1,0,0,0,.5-.45,1.9,1.9,0,0,0,.19-.65c0-.24.05-.48.07-.72V63.74c0-.24,0-.49-.07-.73a1.9,1.9,0,0,0-.19-.65,1.1,1.1,0,0,0-.5-.45,2.2,2.2,0,0,0-1-.17,1.84,1.84,0,0,1-.44-.05c-.12,0-.19-.2-.2-.49a.76.76,0,0,1,.1-.39.38.38,0,0,1,.36-.18l1.57.06h1.52c1,0,2.12,0,3.24-.07a.39.39,0,0,1,.35.18.69.69,0,0,1,.12.39c0,.29-.11.45-.22.49a1.89,1.89,0,0,1-.46.05,2.26,2.26,0,0,0-1,.17,1.08,1.08,0,0,0-.49.45,1.7,1.7,0,0,0-.19.65,6,6,0,0,0,0,.73Z"/><path class="cls-1" d="M253.25,60.19a8.45,8.45,0,0,1,3.48.69,7.87,7.87,0,0,1,2.62,1.89A8.35,8.35,0,0,1,261,65.48a8.77,8.77,0,0,1,.59,3.16,8.9,8.9,0,0,1-2.74,6.61,8.12,8.12,0,0,1-2.7,1.74,7.73,7.73,0,0,1-2.91.6,8.2,8.2,0,0,1-3.46-.7A8,8,0,0,1,247.2,75a8.61,8.61,0,0,1-1.65-2.71,8.88,8.88,0,0,1-.58-3.19,9.2,9.2,0,0,1,.75-3.82,8.89,8.89,0,0,1,1.95-2.8,8.1,8.1,0,0,1,2.67-1.72A7.86,7.86,0,0,1,253.25,60.19Zm0,16.26a4.27,4.27,0,0,0,2.37-.64,5,5,0,0,0,1.65-1.71,8.39,8.39,0,0,0,1-2.49,13.59,13.59,0,0,0,.31-3,12.11,12.11,0,0,0-.32-2.79,7.67,7.67,0,0,0-1-2.35,5,5,0,0,0-1.66-1.6,4.43,4.43,0,0,0-2.32-.6,4.37,4.37,0,0,0-2.36.62,5,5,0,0,0-1.62,1.69,7.93,7.93,0,0,0-.94,2.46,14.15,14.15,0,0,0-.3,3,12.16,12.16,0,0,0,.32,2.81,7.23,7.23,0,0,0,1,2.36,5,5,0,0,0,1.63,1.64A4.37,4.37,0,0,0,253.22,76.45Z"/><path class="cls-1" d="M267.66,63.74h-.08l.05,10.3q0,.36,0,.72a1.69,1.69,0,0,0,.18.65,1.16,1.16,0,0,0,.48.45,2,2,0,0,0,.95.17,1.58,1.58,0,0,1,.47.06c.12,0,.19.19.2.49a.77.77,0,0,1-.11.39.4.4,0,0,1-.35.18l-.72,0-.57,0h-2.41l-.53,0-.7,0a.39.39,0,0,1-.37-.18.87.87,0,0,1-.1-.39c0-.3.08-.46.2-.49a1.36,1.36,0,0,1,.45-.06,2,2,0,0,0,.95-.17,1.16,1.16,0,0,0,.48-.45,1.69,1.69,0,0,0,.18-.65c0-.24,0-.48,0-.72l.05-10.3a3.7,3.7,0,0,0-.1-1,1.32,1.32,0,0,0-.31-.59,1.47,1.47,0,0,0-.53-.32,4.31,4.31,0,0,0-.79-.2,2.66,2.66,0,0,1-.52-.14c-.09,0-.13-.19-.13-.45s.1-.46.3-.48a5.13,5.13,0,0,1,.74,0,10.71,10.71,0,0,1,1.84.13A4.24,4.24,0,0,1,269.37,62a13.14,13.14,0,0,1,1.12,1.34l7.1,9.33h.08l-.05-8.89c0-.24,0-.49,0-.73a1.4,1.4,0,0,0-.18-.65,1.05,1.05,0,0,0-.48-.45,2.1,2.1,0,0,0-.94-.17,1.83,1.83,0,0,1-.46-.05c-.11,0-.18-.2-.22-.49a.69.69,0,0,1,.12-.39.39.39,0,0,1,.35-.18l.71,0,.56,0h2.41l.55,0,.7,0a.38.38,0,0,1,.36.18.76.76,0,0,1,.1.39c0,.29-.08.45-.19.49a1.75,1.75,0,0,1-.45.05,2.12,2.12,0,0,0-.95.17,1.05,1.05,0,0,0-.48.45,1.53,1.53,0,0,0-.18.65c0,.24,0,.49,0,.73l-.05,13.07a.31.31,0,0,1-.25.27,1.21,1.21,0,0,1-.4.07.87.87,0,0,1-.75-.34Z"/><path class="cls-1" d="M123.48,33a1.06,1.06,0,0,1,.58.15.68.68,0,0,1,.23.59l.12,4.39a.5.5,0,0,1-.26.47,1.06,1.06,0,0,1-.51.15,1.55,1.55,0,0,1-.67-.14.58.58,0,0,1-.39-.42q-.17-1-.36-1.8a4.52,4.52,0,0,0-.53-1.25,2,2,0,0,0-.84-.73,3.63,3.63,0,0,0-1.32-.26h-2.12V49a8.46,8.46,0,0,0,0,.87,2,2,0,0,0,.23.77,1.37,1.37,0,0,0,.59.55,2.73,2.73,0,0,0,1.15.2,2,2,0,0,1,.53.06c.15,0,.23.24.25.6a.93.93,0,0,1-.12.46.46.46,0,0,1-.44.22c-.66,0-1.29-.07-1.88-.08H116c-1.27,0-2.56,0-3.89.09a.46.46,0,0,1-.44-.22.93.93,0,0,1-.12-.46c0-.36.1-.55.23-.6a2,2,0,0,1,.55-.06,2.73,2.73,0,0,0,1.15-.2,1.32,1.32,0,0,0,.59-.55,2,2,0,0,0,.23-.77,8.46,8.46,0,0,0,0-.87V34.15h-2.15a3.63,3.63,0,0,0-1.32.26,2,2,0,0,0-.84.73,4,4,0,0,0-.51,1.25c-.13.5-.24,1.1-.35,1.8a.58.58,0,0,1-.4.42,1.7,1.7,0,0,1-.69.14.93.93,0,0,1-.49-.15.51.51,0,0,1-.25-.47l.09-4.39a.64.64,0,0,1,.25-.59,1.1,1.1,0,0,1,.59-.15Z"/><path class="cls-1" d="M130.08,32.81a9.29,9.29,0,0,1,1.69.14,3.86,3.86,0,0,1,1.31.48,3.39,3.39,0,0,1,1,1,8.07,8.07,0,0,1,.91,1.68L140.26,49c.1.27.21.54.34.82a4.29,4.29,0,0,0,.43.76,2.54,2.54,0,0,0,.6.58,1.46,1.46,0,0,0,.84.23,2,2,0,0,1,.54.06c.14,0,.21.24.23.6a.78.78,0,0,1-.14.46.45.45,0,0,1-.42.22c-.66,0-1.24-.07-1.74-.08h-1.68c-1.24,0-2.53,0-3.86.09a.44.44,0,0,1-.43-.22.84.84,0,0,1-.13-.46c0-.36.1-.55.23-.6a2,2,0,0,1,.55-.06,3.48,3.48,0,0,0,1.15-.14.74.74,0,0,0,.51-.42,1.25,1.25,0,0,0,0-.73A6.26,6.26,0,0,0,137,49l-1.06-2.59h-7.69c-.5,1.27-.83,2.13-1,2.59s-.28,1-.35,1.27a.88.88,0,0,0,.1.72,1,1,0,0,0,.7.32,8.76,8.76,0,0,0,1.41.08,2,2,0,0,1,.55.06c.13,0,.21.24.23.6a.78.78,0,0,1-.14.46.45.45,0,0,1-.42.22c-.66,0-1.24-.07-1.73-.08h-3.14l-.68,0-.86,0a.46.46,0,0,1-.44-.22.93.93,0,0,1-.12-.46c0-.36.1-.55.23-.6a2,2,0,0,1,.55-.06,2.27,2.27,0,0,0,1-.2,1.93,1.93,0,0,0,.65-.55,3.06,3.06,0,0,0,.45-.77l.38-.87,5.44-12.89a1.71,1.71,0,0,0,.16-.9.93.93,0,0,0-.3-.56,1.36,1.36,0,0,0-.59-.33,6,6,0,0,0-.73-.17A2.84,2.84,0,0,1,129,34c-.1,0-.16-.24-.16-.55s.12-.54.36-.57A7.28,7.28,0,0,1,130.08,32.81Zm-1.25,12.26h6.54l-3.14-8h-.1Z"/><path class="cls-1" d="M157.6,35.77c.42-.46.61-.81.58-1.06s-.32-.4-.86-.44c-.27,0-.41-.24-.43-.65a.87.87,0,0,1,.15-.5.5.5,0,0,1,.41-.22c.54.05,1.11.07,1.71.08l1.71,0,1.42,0,1.41-.07a.53.53,0,0,1,.46.22.93.93,0,0,1,.13.5c0,.31-.11.5-.21.56a.83.83,0,0,1-.41.09,5.44,5.44,0,0,0-2.29.38A7.43,7.43,0,0,0,159,36.36l-1.38,1.45L156,39.53l-2,2.09a53.7,53.7,0,0,0,3.72,4.09C158.94,47,160,48,160.9,49l.94.94a7.27,7.27,0,0,0,.79.72,3.88,3.88,0,0,0,.79.48,2.88,2.88,0,0,0,.94.25l.5.08c.16,0,.25.22.28.58a.94.94,0,0,1-.13.46.45.45,0,0,1-.43.22l-.8,0-.56,0h-3.28q-1.71-1.91-3.5-3.91t-3.85-4.4a4,4,0,0,0-1-.92,2.65,2.65,0,0,0-1-.33V49a6.35,6.35,0,0,0,.05.87,1.88,1.88,0,0,0,.23.77,1.32,1.32,0,0,0,.59.55,2.7,2.7,0,0,0,1.15.2,2,2,0,0,1,.55.06c.13,0,.21.24.23.6a.93.93,0,0,1-.12.46.46.46,0,0,1-.44.22c-1.35-.06-2.64-.09-3.86-.09h-1.82c-.59,0-1.22,0-1.88.08a.45.45,0,0,1-.44-.22.93.93,0,0,1-.12-.46c0-.36.09-.55.23-.6a2,2,0,0,1,.54-.06,2.75,2.75,0,0,0,1.16-.2,1.37,1.37,0,0,0,.59-.55,2,2,0,0,0,.23-.77,8.46,8.46,0,0,0,.05-.87V36.64a8.46,8.46,0,0,0-.05-.87,2.15,2.15,0,0,0-.23-.78,1.37,1.37,0,0,0-.59-.55,2.75,2.75,0,0,0-1.16-.2,2,2,0,0,1-.54-.06c-.14,0-.21-.24-.23-.59a.9.9,0,0,1,.12-.48.47.47,0,0,1,.44-.21c.66.05,1.28.07,1.86.08l1.81,0c1.24,0,2.54,0,3.89-.1a.51.51,0,0,1,.44.19.9.9,0,0,1,.12.5c0,.31-.09.5-.2.56a1.37,1.37,0,0,1-.58.09,2.7,2.7,0,0,0-1.15.2,1.32,1.32,0,0,0-.59.55,2,2,0,0,0-.23.78,6.35,6.35,0,0,0-.05.87v5.63a3.72,3.72,0,0,0,1.23-.62,17.26,17.26,0,0,0,1.41-1.12c.79-.73,1.56-1.51,2.31-2.35S157,36.53,157.6,35.77Z"/><path class="cls-1" d="M173.3,52a4.84,4.84,0,0,0,1.79-.31,4,4,0,0,0,1.34-.81,3.31,3.31,0,0,0,.82-1.13,3.16,3.16,0,0,0,.28-1.29,3,3,0,0,0-.77-2.12,7.43,7.43,0,0,0-1.93-1.46c-.77-.42-1.61-.81-2.51-1.19a17.28,17.28,0,0,1-2.54-1.29,7.2,7.2,0,0,1-2-1.79A4.47,4.47,0,0,1,167,38a5.67,5.67,0,0,1,.47-2.53,4.33,4.33,0,0,1,1.42-1.72,6.32,6.32,0,0,1,2.16-1,10.39,10.39,0,0,1,2.67-.33,10.76,10.76,0,0,1,2.09.22,6.79,6.79,0,0,1,1.9.69,4,4,0,0,1,1.37,1.21,3.07,3.07,0,0,1,.53,1.81,2.5,2.5,0,0,1-.76,1.85,2.74,2.74,0,0,1-2,.73,1.67,1.67,0,0,1-1.14-.42,1.07,1.07,0,0,1-.32-.55s.07-.09.23-.14a1.81,1.81,0,0,0,.51-.27,2.09,2.09,0,0,0,.52-.51,1.58,1.58,0,0,0,.23-.9,2.12,2.12,0,0,0-.9-1.83,3.77,3.77,0,0,0-2.24-.64,5,5,0,0,0-1.76.27,3.46,3.46,0,0,0-1.2.68,2.69,2.69,0,0,0-.69,1,3.26,3.26,0,0,0-.21,1.16,2.73,2.73,0,0,0,.62,1.87A6.78,6.78,0,0,0,172.37,40c.93.5,1.88,1,2.84,1.37a15.52,15.52,0,0,1,2.65,1.43,7,7,0,0,1,2,2,5.33,5.33,0,0,1,.76,3,4.36,4.36,0,0,1-.57,2.19,5.65,5.65,0,0,1-1.56,1.75,7.63,7.63,0,0,1-2.32,1.15,9.36,9.36,0,0,1-2.83.42,9.21,9.21,0,0,1-5-1.12,3.74,3.74,0,0,1-1.72-3.36,2.43,2.43,0,0,1,.76-1.85,2.74,2.74,0,0,1,2-.74,1.72,1.72,0,0,1,1.13.42,1,1,0,0,1,.33.55s-.06.09-.17.14a1.55,1.55,0,0,0-.39.26,1.65,1.65,0,0,0-.39.52,1.94,1.94,0,0,0-.17.88,3,3,0,0,0,.85,2.23A3.93,3.93,0,0,0,173.3,52Z"/><path class="cls-1" d="M187.91,43.49V49a8.44,8.44,0,0,0,0,.87,2,2,0,0,0,.24.77,1.32,1.32,0,0,0,.59.55,2.7,2.7,0,0,0,1.15.2,2,2,0,0,1,.55.06c.13,0,.21.24.23.6a.84.84,0,0,1-.13.46.44.44,0,0,1-.43.22c-1.35-.06-2.64-.09-3.86-.09h-1.82c-.59,0-1.22,0-1.88.08a.45.45,0,0,1-.44-.22.93.93,0,0,1-.12-.46c0-.36.09-.55.23-.6a2,2,0,0,1,.54-.06,2.75,2.75,0,0,0,1.16-.2,1.43,1.43,0,0,0,.59-.55,2,2,0,0,0,.23-.77,8.46,8.46,0,0,0,.05-.87V36.64a8.46,8.46,0,0,0-.05-.87,2.15,2.15,0,0,0-.23-.78,1.43,1.43,0,0,0-.59-.55,2.75,2.75,0,0,0-1.16-.2,2,2,0,0,1-.54-.06c-.14,0-.21-.24-.23-.59a1,1,0,0,1,.12-.47.47.47,0,0,1,.44-.22c.66.05,1.28.07,1.86.08l1.81,0c1.24,0,2.54,0,3.89-.1a.46.46,0,0,1,.43.22.88.88,0,0,1,.13.47c0,.35-.1.55-.23.59a2,2,0,0,1-.55.06,2.7,2.7,0,0,0-1.15.2,1.32,1.32,0,0,0-.59.55,2.16,2.16,0,0,0-.24.78,8.44,8.44,0,0,0,0,.87v5.51h9.77V36.64a6.35,6.35,0,0,0-.05-.87,2,2,0,0,0-.23-.78,1.32,1.32,0,0,0-.59-.55,2.7,2.7,0,0,0-1.15-.2,2.12,2.12,0,0,1-.56-.06c-.15,0-.23-.24-.25-.59a.89.89,0,0,1,.14-.47.47.47,0,0,1,.42-.22c1.33.07,2.62.1,3.89.1l1.82,0c.59,0,1.22,0,1.88-.08a.47.47,0,0,1,.42.22.81.81,0,0,1,.14.47c0,.35-.1.55-.24.59a2.09,2.09,0,0,1-.53.06,2.75,2.75,0,0,0-1.16.2,1.46,1.46,0,0,0-.6.55,1.84,1.84,0,0,0-.25.78,8.46,8.46,0,0,0-.05.87V49a8.46,8.46,0,0,0,.05.87,1.75,1.75,0,0,0,.25.77,1.46,1.46,0,0,0,.6.55,2.75,2.75,0,0,0,1.16.2,2.09,2.09,0,0,1,.53.06c.14,0,.22.24.24.6a.78.78,0,0,1-.14.46.45.45,0,0,1-.42.22c-.66,0-1.29-.07-1.89-.08h-1.84c-1.25,0-2.53,0-3.86.09a.45.45,0,0,1-.42-.22.86.86,0,0,1-.14-.46c0-.36.1-.55.25-.6a2.12,2.12,0,0,1,.56-.06,2.7,2.7,0,0,0,1.15-.2,1.32,1.32,0,0,0,.59-.55,1.88,1.88,0,0,0,.23-.77,6.35,6.35,0,0,0,.05-.87V43.49Z"/><path class="cls-1" d="M212.72,32.81a9.41,9.41,0,0,1,1.7.14,3.94,3.94,0,0,1,1.31.48,3.5,3.5,0,0,1,1,1,8.59,8.59,0,0,1,.9,1.68L222.9,49c.11.27.22.54.35.82a3.74,3.74,0,0,0,.43.76,2.5,2.5,0,0,0,.59.58,1.51,1.51,0,0,0,.84.23,2,2,0,0,1,.55.06c.13,0,.21.24.23.6a.86.86,0,0,1-.14.46.45.45,0,0,1-.42.22c-.66,0-1.24-.07-1.74-.08h-1.68c-1.25,0-2.54,0-3.86.09a.45.45,0,0,1-.44-.22.93.93,0,0,1-.12-.46c0-.36.1-.55.23-.6a2,2,0,0,1,.55-.06,3.52,3.52,0,0,0,1.15-.14.74.74,0,0,0,.51-.42,1.44,1.44,0,0,0,0-.73,5.62,5.62,0,0,0-.33-1.1l-1-2.59h-7.69c-.5,1.27-.83,2.13-1,2.59s-.28,1-.34,1.27a.92.92,0,0,0,.09.72,1.07,1.07,0,0,0,.7.32,9,9,0,0,0,1.42.08,1.91,1.91,0,0,1,.54.06c.14,0,.22.24.24.6a.86.86,0,0,1-.14.46.47.47,0,0,1-.42.22c-.67,0-1.24-.07-1.73-.08h-3.14l-.69,0-.85,0a.45.45,0,0,1-.44-.22.93.93,0,0,1-.12-.46c0-.36.09-.55.23-.6a2,2,0,0,1,.54-.06,2.28,2.28,0,0,0,1-.2,2.14,2.14,0,0,0,.65-.55,3.39,3.39,0,0,0,.45-.77c.13-.29.25-.58.37-.87l5.45-12.89a1.71,1.71,0,0,0,.16-.9,1,1,0,0,0-.3-.56,1.36,1.36,0,0,0-.59-.33,6,6,0,0,0-.73-.17,2.84,2.84,0,0,1-.62-.17c-.11,0-.16-.24-.16-.55s.12-.54.36-.57A7.1,7.1,0,0,1,212.72,32.81Zm-1.24,12.26H218l-3.15-8h-.09Z"/><path class="cls-1" d="M234.06,52a4.84,4.84,0,0,0,1.79-.31,4,4,0,0,0,1.33-.81,3.34,3.34,0,0,0,.83-1.13,3.16,3.16,0,0,0,.28-1.29,3,3,0,0,0-.78-2.12,7.26,7.26,0,0,0-1.93-1.46c-.77-.42-1.6-.81-2.5-1.19a16.8,16.8,0,0,1-2.54-1.29,7.1,7.1,0,0,1-2-1.79,4.46,4.46,0,0,1-.82-2.67,5.67,5.67,0,0,1,.46-2.53,4.51,4.51,0,0,1,1.42-1.72,6.32,6.32,0,0,1,2.16-1,10.47,10.47,0,0,1,2.68-.33,10.76,10.76,0,0,1,2.09.22,7,7,0,0,1,1.9.69,4.07,4.07,0,0,1,1.36,1.21,3,3,0,0,1,.53,1.81,2.46,2.46,0,0,1-.76,1.85,2.74,2.74,0,0,1-2,.73,1.65,1.65,0,0,1-1.13-.42,1,1,0,0,1-.33-.55s.08-.09.23-.14a2,2,0,0,0,.52-.27,1.9,1.9,0,0,0,.51-.51,1.5,1.5,0,0,0,.24-.9,2.13,2.13,0,0,0-.91-1.83,3.75,3.75,0,0,0-2.24-.64,5.13,5.13,0,0,0-1.76.27,3.51,3.51,0,0,0-1.19.68,2.58,2.58,0,0,0-.69,1,3.07,3.07,0,0,0-.22,1.16,2.78,2.78,0,0,0,.62,1.87A6.94,6.94,0,0,0,233.12,40c.94.5,1.89,1,2.85,1.37a15.52,15.52,0,0,1,2.65,1.43,7.17,7.17,0,0,1,2,2,5.41,5.41,0,0,1,.76,3,4.27,4.27,0,0,1-.58,2.19,5.61,5.61,0,0,1-1.55,1.75,7.75,7.75,0,0,1-2.32,1.15,9.41,9.41,0,0,1-2.83.42,9.19,9.19,0,0,1-5-1.12,3.75,3.75,0,0,1-1.73-3.36,2.44,2.44,0,0,1,.77-1.85,2.7,2.7,0,0,1,2-.74,1.78,1.78,0,0,1,1.14.42,1,1,0,0,1,.33.55s-.06.09-.18.14a2,2,0,0,0-.39.26,1.81,1.81,0,0,0-.56,1.4,3,3,0,0,0,.86,2.23A3.93,3.93,0,0,0,234.06,52Z"/><path class="cls-1" d="M248.66,43.49V49a8.46,8.46,0,0,0,.05.87,2,2,0,0,0,.23.77,1.4,1.4,0,0,0,.6.55,2.67,2.67,0,0,0,1.15.2,2,2,0,0,1,.54.06c.14,0,.21.24.23.6a.93.93,0,0,1-.12.46.45.45,0,0,1-.43.22q-2-.09-3.87-.09h-1.82c-.59,0-1.21,0-1.88.08a.44.44,0,0,1-.43-.22.84.84,0,0,1-.13-.46c0-.36.1-.55.23-.6a2,2,0,0,1,.55-.06,2.7,2.7,0,0,0,1.15-.2,1.32,1.32,0,0,0,.59-.55,2,2,0,0,0,.24-.77,8.44,8.44,0,0,0,0-.87V36.64a8.44,8.44,0,0,0,0-.87,2.16,2.16,0,0,0-.24-.78,1.32,1.32,0,0,0-.59-.55,2.7,2.7,0,0,0-1.15-.2,2,2,0,0,1-.55-.06c-.13,0-.21-.24-.23-.59a.88.88,0,0,1,.13-.47.46.46,0,0,1,.43-.22c.67.05,1.29.07,1.87.08l1.8,0c1.25,0,2.55,0,3.9-.1a.47.47,0,0,1,.43.22,1,1,0,0,1,.12.47c0,.35-.09.55-.23.59a2,2,0,0,1-.54.06,2.67,2.67,0,0,0-1.15.2,1.4,1.4,0,0,0-.6.55,2.15,2.15,0,0,0-.23.78,8.46,8.46,0,0,0-.05.87v5.51h9.78V36.64a8.46,8.46,0,0,0-.05-.87,2.15,2.15,0,0,0-.23-.78,1.43,1.43,0,0,0-.59-.55,2.75,2.75,0,0,0-1.16-.2,2.23,2.23,0,0,1-.56-.06c-.14,0-.23-.24-.24-.59a.81.81,0,0,1,.14-.47.47.47,0,0,1,.41-.22c1.33.07,2.63.1,3.9.1l1.82,0c.59,0,1.22,0,1.88-.08a.47.47,0,0,1,.42.22.89.89,0,0,1,.14.47c0,.35-.1.55-.25.59a2,2,0,0,1-.53.06,2.7,2.7,0,0,0-1.15.2,1.49,1.49,0,0,0-.61.55,2.17,2.17,0,0,0-.25.78,8.44,8.44,0,0,0,0,.87V49a8.44,8.44,0,0,0,0,.87,2.06,2.06,0,0,0,.25.77,1.49,1.49,0,0,0,.61.55,2.7,2.7,0,0,0,1.15.2,2,2,0,0,1,.53.06c.15,0,.23.24.25.6a.86.86,0,0,1-.14.46.45.45,0,0,1-.42.22c-.66,0-1.3-.07-1.9-.08H260c-1.24,0-2.53,0-3.86.09a.45.45,0,0,1-.41-.22.78.78,0,0,1-.14-.46c0-.36.1-.55.24-.6a2.23,2.23,0,0,1,.56-.06,2.75,2.75,0,0,0,1.16-.2,1.43,1.43,0,0,0,.59-.55,2,2,0,0,0,.23-.77,8.46,8.46,0,0,0,.05-.87V43.49Z"/><path class="cls-1" d="M271.64,49a8.46,8.46,0,0,0,.05.87,2,2,0,0,0,.23.77,1.4,1.4,0,0,0,.6.55,2.7,2.7,0,0,0,1.15.2,1.91,1.91,0,0,1,.54.06c.14,0,.22.24.27.6a.86.86,0,0,1-.14.46.47.47,0,0,1-.42.22c-1.35-.06-2.64-.09-3.86-.09h-1.84c-.6,0-1.23,0-1.9.08a.44.44,0,0,1-.43-.22.84.84,0,0,1-.13-.46c0-.36.11-.55.25-.6a2,2,0,0,1,.53-.06,2.7,2.7,0,0,0,1.15-.2,1.32,1.32,0,0,0,.59-.55,1.88,1.88,0,0,0,.24-.77c0-.29.05-.58.07-.87V36.64c0-.29,0-.58-.07-.87a2,2,0,0,0-.24-.78,1.32,1.32,0,0,0-.59-.55,2.7,2.7,0,0,0-1.15-.2,2,2,0,0,1-.53-.06c-.14,0-.23-.24-.25-.59a.88.88,0,0,1,.13-.47.46.46,0,0,1,.43-.22c.67.05,1.29.07,1.88.08L270,33c1.24,0,2.54,0,3.89-.1a.5.5,0,0,1,.42.22.89.89,0,0,1,.14.47c-.05.35-.13.55-.27.59a1.91,1.91,0,0,1-.54.06,2.7,2.7,0,0,0-1.15.2,1.4,1.4,0,0,0-.6.55,2.15,2.15,0,0,0-.23.78,8.46,8.46,0,0,0-.05.87Z"/><path class="cls-1" d="M281.8,49.46l.06.66a1.26,1.26,0,0,0,.24.63,1.4,1.4,0,0,0,.63.49,3.13,3.13,0,0,0,1.25.15h2.8a5,5,0,0,0,1.32-.2,1.78,1.78,0,0,0,.86-.59,3.83,3.83,0,0,0,.59-1.11c.17-.45.35-1,.56-1.71a.62.62,0,0,1,.42-.4,1.15,1.15,0,0,1,.64,0,1.64,1.64,0,0,1,.51.23.47.47,0,0,1,.24.48L291.29,52a.79.79,0,0,1-.29.55,1.38,1.38,0,0,1-.61.11h-12c-.59,0-1.23,0-1.91.08a.43.43,0,0,1-.41-.22.93.93,0,0,1-.12-.46c0-.32.1-.5.23-.57a1.4,1.4,0,0,1,.55-.09,2.73,2.73,0,0,0,1.15-.2,1.32,1.32,0,0,0,.59-.55,2,2,0,0,0,.23-.77,8.46,8.46,0,0,0,.05-.87V36.64a8.46,8.46,0,0,0-.05-.87,2.15,2.15,0,0,0-.23-.78,1.32,1.32,0,0,0-.59-.55,2.73,2.73,0,0,0-1.15-.2,1.42,1.42,0,0,1-.55-.08c-.13,0-.21-.24-.23-.57a.9.9,0,0,1,.12-.5.47.47,0,0,1,.41-.19c.68.05,1.31.07,1.9.08l1.8,0c1.25,0,2.54,0,3.89-.1a.48.48,0,0,1,.44.22,1,1,0,0,1,.12.47c0,.35-.1.55-.25.59a2,2,0,0,1-.53.06,2.73,2.73,0,0,0-1.15.2,1.37,1.37,0,0,0-.59.55,2.15,2.15,0,0,0-.23.78,8.46,8.46,0,0,0-.05.87Z"/><path class="cls-1" d="M301.08,32.81a9.49,9.49,0,0,1,1.7.14,3.89,3.89,0,0,1,1.3.48,3.41,3.41,0,0,1,1.05,1,8.59,8.59,0,0,1,.9,1.68L311.26,49c.1.27.22.54.34.82a4.32,4.32,0,0,0,.44.76,2.32,2.32,0,0,0,.59.58,1.51,1.51,0,0,0,.84.23,1.91,1.91,0,0,1,.54.06c.14,0,.22.24.24.6a.86.86,0,0,1-.14.46.47.47,0,0,1-.42.22c-.67,0-1.25-.07-1.75-.08h-1.68c-1.24,0-2.53,0-3.86.09a.45.45,0,0,1-.43-.22.84.84,0,0,1-.13-.46c0-.36.1-.55.24-.6a1.91,1.91,0,0,1,.54-.06,3.48,3.48,0,0,0,1.15-.14.79.79,0,0,0,.52-.42,1.44,1.44,0,0,0,0-.73A5.62,5.62,0,0,0,308,49l-1.06-2.59h-7.69c-.49,1.27-.83,2.13-1,2.59a12.07,12.07,0,0,0-.34,1.27A.84.84,0,0,0,298,51a1,1,0,0,0,.7.32,8.82,8.82,0,0,0,1.42.08,2,2,0,0,1,.54.06c.13,0,.21.24.23.6a.78.78,0,0,1-.14.46.45.45,0,0,1-.42.22c-.66,0-1.24-.07-1.72-.08h-3.15l-.68,0-.86,0a.44.44,0,0,1-.43-.22.84.84,0,0,1-.13-.46c0-.36.1-.55.23-.6a2,2,0,0,1,.55-.06,2.27,2.27,0,0,0,1-.2,1.93,1.93,0,0,0,.65-.55,3.41,3.41,0,0,0,.46-.77l.37-.87,5.45-12.89a1.79,1.79,0,0,0,.15-.9,1,1,0,0,0-.29-.56,1.48,1.48,0,0,0-.59-.33,6.11,6.11,0,0,0-.74-.17A3,3,0,0,1,300,34c-.1,0-.15-.24-.15-.55s.11-.54.35-.57A7.28,7.28,0,0,1,301.08,32.81Zm-1.24,12.26h6.53l-3.14-8h-.1Z"/></g></g></svg>