<?xml version="1.0" encoding="utf-8"?>
<!-- Generator: Adobe Illustrator 23.0.0, SVG Export Plug-In . SVG Version: 6.00 Build 0)  -->
<svg version="1.1" id="Layer_1" xmlns="http://www.w3.org/2000/svg" xmlns:xlink="http://www.w3.org/1999/xlink" x="0px" y="0px"
	 viewBox="0 0 684.5 213.6" style="enable-background:new 0 0 684.5 213.6;" xml:space="preserve">
<style type="text/css">
	.st0{fill:#FFFFFF;}
</style>
<path class="st0" d="M212.9,174.9l-4.5-1l-77.3-17.6l-4.1-0.9l-0.6-0.1l-5.8-1.3c1.4,1.6,2.4,3.4,3.1,5.4l2.6,0.6l2.4,0.6l0.1,0
	l75.2,17.1l-78.6,0.3l-5.9,0c-2.2,2.2-5,3.8-8,4.6l9.8,0l86.6-0.3l4.6,0c-0.1-0.8-0.1-1.5-0.1-2.3
	C212.4,178.2,212.6,176.5,212.9,174.9z"/>
<path class="st0" d="M29.5,94.3C13.2,94.3,0,81,0,64.7s13.2-29.6,29.5-29.6s29.6,13.2,29.6,29.5C59.1,81,45.9,94.2,29.5,94.3z
	 M29.5,39.7c-13.8,0-25,11.2-25,25s11.2,25,25,25s25-11.2,25-25v0C54.5,50.9,43.3,39.7,29.5,39.7z"/>
<path class="st0" d="M148.2,47.8H50.9v3.9c4.9,8,4.9,18,0,25.9v0.8l99.3-22.9C149.3,53.1,148.6,50.5,148.2,47.8z M55.5,52.4h88.3
	L55.5,72.7V52.4z"/>
<path class="st0" d="M187.1,83.3c-23,0-41.7-18.7-41.7-41.7S164.1,0,187.1,0s41.7,18.7,41.7,41.7C228.8,64.7,210.1,83.3,187.1,83.3z
	 M187.1,4.6c-20.5,0-37.1,16.6-37.1,37.1s16.6,37.1,37.1,37.1s37.1-16.6,37.1-37.1C224.2,21.2,207.6,4.6,187.1,4.6z"/>
<path class="st0" d="M107.1,145.3c2.3,0,4.6,0.4,6.8,1.2l-3.5-3.2l59.9-64.8l-44.9,78.7l-0.1-0.1c0.9,2,1.5,4.2,1.7,6.4l48.1-84.3
	c-2.9-0.9-5.7-2.2-8.3-3.7L104,143.6l2,1.8C106.3,145.3,106.7,145.3,107.1,145.3z"/>
<path class="st0" d="M128.9,160.5c0-0.1,0-0.1,0-0.2c-0.4-1.7-1-3.4-1.8-4.9c-0.1-0.2-0.2-0.4-0.3-0.6c-3.3-6.2-9.4-10.4-16.3-11.5
	h0c-1.1-0.2-2.2-0.2-3.3-0.2c-0.9,0-1.9,0.1-2.8,0.2h0c-12.2,1.6-20.8,12.7-19.3,24.9s12.7,20.8,24.9,19.3c4.2-0.5,8.2-2.3,11.4-5
	c1.6-1.3,3-2.9,4.2-4.6C129,172.8,130.2,166.5,128.9,160.5L128.9,160.5z M111.6,182.4c-9.5,2.5-19.2-3.2-21.7-12.7
	s3.2-19.2,12.7-21.7c9.5-2.5,19.2,3.2,21.7,12.7c1.6,6.1-0.2,12.6-4.6,17.1C117.4,180.1,114.6,181.7,111.6,182.4z"/>
<path class="st0" d="M241.7,146.1c-18.7,0-33.8,15.1-33.8,33.7c0,0,0,0,0,0.1c0,0.8,0,1.5,0.1,2.3c1.3,18.6,17.4,32.7,36,31.4
	s32.7-17.4,31.4-36C274.2,159.8,259.4,146,241.7,146.1L241.7,146.1z M241.7,209.1c-15.3,0-27.9-11.8-29.1-27
	c-0.1-0.8-0.1-1.5-0.1-2.3c0-1.7,0.1-3.3,0.4-5c2.8-15.9,17.9-26.6,33.8-23.8s26.6,17.9,23.8,33.8
	C268,198.8,255.9,209.1,241.7,209.1L241.7,209.1z"/>
<path class="st0" d="M320.7,101.3h47.1v18.5h-76.6V109l46.2-74.1H291V16.4h76.2v10.4L320.7,101.3z"/>
<path class="st0" d="M403.3,25.1h-24.1V9h24.1V25.1z M403.3,119.8h-24.1V43h24.1V119.8z"/>
<path class="st0" d="M440.1,43l0.9,10.8c2.4-3.7,5.5-6.8,9.3-9c3.8-2.2,8-3.3,12.4-3.2c7.5,0,13.4,2.4,17.6,7.3
	c4.2,4.9,6.4,12.6,6.4,23.3v47.7h-24V72.1c0-4.4-0.9-7.5-2.7-9.3c-1.8-1.8-4.5-2.7-8.1-2.7c-2,0-4.1,0.4-5.9,1.2
	c-1.7,0.8-3.2,1.9-4.4,3.3v55.3h-23.9V43H440.1z"/>
<path class="st0" d="M524.9,25.1h-24.1V9h24.1V25.1z M524.9,119.8h-24.1V43h24.1V119.8z"/>
<path class="st0" d="M536.4,80.7c0-11.6,3.3-21,9.8-28.2s15.6-10.9,27.3-10.9c11.7,0,20.9,3.6,27.4,10.9s9.8,16.7,9.8,28.2v1.5
	c0,11.6-3.3,21-9.8,28.3s-15.6,10.9-27.3,10.9c-11.8,0-21-3.6-27.5-10.9c-6.5-7.2-9.8-16.7-9.8-28.3V80.7z M560.4,82.2
	c0,6.4,1,11.5,3,15.2c2,3.7,5.4,5.5,10.3,5.5c4.7,0,8-1.8,10.1-5.5c2-3.7,3-8.7,3-15.1v-1.5c0-6.2-1-11.3-3-15s-5.4-5.6-10.2-5.7
	c-4.7,0-8.1,1.9-10.1,5.7c-2,3.8-3,8.8-3,15L560.4,82.2L560.4,82.2z"/>
<path class="st0" d="M661.4,98.2c0-1.9-1.1-3.6-3.2-5.1s-6.1-2.8-11.8-4c-9-1.8-15.7-4.5-20.2-8.2s-6.8-8.7-6.8-15.1
	c0-6.8,2.8-12.5,8.5-17.2c5.7-4.7,13.4-7.1,23.1-7.1c10.2,0,18.4,2.3,24.4,6.8c6.1,4.6,8.9,10.5,8.7,17.7l-0.1,0.4h-23.3
	c0-3-0.8-5.3-2.3-6.9c-1.5-1.6-4-2.3-7.4-2.3c-2.3-0.1-4.5,0.7-6.3,2.1c-1.6,1.2-2.6,3.2-2.6,5.2c0,2.1,1.2,4.1,3,5.2
	c2,1.4,5.9,2.7,11.9,3.8c9.4,1.9,16.3,4.6,20.8,8.3c4.5,3.7,6.8,8.9,6.8,15.6c0,6.9-3.1,12.6-9.2,17.1s-14.2,6.7-24.3,6.7
	c-10.5,0-18.7-2.7-24.8-7.9c-6.1-5.3-9-11.2-8.7-17.8l0.1-0.4h21.7c0.1,3.7,1.2,6.3,3.3,7.9s5.1,2.4,9,2.4c3.2,0,5.7-0.6,7.3-1.9
	C660.6,102.3,661.5,100.3,661.4,98.2z"/>
<path class="st0" d="M327.3,145.1h-16.5v43.7h-3.5v-43.7H291v-3.4h36.3V145.1z"/>
<path class="st0" d="M348.5,189.7c-2.2,0-4.3-0.4-6.3-1.2c-1.9-0.8-3.5-1.9-4.9-3.4c-1.4-1.6-2.5-3.5-3.2-5.5
	c-0.8-2.4-1.2-4.9-1.1-7.4c0-2.5,0.3-4.9,1.1-7.3c0.6-2,1.7-3.9,3.1-5.5c1.3-1.5,2.9-2.7,4.7-3.5c1.9-0.8,4-1.2,6-1.2
	c2.1,0,4.2,0.4,6.2,1.2c1.8,0.8,3.4,2,4.7,3.5c1.3,1.6,2.4,3.5,3,5.5c0.7,2.4,1.1,4.9,1,7.3v0.8h-26.3c0.1,2,0.5,4,1.2,5.9
	c0.6,1.5,1.5,3,2.6,4.2c1,1.1,2.3,1.9,3.7,2.5c1.4,0.6,3,0.8,4.5,0.8c1.2,0,2.3-0.1,3.5-0.4c1.1-0.2,2.1-0.7,3.1-1.2
	c0.9-0.5,1.7-1.2,2.4-2c0.6-0.8,1-1.8,1.1-2.8h3.4c-0.3,1.5-0.9,2.9-1.7,4.2c-0.8,1.2-1.8,2.3-3,3.1c-1.2,0.9-2.6,1.5-4,1.9
	C351.8,189.5,350.2,189.7,348.5,189.7z M359.3,169.5c-0.6-3.8-1.9-6.7-3.9-8.6c-2-1.9-4.7-2.9-7.5-2.8c-1.4,0-2.8,0.2-4.1,0.7
	c-1.3,0.5-2.4,1.2-3.4,2.1c-1,1-1.9,2.2-2.5,3.6c-0.7,1.6-1.2,3.3-1.4,5H359.3z"/>
<path class="st0" d="M384.7,189.7c-2.1,0-4.1-0.4-6-1.2c-1.8-0.8-3.4-1.9-4.7-3.4c-1.4-1.6-2.4-3.5-3-5.5c-1.4-4.9-1.4-10,0-14.9
	c0.6-2,1.6-3.9,3-5.5c1.3-1.5,2.9-2.6,4.7-3.4c3.4-1.4,7.1-1.6,10.6-0.5c1.3,0.4,2.6,1,3.7,1.9c1.1,0.9,2,1.9,2.7,3.1
	c0.8,1.3,1.3,2.7,1.5,4.2h-3.4c-0.1-1-0.5-1.9-1-2.8c-0.5-0.8-1.2-1.5-2-2c-0.8-0.6-1.8-1-2.8-1.2c-1.1-0.3-2.2-0.4-3.4-0.4
	c-1.6,0-3.2,0.3-4.6,0.9c-1.4,0.6-2.6,1.5-3.6,2.6c-1.1,1.3-1.9,2.8-2.3,4.4c-1.1,4-1.1,8.3,0,12.3c0.5,1.6,1.3,3.1,2.3,4.4
	c1,1.2,2.2,2.1,3.6,2.6c1.5,0.6,3.1,0.9,4.6,0.9c1.1,0,2.2-0.1,3.2-0.4c1-0.3,1.9-0.7,2.8-1.2c0.8-0.5,1.5-1.2,2-2
	c0.6-0.8,0.9-1.8,1-2.8h3.4c-0.3,1.5-0.8,2.9-1.6,4.2c-0.7,1.2-1.6,2.2-2.7,3.1c-1.1,0.8-2.4,1.5-3.7,1.9
	C387.7,189.5,386.2,189.7,384.7,189.7z"/>
<path class="st0" d="M408.2,160.4c1-1.1,2-2.1,3.2-3c0.9-0.7,2-1.3,3.1-1.8c0.9-0.4,1.9-0.7,2.8-0.8c0.8-0.1,1.7-0.2,2.6-0.2
	c6.9,0,10.3,4.1,10.3,12.1v22.1h-3.4V167c0-1.4-0.1-2.7-0.4-4c-0.2-1-0.7-2-1.3-2.8c-0.6-0.7-1.5-1.3-2.4-1.6
	c-1.2-0.4-2.4-0.6-3.6-0.5c-1.9,0-3.8,0.6-5.5,1.7c-2,1.3-3.7,2.9-5.3,4.7v24.4h-3.5v-47.2h3.5L408.2,160.4L408.2,160.4z"/>
<path class="st0" d="M444.5,160.4c1-1.2,2.1-2.2,3.3-3.1c1-0.7,2-1.3,3.1-1.8c0.9-0.4,1.9-0.6,2.9-0.8c0.9-0.1,1.7-0.1,2.6-0.1
	c6.9,0,10.3,4.1,10.3,12.1v22.1h-3.5v-21.8c0-1.4-0.1-2.7-0.4-4c-0.2-1-0.7-2-1.3-2.8c-0.6-0.7-1.5-1.3-2.4-1.6
	c-1.2-0.4-2.4-0.6-3.6-0.5c-2,0-3.9,0.6-5.6,1.7c-2,1.3-3.9,2.9-5.4,4.7v24.4h-3.5v-33.4h3.5L444.5,160.4L444.5,160.4z"/>
<path class="st0" d="M490.6,154.6c2.1,0,4.2,0.4,6.2,1.2c1.8,0.8,3.4,2,4.7,3.4c1.3,1.6,2.4,3.5,3,5.5c1.4,4.8,1.4,10,0,14.8
	c-0.6,2-1.6,3.9-3,5.5c-1.3,1.5-2.9,2.7-4.7,3.4c-3.9,1.6-8.3,1.6-12.2,0c-1.8-0.8-3.4-1.9-4.7-3.4c-1.4-1.6-2.4-3.5-3-5.5
	c-1.4-4.9-1.4-10,0-14.9c0.6-2,1.6-3.9,3-5.5c1.3-1.5,2.9-2.7,4.7-3.4C486.4,155,488.5,154.6,490.6,154.6z M490.6,186.2
	c1.6,0,3.2-0.3,4.6-0.9c1.4-0.6,2.6-1.5,3.6-2.7c1.1-1.3,1.9-2.8,2.4-4.4c1.1-4,1.1-8.3,0-12.3c-0.5-1.6-1.3-3.1-2.4-4.4
	c-1-1.1-2.2-2-3.6-2.6c-3-1.2-6.3-1.2-9.3,0c-1.4,0.6-2.6,1.5-3.6,2.6c-1.1,1.3-1.9,2.8-2.3,4.4c-1.1,4-1.1,8.3,0,12.3
	c0.5,1.6,1.3,3.1,2.3,4.4c1,1.2,2.2,2.1,3.6,2.7C487.4,186,489,186.3,490.6,186.2z"/>
<path class="st0" d="M518.3,188.8h-3.5v-47.2h3.5V188.8z"/>
<path class="st0" d="M542.2,154.6c2.1,0,4.2,0.4,6.2,1.2c1.8,0.8,3.4,2,4.7,3.4c1.3,1.6,2.4,3.5,3,5.5c1.4,4.8,1.4,10,0,14.8
	c-0.6,2-1.6,3.9-3,5.5c-1.3,1.5-2.9,2.7-4.7,3.4c-3.9,1.6-8.3,1.6-12.2,0c-1.8-0.8-3.4-1.9-4.7-3.4c-1.4-1.6-2.4-3.5-3-5.5
	c-1.4-4.9-1.4-10,0-14.9c0.6-2,1.6-3.9,3-5.5c1.3-1.5,2.9-2.7,4.7-3.4C538.1,155,540.1,154.6,542.2,154.6z M542.2,186.2
	c1.6,0,3.2-0.3,4.6-0.9c1.4-0.6,2.6-1.5,3.6-2.7c1.1-1.3,1.9-2.8,2.3-4.4c1.1-4,1.1-8.3,0-12.3c-0.5-1.6-1.3-3.1-2.3-4.4
	c-1-1.1-2.2-2-3.6-2.6c-3-1.2-6.3-1.2-9.3,0c-1.4,0.6-2.6,1.5-3.6,2.6c-1.1,1.3-1.9,2.8-2.3,4.4c-1.1,4-1.1,8.3,0,12.3
	c0.5,1.6,1.3,3.1,2.3,4.4c1,1.2,2.2,2.1,3.6,2.7C539,186,540.6,186.3,542.2,186.2z"/>
<path class="st0" d="M591.5,186.9c0,2.3-0.2,4.6-0.9,6.8c-0.5,1.7-1.4,3.3-2.6,4.6c-1.2,1.2-2.7,2.1-4.3,2.6
	c-3.6,1-7.5,1.1-11.1,0.2c-1.4-0.4-2.7-1-3.9-1.8c-1.1-0.7-1.9-1.7-2.6-2.9c-0.6-1.2-1-2.6-1-3.9h3.4c0,1.8,0.9,3.4,2.5,4.4
	c2,1.1,4.3,1.5,6.6,1.4c1.5,0,3.1-0.2,4.5-0.6c1.2-0.4,2.4-1.1,3.2-2.1c0.9-1.1,1.6-2.4,2-3.8c0.5-1.9,0.7-3.8,0.7-5.7V184
	c-0.9,1.1-2,2.2-3.2,3.1c-0.9,0.7-1.8,1.3-2.9,1.7c-0.8,0.4-1.7,0.6-2.7,0.7c-0.8,0.1-1.7,0.1-2.5,0.1c-1.9,0-3.8-0.4-5.6-1.2
	c-1.6-0.8-3-2-4-3.5c-1.2-1.6-2-3.5-2.5-5.4c-0.6-2.3-0.9-4.7-0.8-7.1c0-2.5,0.3-5,1-7.4c0.6-2,1.5-3.9,2.8-5.6
	c1.1-1.5,2.6-2.7,4.2-3.5c1.6-0.8,3.4-1.2,5.2-1.2c0.8,0,1.7,0.1,2.5,0.2c0.9,0.1,1.8,0.3,2.7,0.6c1,0.3,1.9,0.7,2.8,1.2
	c1,0.6,2,1.2,2.8,2v-3.1h3.5L591.5,186.9L591.5,186.9z M588,162.9c-1.4-1.5-3-2.7-4.8-3.6c-1.7-0.8-3.7-1.2-5.6-1.2
	c-1.4,0-2.9,0.3-4.2,0.9c-1.3,0.6-2.4,1.5-3.2,2.7c-1,1.3-1.7,2.9-2.1,4.5c-0.5,2.1-0.8,4.2-0.7,6.3c0,4.5,0.9,8,2.6,10.3
	c1.7,2.3,4.4,3.7,7.3,3.5c2,0,4-0.6,5.7-1.7c2-1.4,3.7-3.1,5-5.1V162.9z"/>
<path class="st0" d="M606.5,188.8H603v-33.4h3.5V188.8z M606.5,147.1h-3.4v-5.4h3.4V147.1z"/>
<path class="st0" d="M631.1,189.7c-2.2,0-4.3-0.4-6.3-1.2c-1.9-0.8-3.5-2-4.9-3.4c-1.4-1.6-2.5-3.5-3.2-5.5
	c-0.8-2.4-1.2-4.9-1.1-7.4c0-2.5,0.3-4.9,1.1-7.3c0.6-2,1.7-3.9,3.1-5.5c1.3-1.5,2.9-2.7,4.7-3.5c1.9-0.8,4-1.2,6-1.2
	c2.1,0,4.2,0.4,6.2,1.2c1.8,0.8,3.4,2,4.7,3.5c1.3,1.6,2.4,3.5,3,5.5c0.7,2.4,1.1,4.9,1,7.3v0.8H619c0.1,2,0.5,4,1.2,5.9
	c0.6,1.5,1.5,3,2.6,4.2c1,1.1,2.3,1.9,3.7,2.5c1.4,0.6,3,0.8,4.5,0.8c1.2,0,2.3-0.1,3.5-0.4c1.1-0.2,2.1-0.7,3.1-1.2
	c0.9-0.5,1.7-1.2,2.3-2c0.6-0.8,1-1.8,1.1-2.8h3.4c-0.3,1.5-0.9,2.9-1.7,4.2c-0.8,1.2-1.8,2.3-3,3.1c-1.2,0.9-2.6,1.5-4,1.9
	C634.3,189.5,632.7,189.7,631.1,189.7z M641.8,169.5c-0.6-3.8-1.9-6.7-3.9-8.6c-2-1.9-4.7-2.9-7.5-2.8c-1.4,0-2.8,0.2-4.1,0.7
	c-1.3,0.5-2.4,1.2-3.4,2.1c-1,1-1.9,2.2-2.5,3.6c-0.7,1.6-1.2,3.3-1.4,5H641.8z"/>
<path class="st0" d="M665.4,189.7c-8.2,0-12.6-3.3-13.4-9.9h3.5c0.2,1.9,1.2,3.6,2.8,4.7c1.6,1.1,4,1.7,7.1,1.7c1.3,0,2.7-0.1,4-0.5
	c1-0.3,2-0.7,2.9-1.3c0.7-0.5,1.3-1.2,1.7-2c0.4-0.8,0.6-1.6,0.6-2.5c0-0.8-0.1-1.6-0.5-2.3c-0.4-0.7-0.9-1.3-1.6-1.7
	c-1-0.6-2.1-1.1-3.2-1.5c-1.4-0.5-3.1-1-5.2-1.5c-1.8-0.5-3.4-0.9-4.8-1.4c-1.3-0.4-2.5-1-3.5-1.8c-0.9-0.7-1.7-1.6-2.2-2.6
	c-0.5-1.2-0.8-2.5-0.7-3.8c0-1.3,0.3-2.5,0.8-3.6c0.6-1.1,1.4-2,2.3-2.7c1.1-0.8,2.3-1.4,3.7-1.7c1.6-0.4,3.2-0.6,4.8-0.6
	c4,0,7,0.7,9,2c2.1,1.4,3.4,3.8,3.4,6.3h-3.5c-0.2-1.5-1-2.9-2.4-3.7c-1.9-0.9-4-1.3-6.1-1.2c-1.2,0-2.3,0.1-3.5,0.3
	c-1,0.2-1.9,0.5-2.7,1c-0.7,0.4-1.3,1-1.8,1.7c-0.4,0.7-0.7,1.5-0.7,2.3c0,0.5,0.1,1,0.3,1.5c0.3,0.6,0.7,1.2,1.3,1.6
	c1,0.7,2,1.3,3.2,1.7c1.9,0.7,3.8,1.3,5.8,1.7c1.7,0.4,3.4,0.9,5,1.5c1.3,0.4,2.5,1.1,3.5,1.9c0.9,0.7,1.6,1.6,2.1,2.6
	c0.5,1.1,0.7,2.3,0.7,3.4c0,1.4-0.3,2.8-0.9,4.1c-0.6,1.3-1.4,2.4-2.5,3.3c-1.2,1-2.5,1.7-3.9,2.2
	C668.9,189.5,667.1,189.7,665.4,189.7z"/>
</svg>
