<svg xmlns="http://www.w3.org/2000/svg" viewBox="0 0 684.46 213.64"><defs><style>.a{fill:#086db5;}</style></defs><path class="a" d="M212.87,174.87l-4.47-1.01L131.13,156.3l-4.06-.93-.59-.13-5.79-1.32a17.731,17.731,0,0,1,3.12,5.4l2.56.58,2.39.55.12.02,75.24,17.1-78.58.26-5.92.02a17.715,17.715,0,0,1-8.03,4.6l9.8-.04,86.56-.29,4.58-.01c-.07-.75-.1-1.5-.1-2.26A28.209,28.209,0,0,1,212.87,174.87Z"/><path class="a" d="M29.55,94.26A29.555,29.555,0,1,1,59.1,64.7,29.591,29.591,0,0,1,29.55,94.26Zm0-54.55A24.99,24.99,0,1,0,54.54,64.7,25.018,25.018,0,0,0,29.55,39.71Z"/><path class="a" d="M148.21,47.81H50.91v3.93a24.927,24.927,0,0,1,0,25.94v.81l99.35-22.92A39.054,39.054,0,0,1,148.21,47.81ZM55.47,52.37h88.27L55.47,72.74Z"/><path class="a" d="M187.12,83.35a41.675,41.675,0,1,1,41.67-41.68A41.722,41.722,0,0,1,187.12,83.35Zm0-78.78a37.11,37.11,0,1,0,37.11,37.11A37.155,37.155,0,0,0,187.12,4.57Z"/><path class="a" d="M107.13,145.3a19.991,19.991,0,0,1,6.81,1.21l-3.49-3.22,59.89-64.85-44.93,78.67-.09-.08a19.72,19.72,0,0,1,1.71,6.45l48.13-84.27a39.161,39.161,0,0,1-8.28-3.74L104,143.56l1.96,1.81C106.34,145.34,106.73,145.3,107.13,145.3Z"/><path class="a" d="M128.88,160.47a.75.75,0,0,0-.04-.16,21.533,21.533,0,0,0-1.77-4.94c-.1-.21-.21-.41-.31-.61a22.345,22.345,0,0,0-16.28-11.49h-.01a23.035,23.035,0,0,0-3.34-.25,20.136,20.136,0,0,0-2.82.19h-.01a22.275,22.275,0,1,0,17.09,39.2,22.614,22.614,0,0,0,4.15-4.58,22.233,22.233,0,0,0,3.34-17.36Zm-17.29,21.98a17.756,17.756,0,1,1,8.03-4.6A17.7,17.7,0,0,1,111.59,182.45Z"/><path class="a" d="M241.66,146.05a33.77,33.77,0,0,0-33.79,33.8c0,.76.03,1.52.08,2.27a33.793,33.793,0,1,0,33.71-36.07Zm0,63.03a29.239,29.239,0,0,1-29.13-26.97c-.07-.75-.1-1.5-.1-2.26a28.207,28.207,0,0,1,.44-4.98,29.229,29.229,0,1,1,28.79,34.21Z"/><path class="a" d="M320.71,101.33H367.8v18.46H291.17V109L337.4,34.86H290.95V16.4h76.2V26.77Z"/><path class="a" d="M403.3,25.13H379.23V9.01H403.3Zm0,94.67H379.23V42.96H403.3Z"/><path class="a" d="M440.09,42.96l.92,10.8a27.839,27.839,0,0,1,9.3-8.98,24.1,24.1,0,0,1,12.36-3.23q11.295,0,17.65,7.31t6.36,23.29V119.8h-24V72.07q0-6.6-2.74-9.34T451.88,60a13.809,13.809,0,0,0-5.93,1.21,13.2,13.2,0,0,0-4.44,3.34V119.8H417.58V42.96Z"/><path class="a" d="M524.89,25.13H500.81V9.01h24.08Zm0,94.67H500.81V42.96h24.08Z"/><path class="a" d="M536.39,80.67q0-17.325,9.8-28.23t27.34-10.9q17.61,0,27.41,10.9t9.8,28.23v1.49q0,17.4-9.8,28.27T573.67,121.3q-17.685,0-27.48-10.87t-9.8-28.27Zm24,1.49q0,9.66,3.02,15.16t10.26,5.5q7.035,0,10.08-5.54t3.05-15.13V80.66q0-9.375-3.05-15.02t-10.23-5.65q-7.095,0-10.12,5.68t-3.02,14.98v1.51Z"/><path class="a" d="M661.38,98.21c0-1.89-1.08-3.59-3.23-5.08s-6.07-2.83-11.75-4.01q-13.425-2.625-20.24-8.17t-6.82-15.13q0-10.155,8.52-17.22t23.08-7.07q15.345,0,24.43,6.85t8.66,17.72l-.14.43H660.6q0-4.545-2.31-6.89t-7.42-2.34a9.758,9.758,0,0,0-6.32,2.06,6.431,6.431,0,0,0-2.56,5.25,6.231,6.231,0,0,0,2.95,5.18q2.94,2.13,11.9,3.83Q670.9,76.4,677.68,81.89t6.78,15.59q0,10.365-9.2,17.08t-24.32,6.71q-15.69,0-24.82-7.95t-8.7-17.75l.14-.43h21.73c.09,3.65,1.19,6.27,3.3,7.88s5.1,2.41,8.98,2.41q4.83,0,7.32-1.88A6.25,6.25,0,0,0,661.38,98.21Z"/><path d="M327.28,145.12H310.79v43.71h-3.45V145.12H291.02v-3.45h36.26Z"/><path d="M348.55,189.7a16.265,16.265,0,0,1-6.33-1.18,13.523,13.523,0,0,1-4.89-3.45,15.849,15.849,0,0,1-3.17-5.53,22.832,22.832,0,0,1-1.12-7.45,23.09,23.09,0,0,1,1.08-7.3,15.722,15.722,0,0,1,3.06-5.51,13.535,13.535,0,0,1,4.69-3.47,14.759,14.759,0,0,1,6.03-1.21,15.117,15.117,0,0,1,6.16,1.21,12.8,12.8,0,0,1,4.69,3.47,15.75,15.75,0,0,1,2.97,5.51,24.2,24.2,0,0,1,1.03,7.34v.77H336.48a20.124,20.124,0,0,0,1.25,5.9,12.676,12.676,0,0,0,2.58,4.16,10.239,10.239,0,0,0,3.68,2.48,12.254,12.254,0,0,0,4.54.82,15.056,15.056,0,0,0,3.45-.41,11.047,11.047,0,0,0,3.12-1.23,8.223,8.223,0,0,0,2.35-2.02,5.36,5.36,0,0,0,1.12-2.76h3.4a11.874,11.874,0,0,1-1.68,4.2,11.683,11.683,0,0,1-2.97,3.1,12.837,12.837,0,0,1-4.01,1.92A17.277,17.277,0,0,1,348.55,189.7Zm10.73-20.24c-.58-3.82-1.87-6.68-3.9-8.57a10.541,10.541,0,0,0-7.47-2.84,11.865,11.865,0,0,0-4.09.69,9.578,9.578,0,0,0-3.38,2.11,12.046,12.046,0,0,0-2.5,3.57,18.117,18.117,0,0,0-1.44,5.04h22.78Z"/><path d="M384.69,189.7a15.389,15.389,0,0,1-6.05-1.16,12.761,12.761,0,0,1-4.69-3.4,15.669,15.669,0,0,1-3.04-5.51,26.472,26.472,0,0,1-.02-14.9,15.465,15.465,0,0,1,3.01-5.51,13.13,13.13,0,0,1,4.69-3.42,16.133,16.133,0,0,1,10.59-.53,11.713,11.713,0,0,1,3.71,1.89,10.825,10.825,0,0,1,2.71,3.1,12.773,12.773,0,0,1,1.53,4.22h-3.36a6.989,6.989,0,0,0-.97-2.76,6.737,6.737,0,0,0-1.96-2.02,8.908,8.908,0,0,0-2.78-1.23,13.551,13.551,0,0,0-3.38-.41,11.892,11.892,0,0,0-4.65.88,9.552,9.552,0,0,0-3.62,2.65,12.339,12.339,0,0,0-2.33,4.41,23.547,23.547,0,0,0,0,12.32,12.172,12.172,0,0,0,2.33,4.41,9.475,9.475,0,0,0,3.62,2.65,11.927,11.927,0,0,0,4.65.88,12.707,12.707,0,0,0,3.23-.41,9.566,9.566,0,0,0,2.78-1.21,7.3,7.3,0,0,0,2.05-1.98,6.166,6.166,0,0,0,1.03-2.78h3.36a13.186,13.186,0,0,1-1.57,4.24,11.034,11.034,0,0,1-2.71,3.08,11.224,11.224,0,0,1-3.7,1.87A15.46,15.46,0,0,1,384.69,189.7Z"/><path d="M408.2,160.41a20.93,20.93,0,0,1,3.21-3.01,14.371,14.371,0,0,1,3.06-1.77,13.553,13.553,0,0,1,2.84-.82,16.816,16.816,0,0,1,2.56-.22q10.29,0,10.29,12.15v22.09h-3.44V167.04a17.609,17.609,0,0,0-.41-4.03,6.763,6.763,0,0,0-1.33-2.8,5.6,5.6,0,0,0-2.41-1.64,10.7,10.7,0,0,0-3.64-.54,9.931,9.931,0,0,0-5.45,1.68,25.515,25.515,0,0,0-5.28,4.74v24.38h-3.45V141.67h3.45v18.74Z"/><path d="M444.55,160.41a18.954,18.954,0,0,1,3.29-3.14,14.808,14.808,0,0,1,3.14-1.77,11.365,11.365,0,0,1,2.91-.75,23.957,23.957,0,0,1,2.58-.15q10.29,0,10.29,12.15v22.09h-3.45V167.05a17.609,17.609,0,0,0-.41-4.03,6.763,6.763,0,0,0-1.33-2.8,5.6,5.6,0,0,0-2.41-1.64,10.7,10.7,0,0,0-3.64-.54,10.58,10.58,0,0,0-5.58,1.68,23.809,23.809,0,0,0-5.4,4.74v24.38h-3.45V155.46h3.45v4.95Z"/><path d="M490.63,154.6a15.624,15.624,0,0,1,6.16,1.18,12.643,12.643,0,0,1,4.69,3.45,15.75,15.75,0,0,1,2.97,5.51,26.689,26.689,0,0,1-.03,14.79,15.775,15.775,0,0,1-2.99,5.53,12.724,12.724,0,0,1-4.69,3.45,16.513,16.513,0,0,1-12.21.02,12.55,12.55,0,0,1-4.67-3.42,16.243,16.243,0,0,1-3.02-5.53,26.4,26.4,0,0,1-.02-14.88,15.583,15.583,0,0,1,2.99-5.49,12.873,12.873,0,0,1,4.69-3.42A15.27,15.27,0,0,1,490.63,154.6Zm0,31.65a11.757,11.757,0,0,0,4.63-.88,9.586,9.586,0,0,0,3.6-2.67,12.673,12.673,0,0,0,2.35-4.44,23.007,23.007,0,0,0,0-12.32,12.172,12.172,0,0,0-2.35-4.39,9.727,9.727,0,0,0-3.6-2.63,12.725,12.725,0,0,0-9.3,0,9.7,9.7,0,0,0-3.6,2.63,12.077,12.077,0,0,0-2.33,4.39,23.547,23.547,0,0,0,0,12.32,12.571,12.571,0,0,0,2.33,4.44,9.509,9.509,0,0,0,3.6,2.67A11.852,11.852,0,0,0,490.63,186.25Z"/><path d="M518.28,188.84h-3.45V141.68h3.45Z"/><path d="M542.23,154.6a15.624,15.624,0,0,1,6.16,1.18,12.643,12.643,0,0,1,4.69,3.45,15.75,15.75,0,0,1,2.97,5.51,26.812,26.812,0,0,1-.02,14.79,15.775,15.775,0,0,1-2.99,5.53,12.724,12.724,0,0,1-4.69,3.45,16.487,16.487,0,0,1-12.2.02,12.549,12.549,0,0,1-4.67-3.42,16.06,16.06,0,0,1-3.01-5.53,26.521,26.521,0,0,1-.03-14.88,15.583,15.583,0,0,1,2.99-5.49,12.873,12.873,0,0,1,4.69-3.42A15.106,15.106,0,0,1,542.23,154.6Zm0,31.65a11.757,11.757,0,0,0,4.63-.88,9.586,9.586,0,0,0,3.6-2.67,12.839,12.839,0,0,0,2.35-4.44,23.006,23.006,0,0,0,0-12.32,12.173,12.173,0,0,0-2.35-4.39,9.728,9.728,0,0,0-3.6-2.63,12.725,12.725,0,0,0-9.3,0,9.7,9.7,0,0,0-3.6,2.63,12.23,12.23,0,0,0-2.33,4.39,23.547,23.547,0,0,0,0,12.32,12.571,12.571,0,0,0,2.33,4.44,9.406,9.406,0,0,0,3.6,2.67A11.818,11.818,0,0,0,542.23,186.25Z"/><path d="M591.5,186.86a23.812,23.812,0,0,1-.86,6.83,11.223,11.223,0,0,1-2.56,4.59,9.916,9.916,0,0,1-4.28,2.58,21.934,21.934,0,0,1-11.12.2,12.3,12.3,0,0,1-3.92-1.79,8.33,8.33,0,0,1-2.56-2.89,9.333,9.333,0,0,1-1.05-3.92h3.44a5.258,5.258,0,0,0,2.45,4.37,12.705,12.705,0,0,0,6.63,1.4,14.966,14.966,0,0,0,4.52-.62,7.322,7.322,0,0,0,3.23-2.05,9.394,9.394,0,0,0,1.96-3.75,21.248,21.248,0,0,0,.67-5.73v-2.11a20.861,20.861,0,0,1-3.17,3.12,13.062,13.062,0,0,1-2.86,1.72,9.683,9.683,0,0,1-2.65.73,21.137,21.137,0,0,1-2.48.15,11.956,11.956,0,0,1-5.56-1.25,11.365,11.365,0,0,1-4.05-3.51,16.276,16.276,0,0,1-2.48-5.45,27.85,27.85,0,0,1-.84-7.11,25.435,25.435,0,0,1,1.01-7.43,17.3,17.3,0,0,1,2.8-5.6,12.335,12.335,0,0,1,4.22-3.53,11.437,11.437,0,0,1,5.23-1.23,19.817,19.817,0,0,1,2.5.17,15.5,15.5,0,0,1,2.67.62,16.489,16.489,0,0,1,2.8,1.23,17.417,17.417,0,0,1,2.84,1.98v-3.14h3.45v31.42Zm-3.45-23.99a17.082,17.082,0,0,0-4.85-3.62,12.817,12.817,0,0,0-5.58-1.21,9.717,9.717,0,0,0-4.2.88,8.53,8.53,0,0,0-3.21,2.67,13.187,13.187,0,0,0-2.07,4.48,24.157,24.157,0,0,0-.73,6.31q0,6.81,2.63,10.34a8.586,8.586,0,0,0,7.32,3.53,10.183,10.183,0,0,0,5.69-1.7,19.7,19.7,0,0,0,5-5.06Z"/><path d="M606.48,188.84h-3.45V155.46h3.45Zm.05-41.78h-3.44v-5.38h3.44Z"/><path d="M631.07,189.7a16.265,16.265,0,0,1-6.33-1.18,13.609,13.609,0,0,1-4.89-3.45,15.7,15.7,0,0,1-3.17-5.53,22.832,22.832,0,0,1-1.12-7.45,23.089,23.089,0,0,1,1.08-7.3,15.721,15.721,0,0,1,3.06-5.51,13.443,13.443,0,0,1,4.69-3.47,14.759,14.759,0,0,1,6.03-1.21,15.116,15.116,0,0,1,6.16,1.21,12.8,12.8,0,0,1,4.69,3.47,15.75,15.75,0,0,1,2.97,5.51,24.153,24.153,0,0,1,1.03,7.34v.77H619a20.124,20.124,0,0,0,1.25,5.9,12.675,12.675,0,0,0,2.58,4.16,10.238,10.238,0,0,0,3.68,2.48,12.254,12.254,0,0,0,4.54.82,15.056,15.056,0,0,0,3.45-.41,11.047,11.047,0,0,0,3.12-1.23,8.223,8.223,0,0,0,2.35-2.02,5.276,5.276,0,0,0,1.12-2.76h3.4a11.874,11.874,0,0,1-1.68,4.2,11.683,11.683,0,0,1-2.97,3.1,12.889,12.889,0,0,1-4,1.92A17.4,17.4,0,0,1,631.07,189.7Zm10.73-20.24c-.58-3.82-1.87-6.68-3.9-8.57a10.525,10.525,0,0,0-7.47-2.84,11.865,11.865,0,0,0-4.09.69,9.578,9.578,0,0,0-3.38,2.11,12.046,12.046,0,0,0-2.5,3.57,17.786,17.786,0,0,0-1.44,5.04H641.8Z"/><path d="M665.36,189.7q-12.27,0-13.39-9.86h3.49a6.526,6.526,0,0,0,2.78,4.71q2.385,1.7,7.08,1.7a14.5,14.5,0,0,0,4-.49,8.728,8.728,0,0,0,2.86-1.34,5.38,5.38,0,0,0,1.7-2,5.753,5.753,0,0,0,.56-2.5,5.268,5.268,0,0,0-.45-2.28,4.359,4.359,0,0,0-1.64-1.72,15.214,15.214,0,0,0-3.23-1.49c-1.36-.47-3.11-.98-5.23-1.53q-2.715-.69-4.82-1.42a12.968,12.968,0,0,1-3.55-1.81,7.122,7.122,0,0,1-2.18-2.6,8.776,8.776,0,0,1-.73-3.81,7.7,7.7,0,0,1,.84-3.6,7.79,7.79,0,0,1,2.35-2.73,10.982,10.982,0,0,1,3.66-1.72,17.765,17.765,0,0,1,4.78-.6q5.94,0,9.02,2a7.793,7.793,0,0,1,3.42,6.31h-3.49a4.78,4.78,0,0,0-2.39-3.68,12.428,12.428,0,0,0-6.09-1.18,17.215,17.215,0,0,0-3.49.34,9.412,9.412,0,0,0-2.73,1.01,5.269,5.269,0,0,0-1.79,1.68,4.177,4.177,0,0,0-.65,2.3,4.844,4.844,0,0,0,.26,1.51,3.587,3.587,0,0,0,1.31,1.59,13.242,13.242,0,0,0,3.16,1.66,46.06,46.06,0,0,0,5.77,1.74,49.7,49.7,0,0,1,5.02,1.53,13.138,13.138,0,0,1,3.53,1.89,7.15,7.15,0,0,1,2.09,2.56,8.045,8.045,0,0,1,.69,3.45,9.663,9.663,0,0,1-.88,4.11,9.384,9.384,0,0,1-2.5,3.29,11.957,11.957,0,0,1-3.94,2.17A15.678,15.678,0,0,1,665.36,189.7Z"/></svg>