<?xml version="1.0" encoding="UTF-8"?>
<svg width="109px" height="28px" viewBox="0 0 109 28" version="1.1" xmlns="http://www.w3.org/2000/svg" xmlns:xlink="http://www.w3.org/1999/xlink">
    <!-- Generator: Sketch 53 (72520) - https://sketchapp.com -->
    <title>Logo</title>
    <desc>Created with Sketch.</desc>
    <g id="Page-1" stroke="none" stroke-width="1" fill="none" fill-rule="evenodd">
        <g id="Logo" transform="translate(0.000000, -2.000000)" fill-rule="nonzero">
            <g id="logo-copy">
                <g id="Group" transform="translate(55.000000, 15.352459) scale(-1, 1) rotate(-180.000000) translate(-55.000000, -15.352459) translate(0.000000, 0.852459)">
                    <g transform="translate(0.228953, 0.718824)" fill="#FFFFFF" id="Shape">
                        <polygon points="11.6290819 1.86229891 21.9329135 26.1490046 23.0937285 26.1490046 11.9807453 0.102193653 11.2422986 0.102193653 0.164667799 26.1490046 1.36037 26.1490046"></polygon>
                    </g>
                    <polygon id="Shape" fill="#FFFFFF" points="56.6340938 0.821273821 55.5791035 0.821273821 55.5791035 26.867852 56.6340938 26.867852"></polygon>
                    <g transform="translate(61.401552, 0.000000)" fill="#FFFFFF" id="Shape">
                        <g transform="translate(0.228046, 0.795551)">
                            <path d="M6.04712257,26.0721848 C10.0917172,26.0721848 11.7088574,25.7202103 12.9750318,24.9811104 C15.0850124,23.9251869 16.7377375,21.0740073 16.7377375,18.0470732 C16.8784494,14.8087682 14.7335815,9.91627614 9.07138159,9.88112525 L8.05151111,9.84597436 L15.0498926,0.0256066101 L13.7134785,0.0256066101 L6.08224239,10.7962124 L7.69984768,10.7962124 C10.1614917,10.7962124 11.7442098,11.0073505 13.4674071,12.4506322 C15.1205974,14.1753538 15.6829798,15.9703771 15.6829798,18.0119223 C15.6829798,20.2646056 14.5928697,22.763578 12.5880159,24.0660233 C11.0055305,25.0867959 9.10650142,25.1219468 6.04712257,25.1219468 L1.15872172,25.1219468 L1.15872172,0.0256066101 L0.10373141,0.0256066101 L0.10373141,26.0721848 L6.04712257,26.0721848 Z"></path>
                        </g>
                        <g transform="translate(19.730156, 0.150031)">
                            <path d="M13.7223166,1.16393682 C20.6148734,1.16393682 26.1710161,6.47893792 26.1710161,13.6944151 C26.1710161,20.910125 20.6148734,26.2246605 13.7223166,26.2246605 C6.82952719,26.2246605 1.27315188,20.910125 1.27315188,13.6944151 C1.27315188,6.47893792 6.82952719,1.16393682 13.7223166,1.16393682 M13.7223166,27.1753641 C21.177721,27.1753641 27.2264716,21.5086213 27.2264716,13.6944151 C27.2264716,5.8806744 21.177721,0.213466013 13.7223166,0.213466013 C6.26667963,0.213466013 0.217928994,5.8806744 0.217928994,13.6944151 C0.217928994,21.5086213 6.26667963,27.1753641 13.7223166,27.1753641"></path>
                        </g>
                    </g>
                    <g transform="translate(24.188490, 0.000000)" id="Shape">
                        <g transform="translate(4.989946, 14.356206)" fill="#FFFFFF">
                            <path d="M1.62807146,9.7770693 L21.2291215,1.39928485 C20.4348552,7.498081 15.1724631,12.1808316 8.95671885,12.1808316 C6.31924308,12.1808316 3.7427037,11.3316233 1.62807146,9.7770693 L1.62807146,9.7770693 Z M22.1715423,0.0984690551 L0.0367478987,9.55918033 L0.559824001,9.99100089 C2.91587598,11.9357065 5.89780515,13.0067612 8.95671885,13.0067612 C15.8332275,13.0067612 21.6159048,7.63402883 22.1217698,0.775181923 L22.1715423,0.0984690551 Z"></path>
                        </g>
                        <g transform="translate(0.087102, 4.882855)" fill="#3CB7BD">
                            <path d="M3.95388783,0 L3.76735736,0.191584001 C1.46782271,2.55391017 0.201183116,5.66930347 0.201183116,8.96440861 C0.201183116,12.3009499 1.49526735,15.4445105 3.84527221,17.8161481 L4.03250042,18.0054043 L25.2820891,8.96208074 L3.95388783,0 Z"></path>
                        </g>
                        <g transform="translate(4.639934, 0.192771)" fill="#DA7070">
                            <path d="M1.62807146,3.49181046 C3.77875386,1.91164984 6.39855342,1.0482415 9.0802197,1.0482415 C15.3862056,1.0482415 20.7367462,5.79756931 21.5586897,11.9831952 L1.62807146,3.49181046 Z M9.0802197,0.208577478 C5.96967288,0.208577478 2.93704091,1.29755677 0.540984888,3.27461985 L0.00790777566,3.71435518 L22.5208799,13.3061257 L22.4683165,12.6170751 C21.9382629,5.65906083 16.0574362,0.208577478 9.0802197,0.208577478 L9.0802197,0.208577478 Z"></path>
                        </g>
                    </g>
                </g>
            </g>
        </g>
    </g>
</svg>