<svg xmlns="http://www.w3.org/2000/svg" viewBox="0 0 62.866 33.883">
  <g id="Group_3" data-name="Group 3" transform="translate(661 909.208) rotate(180)">
    <path id="Path_6" data-name="Path 6" d="M659.746,889.477c-4.281-4.325-8.573-8.638-12.928-12.888a4.988,4.988,0,0,0-2.455-1.211,3.572,3.572,0,0,0-3.757,2.1,3.7,3.7,0,0,0,.8,4.321c1.949,2,3.946,3.95,5.92,5.924.206.206.39.435.692.775H625.24c-.344,0-.691-.013-1.034.012a3.773,3.773,0,1,0,.682,7.516c13.989,0,7.978,0,21.967,0h1.189c-2.221,2.234-4.294,4.285-6.319,6.384a5.758,5.758,0,0,0-1.26,1.831,3.617,3.617,0,0,0,1.52,4.341,3.719,3.719,0,0,0,4.814-.592q6.517-6.454,12.971-12.977A3.706,3.706,0,0,0,659.746,889.477Z"/>
    <path id="Path_7" data-name="Path 7" d="M613.216,888.5a3.75,3.75,0,0,0-3.788,3.732,3.765,3.765,0,1,0,7.53.044A3.76,3.76,0,0,0,613.216,888.5Z"/>
    <path id="Path_8" data-name="Path 8" d="M601.923,888.5a3.748,3.748,0,0,0-3.789,3.731,3.765,3.765,0,1,0,7.529.047A3.761,3.761,0,0,0,601.923,888.5Z"/>
  </g>
</svg>
