<svg xmlns="http://www.w3.org/2000/svg" viewBox="0 0 65.052 35.995"><defs><style>.a{fill:none;stroke:#999;stroke-miterlimit:10;stroke-width:2px;}</style></defs><g transform="translate(-503.448 -874.301)"><path class="a" d="M541.428,888.508c-.344-.025-.69-.012-1.035-.012H517.614c.3-.34.486-.569.692-.775,1.973-1.974,3.971-3.925,5.919-5.924a3.7,3.7,0,0,0,.8-4.321,3.572,3.572,0,0,0-3.757-2.1,4.992,4.992,0,0,0-2.455,1.211c-4.354,4.25-8.647,8.563-12.927,12.888a3.706,3.706,0,0,0-.025,5.536q6.445,6.53,12.972,12.977a3.718,3.718,0,0,0,4.813.592,3.619,3.619,0,0,0,1.521-4.341,5.745,5.745,0,0,0-1.261-1.831c-2.024-2.1-4.1-4.15-6.318-6.384h1.189c13.988,0,7.977,0,21.966,0a3.774,3.774,0,1,0,.683-7.516Z"/><path class="a" d="M552.418,888.5a3.759,3.759,0,0,0-3.742,3.776,3.765,3.765,0,1,0,7.529-.044A3.749,3.749,0,0,0,552.418,888.5Z"/><path class="a" d="M563.711,888.5a3.76,3.76,0,0,0-3.74,3.778,3.765,3.765,0,1,0,7.529-.047A3.748,3.748,0,0,0,563.711,888.5Z"/></g></svg>