<?xml version="1.0" encoding="UTF-8"?>
<svg width="27px" height="22px" viewBox="0 0 27 22" version="1.1" xmlns="http://www.w3.org/2000/svg" xmlns:xlink="http://www.w3.org/1999/xlink">
    <!-- Generator: Sketch 49.3 (51167) - http://www.bohemiancoding.com/sketch -->
    <title>twitter</title>
    <desc>Created with Sketch.</desc>
    <defs>
        <linearGradient x1="0.00533333333%" y1="49.9961886%" x2="100.009855%" y2="49.9961886%" id="linearGradient-1">
            <stop stop-color="#FDBF17" offset="0%"></stop>
            <stop stop-color="#9618CC" offset="99.82%"></stop>
        </linearGradient>
    </defs>
    <g id="Zinios-Home-Page" stroke="none" stroke-width="1" fill="none" fill-rule="evenodd">
        <g id="Zinios-Home-Page-Template-UI-Design" transform="translate(-866.000000, -6662.000000)" fill="url(#linearGradient-1)" fill-rule="nonzero">
            <g id="Group-45" transform="translate(0.000000, 5950.000000)">
                <g id="Zinios-Social-Footer" transform="translate(844.000000, 710.000000)">
                    <path d="M30.9937391,24 C28.1262609,24 25.4246957,23.2289288 22.9422609,21.6963057 C22.8733913,21.6550549 22.7857391,21.5915923 22.6918261,21.4773595 L22,20.6110943 L23.0956522,20.7031151 C25.4246957,20.8998494 27.5126957,20.4207063 29.4410435,19.2339547 C27.5158261,18.7325997 26.1478261,17.4665198 25.3652174,15.4579268 L25.0991304,14.7725301 L25.8253913,14.8106077 C25.9318261,14.816954 26.0351304,14.8233003 26.1353043,14.8296465 C24.5106087,13.7856859 23.6309565,12.1578688 23.5182609,9.96840726 L23.4775652,9.20368228 L24.1725217,9.50512989 C24.3728696,9.5939776 24.5826087,9.67965218 24.7954783,9.75580737 C24.2476522,9.06089131 23.8751304,8.27078127 23.6841739,7.39816978 C23.368,5.94487501 23.5808696,4.54235036 24.3102609,3.22867343 L24.642087,2.63529762 L25.0772174,3.15569138 C27.7318261,6.31930467 30.9718261,8.06770078 34.9631304,8.48655429 C34.6970435,6.10987791 35.8052174,3.90455069 37.8681739,2.7209722 C39.5053913,1.78172493 42.0848696,1.5754713 44.154087,3.2350197 C44.3043478,3.35559874 44.464,3.48887031 44.6173913,3.64118068 C45.5721739,3.41906139 46.458087,3.0795362 47.2594783,2.62895135 C47.3596522,2.57183497 47.4786087,2.50837231 47.6351304,2.46712159 L48.4521739,2.2545217 L48.1986087,3.0700168 C47.9826087,3.76493286 47.6445217,4.39638626 47.1906087,4.95485761 C47.5349565,4.85014424 47.8824348,4.7200458 48.2361739,4.56773543 L48.5742609,4.42177132 L49,4.99928147 L48.8309565,5.32611414 L48.7307826,5.46890511 C48.6493913,5.58313789 48.5711304,5.69737066 48.4866087,5.81160344 C47.8636522,6.63344481 47.149913,7.35374593 46.3641739,7.953468 C46.408,12.3958538 44.9116522,16.2575562 41.9158261,19.4433815 C39.4646957,22.0485234 36.3311304,23.5557614 32.6027826,23.9238448 C32.0643478,23.9746149 31.525913,24 30.9937391,24 Z M24.8831304,21.6740937 C27.256,22.803729 29.8166957,23.2384482 32.5151304,22.9750781 C36.0118261,22.6323798 38.9481739,21.2235089 41.2396522,18.786543 C44.0726957,15.7752401 45.4813913,12.1229644 45.4250435,7.92808294 C45.421913,7.62663534 45.5346087,7.39499665 45.7662609,7.21730122 C46.2577391,6.84921783 46.717913,6.42719118 47.1436522,5.95756754 C46.6490435,6.09083912 46.1606957,6.18285996 45.6723478,6.23680322 L43.8535652,6.42719118 L45.3593043,5.37371113 C45.9572174,4.95485761 46.429913,4.47571458 46.7805217,3.92358949 C46.1481739,4.19965203 45.4782609,4.41859819 44.7801739,4.57725482 C44.4733913,4.64706374 44.2104348,4.57090856 44.0006957,4.35513554 C43.8692174,4.21869083 43.7189565,4.09493866 43.5749565,3.97753275 C41.850087,2.5940469 39.6994783,2.76222293 38.3346087,3.5459867 C36.6003478,4.54235036 35.6674783,6.40180612 35.9053913,8.40722598 C35.917913,8.51828562 35.9335652,8.62617213 35.9523478,8.74992431 L36.0587826,9.52734182 L35.4796522,9.48609109 C31.2566957,9.18147035 27.6786087,7.43942051 24.8393043,4.31071168 C24.4636522,5.23726642 24.3885217,6.1860331 24.6076522,7.19508929 C24.8643478,8.37232152 25.4904348,9.33378072 26.5234783,10.130237 L27.6316522,10.9869829 L26.2354783,10.9869829 C25.621913,10.9869829 25.0490435,10.8505381 24.5356522,10.6728427 C24.858087,12.7258596 26.0601739,14.0585753 28.192,14.7407988 L29.9951304,15.318309 L28.1356522,15.6641804 C27.7631304,15.7339894 27.378087,15.8037983 26.9773913,15.8196639 C26.8365217,15.8260102 26.6956522,15.8228371 26.557913,15.8164908 C27.4062609,17.4379616 28.7742609,18.3200925 30.7182609,18.5009611 L31.936,18.6151938 L30.9561739,19.3545337 C29.0841739,20.7602315 27.0838261,21.5313028 24.8831304,21.6740937 Z" id="twitter"></path>
                </g>
            </g>
        </g>
    </g>
</svg>