<svg xmlns="http://www.w3.org/2000/svg" width="132" height="87" viewBox="0 0 132 87">
  <g id="Group_923" data-name="Group 923" transform="translate(-398 -1915)">
    <g id="Group_920" data-name="Group 920" transform="translate(-523 260)">
      <g id="Group_918" data-name="Group 918" transform="translate(686 -13)">
        <circle id="Ellipse_132" data-name="Ellipse 132" cx="26" cy="26" r="26" transform="translate(235 1668)" fill="#95caff"/>
        <circle id="Ellipse_133" data-name="Ellipse 133" cx="15.5" cy="15.5" r="15.5" transform="translate(336 1724)" fill="#ffb4b4"/>
      </g>
    </g>
    <g id="prototyping" transform="translate(413 1988) rotate(-90)">
      <g id="Group_910" data-name="Group 910" transform="translate(0 0)">
        <g id="Group_909" data-name="Group 909">
          <path id="Path_3632" data-name="Path 3632" d="M54.8,45.83a5.209,5.209,0,0,0,5.2-5.2V5.2A5.209,5.209,0,0,0,54.8,0H37.085a5.209,5.209,0,0,0-5.2,5.2V15.946A1.659,1.659,0,0,0,30.6,18.775l2.479,2.479H28.118V5.2a5.209,5.209,0,0,0-5.2-5.2H5.2A5.209,5.209,0,0,0,0,5.2V40.627a5.209,5.209,0,0,0,5.2,5.2h7.2V56.678H5.2a5.209,5.209,0,0,0-5.2,5.2V97.305a5.209,5.209,0,0,0,5.2,5.2H22.915a5.209,5.209,0,0,0,5.2-5.2V61.881a5.209,5.209,0,0,0-5.2-5.2h-7.2V45.83h7.2a5.209,5.209,0,0,0,5.2-5.2V24.575h4.958L30.6,27.054a1.661,1.661,0,0,0,1.174,2.835c.037,0,.074,0,.111-.005V40.627a5.209,5.209,0,0,0,5.2,5.2h7.2V56.678h-7.2a5.209,5.209,0,0,0-5.2,5.2V97.305a5.209,5.209,0,0,0,5.2,5.2H54.8a5.209,5.209,0,0,0,5.2-5.2V61.881a5.209,5.209,0,0,0-5.2-5.2H47.6V45.83h7.2ZM22.915,60A1.884,1.884,0,0,1,24.8,61.881V97.305a1.884,1.884,0,0,1-1.882,1.882H5.2a1.884,1.884,0,0,1-1.882-1.882V61.881A1.884,1.884,0,0,1,5.2,60h7.2v6.729L9.92,64.249A1.66,1.66,0,0,0,7.571,66.6l5.314,5.314.007.006c.037.036.075.071.115.1.019.015.038.029.057.043s.048.037.073.054.046.028.069.042.046.029.07.041.048.023.073.035.049.024.075.034.048.018.072.026.054.02.081.028l.073.019c.028.007.056.015.084.021s.057.009.086.013.049.008.074.011q.082.008.164.008t.164-.008c.025,0,.05-.007.074-.011s.058-.008.086-.013.056-.014.084-.021.049-.011.073-.019.054-.019.081-.028.048-.017.072-.026.05-.023.075-.035.049-.022.072-.035.047-.027.07-.041.047-.027.069-.042.049-.036.073-.054.039-.028.057-.043c.04-.033.078-.067.115-.1l.007-.006L20.546,66.6A1.66,1.66,0,0,0,18.2,64.249l-2.479,2.479V60ZM14.059,24.8a1.882,1.882,0,1,1,1.882-1.882A1.884,1.884,0,0,1,14.059,24.8ZM24.8,40.627a1.884,1.884,0,0,1-1.882,1.882h-7.2V27.845a5.226,5.226,0,0,0,3.269-3.269H24.8V40.627Zm0-19.372H18.989a5.2,5.2,0,1,0-6.59,6.59V42.509H5.2a1.884,1.884,0,0,1-1.882-1.882V5.2A1.884,1.884,0,0,1,5.2,3.321H22.915A1.884,1.884,0,0,1,24.8,5.2V21.254ZM37.085,42.509A1.884,1.884,0,0,1,35.2,40.627V27.145l3.056-3.056a1.66,1.66,0,0,0,0-2.348L35.2,18.685V5.2a1.884,1.884,0,0,1,1.882-1.882H54.8A1.884,1.884,0,0,1,56.679,5.2V40.627A1.884,1.884,0,0,1,54.8,42.509H47.6V27.845a5.2,5.2,0,1,0-3.321,0V42.509h-7.2ZM54.8,60a1.884,1.884,0,0,1,1.882,1.882V97.305A1.884,1.884,0,0,1,54.8,99.187H37.085A1.884,1.884,0,0,1,35.2,97.305V61.881A1.884,1.884,0,0,1,37.085,60h7.2v6.729L41.8,64.249A1.66,1.66,0,0,0,39.453,66.6l5.314,5.314.007.006c.037.036.075.071.115.1.019.015.038.029.057.043s.048.037.073.054.046.028.069.042.046.029.07.041.048.023.073.035.049.024.075.034.048.018.072.026.054.02.081.028l.073.019c.028.007.056.015.084.021s.057.009.086.013.049.008.074.011q.082.008.164.008t.164-.008c.025,0,.05-.007.074-.011s.058-.008.086-.013.056-.014.084-.021.049-.011.073-.019.054-.019.081-.028.048-.017.072-.026.05-.023.075-.035.049-.022.072-.035.047-.027.07-.041.047-.027.069-.042.049-.036.073-.054.039-.028.057-.043c.04-.033.078-.067.115-.1l.007-.006L52.429,66.6a1.66,1.66,0,0,0-2.349-2.348L47.6,66.728V60ZM45.941,24.8a1.882,1.882,0,1,1,1.882-1.882A1.884,1.884,0,0,1,45.941,24.8Z" fill="#13406d"/>
        </g>
      </g>
      <g id="Group_912" data-name="Group 912" transform="translate(40.433 74.257)">
        <g id="Group_911" data-name="Group 911" transform="translate(0 0)">
          <path id="Path_3633" data-name="Path 3633" d="M5.285,0A5.285,5.285,0,1,0,10.57,5.285,5.291,5.291,0,0,0,5.285,0Zm0,7.2A1.912,1.912,0,1,1,7.2,5.285,1.914,1.914,0,0,1,5.285,7.2Z" fill="#ce1212"/>
        </g>
      </g>
      <g id="Group_914" data-name="Group 914" transform="translate(8.996 74.257)">
        <g id="Group_913" data-name="Group 913" transform="translate(0 0)">
          <path id="Path_3634" data-name="Path 3634" d="M5.285,0A5.285,5.285,0,1,0,10.57,5.285,5.291,5.291,0,0,0,5.285,0Zm0,7.2A1.912,1.912,0,1,1,7.2,5.285,1.914,1.914,0,0,1,5.285,7.2Z" fill="#ce1212"/>
        </g>
      </g>
    </g>
  </g>
</svg>
