<svg xmlns="http://www.w3.org/2000/svg" width="96" height="86" viewBox="0 0 96 86">
  <g id="Group_925" data-name="Group 925" transform="translate(-588 -1668)">
    <g id="Group_917" data-name="Group 917" transform="translate(353)">
      <circle id="Ellipse_132" data-name="Ellipse 132" cx="26" cy="26" r="26" transform="translate(235 1668)" fill="#95caff"/>
      <circle id="Ellipse_133" data-name="Ellipse 133" cx="15.5" cy="15.5" r="15.5" transform="translate(300 1723)" fill="#ffb4b4"/>
    </g>
    <g id="technical_write" data-name="technical write" transform="translate(606 1679.5)">
      <path id="Path_3622" data-name="Path 3622" d="M56.484,50.926V20.1a1.758,1.758,0,1,0-3.516,0V29H44.179a1.782,1.782,0,0,0,0,3.563h8.789V50.926a5.335,5.335,0,0,0-3.214,3.257H31.875V41.475a1.758,1.758,0,1,0-3.516,0V54.183H10.244a5.335,5.335,0,0,0-3.213-3.257V32.568H19.57a1.782,1.782,0,0,0,0-3.563H7.031V10.883a5.336,5.336,0,0,0,3.213-3.256H28.359v8.907a1.758,1.758,0,1,0,3.516,0V7.626h8.789a1.782,1.782,0,0,0,0-3.563H10.244A5.287,5.287,0,0,0,5.274.5,5.354,5.354,0,0,0,3.516,10.883V50.926A5.354,5.354,0,0,0,5.274,61.309a5.287,5.287,0,0,0,4.971-3.563h39.51A5.264,5.264,0,0,0,60,55.965a5.349,5.349,0,0,0-3.515-5.038ZM5.274,4.063A1.782,1.782,0,1,1,3.516,5.845,1.772,1.772,0,0,1,5.274,4.063Zm0,53.683a1.782,1.782,0,1,1,1.758-1.782A1.772,1.772,0,0,1,5.274,57.746Zm49.452,0a1.782,1.782,0,1,1,1.758-1.782A1.772,1.772,0,0,1,54.726,57.746Zm0,0" transform="translate(0)" fill="#13406d"/>
      <path id="Path_3623" data-name="Path 3623" d="M206.317,2.085l-21.9,21.9h0l-3.383,3.384a1.773,1.773,0,0,0-.431.7l-2.387,7.159-2.222,2.222a1.781,1.781,0,0,0,2.519,2.519l2.222-2.222,7.16-2.387a1.779,1.779,0,0,0,.7-.431L213.875,9.644a5.345,5.345,0,1,0-7.558-7.559ZM186.369,32.111l-3.779,1.26,1.26-3.779,1.827-1.827,2.52,2.519Zm4.346-4.346-2.519-2.52,16.86-16.86,2.52,2.519ZM211.356,7.124,210.1,8.385l-2.519-2.52,1.26-1.26a1.782,1.782,0,0,1,2.52,2.519Zm0,0" transform="translate(-155.442 -0.02)" fill="#ce1212"/>
    </g>
  </g>
</svg>
