<svg xmlns="http://www.w3.org/2000/svg" width="88" height="86" viewBox="0 0 88 86">
  <g id="Group_922" data-name="Group 922" transform="translate(-756 -1915)">
    <g id="Group_921" data-name="Group 921" transform="translate(-170 260)">
      <g id="Group_918" data-name="Group 918" transform="translate(686 -13)">
        <circle id="Ellipse_132" data-name="Ellipse 132" cx="26" cy="26" r="26" transform="translate(240 1668)" fill="#95caff"/>
        <circle id="Ellipse_133" data-name="Ellipse 133" cx="15.5" cy="15.5" r="15.5" transform="translate(297 1723)" fill="#ffb4b4"/>
      </g>
    </g>
    <g id="Group_915" data-name="Group 915" transform="translate(-2042.866 966.927)">
      <path id="Path_3635" data-name="Path 3635" d="M3011.846,1358.833c-.083-.08-.167-.16-.25-.241a.922.922,0,0,1-.248-1.137.9.9,0,0,1,.977-.539.944.944,0,0,1,.3,1.79c-.068.034-.156.026-.17.127Z" transform="translate(-168.3 -336.663)" fill="#ce1212"/>
      <path id="Path_3636" data-name="Path 3636" d="M2861.148,984.08a24.147,24.147,0,0,1,7.029,1.4c.45-1.075.883-2.111,1.317-3.145a4.218,4.218,0,0,1,.25-.548.881.881,0,0,1,1.187-.422.855.855,0,0,1,.547,1.128c-.221.668-.5,1.315-.765,1.969-.232.576-.475,1.148-.73,1.764a24.089,24.089,0,0,1,5.957,4.011c.817-.825,1.6-1.613,2.377-2.4a4.692,4.692,0,0,1,.439-.416.961.961,0,0,1,1.315.04.922.922,0,0,1,.026,1.31c-.584.642-1.212,1.245-1.827,1.858-.3.3-.614.584-.989.938a24.52,24.52,0,0,1,4.015,5.964c1.26-.507,2.465-1.013,3.687-1.472a.884.884,0,0,1,1.183.539.9.9,0,0,1-.432,1.187,3.41,3.41,0,0,1-.49.231c-1.039.434-2.079.865-3.18,1.322a25.155,25.155,0,0,1,1.4,7.041h3.152c.222,0,.445-.009.667,0a.968.968,0,1,1,0,1.931c-.909.022-1.819.007-2.729.007h-1.082c-.139,1.192-.208,2.375-.448,3.535a26.715,26.715,0,0,1-.971,3.487c1.078.453,2.132.894,3.185,1.338a3.706,3.706,0,0,1,.493.226.9.9,0,0,1,.443,1.184.879.879,0,0,1-1.178.55c-1.039-.38-2.057-.818-3.084-1.233-.185-.075-.368-.156-.608-.258a23.925,23.925,0,0,1-4.025,5.99c.774.75,1.526,1.478,2.277,2.207.16.155.325.305.471.472a.989.989,0,0,1,.05,1.411.966.966,0,0,1-1.407-.03c-.661-.624-1.3-1.272-1.932-1.927-.25-.259-.456-.562-.707-.875a25.619,25.619,0,0,1-2.93,2.316,24.2,24.2,0,0,1-3.106,1.747c.421,1.033.834,2.05,1.249,3.066.068.168.155.329.211.5a.974.974,0,0,1-.522,1.309.932.932,0,0,1-1.274-.585c-.425-.979-.82-1.972-1.229-2.958-.069-.166-.145-.329-.247-.563a24.154,24.154,0,0,1-7.029,1.374v3.344c0,1.053-.293,1.523-.956,1.535s-.985-.468-.985-1.506c0-1.109,0-2.217,0-3.36a24.074,24.074,0,0,1-7.03-1.4c-.385.926-.76,1.832-1.136,2.736-.108.26-.21.524-.328.78a.946.946,0,0,1-1.262.615.965.965,0,0,1-.53-1.351c.443-1.124.921-2.234,1.385-3.351.015-.037.024-.076.054-.173a23.911,23.911,0,0,1-5.937-4.012c-.776.783-1.526,1.542-2.278,2.3a6.5,6.5,0,0,1-.525.5.955.955,0,0,1-1.315,0,.939.939,0,0,1-.027-1.357c.573-.625,1.184-1.216,1.79-1.81.316-.31.655-.595,1.029-.931a24.227,24.227,0,0,1-4.035-6c-1.076.442-2.113.869-3.151,1.294a4.7,4.7,0,0,1-.507.192.956.956,0,0,1-.7-1.778c.9-.406,1.82-.764,2.731-1.144.276-.115.549-.237.873-.377a24.516,24.516,0,0,1-1.4-7.021c-1.178,0-2.306,0-3.435,0a3.84,3.84,0,0,1-.545-.016.99.99,0,0,1-.883-.989.962.962,0,0,1,1.006-.928c1.051-.022,2.1-.008,3.153-.009h.708a24.155,24.155,0,0,1,1.4-7.029c-1.087-.455-2.124-.887-3.16-1.322a4.334,4.334,0,0,1-.495-.222.934.934,0,0,1-.457-1.23.9.9,0,0,1,1.2-.514c1.2.456,2.393.957,3.661,1.47a24.07,24.07,0,0,1,4.016-5.958c-.717-.7-1.42-1.388-2.121-2.076-.2-.2-.411-.39-.6-.6a.974.974,0,1,1,1.366-1.38c.558.528,1.1,1.077,1.63,1.628.336.347.649.716,1.013,1.121a23.862,23.862,0,0,1,6.015-4.032c-.442-1.073-.87-2.11-1.3-3.147a4.641,4.641,0,0,1-.191-.508.953.953,0,0,1,.565-1.236.932.932,0,0,1,1.209.52c.369.805.689,1.633,1.031,2.451.154.369.311.736.49,1.161a24.025,24.025,0,0,1,7.025-1.395c0-1.27-.007-2.5,0-3.729.005-.689.359-1.109.921-1.139a.99.99,0,0,1,1.014,1.106C2861.157,981.552,2861.148,982.783,2861.148,984.08Zm-.974,1.927a21.344,21.344,0,1,0,21.348,21.357A21.407,21.407,0,0,0,2860.174,986.007Z" transform="translate(-16.267 -16.239)" fill="#13406d"/>
      <path id="Path_3637" data-name="Path 3637" d="M3011.253,961.079a.961.961,0,0,1,.966-1.006.974.974,0,0,1,.959.959,1,1,0,0,1-.967.959A.986.986,0,0,1,3011.253,961.079Z" transform="translate(-168.306 0)" fill="#ce1212"/>
      <path id="Path_3638" data-name="Path 3638" d="M2828.927,1084.456a.959.959,0,0,1,.036-1.917.994.994,0,0,1,.95.975A1.008,1.008,0,0,1,2828.927,1084.456Z" transform="translate(-12.83 -103.896)" fill="#ce1212"/>
      <path id="Path_3639" data-name="Path 3639" d="M2812.866,1159.346a.965.965,0,0,1,.986-.875.979.979,0,0,1,.937.979,1,1,0,0,1-.985.938A.983.983,0,0,1,2812.866,1159.346Z" transform="translate(0 -168.314)" fill="#ce1212"/>
      <path id="Path_3640" data-name="Path 3640" d="M2936.282,975.217a.96.96,0,0,1,.959.952.991.991,0,0,1-.958.964,1.013,1.013,0,0,1-.966-.967A.968.968,0,0,1,2936.282,975.217Z" transform="translate(-103.883 -12.848)" fill="#ce1212"/>
      <path id="Path_3641" data-name="Path 3641" d="M2829.918,1235.347a1.015,1.015,0,0,1-.949.983.983.983,0,0,1-.975-.944.954.954,0,0,1,.937-.972A.986.986,0,0,1,2829.918,1235.347Z" transform="translate(-12.835 -232.742)" fill="#ce1212"/>
      <path id="Path_3642" data-name="Path 3642" d="M2937.242,1342.693a.979.979,0,0,1-.956.962.958.958,0,1,1,.956-.962Z" transform="translate(-103.884 -323.793)" fill="#ce1212"/>
      <path id="Path_3643" data-name="Path 3643" d="M2871.939,1020.159a.975.975,0,0,1-.944-.976.96.96,0,0,1,1.919.024A.989.989,0,0,1,2871.939,1020.159Z" transform="translate(-49.316 -49.358)" fill="#ce1212"/>
      <path id="Path_3644" data-name="Path 3644" d="M2871.959,1300.7a.952.952,0,0,1,.047-1.9.955.955,0,0,1,.945.972A.977.977,0,0,1,2871.959,1300.7Z" transform="translate(-49.346 -287.365)" fill="#ce1212"/>
      <path id="Path_3645" data-name="Path 3645" d="M2941.73,1241.54h12.063a3.524,3.524,0,0,1,.6.019.916.916,0,0,1,.84.952.906.906,0,0,1-.789.935,3.12,3.12,0,0,1-.663.034q-12.184,0-24.368,0a2.475,2.475,0,0,1-.483-.018.96.96,0,0,1,.007-1.905,3.52,3.52,0,0,1,.6-.021h12.184Z" transform="translate(-97.758 -238.784)" fill="#ce1212"/>
      <path id="Path_3646" data-name="Path 3646" d="M2941.665,1077.1h-12.124a3.125,3.125,0,0,1-.6-.025.957.957,0,0,1,.032-1.9,3.428,3.428,0,0,1,.545-.016h24.368a3.637,3.637,0,0,1,.484.01.959.959,0,0,1,.085,1.9,2.69,2.69,0,0,1-.6.032q-6.092,0-12.184,0Z" transform="translate(-97.769 -97.63)" fill="#ce1212"/>
      <path id="Path_3647" data-name="Path 3647" d="M2961.974,1050.6a.963.963,0,0,1-1.926.052.963.963,0,0,1,1.926-.052Z" transform="translate(-124.864 -76.013)" fill="#ce1212"/>
      <path id="Path_3648" data-name="Path 3648" d="M2987.554,1050.574a.965.965,0,0,1-1.93.056.965.965,0,0,1,1.93-.056Z" transform="translate(-146.562 -75.99)" fill="#ce1212"/>
      <path id="Path_3649" data-name="Path 3649" d="M3012.2,1049.672a.98.98,0,0,1,.975.943.963.963,0,0,1-1.926.025A.983.983,0,0,1,3012.2,1049.672Z" transform="translate(-168.302 -76.013)" fill="#ce1212"/>
      <path id="Path_3650" data-name="Path 3650" d="M3038.777,1050.6a.965.965,0,0,1-1.929.059.965.965,0,0,1,1.929-.059Z" transform="translate(-190.018 -76.012)" fill="#ce1212"/>
      <path id="Path_3651" data-name="Path 3651" d="M3063.4,1049.653a.983.983,0,0,1,.959.963.965.965,0,0,1-1.929-.012A.982.982,0,0,1,3063.4,1049.653Z" transform="translate(-211.72 -75.997)" fill="#ce1212"/>
      <path id="Path_3652" data-name="Path 3652" d="M2961.976,1268.237a.963.963,0,1,1-.957-.963A.989.989,0,0,1,2961.976,1268.237Z" transform="translate(-124.865 -260.62)" fill="#ce1212"/>
      <path id="Path_3653" data-name="Path 3653" d="M2987.554,1268.212a.965.965,0,0,1-1.93-.015.965.965,0,0,1,1.93.015Z" transform="translate(-146.563 -260.596)" fill="#ce1212"/>
      <path id="Path_3654" data-name="Path 3654" d="M3012.225,1267.272a.975.975,0,0,1,.948.969.963.963,0,0,1-1.926-.028A.982.982,0,0,1,3012.225,1267.272Z" transform="translate(-168.301 -260.618)" fill="#ce1212"/>
      <path id="Path_3655" data-name="Path 3655" d="M3037.8,1269.195a1,1,0,0,1-.956-.973.965.965,0,0,1,1.929.018A1,1,0,0,1,3037.8,1269.195Z" transform="translate(-190.02 -260.619)" fill="#ce1212"/>
      <path id="Path_3656" data-name="Path 3656" d="M3064.371,1268.239a.963.963,0,1,1-1.927-.031.963.963,0,0,1,1.927.031Z" transform="translate(-211.735 -260.615)" fill="#ce1212"/>
    </g>
  </g>
</svg>
