<svg xmlns="http://www.w3.org/2000/svg" xmlns:xlink="http://www.w3.org/1999/xlink" width="479.619" height="488.363" viewBox="0 0 479.619 488.363">
  <defs>
    <linearGradient id="linear-gradient" x1="0.889" y1="0.839" x2="0.297" y2="0.158" gradientUnits="objectBoundingBox">
      <stop offset="0" stop-color="#fdbf17"/>
      <stop offset="0.998" stop-color="#9618cc"/>
    </linearGradient>
    <linearGradient id="linear-gradient-3" x1="0.889" y1="0.839" x2="0.297" y2="0.158" xlink:href="#linear-gradient"/>
  </defs>
  <g id="Group_948" data-name="Group 948" transform="translate(-91.381 -893.11)">
    <g id="Group" transform="translate(255.582 892.729) rotate(29)">
      <path id="Path" d="M304.229,63.1c-10.532,26.422-26.062,56.77-21.443,93.5s2.653,128.052-64.049,170.311C153.222,368.417,56.031,301.368,32.6,272.253c-40.8-50.7-53.911-120.18,24.083-190.388C144.17,3.112,223.57,2.219,242.853.313,284.033-3.767,316.281,32.867,304.229,63.1Z" transform="translate(18.115 17.331)" opacity="0.39" fill="url(#linear-gradient)"/>
      <path id="Path-2" data-name="Path" d="M304.229,63.1c-10.532,26.422-26.062,56.77-21.443,93.5s2.653,128.052-64.049,170.311C153.222,368.417,56.031,301.368,32.6,272.253c-40.8-50.7-53.911-120.18,24.083-190.388C144.17,3.112,223.57,2.219,242.853.313,284.033-3.767,316.281,32.867,304.229,63.1Z" transform="translate(32.446 30.662)" opacity="0.34" fill="url(#linear-gradient)"/>
      <path id="Path-3" data-name="Path" d="M304.229,63.1c-10.532,26.422-26.062,56.77-21.443,93.5s2.653,128.052-64.049,170.311C153.222,368.417,56.031,301.368,32.6,272.253c-40.8-50.7-53.911-120.18,24.083-190.388C144.17,3.112,223.57,2.219,242.853.313,284.033-3.767,316.281,32.867,304.229,63.1Z" transform="translate(0.785 0.001)" fill="url(#linear-gradient-3)"/>
    </g>
    <g id="Group_829" data-name="Group 829" transform="translate(-752.317 1052.484)">
      <path id="Path_3538" data-name="Path 3538" d="M12.134,0H38.1A12.134,12.134,0,0,1,50.229,12.134V33.376A12.134,12.134,0,0,1,38.1,45.51H12.134c-6.7,0-12-1.089-12-7.79L0,12.134A12.134,12.134,0,0,1,12.134,0Z" transform="translate(942.347 -8.765)" fill="#000c4d"/>
      <rect id="Rectangle_103" data-name="Rectangle 103" width="260.701" height="136.222" transform="translate(951.574 19.279)" fill="#fff"/>
      <rect id="Rectangle_104" data-name="Rectangle 104" width="60.247" height="116.199" rx="3.77" transform="translate(1112.96 39.243)" fill="#e2e2e2"/>
      <rect id="Rectangle_105" data-name="Rectangle 105" width="52.341" height="11.743" rx="4.821" transform="translate(1116.337 144.019)" fill="#fff"/>
      <rect id="Rectangle_106" data-name="Rectangle 106" width="73.144" height="17.112" rx="2.143" transform="translate(1012.388 41.172)" fill="#e2e2e2"/>
      <rect id="Rectangle_107" data-name="Rectangle 107" width="65.175" height="45.139" rx="3" transform="translate(1020.692 73.382)" fill="#e2e2e2"/>
      <rect id="Rectangle_108" data-name="Rectangle 108" width="64.588" height="34.223" rx="3.899" transform="translate(996.366 120.943)" fill="#e2e2e2"/>
      <path id="Path_3387" data-name="Path 3387" d="M1274.146,349.154c-1,.134-1.154.792-1.152,1.67q.045,20.778.061,41.557a3.38,3.38,0,0,0,.177.755l-31.612.012q-.135-1.75-.271-3.5c.969-5.507.4-10.7-3.1-15.306q-.04-3.215-.08-6.431c1.528,1.227,1.738,3.539,3.657,4.444l-.016-.008a11.227,11.227,0,0,0,8.422,6.442,47.844,47.844,0,0,0-5.63-8.143c.226-.65.255-1.539.71-1.911,2.615-2.145,1.285-3.965-.244-5.924-1.588-2.036-2.214-4.268-.906-6.756.507-.966.745-2.171-.338-2.8-1.8-1.044-1.675-2.637-1.633-4.283a11.645,11.645,0,0,0,3.584.389Q1259.963,349.241,1274.146,349.154Z" transform="translate(-162.478 -184.499)" fill="#000c4d"/>
      <path id="Path_3388" data-name="Path 3388" d="M934.2,410.537c-5.713-.251-11.437.118-17.152-.526-1.83-.206-2.524-.817-2.834-2.543-2.1-11.672-4.276-23.329-6.425-34.993-.172-.935-.322-1.874-.482-2.811l42.858.036Z" transform="translate(-4.296 -194.394)" fill="#fab455"/>
      <path id="Path_3389" data-name="Path 3389" d="M1447.337,53.8l-55.52-.047a.534.534,0,0,0-.139-.29,157.1,157.1,0,0,1-.085-17.669q.36-.6.719-1.2l.091-.216c.944.073,1.888.207,2.832.208q22.37.023,44.739.023c4.624.007,7.531,2.808,7.6,7.371.056,3.9-.037,7.8-.064,11.7Z" transform="translate(-235.724 -34.101)" fill="#60a2ce"/>
      <path id="Path_3390" data-name="Path 3390" d="M954.375,307.826l15.964-40.836c1.577-3.866,3.133-7.742,4.754-11.59a1.245,1.245,0,0,0-.219-1.382c1.686-.711,1.514-2.529,2.176-3.822a30.656,30.656,0,0,0,1.552-4.631c.99-.73,1.092-1.933,1.493-2.947q16.969-43.006,33.886-86.032a12.611,12.611,0,0,1,.582-1.136,7.29,7.29,0,0,1,.551,2.954q-.326,1.1-.654,2.2c-2.515,3.656-3.348,8-5.355,12.317h3.428l-.116,1.49c-1.333.168-3.3-.7-3.9.53-1.795,3.664-3.126,7.555-4.786,11.728,2.917-.3,5.247.386,7.521-.459,1.028-.656,1.48-2.359,3.2-1.761,1.545.321,2.24,2.177,4,2.158,3.3-.036,6.595-.022,9.892-.007.829,0,1.505-.083,1.86-1.017,1.38-3.626,2.807-7.233,4.379-11.263h-16.7l.485-1.441c4.68-.071,9.368.356,14.04-.225l2.365-2.242c.554.347,1.106.6,1.441-.246,1.229-3.086,2.447-6.177,3.789-9.566h-5.852q-.054-.75-.108-1.5a19.877,19.877,0,0,1,2.347.005c2.714.313,5.019.07,5.531-3.324.1-.689.6-1.291,1.841-.749-1.051,2.747-2.1,5.528-3.18,8.3-.817,2.1-1.667,4.2-2.492,6.3-.409,1.042-1.237,2.114.878,3.079-1.685.206-2.35.551-2.768,1.618q-14.1,36.024-28.3,72.013a2.783,2.783,0,0,0-.07.773c-.961,2.267-1.961,4.518-2.863,6.808-.3.773-1.056,1.707.2,2.4-1.472.053-1.673,1.252-2.079,2.284q-11.749,29.9-23.541,59.779c-.363.917-.23,2.647-2.428,2.2l3.374-8.889h-4.684c-6.425,0-12.85.036-19.274-.029a2.323,2.323,0,0,0-2.676,1.8c-.636,1.977-1.523,3.872-2.282,5.81-.319.813-.508,1.746-2.068,1.262Zm17.958-40.887c-.428.611-.936,1.211-.218,2.067,1.136,0,2.314.013,3.491-.005.588-.009,1.175-.073,1.763-.112,6.166.037,12.332.066,18.5.12.837.007,1.528-.081,1.882-.994,1.426-3.686,2.878-7.363,4.378-11.189H982.274c-1.558-.044-3.118-.058-4.675-.142a1.68,1.68,0,0,0-1.941,1.254C974.6,260.953,973.447,263.94,972.333,266.939Zm-.084,29.309q6.484.061,12.967.118c.7.006,1.382,0,1.706-.839,1.425-3.677,2.87-7.347,4.39-11.228H974.4c-2.507-.032-5.014-.068-7.52-.092-.685-.007-1.446-.1-1.773.72-1.472,3.707-2.927,7.421-4.462,11.321Zm-.419,1.74c-3.44-.04-6.881-.048-10.319-.138A1.916,1.916,0,0,0,959.4,299.3c-1.023,2.825-2.108,5.627-3.168,8.439-.368.744-1.037,1.434-.388,2.457q11.906,0,23.886.006c.727,0,1.409-.03,1.723-.824,1.485-3.752,2.963-7.507,4.494-11.389Zm8.6-51.343c-1.945,2.361-1.923,5.437-3.339,8.28,2.338.109,4.4.569,6.249.4a143.125,143.125,0,0,1,17.873-.135,2.066,2.066,0,0,0,2.227-1.433c.742-2.2,1.527-4.389,2.294-6.582a9.351,9.351,0,0,0,1.549-4.194c-7.56,0-14.976.156-22.38-.076C981.943,242.813,980.564,243.767,980.43,246.644ZM977,270.623c-1.639-.037-3.28-.056-4.919-.118-.75-.029-1.345.088-1.658.889-1.436,3.682-2.893,7.355-4.407,11.2h8.822c5.193.033,10.385.074,15.578.089.65,0,1.435.227,1.783-.652,1.474-3.724,2.947-7.449,4.511-11.4Zm46.79-68.831c-8.653,0-16.873,0-25.094,0a1.2,1.2,0,0,0-1.222.782c-1.474,3.757-2.932,7.52-4.493,11.532,8.388,0,16.374,0,24.36-.006.769,0,1.584.075,1.959-.887C1020.738,209.52,1022.2,205.838,1023.791,201.792Zm-36.215,26.017c8.625,0,16.765-.008,24.9.012a1.471,1.471,0,0,0,1.532-1.1c1.4-3.613,2.815-7.219,4.348-11.139-8.508,0-16.714,0-24.919-.006a1.509,1.509,0,0,0-1.525,1.139C990.544,220.249,989.155,223.778,987.576,227.809Zm25.366,1.509c-8.547,0-16.612.005-24.677-.008-.757,0-1.353.141-1.658.923-1.427,3.669-2.866,7.334-4.394,11.239,8.467,0,16.534-.008,24.6.012.86,0,1.477-.156,1.819-1.057C1009.981,236.879,1011.374,233.348,1012.941,229.319ZM998.4,200.276c8.449,0,16.51-.007,24.57.011.849,0,1.5-.129,1.842-1.033,1.39-3.621,2.816-7.227,4.351-11.147-8.541,0-16.755.008-24.969-.013-.873,0-1.218.494-1.484,1.173Z" transform="translate(-24.475 -91.683)" fill="#6e1ee2"/>
      <path id="Path_3391" data-name="Path 3391" d="M1000.472,54.472c-.023-4.133-.007-8.267-.083-12.4-.055-2.974,1.66-4.925,3.658-6.752l-.089-.011a1.1,1.1,0,0,0,1.33-.537l.031.093,47.663.017q.1,9.463.2,18.925c-1.034.063-2.068.182-3.1.183q-23.292.018-46.585.014C1002.47,54,1001.4,53.8,1000.472,54.472Z" transform="translate(-48.797 -34.289)" fill="#f4db8c"/>
      <path id="Path_3392" data-name="Path 3392" d="M1546.263,433.262a11.03,11.03,0,0,0-.02-6.94c.068-1.094.137-2.188.214-3.407,2.331-.66,4.721-.017,7.039-.384l52.321.08c1.619,3.462,2.17,7.225,3.069,10.89-1.074.488-2.206.9-2.61,2.189l-52.144.1c-2.5,0-5,0-7.589,0C1546.431,434.785,1546.347,434.024,1546.263,433.262Z" transform="translate(-309.758 -219.668)" fill="#6e1ee2"/>
      <path id="Path_3393" data-name="Path 3393" d="M1612.459,409.836l-52.321-.08V396.242c2.368-.669,4.642,0,6.839-.432,5.034.224,10.068.208,15.1.011l11.514,0,15.222-.009h6.614c.117,1.154.186,1.829.254,2.5q-.416,1.473-.83,2.947C1614.054,404.124,1612.364,406.73,1612.459,409.836Zm-31.9-8.162a1.8,1.8,0,0,0-1.436,1.481c-.128.985.5,1.408,1.412,1.464s1.523-.2,1.549-1.268C1582.1,402.374,1581.535,401.959,1580.555,401.674Zm-7.078,2.94a1.108,1.108,0,0,0,1.289-1.237c.016-1.008-.5-1.4-1.441-1.355-.872.046-1.571.4-1.511,1.373S1572.62,404.619,1573.476,404.614Zm37.755-1.267a1.309,1.309,0,0,0-1.33-1.307c-.877-.055-1.55.3-1.6,1.264-.04.829.51,1.243,1.291,1.289A1.379,1.379,0,0,0,1611.232,403.347Zm-8.768-1.325c-.774.05-1.385.352-1.442,1.178-.068.976.561,1.379,1.452,1.391.767.011,1.376-.3,1.426-1.148C1603.956,402.473,1603.342,402.085,1602.464,402.022Zm-7.5,0c-.638.132-1.342.446-1.248,1.432a1.255,1.255,0,0,0,1.449,1.146c.891-.024,1.5-.438,1.427-1.413C1596.525,402.353,1595.923,402.061,1594.961,402.025Zm-5.651,1.148a1.366,1.366,0,0,0-1.707-1.12,1.2,1.2,0,0,0-1.193,1.387c.118.957.848,1.242,1.7,1.149A1.258,1.258,0,0,0,1589.31,403.173Zm-21.885-.05c-.015-.9-.585-1.115-1.351-1.1a1.137,1.137,0,0,0-1.226,1.284c-.013.789.314,1.314,1.187,1.281A1.33,1.33,0,0,0,1567.425,403.123Z" transform="translate(-316.401 -206.893)" fill="#fb9b07"/>
      <path id="Path_3394" data-name="Path 3394" d="M1488.4,136.686l9.289.01h8.546c0,2.932,0,5.506,0,8.081,0,5.548.031,11.1-.011,16.644-.033,4.4-2.15,6.91-6.443,7.8l-2.143.011-.1.03-1.267-.216a8.325,8.325,0,0,0-6.371-2.167c-3.457.191-6.932.061-10.4.039-.928-.006-1.931.24-2.706-.556V136.686Zm14.614,10.189a10.807,10.807,0,0,0,.011-4.195h-23.232a11.22,11.22,0,0,0,.134,4.195Zm-.053,4.6h-23.191c-.011,1.488-.4,2.773.221,3.911h23.157A12.006,12.006,0,0,0,1502.957,151.472Z" transform="translate(-276.555 -83.012)" fill="#f44f7c"/>
      <path id="Path_3395" data-name="Path 3395" d="M950.4,344.567a1.245,1.245,0,0,1,.219,1.381c-1.62,3.849-3.177,7.724-4.754,11.59l-42.858-.036c-.778-.054-1.557-.173-2.333-.15-1.663.049-2.376-.746-2.357-2.368.027-2.259-.015-4.519.007-6.778.03-3.041.815-3.873,3.872-3.883,9.385-.029,18.77,0,28.155-.015,6.341-.01,12.682-.054,19.023-.083Z" transform="translate(0 -182.232)" fill="#fb9b07"/>
      <path id="Path_3396" data-name="Path 3396" d="M1057.541,389.3c-.454-6.713-.909-13.426-1.378-20.351-4.018.449-6.941,2.17-8.835,5.627a77.254,77.254,0,0,0-3.9,9.6l-1.835-.611a33.371,33.371,0,0,1,2.282-11.09c2.411-6.091,7.5-8.161,13.626-8.378l.673.014,1.942.022.664-.02,2.419-.159a8.037,8.037,0,0,0,3.868.022l26.285-.022c-2.6,1.46,1.715,3.167-.419,3.709-2.852.725-12.626.528-15.521.652-3.33.142-4.275,1.693-4.721,4.65-.826,5.474-2.026,10.891-3.069,16.333Z" transform="translate(-68.495 -191.661)" fill="#6e1ee2"/>
      <path id="Path_3397" data-name="Path 3397" d="M1352.021,92.475c4.433,0,8.866-.018,13.3.018,2.885.023,3.35.61,3.354,3.942,0,3.365-.464,4.008-3.288,4.013q-27.118.041-54.236.011c-2.7,0-3.167-.7-3.151-4.153.014-3.154.507-3.778,3.218-3.811,4.345-.053,8.691-.049,13.036-.068l.58.009.658-.074,25.244.063Z" transform="translate(-195.858 -61.821)" fill="#fab455"/>
      <path id="Path_3398" data-name="Path 3398" d="M1194.051,400.316a7,7,0,0,0,.272-3.076q.021-16.356.008-32.741c1.838-.9,3.707-.1,5.445-.532,1.3.784,2.917,1.158,3.55,2.79,1.894,1.381,2.432,3.229,2.51,5.559.118,3.5,1.024,6.861,3.941,9.263a24.738,24.738,0,0,0-1.109,15.2q-.206,1.79-.413,3.579Z" transform="translate(-141.383 -191.67)" fill="#000c4d"/>
      <path id="Path_3399" data-name="Path 3399" d="M1336.246,12.483a62.355,62.355,0,0,1-2.051-9.237c-.235-7.475,6.177-13.908,14.69-14.74l4.058-.02c7.434-.344,11.11,4.732,14.565,10.114a4.064,4.064,0,0,1,.352,3.28c-.179.739-.265,1.383.7,1.586-2.155,1.145-1.8,3.494-2.423,5.325-.4,1.181-.567,2.468-1.084,3.639l-.09.216-1.59-.957c-.082-2.837,1.322-5.473,1.122-8.326a6.478,6.478,0,0,0-5.275-7.048V3.328l-15.932-.081V-3.972c-4.507,1.629-5.636,3.236-5.457,7.344a26.86,26.86,0,0,0,1.059,9.086Z" transform="translate(-208.38 -12.153)" fill="#5f2ea7"/>
      <path id="Path_3400" data-name="Path 3400" d="M1072.02,412.513l12.077,0q2.058,13.39,4.117,26.78c.131.858.249,1.718.374,2.577a5.106,5.106,0,0,0-3.539,1.883c-2.18-5.824-3.349-11.94-5.155-17.871-.264-.866-.2-1.915-1.445-2.627l-2.294,18.716a5.24,5.24,0,0,0-4.091,1.609C1071.78,433.223,1071.858,422.868,1072.02,412.513Z" transform="translate(-82.974 -214.877)" fill="#fb9b07"/>
      <path id="Path_3401" data-name="Path 3401" d="M1244.779,433.569l31.612-.012c2.595,0,5.193-.095,7.783.012a7.235,7.235,0,0,1,6.665,5.269c.191.764.944,1.916-.64,2.276l-.071,0-1.485-.011h-.113l-42.168.014C1244.387,438.9,1245.018,436.144,1244.779,433.569Z" transform="translate(-165.635 -224.92)" fill="#000c4d"/>
      <path id="Path_3402" data-name="Path 3402" d="M1588.343,384.744c-5.035.2-10.068.212-15.1-.011v-11.54c.671-.722,1.42-.362,2.059-.514,7.9,0,15.8-.027,23.7.034,1.371.01,2.913-.449,4.073.8-2.028,2.521-4.978,4.143-6.749,6.915C1592.6,378.959,1589.467,380.629,1588.343,384.744Z" transform="translate(-322.665 -195.816)" fill="#6e1ee2"/>
      <path id="Path_3403" data-name="Path 3403" d="M1660.381,409.19c-.1-3.106,1.6-5.712,2.395-8.568q.413-1.474.83-2.948l1.472-3.215,10.127.022a32.3,32.3,0,0,1,.944,4.295c.677,7.985,4.788,14.452,9.064,20.858l-2.951.607c-4.965-5.988-10.219-11.783-12.691-20.119-1.842,2.689-3.281,4.8-4.732,6.9a2.021,2.021,0,0,0,.118,2.2q.806,5.188,1.61,10.377l-3.116.479C1662.551,416.415,1662,412.652,1660.381,409.19Z" transform="translate(-364.323 -206.247)" fill="#f44f7c"/>
      <path id="Path_3404" data-name="Path 3404" d="M1074.919,176.089l-.485,1.441q-1.714,5.064-3.427,10.128c-1.718-.6-2.17,1.1-3.2,1.759q.583-5.9,1.164-11.8l.116-1.49q.964-6.158,1.927-12.317.327-1.1.654-2.2l8.491-.079c2.723.037,5.447.046,8.168.126.784.023,1.752-.4,2.264.649q.053.75.108,1.5.311,4.906.622,9.813l-2.365,2.242-2.749-9c-9.113,1.338-9.113,1.338-11.284,8.965A1.053,1.053,0,0,0,1074.919,176.089Z" transform="translate(-81.031 -94.891)" fill="#fb9b07"/>
      <path id="Path_3405" data-name="Path 3405" d="M1180.853,433.557l14.2.04c-.218,2.514.608,5.132-.753,7.531h-27.83a6.8,6.8,0,0,1,6.563-7.565C1175.635,433.423,1178.247,433.549,1180.853,433.557Z" transform="translate(-128.186 -224.91)" fill="#000c4d"/>
      <path id="Path_3406" data-name="Path 3406" d="M1604.964,366.937c-1.161-1.246-2.7-.787-4.073-.8-7.9-.062-15.8-.032-23.7-.034.162-3.8,1.663-5.306,5.437-5.314,9.439-.02,18.878-.007,28.38-.007.075-.714.136-1.306.2-1.9,1.448,1.769,3.8,2.3,5.353,3.926-2.467.112-1.691,1.883-1.676,3.265l-5.64-.019,3.439-3.108c-.853-1.743-1.56-1.566-2.53-.636C1608.477,363.917,1606.7,365.4,1604.964,366.937Z" transform="translate(-324.552 -189.241)" fill="#530bc5"/>
      <path id="Path_3407" data-name="Path 3407" d="M1680.943,338.545c-1.024-2.772,1.531-5.741,4.9-5.721,3.885.023,6.238,3.152,7.735,7s1.587,8.041,3.252,11.839a4.481,4.481,0,0,1-.59,5.126c-1.727,1.889-4.48,1.344-5.082-1.13a12.58,12.58,0,0,0-1.793-4.261,3.26,3.26,0,0,1-.193-3.234c.322-.8.576-1.637.851-2.459.262-.784,1-1.463.538-2.481-1.345.529-2.094,2.21-3.8,1.954.478-2.36.6-4.269-1.867-6.1C1683.313,337.906,1682.527,337.075,1680.943,338.545Z" transform="translate(-374.046 -176.781)" fill="#3f3b46"/>
      <path id="Path_3408" data-name="Path 3408" d="M1679.467,376.41l-10.127-.021A54.734,54.734,0,0,1,1670.359,364a16.636,16.636,0,0,0,7.282-1.668A2.367,2.367,0,0,0,1679,359.3c-.527-1.349-1.753-1.178-2.9-.878-1.125.295-2.246.61-3.478.946.139-1.232,1.173-1.514,1.545-2.279l2.941-.431a9.1,9.1,0,0,1,3.44,1.217,5.92,5.92,0,0,1,.847,6.908C1679.7,368.443,1679.751,372.473,1679.467,376.41Z" transform="translate(-368.586 -188.176)" fill="#fb9b07"/>
      <path id="Path_3409" data-name="Path 3409" d="M1081.415,142.383l-8.491.079a7.288,7.288,0,0,0-.551-2.954c-.156-3.122-1.294-6.056-1.762-9.121a13.422,13.422,0,0,1,.2-5.387c.485-1.923,1.488-3.284,3.6-3.524l3.619.21,1.6,1.091c.152,1.177,1.808,1.663,1.465,3.168-1.667-.182-2.695-1.542-4.132-2.018-1.166-.387-2.473-.732-3.248.574-.723,1.217-.161,2.314.827,3.207a13.916,13.916,0,0,0,7.7,3.305Q1081.83,136.7,1081.415,142.383Z" transform="translate(-82.283 -75.74)" fill="#f44f7c"/>
      <path id="Path_3410" data-name="Path 3410" d="M1084.955,130.87a13.916,13.916,0,0,1-7.7-3.305c-.988-.893-1.55-1.991-.827-3.207.776-1.306,2.082-.961,3.248-.574,1.438.477,2.465,1.837,4.132,2.018.343-1.5-1.312-1.991-1.465-3.168a37.075,37.075,0,0,1,14.881-1.215c.387,2.04-.339,2.729-2.134,2.681a26.4,26.4,0,0,0-10.758,1.979c5.341,2.383,10.131,1.835,14.871-.226,1.154-.5,2.22-1.093,3.3.058C1101,129.636,1091.647,132.279,1084.955,130.87Z" transform="translate(-84.994 -75.596)" fill="#fab59f"/>
      <path id="Path_3411" data-name="Path 3411" d="M1157.533,326.616a21.035,21.035,0,0,1-5.152.061V302.214c.236-.138.377-.287.528-.3,4.985-.385,4.987-.383,4.988,4.555,0,5.821.009,11.641-.012,17.463A4.6,4.6,0,0,1,1157.533,326.616Z" transform="translate(-121.462 -161.933)" fill="#f44f7c"/>
      <path id="Path_3412" data-name="Path 3412" d="M1042.093,403.552c.482.2.553.615.553,1.06,0,5.97,0,11.94,0,18.029a17.038,17.038,0,0,1-6.155.164c0-6.135,0-12.173,0-18.21,0-1.015.694-1.039,1.423-1.027,1.407-.123,1.086,1.885,2.262,1.983C1041.134,405.078,1040.826,403.577,1042.093,403.552Z" transform="translate(-66.058 -210.594)" fill="#f44f7c"/>
      <path id="Path_3413" data-name="Path 3413" d="M1125.343,290.509h-20.422a20.272,20.272,0,0,1-.109-5.553h20.362C1125.7,286.657,1125.385,288.445,1125.343,290.509Z" transform="translate(-98.655 -153.896)" fill="#6e1ee2"/>
      <path id="Path_3414" data-name="Path 3414" d="M1661.243,356.019c-.372.766-1.406,1.047-1.545,2.279,1.232-.336,2.352-.651,3.478-.946,1.146-.3,2.373-.471,2.9.878a2.366,2.366,0,0,1-1.354,3.034,16.635,16.635,0,0,1-7.282,1.668c-3.427-.016-6.48-1.649-9.77-2.257-1.553-1.624-3.907-2.156-5.354-3.924-.087-.8-.179-1.606.922-1.8l6.276,3.106c2.933.755,5.86,1.709,9.068.351-2.841-1.953-5.871-1.03-8.75-1.208q-.247-.971-.493-1.943C1653.4,354.09,1657.389,353.964,1661.243,356.019Z" transform="translate(-355.665 -187.104)" fill="#fab59f"/>
      <path id="Path_3415" data-name="Path 3415" d="M1141.873,331.463a20.258,20.258,0,0,1-5.338-.056V311.842h5.338Z" transform="translate(-113.886 -166.75)" fill="#f44f7c"/>
      <path id="Path_3416" data-name="Path 3416" d="M1239.224,430.385c.238,2.576-.392,5.334,1.583,7.543-.752,2.341.7,4.351.989,6.537.145,1.105.426,2.193.646,3.289l-2.935.454c-.973-2.948-1.975-5.886-2.9-8.849-.278-.889-.979-1.115-1.67-1.437.767-.13,1-.546.713-1.281-1.245-3.155-1.581-6.542-2.49-9.783l5.793.028Z" transform="translate(-160.08 -221.736)" fill="#fab59f"/>
      <path id="Path_3417" data-name="Path 3417" d="M1219.823,437.94c1.361-2.4.535-5.017.753-7.531l.413-3.58,5.366.016c-.491,3-.971,5.994-1.48,8.987-.187,1.1-.363,2.129,1.276,2.08-1.4.263-1.849,1.117-2,2.527-.261,2.47-.824,4.909-1.26,7.36l-2.728-.03a39.305,39.305,0,0,1,.113-8.228A1.815,1.815,0,0,0,1219.823,437.94Z" transform="translate(-153.704 -221.722)" fill="#fab59f"/>
      <path id="Path_3418" data-name="Path 3418" d="M1126,335.7h-5.285V320.833a22.5,22.5,0,0,1,5.285-.078Z" transform="translate(-106.323 -170.955)" fill="#f44f7c"/>
      <path id="Path_3419" data-name="Path 3419" d="M1465.035,193.542c.775.8,1.777.55,2.706.556,3.467.022,6.942.151,10.4-.039a8.328,8.328,0,0,1,6.371,2.166l-.49.287-5.189-.018-.537-.006-1.033.014c-.376-.228-.483-.023-.506.316l-.169,3-.647-3.115c-3.973,0-8.027.1-12.074-.028-3.794-.115-7.9.957-11.665-2.691A76.361,76.361,0,0,0,1465.035,193.542Z" transform="translate(-264.799 -110.193)" fill="#f7a2cd"/>
      <path id="Path_3420" data-name="Path 3420" d="M1075.76,108.535c-3.409-.412-3.828-.942-3.377-4.266.724-5.341,2.515-6.675,7.74-5.855a13.267,13.267,0,0,0,2.829.073c2.922-.176,3.591.743,2.449,3.486a3.717,3.717,0,0,1-1.628,2.243c-3.005-2.667-5.052-2.108-6.18,1.785-.179-.236-.4-.4-.441-.605-.17-.929-.5-1.878-1.617-1.363-1.061.487-.8,1.35-.019,2.065C1076.313,106.829,1075.734,107.716,1075.76,108.535Z" transform="translate(-83.146 -64.608)" fill="#3e3e3e"/>
      <path id="Path_3421" data-name="Path 3421" d="M1353.454-30.271c-2.5-1.194-1.99-3.133-1.175-5.057.864-2.038,2.355-1.852,4.079-1.084a11.319,11.319,0,0,0,4.328.612c2.688.086,4.059,1.48,3.747,4.151-.241,2.059.141,4.363-1.556,6.078-2.248-.082-1.834-1.216-.946-2.472.432-.612.841-1.265.02-1.729a1.107,1.107,0,0,0-1.647.717c-.122.314-.232.658-.86.527.045-1.585-.362-2.979-2.286-3.272C1355.607-32.038,1354.229-31.9,1353.454-30.271Z" transform="translate(-216.71 0)" fill="#535057"/>
      <path id="Path_3422" data-name="Path 3422" d="M1076.089,345.085c.317-2.523,1.6-3.853,4.291-3.716a15.465,15.465,0,0,0,3.035-.432c3.771-1.23,4.848-.851,5.561,2,.451,1.8.157,3.283-1.843,3.956-.563-1.7-1.924-1.767-3.375-1.638-2.052.182-2.534,1.663-2.583,3.752-.963-1.016-1.492-2.573-3.018-1.108a7.122,7.122,0,0,1,1.613,3.751l-1.514-.023-.493-.146C1076.206,349.607,1076.788,347.178,1076.089,345.085Z" transform="translate(-84.989 -180.342)" fill="#6f6d72"/>
      <path id="Path_3423" data-name="Path 3423" d="M1670.761,433.126q-.8-5.189-1.61-10.377h5.514v12.886a5.75,5.75,0,0,1-3.326.155Q1671.051,434.458,1670.761,433.126Z" transform="translate(-368.518 -219.772)" fill="#6e1ee2"/>
      <path id="Path_3424" data-name="Path 3424" d="M1110.313,338.894H1105.1V327.743c1.684-.533,3.368-.27,5.211-.19Z" transform="translate(-98.859 -174.196)" fill="#f44f7c"/>
      <path id="Path_3425" data-name="Path 3425" d="M1198.029,357.629c-.631-1.631-2.251-2-3.548-2.789-3.722-3.035-8.374-4.834-11.5-8.659-.074-1.127.636-1.33,1.54-1.3q7.4,4.266,14.807,8.53c.012.16.023.321.033.483Q1198.693,355.76,1198.029,357.629Z" transform="translate(-136.088 -182.542)" fill="#fab59f"/>
      <path id="Path_3426" data-name="Path 3426" d="M1355.092-25.637c.774-1.627,2.153-1.767,3.706-1.53,1.924.293,2.331,1.688,2.286,3.272.628.131.737-.212.86-.527a1.107,1.107,0,0,1,1.647-.717c.821.464.412,1.117-.02,1.729-.888,1.257-1.3,2.39.946,2.472-.6.577-1.94.538-1.606,1.905l-4.059.02c.012-.722-.536-.974-1.039-1.3C1355.9-21.567,1354.769-23.235,1355.092-25.637Z" transform="translate(-218.347 -4.634)" fill="#fab59f"/>
      <path id="Path_3427" data-name="Path 3427" d="M1078.141,112.546c-.027-.819.552-1.707-.244-2.437-.78-.715-1.042-1.578.019-2.065,1.122-.515,1.446.434,1.617,1.363.037.2.262.369.441.605,1.127-3.894,3.174-4.452,6.18-1.785.2,2.81-.775,4.767-3.776,5.364-.416.082-.738.637-1.1.974l-3.619-.21Z" transform="translate(-85.526 -68.619)" fill="#fab59f"/>
      <path id="Path_3428" data-name="Path 3428" d="M1081.661,356.165a7.122,7.122,0,0,0-1.613-3.751c1.527-1.465,2.055.092,3.018,1.108.05-2.088.531-3.569,2.583-3.752,1.452-.128,2.813-.066,3.375,1.638.632,3.052-1.342,4.489-3.575,5.764a8.039,8.039,0,0,1-3.869-.022Q1081.621,356.657,1081.661,356.165Z" transform="translate(-86.881 -184.862)" fill="#fab59f"/>
      <path id="Path_3429" data-name="Path 3429" d="M1685.9,351a9.1,9.1,0,0,0-3.44-1.217c-.536-2.241-2.822-4.059-1.622-6.72,1.585-1.47,2.37-.639,3.953.533,2.467,1.827,2.345,3.736,1.867,6.1Z" transform="translate(-373.94 -181.301)" fill="#fab59f"/>
      <path id="Path_3430" data-name="Path 3430" d="M1230.671,437.925c-1.639.05-1.463-.984-1.276-2.08.509-2.993.989-5.991,1.48-8.988l.214,0,.214-.006c.909,3.241,1.245,6.628,2.49,9.783.29.735.055,1.151-.712,1.281Z" transform="translate(-158.225 -221.736)" fill="#000c4d"/>
      <path id="Path_3431" data-name="Path 3431" d="M1181.205,323.312c-.243,1.76-1.213,2.8-2.921,2.759a2.812,2.812,0,1,1,.244-5.616C1180.323,320.527,1181.073,321.686,1181.205,323.312Z" transform="translate(-132.512 -170.866)" fill="#6e1ee2"/>
      <path id="Path_3432" data-name="Path 3432" d="M1178.251,309.651c-1.73-.218-2.82-1.2-2.764-2.891a2.68,2.68,0,0,1,3.062-2.8,2.626,2.626,0,0,1,2.594,2.988C1181.045,308.69,1179.934,309.525,1178.251,309.651Z" transform="translate(-132.507 -162.974)" fill="#6e1ee2"/>
      <path id="Path_3433" data-name="Path 3433" d="M1181.216,290.177c-.093,1.912-1.012,3.024-2.7,3.105a2.663,2.663,0,0,1-2.993-2.865,2.616,2.616,0,0,1,2.8-2.789A2.755,2.755,0,0,1,1181.216,290.177Z" transform="translate(-132.524 -155.173)" fill="#6e1ee2"/>
      <path id="Path_3434" data-name="Path 3434" d="M1180.911,340.911c-.9-.027-1.614.176-1.54,1.3-1.885.439-3.275-.178-3.818-2.068a2.636,2.636,0,0,1,1.751-3.314C1179.609,335.848,1181.342,337.838,1180.911,340.911Z" transform="translate(-132.48 -178.576)" fill="#6e1ee2"/>
      <path id="Path_3435" data-name="Path 3435" d="M1116.739,299.264c.471,1.77.228,2.541-1.439,2.5-3.366-.081-6.736-.025-10.175-.025-.627-1.613-.551-2.537,1.465-2.5C1109.947,299.315,1113.308,299.264,1116.739,299.264Z" transform="translate(-98.704 -160.727)" fill="#6e1ee2"/>
      <path id="Path_3436" data-name="Path 3436" d="M1650.226,354.381q.247.972.494,1.941l-.319.858-6.276-3.106C1646.268,352,1647.6,352.07,1650.226,354.381Z" transform="translate(-356.553 -186.226)" fill="#530bc5"/>
      <path id="Path_3437" data-name="Path 3437" d="M1214.339,355.074c-.011-.161-.023-.323-.035-.482,2.5-1.918,1.308-4.819,1.929-7.239.155.657.389,1.236,1.213,1.236-.4,2.039-1.4,4.207,1.354,5.509.2.1.12.794.169,1.213C1217.413,355.483,1215.83,356.169,1214.339,355.074Z" transform="translate(-151.066 -183.727)" fill="#000c4d"/>
      <path id="Path_3438" data-name="Path 3438" d="M1217.524,466.949l2.728.03q0,.412,0,.823c-.049.2-.1.41-.149.615,0,1.048-.459,1.552-1.571,1.5-1.358-.062-2.72-.015-4.237-.015C1214.493,467.724,1216.446,467.817,1217.524,466.949Z" transform="translate(-151.064 -240.903)" fill="#f44f7c"/>
      <path id="Path_3439" data-name="Path 3439" d="M1243.083,467.349l2.935-.454a3.129,3.129,0,0,1,.617,2.749,24.6,24.6,0,0,1-5.994.149C1240.9,468.254,1242.122,467.924,1243.083,467.349Z" transform="translate(-163.657 -240.877)" fill="#f44f7c"/>
      <path id="Path_3440" data-name="Path 3440" d="M1340.551,66.086l-.658.074-.3-.814q.01-3.229.02-6.456-.02-.446-.039-.9-.026-1.3-.052-2.606c0-.184-.009-.368-.013-.552a19.4,19.4,0,0,0-.006-6.263q.072-2.544.142-5.085V37.4l1.1,0q0,8.757,0,17.514a.26.26,0,0,0,.045.4q-.058.892-.116,1.783v.08Z" transform="translate(-210.919 -35.547)" fill="#6e1ee2"/>
      <path id="Path_3441" data-name="Path 3441" d="M1390.675,37.086a157.454,157.454,0,0,0,.085,17.671q-.043.326-.084.653-.005,3.89-.01,7.779c-.515.854.518,2.247-.963,2.769q-.079-.528-.158-1.056l.006-.159-.015-9.68a159.425,159.425,0,0,0-.069-17.523Z" transform="translate(-234.807 -35.395)" fill="#6e1ee2"/>
      <path id="Path_3442" data-name="Path 3442" d="M1666.991,442.632l.578,2.663-6.3.005c.4-1.285,1.535-1.7,2.61-2.189Z" transform="translate(-364.747 -229.277)" fill="#fb9b07"/>
      <path id="Path_3443" data-name="Path 3443" d="M1196.206,325.611a10.287,10.287,0,0,1-7.235,0A10.107,10.107,0,0,1,1196.206,325.611Z" transform="translate(-138.955 -173.012)" fill="#6e1ee2"/>
      <path id="Path_3444" data-name="Path 3444" d="M1701.064,443.3l2.95-.608a5.055,5.055,0,0,1,1.337,2.492,3.147,3.147,0,0,1-.713.185c-1.628.015-3.255.008-4.9.008C1699.483,444.12,1700.738,444.023,1701.064,443.3Z" transform="translate(-383.125 -229.307)" fill="#fb9b07"/>
      <path id="Path_3445" data-name="Path 3445" d="M1196.3,308.671c-1.627.826-4.571.932-7.117.256C1190.191,307.525,1194.342,307.376,1196.3,308.671Z" transform="translate(-139.054 -164.809)" fill="#6e1ee2"/>
      <path id="Path_3446" data-name="Path 3446" d="M1196.238,341.952a8.122,8.122,0,0,1-8.117,0A22.662,22.662,0,0,1,1196.238,341.952Z" transform="translate(-138.548 -180.968)" fill="#6e1ee2"/>
      <path id="Path_3447" data-name="Path 3447" d="M1097.115,470.642a5.106,5.106,0,0,1,3.539-1.883c.885.456,2.011.563,2.619,1.953A25.446,25.446,0,0,1,1097.115,470.642Z" transform="translate(-95.041 -241.768)" fill="#6e1ee2"/>
      <path id="Path_3448" data-name="Path 3448" d="M1072.235,470.546a5.24,5.24,0,0,1,4.091-1.609c.646.52,1.65.624,1.946,1.848C1076.217,470.853,1074.224,471.276,1072.235,470.546Z" transform="translate(-83.146 -241.846)" fill="#6e1ee2"/>
      <path id="Path_3449" data-name="Path 3449" d="M1189.2,292.039a10.043,10.043,0,0,1,7.058.01A10.18,10.18,0,0,1,1189.2,292.039Z" transform="translate(-139.063 -156.979)" fill="#6e1ee2"/>
      <path id="Path_3450" data-name="Path 3450" d="M1043.4,402.582c-1.267.025-.959,1.526-1.917,2-1.176-.1-.855-2.107-2.262-1.983l1.237-1.074,1.836.612Z" transform="translate(-67.361 -209.625)" fill="#fab59f"/>
      <path id="Path_3451" data-name="Path 3451" d="M1389.9,89.868c1.48-.521.447-1.915.963-2.769q.152,1.433.3,2.861l-1.286-.052Z" transform="translate(-235.006 -59.305)" fill="#fab59f"/>
      <path id="Path_3452" data-name="Path 3452" d="M1516.725,199.029l2.143-.011a2.436,2.436,0,0,1-2.092.068Z" transform="translate(-295.646 -112.811)" fill="#a577da"/>
      <path id="Path_3453" data-name="Path 3453" d="M1498.673,71.36q0,.756,0,1.509c-.432-.418-.216-.915-.174-1.39Z" transform="translate(-286.891 -51.781)" fill="#fab59f"/>
      <path id="Path_3454" data-name="Path 3454" d="M1327.594,333.35c-.463-.4-.366-.947-.385-1.464C1328.1,332.174,1327.646,332.815,1327.594,333.35Z" transform="translate(-205.043 -176.332)" fill="#6e1ee2"/>
      <path id="Path_3455" data-name="Path 3455" d="M1000.756,320.318a1.3,1.3,0,0,1-.27-1.412A1.44,1.44,0,0,1,1000.756,320.318Z" transform="translate(-48.798 -170.127)" fill="#f7a2cd"/>
      <path id="Path_3456" data-name="Path 3456" d="M1326.267,349.021l.833-.332C1327.005,349.259,1326.629,349.122,1326.267,349.021Z" transform="translate(-204.593 -184.365)" fill="#6e1ee2"/>
      <path id="Path_3457" data-name="Path 3457" d="M1339.418,90.942l.3.814-.58-.009Z" transform="translate(-210.748 -61.143)" fill="#f7a2cd"/>
      <path id="Path_3458" data-name="Path 3458" d="M1391.783,71.6q.041-.326.084-.653a.529.529,0,0,1,.14.289A.35.35,0,0,1,1391.783,71.6Z" transform="translate(-235.914 -51.582)" fill="#fab59f"/>
      <path id="Path_3459" data-name="Path 3459" d="M1072.344,349.072c.314-.381.627-.351.94,0Z" transform="translate(-83.198 -184.417)" fill="#6e1ee2"/>
      <path id="Path_3460" data-name="Path 3460" d="M1339.473,76.857q.02.449.039.9A.607.607,0,0,1,1339.473,76.857Z" transform="translate(-210.821 -54.409)" fill="#f7a2cd"/>
      <path id="Path_3461" data-name="Path 3461" d="M1338.819,70.807q.007.276.013.551l-.77-.246Z" transform="translate(-210.232 -51.516)" fill="#f7a2cd"/>
      <path id="Path_3462" data-name="Path 3462" d="M1225.427,469.2c.05-.205.1-.41.149-.615C1225.526,468.789,1225.476,468.994,1225.427,469.2Z" transform="translate(-156.383 -241.684)" fill="#fab59f"/>
      <path id="Path_3463" data-name="Path 3463" d="M1488.974,17.445l-.663-.093Z" transform="translate(-282.062 -25.961)" fill="#6e1ee2"/>
      <path id="Path_3464" data-name="Path 3464" d="M1079.294,361.738l.493.146C1079.555,362.063,1079.4,361.99,1079.294,361.738Z" transform="translate(-86.521 -190.604)" fill="#fab59f"/>
      <path id="Path_3465" data-name="Path 3465" d="M1331.668,448.064l.071,0-.046.126Z" transform="translate(-207.175 -231.874)" fill="#fab59f"/>
      <path id="Path_3466" data-name="Path 3466" d="M1517.119,271.018c-.332.033-.465-.07-.27-.4A.388.388,0,0,1,1517.119,271.018Z" transform="translate(-295.662 -147.043)" fill="#a577da"/>
      <path id="Path_3467" data-name="Path 3467" d="M1498.794,318.91c-.018.182-.036.364-.054.545a2.275,2.275,0,0,1-.092-.394C1498.645,319.014,1498.743,318.961,1498.794,318.91Z" transform="translate(-287.004 -170.129)" fill="#f7a2cd"/>
      <path id="Path_3468" data-name="Path 3468" d="M1217.832,332.346q0,.464,0,.93A.659.659,0,0,1,1217.832,332.346Z" transform="translate(-152.662 -176.552)" fill="#6e1ee2"/>
      <path id="Path_3469" data-name="Path 3469" d="M1077.743,364.088l-.664.02A.383.383,0,0,1,1077.743,364.088Z" transform="translate(-85.462 -191.64)" fill="#bc99ec"/>
      <path id="Path_3470" data-name="Path 3470" d="M1072.743,364.069l-.673-.014A.392.392,0,0,1,1072.743,364.069Z" transform="translate(-83.067 -191.624)" fill="#bc99ec"/>
      <path id="Path_3471" data-name="Path 3471" d="M1328.606,448.043h.113s-.057.133-.057.133Z" transform="translate(-205.711 -231.864)" fill="#fab59f"/>
      <path id="Path_3472" data-name="Path 3472" d="M1233.077,47.652q-.071,2.542-.142,5.085a6.139,6.139,0,0,1-4.378,1.328q-53.441,0-106.881-.014a8.4,8.4,0,0,1-2.31-.293,3.586,3.586,0,0,1-2.77-3.662,3.527,3.527,0,0,1,3.008-3.714,18.28,18.28,0,0,1,3.367-.262q52.4-.019,104.8-.011C1229.692,46.107,1231.62,46.061,1233.077,47.652Z" transform="translate(-104.354 -39.708)" fill="#f9f9f9"/>
      <path id="Path_3473" data-name="Path 3473" d="M1366.778,82.333l-.02.041-25.245-.063q.063-4.455.125-8.906v-.082q.058-.892.116-1.783l.093-.1,24-.1.229.1.246-.043a.32.32,0,0,0,.288.043q.005,4.838.013,9.676l-.094.073.089.088Z" transform="translate(-211.882 -51.771)" fill="#f9f9f9"/>
      <path id="Path_3474" data-name="Path 3474" d="M1388.142,33.913a1.42,1.42,0,0,1,1.03-.955l1.589.957q-.36.6-.72,1.2l-1.208.454C1388.137,35.21,1388.149,34.558,1388.142,33.913Z" transform="translate(-234.174 -33.422)" fill="#fab59f"/>
      <path id="Path_3475" data-name="Path 3475" d="M1341.96,71.263l-.093.1a.26.26,0,0,1-.044-.4A.364.364,0,0,1,1341.96,71.263Z" transform="translate(-211.995 -51.591)" fill="#fab59f"/>
      <path id="Path_3476" data-name="Path 3476" d="M1388.615,71.27l-.246.043-.229-.1C1388.321,71.047,1388.489,70.984,1388.615,71.27Z" transform="translate(-234.173 -51.643)" fill="#fab59f"/>
      <path id="Path_3477" data-name="Path 3477" d="M1513.168,198.97l.49-.287,1.266.216A1.842,1.842,0,0,1,1513.168,198.97Z" transform="translate(-293.946 -112.651)" fill="#a577da"/>
      <path id="Path_3478" data-name="Path 3478" d="M1499.248,199.44c.023-.339.13-.543.506-.316C1499.585,199.229,1499.417,199.334,1499.248,199.44Z" transform="translate(-287.291 -112.816)" fill="#a577da"/>
      <path id="Path_3479" data-name="Path 3479" d="M1502.2,199.186l.537.006Z" transform="translate(-288.701 -112.891)" fill="#a577da"/>
      <path id="Path_3480" data-name="Path 3480" d="M1226.224,342.015c3.145-2.175,7.9-.717,10.258,3.145-.043,1.647-.164,3.24,1.633,4.284,1.083.63.845,1.835.338,2.8-1.307,2.489-.681,4.72.907,6.756,1.529,1.96,2.859,3.779.244,5.924-.454.372-.484,1.261-.71,1.911a2.84,2.84,0,0,1-2.791,1.7l.016.008c-.5-1.425-1.064-2.832-1.491-4.279a1.752,1.752,0,0,0-2.229-1.473,1.551,1.551,0,0,1-1.806-1.715c.018-2.708-2.423-4.657-2.26-7.448.025-.414-.96-.887-1.478-1.332C1226.506,348.879,1227.951,345.35,1226.224,342.015Z" transform="translate(-156.765 -180.691)" fill="#201f23"/>
      <path id="Path_3481" data-name="Path 3481" d="M1227.2,412.861l-.214.006-.214,0-5.366-.016a24.729,24.729,0,0,1,1.11-15.2l7.382-.067c3.5,4.6,4.065,9.8,3.1,15.306Z" transform="translate(-154.124 -207.74)" fill="#f44f7c"/>
      <path id="Path_3482" data-name="Path 3482" d="M1225.655,380.642l-7.382.067c-2.918-2.4-3.823-5.759-3.941-9.263-.078-2.33-.616-4.178-2.511-5.559q.662-1.871,1.329-3.74c1.493,1.094,3.075.408,4.631.236l2.187.023c.518.445,1.5.918,1.477,1.332-.164,2.791,2.277,4.74,2.26,7.448a1.551,1.551,0,0,0,1.806,1.715q.032.654.063,1.309Q1225.616,377.426,1225.655,380.642Z" transform="translate(-149.879 -190.8)" fill="#fb9b07"/>
      <path id="Path_3483" data-name="Path 3483" d="M1245.149,392.2a2.841,2.841,0,0,0,2.791-1.7,47.824,47.824,0,0,1,5.631,8.143A11.227,11.227,0,0,1,1245.149,392.2Z" transform="translate(-165.812 -204.354)" fill="#fab59f"/>
      <path id="Path_3484" data-name="Path 3484" d="M1238.116,384.016q-.031-.655-.063-1.308a1.752,1.752,0,0,1,2.229,1.473c.427,1.447.987,2.854,1.491,4.279C1239.854,387.554,1239.644,385.243,1238.116,384.016Z" transform="translate(-162.42 -200.604)" fill="#fab59f"/>
      <path id="Path_3485" data-name="Path 3485" d="M1063.609,244.812c-1.594,4.046-3.053,7.728-4.491,11.417-.375.962-1.191.886-1.959.887-7.986.009-15.971.006-24.36.006,1.561-4.012,3.019-7.775,4.493-11.532a1.2,1.2,0,0,1,1.222-.782C1046.735,244.814,1054.956,244.812,1063.609,244.812Z" transform="translate(-64.293 -134.702)" fill="#f9f9f9"/>
      <path id="Path_3486" data-name="Path 3486" d="M1022.443,283.456c1.579-4.031,2.968-7.561,4.34-11.1a1.509,1.509,0,0,1,1.525-1.139c8.206.01,16.411.006,24.919.006-1.533,3.921-2.951,7.526-4.348,11.139a1.471,1.471,0,0,1-1.532,1.1C1039.208,283.448,1031.068,283.456,1022.443,283.456Z" transform="translate(-59.342 -147.329)" fill="#f9f9f9"/>
      <path id="Path_3487" data-name="Path 3487" d="M1042.9,297.548c-1.567,4.029-2.96,7.56-4.308,11.108-.342.9-.959,1.06-1.819,1.057-8.067-.02-16.134-.012-24.6-.012,1.528-3.905,2.967-7.57,4.394-11.239.3-.782.9-.925,1.658-.923C1026.284,297.554,1034.349,297.548,1042.9,297.548Z" transform="translate(-54.429 -159.912)" fill="#f9f9f9"/>
      <path id="Path_3488" data-name="Path 3488" d="M1043.183,230.751l4.31-11.009c.266-.679.612-1.175,1.484-1.173,8.214.021,16.428.013,24.969.013-1.534,3.921-2.961,7.527-4.351,11.147-.347.9-.993,1.035-1.842,1.033C1059.692,230.743,1051.631,230.751,1043.183,230.751Z" transform="translate(-69.257 -122.158)" fill="#f9f9f9"/>
      <path id="Path_3489" data-name="Path 3489" d="M1073.936,202.31l3.426-10.128h16.7c-1.571,4.029-3,7.637-4.379,11.263-.355.934-1.031,1.02-1.86,1.017-3.3-.016-6.6-.029-9.892.007C1076.176,204.487,1075.481,202.631,1073.936,202.31Z" transform="translate(-83.959 -109.543)" fill="#f9f9f9"/>
      <path id="Path_3490" data-name="Path 3490" d="M977.991,429c-.407,2.393-.841,4.782-1.21,7.181-.22,1.431-.947,1.922-2.421,2.083a111.427,111.427,0,0,1-11.963.486c1.06-2.812,2.144-5.614,3.168-8.439a1.916,1.916,0,0,1,2.107-1.449C971.11,428.949,974.551,428.957,977.991,429Z" transform="translate(-30.635 -222.692)" fill="#fab455"/>
      <path id="Path_3491" data-name="Path 3491" d="M984.605,402.806q-1.076,5.975-2.154,11.949h-11.6c1.535-3.9,2.99-7.614,4.462-11.321.327-.825,1.088-.727,1.773-.72C979.592,402.738,982.1,402.774,984.605,402.806Z" transform="translate(-34.676 -210.19)" fill="#fab455"/>
      <path id="Path_3492" data-name="Path 3492" d="M1034.057,327.854c-7.073-.017-14.147-.043-21.22-.043a12.213,12.213,0,0,1-4.082-.49c.133-2.877,1.512-3.831,4.473-3.738,7.4.232,14.82.076,22.38.076A9.352,9.352,0,0,1,1034.057,327.854Z" transform="translate(-52.797 -172.36)" fill="#f9f9f9"/>
      <path id="Path_3493" data-name="Path 3493" d="M1081.427,180.974a1.059,1.059,0,0,1,.007-.257c2.171-7.627,2.171-7.627,11.284-8.965l2.749,9C1090.795,181.331,1086.107,180.9,1081.427,180.974Z" transform="translate(-87.538 -99.776)" fill="#f9f9f9"/>
      <path id="Path_3494" data-name="Path 3494" d="M992.119,376.582q-1.08,5.983-2.161,11.966h-8.822c1.514-3.841,2.971-7.514,4.407-11.2.312-.8.907-.918,1.658-.889C988.84,376.526,990.48,376.545,992.119,376.582Z" transform="translate(-39.594 -197.642)" fill="#fab455"/>
      <path id="Path_3495" data-name="Path 3495" d="M1003.179,350.121c0,2.236-.139,4.485.051,6.706.216,2.521-.785,3.522-3.237,3.3a7.9,7.9,0,0,0-1.532.157l-5.222-.052c1.114-3,2.262-5.986,3.325-9a1.68,1.68,0,0,1,1.941-1.254C1000.061,350.063,1001.621,350.077,1003.179,350.121Z" transform="translate(-45.379 -184.979)" fill="#fb9b07"/>
      <path id="Path_3496" data-name="Path 3496" d="M1062.085,192.224q-.582,5.9-1.164,11.8c-2.274.846-4.6.16-7.521.46,1.659-4.172,2.991-8.063,4.785-11.728C1058.788,191.523,1060.752,192.392,1062.085,192.224Z" transform="translate(-74.141 -109.495)" fill="#f9f9f9"/>
      <path id="Path_3497" data-name="Path 3497" d="M1112.293,175.707q-.312-4.906-.622-9.813h5.852c-1.342,3.389-2.56,6.48-3.789,9.566C1113.4,176.3,1112.847,176.054,1112.293,175.707Z" transform="translate(-101.999 -96.975)" fill="#f9f9f9"/>
      <path id="Path_3498" data-name="Path 3498" d="M1069.05,165.9q-.964,6.159-1.927,12.317h-3.428C1065.7,173.9,1066.535,169.557,1069.05,165.9Z" transform="translate(-79.063 -96.979)" fill="#f9f9f9"/>
      <path id="Path_3499" data-name="Path 3499" d="M992.709,369.636l5.222.052q-.092.949-.185,1.9c-.589.039-1.176.1-1.764.112-1.177.018-2.355.005-3.491.005C991.772,370.847,992.281,370.247,992.709,369.636Z" transform="translate(-44.85 -194.38)" fill="#fab455"/>
      <path id="Path_3503" data-name="Path 3503" d="M1007.229,35.308c.3-.541.81-.548,1.33-.537A1.1,1.1,0,0,1,1007.229,35.308Z" transform="translate(-52.068 -34.287)" fill="#530bc5"/>
      <path id="Path_3504" data-name="Path 3504" d="M1630.272,372.63l5.641.018c.642.154,1.387-.157,2.088.543v11.543l-15.222.009c.146-1.527-.849-2.563-1.594-3.707Z" transform="translate(-345.587 -195.811)" fill="#6e1ee2"/>
      <path id="Path_3505" data-name="Path 3505" d="M1612.1,387.693c.744,1.144,1.739,2.181,1.593,3.707l-11.515,0c1.123-4.115,4.26-5.785,7.984-4.318Z" transform="translate(-336.499 -202.468)" fill="#530bc5"/>
      <path id="Path_3506" data-name="Path 3506" d="M1597.926,407.045c.98.286,1.55.7,1.525,1.677-.026,1.064-.653,1.323-1.549,1.268s-1.54-.478-1.412-1.464A1.8,1.8,0,0,1,1597.926,407.045Z" transform="translate(-333.772 -212.264)" fill="#fab455"/>
      <path id="Path_3507" data-name="Path 3507" d="M1584.168,410.3c-.857,0-1.605-.252-1.664-1.222s.64-1.327,1.511-1.373c.942-.05,1.457.347,1.441,1.355A1.11,1.11,0,0,1,1584.168,410.3Z" transform="translate(-327.092 -212.579)" fill="#fab455"/>
      <path id="Path_3508" data-name="Path 3508" d="M1655.351,409.049a1.38,1.38,0,0,1-1.635,1.246c-.781-.046-1.331-.46-1.291-1.289.047-.962.719-1.319,1.6-1.264A1.309,1.309,0,0,1,1655.351,409.049Z" transform="translate(-360.52 -212.595)" fill="#fab455"/>
      <path id="Path_3509" data-name="Path 3509" d="M1639.908,407.712c.878.063,1.492.451,1.435,1.421-.049.845-.659,1.159-1.426,1.148-.891-.012-1.519-.415-1.451-1.391C1638.524,408.064,1639.134,407.762,1639.908,407.712Z" transform="translate(-353.846 -212.583)" fill="#fab455"/>
      <path id="Path_3510" data-name="Path 3510" d="M1625.707,407.717c.962.036,1.564.329,1.629,1.164.075.975-.537,1.389-1.427,1.413a1.255,1.255,0,0,1-1.45-1.146C1624.365,408.163,1625.069,407.849,1625.707,407.717Z" transform="translate(-347.147 -212.585)" fill="#fab455"/>
      <path id="Path_3511" data-name="Path 3511" d="M1613.364,408.871a1.258,1.258,0,0,1-1.2,1.416c-.847.093-1.577-.192-1.7-1.149a1.2,1.2,0,0,1,1.193-1.387A1.367,1.367,0,0,1,1613.364,408.871Z" transform="translate(-340.455 -212.591)" fill="#fab455"/>
      <path id="Path_3512" data-name="Path 3512" d="M1571.74,408.814a1.33,1.33,0,0,1-1.392,1.459c-.872.033-1.2-.492-1.186-1.281a1.137,1.137,0,0,1,1.226-1.285C1571.154,407.7,1571.724,407.912,1571.74,408.814Z" transform="translate(-320.715 -212.581)" fill="#fab455"/>
      <path id="Path_3513" data-name="Path 3513" d="M1505.635,152.366h-23.086a11.217,11.217,0,0,1-.134-4.195h23.232A10.8,10.8,0,0,1,1505.635,152.366Z" transform="translate(-279.181 -88.502)" fill="#f9f9f9"/>
      <path id="Path_3514" data-name="Path 3514" d="M1505.561,165.016a12.005,12.005,0,0,1,.187,3.911h-23.157c-.622-1.137-.232-2.423-.221-3.911Z" transform="translate(-279.16 -96.556)" fill="#f9f9f9"/>
      <path id="Path_3515" data-name="Path 3515" d="M1264.144,316.073c-3.6-1.715-2.368-4.568-1.76-7.315.651-2.949,1.211-5.917,1.968-9.649,2.243,6.053,4.356,11.417,5.911,16.988Z" transform="translate(-173.715 -160.662)" fill="#f9f9f9"/>
      <path id="Path_3516" data-name="Path 3516" d="M1223.567,353.226l-2.187-.023c-.049-.419.033-1.118-.169-1.214-2.75-1.3-1.756-3.47-1.354-5.509.841-1.34,1.378-2.946,3.079-3.538C1224.664,346.277,1223.219,349.806,1223.567,353.226Z" transform="translate(-153.478 -181.618)" fill="#fab59f"/>
      <path id="Path_3517" data-name="Path 3517" d="M1619.412,376.972l-1.937-.614c1.771-2.772,4.721-4.394,6.749-6.915,1.734-1.533,3.514-3.019,5.184-4.62.97-.931,1.677-1.108,2.53.636l-3.439,3.108Z" transform="translate(-343.813 -191.748)" fill="#f7a2cd"/>
      <path id="Path_3518" data-name="Path 3518" d="M1302.233,276.764l-2.754,3.6a16.315,16.315,0,0,1-7.324-9.2A32.892,32.892,0,0,0,1302.233,276.764Z" transform="translate(-188.285 -147.301)" fill="#f9f9f9"/>
      <path id="Path_3519" data-name="Path 3519" d="M1320.122,254.452c-.054-4.868,3.331-8.931,7.505-9.007a6.688,6.688,0,0,1,6.618,6.879c.041,4.21-3.738,8.286-7.72,8.328C1322.474,260.7,1320.168,258.463,1320.122,254.452Z" transform="translate(-201.655 -135.006)" fill="#f9f9f9"/>
      <path id="Path_3520" data-name="Path 3520" d="M1341.753,75.14v0Z" transform="translate(-211.996 -53.588)" fill="#fab59f"/>
      <path id="Path_3521" data-name="Path 3521" d="M1389.536,90.234l-.089-.088.094-.073Z" transform="translate(-234.798 -60.727)" fill="#fab59f"/>
      <path id="Path_3522" data-name="Path 3522" d="M1348.293,17.194h.939A.566.566,0,0,1,1348.293,17.194Z" transform="translate(-215.123 -25.885)" fill="#6e1ee2"/>
      <circle id="Ellipse_122" data-name="Ellipse 122" cx="3.942" cy="3.942" r="3.942" transform="translate(1030.601 61.024)" fill="#e2e2e2"/>
      <circle id="Ellipse_123" data-name="Ellipse 123" cx="3.942" cy="3.942" r="3.942" transform="translate(1042.944 61.024)" fill="#e2e2e2"/>
      <circle id="Ellipse_124" data-name="Ellipse 124" cx="3.942" cy="3.942" r="3.942" transform="translate(1055.288 61.024)" fill="#e2e2e2"/>
      <circle id="Ellipse_125" data-name="Ellipse 125" cx="3.942" cy="3.942" r="3.942" transform="translate(1067.631 61.024)" fill="#e2e2e2"/>
      <rect id="Rectangle_109" data-name="Rectangle 109" width="52.341" height="11.743" rx="4.821" transform="translate(1116.337 44.033)" fill="#fff"/>
      <rect id="Rectangle_110" data-name="Rectangle 110" width="52.341" height="11.743" rx="4.821" transform="translate(1116.337 60.698)" fill="#fff"/>
      <rect id="Rectangle_111" data-name="Rectangle 111" width="52.341" height="11.743" rx="4.821" transform="translate(1116.337 77.362)" fill="#fff"/>
      <rect id="Rectangle_112" data-name="Rectangle 112" width="52.341" height="11.743" rx="4.821" transform="translate(1116.337 94.026)" fill="#fff"/>
      <rect id="Rectangle_113" data-name="Rectangle 113" width="52.341" height="11.743" rx="4.821" transform="translate(1116.337 110.691)" fill="#fff"/>
      <rect id="Rectangle_114" data-name="Rectangle 114" width="52.341" height="11.743" rx="4.821" transform="translate(1116.337 127.355)" fill="#fff"/>
      <g id="Group_827" data-name="Group 827" transform="translate(1083.932 103.908)">
        <path id="Path_3523" data-name="Path 3523" d="M1254.3,269.18c.437-10.384,6.848-18.281,17.234-21.229,2.365.194,5.082-.277,5.771,3.068l-.2,1.4-.938,1.683c-1.043-.342-1.189-1.416-1.72-2.163-.818-1.15-1.578-2.585-3.24-1.67-1.539.847-1.425,2.32-.9,3.873.591,1.734,1.873,3.069,2.548,4.641l-2.52,4.016a23.063,23.063,0,0,0-2.813,6.426Z" transform="translate(-1254.117 -240.113)" fill="#fb9b07"/>
        <path id="Path_3524" data-name="Path 3524" d="M1254.132,288.626l13.225.047a53.987,53.987,0,0,0,1.972,20.363c1.647.269,3.2.54,4.106,2.064l-6.865-.015c-1.555-5.571-3.668-10.935-5.911-16.988-.757,3.732-1.317,6.7-1.968,9.649-.607,2.747-1.844,5.6,1.76,7.315l-6.5-.01Q1254.042,299.838,1254.132,288.626Z" transform="translate(-1253.953 -259.559)" fill="#6e1ee2"/>
        <path id="Path_3525" data-name="Path 3525" d="M1284.672,264.659l2.52-4.016c-.675-1.572-1.957-2.907-2.548-4.641-.529-1.553-.643-3.027.9-3.873,1.661-.915,2.422.52,3.24,1.67.531.747.677,1.82,1.72,2.163.515,2.841,2.561,4.584,4.649,6.206a12.862,12.862,0,0,0,5.255,2.67,5.215,5.215,0,0,0,3.816.906c.6.741,1.886.468,2.318,1.705-1.087,2.062-2.921,1.351-4.631,1.093l-3.436-1.016a32.89,32.89,0,0,1-10.077-5.6,16.315,16.315,0,0,0,7.323,9.2l-1.847,2.273C1290.152,271.171,1287.471,267.852,1284.672,264.659Z" transform="translate(-1268.455 -241.972)" fill="#fab59f"/>
        <path id="Path_3526" data-name="Path 3526" d="M1318.981,260.9a5.215,5.215,0,0,1-3.816-.906,4.318,4.318,0,0,0,.931-4.882,10.322,10.322,0,0,1,6.122-12.776,8.545,8.545,0,0,1,9.525,2.14,8.817,8.817,0,0,1,1.406,10.133c-2.54,5.034-7.125,7.267-12.721,6.163C1319.908,260.671,1319.431,260.467,1318.981,260.9Zm-1.229-8.234c.045,4.01,2.351,6.243,6.4,6.2,3.983-.042,7.761-4.118,7.72-8.328a6.688,6.688,0,0,0-6.618-6.879C1321.084,243.735,1317.7,247.8,1317.753,252.666Z" transform="translate(-1283.217 -237.128)" fill="#6e1ee2"/>
        <path id="Path_3527" data-name="Path 3527" d="M1293.089,243.84c-.689-3.345-3.407-2.874-5.771-3.068.529-4.211,2.616-6.257,6.687-6.431a3.588,3.588,0,0,0,2.056-.723c2.274-1.554,4.8-.34,5.126,2.437a7.623,7.623,0,0,1-1.538,5.607c-.33.1-.82.381-.968.257C1295.729,239.457,1294.518,241.953,1293.089,243.84Z" transform="translate(-1269.904 -232.934)" fill="#433c4d"/>
        <path id="Path_3528" data-name="Path 3528" d="M1305.073,281.9l3.436,1.016a74.616,74.616,0,0,1-6.438,8.045c-.916.948-1.945,2.52-3.4,1.256s.206-2.218.918-3.186c.3-.413.587-.842.879-1.262q.923-1.134,1.847-2.271Z" transform="translate(-1275.057 -256.342)" fill="#6e1ee2"/>
        <path id="Path_3529" data-name="Path 3529" d="M1298.189,251.129c1.43-1.887,2.64-4.383,5.592-1.92.148.124.638-.162.968-.257-.444,3.754-1.982,4.568-6.763,3.579Q1298.087,251.829,1298.189,251.129Z" transform="translate(-1275.004 -240.223)" fill="#fab59f"/>
      </g>
      <path id="Path_3530" data-name="Path 3530" d="M1251.635,36.269c-.7-.355-.686-1.008-.693-1.653-7.817-.108-15.638.253-23.453-.186l-2.649.026c-.688.056-1.376.161-2.064.161q-42.1.01-84.2,0v0h-8.286c-.49-.006-.98-.052-1.47-.079-.544.015-1.08.035-1.608.079H1119l-.042-.062-6.628.062h-1.26v.011l-9.908.092q.1,9.463.2,18.925c.52.031,1.039.091,1.558.091q60.943,0,121.886-.016l.756-.3a19.372,19.372,0,0,0-.007-6.262,6.141,6.141,0,0,1-4.377,1.327q-53.441,0-106.882-.014a8.4,8.4,0,0,1-2.309-.293,3.585,3.585,0,0,1-2.77-3.662,3.527,3.527,0,0,1,3.008-3.714,18.279,18.279,0,0,1,3.367-.262q52.4-.019,104.8-.011c1.925,0,3.853-.047,5.31,1.544V35.982l1.105,0V53.5a.367.367,0,0,1,.137.3l24-.1c.181-.164.349-.227.474.059a.319.319,0,0,0,.288.043A159.847,159.847,0,0,0,1251.635,36.269Z" transform="translate(-96.974 -34.125)" fill="#60a2ce"/>
      <g id="Group_828" data-name="Group 828" transform="translate(942.308 -8.924)">
        <path id="Path_3531" data-name="Path 3531" d="M992.254,184.932a1.3,1.3,0,0,1-.27-1.412c-.024-.954-.068-1.909-.069-2.864q-.006-42.259,0-84.519.006-20.607.057-41.214c-.023-4.133-.007-8.267-.084-12.4-.055-2.974,1.66-4.925,3.658-6.752-1.907-.306-3.508.731-5.224,1.231a8.794,8.794,0,0,1-2.812.237c-3.846,1.47-3.789,1.463-3.257,5.624.633,4.949,1.156,9.911,1.725,14.868,1.166.84,1.568,1.76.239,2.795-1.158.9-1.461,2.844-3.4,2.791-.046.689-.134,1.38-.134,2.072-.013,38.646.036,77.293-.079,115.938-.019,6.383,1.96,11.531,7.066,15.407l1.025.341c1.686-.711,1.514-2.529,2.177-3.822a30.607,30.607,0,0,0,1.552-4.631C993.427,187.554,992.4,186.5,992.254,184.932Z" transform="translate(-982.604 -25.818)" fill="#000c4d"/>
        <path id="Path_3532" data-name="Path 3532" d="M1440.906,26.255c4.624.007,7.531,2.808,7.6,7.371.056,3.9-.037,7.8-.064,11.7q0,.756,0,1.509.028,16.289.055,32.586l9.289.01c.005-15.263.054-30.526,0-45.789-.032-8.827-6.076-15.707-14.217-16.411l-.663-.093c-15.354-.4-30.709-.187-46.064-.078-2.155,1.145-1.8,3.494-2.422,5.325-.4,1.181-.567,2.468-1.084,3.639.945.073,1.888.207,2.833.208Q1418.537,26.254,1440.906,26.255Z" transform="translate(-1178.964 -16.822)" fill="#000c4d"/>
        <path id="Path_3533" data-name="Path 3533" d="M1058.165,331.656c-.961,2.267-1.961,4.518-2.863,6.808-.3.773-1.056,1.707.2,2.4l8.452.015c.314-.382.627-.351.939,0l1.015.085c.318-2.523,1.6-3.853,4.291-3.716a15.46,15.46,0,0,0,3.035-.432c0-1.629,0-3.257,0-5.161Z" transform="translate(-1017.12 -167.299)" fill="#285e94"/>
        <path id="Path_3534" data-name="Path 3534" d="M1365.662,26.179a1.42,1.42,0,0,1,1.03-.955c-.083-2.837,1.322-5.473,1.121-8.326l-5.275-.035-15.932-.081-.8.215a.566.566,0,0,1-.939,0l-3.714-.09a26.864,26.864,0,0,0,1.059,9.086C1350.024,26.432,1357.845,26.072,1365.662,26.179Z" transform="translate(-1154.002 -16.765)" fill="#000c4d"/>
        <path id="Path_3535" data-name="Path 3535" d="M1009.777,331.241a12.214,12.214,0,0,1-4.082-.49c-1.946,2.361-1.924,5.437-3.34,8.28,2.338.109,4.4.569,6.249.4a143.117,143.117,0,0,1,17.873-.135,2.066,2.066,0,0,0,2.228-1.433c.742-2.2,1.527-4.389,2.294-6.582C1023.924,331.266,1016.85,331.24,1009.777,331.241Z" transform="translate(-992.046 -166.866)" fill="#285e94"/>
        <path id="Path_3536" data-name="Path 3536" d="M1389.317,319.475c-1.587-.494-2.183.575-2.522,1.823-3.58-1.283-4.656-3.82-4.651-7.212q.049-33.785-.011-67.569c0-5.467-2.547-8.593-7.844-9.72-.332.033-.465-.07-.27-.4q-.03-18.651-.06-37.3l-.049-.057-.1.03a1.845,1.845,0,0,1-1.757.071l-5.19-.019-.535-.006-1.034.013-.505.316q-.085,1.5-.169,3,0,29.58,0,59.162c-.018.182-.036.364-.054.545-.969,4.176-3.26,6.1-7.491,6.109-10.346.029-20.692.008-31.037.007h-8.4v.06h-43.8v.046l-17.6-.1-6.865-.015-6.119-.024-6.5-.01c-3.017.014-6.037-.054-9.05.064-3.237.127-6.5-.475-9.712.329q0,.464,0,.93,0,3.452-.008,6.9c.155.657.389,1.236,1.214,1.236.841-1.34,1.378-2.946,3.079-3.538,3.145-2.175,7.9-.717,10.258,3.145a11.632,11.632,0,0,0,3.585.389q14.184-.117,28.367-.2h9.344v.016H1318c.433.037.776.072,1.114.073q19.17,0,38.34-.009a14.264,14.264,0,0,0,10.6-4.835,20.7,20.7,0,0,0,5.909-14.61c.029-5.3-.006-10.607.025-15.91,0-.724-.3-1.557.39-2.162,3.494.787,4.885,2.724,4.886,6.848q.008,33.776.007,67.552c0,5.221,1.86,7.877,6.682,9.646.563.207,1.3.158,1.239,1.017-.123,1.851,1.26,1.162,2.15,1.312A11.032,11.032,0,0,0,1389.317,319.475Z" transform="translate(-1095.141 -103.898)" fill="#000c4d"/>
        <path id="Path_3537" data-name="Path 3537" d="M1181.184,26a62.325,62.325,0,0,1-2.051-9.237c-.779.037-1.559.1-2.338.1q-38.841.008-77.682,0c-.779,0-1.557-.078-2.336-.119l-8.969.081c0,.017,0,.033,0,.05h-18.491v.038l-56.167-.014c1.547,4.05.528,7.194-3.3,9.346l47.66.017,17.8-.165.006-.051h9.87c0,.011-.006.022-.008.033.518.029,1.038.082,1.556.082q46.2.007,92.4,0C1179.808,26.163,1180.5,26.059,1181.184,26Z" transform="translate(-995.626 -16.749)" fill="#000c4d"/>
      </g>
      <circle id="Ellipse_126" data-name="Ellipse 126" cx="3" cy="3" r="3" transform="translate(961.317 7.516)" fill="#fff"/>
      <circle id="Ellipse_127" data-name="Ellipse 127" cx="3" cy="3" r="3" transform="translate(970.317 7.516)" fill="#fff"/>
      <circle id="Ellipse_128" data-name="Ellipse 128" cx="3" cy="3" r="3" transform="translate(979.317 7.516)" fill="#fff"/>
      <path id="Path_3539" data-name="Path 3539" d="M1024.636,172.271s1.432,1.051,5.882-.479c1.851-.637,2.186,1.394,1.18,2.4-.9.911-2.97,1.207-3.777,1.439a10.727,10.727,0,0,1-3.285.218,2.227,2.227,0,0,1-.884-2.049C1023.906,172.437,1024.636,172.271,1024.636,172.271Z" fill="#fab59f"/>
    </g>
  </g>
</svg>
