<svg xmlns="http://www.w3.org/2000/svg" width="96" height="86" viewBox="0 0 96 86">
  <g id="Group_924" data-name="Group 924" transform="translate(-235 -1668)">
    <g id="Group_916" data-name="Group 916">
      <circle id="Ellipse_132" data-name="Ellipse 132" cx="26" cy="26" r="26" transform="translate(235 1668)" fill="#95caff"/>
      <circle id="Ellipse_133" data-name="Ellipse 133" cx="15.5" cy="15.5" r="15.5" transform="translate(300 1723)" fill="#ffb4b4"/>
    </g>
    <g id="Research" transform="translate(253 1680)">
      <g id="Group_894" data-name="Group 894" transform="translate(0 0)">
        <g id="Group_893" data-name="Group 893">
          <path id="Path_3614" data-name="Path 3614" d="M59.657,11.108,48.993.346A1.166,1.166,0,0,0,48.164,0h-34.8A3.536,3.536,0,0,0,9.844,3.548V5.8A15.647,15.647,0,0,0,0,20.355a1.178,1.178,0,0,0,1.172,1.183H15.479a1.178,1.178,0,0,0,1.172-1.183V5.914a1.178,1.178,0,0,0-1.172-1.183,15.335,15.335,0,0,0-3.292.357V3.548a1.179,1.179,0,0,1,1.172-1.183H46.992V9.581a3.536,3.536,0,0,0,3.516,3.548h7.148V57.011a1.179,1.179,0,0,1-1.172,1.183H13.359a1.179,1.179,0,0,1-1.172-1.183V46.878a1.172,1.172,0,1,0-2.344,0V57.011a3.536,3.536,0,0,0,3.516,3.548H56.484A3.536,3.536,0,0,0,60,57.011V11.945A1.188,1.188,0,0,0,59.657,11.108ZM14.307,7.149V19.172H2.4A13.219,13.219,0,0,1,14.307,7.149Zm36.2,3.614a1.179,1.179,0,0,1-1.172-1.183V4.038L56,10.764Z" transform="translate(0 0)" fill="#13406d" stroke="#13406d" stroke-width="0.5"/>
        </g>
      </g>
      <g id="Group_896" data-name="Group 896" transform="translate(9.84 41.398)">
        <g id="Group_895" data-name="Group 895">
          <path id="Path_3615" data-name="Path 3615" d="M86.019,350.347a1.182,1.182,0,1,0,.347.836A1.191,1.191,0,0,0,86.019,350.347Z" transform="translate(-84 -350)" fill="#ce1212"/>
        </g>
      </g>
      <g id="Group_898" data-name="Group 898" transform="translate(4.237 8.968)">
        <g id="Group_897" data-name="Group 897">
          <path id="Path_3616" data-name="Path 3616" d="M51.443,75.819A1.183,1.183,0,0,0,50.26,77V90.26H37a1.183,1.183,0,0,0-1.183,1.183A15.624,15.624,0,1,0,51.443,75.819Zm1.183,2.418a13.2,13.2,0,0,1,7.314,3.036l-7.314,7.314ZM51.443,104.7A13.276,13.276,0,0,1,38.237,92.625H51.443a1.179,1.179,0,0,0,.836-.346h0l9.333-9.333A13.251,13.251,0,0,1,51.443,104.7Z" transform="translate(-35.819 -75.819)" fill="#ce1212"/>
        </g>
      </g>
      <g id="Group_900" data-name="Group 900" transform="translate(17.644 37.33)">
        <g id="Group_899" data-name="Group 899">
          <path id="Path_3617" data-name="Path 3617" d="M187.517,315.605a3.548,3.548,0,0,0-3.268,4.931l-6.814,6.814a3.542,3.542,0,0,0-3.064-.016l-4.525-4.525a3.549,3.549,0,1,0-6.526.194l-4.34,4.34a3.549,3.549,0,1,0,1.675,1.671l4.316-4.316a3.537,3.537,0,0,0,3.323-.1l4.4,4.4a3.549,3.549,0,1,0,6.406.034l6.751-6.751a3.548,3.548,0,1,0,1.669-6.679Zm-30.063,16.126a1.183,1.183,0,1,1,.818-2.035l.014.015.018.016a1.181,1.181,0,0,1-.85,2Zm9.087-9.029a1.183,1.183,0,1,1,1.183-1.183A1.184,1.184,0,0,1,166.541,322.7Zm9.345,9.024a1.183,1.183,0,1,1,1.183-1.183A1.184,1.184,0,0,1,175.885,331.726Zm11.631-11.389a1.183,1.183,0,1,1,1.183-1.183A1.184,1.184,0,0,1,187.516,320.336Z" transform="translate(-153.905 -315.605)" fill="#ce1212"/>
        </g>
      </g>
      <g id="Group_902" data-name="Group 902" transform="translate(38.063 27.796)">
        <g id="Group_901" data-name="Group 901">
          <path id="Path_3618" data-name="Path 3618" d="M332.737,235h-6.243a1.183,1.183,0,0,0,0,2.366h6.243a1.183,1.183,0,1,0,0-2.366Z" transform="translate(-325.311 -235)" fill="#ce1212"/>
        </g>
      </g>
      <g id="Group_904" data-name="Group 904" transform="translate(49.546 27.796)">
        <g id="Group_903" data-name="Group 903">
          <path id="Path_3619" data-name="Path 3619" d="M425.639,235.347a1.182,1.182,0,1,0,.347.836A1.191,1.191,0,0,0,425.639,235.347Z" transform="translate(-423.62 -235)" fill="#ce1212"/>
        </g>
      </g>
      <g id="Group_906" data-name="Group 906" transform="translate(37.918 16.441)">
        <g id="Group_905" data-name="Group 905">
          <path id="Path_3620" data-name="Path 3620" d="M340.942,139H326.494a1.183,1.183,0,0,0,0,2.366h14.448a1.183,1.183,0,0,0,0-2.366Z" transform="translate(-325.311 -139)" fill="#ce1212"/>
        </g>
      </g>
      <g id="Group_908" data-name="Group 908" transform="translate(37.918 22.118)">
        <g id="Group_907" data-name="Group 907">
          <path id="Path_3621" data-name="Path 3621" d="M340.942,187H326.494a1.183,1.183,0,0,0,0,2.366h14.448a1.183,1.183,0,0,0,0-2.366Z" transform="translate(-325.311 -187)" fill="#ce1212"/>
        </g>
      </g>
    </g>
  </g>
</svg>
