<svg xmlns="http://www.w3.org/2000/svg" viewBox="0 0 580.25085 150.2625" class="logo">
	<g transform="matrix(1.25,0,0,-1.25,-233.3655,473.18113)">
	<g transform="translate(235.9844,272.0879)">
	<path d="m 0,0 44.302,104.33 4.991,0 -47.781,-111.891 -3.175,0 -47.629,111.891 5.141,0 L 0,0 z" class="logo-letter" fill="#999"></path></g><path d="m 428.502,264.528 -4.536,0 0,111.89 4.536,0 0,-111.89 z" class="logo-letter" fill="#999"></path><g> 
	<g transform="translate(475.9805,376.4175)"><path d="m 0,0 c 17.39,0 24.343,-1.512 29.787,-4.687 9.072,-4.536 16.178,-16.784 16.178,-29.787 0.605,-13.911 -8.617,-34.928 -32.962,-35.079 l -4.385,-0.151 30.09,-42.186 -5.746,0 -32.811,46.268 6.955,0 c 10.584,0 17.389,0.907 24.798,7.107 7.108,7.409 9.526,15.12 9.526,23.89 0,9.677 -4.687,20.412 -13.307,26.007 C 21.319,-4.233 13.154,-4.082 0,-4.082 l -21.018,0 0,-107.808 -4.536,0 0,111.89 L 0,0 z" class="logo-letter" fill="#999"></path></g><g transform="translate(592.8311,266.6445)"><path d="m 0,0 c 29.635,0 53.524,22.832 53.524,53.828 0,30.997 -23.889,53.827 -53.524,53.827 -29.636,0 -53.526,-22.83 -53.526,-53.827 C -53.526,22.832 -29.636,0 0,0 m 0,111.739 c 32.055,0 58.062,-24.343 58.062,-57.911 C 58.062,20.262 32.055,-4.083 0,-4.083 c -32.056,0 -58.063,24.345 -58.063,57.911 0,33.568 26.007,57.911 58.063,57.911" class="logo-letter" fill="#999"></path></g></g><g class="logo-O"><g transform="translate(317.4546,364.6709)"><path d="M 0,0 84.276,-35.989 C 80.861,-9.79 58.235,10.326 31.51,10.326 20.17,10.326 9.092,6.678 0,0 m 88.328,-41.577 -95.17,40.641 2.249,1.855 c 10.13,8.354 22.951,12.955 36.103,12.955 29.566,0 54.429,-23.08 56.604,-52.544 l 0.214,-2.907 z" class="logo-letter-1" fill="#b5b5b5"></path></g><g transform="translate(306.3745,281.9756)"><path d="m 0,0 -0.802,0.823 c -9.887,10.148 -15.333,23.531 -15.333,37.686 0,14.333 5.564,27.837 15.668,38.025 L 0.338,77.347 91.702,38.499 0,0 z" class="logo-letter-2" fill="#3CB7BD"></path></g><g transform="translate(315.9497,276.8281)"><path d="m 0,0 c 9.247,-6.788 20.511,-10.497 32.041,-10.497 27.113,0 50.118,20.402 53.652,46.974 L 0,0 z m 32.041,-14.104 c -13.374,0 -26.413,4.678 -36.715,13.171 L -6.966,0.956 89.83,42.16 89.604,39.2 C 87.325,9.31 62.04,-14.104 32.041,-14.104" class="logo-letter-3" fill="#DA7070"></path></g>
	 </g> 
	 </g>
 </svg>