<svg id="W__takshashila_logo" data-name="W__takshashila logo" xmlns="http://www.w3.org/2000/svg" width="190" height="67" viewBox="0 0 190 67">
  <path id="Fill_1" data-name="Fill 1" d="M0,0V6.59H2.73V0H0" transform="translate(40.402 13.18)" fill="#4d1630"/>
  <path id="Fill_2" data-name="Fill 2" d="M1.638,6.59V1.728A1.778,1.778,0,0,0,0,0V6.59H1.638" transform="translate(40.402 27.459)" fill="#4d1630"/>
  <path id="Fill_3" data-name="Fill 3" d="M3.365,67A29.822,29.822,0,0,1,0,66.81L4.589,24.467,1.837,23.2V21.614H3.426V13.455h-1.1l0-1.445L9.57,6.168H9.7V4.838h.683l1.064-1.976h.5V1.653h.673V.333A.322.322,0,0,1,12.936,0,.333.333,0,0,1,13.1.042V13.079H10.125v6.759H13.1v7.615l-.018,0-.016,0h-.013c-.036,0-.081-.008-.114-.008s-.091,0-.129.009a1.722,1.722,0,0,0-1.567,1.706v4.783H13.1l0,31.415-.083.029-.085.03A29.423,29.423,0,0,1,3.365,67ZM9.118,13.079l-1.311.4-2.965.9v6.038l4.277-.574V13.079Z" transform="translate(26.753)" fill="#4d1630"/>
  <path id="Fill_4" data-name="Fill 4" d="M14.3.02A30.549,30.549,0,0,0,0,4.131L15.463,8.787V7.879H14.346l0-1.429L21.712.675h.127A30.878,30.878,0,0,0,15.4,0q-.552,0-1.1.02" transform="translate(14.741 5.492)" fill="#e79c31"/>
  <path id="Fill_5" data-name="Fill 5" d="M1.153,0H0V1.1L1.638.521Q1.4.258,1.153,0" transform="translate(49.684 13.73)" fill="#e79c31"/>
  <path id="Fill_6" data-name="Fill 6" d="M9.426,2.372,1.2,0V1.2H2.849V2.788L0,4.061,3.728,37.344a30.534,30.534,0,0,0,8.829-21.491A30.422,30.422,0,0,0,9.426,2.372" transform="translate(48.592 20.32)" fill="#e79c31"/>
  <path id="Fill_7" data-name="Fill 7" d="M28.881,1.2h1.608V0L.813,8.692a30.644,30.644,0,0,0,26.21,37.439l4.644-42.1L28.881,2.768V1.2" transform="translate(0 20.32)" fill="#e79c31"/>
  <path id="Fill_8" data-name="Fill 8" d="M0,19.221,30.029,10.6V4.644L14.464,0A30.429,30.429,0,0,0,0,19.221" transform="translate(0.546 9.885)" fill="#f9e91e"/>
  <path id="Fill_9" data-name="Fill 9" d="M1.6,0,0,.477V6.445L8.19,8.787A30.554,30.554,0,0,0,1.6,0" transform="translate(49.684 13.73)" fill="#f9e91e"/>
  <path id="Fill_10" data-name="Fill 10" d="M0,65.353H0V33.906H1.7V29.127a1.72,1.72,0,0,0-1.568-1.7A1.239,1.239,0,0,0,0,27.415l0-7.594H2.84V13.067H0V0A.34.34,0,0,1,.338.333V1.652h.675V2.858h.5L2.584,4.833H3.27V6.162H3.4L10.662,12v1.444h-1.1v8.151h1.595v1.581L8.4,24.446l3.615,33.208A30.232,30.232,0,0,1,0,65.352ZM3.854,13.067V19.82l4.289.574V14.36Z" transform="translate(39.856)" fill="#411528"/>
  <path id="Fill_11" data-name="Fill 11" d="M1.34.386,0,0V6.58l4.368.559V1.261L1.34.386" transform="translate(44.224 13.18)" fill="#f9c734"/>
  <path id="Fill_12" data-name="Fill 12" d="M.126.009A1.228,1.228,0,0,0,0,0V6.59H1.638V1.739A1.707,1.707,0,0,0,.126.009" transform="translate(39.856 27.459)" fill="#f9c734"/>
  <path id="Fill_13" data-name="Fill 13" d="M0,.387v6.2H2.73V0H0V.387" transform="translate(39.856 13.18)" fill="#f9c734"/>
  <path id="Fill_14" data-name="Fill 14" d="M0,1.261V7.139L4.368,6.58V0L3.028.386,0,1.261" transform="translate(31.667 13.18)" fill="#f9e91e"/>
  <path id="Fill_15" data-name="Fill 15" d="M2.73.387V0H0V6.59H2.73V.387" transform="translate(37.126 13.18)" fill="#f9e91e"/>
  <path id="Fill_16" data-name="Fill 16" d="M0,1.739V6.59H1.638V0a1.214,1.214,0,0,0-.126.009A1.707,1.707,0,0,0,0,1.739" transform="translate(38.218 27.459)" fill="#f9e91e"/>
  <path id="Fill_17" data-name="Fill 17" d="M2.948,8.022a4.036,4.036,0,0,0,.023.435,1.02,1.02,0,0,0,.117.388.653.653,0,0,0,.3.272,1.331,1.331,0,0,0,.577.1.983.983,0,0,1,.273.031c.067.02.111.119.132.295a.419.419,0,0,1-.07.233.235.235,0,0,1-.211.109q-1.015-.048-1.935-.047-.468,0-.92.008t-.952.039a.232.232,0,0,1-.219-.109A.459.459,0,0,1,0,9.544c.01-.176.052-.275.125-.295A1,1,0,0,1,.39,9.218a1.331,1.331,0,0,0,.577-.1.661.661,0,0,0,.3-.272,1.031,1.031,0,0,0,.117-.388c.016-.145.029-.289.039-.435V1.862Q1.4,1.644,1.38,1.427a1.037,1.037,0,0,0-.117-.388.666.666,0,0,0-.3-.272A1.322,1.322,0,0,0,.39.667.973.973,0,0,1,.125.637C.052.616.01.517,0,.342A.461.461,0,0,1,.062.109.232.232,0,0,1,.281,0c.333.021.647.034.944.039s.6.007.912.007Q3.073.046,4.088,0A.235.235,0,0,1,4.3.109a.42.42,0,0,1,.07.233C4.347.517,4.3.616,4.235.637a.961.961,0,0,1-.273.031,1.322,1.322,0,0,0-.577.1.658.658,0,0,0-.3.272,1.027,1.027,0,0,0-.117.388,4.045,4.045,0,0,0-.023.435v6.16" transform="translate(67.701 36.795)" fill="#fff"/>
  <path id="Fill_18" data-name="Fill 18" d="M2.2,1.9H2.15l.031,6.131c0,.145,0,.289.016.433a.916.916,0,0,0,.11.386.665.665,0,0,0,.29.271,1.3,1.3,0,0,0,.573.1,1.088,1.088,0,0,1,.283.03c.073.02.115.118.126.294a.414.414,0,0,1-.071.232.237.237,0,0,1-.212.108q-.25-.016-.431-.023l-.345-.015c-.11-.005-.222-.008-.338-.008H1.373c-.11,0-.214,0-.313.008l-.322.015q-.173.007-.424.023a.233.233,0,0,1-.22-.108.454.454,0,0,1-.063-.232c.011-.175.05-.273.118-.294a1,1,0,0,1,.275-.03A1.3,1.3,0,0,0,1,9.121a.67.67,0,0,0,.29-.271.915.915,0,0,0,.11-.386c.01-.144.016-.288.016-.433L1.444,1.9a2.207,2.207,0,0,0-.063-.579A.768.768,0,0,0,1.193.973.869.869,0,0,0,.871.78,2.811,2.811,0,0,0,.393.665,1.456,1.456,0,0,1,.079.579C.026.554,0,.464,0,.309Q0,.047.18.023A3.587,3.587,0,0,1,.627,0,6.837,6.837,0,0,1,1.742.077,2.8,2.8,0,0,1,2.558.34a2.688,2.688,0,0,1,.675.5,7.953,7.953,0,0,1,.675.795l4.3,5.56h.047L8.223,1.9q0-.217-.016-.433a.929.929,0,0,0-.11-.386.672.672,0,0,0-.29-.27,1.289,1.289,0,0,0-.573-.1A.971.971,0,0,1,6.96.68C6.892.659,6.847.561,6.827.386A.411.411,0,0,1,6.9.155.235.235,0,0,1,7.109.046c.167.01.311.018.431.023l.337.017c.1,0,.215.007.33.007h.808c.11,0,.217,0,.322-.007L9.667.069c.116,0,.257-.013.424-.023a.233.233,0,0,1,.22.108.455.455,0,0,1,.063.232c-.011.174-.05.273-.118.294a.974.974,0,0,1-.275.03,1.288,1.288,0,0,0-.573.1.671.671,0,0,0-.29.27.921.921,0,0,0-.11.386q-.015.216-.016.433L8.961,9.684a.186.186,0,0,1-.149.163.891.891,0,0,1-.243.039.542.542,0,0,1-.455-.2L2.2,1.9" transform="translate(73.707 36.795)" fill="#fff"/>
  <path id="Fill_19" data-name="Fill 19" d="M3.407,9.812a2.51,2.51,0,0,0,.907-.155,2.172,2.172,0,0,0,.678-.4,1.675,1.675,0,0,0,.418-.568,1.567,1.567,0,0,0,.142-.645,1.485,1.485,0,0,0-.394-1.058,3.736,3.736,0,0,0-.978-.731A13.694,13.694,0,0,0,2.91,5.66a9.014,9.014,0,0,1-1.285-.645,3.58,3.58,0,0,1-1-.894A2.22,2.22,0,0,1,.2,2.783a2.768,2.768,0,0,1,.237-1.26A2.223,2.223,0,0,1,1.16.66a3.266,3.266,0,0,1,1.1-.5A5.416,5.416,0,0,1,3.612,0,5.347,5.347,0,0,1,4.669.108a3.429,3.429,0,0,1,.962.343,2.045,2.045,0,0,1,.694.606,1.505,1.505,0,0,1,.268.9,1.219,1.219,0,0,1-.386.925,1.4,1.4,0,0,1-1,.366.848.848,0,0,1-.575-.211.5.5,0,0,1-.165-.274c0-.021.039-.044.118-.07a1.1,1.1,0,0,0,.26-.133A1.025,1.025,0,0,0,5.1,2.3a.746.746,0,0,0,.119-.446A1.05,1.05,0,0,0,4.763.942,1.927,1.927,0,0,0,3.628.622a2.648,2.648,0,0,0-.891.133A1.83,1.83,0,0,0,2.13,1.1a1.279,1.279,0,0,0-.347.492,1.57,1.57,0,0,0-.111.578,1.37,1.37,0,0,0,.316.938,3.422,3.422,0,0,0,.947.7q.71.374,1.443.685a8.251,8.251,0,0,1,1.341.715,3.569,3.569,0,0,1,.994.98A2.635,2.635,0,0,1,7.1,7.681a2.151,2.151,0,0,1-.292,1.1,2.84,2.84,0,0,1-.789.871,3.919,3.919,0,0,1-1.175.575,4.814,4.814,0,0,1-1.435.21,4.722,4.722,0,0,1-2.532-.56A1.861,1.861,0,0,1,0,8.195a1.218,1.218,0,0,1,.387-.925,1.4,1.4,0,0,1,1-.366.863.863,0,0,1,.576.21.506.506,0,0,1,.165.273c0,.02-.029.044-.087.07a.9.9,0,0,0-.2.132.866.866,0,0,0-.2.257.949.949,0,0,0-.087.443A1.464,1.464,0,0,0,2,9.4a2.007,2.007,0,0,0,1.412.412" transform="translate(85.172 36.795)" fill="#fff"/>
  <path id="Fill_20" data-name="Fill 20" d="M8.258,0a.524.524,0,0,1,.294.079.327.327,0,0,1,.12.3l.064,2.2a.254.254,0,0,1-.136.234.528.528,0,0,1-.262.078A.872.872,0,0,1,8,2.814a.3.3,0,0,1-.2-.21,7.926,7.926,0,0,0-.183-.9,2.163,2.163,0,0,0-.27-.623A1,1,0,0,0,6.913.71,1.837,1.837,0,0,0,6.238.578H5.155V8.014a4.153,4.153,0,0,0,.023.437,1.014,1.014,0,0,0,.12.389.662.662,0,0,0,.3.273,1.373,1.373,0,0,0,.589.1,1.032,1.032,0,0,1,.271.031c.074.02.117.12.127.3a.462.462,0,0,1-.063.234.238.238,0,0,1-.223.109q-.509-.032-.963-.039t-.915-.008q-.971,0-1.989.047a.237.237,0,0,1-.223-.109.456.456,0,0,1-.063-.234c.01-.177.05-.276.119-.3a1.011,1.011,0,0,1,.279-.031,1.37,1.37,0,0,0,.588-.1.664.664,0,0,0,.3-.273,1.014,1.014,0,0,0,.12-.389,4,4,0,0,0,.024-.437V.578h-1.1A1.841,1.841,0,0,0,1.806.71a1,1,0,0,0-.43.367,2,2,0,0,0-.262.623q-.1.374-.175.9a.3.3,0,0,1-.207.21.934.934,0,0,1-.35.07.488.488,0,0,1-.255-.078A.257.257,0,0,1,0,2.573L.047.375a.319.319,0,0,1,.128-.3A.567.567,0,0,1,.477,0H8.258" transform="translate(93.908 36.795)" fill="#fff"/>
  <path id="Fill_21" data-name="Fill 21" d="M2.948,8.022a4.036,4.036,0,0,0,.023.435,1.02,1.02,0,0,0,.117.388.657.657,0,0,0,.3.272,1.329,1.329,0,0,0,.577.1.983.983,0,0,1,.273.031c.067.02.111.119.132.295a.424.424,0,0,1-.07.233.235.235,0,0,1-.211.109q-1.014-.048-1.935-.047-.468,0-.92.008T.28,9.885a.232.232,0,0,1-.218-.109A.459.459,0,0,1,0,9.544c.01-.176.052-.275.125-.295A.989.989,0,0,1,.39,9.218a1.332,1.332,0,0,0,.577-.1.661.661,0,0,0,.3-.272,1.031,1.031,0,0,0,.117-.388c.015-.145.028-.289.038-.435V1.862q-.016-.218-.038-.435a1.038,1.038,0,0,0-.117-.388.666.666,0,0,0-.3-.272A1.324,1.324,0,0,0,.39.667.965.965,0,0,1,.125.637C.052.616.01.517,0,.342A.461.461,0,0,1,.062.109.232.232,0,0,1,.28,0c.333.021.648.034.944.039s.6.007.912.007Q3.073.046,4.088,0A.235.235,0,0,1,4.3.109a.425.425,0,0,1,.07.233C4.347.517,4.3.616,4.235.637a.961.961,0,0,1-.273.031,1.32,1.32,0,0,0-.577.1.663.663,0,0,0-.3.272,1.026,1.026,0,0,0-.117.388,4.045,4.045,0,0,0-.023.435v6.16" transform="translate(104.282 36.795)" fill="#fff"/>
  <path id="Fill_22" data-name="Fill 22" d="M8.258,0a.524.524,0,0,1,.294.079.327.327,0,0,1,.12.3l.063,2.2a.253.253,0,0,1-.135.234.528.528,0,0,1-.263.078A.874.874,0,0,1,8,2.814a.3.3,0,0,1-.2-.21,7.937,7.937,0,0,0-.183-.9,2.163,2.163,0,0,0-.271-.623A1,1,0,0,0,6.914.71,1.847,1.847,0,0,0,6.237.578H5.155V8.014a4,4,0,0,0,.024.437,1.024,1.024,0,0,0,.12.389.667.667,0,0,0,.3.273,1.374,1.374,0,0,0,.589.1,1.027,1.027,0,0,1,.27.031c.074.02.117.12.128.3a.456.456,0,0,1-.064.234.236.236,0,0,1-.223.109q-.509-.032-.963-.039t-.915-.008q-.972,0-1.99.047a.236.236,0,0,1-.223-.109.456.456,0,0,1-.064-.234c.011-.177.05-.276.12-.3a1.014,1.014,0,0,1,.279-.031,1.37,1.37,0,0,0,.588-.1.668.668,0,0,0,.3-.273,1.035,1.035,0,0,0,.119-.389,4,4,0,0,0,.024-.437V.578h-1.1A1.847,1.847,0,0,0,1.806.71a1,1,0,0,0-.429.367,2.019,2.019,0,0,0-.263.623c-.063.249-.122.551-.175.9a.3.3,0,0,1-.207.21.934.934,0,0,1-.35.07.486.486,0,0,1-.255-.078A.256.256,0,0,1,0,2.573L.047.375a.318.318,0,0,1,.128-.3A.565.565,0,0,1,.477,0H8.258" transform="translate(109.741 36.795)" fill="#fff"/>
  <path id="Fill_23" data-name="Fill 23" d="M8.805,7.275a2.789,2.789,0,0,1-.353,1.444,3.138,3.138,0,0,1-.9.982,3.781,3.781,0,0,1-1.2.558,4.829,4.829,0,0,1-1.252.176,4.574,4.574,0,0,1-1.621-.264A3.457,3.457,0,0,1,2.32,9.477a2.921,2.921,0,0,1-.7-.982,2.843,2.843,0,0,1-.238-1.14V1.915a4.338,4.338,0,0,0-.023-.447,1.09,1.09,0,0,0-.116-.4A.662.662,0,0,0,.952.79a1.253,1.253,0,0,0-.569-.1A.9.9,0,0,1,.115.654C.048.633.009.531,0,.351A.49.49,0,0,1,.061.112.225.225,0,0,1,.277,0C.6.022.911.034,1.2.041s.585.007.892.007Q3.011.047,4.011,0a.226.226,0,0,1,.216.112.5.5,0,0,1,.061.239Q4.272.59,4.195.638A.41.41,0,0,1,3.98.686a1.4,1.4,0,0,0-.608.1.779.779,0,0,0-.315.271.885.885,0,0,0-.131.391c-.015.149-.023.3-.023.463V6.892a5.169,5.169,0,0,0,.076.869,2.156,2.156,0,0,0,.331.838,1.964,1.964,0,0,0,.738.638,2.8,2.8,0,0,0,1.3.255,3.374,3.374,0,0,0,1.283-.207,2.034,2.034,0,0,0,.792-.551,1.978,1.978,0,0,0,.408-.766,3.224,3.224,0,0,0,.115-.854V2.92q0-.781-.038-1.229a1.75,1.75,0,0,0-.162-.67A.541.541,0,0,0,7.384.742,2.839,2.839,0,0,0,6.762.686.921.921,0,0,1,6.5.654c-.072-.022-.113-.123-.123-.3A.49.49,0,0,1,6.439.112.224.224,0,0,1,6.654,0c.328.022.62.034.876.041s.537.007.846.007.589,0,.845-.007S9.769.022,10.1,0a.223.223,0,0,1,.214.112.491.491,0,0,1,.062.239q-.016.239-.093.287a.412.412,0,0,1-.215.047A3.8,3.8,0,0,0,9.4.734.554.554,0,0,0,9.013.99a1.463,1.463,0,0,0-.169.638q-.038.431-.039,1.2V7.275" transform="translate(120.115 36.795)" fill="#fff"/>
  <path id="Fill_24" data-name="Fill 24" d="M8.258,0a.524.524,0,0,1,.294.079.327.327,0,0,1,.119.3l.064,2.2a.255.255,0,0,1-.136.234.53.53,0,0,1-.263.078A.874.874,0,0,1,8,2.814a.3.3,0,0,1-.2-.21,7.8,7.8,0,0,0-.183-.9,2.146,2.146,0,0,0-.27-.623A1,1,0,0,0,6.913.71,1.84,1.84,0,0,0,6.237.578H5.156V8.014a4,4,0,0,0,.023.437,1,1,0,0,0,.12.389.665.665,0,0,0,.3.273,1.375,1.375,0,0,0,.589.1,1.04,1.04,0,0,1,.271.031c.074.02.116.12.127.3a.462.462,0,0,1-.064.234.236.236,0,0,1-.223.109c-.34-.021-.66-.034-.963-.039s-.607-.008-.915-.008q-.971,0-1.989.047a.236.236,0,0,1-.223-.109.451.451,0,0,1-.064-.234c.01-.177.05-.276.12-.3a1.011,1.011,0,0,1,.278-.031,1.372,1.372,0,0,0,.588-.1.67.67,0,0,0,.3-.273,1.013,1.013,0,0,0,.119-.389,3.848,3.848,0,0,0,.024-.437V.578h-1.1A1.836,1.836,0,0,0,1.807.71a1,1,0,0,0-.431.367,2.019,2.019,0,0,0-.262.623,9.041,9.041,0,0,0-.175.9.305.305,0,0,1-.207.21.936.936,0,0,1-.35.07.486.486,0,0,1-.255-.078A.257.257,0,0,1,0,2.573L.048.375a.319.319,0,0,1,.127-.3A.567.567,0,0,1,.478,0h7.78" transform="translate(132.126 36.795)" fill="#fff"/>
  <path id="Fill_25" data-name="Fill 25" d="M2.948,8.022a3.889,3.889,0,0,0,.024.435,1,1,0,0,0,.117.388.653.653,0,0,0,.3.272,1.33,1.33,0,0,0,.577.1.98.98,0,0,1,.273.031c.067.02.112.119.133.295a.424.424,0,0,1-.07.233.236.236,0,0,1-.211.109q-1.014-.048-1.935-.047-.467,0-.92.008t-.951.039a.23.23,0,0,1-.218-.109A.454.454,0,0,1,0,9.544c.01-.176.052-.275.124-.295A1,1,0,0,1,.39,9.218a1.332,1.332,0,0,0,.577-.1.667.667,0,0,0,.3-.272,1.019,1.019,0,0,0,.116-.388c.016-.145.029-.289.039-.435V1.862Q1.4,1.644,1.38,1.427a1.026,1.026,0,0,0-.116-.388.672.672,0,0,0-.3-.272A1.323,1.323,0,0,0,.39.667.977.977,0,0,1,.124.637C.052.616.01.517,0,.342A.455.455,0,0,1,.063.109.23.23,0,0,1,.281,0c.333.021.647.034.944.039s.6.007.912.007q.936,0,1.95-.046A.236.236,0,0,1,4.3.109a.425.425,0,0,1,.07.233C4.347.517,4.3.616,4.235.637a.958.958,0,0,1-.273.031,1.321,1.321,0,0,0-.577.1.658.658,0,0,0-.3.272,1,1,0,0,0-.117.388,3.9,3.9,0,0,0-.024.435v6.16" transform="translate(141.954 36.795)" fill="#fff"/>
  <path id="Fill_26" data-name="Fill 26" d="M4.891,10.435a4.81,4.81,0,0,1-2.039-.42A4.652,4.652,0,0,1,1.319,8.887,5.169,5.169,0,0,1,.346,7.262,5.411,5.411,0,0,1,0,5.349,5.575,5.575,0,0,1,.445,3.063a5.369,5.369,0,0,1,1.15-1.679A4.871,4.871,0,0,1,3.174.349,4.62,4.62,0,0,1,4.891,0,4.9,4.9,0,0,1,6.953.419,4.705,4.705,0,0,1,8.5,1.547a5.106,5.106,0,0,1,.982,1.625,5.368,5.368,0,0,1,.345,1.9,5.491,5.491,0,0,1-.452,2.286A5.421,5.421,0,0,1,8.211,9.034a4.993,4.993,0,0,1-1.595,1.041A4.573,4.573,0,0,1,4.891,10.435ZM4.875.669a2.547,2.547,0,0,0-1.395.373,3,3,0,0,0-.958,1.012A4.883,4.883,0,0,0,1.97,3.53,8.612,8.612,0,0,0,1.794,5.3a7.564,7.564,0,0,0,.185,1.688A4.59,4.59,0,0,0,2.545,8.4a3.033,3.033,0,0,0,.966.98,2.532,2.532,0,0,0,1.364.365,2.542,2.542,0,0,0,1.4-.381,3.061,3.061,0,0,0,.974-1.026A5,5,0,0,0,7.819,6.85,8.436,8.436,0,0,0,8,5.069,7.156,7.156,0,0,0,7.811,3.4,4.543,4.543,0,0,0,7.229,1.99a3.019,3.019,0,0,0-.981-.964A2.606,2.606,0,0,0,4.875.669Z" transform="translate(147.96 36.795)" fill="#fff"/>
  <path id="Fill_27" data-name="Fill 27" d="M2.2,1.9H2.15l.031,6.131c0,.145,0,.289.016.433a.916.916,0,0,0,.11.386.663.663,0,0,0,.29.271,1.293,1.293,0,0,0,.572.1,1.084,1.084,0,0,1,.283.03c.073.02.116.118.126.294a.414.414,0,0,1-.071.232.236.236,0,0,1-.212.108c-.168-.011-.311-.018-.432-.023l-.345-.015c-.11-.005-.222-.008-.338-.008H1.373c-.11,0-.215,0-.314.008l-.322.015q-.173.007-.424.023a.234.234,0,0,1-.22-.108.453.453,0,0,1-.062-.232c.01-.175.05-.273.117-.294a1,1,0,0,1,.275-.03A1.3,1.3,0,0,0,1,9.121a.667.667,0,0,0,.29-.271.934.934,0,0,0,.11-.386c.01-.144.015-.288.015-.433L1.444,1.9a2.181,2.181,0,0,0-.063-.579A.773.773,0,0,0,1.193.973.869.869,0,0,0,.871.78,2.8,2.8,0,0,0,.392.665,1.458,1.458,0,0,1,.079.579C.026.554,0,.464,0,.309,0,.135.061.039.18.023A3.594,3.594,0,0,1,.627,0,6.832,6.832,0,0,1,1.742.077,2.8,2.8,0,0,1,2.558.34a2.678,2.678,0,0,1,.675.5,7.873,7.873,0,0,1,.675.795l4.3,5.56h.047L8.224,1.9c0-.145-.006-.289-.016-.433a.929.929,0,0,0-.11-.386.672.672,0,0,0-.29-.27,1.288,1.288,0,0,0-.573-.1A.974.974,0,0,1,6.96.68C6.892.659,6.847.561,6.827.386A.415.415,0,0,1,6.9.155.238.238,0,0,1,7.109.046c.167.01.311.018.431.023l.338.017c.1,0,.214.007.329.007h.808c.11,0,.217,0,.322-.007l.33-.017c.115,0,.256-.013.424-.023a.233.233,0,0,1,.22.108.455.455,0,0,1,.063.232c-.01.174-.05.273-.118.294a.971.971,0,0,1-.275.03,1.285,1.285,0,0,0-.572.1.669.669,0,0,0-.29.27.921.921,0,0,0-.11.386q-.015.216-.016.433L8.961,9.684a.188.188,0,0,1-.149.163.887.887,0,0,1-.243.039.542.542,0,0,1-.455-.2L2.2,1.9" transform="translate(159.425 36.795)" fill="#fff"/>
  <path id="Fill_28" data-name="Fill 28" d="M9.807,0a.61.61,0,0,1,.35.1A.406.406,0,0,1,10.3.457l.075,2.687a.313.313,0,0,1-.16.286.618.618,0,0,1-.312.095A1.006,1.006,0,0,1,9.5,3.44a.365.365,0,0,1-.236-.257,9.976,9.976,0,0,0-.217-1.106,2.68,2.68,0,0,0-.321-.762A1.2,1.2,0,0,0,8.21.867a2.149,2.149,0,0,0-.8-.162H6.122V9.8a4.916,4.916,0,0,0,.029.534,1.264,1.264,0,0,0,.141.476.8.8,0,0,0,.359.334,1.588,1.588,0,0,0,.7.124,1.194,1.194,0,0,1,.322.038q.131.039.151.362a.577.577,0,0,1-.076.286.279.279,0,0,1-.265.133q-.6-.038-1.143-.047t-1.087-.01q-1.153,0-2.362.057a.278.278,0,0,1-.264-.133.57.57,0,0,1-.075-.286q.018-.324.141-.362a1.167,1.167,0,0,1,.331-.038,1.588,1.588,0,0,0,.7-.124.807.807,0,0,0,.359-.334,1.275,1.275,0,0,0,.141-.476A5.073,5.073,0,0,0,4.251,9.8V.705h-1.3a2.152,2.152,0,0,0-.8.162,1.2,1.2,0,0,0-.511.448,2.516,2.516,0,0,0-.311.762q-.113.458-.208,1.106a.369.369,0,0,1-.246.257,1.076,1.076,0,0,1-.416.086.566.566,0,0,1-.3-.095A.316.316,0,0,1,0,3.145L.057.457A.4.4,0,0,1,.208.1.658.658,0,0,1,.567,0h9.24" transform="translate(64.971 20.32)" fill="#fff"/>
  <path id="Fill_29" data-name="Fill 29" d="M12.221,12.082h0c-.425-.026-.768-.041-1.049-.046s-.608-.01-1.011-.01c-.739,0-1.519.019-2.32.056a.275.275,0,0,1-.262-.131.564.564,0,0,1-.075-.283c.012-.212.059-.333.14-.359a1.169,1.169,0,0,1,.327-.037,2.209,2.209,0,0,0,.693-.086.47.47,0,0,0,.309-.255.866.866,0,0,0,.019-.444,3.828,3.828,0,0,0-.2-.67L8.159,8.25H3.537c-.328.842-.507,1.31-.6,1.566-.1.314-.166.575-.206.774a.534.534,0,0,0,.057.435.613.613,0,0,0,.42.2,5.958,5.958,0,0,0,.851.048,1.182,1.182,0,0,1,.328.037c.081.026.128.147.14.359a.517.517,0,0,1-.085.283.276.276,0,0,1-.252.131c-.425-.026-.765-.041-1.039-.046s-.6-.01-1-.01H1.666c-.15,0-.282,0-.4.01l-.293.013-.119.005c-.143.006-.317.016-.515.028a.275.275,0,0,1-.261-.131A.565.565,0,0,1,0,11.667c.013-.212.06-.333.14-.359a1.191,1.191,0,0,1,.328-.037,1.318,1.318,0,0,0,.608-.122,1.168,1.168,0,0,0,.392-.331,2.133,2.133,0,0,0,.272-.472l.224-.529L5.24,2a1.075,1.075,0,0,0,.094-.548.6.6,0,0,0-.177-.339A.9.9,0,0,0,4.8.916a3.348,3.348,0,0,0-.44-.1,1.692,1.692,0,0,1-.374-.1C3.924.677,3.893.566,3.893.378c0-.213.072-.33.215-.349A4.19,4.19,0,0,1,4.641,0,5.53,5.53,0,0,1,5.662.085a2.439,2.439,0,0,1,.786.293,2.134,2.134,0,0,1,.627.6A5.472,5.472,0,0,1,7.617,2l3.145,7.815c.063.167.132.336.205.5a2.563,2.563,0,0,0,.262.464,1.443,1.443,0,0,0,.356.348.871.871,0,0,0,.5.142,1.169,1.169,0,0,1,.327.037c.081.026.129.147.141.359a.524.524,0,0,1-.085.283A.278.278,0,0,1,12.221,12.082Zm-6.344-9.5h0L3.893,7.438h3.93L5.933,2.587Z" transform="translate(73.707 20.32)" fill="#fff"/>
  <path id="Fill_30" data-name="Fill 30" d="M7.932,1.745c.254-.278.373-.493.353-.645S8.092.86,7.76.834C7.594.822,7.5.689,7.492.436a.507.507,0,0,1,.1-.3A.293.293,0,0,1,7.836,0q.5.038,1.052.047t1.051.01q.382,0,.87-.019T11.679,0a.307.307,0,0,1,.277.132.545.545,0,0,1,.086.3c-.026.19-.071.3-.134.341a.477.477,0,0,1-.248.057,3.338,3.338,0,0,0-1.406.228A4.518,4.518,0,0,0,8.793,2.105q-.326.341-.851.882L6.919,4.04Q6.327,4.648,5.7,5.31A31.515,31.515,0,0,0,7.979,7.805q1.157,1.129,1.979,2,.325.323.574.579a4.132,4.132,0,0,0,.488.436,2.588,2.588,0,0,0,.488.294,1.893,1.893,0,0,0,.573.152q.153.019.306.048t.172.351a.561.561,0,0,1-.077.285.282.282,0,0,1-.267.132l-.488-.028-.344-.019c-.108-.007-.22-.01-.335-.01H9.365q-1.05-1.156-2.15-2.38T4.855,6.961a2.472,2.472,0,0,0-.64-.559,1.7,1.7,0,0,0-.6-.2v3.6a4.969,4.969,0,0,0,.028.531,1.255,1.255,0,0,0,.144.474.806.806,0,0,0,.363.332,1.629,1.629,0,0,0,.707.123,1.194,1.194,0,0,1,.334.038q.124.038.144.361a.561.561,0,0,1-.077.285.282.282,0,0,1-.267.132q-1.243-.057-2.37-.057-.573,0-1.118.01t-1.156.047a.283.283,0,0,1-.268-.132A.56.56,0,0,1,0,11.665q.018-.323.143-.361a1.2,1.2,0,0,1,.335-.038,1.629,1.629,0,0,0,.707-.123.806.806,0,0,0,.363-.332,1.255,1.255,0,0,0,.144-.474,4.969,4.969,0,0,0,.028-.531V2.276a4.966,4.966,0,0,0-.028-.531,1.261,1.261,0,0,0-.144-.474A.809.809,0,0,0,1.185.938,1.638,1.638,0,0,0,.478.815,1.174,1.174,0,0,1,.143.777C.06.752.012.633,0,.417A.547.547,0,0,1,.076.123.289.289,0,0,1,.344,0Q.956.038,1.491.047T2.6.057Q3.746.057,4.989,0a.3.3,0,0,1,.267.113.537.537,0,0,1,.077.3c-.013.19-.055.3-.124.342a.8.8,0,0,1-.354.057,1.638,1.638,0,0,0-.707.123.809.809,0,0,0-.363.332,1.261,1.261,0,0,0-.144.474,4.966,4.966,0,0,0-.028.531V5.709a2.26,2.26,0,0,0,.755-.379q.43-.3.87-.683.726-.665,1.414-1.432t1.28-1.47" transform="translate(87.356 20.32)" fill="#fff"/>
  <path id="Fill_31" data-name="Fill 31" d="M4.193,11.878A3.118,3.118,0,0,0,5.31,11.69a2.668,2.668,0,0,0,.834-.489,2.044,2.044,0,0,0,.515-.687,1.883,1.883,0,0,0,.174-.781,1.783,1.783,0,0,0-.485-1.28,4.6,4.6,0,0,0-1.2-.885,17,17,0,0,0-1.562-.715A11.175,11.175,0,0,1,2,6.071,4.408,4.408,0,0,1,.766,4.989,2.659,2.659,0,0,1,.252,3.37,3.3,3.3,0,0,1,.543,1.845,2.71,2.71,0,0,1,1.426.8,4.036,4.036,0,0,1,2.775.2,6.751,6.751,0,0,1,4.445,0a6.656,6.656,0,0,1,1.3.132A4.226,4.226,0,0,1,6.93.546a2.507,2.507,0,0,1,.854.734,1.8,1.8,0,0,1,.331,1.092,1.462,1.462,0,0,1-.476,1.12,1.738,1.738,0,0,1-1.233.443A1.057,1.057,0,0,1,5.7,3.679c-.136-.145-.2-.256-.2-.331,0-.025.049-.053.147-.085A1.352,1.352,0,0,0,5.96,3.1a1.236,1.236,0,0,0,.32-.312.9.9,0,0,0,.146-.54,1.264,1.264,0,0,0-.563-1.107,2.4,2.4,0,0,0-1.4-.389,3.318,3.318,0,0,0-1.1.161,2.269,2.269,0,0,0-.747.415,1.558,1.558,0,0,0-.427.6,1.873,1.873,0,0,0-.135.7,1.641,1.641,0,0,0,.388,1.135,4.243,4.243,0,0,0,1.165.851q.874.452,1.776.828a10.148,10.148,0,0,1,1.65.867A4.343,4.343,0,0,1,8.26,7.492,3.138,3.138,0,0,1,8.736,9.3a2.581,2.581,0,0,1-.359,1.327,3.465,3.465,0,0,1-.97,1.054,4.867,4.867,0,0,1-1.446.7,6.037,6.037,0,0,1-1.766.255,5.893,5.893,0,0,1-3.117-.678A2.243,2.243,0,0,1,0,9.921,1.461,1.461,0,0,1,.475,8.8a1.737,1.737,0,0,1,1.232-.443,1.064,1.064,0,0,1,.709.255c.136.144.2.253.2.329,0,.025-.036.053-.107.085a1.085,1.085,0,0,0-.243.16,1.051,1.051,0,0,0-.242.31,1.137,1.137,0,0,0-.107.536,1.755,1.755,0,0,0,.533,1.346,2.5,2.5,0,0,0,1.738.5" transform="translate(100.46 19.77)" fill="#fff"/>
  <path id="Fill_32" data-name="Fill 32" d="M3.579,6.449V9.806a5.016,5.016,0,0,0,.029.531,1.263,1.263,0,0,0,.142.474.8.8,0,0,0,.36.332,1.6,1.6,0,0,0,.7.123,1.175,1.175,0,0,1,.332.038c.082.026.129.146.142.361a.564.564,0,0,1-.075.285.28.28,0,0,1-.265.132q-1.23-.057-2.348-.057-.568,0-1.108.01t-1.145.047a.279.279,0,0,1-.265-.132A.564.564,0,0,1,0,11.665q.018-.323.142-.361a1.17,1.17,0,0,1,.331-.038,1.606,1.606,0,0,0,.7-.123.8.8,0,0,0,.36-.332,1.252,1.252,0,0,0,.142-.474A5.016,5.016,0,0,0,1.7,9.806V2.276a5.013,5.013,0,0,0-.029-.531,1.259,1.259,0,0,0-.142-.474.808.808,0,0,0-.36-.332,1.614,1.614,0,0,0-.7-.123A1.145,1.145,0,0,1,.142.777C.06.752.012.633,0,.417A.568.568,0,0,1,.075.132.28.28,0,0,1,.341,0Q.947.038,1.477.047t1.1.01Q3.711.057,4.942,0a.281.281,0,0,1,.265.132.568.568,0,0,1,.075.285c-.013.216-.06.335-.142.36a1.15,1.15,0,0,1-.332.038,1.607,1.607,0,0,0-.7.123.8.8,0,0,0-.36.332,1.27,1.27,0,0,0-.142.474,5.013,5.013,0,0,0-.029.531V5.633H9.524V2.276A4.857,4.857,0,0,0,9.5,1.745a1.259,1.259,0,0,0-.142-.474.8.8,0,0,0-.36-.332,1.61,1.61,0,0,0-.7-.123A1.25,1.25,0,0,1,7.953.777C7.865.752,7.814.633,7.8.417A.522.522,0,0,1,7.887.132.285.285,0,0,1,8.142,0Q9.354.057,10.51.057q.568,0,1.107-.01T12.763,0a.284.284,0,0,1,.256.132A.522.522,0,0,1,13.1.417c-.012.216-.063.335-.151.36a1.17,1.17,0,0,1-.322.038,1.611,1.611,0,0,0-.7.123.868.868,0,0,0-.369.332,1.166,1.166,0,0,0-.151.474,5.012,5.012,0,0,0-.028.531v7.53a5.015,5.015,0,0,0,.028.531,1.16,1.16,0,0,0,.151.474.864.864,0,0,0,.369.332,1.6,1.6,0,0,0,.7.123,1.2,1.2,0,0,1,.322.038q.133.038.151.361a.519.519,0,0,1-.085.285.283.283,0,0,1-.256.132q-.606-.037-1.155-.047t-1.117-.01q-1.136,0-2.348.057a.284.284,0,0,1-.256-.132.519.519,0,0,1-.085-.285q.019-.323.151-.361a1.277,1.277,0,0,1,.341-.038,1.6,1.6,0,0,0,.7-.123.8.8,0,0,0,.36-.332,1.252,1.252,0,0,0,.142-.474,4.86,4.86,0,0,0,.029-.531V6.449H3.579" transform="translate(109.741 20.32)" fill="#fff"/>
  <path id="Fill_33" data-name="Fill 33" d="M12.221,12.082h0c-.425-.026-.768-.041-1.049-.046s-.608-.01-1.011-.01c-.739,0-1.519.019-2.32.056a.275.275,0,0,1-.262-.131.565.565,0,0,1-.076-.283c.013-.212.06-.333.14-.359a1.182,1.182,0,0,1,.328-.037,2.209,2.209,0,0,0,.693-.086.467.467,0,0,0,.308-.255.856.856,0,0,0,.02-.444,3.828,3.828,0,0,0-.2-.67L8.159,8.25H3.537c-.291.746-.5,1.287-.6,1.566-.1.325-.168.586-.205.774a.538.538,0,0,0,.056.435.618.618,0,0,0,.421.2,5.958,5.958,0,0,0,.851.048,1.182,1.182,0,0,1,.328.037c.081.026.128.147.14.359a.517.517,0,0,1-.085.283.277.277,0,0,1-.253.131c-.424-.026-.763-.041-1.038-.046s-.594-.01-1-.01H1.666c-.15,0-.282,0-.4.01l-.291.013-.122.005c-.141.006-.3.015-.515.028a.275.275,0,0,1-.261-.131A.565.565,0,0,1,0,11.667c.013-.216.059-.333.14-.359a1.191,1.191,0,0,1,.328-.037,1.318,1.318,0,0,0,.608-.122,1.186,1.186,0,0,0,.392-.331,2.1,2.1,0,0,0,.271-.472q.113-.265.225-.529L5.24,2a1.075,1.075,0,0,0,.094-.548.6.6,0,0,0-.177-.339A.9.9,0,0,0,4.8.916a3.348,3.348,0,0,0-.44-.1,1.675,1.675,0,0,1-.374-.1C3.924.677,3.893.566,3.893.378c0-.213.072-.33.215-.349A4.181,4.181,0,0,1,4.64,0,5.55,5.55,0,0,1,5.662.085a2.425,2.425,0,0,1,.785.293,2.113,2.113,0,0,1,.627.6A5.42,5.42,0,0,1,7.617,2l3.145,7.815c.065.171.134.34.206.5a2.54,2.54,0,0,0,.261.464,1.454,1.454,0,0,0,.356.348.876.876,0,0,0,.506.142,1.178,1.178,0,0,1,.327.037c.081.026.129.147.141.359a.524.524,0,0,1-.085.283A.278.278,0,0,1,12.221,12.082Zm-6.345-9.5h0L3.893,7.438h3.93L5.933,2.587Z" transform="translate(123.937 20.32)" fill="#fff"/>
  <path id="Fill_34" data-name="Fill 34" d="M4.193,11.878a3.114,3.114,0,0,0,1.116-.189,2.667,2.667,0,0,0,.835-.489,2.042,2.042,0,0,0,.515-.687,1.874,1.874,0,0,0,.175-.781,1.781,1.781,0,0,0-.485-1.28,4.6,4.6,0,0,0-1.2-.885,17,17,0,0,0-1.562-.715A11.108,11.108,0,0,1,2,6.071,4.4,4.4,0,0,1,.766,4.989,2.659,2.659,0,0,1,.252,3.37,3.3,3.3,0,0,1,.543,1.845,2.711,2.711,0,0,1,1.427.8,4.036,4.036,0,0,1,2.776.2,6.743,6.743,0,0,1,4.445,0a6.655,6.655,0,0,1,1.3.132A4.239,4.239,0,0,1,6.93.546a2.519,2.519,0,0,1,.854.734,1.8,1.8,0,0,1,.33,1.092,1.464,1.464,0,0,1-.475,1.12,1.738,1.738,0,0,1-1.233.443A1.058,1.058,0,0,1,5.7,3.679a.613.613,0,0,1-.2-.331c0-.025.048-.053.146-.085a1.34,1.34,0,0,0,.32-.161,1.238,1.238,0,0,0,.321-.312.9.9,0,0,0,.145-.54,1.263,1.263,0,0,0-.563-1.107,2.4,2.4,0,0,0-1.4-.389,3.315,3.315,0,0,0-1.1.161,2.262,2.262,0,0,0-.747.415,1.545,1.545,0,0,0-.427.6,1.874,1.874,0,0,0-.136.7,1.641,1.641,0,0,0,.389,1.135,4.239,4.239,0,0,0,1.164.851q.874.452,1.776.828a10.135,10.135,0,0,1,1.651.867A4.343,4.343,0,0,1,8.26,7.492,3.143,3.143,0,0,1,8.736,9.3a2.576,2.576,0,0,1-.36,1.327,3.457,3.457,0,0,1-.97,1.054,4.859,4.859,0,0,1-1.446.7,6.033,6.033,0,0,1-1.766.255,5.888,5.888,0,0,1-3.116-.678A2.244,2.244,0,0,1,0,9.921,1.464,1.464,0,0,1,.475,8.8a1.738,1.738,0,0,1,1.233-.443,1.063,1.063,0,0,1,.708.255q.2.216.2.329c0,.025-.036.053-.107.085a1.083,1.083,0,0,0-.243.16,1.031,1.031,0,0,0-.242.31,1.129,1.129,0,0,0-.107.536,1.753,1.753,0,0,0,.534,1.346,2.5,2.5,0,0,0,1.738.5" transform="translate(137.586 19.77)" fill="#fff"/>
  <path id="Fill_35" data-name="Fill 35" d="M3.579,6.449V9.806a4.86,4.86,0,0,0,.029.531,1.252,1.252,0,0,0,.142.474.8.8,0,0,0,.36.332,1.6,1.6,0,0,0,.7.123,1.173,1.173,0,0,1,.331.038q.123.038.142.361a.571.571,0,0,1-.075.285.28.28,0,0,1-.265.132q-1.232-.057-2.348-.057-.568,0-1.108.01t-1.145.047a.28.28,0,0,1-.266-.132A.564.564,0,0,1,0,11.665q.018-.323.142-.361a1.178,1.178,0,0,1,.332-.038,1.6,1.6,0,0,0,.7-.123.8.8,0,0,0,.359-.332,1.253,1.253,0,0,0,.143-.474A5.015,5.015,0,0,0,1.7,9.806V2.276a5.012,5.012,0,0,0-.028-.531,1.259,1.259,0,0,0-.143-.474A.8.8,0,0,0,1.174.938a1.61,1.61,0,0,0-.7-.123A1.153,1.153,0,0,1,.142.777C.06.752.012.633,0,.417A.568.568,0,0,1,.075.132.281.281,0,0,1,.341,0Q.947.038,1.477.047t1.1.01Q3.712.057,4.943,0a.281.281,0,0,1,.265.132.574.574,0,0,1,.075.285c-.013.216-.06.335-.142.36A1.148,1.148,0,0,1,4.81.815a1.608,1.608,0,0,0-.7.123.8.8,0,0,0-.36.332,1.259,1.259,0,0,0-.142.474,4.857,4.857,0,0,0-.029.531V5.633H9.525V2.276A4.856,4.856,0,0,0,9.5,1.745a1.27,1.27,0,0,0-.142-.474.806.806,0,0,0-.36-.332,1.6,1.6,0,0,0-.7-.123A1.25,1.25,0,0,1,7.953.777C7.865.752,7.814.633,7.8.417A.517.517,0,0,1,7.887.132.284.284,0,0,1,8.143,0q1.212.057,2.367.057.569,0,1.108-.01T12.763,0a.283.283,0,0,1,.256.132A.517.517,0,0,1,13.1.417c-.012.216-.063.335-.151.36a1.162,1.162,0,0,1-.321.038,1.614,1.614,0,0,0-.7.123.866.866,0,0,0-.369.332,1.157,1.157,0,0,0-.151.474,5.013,5.013,0,0,0-.029.531v7.53a5.016,5.016,0,0,0,.029.531,1.151,1.151,0,0,0,.151.474.862.862,0,0,0,.369.332,1.606,1.606,0,0,0,.7.123,1.188,1.188,0,0,1,.321.038q.133.038.151.361a.514.514,0,0,1-.085.285.282.282,0,0,1-.256.132q-.606-.037-1.155-.047t-1.118-.01q-1.136,0-2.348.057a.283.283,0,0,1-.256-.132.514.514,0,0,1-.085-.285c.012-.215.063-.335.151-.361a1.277,1.277,0,0,1,.341-.038,1.6,1.6,0,0,0,.7-.123.8.8,0,0,0,.36-.332,1.263,1.263,0,0,0,.142-.474,4.859,4.859,0,0,0,.029-.531V6.449H3.579" transform="translate(146.868 20.32)" fill="#fff"/>
  <path id="Fill_36" data-name="Fill 36" d="M3.686,9.806a5.034,5.034,0,0,0,.029.531,1.227,1.227,0,0,0,.147.474.815.815,0,0,0,.37.332,1.7,1.7,0,0,0,.722.123,1.245,1.245,0,0,1,.341.038q.126.038.165.361a.513.513,0,0,1-.087.285.3.3,0,0,1-.263.132q-1.269-.057-2.419-.057-.585,0-1.15.01t-1.19.047a.291.291,0,0,1-.273-.132A.552.552,0,0,1,0,11.665q.02-.323.156-.361a1.268,1.268,0,0,1,.332-.038,1.686,1.686,0,0,0,.721-.123.818.818,0,0,0,.371-.332,1.236,1.236,0,0,0,.146-.474c.02-.177.036-.354.048-.531V2.276c-.013-.177-.028-.353-.048-.531a1.243,1.243,0,0,0-.146-.474A.821.821,0,0,0,1.209.938,1.7,1.7,0,0,0,.488.815,1.241,1.241,0,0,1,.156.777C.065.752.013.633,0,.417A.555.555,0,0,1,.078.132.292.292,0,0,1,.351,0q.624.038,1.18.047t1.14.01Q3.841.057,5.11,0a.3.3,0,0,1,.263.132A.516.516,0,0,1,5.46.417c-.026.216-.081.335-.165.36a1.218,1.218,0,0,1-.341.038,1.7,1.7,0,0,0-.722.123.818.818,0,0,0-.37.332,1.233,1.233,0,0,0-.147.474,5.031,5.031,0,0,0-.029.531v7.53" transform="translate(160.517 20.32)" fill="#fff"/>
  <path id="Fill_37" data-name="Fill 37" d="M3.613,10.09c.012.127.026.26.038.4a.806.806,0,0,0,.143.389.875.875,0,0,0,.392.294,1.835,1.835,0,0,0,.765.1H6.671a3,3,0,0,0,.813-.123,1.123,1.123,0,0,0,.526-.361,2.339,2.339,0,0,0,.363-.673q.153-.418.344-1.044a.4.4,0,0,1,.258-.246A.812.812,0,0,1,9.367,8.8a1.067,1.067,0,0,1,.315.142.294.294,0,0,1,.144.294l-.383,2.389a.466.466,0,0,1-.181.332.818.818,0,0,1-.373.066H2.618q-.573,0-1.118.01t-1.176.047a.263.263,0,0,1-.248-.132A.56.56,0,0,1,0,11.665c.012-.19.06-.3.142-.342a.82.82,0,0,1,.335-.057,1.63,1.63,0,0,0,.708-.123.806.806,0,0,0,.363-.332,1.255,1.255,0,0,0,.144-.474,4.968,4.968,0,0,0,.028-.531V2.276a4.965,4.965,0,0,0-.028-.531,1.261,1.261,0,0,0-.144-.474A.809.809,0,0,0,1.185.938,1.639,1.639,0,0,0,.477.815.962.962,0,0,1,.142.768C.06.737.012.62,0,.417a.537.537,0,0,1,.076-.3A.276.276,0,0,1,.324,0c.421.026.809.041,1.166.047s.727.01,1.109.01Q3.746.057,4.989,0a.283.283,0,0,1,.267.132.564.564,0,0,1,.077.285c-.013.216-.064.335-.153.36a1.192,1.192,0,0,1-.325.038,1.634,1.634,0,0,0-.707.123.808.808,0,0,0-.364.332,1.272,1.272,0,0,0-.144.474,4.965,4.965,0,0,0-.028.531V10.09" transform="translate(166.523 20.32)" fill="#fff"/>
  <path id="Fill_38" data-name="Fill 38" d="M12.22,12.082h0c-.424-.026-.767-.041-1.048-.046s-.6-.01-1.012-.01c-.738,0-1.518.019-2.32.056a.271.271,0,0,1-.261-.131.565.565,0,0,1-.076-.283c.013-.212.06-.333.141-.359a1.169,1.169,0,0,1,.327-.037,2.2,2.2,0,0,0,.692-.086.467.467,0,0,0,.309-.255.847.847,0,0,0,.019-.444,3.81,3.81,0,0,0-.2-.67L8.159,8.25H3.537c-.3.766-.5,1.294-.6,1.566-.1.323-.169.583-.206.774a.534.534,0,0,0,.057.435.612.612,0,0,0,.42.2,5.958,5.958,0,0,0,.851.048,1.191,1.191,0,0,1,.328.037c.081.026.128.147.14.359a.517.517,0,0,1-.085.283.279.279,0,0,1-.252.131c-.425-.026-.765-.041-1.039-.046s-.593-.01-1-.01H1.666c-.15,0-.282,0-.4.01l-.269.012H.983l-.132.006c-.14.006-.3.015-.514.028a.275.275,0,0,1-.262-.131A.564.564,0,0,1,0,11.667c.013-.216.058-.333.14-.359a1.191,1.191,0,0,1,.328-.037,1.318,1.318,0,0,0,.608-.122,1.151,1.151,0,0,0,.392-.331,2.1,2.1,0,0,0,.273-.472l.224-.529L5.24,2a1.1,1.1,0,0,0,.094-.548.6.6,0,0,0-.178-.339A.884.884,0,0,0,4.8.916a3.3,3.3,0,0,0-.439-.1,1.661,1.661,0,0,1-.374-.1C3.924.677,3.893.566,3.893.378c0-.213.072-.33.215-.349A4.19,4.19,0,0,1,4.641,0a5.525,5.525,0,0,1,1.02.085,2.442,2.442,0,0,1,.787.293,2.133,2.133,0,0,1,.626.6A5.42,5.42,0,0,1,7.617,2l3.145,7.815c.058.156.125.32.205.5a2.54,2.54,0,0,0,.262.464,1.431,1.431,0,0,0,.356.348.865.865,0,0,0,.5.142,1.182,1.182,0,0,1,.328.037c.081.026.128.143.141.359a.524.524,0,0,1-.085.283A.279.279,0,0,1,12.22,12.082Zm-6.345-9.5h0L3.893,7.438h3.93L5.932,2.587Z" transform="translate(177.443 20.32)" fill="#fff"/>
</svg>
