<?xml version="1.0" encoding="utf-8"?>
<!-- Generator: Adobe Illustrator 23.0.1, SVG Export Plug-In . SVG Version: 6.00 Build 0)  -->
<svg version="1.1" id="Layer_1" xmlns="http://www.w3.org/2000/svg" xmlns:xlink="http://www.w3.org/1999/xlink" x="0px" y="0px"
	 viewBox="0 0 634 434.04" style="enable-background:new 0 0 634 434.04;" xml:space="preserve">
<style type="text/css">
	.st0{opacity:0.2;fill:url(#SVGID_1_);}
	.st1{opacity:0.1;fill:url(#SVGID_2_);}
	.st2{fill:url(#SVGID_3_);}
	.st3{opacity:0.6;fill:#FFFFFF;}
	.st4{fill:#5BBCE6;}
	.st5{fill:#9618CC;}
	.st6{opacity:0.5;fill:#FFFFFF;}
	.st7{fill:#FDBF17;}
	.st8{fill:#BE3084;}
	.st9{fill:#FFFFFF;}
	.st10{opacity:0.2;}
	.st11{fill:url(#SVGID_4_);}
	.st12{fill:url(#SVGID_5_);}
	.st13{fill:url(#SVGID_6_);}
	.st14{fill:url(#SVGID_7_);}
	.st15{fill:url(#SVGID_8_);}
	.st16{fill:url(#SVGID_9_);}
	.st17{fill:url(#SVGID_10_);}
	.st18{fill:url(#SVGID_11_);}
	.st19{fill:url(#SVGID_12_);}
	.st20{fill:url(#SVGID_13_);}
	.st21{fill:url(#SVGID_14_);}
	.st22{fill:url(#SVGID_15_);}
</style>
<g>
	<g>
		
			<linearGradient id="SVGID_1_" gradientUnits="userSpaceOnUse" x1="482.618" y1="204.9423" x2="500.0152" y2="604.8647" gradientTransform="matrix(0.9705 -0.2412 0.2412 0.9705 -143.2561 -42.754)">
			<stop  offset="0" style="stop-color:#5BBCE6"/>
			<stop  offset="0.9982" style="stop-color:#9618CC"/>
		</linearGradient>
		<path class="st0" d="M263,373.29c1.98,25.99,36.86,98.42,122.03,36.12c95.05-69.52,107.5-60.8,143.59-63.4
			c51-3.67,127.04-40.65,99.56-160.2C600.7,66.25,521.83,26.84,451.52,57.78c0,0-35.82,15.95-42.21,53.95s-24.46,176.8-87.07,200.16
			C283.94,322.71,260.26,337.37,263,373.29z"/>
		
			<linearGradient id="SVGID_2_" gradientUnits="userSpaceOnUse" x1="-1752.9452" y1="135.9401" x2="-1455.3411" y2="135.9401" gradientTransform="matrix(-0.6174 -0.7867 0.7867 -0.6174 -913.3193 -1006.5939)">
			<stop  offset="0" style="stop-color:#FDBF17"/>
			<stop  offset="0.9982" style="stop-color:#9618CC"/>
		</linearGradient>
		<path class="st1" d="M307.64,63.81c-10.65,26.72-26.35,57.4-21.68,94.54c4.67,37.14,2.68,129.48-64.77,172.22
			c-66.25,41.98-164.53-25.82-188.22-55.27C-8.29,224.03-21.55,153.77,57.32,82.78C145.79,3.15,226.08,2.25,245.57,0.32
			C287.22-3.81,319.83,33.24,307.64,63.81z"/>
		<linearGradient id="SVGID_3_" gradientUnits="userSpaceOnUse" x1="76.8851" y1="196.7876" x2="566.7247" y2="196.7876">
			<stop  offset="0" style="stop-color:#BE3084"/>
			<stop  offset="0.4714" style="stop-color:#DC7351"/>
			<stop  offset="1" style="stop-color:#FDBF17"/>
		</linearGradient>
		<path class="st2" d="M509.02,248.72c-69.58-5.15-79.03,49.39-146.47,37.37c-0.19-0.13-31.36-8.16-14.74-45.7
			c17.12-35.95,61.96-53.79,88.62-71.13c47.86-31.41,60.5-78.4,47.98-110.04c-16.63-42.01-64.52-57.69-104.25-47.16
			c-19.28,5.11-43.17,17.18-68.29,50.25c-22.26,35.3-68.43,34.45-105.58,23.71c-37.45-10.82-55.49-19.41-90.6-6.99
			C81.78,92.39,68.68,120,82.04,153.91c13.36,33.9,40.41,45.64,78.57,39.12c8.91-1.52,42.05-11.2,60.63-17.75
			c75.17-23.62,74.52,10.74,67.43,28.78c-7.85,19.97-26.74,32.09-51.76,57.77c-23.41,23.84-29.2,57.64-11.38,76.24
			c29.31,30.6,79.25,16.11,111.98,12.41c57.47-5.32,79.89,15.61,103.21,24.32c24.16,9.02,42.17,11.19,59.27,9.23
			c41.23-4.72,64.94-26.32,66.63-64.63C568.29,281.8,547.25,251.56,509.02,248.72z"/>
	</g>
	<g>
		<g>
			<path class="st3" d="M378.09,114.69c0,0-2.95,17.68-2.53,20.63c0.42,2.95-2.11,44.63-2.11,44.63s2.95,15.58,8.42,19.37
				c5.47,3.79,26.11,9.26,29.47,9.26s114.53-2.95,118.74-5.47c4.21-2.53,10.81-18.37,11.51-25.82c0.7-7.45-1.4-50.39-1.4-51.66
				s-6.32-15.58-19.79-16.84c-13.47-1.26-69.89-6.74-69.89-6.74L378.09,114.69z"/>
			<g>
				<path d="M543.05,125.45c0.1-6.89-2.68-11.29-8.56-14.18c-1.71-0.84-3.39-1.73-5.16-2.41c-13.37-5.13-27.42-6.89-41.53-8.37
					c-1.83-0.19-4.08-0.85-5.26-2.11c-14.16-15.08-35.82-15.03-50.01,0.2c-0.9,0.97-2.44,1.65-3.77,1.86
					c-9.19,1.42-18.46,2.38-27.6,4.06c-7.9,1.45-15.63,3.77-22.51,8.21c-4.02,2.59-6.15,5.97-6.03,11.07
					c0.27,11.03,0.08,22.08,0.08,33.11c0,11.25,0.13,22.5-0.06,33.75c-0.07,4.42,1.59,7.75,5.18,9.87c3.8,2.24,7.78,4.38,11.94,5.77
					c15.58,5.21,31.77,6.89,48.08,7.83c24.44,1.41,48.74,0.53,72.85-3.96c8.53-1.59,16.94-3.66,24.63-7.9
					c5.17-2.85,7.76-6.91,7.7-13.12C542.8,167.91,542.75,146.68,543.05,125.45z M475.06,99.31c-11.81,0-23.22,0-34.73,0
					C447.42,91.24,465.42,90.11,475.06,99.31z M402.88,204.4c-0.05-0.35-0.1-0.7-0.15-1.05c4.04-0.9,8.08-1.83,12.13-2.69
					c7.21-1.54,14.03-3.95,19.93-8.57c4.4-3.45,7.26-7.92,8.95-13.47c9.27,5.53,18.4,5.66,27.59,0
					c5.28,15.41,18.17,19.74,32.06,22.65c2.58,0.54,5.13,1.21,7.69,1.85c0.47,0.12,0.9,0.4,1.34,0.61
					C475.84,210.86,439.35,210.89,402.88,204.4z M534.24,196.28c-3.78,1.84-7.69,3.44-11.57,5.07c-0.49,0.21-1.3,0.18-1.75-0.1
					c-6.49-3.97-13.89-4.87-21.1-6.45c-6.04-1.33-11.87-3.37-16.52-7.65c-1.92-1.76-3.65-3.88-4.93-6.14
					c-2.48-4.38-1.83-5.46,1.03-9.59c3.29-4.75,5.88-9.98,8.82-14.97c0.39-0.67,0.86-1.52,1.43-1.96h-7.16
					c-0.23,0.88-0.37,1.59-0.64,2.22c-2.83,6.53-6.77,12.23-12.6,16.45c-7.3,5.29-15.31,5.43-22.73,0.33
					c-6.66-4.58-10.84-11.04-13.96-19.01h-7.25c1.76,1.45,2.34,4.01,3.54,6.07c2.44,4.19,5.17,8.23,8.04,12.14
					c1.09,1.49,1.67,2.6,1.18,4.54c-1.86,7.27-6.9,11.74-13.39,14.29c-5.85,2.3-12.17,3.39-18.22,5.21
					c-3.72,1.12-7.31,2.69-11.01,3.88c-1.29,0.42-2.92,0.8-4.08,0.36c-3.54-1.35-6.98-2.99-10.36-4.73
					c-2.24-1.15-3.09-3.1-3.08-5.77c0.1-22.08,0.15-44.16-0.04-66.23c-0.03-3.78,1.27-6.36,4.48-7.54
					c7.11-2.62,14.22-5.52,21.59-7.08c24.21-5.12,48.78-6.04,73.4-4.45c16.05,1.04,32.06,2.74,47.41,8.06
					c0.3,0.1,0.62,0.15,0.92,0.26c10.79,3.96,11.57,5.08,11.57,16.5c0,20.17-0.04,40.34,0.05,60.5
					C537.3,193.15,536.52,195.17,534.24,196.28z"/>
			</g>
			<path d="M522.75,209.34c0.16-0.2,0.19-0.3,0.26-0.33c5.64-2.46,5.65-2.46,9.21,2.7c5.06,7.34,7.45,15.54,7.83,24.39
				c0.08,1.9-0.12,3.82-2.55,3.97c-2.45,0.15-2.75-1.61-2.88-3.61C533.95,225.98,530.62,216.62,522.75,209.34z"/>
			<path d="M393.01,209.03c-8.79,8-11.97,17.49-12.45,28.12c-0.08,1.88-0.88,3.37-2.78,2.93c-1.04-0.24-2.52-1.87-2.52-2.86
				c0.08-10.7,3.21-20.39,10.39-28.53C387.99,206.03,390,209.11,393.01,209.03z"/>
			<path class="st4" d="M512.41,203.73c-36.58,7.13-73.06,7.16-109.53,0.68c-0.05-0.35-0.1-0.7-0.15-1.05
				c4.04-0.9,8.08-1.83,12.13-2.69c7.21-1.54,14.03-3.95,19.93-8.57c4.4-3.45,7.26-7.91,8.95-13.47c9.27,5.53,18.4,5.66,27.59,0
				c5.28,15.41,18.17,19.74,32.06,22.65c2.58,0.54,5.13,1.21,7.69,1.85C511.54,203.24,511.97,203.52,512.41,203.73z"/>
			<path class="st5" d="M458.66,215.82c-6.73,0-13.76-0.21-20.88-0.62c-15.56-0.89-32.19-2.47-48.37-7.88
				c-4.46-1.49-8.64-3.8-12.15-5.87c-3.88-2.28-5.8-5.92-5.72-10.83c0.13-8.02,0.11-16.17,0.08-24.06
				c-0.01-3.25-0.02-6.46-0.02-9.67c0-3.11,0.02-6.23,0.03-9.34l0-0.28c0.04-7.68,0.08-15.63-0.12-23.47
				c-0.13-5.24,1.94-9.06,6.53-12.01c6.15-3.97,13.43-6.63,22.9-8.36c5.63-1.03,11.38-1.81,16.95-2.56
				c3.56-0.48,7.16-0.96,10.68-1.51c0.19-0.03,0.39-0.08,0.59-0.13l0.15-0.04l0.06,0.01c3.08-0.21,11.3-0.71,21-0.98h23.12
				c4.97,0.18,9.36,0.5,13.01,0.96l0.1,0.02c0.42,0.1,0.86,0.17,1.3,0.21c14.39,1.51,28.41,3.29,41.81,8.44
				c1.46,0.56,2.85,1.25,4.2,1.93l1.05,0.52c6.36,3.12,9.28,7.95,9.18,15.18c-0.27,19.04-0.28,39.27-0.02,63.66
				c0.07,6.38-2.64,10.99-8.26,14.09c-8.13,4.48-17.18,6.57-24.96,8.02C494.3,214.32,477.21,215.82,458.66,215.82z M392.7,200.2
				c2.03,1.06,6.23,2.9,11.58,3.34c17.41,3.02,34.85,4.54,51.94,4.54c17.15,0,34.46-1.54,51.45-4.58l1.44-0.26l-0.47-0.25l3.38-0.48
				c1.08-0.15,6.61-0.97,9.77-2.08l0.13-0.05l0.13-0.01c0.08-0.01,0.13-0.02,0.19-0.03l1.27-0.53c3.13-1.31,6.67-2.79,9.99-4.39
				l2.2-1.06c0,0-2.48,0.11-2.49,0.11c-0.32,0-0.59-0.05-0.82-0.14c-8.62-3.4-17.19-6.99-25.47-10.65
				c-1.46-0.65-2.37-2.96-2.38-4.34c-0.13-16.18-0.12-30.55,0.02-43.92c0.02-1.7,1.39-3.91,2.88-4.63
				c6.28-3.08,12.75-6.03,19.01-8.89c0,0,3.28-1.5,4.87-2.23c0.45-0.21,0.89-0.32,1.46-0.47l1.32-0.35l-0.77-0.62
				c-1.64-1.31-4.23-2.32-8.01-3.7c-0.1-0.04-0.2-0.06-0.3-0.08c-0.25-0.06-0.43-0.1-0.6-0.17c-15.47-5.35-31.79-7.01-47.12-8
				c-7.26-0.47-14.41-0.71-21.25-0.71c-18.56,0-35.53,1.68-51.86,5.13c-6.07,1.28-12.08,3.54-17.89,5.71l-0.53,0.2
				c-1.01,0.38-2.02,0.75-3.02,1.13c-0.38,0.14-0.73,0.3-1.04,0.48l-1.63,0.93h1.88c1.1,0,2.2,0.5,3.16,0.93
				c2.62,1.19,5.24,2.38,7.86,3.58c4.73,2.16,9.58,4.38,14.37,6.5c2.71,1.2,3.84,2.95,3.78,5.87c-0.11,5.14-0.09,10.38-0.07,15.44
				c0.01,2.08,0.02,4.13,0.02,6.17c0,1.99,0,3.98-0.01,5.96c-0.01,5.14-0.02,10.45,0.04,15.66c0.04,2.71-1.02,4.3-3.54,5.31
				c-6.51,2.62-13.03,5.39-19.34,8.07l-3.45,1.46c-0.54,0.23-1.37,0.55-2.24,0.66l-1.61,0.21l1.44,0.73
				c3.61,1.83,6.59,3.18,9.39,4.25c0.15,0.05,0.33,0.09,0.55,0.11l0.22,0.02L392.7,200.2z M378.98,126.27
				c0.17,21.04,0.12,41.95,0.04,61.4l0,0.96l0.79-0.55c0.66-0.46,1.4-0.78,1.84-0.96l0.21-0.09c7.46-3.19,13.75-5.84,20.2-8.44
				c1.29-0.52,1.63-1.03,1.62-2.48c-0.09-13.65-0.09-25.83,0.01-37.25c0.01-1.5-0.39-2.09-1.86-2.74
				c-5.12-2.26-10.25-4.62-15.21-6.9l-4.72-2.17c-0.56-0.25-1.39-0.64-2.11-1.2l-0.82-0.64L378.98,126.27z M535.35,126.35
				c-0.53,0.34-1.1,0.61-1.6,0.83l-2.18,1c-5.83,2.7-11.86,5.48-17.86,8.15c-1.23,0.54-1.54,1.01-1.53,2.29
				c0.09,12.37,0.09,24.9,0,37.24c-0.01,1.46,0.34,2,1.62,2.51c4.87,1.95,9.78,4.02,14.52,6.02l4.51,1.9
				c0.2,0.08,0.4,0.15,0.62,0.23c0.64,0.22,1.37,0.47,1.92,0.93l0.82,0.69l0-1.07c-0.05-13.7-0.05-27.38-0.04-42.55l0-14.5
				c0-1.21-0.01-2.28-0.03-3.24l-0.02-0.89L535.35,126.35z"/>
			<path class="st6" d="M473.47,98.72c4.97,0.18,9.33,0.5,12.96,0.95l0.03,0l0.02,0.01c0.45,0.1,0.9,0.18,1.36,0.22
				c14.35,1.51,28.34,3.29,41.68,8.41c1.43,0.55,2.82,1.24,4.16,1.91c0.35,0.18,0.7,0.35,1.06,0.52c6.17,3.03,9,7.71,8.9,14.72
				c-0.27,19.04-0.28,39.27-0.03,63.67c0.06,6.18-2.55,10.64-8.01,13.65c-8.07,4.45-17.07,6.52-24.81,7.96
				c-16.56,3.09-33.62,4.59-52.14,4.59c-6.73,0-13.74-0.21-20.85-0.62c-15.52-0.89-32.11-2.46-48.24-7.86
				c-4.41-1.48-8.57-3.77-12.06-5.82c-3.71-2.18-5.55-5.68-5.47-10.39c0.14-8.04,0.11-16.2,0.08-24.09l0-0.07
				c-0.01-3.2-0.02-6.39-0.02-9.59c0-3.2,0.02-6.41,0.03-9.62c0.04-7.69,0.08-15.65-0.12-23.48c-0.12-5.05,1.88-8.73,6.3-11.58
				c6.09-3.93,13.31-6.57,22.72-8.29c5.64-1.03,11.38-1.81,16.94-2.56c3.5-0.47,7.12-0.96,10.68-1.51c0.21-0.03,0.42-0.08,0.64-0.14
				l0.05-0.01l0.06,0c3.08-0.2,11.29-0.71,20.95-0.98L473.47,98.72 M378.18,119.66h3.75c1,0,2.04,0.47,2.96,0.89
				c2.62,1.19,5.24,2.38,7.85,3.58l0.23,0.11c4.63,2.12,9.41,4.3,14.14,6.39c2.53,1.12,3.54,2.68,3.48,5.4
				c-0.11,5.15-0.09,10.39-0.07,15.49l0,0.05c0.01,2.03,0.02,4.05,0.02,6.08c0,1.99,0,3.98-0.01,5.96
				c-0.01,5.13-0.02,10.44,0.04,15.67c0.03,2.5-0.9,3.91-3.23,4.84c-6.45,2.6-12.97,5.36-19.26,8.04L388,192.2l-3.45,1.46
				c-0.52,0.22-1.3,0.52-2.11,0.63l-3.21,0.42l2.89,1.47c3.62,1.84,6.62,3.2,9.44,4.27c0.19,0.07,0.41,0.12,0.68,0.14l0.12,0.01
				l0.11,0.06c2.06,1.08,6.33,2.95,11.78,3.39l0.02,0l0.03,0c17.34,3.01,34.81,4.54,51.92,4.54c17.17,0,34.52-1.54,51.54-4.59
				l2.89-0.52l-0.39-0.2l1.83-0.26c0.66-0.09,6.57-0.95,9.86-2.11l0.07-0.02l0.08-0.01c0.09-0.01,0.17-0.02,0.25-0.04l0.07-0.02
				l0.07-0.03l1.2-0.51c3.13-1.31,6.68-2.79,10.01-4.4l4.16-2.01l-4.62,0.11c-0.03,0-0.05,0-0.08,0c-0.23,0-0.43-0.04-0.61-0.11
				c-8.61-3.4-17.17-6.98-25.45-10.65c-1.24-0.55-2.08-2.7-2.09-3.89c-0.13-16.18-0.12-30.54,0.02-43.91
				c0.02-1.51,1.28-3.54,2.6-4.19c6.31-3.09,12.81-6.06,19.1-8.93c1.59-0.73,3.18-1.45,4.77-2.18c0.41-0.19,0.82-0.3,1.39-0.45
				l0.36-0.1l1.9-0.51l-1.53-1.23c-1.69-1.36-4.33-2.38-8.15-3.78c-0.12-0.04-0.24-0.07-0.36-0.1l-0.05-0.01
				c-0.17-0.04-0.33-0.08-0.49-0.14c-15.53-5.37-31.89-7.03-47.25-8.02c-7.28-0.47-14.43-0.71-21.28-0.71
				c-18.6,0-35.6,1.68-51.96,5.14c-6.11,1.29-12.13,3.55-17.96,5.73c-1.18,0.44-2.36,0.89-3.55,1.32c-0.41,0.15-0.78,0.32-1.12,0.52
				L378.18,119.66 M378.51,189.6l1.58-1.1c0.62-0.43,1.3-0.72,1.75-0.91l0.21-0.09c7.48-3.2,13.77-5.85,20.19-8.43
				c1.49-0.6,1.94-1.29,1.93-2.95c-0.09-13.65-0.09-25.83,0.01-37.24c0.02-1.7-0.51-2.47-2.15-3.2c-5.13-2.26-10.25-4.62-15.21-6.89
				c-1.57-0.72-3.14-1.45-4.72-2.17c-0.53-0.24-1.34-0.61-2.01-1.14l-1.63-1.28l0.02,2.07c0.17,20.99,0.12,41.91,0.04,61.39
				L378.51,189.6 M536.7,189.2l-0.01-2.15c-0.05-13.71-0.05-27.38-0.04-42.55c0-4.83,0.01-9.67,0.01-14.5
				c0-1.42-0.01-2.39-0.03-3.25l-0.04-1.79l-1.5,0.97c-0.5,0.32-1.05,0.58-1.54,0.8l-0.41,0.19l-1.77,0.82
				c-5.83,2.7-11.86,5.49-17.85,8.14c-1.41,0.63-1.84,1.27-1.83,2.76c0.09,12.36,0.09,24.88,0,37.23c-0.01,1.67,0.46,2.39,1.93,2.98
				c4.88,1.96,9.81,4.03,14.58,6.04l0.07,0.03l0.13,0.06c1.42,0.6,2.83,1.19,4.25,1.79c0.2,0.09,0.42,0.16,0.65,0.24l0.06,0.02
				c0.58,0.2,1.23,0.42,1.7,0.82L536.7,189.2 M473.49,97.72l-23.13,0c-9.67,0.27-17.92,0.78-21.02,0.98l-0.15,0.01l-0.15,0.04
				c-0.18,0.05-0.36,0.09-0.54,0.12c-3.54,0.54-7.16,1.03-10.65,1.5c-5.58,0.75-11.35,1.53-16.99,2.57
				c-9.54,1.75-16.87,4.43-23.08,8.44c-4.74,3.06-6.89,7.01-6.75,12.45c0.19,7.81,0.15,15.76,0.12,23.46
				c-0.02,3.21-0.03,6.41-0.03,9.62c0,3.22,0.01,6.44,0.02,9.66c0.03,7.89,0.05,16.05-0.08,24.07c-0.09,5.1,1.92,8.89,5.97,11.26
				c3.53,2.08,7.75,4.4,12.25,5.91c16.24,5.43,32.91,7.01,48.5,7.91c7.12,0.41,14.16,0.62,20.91,0.62c0,0,0,0,0,0h0c0,0,0,0,0,0
				c18.58,0,35.7-1.51,52.32-4.6c7.82-1.46,16.92-3.56,25.11-8.07c5.8-3.2,8.59-7.95,8.52-14.53c-0.25-24.4-0.25-44.62,0.03-63.64
				c0.11-7.45-2.9-12.42-9.46-15.63c-0.35-0.17-0.7-0.35-1.05-0.52c-1.36-0.68-2.77-1.38-4.24-1.95
				c-13.45-5.16-27.51-6.95-41.94-8.47c-0.41-0.04-0.83-0.11-1.25-0.2l-0.07-0.02l-0.08-0.01C482.9,98.22,478.52,97.9,473.49,97.72
				L473.49,97.72z M381.93,118.66c0.32-0.18,0.65-0.33,0.97-0.44c1.18-0.44,2.37-0.88,3.55-1.32c5.79-2.17,11.79-4.42,17.82-5.69
				c16.3-3.45,33.23-5.12,51.76-5.12c6.82,0,13.96,0.24,21.21,0.71c15.3,0.99,31.57,2.64,46.99,7.97c0.19,0.07,0.39,0.12,0.59,0.16
				c0.1,0.02,0.21,0.05,0.31,0.08c3.87,1.42,6.32,2.38,7.87,3.62c-0.12,0.03-0.25,0.07-0.36,0.1c-0.59,0.16-1.06,0.28-1.55,0.51
				c-1.59,0.73-3.18,1.45-4.76,2.18c-6.29,2.87-12.8,5.84-19.13,8.94c-1.66,0.81-3.14,3.19-3.16,5.08
				c-0.14,13.39-0.15,27.76-0.02,43.93c0.01,1.48,0.97,4.04,2.68,4.79c8.3,3.67,16.87,7.26,25.49,10.66
				c0.3,0.12,0.64,0.18,1.01,0.18c0,0,0,0,0,0c0.02,0,0.05,0,0.07-0.01c-3.26,1.57-6.66,3-9.96,4.38l-1.2,0.51
				c-0.03,0.01-0.07,0.01-0.11,0.02l-0.19,0.02l-0.18,0.06c-3.21,1.13-9.02,1.97-9.67,2.06l-4.92,0.69l0.56,0.29
				c-16.98,3.03-34.23,4.57-51.37,4.57c-17.05,0-34.46-1.52-51.75-4.52l-0.07-0.01l-0.07-0.01c-5.26-0.43-9.4-2.24-11.39-3.28
				l-0.28-0.15l-0.32-0.03c-0.22-0.02-0.34-0.05-0.41-0.08c-2.78-1.06-5.78-2.41-9.34-4.22c0.88-0.11,1.71-0.42,2.37-0.7l3.45-1.46
				c6.32-2.68,12.86-5.46,19.33-8.07c2.7-1.09,3.89-2.87,3.86-5.78c-0.07-5.21-0.06-10.52-0.04-15.65c0-1.99,0.01-3.98,0.01-5.97
				c0-2.04-0.01-4.09-0.02-6.14c-0.02-5.07-0.04-10.32,0.07-15.47c0.07-3.11-1.19-5.06-4.07-6.34c-4.8-2.12-9.66-4.34-14.36-6.49
				c-2.62-1.2-5.24-2.39-7.86-3.58C384.29,119.17,383.14,118.66,381.93,118.66C381.93,118.66,381.93,118.66,381.93,118.66
				L381.93,118.66z M379.51,187.67c0.08-18.73,0.14-40.1-0.04-61.4c0.77,0.6,1.63,1,2.21,1.26c1.57,0.72,3.14,1.44,4.72,2.16
				c4.97,2.29,10.12,4.65,15.22,6.9c1.29,0.57,1.57,0.97,1.56,2.28c-0.1,11.41-0.1,23.59-0.01,37.25c0.01,1.25-0.2,1.57-1.3,2.01
				c-6.42,2.58-12.72,5.24-20.21,8.44l-0.21,0.09C380.94,186.87,380.2,187.19,379.51,187.67L379.51,187.67z M535.69,187.05
				c-0.61-0.51-1.37-0.77-2.02-0.99c-0.22-0.08-0.44-0.15-0.64-0.23c-1.46-0.61-2.92-1.23-4.38-1.84c-4.79-2.02-9.75-4.1-14.67-6.08
				c-1.09-0.44-1.31-0.78-1.3-2.05c0.09-12.34,0.09-24.87,0-37.24c-0.01-1.08,0.19-1.37,1.23-1.83c5.99-2.66,12.03-5.45,17.87-8.15
				l1.77-0.82l0.4-0.18c0.54-0.24,1.12-0.52,1.67-0.87c0.02,0.96,0.03,2.03,0.03,3.23c0,4.83,0,9.67-0.01,14.5
				C535.64,158.45,535.63,172.83,535.69,187.05L535.69,187.05z"/>
			<rect x="424.81" y="119.62" class="st7" width="60.96" height="35.01"/>
			<path class="st8" d="M488.96,117h-64.2c-2.55,0-4.62,2.07-4.62,4.62v29.82c0,2.55,2.07,4.62,4.62,4.62h64.83
				c1.75,0,3.16-1.42,3.16-3.16v-32.1C492.75,118.7,491.05,117,488.96,117z M422.95,126.39c-0.72,0-1.29-0.58-1.29-1.29
				c0-0.71,0.58-1.29,1.29-1.29c0.71,0,1.29,0.58,1.29,1.29C424.24,125.81,423.66,126.39,422.95,126.39z M485.31,152.93h-59.55
				v-32.37h59.55V152.93z M490.94,139.87c0,0.88-0.71,1.58-1.58,1.58h-0.51c-0.88,0-1.58-0.71-1.58-1.58v-6.3
				c0-0.88,0.71-1.58,1.58-1.58h0.51c0.88,0,1.58,0.71,1.58,1.58V139.87z"/>
			<path class="st9" d="M450.1,132.19c0-0.87,0.01-1.69-0.01-2.51c-0.01-0.38,0.12-0.66,0.39-0.92c1.9-1.8,3.8-3.61,5.7-5.41
				c0.5-0.47,0.94-0.48,1.44-0.01c1.93,1.81,3.85,3.63,5.78,5.44c0.25,0.24,0.37,0.51,0.37,0.85c-0.01,0.74,0,1.48,0,2.22
				c0,0.1,0,0.2,0,0.32c1.18,0,2.33,0,3.5,0c0,0.55,0,1.08,0,1.64c-0.39,0-0.79,0-1.2,0c0,1.3,0,2.57,0,3.87
				c0.11,0.01,0.2,0.01,0.3,0.01c1.11,0,2.22,0,3.32,0c0.67,0,0.99,0.32,0.99,0.99c0,3.34,0,6.68,0,10.03
				c0,0.63-0.31,0.93-0.95,0.93c-8.56,0-17.12,0-25.68,0c-0.6,0-0.92-0.31-0.92-0.91c0-3.38,0-6.76,0-10.14
				c0-0.6,0.32-0.91,0.92-0.91c1.12,0,2.23,0,3.35,0c0.11,0,0.22,0,0.34,0c0-1.3,0-2.56,0-3.87c-0.4,0-0.8,0-1.2,0
				c0-0.56,0-1.09,0-1.64C447.72,132.19,448.89,132.19,450.1,132.19z M452.56,148.05c0-0.1,0-0.19,0-0.28c0-1.91,0-3.83,0-5.74
				c0-0.71,0.29-0.99,1.01-0.99c2.23,0,4.47,0,6.7,0c0.67,0,0.97,0.3,0.97,0.98c0,1.9,0,3.79,0,5.69c0,0.1,0,0.19,0,0.3
				c1.05,0,2.06,0,3.08,0c0-4.71,0-9.4,0-14.09c-4.96,0-9.89,0-14.84,0c0,4.72,0,9.43,0,14.15
				C450.51,148.05,451.53,148.05,452.56,148.05z M462.07,132.23c0-0.77,0-1.51-0.01-2.25c0-0.07-0.08-0.16-0.14-0.22
				c-1.6-1.53-3.2-3.06-4.81-4.59c-0.06-0.06-0.13-0.12-0.21-0.18c-0.08,0.07-0.15,0.13-0.22,0.19c-1.4,1.33-2.77,2.7-4.2,3.99
				c-0.56,0.5-0.85,1.01-0.75,1.76c0.06,0.42,0.01,0.85,0.01,1.29C455.2,132.23,458.61,132.23,462.07,132.23z M454.23,142.69
				c0,1.78,0,3.54,0,5.3c1.8,0,3.57,0,5.35,0c0-1.78,0-3.54,0-5.3C457.79,142.69,456.01,142.69,454.23,142.69z M447.75,147.99
				c0-2.87,0-5.71,0-8.57c-1,0-1.98,0-2.97,0c0,2.87,0,5.71,0,8.57C445.77,147.99,446.75,147.99,447.75,147.99z M469.03,148
				c0-2.87,0-5.72,0-8.58c-0.99,0-1.97,0-2.97,0c0,2.87,0,5.72,0,8.58C467.06,148,468.03,148,469.03,148z"/>
			<g>
				<path class="st8" d="M470.89,254.86c-7.14,0-11.41-4.24-11.41-11.33c-0.01-12.63,0-25.26,0-37.89c0-7.26,4.21-11.42,11.53-11.42
					l16.39-0.01c6.37,0,12.73,0.01,19.1,0.03c0,0,0.03,0,0.05,0c3.39-3.48,6.87-6.95,10.25-10.3l2.21-2.2
					c3.06-3.04,6.63-4.65,10.34-4.65c3.29,0,6.4,1.28,9.01,3.71c3.85,3.59,5.14,8.57,3.84,13.31c0.52,0.02,1.01,0.05,1.49,0.09
					c4.77,0.36,10.46,2.65,10.46,11.45l0,1.89c0,11.93,0,23.85,0,35.78c0,7.34-4.17,11.54-11.42,11.55c-11.97,0-23.94,0-35.91,0
					C494.83,254.86,482.86,254.86,470.89,254.86z M538.87,239.54v-30.25c-0.94-0.01-1.86-0.01-2.79-0.01
					c-2.44,0-4.31,0.03-6.08,0.09c-0.03,0.01-0.19,0.07-0.27,0.12c-9.49,9.34-17.86,17.71-25.6,25.59c-2.1,2.14-4.3,3.59-6.82,4.46
					H538.87z M476.16,239.54c0,0,1.2-4.83,1.53-6.16c1-4.03,1.94-7.85,2.96-11.7c0.4-1.5,1.26-2.9,2.64-4.28
					c2.65-2.66,5.31-5.32,7.98-7.97H474.7v30.1H476.16z"/>
				<g>
					<path class="st9" d="M489.13,230.78c3.31-0.62,6.08-1.44,8.5-3.89c10.41-10.54,21.06-20.85,31.6-31.27
						c0.98-0.97,1.91-2.05,2.64-3.22c0.92-1.48,0.68-2.99-0.71-4.13c-0.66-0.54-1.33-0.8-2-0.8c-0.74,0-1.48,0.32-2.19,0.92
						c-0.39,0.33-0.74,0.71-1.1,1.08c-10.74,10.74-21.39,21.57-32.28,32.16C490.95,224.19,489.58,227.02,489.13,230.78z"/>
					<path class="st9" d="M558.91,205.64c0-8.22-4.21-13.88-11.45-15.67c-0.15-4.79-2.22-9.27-5.87-12.67
						c-3.5-3.27-7.74-4.99-12.26-4.99h0h0c-4.92,0-9.79,2.15-13.71,6.05l-2.22,2.2c-2.92,2.9-5.92,5.88-8.87,8.9
						c-4.95-0.02-10.35-0.03-17.16-0.03c-3.12,0-6.24,0-9.36,0l-7.01,0c-9.9,0-16.3,6.36-16.31,16.2c0,12.63-0.01,25.27,0,37.9
						c0,9.78,6.36,16.1,16.19,16.11c12.05,0,24.09,0.01,36.13,0.01c11.9,0,23.79,0,35.69-0.01c9.84,0,16.2-6.41,16.2-16.32
						c0-11.62,0-23.25,0-34.87L558.91,205.64z M549.35,243.31c0,4.67-2.05,6.77-6.65,6.77c-11.89,0-23.79,0.01-35.69,0.01
						c-12.04,0-24.09,0-36.13-0.01c-4.51,0-6.63-2.11-6.63-6.55c-0.01-12.63-0.01-25.26,0-37.89c0-4.57,2.11-6.64,6.75-6.64
						c5.46,0,10.91-0.01,16.37-0.01c6.37,0,12.73,0.01,19.1,0.03c0.01,0,0.02,0,0.03,0c1.4,0,2.42-0.38,3.42-1.41
						c4.09-4.21,8.28-8.34,12.44-12.48c2.18-2.17,4.6-3.26,6.96-3.26c2.03,0,4.01,0.81,5.75,2.43c3.77,3.51,3.78,8.74,0.03,12.93
						c-0.42,0.47-0.84,0.96-1.47,1.68c2.13,0,4.13-0.07,6.08-0.07c1.21,0,2.4,0.03,3.58,0.12c4.43,0.34,6.05,2.28,6.05,6.69
						C549.35,218.19,549.36,230.75,549.35,243.31z"/>
					<path class="st9" d="M529.83,204.6c-1.16,0.04-2.57,0.62-3.4,1.44c-8.64,8.5-17.22,17.05-25.71,25.7
						c-1.87,1.91-3.87,3.16-6.48,3.71c-4.24,0.9-8.44,2.04-12.92,3.14c1.36-5.47,2.6-10.59,3.95-15.67
						c0.21-0.79,0.81-1.54,1.41-2.14c4.87-4.9,9.78-9.75,14.67-14.62c0.42-0.42,0.79-0.9,1.3-1.49c-11.07,0-21.85,0-32.72,0
						c0,13.3,0,26.46,0,39.66c24.67,0,49.18,0,73.73,0c0-13.27,0-26.43,0-39.79c-2.57,0-5.08-0.03-7.56-0.03
						C533.99,204.5,531.91,204.52,529.83,204.6z M479.48,214.47v-0.25h0.24C479.64,214.3,479.56,214.38,479.48,214.47z"/>
				</g>
			</g>
		</g>
		<circle class="st7" cx="527.03" cy="228.9" r="8.07"/>
	</g>
	<g class="st10">
		<path class="st9" d="M285.1,273.22c-6.49,0-11.96,4.41-13.59,10.38h-11.69c-4.31,0-7.81,3.5-7.81,7.81v24.01
			c0,3.77,2.69,6.93,6.25,7.66c0.98,6.53,6.63,11.55,13.43,11.55c6.78,0,12.42-5,13.42-11.5c3.7-0.62,6.52-3.84,6.52-7.7V299.8
			c4.49-2.36,7.56-7.07,7.56-12.48C299.2,279.54,292.87,273.22,285.1,273.22z M271.69,331.76c-5.91,0-10.72-4.81-10.72-10.72
			c0-5.91,4.81-10.72,10.72-10.72c5.91,0,10.72,4.81,10.72,10.72C282.42,326.95,277.61,331.76,271.69,331.76z M288.78,315.42
			c0,2.24-1.49,4.13-3.54,4.74c-0.46-7.08-6.36-12.7-13.55-12.7c-7.16,0-13.04,5.57-13.54,12.61c-1.91-0.69-3.28-2.51-3.28-4.66
			v-24.01c0-2.73,2.22-4.95,4.95-4.95h11.21c-0.02,0.28-0.03,0.57-0.03,0.86c0,7.77,6.32,14.1,14.1,14.1c1.27,0,2.5-0.17,3.68-0.49
			V315.42z M285.1,298.55c-6.2,0-11.24-5.04-11.24-11.24c0-6.2,5.04-11.24,11.24-11.24c6.2,0,11.24,5.04,11.24,11.24
			C296.34,293.51,291.3,298.55,285.1,298.55z"/>
		<path class="st9" d="M277.05,319.69h-10.33c-0.33,0-0.59,0.27-0.59,0.59v1.82c0,0.33,0.27,0.59,0.59,0.59h10.33
			c0.33,0,0.59-0.27,0.59-0.59v-1.82C277.64,319.95,277.37,319.69,277.05,319.69z"/>
		<path class="st9" d="M290.44,285.45h-3.66v-3.66c0-0.33-0.27-0.59-0.59-0.59h-1.82c-0.33,0-0.59,0.27-0.59,0.59v3.66h-3.66
			c-0.33,0-0.59,0.27-0.59,0.59v1.82c0,0.33,0.27,0.59,0.59,0.59h3.66v3.66c0,0.33,0.27,0.59,0.59,0.59h1.82
			c0.33,0,0.59-0.27,0.59-0.59v-3.66h3.66c0.33,0,0.59-0.27,0.59-0.59v-1.82C291.03,285.71,290.77,285.45,290.44,285.45z"/>
	</g>
	<g class="st10">
		<g>
			<path class="st9" d="M172.4,142.31c-0.32,0-0.63-0.01-0.95-0.02c-4.43-0.21-9.11-0.97-13.26-5.01c-3.9-3.8-6.28-3.85-10.63-0.22
				c-8.59,7.16-21.96,6.79-30.45-0.86c-7.26-6.55-10.49-13.93-9.86-22.58c0.14-1.89,0.1-3.85,0.06-5.74
				c-0.02-0.91-0.03-1.81-0.03-2.72c0-5.98,2.42-9.44,7.62-10.88c6.19-1.72,12.52-2.98,18.79-3.74c4.46-0.54,9.03-0.68,13.44-0.81
				c1.66-0.05,3.38-0.1,5.07-0.17c0,0,8.1,0.02,11.51,0.44c8.08,1.01,16.43,2.05,24.57,3.54l0,0c7.64,1.4,10.18,4.72,10.05,13.19
				c-0.01,0.98-0.02,1.97-0.02,2.96c-0.02,4.05-0.04,8.23-0.78,12.25C195.5,132.83,183.69,142.31,172.4,142.31z M152.97,132.45
				c2.16,0,4.24,1.14,6.59,3.43c3.48,3.39,7.31,4.23,11.99,4.46c10.48,0.49,22.18-8.61,24.06-18.75c0.71-3.85,0.73-7.95,0.75-11.91
				c0-1,0.01-1.99,0.02-2.98c0.11-7.5-1.78-10.02-8.45-11.24l0,0c-8.09-1.48-16.41-2.52-24.46-3.52c-3.11-0.39-9.6-0.5-9.6-0.5
				l-0.79,0.04c-1.96,0.09-3.96,0.15-5.89,0.21c-4.37,0.13-8.89,0.26-13.26,0.8c-6.17,0.75-12.4,1.99-18.5,3.68
				c-4.34,1.2-6.19,3.89-6.19,9c0,0.89,0.02,1.78,0.03,2.68c0.04,1.94,0.08,3.94-0.07,5.92c-0.58,8,2.43,14.87,9.22,20.98
				c7.78,7.01,20.03,7.37,27.89,0.81C148.78,133.49,150.91,132.45,152.97,132.45z M134.24,136.36c-1.04,0-2.11-0.1-3.22-0.31
				c-6.49-1.2-11-3.99-13.77-8.51c-1.12-1.82-1.98-3.77-2.97-6.02c-0.5-1.12-1.01-2.29-1.61-3.57l-0.93-1.98l2.09,0.63
				c27.31,8.15,52.46,4.41,76.89-11.44l1.43-0.93l0.16,3.24c0.38,7.49,0.74,14.56-4.47,20.85l0,0c-5.2,6.27-12.13,8.85-20.61,7.66
				c-1.88-0.26-3.45-1.72-4.97-3.12c-0.39-0.36-0.77-0.71-1.15-1.04c-5.63-4.79-11.37-4.83-16.17-0.11
				C141.76,134.83,138.24,136.36,134.24,136.36z M115.32,119.07c0.26,0.57,0.5,1.12,0.74,1.67c0.97,2.19,1.8,4.08,2.85,5.79
				c2.47,4.02,6.54,6.51,12.46,7.61c4.77,0.89,8.64-0.32,12.18-3.81c5.54-5.45,12.4-5.45,18.81,0.02c0.4,0.34,0.8,0.71,1.21,1.09
				c1.3,1.2,2.64,2.44,3.91,2.62c7.76,1.09,14.1-1.25,18.83-6.97c4.69-5.66,4.39-12.32,4.03-19.36
				C166.48,122.74,141.89,126.46,115.32,119.07z M141.43,116.61c-8.79,0-17.82-1.43-27.16-4.28l-0.46-0.14l-0.17-0.46
				c-0.04-0.11-0.08-0.2-0.12-0.28c-0.11-0.24-0.25-0.55-0.24-0.92c0.05-1.65-0.03-3.01-0.08-4.1c-0.29-5.41,0.61-6.16,9.71-7.99
				l0,0c13.05-2.63,26.12-3.38,38.84-2.25c6.31,0.56,12.71,1.31,18.89,2.02l3.42,0.4c0.85,0.1,1.67,0.35,2.62,0.64
				c0.48,0.15,1.02,0.32,1.63,0.48l2.06,0.57l-1.78,1.19C173.49,111.59,157.9,116.61,141.43,116.61z M115.28,110.59
				c25.41,7.64,48.48,4.5,70.47-9.57c-0.73-0.22-1.33-0.39-1.91-0.46l-3.42-0.4c-6.17-0.72-12.55-1.46-18.84-2.02
				c-12.53-1.12-25.41-0.37-38.28,2.22c-8.37,1.69-8.36,1.85-8.14,5.97c0.06,1.11,0.13,2.49,0.09,4.18
				C115.25,110.54,115.26,110.56,115.28,110.59z M115.23,110.47L115.23,110.47L115.23,110.47z"/>
		</g>
		<g>
			<path class="st9" d="M220.32,112.38h-16.29l-0.01-0.97c-0.01-1.62-0.09-3.17-0.24-4.61l-0.11-1.08h32.31V51.75h-67.91v36.21
				l-1.07-0.1c-1.62-0.16-3.22-0.31-4.78-0.46l-0.89-0.08V51.72c-0.23,0-0.46-0.01-0.69-0.01c-1.17-0.02-2.28-0.04-3.38,0.04
				c-2.08,0.16-3.32,1.79-3.32,4.35c0,8.34,0,16.69,0,25.03l0,5.49l-1.07-0.1c-1.81-0.16-3.38-0.3-4.64-0.41l-0.89-0.08l0-0.9
				c-0.01-11.46,0-20.96,0.02-29.92c0.02-5.57,4.61-10.1,10.24-10.1c30.66-0.01,62.36-0.01,93.54,0.01c4.12,0,7.31,2.04,9.22,5.89
				l0,0c0.31,0.62,0.51,1.26,0.7,1.88c0.08,0.26,0.16,0.53,0.25,0.78l0.05,0.16v49.83l-0.07,0.18c-0.03,0.07-0.06,0.13-0.09,0.2
				c-0.02,0.05-0.05,0.1-0.06,0.15c-1.15,4.97-5.17,8.18-10.22,8.18H220.32z M205.96,110.43h44.99c4.17,0,7.36-2.55,8.31-6.67
				c0.04-0.19,0.11-0.35,0.18-0.48v-49.1c-0.08-0.23-0.15-0.46-0.22-0.69c-0.18-0.57-0.35-1.11-0.58-1.59l0,0
				c-1.58-3.19-4.1-4.81-7.47-4.81c-31.18-0.03-62.88-0.02-93.54-0.01c-4.55,0-8.27,3.66-8.28,8.15
				c-0.03,8.72-0.03,17.96-0.03,29.02c0.8,0.07,1.7,0.15,2.69,0.24l0-3.35c0-8.35,0-16.69,0-25.04c0-3.58,2.01-6.05,5.12-6.3
				c1.19-0.09,2.34-0.07,3.57-0.05c0.53,0.01,1.08,0.02,1.63,0.02h0.98v35.75c0.93,0.09,1.87,0.18,2.82,0.27V49.79h71.82v57.89
				h-32.11C205.89,108.57,205.94,109.48,205.96,110.43z M248.79,107.75c-1.86,0-3.72-0.01-5.59-0.01l-1.11,0
				c-0.23,0-0.41-0.07-0.52-0.12l-0.73-0.26V49.77h0.98c0.98,0,1.95-0.01,2.92-0.01c2.3-0.01,4.48-0.03,6.71,0.03
				c2.55,0.07,4.66,1.96,5.14,4.6c0.1,0.58,0.16,1.19,0.16,1.8c0.01,15.06,0.01,30.11,0,45.17c0,3.34-1.65,5.62-4.51,6.25h0
				c-0.6,0.13-1.21,0.13-1.75,0.13h-0.08C249.87,107.75,249.33,107.75,248.79,107.75z M242.8,105.78l0.4,0
				c2.4,0.01,4.8,0.02,7.2,0.01h0.08c0.48,0,0.94,0,1.34-0.09c2.46-0.54,2.98-2.66,2.98-4.34c0-15.05,0-30.11,0-45.16
				c0-0.5-0.04-0.99-0.13-1.46c-0.31-1.72-1.65-2.95-3.27-2.99c-2.2-0.06-4.36-0.05-6.65-0.03c-0.65,0-1.3,0.01-1.95,0.01V105.78z
				 M242.09,105.78L242.09,105.78C242.1,105.78,242.1,105.78,242.09,105.78z"/>
		</g>
	</g>
	<g class="st10">
		<linearGradient id="SVGID_4_" gradientUnits="userSpaceOnUse" x1="45.4179" y1="229.5994" x2="130.9794" y2="229.5994">
			<stop  offset="0" style="stop-color:#5BBCE6"/>
			<stop  offset="0.9982" style="stop-color:#9618CC"/>
		</linearGradient>
		<path class="st11" d="M88.07,216.65c-1.4,0-2.83,0.05-4.27,0.14C65.51,218,49.06,229,45.42,242.55c28.47,0,56.91,0,85.56,0
			C124.28,226.19,108.08,216.64,88.07,216.65z M83.93,218.64c1.39-0.09,2.78-0.14,4.14-0.14c18.35,0,33.1,8.24,40.04,22.2H47.98
			C52.59,229.02,67.51,219.72,83.93,218.64z"/>
		<linearGradient id="SVGID_5_" gradientUnits="userSpaceOnUse" x1="62.0869" y1="368.0757" x2="113.8596" y2="368.0757">
			<stop  offset="0" style="stop-color:#5BBCE6"/>
			<stop  offset="0.9982" style="stop-color:#9618CC"/>
		</linearGradient>
		<path class="st12" d="M88.05,365.27c-8.58,0-17.15-3.76-25.89-11.2c0,6.64,0.18,12.11-0.06,17.57c-0.15,3.42,1.41,5.35,4.31,6.42
			c7.19,2.67,14.39,4.02,21.58,4.02c7.21,0,14.4-1.36,21.57-4.13c1.71-0.66,3.91-2.79,4.03-4.38c0.47-6.14,0.19-12.34,0.19-19.48
			C105.08,361.57,96.56,365.27,88.05,365.27z M111.74,373.43c-0.05,0.61-1.53,2.28-2.85,2.79c-6.88,2.66-13.91,4.01-20.9,4.01
			c-6.9,0-13.95-1.31-20.94-3.91c-2.31-0.86-3.21-2.19-3.1-4.6c0.17-3.82,0.13-7.7,0.1-11.81c-0.01-0.64-0.01-1.29-0.02-1.95
			c8.11,6.16,16,9.17,24.02,9.17c8.02,0,15.87-3,23.9-9.15c0.01,0.65,0.01,1.29,0.02,1.92
			C112.02,364.62,112.07,369.08,111.74,373.43z"/>
		<linearGradient id="SVGID_6_" gradientUnits="userSpaceOnUse" x1="22.135" y1="272.8776" x2="28.1066" y2="272.8776">
			<stop  offset="0" style="stop-color:#5BBCE6"/>
			<stop  offset="0.9982" style="stop-color:#9618CC"/>
		</linearGradient>
		<path class="st13" d="M22.45,267.7c0.84,5.42-3.5,12.73,5.66,16.26V261.8C24.1,261.98,21.88,264.02,22.45,267.7z M24.2,272.68
			c0.17-1.74,0.35-3.53,0.08-5.26c-0.17-1.1-0.02-1.94,0.46-2.52c0.33-0.41,0.85-0.72,1.52-0.94v16.94
			C23.58,278.91,23.85,276.18,24.2,272.68z"/>
		<linearGradient id="SVGID_7_" gradientUnits="userSpaceOnUse" x1="41.1847" y1="330.2834" x2="134.6795" y2="330.2834">
			<stop  offset="0" style="stop-color:#5BBCE6"/>
			<stop  offset="0.9982" style="stop-color:#9618CC"/>
		</linearGradient>
		<path class="st14" d="M103.99,305c-2.07-0.05-4.5-1.01-6.09-2.35c-2.76-2.33-6.39-3.49-10-3.49c-3.53,0-7.04,1.11-9.69,3.34
			c-1.7,1.43-4.3,2.43-6.52,2.49c-4.67,0.12-9.34,0.16-14.08,0.16c-5.35,0-10.79-0.04-16.42-0.04
			c4.67,17.39,11.05,32.92,23.42,45.25c7.39,7.37,15.4,11.05,23.4,11.05c8.05,0,16.09-3.72,23.51-11.14
			c9.98-9.97,15.97-22.29,20.36-35.48c1.01-3.03,1.78-6.13,2.8-9.69c-5.66,0-11.09,0.04-16.41,0.04
			C113.45,305.14,108.71,305.11,103.99,305z M132.23,306.96c-0.09,0.33-0.18,0.66-0.27,0.99c-0.6,2.19-1.18,4.26-1.84,6.26
			c-5.05,15.18-11.37,26.22-19.91,34.76c-6.93,6.93-14.61,10.59-22.2,10.59c-7.67,0-15.1-3.54-22.09-10.51
			c-10.15-10.12-16.88-22.79-22.3-42.09c2.02,0,4.01,0.01,5.99,0.02c2.7,0.01,5.36,0.02,8.01,0.02c5.67,0,10.03-0.05,14.13-0.16
			c2.62-0.07,5.63-1.22,7.66-2.93c2.23-1.87,5.25-2.9,8.49-2.9c3.34,0,6.47,1.08,8.81,3.05c1.94,1.63,4.78,2.72,7.24,2.78
			c4.14,0.1,8.56,0.14,14.33,0.14c2.62,0,5.26-0.01,7.95-0.02C128.2,306.97,130.2,306.96,132.23,306.96z"/>
		<linearGradient id="SVGID_8_" gradientUnits="userSpaceOnUse" x1="147.9191" y1="273.7227" x2="153.9285" y2="273.7227">
			<stop  offset="0" style="stop-color:#5BBCE6"/>
			<stop  offset="0.9982" style="stop-color:#9618CC"/>
		</linearGradient>
		<path class="st15" d="M153.62,268.54c0.57-3.7-1.67-5.74-5.7-5.91c0,7.2,0,14.24,0,22.18
			C157.13,281.3,152.77,273.97,153.62,268.54z M149.77,281.77v-16.98c0.69,0.21,1.22,0.53,1.55,0.94c0.48,0.58,0.63,1.43,0.46,2.53
			c-0.27,1.73-0.09,3.52,0.08,5.26C152.22,277.04,152.49,279.77,149.77,281.77z"/>
		<linearGradient id="SVGID_9_" gradientUnits="userSpaceOnUse" x1="32.2092" y1="274.1011" x2="143.7557" y2="274.1011">
			<stop  offset="0" style="stop-color:#5BBCE6"/>
			<stop  offset="0.9982" style="stop-color:#9618CC"/>
		</linearGradient>
		<path class="st16" d="M135.09,247.07c-6.41-0.02-12.82-0.02-19.23-0.02c-9.18,0-18.37,0.01-27.55,0.01
			c-9.11,0-18.21-0.01-27.32-0.01c-6.99,0-13.98,0.01-20.96,0.04c-5.87,0.03-7.76,1.97-7.78,7.79c-0.05,12.78-0.05,25.55,0,38.33
			c0.02,5.73,2.06,7.84,7.76,7.89c4.86,0.04,9.73,0.07,14.59,0.07c5.42,0,10.85-0.04,16.27-0.13c1.78-0.03,3.87-0.86,5.26-2.01
			c3.18-2.61,7.57-3.91,11.93-3.91c4.3,0,8.58,1.27,11.67,3.8c1.5,1.23,3.77,2.08,5.71,2.12c5.04,0.11,10.08,0.14,15.12,0.14
			c4.91,0,9.83-0.03,14.74-0.05c6.42-0.03,8.41-1.98,8.43-8.24c0.04-12.44,0.03-24.89,0-37.33
			C143.72,248.82,141.97,247.09,135.09,247.07z M141.88,292.85c-0.02,5.24-1.19,6.37-6.58,6.4l-3.05,0.01
			c-3.89,0.02-7.79,0.04-11.68,0.04c-5.82,0-10.62-0.04-15.08-0.14c-1.51-0.03-3.39-0.73-4.58-1.7c-3.32-2.72-7.88-4.21-12.84-4.21
			c-4.97,0-9.74,1.58-13.1,4.33c-1.11,0.91-2.81,1.56-4.12,1.59c-4.97,0.09-10.28,0.13-16.24,0.13c-4.21,0-8.7-0.02-14.57-0.07
			c-4.69-0.04-5.9-1.28-5.92-6.04c-0.05-12.8-0.05-25.69,0-38.31c0.02-4.81,1.13-5.92,5.93-5.94c6.11-0.03,12.77-0.04,20.95-0.04
			c4.55,0,9.11,0,13.66,0.01c4.55,0,9.11,0.01,13.66,0.01c4.18,0,8.35,0,12.53-0.01c5.01,0,10.02-0.01,15.03-0.01
			c6.41,0,12.82,0,19.23,0.02c5.83,0.01,6.78,0.94,6.79,6.61C141.91,269.81,141.91,281.67,141.88,292.85z"/>
		<linearGradient id="SVGID_10_" gradientUnits="userSpaceOnUse" x1="16.5024" y1="299.365" x2="159.5602" y2="299.365">
			<stop  offset="0" style="stop-color:#5BBCE6"/>
			<stop  offset="0.9982" style="stop-color:#9618CC"/>
		</linearGradient>
		<path class="st17" d="M149.66,256.45c-0.03-0.36-0.06-0.72-0.08-1.07c-0.31-8.86-2.5-11.64-11.19-14.18
			c-0.68-0.2-1.73-1.34-2.39-2.61c-9.65-18.38-25.78-27.7-47.92-27.7l-0.18,0c-22.14,0.05-38.17,9.31-47.64,27.54
			c-1.07,2.06-1.86,2.96-3.95,3.14c-4.94,0.44-8.45,3.78-9.64,9.17c-0.31,1.38-0.39,2.76-0.43,4.04l0,0.03v0.03v0.82
			c-8.62,3.41-9.75,5.49-9.75,15.57l0,0.61l0,2.87c0.01,9.19,1.5,11.66,9.75,14.63v2.98v1.78v0.09l0.01,0.09
			c0.07,0.74,0.21,1.38,0.42,1.98c1.23,3.39,2.78,7.13,5.66,8.56c2.79,1.38,3.44,3.24,4.34,6.4c4.2,14.65,10.07,26.78,17.94,37.08
			c0.9,1.17,1.52,3.04,1.59,4.76c0.22,5.37,0.39,11.74,0.01,18.21c-0.35,5.99,2.39,10.21,7.95,12.2c3.52,1.26,7.19,2.19,10.73,3.09
			c1.52,0.38,3.09,0.78,4.61,1.2l0.24,0.07h0.25h15.94h0.25l0.24-0.07c1.52-0.42,3.09-0.81,4.61-1.2c3.54-0.9,7.2-1.83,10.73-3.1
			c5.55-2,8.3-6.22,7.94-12.2c-0.36-6.14-0.2-12.37,0-18.23c0.06-1.66,0.58-3.37,1.32-4.34c8.06-10.48,14.01-22.76,18.18-37.52
			c0.93-3.29,1.67-4.99,4.4-6.37c2.88-1.45,4.43-5.18,5.65-8.57c0.65-1.79,0.49-3.72,0.36-5.42c-0.02-0.19-0.03-0.37-0.04-0.55
			c8.52-3.03,9.96-5.4,9.96-14.71v-3.48C159.56,261.94,158.42,259.89,149.66,256.45z M157.71,275.56
			c-0.01,8.9-1.07,10.39-10.02,13.41c0,2.11,0.59,4.62-0.14,6.64c-1.01,2.79-2.44,6.38-4.74,7.55c-3.52,1.78-4.43,4.28-5.35,7.52
			c-3.77,13.34-9.35,25.82-17.87,36.89c-1.09,1.42-1.64,3.57-1.7,5.4c-0.21,6.13-0.36,12.29,0.01,18.4
			c0.32,5.35-2.14,8.7-6.72,10.35c-4.94,1.78-10.12,2.86-15.2,4.25c-5.31,0-10.63,0-15.94,0c-5.08-1.39-10.27-2.47-15.21-4.24
			c-4.59-1.65-7.04-5-6.72-10.35c0.36-6.11,0.24-12.27-0.01-18.4c-0.08-1.98-0.78-4.25-1.97-5.81
			c-8.39-10.97-13.86-23.3-17.64-36.46c-0.92-3.2-1.73-5.78-5.3-7.55c-2.3-1.14-3.73-4.74-4.75-7.54c-0.17-0.48-0.27-0.99-0.32-1.52
			v-2.2c0.07-1.04,0.18-2.09,0.18-3.1c-0.06,0.04-0.12,0.08-0.18,0.12v-0.89c-8.69-2.95-9.75-4.51-9.75-13.31c0-1.16,0-2.32,0-3.48
			c0-9.79,0.72-10.86,9.75-14.31v-2.09c0.04-1.25,0.12-2.5,0.38-3.7c0.93-4.23,3.53-7.33,7.99-7.72c2.98-0.27,4.2-1.76,5.43-4.13
			c9.67-18.6,25.68-26.49,46-26.54c0.06,0,0.11,0,0.17,0c20.45,0,36.46,8.01,46.28,26.71c0.75,1.43,2.1,3.11,3.51,3.52
			c7.87,2.3,9.57,4.26,9.86,12.46c0.03,0.81,0.13,1.62,0.19,2.32c9.06,3.45,9.77,4.52,9.78,14.32
			C157.71,273.24,157.71,274.4,157.71,275.56z"/>
		<linearGradient id="SVGID_11_" gradientUnits="userSpaceOnUse" x1="107.1795" y1="259.6082" x2="140.9268" y2="259.6082">
			<stop  offset="0" style="stop-color:#5BBCE6"/>
			<stop  offset="0.9982" style="stop-color:#9618CC"/>
		</linearGradient>
		<path class="st18" d="M131.92,250.6c-3.38,0-6.32,1.87-7.86,4.63c-1.54-2.76-4.49-4.63-7.86-4.63c-4.97,0-9.01,4.04-9.01,9.01
			c0,4.97,4.04,9.01,9.01,9.01c3.38,0,6.32-1.87,7.86-4.63c1.54,2.76,4.49,4.63,7.86,4.63c4.97,0,9.01-4.04,9.01-9.01
			C140.93,254.64,136.89,250.6,131.92,250.6z M116.19,266.76c-3.95,0-7.16-3.21-7.16-7.16c0-3.95,3.21-7.16,7.16-7.16
			c3.31,0,6.09,2.26,6.91,5.32c-0.12,0.59-0.19,1.21-0.19,1.84c0,0.63,0.07,1.24,0.19,1.84C122.28,264.5,119.5,266.76,116.19,266.76
			z M131.92,266.76c-3.31,0-6.1-2.26-6.91-5.32c0.12-0.59,0.19-1.21,0.19-1.84c0-0.63-0.07-1.24-0.19-1.84
			c0.81-3.06,3.6-5.32,6.91-5.32c3.95,0,7.16,3.21,7.16,7.16C139.07,263.55,135.86,266.76,131.92,266.76z"/>
		<linearGradient id="SVGID_12_" gradientUnits="userSpaceOnUse" x1="127.7491" y1="259.6082" x2="136.0857" y2="259.6082">
			<stop  offset="0" style="stop-color:#5BBCE6"/>
			<stop  offset="0.9982" style="stop-color:#9618CC"/>
		</linearGradient>
		<path class="st19" d="M131.92,255.44c-2.3,0-4.17,1.87-4.17,4.17c0,2.3,1.87,4.17,4.17,4.17c2.3,0,4.17-1.87,4.17-4.17
			C136.09,257.31,134.22,255.44,131.92,255.44z M131.92,261.92c-1.28,0-2.32-1.04-2.32-2.32c0-1.28,1.04-2.32,2.32-2.32
			c1.28,0,2.32,1.04,2.32,2.32C134.23,260.89,133.19,261.92,131.92,261.92z"/>
		<linearGradient id="SVGID_13_" gradientUnits="userSpaceOnUse" x1="112.0206" y1="259.6082" x2="120.3567" y2="259.6082">
			<stop  offset="0" style="stop-color:#5BBCE6"/>
			<stop  offset="0.9982" style="stop-color:#9618CC"/>
		</linearGradient>
		<path class="st20" d="M116.19,255.44c-2.3,0-4.17,1.87-4.17,4.17c0,2.3,1.87,4.17,4.17,4.17c2.3,0,4.17-1.87,4.17-4.17
			C120.36,257.31,118.49,255.44,116.19,255.44z M116.19,261.92c-1.28,0-2.32-1.04-2.32-2.32c0-1.28,1.04-2.32,2.32-2.32
			c1.28,0,2.32,1.04,2.32,2.32C118.5,260.89,117.47,261.92,116.19,261.92z"/>
		<linearGradient id="SVGID_14_" gradientUnits="userSpaceOnUse" x1="41.6594" y1="287.9207" x2="72.226" y2="287.9207">
			<stop  offset="0" style="stop-color:#5BBCE6"/>
			<stop  offset="0.9982" style="stop-color:#9618CC"/>
		</linearGradient>
		<path class="st21" d="M70.26,285.95H43.63c-1.08,0-1.97,0.88-1.97,1.97c0,1.08,0.88,1.97,1.97,1.97h26.63
			c1.08,0,1.97-0.88,1.97-1.97C72.23,286.84,71.34,285.95,70.26,285.95z M70.26,288.03H43.63c-0.06,0-0.11-0.05-0.11-0.11
			c0-0.06,0.05-0.11,0.11-0.11h26.63c0.06,0,0.11,0.05,0.11,0.11C70.37,287.98,70.32,288.03,70.26,288.03z"/>
		<linearGradient id="SVGID_15_" gradientUnits="userSpaceOnUse" x1="36.8184" y1="287.9206" x2="77.067" y2="287.9206">
			<stop  offset="0" style="stop-color:#5BBCE6"/>
			<stop  offset="0.9982" style="stop-color:#9618CC"/>
		</linearGradient>
		<path class="st22" d="M70.26,281.11H43.63c-3.75,0-6.81,3.05-6.81,6.81s3.05,6.81,6.81,6.81h26.63c3.75,0,6.81-3.05,6.81-6.81
			S74.01,281.11,70.26,281.11z M70.26,292.88H43.63c-2.73,0-4.95-2.22-4.95-4.95c0-2.73,2.22-4.95,4.95-4.95h26.63
			c2.73,0,4.95,2.22,4.95,4.95C75.21,290.65,72.99,292.88,70.26,292.88z"/>
	</g>
</g>
</svg>
