<?xml version="1.0" encoding="utf-8"?>
<!-- Generator: Adobe Illustrator 23.0.0, SVG Export Plug-In . SVG Version: 6.00 Build 0)  -->
<svg version="1.1" id="Layer_1" xmlns="http://www.w3.org/2000/svg" xmlns:xlink="http://www.w3.org/1999/xlink" x="0px" y="0px"
	 viewBox="0 0 419.67 605.07" style="enable-background:new 0 0 419.67 605.07;" xml:space="preserve">
<style type="text/css">
	.st0{fill:url(#SVGID_1_);}
	.st1{fill:none;stroke:#D3BACB;stroke-width:2.5;stroke-linejoin:round;stroke-miterlimit:10;stroke-dasharray:3;}
	.st2{fill:#FFFFFF;}
	.st3{fill:#FDBF17;}
</style>
<g>
	
		<linearGradient id="SVGID_1_" gradientUnits="userSpaceOnUse" x1="-66.7944" y1="189.6176" x2="-46.1763" y2="663.5795" gradientTransform="matrix(0.9222 -0.3866 0.3866 0.9222 66.9682 -186.2479)">
		<stop  offset="0" style="stop-color:#5BBCE6"/>
		<stop  offset="0.9982" style="stop-color:#9618CC"/>
	</linearGradient>
	<path class="st0" d="M8.43,425.33c7.03,30.08,60.99,108.6,149.47,20.21c98.73-98.63,114.9-90.67,156.7-100.25
		c59.07-13.54,141.43-70.61,87.6-205.66S248.85-27.31,172.11,21.66c0,0-39.07,25.17-39.67,70.83s3.37,211.5-65.73,250.19
		C23.8,362.29-1.28,383.76,8.43,425.33z"/>
	<path class="st1" d="M85.07,604.52c0,0-111.85-227.49,84.63-305.68C293.5,249.57,322.55,182.62,371.81,8.31"/>
	<g>
		<path class="st2" d="M155.38,303.12c13.52,34.32-12.03,68.67-46.35,82.19s-66.01-5.28-79.53-39.6s-0.26-62.26,34.06-75.79
			C97.88,256.39,141.86,268.8,155.38,303.12z"/>
		<path class="st3" d="M106.43,389.32c-33.17,13.07-66.46-3.46-80.94-40.21c-13.57-34.44-0.61-63.3,34.67-77.2
			c17.11-6.74,36.95-7.24,54.45-1.36c18.52,6.22,32.29,18.71,38.78,35.17C167.29,340.99,140.43,375.92,106.43,389.32z M60.96,273.93
			c-34.01,13.4-46.52,41.21-33.44,74.38c14.01,35.56,46.14,51.59,78.12,38.99c33-13.01,59.13-46.78,45.73-80.78
			c-6.25-15.85-19.55-27.9-37.45-33.91C96.9,266.89,77.59,267.37,60.96,273.93z"/>
	</g>
	<g>
		<path class="st2" d="M135.17,474.27c13.52,34.32-12.03,68.67-46.35,82.19c-34.32,13.52-66.01-5.28-79.53-39.6
			s-0.26-62.26,34.06-75.79S121.65,439.96,135.17,474.27z"/>
		<path class="st3" d="M86.22,560.48c-33.17,13.07-66.46-3.46-80.94-40.21c-13.57-34.44-0.61-63.3,34.67-77.2
			c17.11-6.74,36.95-7.24,54.45-1.36c18.52,6.22,32.29,18.71,38.78,35.17C147.08,512.14,120.22,547.08,86.22,560.48z M40.75,445.09
			C6.73,458.49-5.77,486.3,7.3,519.47c14.01,35.56,46.14,51.59,78.12,38.99c33-13.01,59.13-46.78,45.73-80.78
			c-6.25-15.85-19.55-27.9-37.45-33.91C76.69,438.05,57.38,438.53,40.75,445.09z"/>
	</g>
	<g>
		<path class="st2" d="M333.39,237.16c14.13,35.86-12.57,71.76-48.44,85.9c-35.86,14.13-68.98-5.52-83.12-41.39
			s-0.27-65.07,35.59-79.21S319.26,201.29,333.39,237.16z"/>
		<path class="st3" d="M282.37,326.11c-34.67,13.66-69.46-3.62-84.59-42.03c-14.18-35.99-0.64-66.15,36.23-80.68
			c17.88-7.05,38.62-7.56,56.91-1.42c19.35,6.5,33.75,19.55,40.53,36.76C345.98,275.6,317.9,312.11,282.37,326.11z M234.85,205.52
			c-35.55,14.01-48.61,43.07-34.95,77.73c14.65,37.16,48.22,53.92,81.64,40.74c34.49-13.59,61.8-48.89,47.8-84.42
			c-6.53-16.57-20.43-29.15-39.14-35.44C272.41,198.16,252.23,198.67,234.85,205.52z"/>
	</g>
	<g>
		<path class="st2" d="M397.38,67.12c13.52,34.32-12.03,68.67-46.35,82.19c-34.32,13.52-66.01-5.28-79.53-39.6
			s-0.26-62.26,34.06-75.79S383.86,32.8,397.38,67.12z"/>
		<path class="st3" d="M347.43,153.32c-33.17,13.07-66.46-3.46-80.94-40.21c-13.57-34.44-0.61-63.3,34.67-77.2
			c17.11-6.74,36.95-7.24,54.45-1.36c18.52,6.22,32.29,18.71,38.78,35.17C408.29,104.99,381.43,139.92,347.43,153.32z M301.96,37.93
			c-34.01,13.4-46.52,41.21-33.44,74.38c14.01,35.56,46.14,51.59,78.12,38.99c33-13.01,59.13-46.78,45.73-80.78
			c-6.25-15.85-19.55-27.9-37.45-33.91C337.9,30.89,318.59,31.37,301.96,37.93z"/>
	</g>
</g>
</svg>
