<?xml version="1.0" encoding="utf-8"?>
<!-- Generator: Adobe Illustrator 23.0.0, SVG Export Plug-In . SVG Version: 6.00 Build 0)  -->
<svg version="1.1" id="Layer_1" xmlns="http://www.w3.org/2000/svg" xmlns:xlink="http://www.w3.org/1999/xlink" x="0px" y="0px"
	 viewBox="0 0 626.01 510.75" style="enable-background:new 0 0 626.01 510.75;" xml:space="preserve">
<style type="text/css">
	.st0{opacity:0.05;fill:url(#SVGID_1_);}
	.st1{opacity:0.05;fill:url(#SVGID_2_);}
</style>
<g>
	
		<linearGradient id="SVGID_1_" gradientUnits="userSpaceOnUse" x1="687.3412" y1="-226.3547" x2="706.9451" y2="224.293" gradientTransform="matrix(0.925 -0.3801 0.3801 0.925 -246.5323 532.7492)">
		<stop  offset="0" style="stop-color:#5BBCE6"/>
		<stop  offset="0.9982" style="stop-color:#9618CC"/>
	</linearGradient>
	<path class="st0" d="M233.62,452.32c6.48,28.65,57.25,103.66,141.98,20.22c94.54-93.11,109.86-85.44,149.66-94.26
		c56.26-12.47,134.95-66.18,84.68-194.95S465.27,23.58,391.97,69.62c0,0-37.32,23.67-38.2,67.07
		c-0.88,43.41,1.77,201.12-64.19,237.44C248.66,392.49,224.67,412.72,233.62,452.32z"/>
	
		<linearGradient id="SVGID_2_" gradientUnits="userSpaceOnUse" x1="-1767.7756" y1="208.3428" x2="-1432.4241" y2="208.3428" gradientTransform="matrix(-0.6174 -0.7867 0.7867 -0.6174 -944.4391 -936.9747)">
		<stop  offset="0" style="stop-color:#FDBF17"/>
		<stop  offset="0.9982" style="stop-color:#9618CC"/>
	</linearGradient>
	<path class="st1" d="M346.66,71.9c-12,30.11-29.69,64.68-24.43,106.53s3.02,145.91-72.98,194.06
		c-74.65,47.3-185.4-29.1-212.1-62.28C-9.34,252.45-24.28,173.28,64.59,93.28C164.28,3.55,254.75,2.53,276.72,0.36
		C323.64-4.29,360.39,37.45,346.66,71.9z"/>
</g>
</svg>
