<?xml version="1.0" encoding="utf-8"?>
<!-- Generator: Adobe Illustrator 23.0.0, SVG Export Plug-In . SVG Version: 6.00 Build 0)  -->
<svg version="1.1" id="Layer_1" xmlns="http://www.w3.org/2000/svg" xmlns:xlink="http://www.w3.org/1999/xlink" x="0px" y="0px"
	 viewBox="0 0 368.65 469.58" style="enable-background:new 0 0 368.65 469.58;" xml:space="preserve">
<style type="text/css">
	.st0{opacity:0.2;fill:url(#SVGID_1_);}
	.st1{fill:url(#SVGID_2_);}
	.st2{fill:none;stroke:#D3BACB;stroke-width:1.5;stroke-linecap:round;stroke-miterlimit:10;stroke-dasharray:3;}
	.st3{fill:url(#SVGID_3_);}
	.st4{fill:url(#SVGID_4_);}
	.st5{fill:#FDBF17;}
	.st6{fill:#FFFFFF;stroke:#000000;stroke-width:3;stroke-miterlimit:10;}
	.st7{fill:#39B54A;stroke:#000000;stroke-width:3;stroke-miterlimit:10;}
	.st8{fill:#ED1C24;stroke:#000000;stroke-width:3;stroke-miterlimit:10;}
	.st9{fill:#FFFFFF;}
	.st10{fill:url(#SVGID_5_);}
	.st11{fill:url(#SVGID_6_);}
	.st12{fill:url(#SVGID_7_);}
	.st13{fill:url(#SVGID_8_);}
	.st14{fill:url(#SVGID_9_);}
	.st15{fill:url(#SVGID_10_);}
	.st16{fill:url(#SVGID_11_);}
	.st17{fill:#ED1C24;stroke:#000000;stroke-width:1.5;stroke-miterlimit:10;}
	.st18{fill:#39B54A;stroke:#000000;stroke-width:1.5;stroke-miterlimit:10;}
</style>
<g>
	<g>
		
			<linearGradient id="SVGID_1_" gradientUnits="userSpaceOnUse" x1="-67.6196" y1="290.8765" x2="-51.627" y2="658.5101" gradientTransform="matrix(0.9222 -0.3866 0.3866 0.9222 54.0542 -190.7961)">
			<stop  offset="0" style="stop-color:#FDBF17"/>
			<stop  offset="0.9982" style="stop-color:#9618CC"/>
		</linearGradient>
		<path class="st0" d="M49.67,422.31c5.45,23.33,47.31,84.23,115.94,15.68c76.58-76.5,89.13-70.33,121.54-77.76
			c45.82-10.5,109.7-54.77,67.95-159.52s-118.95-129.48-178.47-91.5c0,0-30.31,19.52-30.77,54.94s2.61,164.06-50.99,194.07
			C61.58,373.41,42.13,390.06,49.67,422.31z"/>
		
			<linearGradient id="SVGID_2_" gradientUnits="userSpaceOnUse" x1="457.4078" y1="3306.019" x2="86.4055" y2="3155.4211" gradientTransform="matrix(0.9901 -0.1406 0.1406 0.9901 -555.8463 -2938.8989)">
			<stop  offset="0" style="stop-color:#FDBF17"/>
			<stop  offset="0.9982" style="stop-color:#9618CC"/>
		</linearGradient>
		<path class="st1" d="M207.27,417.7c-19.65-24.95-40.3-56.92-78.38-72.99C90.81,328.64,3.64,275.69,0.08,187.59
			C-3.42,101.06,115.72,44.6,156.96,38.23c71.81-11.09,146.3,15.07,170.56,129.71c27.21,128.59-16.31,205.83-25.25,225.53
			C283.19,435.56,229.76,446.25,207.27,417.7z"/>
	</g>
	<circle class="st2" cx="179.59" cy="216.8" r="34.72"/>
	<g>
		<g>
			<g>
				<g>
					<linearGradient id="SVGID_3_" gradientUnits="userSpaceOnUse" x1="90.606" y1="138.7478" x2="166.7937" y2="138.7478">
						<stop  offset="0" style="stop-color:#FDBF17"/>
						<stop  offset="0.9982" style="stop-color:#9618CC"/>
					</linearGradient>
					<path class="st3" d="M151.94,148.37c-1.87,0-3.74,0-5.61,0l-17.74,0l-9.66,0l-24.15,0c-3.34,0-4.16-0.81-4.16-4.12l0-0.62
						c0-0.99,0-1.97,0-2.96c0.01-2.8,1.03-3.8,3.87-3.8c2.67-0.01,5.34,0,8.01,0h5.18c0.24,0,0.78,0,1.12-0.03
						c0.03-0.34,0.03-0.87,0.03-1.1l0-2.48c0.01-3.15,0.96-4.11,4.06-4.11c5.75,0,11.51,0,17.26,0l7.29,0.01
						c0.8,0,1.6,0.01,2.4-0.01c1.17-0.03,2.07,0.28,2.71,0.92c0.63,0.64,0.94,1.53,0.9,2.66c-0.02,0.72-0.02,1.45-0.01,2.17
						l0.01,0.88c0,0.21,0,0.73,0.04,1.07c0.32,0.03,0.81,0.03,1,0.03l18.15,0c3.23,0,4.16,0.94,4.17,4.16l0,0.66
						c0,0.97,0.01,1.95,0,2.92c-0.03,2.77-1.01,3.75-3.77,3.75C159.33,148.37,155.63,148.37,151.94,148.37z M128.58,145.37l17.74,0
						c5.56,0,11.12,0,16.69-0.01c0.37,0,0.59-0.02,0.73-0.03c0.02-0.14,0.04-0.37,0.04-0.75c0.01-0.96,0.01-1.92,0-2.89l0-0.66
						c0-0.6-0.02-0.94-0.05-1.12c-0.18-0.03-0.52-0.05-1.12-0.05l-18.15,0c-3.15,0-4.02-0.88-4.03-4.09l-0.01-0.86
						c-0.01-0.76-0.01-1.53,0.01-2.29c0.01-0.29-0.03-0.42-0.05-0.46c-0.02,0-0.14-0.03-0.4-0.03c-0.03,0-0.06,0-0.08,0
						c-0.83,0.02-1.67,0.02-2.5,0.01l-7.27-0.01c-5.75,0-11.51,0-17.26,0c-0.54,0-0.84,0.02-1.01,0.04
						c-0.02,0.18-0.05,0.49-0.05,1.07l0,2.48c-0.01,3.32-0.82,4.13-4.15,4.13h-5.18c-2.67,0-5.33,0-8,0c-0.43,0-0.69,0.02-0.84,0.04
						c-0.02,0.14-0.03,0.38-0.04,0.78c0,0.98,0,1.96,0,2.94l0,0.62c0,0.23,0,0.76,0.03,1.09c0.35,0.03,0.89,0.03,1.13,0.03l24.15,0
						L128.58,145.37z"/>
				</g>
				<g>
					<linearGradient id="SVGID_4_" gradientUnits="userSpaceOnUse" x1="41.3798" y1="62.9705" x2="209.3797" y2="62.9705">
						<stop  offset="0" style="stop-color:#FDBF17"/>
						<stop  offset="0.9982" style="stop-color:#9618CC"/>
					</linearGradient>
					<path class="st4" d="M150.15,124.94c-16.37,0-32.75,0-49.12-0.01l-4.39,0l-7.81,0c-12.07,0-24.13,0-36.19,0
						c-6.73,0-11.25-4.64-11.25-11.53c-0.01-33.62,0-67.25,0.01-100.87c0-0.87,0.03-2.01,0.3-3.11C42.99,3.99,47.03,1,53.08,1
						l71.56,0l72.8,0c6.17,0,10.3,2.99,11.62,8.41c0.27,1.11,0.31,2.25,0.31,3.12l0,0c0.01,33.62,0.01,67.25,0.01,100.87
						c0,6.89-4.61,11.53-11.47,11.53C181.99,124.94,166.07,124.94,150.15,124.94z M96.78,121.94l4.25,0
						c32.29,0.01,64.58,0.01,96.87,0c5.22,0,8.47-3.27,8.47-8.53c0.01-33.62,0.01-67.24-0.01-100.87v0c0-0.7-0.02-1.61-0.22-2.41
						C205.15,6.06,202.23,4,197.44,4l-72.8,0L53.08,4c-4.66,0-7.51,2.06-8.48,6.12c-0.19,0.8-0.22,1.71-0.22,2.42
						c-0.01,33.62-0.01,67.24-0.01,100.87c0,5.26,3.16,8.53,8.25,8.53c12.06,0.01,24.13,0,36.19,0l7.93,0L96.78,121.94z
						 M124.95,116.86c-3.08,0-5.61-2.51-5.63-5.61c-0.01-1.49,0.57-2.9,1.63-3.98c1.07-1.08,2.47-1.68,3.96-1.69
						c1.48-0.01,2.9,0.58,3.98,1.64c1.08,1.07,1.67,2.48,1.68,3.97c0.01,1.49-0.58,2.9-1.65,3.98c-1.07,1.08-2.47,1.67-3.96,1.68
						C124.96,116.86,124.96,116.86,124.95,116.86z M124.96,113.86l0.01,1.5L124.96,113.86c0.68,0,1.34-0.28,1.84-0.79
						c0.51-0.51,0.78-1.17,0.78-1.86c0-0.69-0.28-1.35-0.79-1.85c-0.51-0.5-1.19-0.75-1.85-0.77c-0.69,0-1.34,0.28-1.84,0.79
						c-0.5,0.51-0.77,1.17-0.77,1.85C122.33,112.66,123.53,113.86,124.96,113.86C124.95,113.86,124.96,113.86,124.96,113.86z
						 M102.51,103.99l-54.23,0l0-90.9c0-3.78,1.25-5.05,4.93-5.05h144.1c3.79,0,5.01,1.23,5.01,5.05l0,90.9L102.51,103.99z
						 M51.28,100.99h148.04l0-87.9c0-2.05,0-2.05-2.01-2.05H53.21c-1.42,0-1.68,0.17-1.71,0.2c-0.04,0.04-0.22,0.31-0.22,1.85
						L51.28,100.99z"/>
				</g>
			</g>
			<g>
				<g>
					<path d="M153.94,147.37c-1.87,0-3.74,0-5.61,0l-17.74,0l-9.66,0l-24.15,0c-3.34,0-4.16-0.81-4.16-4.12l0-0.62
						c0-0.99,0-1.97,0-2.96c0.01-2.8,1.03-3.8,3.87-3.8c2.67-0.01,5.34,0,8.01,0h5.18c0.24,0,0.78,0,1.12-0.03
						c0.03-0.34,0.03-0.87,0.03-1.1l0-2.48c0.01-3.15,0.96-4.11,4.06-4.11c5.75,0,11.51,0,17.26,0l7.29,0.01
						c0.8,0,1.6,0.01,2.4-0.01c1.17-0.03,2.07,0.28,2.71,0.92c0.63,0.64,0.94,1.53,0.9,2.66c-0.02,0.72-0.02,1.45-0.01,2.17
						l0.01,0.88c0,0.21,0,0.73,0.04,1.07c0.32,0.03,0.81,0.03,1,0.03l18.15,0c3.23,0,4.16,0.94,4.17,4.16l0,0.66
						c0,0.97,0.01,1.95,0,2.92c-0.03,2.77-1.01,3.75-3.77,3.75C161.33,147.37,157.63,147.37,153.94,147.37z M130.58,144.37l17.74,0
						c5.56,0,11.12,0,16.69-0.01c0.37,0,0.59-0.02,0.73-0.03c0.02-0.14,0.04-0.37,0.04-0.75c0.01-0.96,0.01-1.92,0-2.89l0-0.66
						c0-0.6-0.02-0.94-0.05-1.12c-0.18-0.03-0.52-0.05-1.12-0.05l-18.15,0c-3.15,0-4.02-0.88-4.03-4.09l-0.01-0.86
						c-0.01-0.76-0.01-1.53,0.01-2.29c0.01-0.29-0.03-0.42-0.05-0.46c-0.02,0-0.14-0.03-0.4-0.03c-0.03,0-0.06,0-0.08,0
						c-0.83,0.02-1.67,0.02-2.5,0.01l-7.27-0.01c-5.75,0-11.51,0-17.26,0c-0.54,0-0.84,0.02-1.01,0.04
						c-0.02,0.18-0.05,0.49-0.05,1.07l0,2.48c-0.01,3.32-0.82,4.13-4.15,4.13h-5.18c-2.67,0-5.33,0-8,0c-0.43,0-0.69,0.02-0.84,0.04
						c-0.02,0.14-0.03,0.38-0.04,0.78c0,0.98,0,1.96,0,2.94l0,0.62c0,0.23,0,0.76,0.03,1.09c0.35,0.03,0.89,0.03,1.13,0.03l24.15,0
						L130.58,144.37z"/>
				</g>
				<g>
					<path d="M152.15,123.94c-16.37,0-32.75,0-49.12-0.01l-4.39,0l-7.81,0c-12.07,0-24.13,0-36.19,0c-6.73,0-11.25-4.64-11.25-11.53
						c-0.01-33.62,0-67.25,0.01-100.87c0-0.87,0.03-2.01,0.3-3.11C44.99,2.99,49.03,0,55.08,0l71.56,0l72.8,0
						c6.17,0,10.3,2.99,11.62,8.41c0.27,1.11,0.31,2.25,0.31,3.12l0,0c0.01,33.62,0.01,67.25,0.01,100.87
						c0,6.89-4.61,11.53-11.47,11.53C183.99,123.94,168.07,123.94,152.15,123.94z M98.78,120.94l4.25,0
						c32.29,0.01,64.58,0.01,96.87,0c5.22,0,8.47-3.27,8.47-8.53c0.01-33.62,0.01-67.24-0.01-100.87v0c0-0.7-0.02-1.61-0.22-2.41
						C207.15,5.06,204.23,3,199.44,3l-72.8,0L55.08,3c-4.66,0-7.51,2.06-8.48,6.12c-0.19,0.8-0.22,1.71-0.22,2.42
						c-0.01,33.62-0.01,67.24-0.01,100.87c0,5.26,3.16,8.53,8.25,8.53c12.06,0.01,24.13,0,36.19,0l7.93,0L98.78,120.94z
						 M126.95,115.86c-3.08,0-5.61-2.51-5.63-5.61c-0.01-1.49,0.57-2.9,1.63-3.98c1.07-1.08,2.47-1.68,3.96-1.69
						c1.48-0.01,2.9,0.58,3.98,1.64c1.08,1.07,1.67,2.48,1.68,3.97c0.01,1.49-0.58,2.9-1.65,3.98c-1.07,1.08-2.47,1.67-3.96,1.68
						C126.96,115.86,126.96,115.86,126.95,115.86z M126.96,112.86l0.01,1.5L126.96,112.86c0.68,0,1.34-0.28,1.84-0.79
						c0.51-0.51,0.78-1.17,0.78-1.86c0-0.69-0.28-1.35-0.79-1.85c-0.51-0.5-1.19-0.75-1.85-0.77c-0.69,0-1.34,0.28-1.84,0.79
						c-0.5,0.51-0.77,1.17-0.77,1.85C124.33,111.66,125.53,112.86,126.96,112.86C126.95,112.86,126.96,112.86,126.96,112.86z
						 M104.51,102.99l-54.23,0l0-90.9c0-3.78,1.25-5.05,4.93-5.05h144.1c3.79,0,5.01,1.23,5.01,5.05l0,90.9L104.51,102.99z
						 M53.28,99.99h148.04l0-87.9c0-2.05,0-2.05-2.01-2.05H55.21c-1.42,0-1.68,0.17-1.71,0.2c-0.04,0.04-0.22,0.31-0.22,1.85
						L53.28,99.99z"/>
				</g>
			</g>
		</g>
		<path class="st5" d="M190.81,39.26H59.97c-1.1,0-2-0.9-2-2V18.27c0-1.1,0.9-2,2-2h130.84c1.1,0,2,0.9,2,2v18.99
			C192.81,38.36,191.91,39.26,190.81,39.26z"/>
		<circle class="st6" cx="72.49" cy="27.77" r="5.61"/>
		<circle class="st7" cx="89.34" cy="27.77" r="5.61"/>
		<circle class="st8" cx="106.2" cy="27.77" r="5.61"/>
		<path class="st9" d="M187.02,19.11h-43.26l-4,3.26h42.74c1.1,0,2,0.9,2,2v11.89h4.53V21.11
			C189.02,20.01,188.12,19.11,187.02,19.11z"/>
		<g>
			<path class="st9" d="M190.16,62.12h-24.77c-1.46,0-2.65,1.19-2.65,2.65v1.05c0,1.46,1.19,2.65,2.65,2.65h24.77
				c1.46,0,2.65-1.19,2.65-2.65v-1.05C192.81,63.31,191.62,62.12,190.16,62.12z M191.51,65.83c0,0.74-0.61,1.35-1.35,1.35h-24.77
				c-0.74,0-1.35-0.61-1.35-1.35v-1.05c0-0.74,0.61-1.35,1.35-1.35h24.77c0.74,0,1.35,0.61,1.35,1.35V65.83z"/>
			<path class="st9" d="M158.77,68.5c1.74,0,3.15-1.41,3.15-3.15s-1.41-3.15-3.15-3.15s-3.15,1.41-3.15,3.15
				S157.03,68.5,158.77,68.5z M158.77,63.5c1.02,0,1.85,0.83,1.85,1.85s-0.83,1.85-1.85,1.85s-1.85-0.83-1.85-1.85
				S157.75,63.5,158.77,63.5z"/>
			<path class="st9" d="M190.16,72.82h-36.69c-1.46,0-2.65,1.19-2.65,2.65v1.05c0,1.46,1.19,2.65,2.65,2.65h36.69
				c1.46,0,2.65-1.19,2.65-2.65v-1.05C192.81,74.01,191.62,72.82,190.16,72.82z M191.51,76.52c0,0.74-0.61,1.35-1.35,1.35h-36.69
				c-0.74,0-1.35-0.61-1.35-1.35v-1.05c0-0.74,0.61-1.35,1.35-1.35h36.69c0.74,0,1.35,0.61,1.35,1.35V76.52z"/>
			<path class="st9" d="M146.56,79.17c1.74,0,3.15-1.41,3.15-3.15s-1.41-3.15-3.15-3.15s-3.15,1.41-3.15,3.15
				S144.82,79.17,146.56,79.17z M146.56,74.17c1.02,0,1.85,0.83,1.85,1.85s-0.83,1.85-1.85,1.85s-1.85-0.83-1.85-1.85
				S145.54,74.17,146.56,74.17z"/>
			<path class="st9" d="M190.16,83.52h-52.53c-1.46,0-2.65,1.19-2.65,2.65v1.05c0,1.46,1.19,2.65,2.65,2.65h52.53
				c1.46,0,2.65-1.19,2.65-2.65v-1.05C192.81,84.71,191.62,83.52,190.16,83.52z M191.51,87.22c0,0.74-0.61,1.35-1.35,1.35h-52.53
				c-0.74,0-1.35-0.61-1.35-1.35v-1.05c0-0.74,0.61-1.35,1.35-1.35h52.53c0.74,0,1.35,0.61,1.35,1.35V87.22z"/>
			<path class="st9" d="M131.08,83.57c-1.74,0-3.15,1.41-3.15,3.15s1.41,3.15,3.15,3.15s3.15-1.41,3.15-3.15
				S132.82,83.57,131.08,83.57z M131.08,88.57c-1.02,0-1.85-0.83-1.85-1.85s0.83-1.85,1.85-1.85s1.85,0.83,1.85,1.85
				S132.1,88.57,131.08,88.57z"/>
		</g>
	</g>
	<g>
		<g>
			<path class="st5" d="M79.43,245.06H36.6c-1.1,0-2-0.9-2-2v-8.47c0-1.1,0.9-2,2-2h42.83c1.1,0,2,0.9,2,2v8.47
				C81.43,244.16,80.53,245.06,79.43,245.06z"/>
			<path class="st9" d="M75.87,235.2H55.92l-1.84,1.5h19.71c0.51,0,0.92,0.42,0.92,0.92v5.49h2.09v-6.99
				C76.79,235.62,76.38,235.2,75.87,235.2z"/>
		</g>
		<g>
			<path class="st9" d="M81.43,281.82v-0.67c0-0.92-0.75-1.68-1.68-1.68H64.1c-0.92,0-1.68,0.75-1.68,1.68v0.67
				c0,0.92,0.75,1.68,1.68,1.68h15.66C80.68,283.49,81.43,282.74,81.43,281.82z M80.61,281.82c0,0.47-0.38,0.85-0.85,0.85H64.1
				c-0.47,0-0.85-0.38-0.85-0.85v-0.67c0-0.47,0.38-0.85,0.85-0.85h15.66c0.47,0,0.85,0.38,0.85,0.85V281.82z"/>
			<path class="st9" d="M57.92,281.45c0,1.1,0.89,1.99,1.99,1.99c1.1,0,1.99-0.89,1.99-1.99c0-1.1-0.89-1.99-1.99-1.99
				C58.81,279.46,57.92,280.35,57.92,281.45z M58.74,281.45c0-0.64,0.52-1.17,1.17-1.17s1.17,0.52,1.17,1.17
				c0,0.64-0.52,1.17-1.17,1.17S58.74,282.1,58.74,281.45z"/>
			<path class="st9" d="M81.43,275.05v-0.67c0-0.92-0.75-1.68-1.68-1.68H56.56c-0.92,0-1.68,0.75-1.68,1.68v0.67
				c0,0.92,0.75,1.68,1.68,1.68h23.19C80.68,276.73,81.43,275.98,81.43,275.05z M80.61,275.05c0,0.47-0.38,0.85-0.85,0.85H56.56
				c-0.47,0-0.85-0.38-0.85-0.85v-0.67c0-0.47,0.38-0.85,0.85-0.85h23.19c0.47,0,0.85,0.38,0.85,0.85V275.05z"/>
			<path class="st9" d="M50.2,274.71c0,1.1,0.89,1.99,1.99,1.99c1.1,0,1.99-0.89,1.99-1.99c0-1.1-0.89-1.99-1.99-1.99
				C51.09,272.71,50.2,273.61,50.2,274.71z M51.02,274.71c0-0.64,0.52-1.17,1.17-1.17c0.64,0,1.17,0.52,1.17,1.17
				c0,0.64-0.52,1.17-1.17,1.17C51.54,275.88,51.02,275.35,51.02,274.71z"/>
			<path class="st9" d="M81.43,268.29v-0.67c0-0.92-0.75-1.68-1.68-1.68H46.55c-0.92,0-1.68,0.75-1.68,1.68v0.67
				c0,0.92,0.75,1.68,1.68,1.68h33.21C80.68,269.97,81.43,269.22,81.43,268.29z M80.61,268.29c0,0.47-0.38,0.85-0.85,0.85H46.55
				c-0.47,0-0.85-0.38-0.85-0.85v-0.67c0-0.47,0.38-0.85,0.85-0.85h33.21c0.47,0,0.85,0.38,0.85,0.85V268.29z"/>
			<path class="st9" d="M44.4,267.94c0-1.1-0.89-1.99-1.99-1.99c-1.1,0-1.99,0.89-1.99,1.99s0.89,1.99,1.99,1.99
				C43.5,269.93,44.4,269.04,44.4,267.94z M43.58,267.94c0,0.64-0.52,1.17-1.17,1.17s-1.17-0.52-1.17-1.17
				c0-0.64,0.52-1.17,1.17-1.17S43.58,267.3,43.58,267.94z"/>
		</g>
		<g>
			<g>
				<linearGradient id="SVGID_5_" gradientUnits="userSpaceOnUse" x1="21.5609" y1="267.4109" x2="93.9063" y2="267.4109">
					<stop  offset="0" style="stop-color:#FDBF17"/>
					<stop  offset="0.9982" style="stop-color:#9618CC"/>
				</linearGradient>
				<path class="st10" d="M57.72,322.05c-9.2,0-18.39,0-27.59,0c-5.61,0-8.57-2.98-8.57-8.6l0-32.96l0-13.18l0-13.14l0-32.84
					c0-5.68,2.89-8.56,8.59-8.56c18.39,0,36.78,0,55.17,0c5.69,0,8.58,2.89,8.58,8.58c0.01,30.71,0.01,61.41,0,92.12
					c0,5.69-2.89,8.58-8.59,8.58C76.11,322.05,66.92,322.05,57.72,322.05z M57.74,214.77c-9.2,0-18.39,0-27.59,0
					c-4.62,0-6.59,1.96-6.59,6.56l0,32.84l0,13.14l0,13.18l0,32.96c0,4.56,2.03,6.6,6.57,6.6c18.39,0.01,36.78,0.01,55.17,0
					c4.56,0,6.59-2.03,6.59-6.58c0.01-30.71,0.01-61.41,0-92.12c0-4.55-2.03-6.57-6.58-6.58C76.13,214.77,66.93,214.77,57.74,214.77
					z M57.21,319.32c-2.55,0-4.63-2.08-4.63-4.63c0-2.55,2.08-4.63,4.63-4.63c2.55,0,4.63,2.08,4.63,4.63
					C61.84,317.25,59.76,319.32,57.21,319.32z M57.21,312.06c-1.45,0-2.63,1.18-2.63,2.63c0,1.45,1.18,2.63,2.63,2.63
					s2.63-1.18,2.63-2.63C59.84,313.24,58.66,312.06,57.21,312.06z M57.7,309.23c-8.95,0-17.89,0-26.84,0
					c-2.98,0-3.71-0.72-3.71-3.67l0-48.48l0-27.6c0-3.05,0.74-3.8,3.78-3.8c17.89,0,35.78,0,53.68,0c2.91,0,3.75,0.83,3.75,3.7
					c0,25.36,0,50.72,0,76.08c0,2.99-0.79,3.76-3.82,3.76l0,0C75.6,309.23,66.65,309.23,57.7,309.23z M57.06,227.68
					c-8.71,0-17.42,0-26.13,0c-1.78,0-1.78,0-1.78,1.8l0,47.49l0,28.59c0,0.89,0.05,1.4,0.14,1.53c0.12,0.09,0.65,0.14,1.57,0.14
					c17.89,0,35.78,0,53.67,0l0,0c1.82,0,1.82,0,1.82-1.76c0-25.36,0-50.72,0-76.08c0-1.7,0-1.7-1.76-1.7
					C75.43,227.68,66.24,227.68,57.06,227.68z M63.64,223.33H51.83c-1.65,0-3-1.35-3-3v-0.03c0-1.65,1.35-3,3-3h11.81
					c1.65,0,3,1.35,3,3C66.64,221.98,65.29,223.33,63.64,223.33z M51.83,219.3c-0.55,0-1,0.45-1,1v0.03c0,0.55,0.45,1,1,1h11.81
					c0.55,0,1-0.45,1-1c0-0.58-0.45-1.03-1-1.03H51.83z"/>
			</g>
			<g>
				<path d="M59.2,322.05c-9.2,0-18.39,0-27.59,0c-5.61,0-8.57-2.98-8.57-8.6l0-32.96l0-13.18l0-13.14l0-32.84
					c0-5.68,2.89-8.56,8.59-8.56c18.39,0,36.78,0,55.17,0c5.69,0,8.58,2.89,8.58,8.58c0.01,30.71,0.01,61.41,0,92.12
					c0,5.69-2.89,8.58-8.59,8.58C77.59,322.05,68.39,322.05,59.2,322.05z M59.21,214.77c-9.2,0-18.39,0-27.59,0
					c-4.62,0-6.59,1.96-6.59,6.56l0,32.84l0,13.14l0,13.18l0,32.96c0,4.56,2.03,6.6,6.57,6.6c18.39,0.01,36.78,0.01,55.17,0
					c4.56,0,6.59-2.03,6.59-6.58c0.01-30.71,0.01-61.41,0-92.12c0-4.55-2.03-6.57-6.58-6.58C77.6,214.77,68.41,214.77,59.21,214.77z
					 M58.68,319.32c-2.55,0-4.63-2.08-4.63-4.63c0-2.55,2.08-4.63,4.63-4.63c2.55,0,4.63,2.08,4.63,4.63
					C63.31,317.25,61.23,319.32,58.68,319.32z M58.68,312.06c-1.45,0-2.63,1.18-2.63,2.63c0,1.45,1.18,2.63,2.63,2.63
					s2.63-1.18,2.63-2.63C61.31,313.24,60.13,312.06,58.68,312.06z M59.18,309.23c-8.95,0-17.89,0-26.84,0
					c-2.98,0-3.71-0.72-3.71-3.67l0-48.48l0-27.6c0-3.05,0.74-3.8,3.78-3.8c17.89,0,35.78,0,53.68,0c2.91,0,3.75,0.83,3.75,3.7
					c0,25.36,0,50.72,0,76.08c0,2.99-0.79,3.76-3.82,3.76l0,0C77.07,309.23,68.12,309.23,59.18,309.23z M58.53,227.68
					c-8.71,0-17.42,0-26.13,0c-1.78,0-1.78,0-1.78,1.8l0,47.49l0,28.59c0,0.89,0.05,1.4,0.14,1.53c0.12,0.09,0.65,0.14,1.57,0.14
					c17.89,0,35.78,0,53.67,0l0,0c1.82,0,1.82,0,1.82-1.76c0-25.36,0-50.72,0-76.08c0-1.7,0-1.7-1.76-1.7
					C76.9,227.68,67.72,227.68,58.53,227.68z M65.11,223.33H53.3c-1.65,0-3-1.35-3-3v-0.03c0-1.65,1.35-3,3-3h11.81
					c1.65,0,3,1.35,3,3C68.11,221.98,66.77,223.33,65.11,223.33z M53.3,219.3c-0.55,0-1,0.45-1,1v0.03c0,0.55,0.45,1,1,1h11.81
					c0.55,0,1-0.45,1-1c0-0.58-0.45-1.03-1-1.03H53.3z"/>
			</g>
		</g>
	</g>
	<g>
		<path class="st5" d="M205.23,304.86c0.26-2.71,0.81-5.35,2.07-7.79c1.93-3.75,5-5.22,9.14-4.37c3.33,0.68,6.65,1.39,9.97,2.1
			c25.58,5.47,51.16,10.95,76.74,16.42c2.24,0.48,4.14,1.53,5.79,3.09c2.52,2.39,4.2,5.33,5.44,8.52c3.06,7.86,3.82,16,2.83,24.33
			c-0.53,4.44-1.68,8.71-4.07,12.56c-3.49,5.62-8.76,7.89-15.14,6.27c-8.4-2.12-16.79-4.27-25.11-6.68
			c-17.48-5.06-34.6-11.2-51.77-17.21c-2.17-0.76-4.15-1.83-5.67-3.53c-1.36-1.51-2.71-3.09-3.74-4.83
			c-4.56-7.63-6.39-16.02-6.71-25.01C205.06,307.56,205.1,306.21,205.23,304.86z M214.59,302.5c1.09,0.16,2.17,0.43,3.26,0.68
			c26.67,6,53.34,12,80.01,17.99c2.77,0.62,4.9,2.2,6.72,4.28c2.67,3.06,4.33,6.66,5.44,10.53c0.06,0.23,0.14,0.45,0.38,0.64
			c-0.1-0.75-0.19-1.5-0.31-2.25c-0.12-0.75-0.26-1.5-0.43-2.25c-0.9-4.02-2.24-7.86-4.71-11.23c-1.9-2.59-4.34-4.26-7.54-4.96
			c-23.05-5.02-46.1-10.1-69.14-15.16c-3.35-0.74-6.71-1.42-10.05-2.22c-3.89-0.94-7.4,0.96-8.71,5.2
			C211.13,302.8,212.78,302.24,214.59,302.5z"/>
		<g>
			<linearGradient id="SVGID_6_" gradientUnits="userSpaceOnUse" x1="208.0888" y1="319.3642" x2="311.2758" y2="319.3642">
				<stop  offset="0" style="stop-color:#FDBF17"/>
				<stop  offset="0.9982" style="stop-color:#9618CC"/>
			</linearGradient>
			<path class="st11" d="M310.7,335.62c-0.15-0.9-0.29-1.62-0.44-2.29c-1.09-4.83-2.63-8.49-4.84-11.51
				c-2.06-2.81-4.67-4.52-7.98-5.25c-17.55-3.82-35.1-7.68-52.65-11.54l-16.5-3.62c-1.02-0.22-2.03-0.44-3.05-0.66
				c-2.29-0.49-4.67-1-6.98-1.56c-4.36-1.06-8.22,1.23-9.6,5.71l-0.58,1.86l1.67-0.99c1.7-1.01,3.16-1.38,4.6-1.17
				c0.84,0.12,1.69,0.32,2.52,0.51l24.74,5.57c18.65,4.2,37.3,8.39,55.95,12.58c2.36,0.53,4.37,1.81,6.31,4.04
				c2.35,2.69,4.08,6.05,5.29,10.25c0.07,0.25,0.19,0.67,0.62,1.02l1.48,1.21l-0.35-2.57C310.85,336.68,310.78,336.15,310.7,335.62z
				 M305.02,326.32c-2.14-2.44-4.46-3.92-7.12-4.52c-18.65-4.19-37.3-8.38-55.95-12.58l-24.06-5.41l-0.67-0.15
				c-0.86-0.2-1.75-0.4-2.64-0.53c-1.22-0.18-2.43-0.04-3.7,0.44c1.47-2.5,4.08-3.63,7.04-2.91c2.33,0.57,4.71,1.08,7.02,1.57
				c1.02,0.22,2.03,0.44,3.05,0.66l16.5,3.62c17.55,3.86,35.09,7.71,52.65,11.54c2.94,0.64,5.26,2.17,7.09,4.67
				c1.6,2.19,2.84,4.75,3.79,7.92C307.14,329.04,306.15,327.61,305.02,326.32z"/>
			<linearGradient id="SVGID_7_" gradientUnits="userSpaceOnUse" x1="204.1201" y1="330.8481" x2="318.2397" y2="330.8481">
				<stop  offset="0" style="stop-color:#FDBF17"/>
				<stop  offset="0.9982" style="stop-color:#9618CC"/>
			</linearGradient>
			<path class="st12" d="M314.96,323.92c-1.44-3.7-3.28-6.58-5.62-8.79c-1.78-1.68-3.85-2.79-6.15-3.28
				c-17.1-3.65-34.21-7.31-51.31-10.97l-25.44-5.44c-3.32-0.71-6.65-1.42-9.97-2.1c-4.44-0.91-7.88,0.73-9.96,4.76
				c-1.15,2.22-1.83,4.79-2.15,8.06c-0.09,0.96-0.14,1.9-0.18,2.8c-0.02,0.38-0.04,0.74-0.06,1.16c0.36,9.99,2.59,18.29,6.82,25.37
				c1.08,1.8,2.48,3.44,3.83,4.95c1.45,1.62,3.41,2.84,5.98,3.74l5.64,1.98c15.04,5.28,30.59,10.74,46.17,15.25
				c8.5,2.46,17.07,4.65,25.13,6.69c1.39,0.35,2.74,0.53,4.04,0.52c4.87,0,9.02-2.45,11.92-7.13c2.2-3.54,3.57-7.75,4.18-12.87
				C318.88,339.84,317.91,331.53,314.96,323.92z M316.34,348.44c-0.58,4.89-1.88,8.9-3.96,12.25c-3.35,5.41-8.31,7.46-14.32,5.94
				c-8.04-2.03-16.6-4.22-25.08-6.67c-15.54-4.5-31.07-9.95-46.09-15.22l-5.64-1.98c-2.33-0.82-4.09-1.9-5.37-3.33
				c-1.3-1.45-2.65-3.02-3.66-4.72c-4.1-6.85-6.26-14.92-6.61-24.58c0.02-0.35,0.04-0.72,0.06-1.1c0.04-0.89,0.09-1.81,0.18-2.73
				c0.3-3.08,0.93-5.47,1.99-7.52c1.45-2.81,3.52-4.2,6.29-4.2c0.64,0,1.31,0.07,2.03,0.22c3.32,0.68,6.64,1.39,9.96,2.1l25.43,5.44
				c17.1,3.66,34.21,7.32,51.31,10.97c2.06,0.44,3.83,1.39,5.43,2.9c2.18,2.06,3.9,4.76,5.26,8.25
				C316.42,331.84,317.36,339.9,316.34,348.44z"/>
			<linearGradient id="SVGID_8_" gradientUnits="userSpaceOnUse" x1="216.5952" y1="319.6233" x2="346.9541" y2="319.6233">
				<stop  offset="0" style="stop-color:#FDBF17"/>
				<stop  offset="0.9982" style="stop-color:#9618CC"/>
			</linearGradient>
			<path class="st13" d="M327.62,295.56c-2.2,0.08-4.41,0.17-6.61,0.26c-4.61,0.19-9.38,0.39-14.06,0.44
				c-14.49,0.15-26.43-1.1-37.56-3.94c-9.89-2.52-18-6.24-24.81-11.36c-1.9-1.43-4.06-0.55-5.09-0.13
				c-2.08,0.85-4.16,1.72-6.23,2.59l-13.92,5.82c-0.19,0.08-0.37,0.16-0.52,0.24l-2.23,1.03l5.26,1.07
				c2.18,0.44,4.36,0.88,6.54,1.34l5.91,1.25c18.64,3.94,37.29,7.87,55.92,11.83c2.79,0.59,5.57,1.22,8.34,1.84
				c2.66,0.6,5.33,1.2,8,1.77c2.99,0.64,5.52,2.35,7.73,5.25c2.68,3.5,4.53,7.67,5.82,13.11c2.01,8.49,2.06,16.12,0.16,23.31
				c-0.32,1.22-0.78,2.44-1.22,3.62c-0.21,0.56-0.42,1.12-0.62,1.68l-0.87,2.49l2.05-1.65l0.1-0.07c0.13-0.1,0.29-0.22,0.44-0.36
				c1.8-1.71,3.59-3.42,5.39-5.13c3.93-3.75,8-7.64,12.06-11.38c4.74-4.37,7.62-9.93,8.82-17c1.04-6.12,0.55-11.57-1.5-16.67
				C341.9,299.27,335.74,295.28,327.62,295.56z M344.95,323.23c-1.14,6.73-3.87,12.01-8.36,16.14c-4.07,3.75-8.14,7.64-12.08,11.4
				c-1.19,1.14-2.38,2.27-3.58,3.41c0.3-0.82,0.58-1.66,0.81-2.51c1.97-7.44,1.92-15.3-0.15-24.04c-1.34-5.65-3.27-10-6.08-13.68
				c-2.44-3.19-5.26-5.09-8.61-5.8c-2.67-0.57-5.32-1.17-7.98-1.76c-2.78-0.63-5.57-1.25-8.36-1.84
				c-18.64-3.96-37.28-7.9-55.93-11.83l-5.91-1.25c-2.18-0.46-4.37-0.9-6.55-1.35l-0.67-0.14l12.36-5.17
				c2.07-0.87,4.13-1.74,6.21-2.59c1.48-0.6,2.61-0.82,3.63-0.06c6.97,5.24,15.26,9.04,25.34,11.61
				c11.26,2.88,23.32,4.14,37.95,3.99c4.71-0.05,9.48-0.25,14.11-0.44c2.2-0.09,4.4-0.18,6.6-0.26c7.46-0.27,13.08,3.4,15.86,10.31
				C345.48,312.2,345.94,317.39,344.95,323.23z"/>
			<linearGradient id="SVGID_9_" gradientUnits="userSpaceOnUse" x1="315.1528" y1="314.3674" x2="343.2018" y2="314.3674">
				<stop  offset="0" style="stop-color:#FDBF17"/>
				<stop  offset="0.9982" style="stop-color:#9618CC"/>
			</linearGradient>
			<path class="st14" d="M337.02,301.11c-1.68-1.4-2.05-1.44-4-0.36l-17.86,9.87l0.65,0.7c3.98,4.32,6.44,9.62,7.54,16.21l0.2,1.2
				l12.67-9.29c2.05-1.5,4.1-3,6.13-4.53c0.39-0.29,0.94-0.98,0.84-1.66C342.47,307.96,340.45,303.98,337.02,301.11z M341.44,313.72
				c-2.02,1.52-4.07,3.02-6.11,4.52l-1.41,1.03l-9.31,6.83c-1.17-5.99-3.49-10.95-7.07-15.08l16.25-8.98
				c1.21-0.67,1.21-0.67,2.27,0.22c3.13,2.62,4.98,6.28,5.65,11.11C341.69,313.45,341.56,313.64,341.44,313.72z"/>
			<linearGradient id="SVGID_10_" gradientUnits="userSpaceOnUse" x1="244.9086" y1="277.6087" x2="359.5031" y2="277.6087">
				<stop  offset="0" style="stop-color:#FDBF17"/>
				<stop  offset="0.9982" style="stop-color:#9618CC"/>
			</linearGradient>
			<path class="st15" d="M254.91,285.35c1.2,0.58,2.41,1.12,3.63,1.66c0.91,0.4,1.82,0.81,2.72,1.23c0.99,0.46,1.73,0.17,2.32-0.17
				c1.17-0.68,2.33-1.37,3.49-2.06c3.09-1.84,6.29-3.75,9.56-5.34c8.11-3.96,17.06-4.98,26.6-3.03c8.8,1.8,17.76,3.57,26.42,5.29
				c5.16,1.02,10.33,2.05,15.49,3.08c4.36,0.87,7.81,2.62,10.55,5.35l0.54,0.54l0.53-0.56c1.84-1.94,2.76-4.21,2.75-6.76
				c-0.01-1.54-0.29-3.06-0.56-4.54l-0.13-0.71c-0.09-0.51-0.43-1.01-1.06-1.57c-3.42-3.03-7.6-4.94-12.78-5.84
				c-16.12-2.79-30.69-5.34-44.54-7.8c-9.28-1.65-18.68-0.76-28.73,2.71c-6.61,2.28-12.97,5.34-19.13,8.29
				c-1.1,0.53-2.19,1.05-3.29,1.57l-4.37,2.07l0.89,0.75C248.48,281.78,251.46,283.69,254.91,285.35z M249.93,278.05
				c1.1-0.52,2.2-1.05,3.29-1.58c6.12-2.94,12.45-5.97,18.97-8.23c9.8-3.38,18.95-4.25,27.98-2.65c13.86,2.46,28.43,5.01,44.55,7.8
				c4.9,0.85,8.83,2.64,12.04,5.48c0.51,0.45,0.57,0.67,0.57,0.71l0.13,0.72c0.26,1.41,0.53,2.87,0.54,4.28
				c0.01,1.9-0.6,3.63-1.84,5.15c-2.86-2.63-6.38-4.34-10.74-5.21c-5.16-1.03-10.33-2.06-15.49-3.08
				c-8.66-1.72-17.61-3.49-26.41-5.29c-3.24-0.66-6.41-0.99-9.51-0.99c-6.35,0-12.39,1.38-18.04,4.14c-3.32,1.62-6.55,3.54-9.67,5.4
				c-1.16,0.69-2.32,1.38-3.48,2.05c-0.44,0.26-0.62,0.25-0.93,0.1c-0.91-0.42-1.83-0.83-2.74-1.24c-1.2-0.53-2.4-1.07-3.59-1.64
				c-2.95-1.42-5.54-3.02-7.89-4.88L249.93,278.05z"/>
			<linearGradient id="SVGID_11_" gradientUnits="userSpaceOnUse" x1="343.539" y1="302.6437" x2="364.8228" y2="302.6437">
				<stop  offset="0" style="stop-color:#FDBF17"/>
				<stop  offset="0.9982" style="stop-color:#9618CC"/>
			</linearGradient>
			<path class="st16" d="M364.8,300.1c-0.25-4.99-0.54-9.01-0.88-12.67c-0.19-1.95-1.01-3.84-2.46-5.62l-1.46-1.79l0.13,2.3
				c0.02,0.44,0.06,0.86,0.09,1.29c0.07,0.88,0.14,1.72,0.1,2.53c-0.15,2.63-1.33,5-3.61,7.23c-2.29,2.23-5.07,3.86-7.5,5.21
				c-1.12,0.62-2.24,1.22-3.38,1.84l-2.29,1.23l0.42,0.68c3.8,6.11,4.95,13.16,3.51,21.57l-0.08,0.47l1.26,0.89l0.45-0.51
				c1.21-1.38,2.44-2.75,3.66-4.12c2.85-3.2,5.81-6.51,8.61-9.85C363.82,307.87,365.01,304.17,364.8,300.1z M360.21,309.83
				c-2.79,3.33-5.73,6.62-8.58,9.82c-0.8,0.9-1.61,1.8-2.41,2.71c1.01-7.7-0.16-14.3-3.57-20.12l0.89-0.48
				c1.15-0.62,2.28-1.23,3.4-1.85c2.51-1.4,5.4-3.08,7.82-5.45c2.56-2.51,3.89-5.2,4.06-8.22c0.02-0.32,0.02-0.65,0.01-0.97
				c0.32,0.76,0.52,1.54,0.6,2.32c0.35,3.64,0.63,7.64,0.88,12.61C363.49,303.91,362.45,307.16,360.21,309.83z"/>
		</g>
		<path d="M314.76,322.56c-1.44-3.7-3.28-6.58-5.62-8.79c-1.78-1.68-3.85-2.79-6.15-3.28c-17.1-3.65-34.21-7.31-51.31-10.97
			l-25.44-5.44c-3.32-0.71-6.65-1.42-9.97-2.1c-4.44-0.91-7.88,0.73-9.96,4.76c-1.15,2.22-1.83,4.79-2.15,8.06
			c-0.09,0.96-0.14,1.9-0.18,2.8c-0.02,0.38-0.04,0.74-0.06,1.16c0.36,9.99,2.59,18.29,6.82,25.37c1.08,1.8,2.48,3.44,3.83,4.95
			c1.45,1.62,3.41,2.84,5.98,3.74l5.64,1.98c15.04,5.28,30.59,10.74,46.17,15.25c8.5,2.46,17.07,4.65,25.13,6.69
			c1.39,0.35,2.74,0.53,4.04,0.52c4.87,0,9.02-2.45,11.92-7.13c2.2-3.54,3.57-7.75,4.18-12.87
			C318.69,338.47,317.72,330.16,314.76,322.56z M316.15,347.07c-0.58,4.89-1.88,8.9-3.96,12.25c-3.35,5.41-8.31,7.46-14.32,5.94
			c-8.04-2.03-16.6-4.22-25.08-6.67c-15.54-4.5-31.07-9.95-46.09-15.22l-5.64-1.98c-2.33-0.82-4.09-1.9-5.37-3.33
			c-1.3-1.45-2.65-3.02-3.66-4.72c-4.1-6.85-6.26-14.92-6.61-24.58c0.02-0.35,0.04-0.72,0.06-1.1c0.04-0.89,0.09-1.81,0.18-2.73
			c0.3-3.08,0.93-5.47,1.99-7.52c1.45-2.81,3.52-4.2,6.29-4.2c0.64,0,1.31,0.07,2.03,0.22c3.32,0.68,6.64,1.39,9.96,2.1l25.43,5.44
			c17.1,3.66,34.21,7.32,51.31,10.97c2.06,0.44,3.83,1.39,5.43,2.9c2.18,2.06,3.9,4.76,5.26,8.25
			C316.23,330.48,317.17,338.54,316.15,347.07z"/>
		<path d="M327.43,294.19c-2.2,0.08-4.41,0.17-6.61,0.26c-4.61,0.19-9.38,0.39-14.06,0.44c-14.49,0.15-26.43-1.1-37.56-3.94
			c-9.89-2.52-18-6.24-24.81-11.36c-1.9-1.43-4.06-0.55-5.09-0.13c-2.08,0.85-4.16,1.72-6.23,2.59l-13.92,5.82
			c-0.19,0.08-0.37,0.16-0.52,0.24l-2.23,1.03l5.26,1.07c2.18,0.44,4.36,0.88,6.54,1.34l5.91,1.25
			c18.64,3.94,37.29,7.87,55.92,11.83c2.79,0.59,5.57,1.22,8.34,1.84c2.66,0.6,5.33,1.2,8,1.77c2.99,0.64,5.52,2.35,7.73,5.25
			c2.68,3.5,4.53,7.67,5.82,13.11c2.01,8.49,2.06,16.12,0.16,23.31c-0.32,1.22-0.78,2.44-1.22,3.62c-0.21,0.56-0.42,1.12-0.62,1.68
			l-0.87,2.49l2.05-1.65l0.1-0.07c0.13-0.1,0.29-0.22,0.44-0.36c1.8-1.71,3.59-3.42,5.39-5.13c3.93-3.75,8-7.64,12.06-11.38
			c4.74-4.37,7.62-9.93,8.82-17c1.04-6.12,0.55-11.57-1.5-16.67C341.7,297.91,335.55,293.91,327.43,294.19z M344.76,321.86
			c-1.14,6.73-3.87,12.01-8.36,16.14c-4.07,3.75-8.14,7.64-12.08,11.4c-1.19,1.14-2.38,2.27-3.58,3.41c0.3-0.82,0.58-1.66,0.81-2.51
			c1.97-7.44,1.92-15.3-0.15-24.04c-1.34-5.65-3.27-10-6.08-13.68c-2.44-3.19-5.26-5.09-8.61-5.8c-2.67-0.57-5.32-1.17-7.98-1.76
			c-2.78-0.63-5.57-1.25-8.36-1.84c-18.64-3.96-37.28-7.9-55.93-11.83l-5.91-1.25c-2.18-0.46-4.37-0.9-6.55-1.35l-0.67-0.14
			l12.36-5.17c2.07-0.87,4.13-1.74,6.21-2.59c1.48-0.6,2.61-0.82,3.63-0.06c6.97,5.24,15.26,9.04,25.34,11.61
			c11.26,2.88,23.32,4.14,37.95,3.99c4.71-0.05,9.48-0.25,14.11-0.44c2.2-0.09,4.4-0.18,6.6-0.26c7.46-0.27,13.08,3.4,15.86,10.31
			C345.28,310.84,345.74,316.02,344.76,321.86z"/>
		<path d="M336.82,299.75c-1.68-1.4-2.05-1.44-4-0.36l-17.86,9.87l0.65,0.7c3.98,4.32,6.44,9.62,7.54,16.21l0.2,1.2l12.67-9.29
			c2.05-1.5,4.1-3,6.13-4.53c0.39-0.29,0.94-0.98,0.84-1.66C342.27,306.59,340.25,302.62,336.82,299.75z M341.25,312.36
			c-2.02,1.52-4.07,3.02-6.11,4.52l-1.41,1.03l-9.31,6.83c-1.17-5.99-3.49-10.95-7.07-15.08l16.25-8.98
			c1.21-0.67,1.21-0.67,2.27,0.22c3.13,2.62,4.98,6.28,5.65,11.11C341.49,312.08,341.37,312.27,341.25,312.36z"/>
		<path d="M254.72,283.99c1.2,0.58,2.41,1.12,3.63,1.66c0.91,0.4,1.82,0.81,2.72,1.23c0.99,0.46,1.73,0.17,2.32-0.17
			c1.17-0.68,2.33-1.37,3.49-2.06c3.09-1.84,6.29-3.75,9.56-5.34c8.11-3.96,17.06-4.98,26.6-3.03c8.8,1.8,17.76,3.57,26.42,5.29
			c5.16,1.02,10.33,2.05,15.49,3.08c4.36,0.87,7.81,2.62,10.55,5.35l0.54,0.54l0.53-0.56c1.84-1.94,2.76-4.21,2.75-6.76
			c-0.01-1.54-0.29-3.06-0.56-4.54l-0.13-0.71c-0.09-0.51-0.43-1.01-1.06-1.57c-3.42-3.03-7.6-4.94-12.78-5.84
			c-16.12-2.79-30.69-5.34-44.54-7.8c-9.28-1.65-18.68-0.76-28.73,2.71c-6.61,2.28-12.97,5.34-19.13,8.29
			c-1.1,0.53-2.19,1.05-3.29,1.57l-4.37,2.07l0.89,0.75C248.29,280.42,251.27,282.33,254.72,283.99z M249.73,276.69
			c1.1-0.52,2.2-1.05,3.29-1.58c6.12-2.94,12.45-5.97,18.97-8.23c9.8-3.38,18.95-4.25,27.98-2.65c13.86,2.46,28.43,5.01,44.55,7.8
			c4.9,0.85,8.83,2.64,12.04,5.48c0.51,0.45,0.57,0.67,0.57,0.71l0.13,0.72c0.26,1.41,0.53,2.87,0.54,4.28
			c0.01,1.9-0.6,3.63-1.84,5.15c-2.86-2.63-6.38-4.34-10.74-5.21c-5.16-1.03-10.33-2.06-15.49-3.08
			c-8.66-1.72-17.61-3.49-26.41-5.29c-3.24-0.66-6.41-0.99-9.51-0.99c-6.35,0-12.39,1.38-18.04,4.14c-3.32,1.62-6.55,3.54-9.67,5.4
			c-1.16,0.69-2.32,1.38-3.48,2.05c-0.44,0.26-0.62,0.25-0.93,0.1c-0.91-0.42-1.83-0.83-2.74-1.24c-1.2-0.53-2.4-1.07-3.59-1.64
			c-2.95-1.42-5.54-3.02-7.89-4.88L249.73,276.69z"/>
		<path d="M364.61,298.73c-0.25-4.99-0.54-9.01-0.88-12.67c-0.19-1.95-1.01-3.84-2.46-5.62l-1.46-1.79l0.13,2.3
			c0.02,0.44,0.06,0.86,0.09,1.29c0.07,0.88,0.14,1.72,0.1,2.53c-0.15,2.63-1.33,5-3.61,7.23c-2.29,2.23-5.07,3.86-7.5,5.21
			c-1.12,0.62-2.24,1.22-3.38,1.84l-2.29,1.23l0.42,0.68c3.8,6.11,4.95,13.16,3.51,21.57l-0.08,0.47l1.26,0.89l0.45-0.51
			c1.21-1.38,2.44-2.75,3.66-4.12c2.85-3.2,5.81-6.51,8.61-9.85C363.62,306.5,364.81,302.8,364.61,298.73z M360.02,308.46
			c-2.79,3.33-5.73,6.62-8.58,9.82c-0.8,0.9-1.61,1.8-2.41,2.71c1.01-7.7-0.16-14.3-3.57-20.12l0.89-0.48
			c1.15-0.62,2.28-1.23,3.4-1.85c2.51-1.4,5.4-3.08,7.82-5.45c2.56-2.51,3.89-5.2,4.06-8.22c0.02-0.32,0.02-0.65,0.01-0.97
			c0.32,0.76,0.52,1.54,0.6,2.32c0.35,3.64,0.63,7.64,0.88,12.61C363.3,302.55,362.26,305.8,360.02,308.46z"/>
		<path class="st5" d="M208.76,300.17c-0.63,0.79-3.32,5.21-1.26,6.79c2.05,1.58,12.95,8.53,20.37,10.42
			c7.42,1.89,44.21,11.21,44.21,11.21s23.21,4.74,26.05,6s5.68,0.47,8.53,4.26c2.84,3.79,1.11,4.26,3.79,4.26s3.79,3.47,4.11-1.58
			c0.32-5.05-0.63-10.42-1.26-12.16c-0.63-1.74,2.37-2.53-2.68-7.89c-5.05-5.37-7.74-6.95-10.42-7.58
			c-2.68-0.63-29.37-4.74-37.74-7.26s-48.79-11.05-49.58-10.89c-0.79,0.16-4.74,3.79-4.74,3.79"/>
		<path class="st9" d="M310.73,335.85c-0.07-0.53-0.14-1.06-0.23-1.59c-0.15-0.9-0.29-1.62-0.44-2.29
			c-1.09-4.83-2.63-8.49-4.84-11.51c-2.06-2.81-4.67-4.52-7.98-5.25c-17.55-3.82-35.1-7.68-52.65-11.54l-16.5-3.62
			c-1.02-0.22-2.03-0.44-3.05-0.66c-2.29-0.49-4.67-1-6.98-1.56c-4.36-1.06-8.22,1.23-9.6,5.71l-0.58,1.86l1.67-0.99
			c1.7-1.01,3.16-1.38,4.6-1.17c0.84,0.12,1.69,0.32,2.52,0.51l24.74,5.57c18.65,4.2,37.3,8.39,55.95,12.58
			c2.36,0.53,4.37,1.81,6.31,4.04c2.35,2.69,4.08,6.05,5.29,10.25c0.07,0.25,0.19,0.67,0.62,1.02l1.48,1.21L310.73,335.85z"/>
		<circle class="st17" cx="294.79" cy="355.25" r="3.92"/>
		<circle class="st18" cx="282.16" cy="352.4" r="3.46"/>
	</g>
	<circle class="st2" cx="153.5" cy="168.96" r="11.84"/>
	<circle class="st2" cx="122.23" cy="250.43" r="11.84"/>
	<circle class="st2" cx="220.76" cy="257.06" r="11.84"/>
</g>
</svg>
