<?xml version="1.0" encoding="utf-8"?>
<!-- Generator: Adobe Illustrator 23.0.0, SVG Export Plug-In . SVG Version: 6.00 Build 0)  -->
<svg version="1.1" id="Layer_1" xmlns="http://www.w3.org/2000/svg" xmlns:xlink="http://www.w3.org/1999/xlink" x="0px" y="0px"
	 viewBox="0 0 138.85 138.88" style="enable-background:new 0 0 138.85 138.88;" xml:space="preserve">
<style type="text/css">
	.st0{fill:#FDBF17;}
	.st1{fill:#BE3084;}
	.st2{fill:#5BBCE6;}
</style>
<g>
	<path class="st0" d="M106.65,138.84c-15.06-0.39-29.48-3.61-43.18-9.88c-10.36-4.74-19.76-10.95-28.16-18.65
		c-10.54-9.66-18.86-20.97-24.96-33.88C6.6,68.51,3.87,60.24,2.15,51.64c-1.47-7.35-2.34-14.78-2.12-22.28
		c0.08-2.6,1.05-5.15,2.95-7.11c2.85-2.94,5.68-5.93,8.71-8.69c4.87-4.43,10.51-5.35,16.6-2.91c5.35,2.14,8.96,6.04,10.57,11.6
		c1.64,5.68,3.33,11.37,4.57,17.14c1.15,5.37-0.44,10.22-4.24,14.25c-1.67,1.77-3.41,3.46-5.16,5.15c-0.47,0.46-0.57,0.87-0.38,1.5
		c4.76,16.02,14.17,28.53,28.28,37.49c5.12,3.26,10.64,5.63,16.46,7.37c0.78,0.23,1.24,0.08,1.78-0.48
		c1.61-1.67,3.22-3.33,4.91-4.92c4.43-4.17,9.66-5.62,15.54-4.12c5.95,1.51,11.99,2.86,17.72,5.01c9.29,3.49,14.52,15.06,8.62,24.44
		c-0.34,0.54-0.73,1.08-1.18,1.53c-3.18,3.21-6.28,6.5-9.6,9.57c-1.91,1.77-4.48,2.3-7.02,2.64
		C108.33,138.94,107.48,138.84,106.65,138.84z"/>
	<path class="st1" d="M138.85,69.3c-2.87,0-5.67,0-8.54,0c-0.35-16.68-6.13-31.1-17.93-42.89C100.61,14.64,86.22,8.87,69.45,8.5
		c0-1.43,0-2.85,0-4.28c0-1.4,0-2.8,0-4.19C104.88-1.06,139.25,29.45,138.85,69.3z"/>
	<path class="st2" d="M69.51,26.03c22.81-0.35,43.36,18.66,43.3,43.25c-2.83,0-5.65,0-8.33,0c-2.26-21.07-13.82-32.69-34.97-34.95
		C69.51,31.71,69.51,28.91,69.51,26.03z"/>
	<path class="st1" d="M69.54,52.08c8.84-0.3,17.36,7.43,17.21,17.18c-2.82,0-5.64,0-8.54,0c-0.58-5.1-3.4-8.04-8.67-8.65
		C69.54,57.82,69.54,54.99,69.54,52.08z"/>
</g>
</svg>
