<?xml version="1.0" encoding="utf-8"?>
<!-- Generator: Adobe Illustrator 23.0.0, SVG Export Plug-In . SVG Version: 6.00 Build 0)  -->
<svg version="1.1" id="Layer_1" xmlns="http://www.w3.org/2000/svg" xmlns:xlink="http://www.w3.org/1999/xlink" x="0px" y="0px"
	 viewBox="0 0 45.15 462.65" style="enable-background:new 0 0 45.15 462.65;" xml:space="preserve">
<style type="text/css">
	.st0{fill:url(#SVGID_1_);}
</style>
<g>
	<linearGradient id="SVGID_1_" gradientUnits="userSpaceOnUse" x1="0" y1="231.3273" x2="45.1536" y2="231.3273">
		<stop  offset="0" style="stop-color:#5BBCE6"/>
		<stop  offset="0.9982" style="stop-color:#9618CC"/>
	</linearGradient>
	<path class="st0" d="M17.44,1.12c-28.42,53.73-17.72,116.64,1.03,171.59c5.41,15.86,10.77,31.85,11.96,48.68
		c1.16,16.56-0.99,33.11-4.09,49.35c-6.01,31.5-14.79,62.38-13.63,94.75c1.21,33.79,11.01,66.99,28.23,96.08
		c1.47,2.49,5.37,0.23,3.89-2.27c-15.49-26.17-24.91-55.72-27.19-86.06c-2.41-32.17,5.18-62.79,11.6-94.04
		c3.05-14.84,5.64-29.89,5.97-45.07c0.35-15.69-2.3-30.87-6.88-45.85c-4.53-14.82-10.08-29.3-14.14-44.27
		c-3.89-14.32-6.86-28.93-8.46-43.7C2.16,67.22,5.58,33.16,21.33,3.4C22.68,0.84,18.8-1.44,17.44,1.12L17.44,1.12z"/>
</g>
</svg>
