<?xml version="1.0" encoding="utf-8"?>
<!-- Generator: Adobe Illustrator 23.0.0, SVG Export Plug-In . SVG Version: 6.00 Build 0)  -->
<svg version="1.1" id="Layer_1" xmlns="http://www.w3.org/2000/svg" xmlns:xlink="http://www.w3.org/1999/xlink" x="0px" y="0px"
	 viewBox="0 0 546.12 635.17" style="enable-background:new 0 0 546.12 635.17;" xml:space="preserve">
<style type="text/css">
	.st0{opacity:0.2;fill:url(#SVGID_1_);}
	.st1{opacity:0.1;fill:url(#SVGID_2_);}
	.st2{opacity:0.2;fill:url(#SVGID_3_);}
	.st3{opacity:0.2;fill:url(#SVGID_4_);}
	.st4{fill:#FFFFFF;}
	.st5{opacity:0.3;fill:url(#SVGID_5_);}
	.st6{opacity:0.2;fill:url(#SVGID_6_);}
	.st7{opacity:0.2;fill:url(#SVGID_7_);}
	.st8{opacity:0.3;fill:url(#SVGID_8_);}
	.st9{opacity:0.2;fill:url(#SVGID_9_);}
	.st10{opacity:0.2;fill:url(#SVGID_10_);}
	.st11{opacity:0.3;fill:url(#SVGID_11_);}
	.st12{opacity:0.2;fill:url(#SVGID_12_);}
	.st13{opacity:0.2;fill:url(#SVGID_13_);}
	.st14{opacity:0.3;fill:url(#SVGID_14_);}
	.st15{opacity:0.2;fill:url(#SVGID_15_);}
	.st16{opacity:0.2;fill:url(#SVGID_16_);}
	.st17{opacity:0.3;fill:url(#SVGID_17_);}
	.st18{opacity:0.2;fill:url(#SVGID_18_);}
	.st19{opacity:0.2;fill:url(#SVGID_19_);}
	.st20{opacity:0.3;fill:url(#SVGID_20_);}
	.st21{fill:none;stroke:#D3BACB;stroke-width:2;stroke-linecap:round;stroke-miterlimit:10;}
	.st22{fill:none;stroke:#D3BACB;stroke-width:2;stroke-linecap:round;stroke-miterlimit:10;stroke-dasharray:3.0198,3.0198;}
	.st23{fill:none;stroke:#D3BACB;stroke-width:2;stroke-linecap:round;stroke-miterlimit:10;stroke-dasharray:2.969,2.969;}
	.st24{fill:none;stroke:#D3BACB;stroke-width:2;stroke-linecap:round;stroke-miterlimit:10;stroke-dasharray:3.0362,3.0362;}
	.st25{fill:none;stroke:#D3BACB;stroke-width:2;stroke-linecap:round;stroke-miterlimit:10;stroke-dasharray:2.979,2.979;}
	.st26{fill:none;stroke:#D3BACB;stroke-width:2;stroke-linecap:round;stroke-miterlimit:10;stroke-dasharray:2.9669,2.9669;}
	.st27{fill:none;stroke:#D3BACB;stroke-width:2;stroke-linecap:round;stroke-miterlimit:10;stroke-dasharray:2.9984,2.9984;}
	.st28{fill:none;stroke:#D3BACB;stroke-width:2;stroke-linecap:round;stroke-miterlimit:10;stroke-dasharray:3.0707,3.0707;}
	.st29{opacity:0.2;fill:url(#SVGID_21_);}
	.st30{opacity:0.2;fill:url(#SVGID_22_);}
	.st31{opacity:0.3;fill:url(#SVGID_23_);}
	.st32{fill:none;stroke:#D3BACB;stroke-width:1.5;stroke-miterlimit:10;}
	.st33{opacity:0.5;}
	.st34{fill:url(#SVGID_24_);}
	.st35{fill:url(#SVGID_25_);}
	.st36{fill:url(#SVGID_26_);}
	.st37{fill:url(#SVGID_27_);}
	.st38{fill:url(#SVGID_28_);}
	.st39{fill:url(#SVGID_29_);}
	.st40{fill:url(#SVGID_30_);}
	.st41{fill:#0094B7;}
	.st42{fill:#36B6BD;}
	.st43{fill:#D96966;}
	.st44{fill:#B4B4B4;}
	.st45{fill:#00C2FF;}
	.st46{fill:#C4C2C3;}
	.st47{fill:#FF1E00;}
	.st48{fill:#A9A9A9;}
	.st49{fill:#9C1826;}
	.st50{fill:#48CAFF;}
	.st51{fill:url(#SVGID_31_);}
</style>
<g>
	
		<linearGradient id="SVGID_1_" gradientUnits="userSpaceOnUse" x1="318.6088" y1="594.4692" x2="325.2872" y2="747.9916" gradientTransform="matrix(0.9705 -0.2412 0.2412 0.9705 -164.0557 -49.9498)">
		<stop  offset="0" style="stop-color:#5BBCE6"/>
		<stop  offset="0.9982" style="stop-color:#9618CC"/>
	</linearGradient>
	<path class="st0" d="M245.72,578.17c0.76,9.98,14.15,37.78,46.85,13.87c36.49-26.69,41.27-23.34,55.12-24.34
		c19.58-1.41,48.77-15.6,38.22-61.5c-10.55-45.9-40.83-61.02-67.82-49.15c0,0-13.75,6.12-16.2,20.71
		c-2.45,14.59-9.39,67.87-33.42,76.84C253.75,558.75,244.66,564.38,245.72,578.17z"/>
	
		<linearGradient id="SVGID_2_" gradientUnits="userSpaceOnUse" x1="-1944.5138" y1="175.5141" x2="-1824.7015" y2="175.5141" gradientTransform="matrix(-0.6174 -0.7867 0.7867 -0.6174 -1041.6787 -906.3058)">
		<stop  offset="0" style="stop-color:#FDBF17"/>
		<stop  offset="0.9982" style="stop-color:#9618CC"/>
	</linearGradient>
	<path class="st1" d="M309.71,424.55c-4.29,10.76-10.61,23.11-8.73,38.06c1.88,14.95,1.08,52.13-26.07,69.33
		c-26.67,16.9-66.24-10.4-75.78-22.25c-16.61-20.64-21.95-48.93,9.8-77.51c35.62-32.06,67.94-32.42,75.79-33.2
		C301.49,397.33,314.62,412.25,309.71,424.55z"/>
	<g>
		
			<linearGradient id="SVGID_3_" gradientUnits="userSpaceOnUse" x1="1277.141" y1="-683.7296" x2="1393.3373" y2="-683.7296" gradientTransform="matrix(0.7015 0.7127 -0.7127 0.7015 -1148.0488 -411.6975)">
			<stop  offset="0" style="stop-color:#5BBCE6"/>
			<stop  offset="0.9982" style="stop-color:#9618CC"/>
		</linearGradient>
		<path class="st2" d="M315.06,103.22c-23.01,22.65-59.44,13.83-82.09-9.18s-18.36-54.99,4.65-77.64s50.07-21.54,72.73,1.47
			S338.08,80.57,315.06,103.22z"/>
		
			<linearGradient id="SVGID_4_" gradientUnits="userSpaceOnUse" x1="1289.0464" y1="-695.1587" x2="1405.2427" y2="-695.1587" gradientTransform="matrix(0.7015 0.7127 -0.7127 0.7015 -1148.0488 -411.6975)">
			<stop  offset="0" style="stop-color:#FDBF17"/>
			<stop  offset="0.9982" style="stop-color:#9618CC"/>
		</linearGradient>
		<path class="st3" d="M331.56,103.69c-23.01,22.65-59.44,13.83-82.09-9.18s-18.36-54.99,4.65-77.64s50.07-21.54,72.73,1.47
			S354.57,81.04,331.56,103.69z"/>
		<path class="st4" d="M324.13,107c-23.01,22.65-59.44,13.83-82.09-9.18s-18.36-54.99,4.65-77.64s50.07-21.54,72.73,1.47
			S347.14,84.34,324.13,107z"/>
		
			<linearGradient id="SVGID_5_" gradientUnits="userSpaceOnUse" x1="1285.2367" y1="-687.5391" x2="1403.3378" y2="-687.5391" gradientTransform="matrix(0.7015 0.7127 -0.7127 0.7015 -1148.0488 -411.6975)">
			<stop  offset="0" style="stop-color:#5BBCE6"/>
			<stop  offset="0.9982" style="stop-color:#9618CC"/>
		</linearGradient>
		<path class="st5" d="M241.35,98.48c-21.9-22.25-19.98-54.73,4.67-78.99c23.09-22.73,50.78-22.18,74.07,1.48
			c11.29,11.47,18.49,27.29,19.75,43.4c1.33,17.05-4.01,32.42-15.05,43.29C301.14,130.96,263.8,121.28,241.35,98.48z M318.73,22.32
			c-22.45-22.81-49.14-23.36-71.38-1.46c-23.85,23.47-25.76,54.84-4.64,76.29c21.79,22.13,57.94,31.61,80.75,9.17
			c10.63-10.46,15.78-25.3,14.49-41.78C336.72,48.86,329.72,33.48,318.73,22.32z"/>
	</g>
	<g>
		
			<linearGradient id="SVGID_6_" gradientUnits="userSpaceOnUse" x1="1266.899" y1="-1115.4968" x2="1383.0952" y2="-1115.4968" gradientTransform="matrix(0.3162 0.9487 -0.9487 0.3162 -1374.9989 -499.0616)">
			<stop  offset="0" style="stop-color:#5BBCE6"/>
			<stop  offset="0.9982" style="stop-color:#9618CC"/>
		</linearGradient>
		<path class="st6" d="M118.49,461.06c-30.63,10.21-59.46-13.74-69.67-44.38s7.72-57.45,38.35-67.66s54.44,2.7,64.65,33.33
			S149.12,450.85,118.49,461.06z"/>
		
			<linearGradient id="SVGID_7_" gradientUnits="userSpaceOnUse" x1="1278.8043" y1="-1126.926" x2="1395.0006" y2="-1126.926" gradientTransform="matrix(0.3162 0.9487 -0.9487 0.3162 -1374.9989 -499.0616)">
			<stop  offset="0" style="stop-color:#FDBF17"/>
			<stop  offset="0.9982" style="stop-color:#9618CC"/>
		</linearGradient>
		<path class="st7" d="M133.09,468.74c-30.63,10.21-59.46-13.74-69.67-44.38s7.72-57.45,38.35-67.66s54.44,2.7,64.65,33.33
			S163.73,458.53,133.09,468.74z"/>
		<path class="st4" d="M124.96,468.44c-30.63,10.21-59.46-13.74-69.67-44.38s7.72-57.45,38.35-67.66s54.44,2.7,64.65,33.33
			S155.6,458.23,124.96,468.44z"/>
		
			<linearGradient id="SVGID_8_" gradientUnits="userSpaceOnUse" x1="1274.9946" y1="-1119.3064" x2="1393.0957" y2="-1119.3064" gradientTransform="matrix(0.3162 0.9487 -0.9487 0.3162 -1374.9989 -499.0616)">
			<stop  offset="0" style="stop-color:#5BBCE6"/>
			<stop  offset="0.9982" style="stop-color:#9618CC"/>
		</linearGradient>
		<path class="st8" d="M54.39,424.36c-9.87-29.61,6.15-57.93,38.96-68.87c30.74-10.25,55.36,2.44,65.86,33.94
			c5.09,15.27,4.59,32.64-1.37,47.67c-6.31,15.9-17.87,27.35-32.57,32.25C93.78,479.83,64.5,454.71,54.39,424.36z M157.39,390.03
			c-10.12-30.36-33.84-42.6-63.45-32.73c-31.74,10.58-47.27,37.91-37.75,66.46c9.82,29.46,38.11,53.89,68.47,43.77
			c14.15-4.72,25.3-15.78,31.4-31.14C161.86,421.78,162.34,404.88,157.39,390.03z"/>
	</g>
	<g>
		
			<linearGradient id="SVGID_9_" gradientUnits="userSpaceOnUse" x1="1400.7739" y1="-592.8035" x2="1516.9702" y2="-592.8035" gradientTransform="matrix(0.7028 0.7114 -0.7114 0.7028 -1044.7883 -478.3207)">
			<stop  offset="0" style="stop-color:#5BBCE6"/>
			<stop  offset="0.9982" style="stop-color:#9618CC"/>
		</linearGradient>
		<path class="st9" d="M441.5,185.71c-22.97,22.7-59.41,13.94-82.11-9.03c-22.7-22.97-18.46-54.95,4.51-77.65
			c22.97-22.7,50.03-21.63,72.73,1.34C459.32,123.34,464.47,163.01,441.5,185.71z"/>
		
			<linearGradient id="SVGID_10_" gradientUnits="userSpaceOnUse" x1="1412.6793" y1="-604.2326" x2="1528.8756" y2="-604.2326" gradientTransform="matrix(0.7028 0.7114 -0.7114 0.7028 -1044.7883 -478.3207)">
			<stop  offset="0" style="stop-color:#FDBF17"/>
			<stop  offset="0.9982" style="stop-color:#9618CC"/>
		</linearGradient>
		<path class="st10" d="M458,186.14c-22.97,22.7-59.41,13.94-82.11-9.03c-22.7-22.97-18.46-54.95,4.51-77.65
			c22.97-22.7,50.03-21.63,72.73,1.34C475.82,123.78,480.97,163.45,458,186.14z"/>
		<path class="st4" d="M450.57,189.47c-22.97,22.7-59.41,13.94-82.11-9.03c-22.7-22.97-18.46-54.95,4.51-77.65
			c22.97-22.7,50.03-21.63,72.73,1.34C468.39,127.1,473.54,166.77,450.57,189.47z"/>
		
			<linearGradient id="SVGID_11_" gradientUnits="userSpaceOnUse" x1="1408.8696" y1="-596.613" x2="1526.9707" y2="-596.613" gradientTransform="matrix(0.7028 0.7114 -0.7114 0.7028 -1044.7883 -478.3207)">
			<stop  offset="0" style="stop-color:#5BBCE6"/>
			<stop  offset="0.9982" style="stop-color:#9618CC"/>
		</linearGradient>
		<path class="st11" d="M367.78,181.11c-21.94-22.21-20.08-54.69,4.52-78.99c23.05-22.77,50.74-22.27,74.07,1.34
			c11.31,11.45,18.54,27.26,19.83,43.37c1.37,17.05-3.95,32.43-14.97,43.32C427.63,213.47,390.27,203.87,367.78,181.11z
			 M445.02,104.8c-22.49-22.77-49.18-23.26-71.38-1.33c-23.8,23.52-25.65,54.89-4.5,76.3c21.83,22.09,58,31.5,80.76,9.02
			c10.61-10.48,15.73-25.33,14.41-41.81C463.05,131.31,456.02,115.93,445.02,104.8z"/>
	</g>
	<g>
		
			<linearGradient id="SVGID_12_" gradientUnits="userSpaceOnUse" x1="258.6976" y1="-2901.7654" x2="374.8939" y2="-2901.7654" gradientTransform="matrix(-0.878 0.4787 -0.4787 -0.878 -950.6748 -2557.1799)">
			<stop  offset="0" style="stop-color:#5BBCE6"/>
			<stop  offset="0.9982" style="stop-color:#9618CC"/>
		</linearGradient>
		<path class="st12" d="M108.2,168.01c-15.46-28.35,3.03-60.95,31.38-76.41s57.91-2.55,73.37,25.81s6.95,54.06-21.4,69.52
			S123.66,196.36,108.2,168.01z"/>
		
			<linearGradient id="SVGID_13_" gradientUnits="userSpaceOnUse" x1="270.603" y1="-2913.1946" x2="386.7992" y2="-2913.1946" gradientTransform="matrix(-0.878 0.4787 -0.4787 -0.878 -950.6748 -2557.1799)">
			<stop  offset="0" style="stop-color:#FDBF17"/>
			<stop  offset="0.9982" style="stop-color:#9618CC"/>
		</linearGradient>
		<path class="st13" d="M103.22,183.75c-15.46-28.35,3.03-60.95,31.38-76.41s57.91-2.55,73.37,25.81s6.95,54.06-21.4,69.52
			S118.68,212.1,103.22,183.75z"/>
		<path class="st4" d="M102.08,175.69c-15.46-28.35,3.03-60.95,31.38-76.41s57.91-2.55,73.37,25.81s6.95,54.06-21.4,69.52
			S117.54,204.04,102.08,175.69z"/>
		
			<linearGradient id="SVGID_14_" gradientUnits="userSpaceOnUse" x1="266.7932" y1="-2905.575" x2="384.8943" y2="-2905.575" gradientTransform="matrix(-0.878 0.4787 -0.4787 -0.878 -950.6748 -2557.1799)">
			<stop  offset="0" style="stop-color:#5BBCE6"/>
			<stop  offset="0.9982" style="stop-color:#9618CC"/>
		</linearGradient>
		<path class="st14" d="M133.01,98.44c27.41-14.94,58.11-4.18,74.66,26.19c15.51,28.45,7.37,54.92-21.78,70.81
			c-14.13,7.71-31.32,10.28-47.16,7.07c-16.76-3.4-30.08-12.76-37.49-26.36C85.36,147.01,104.92,113.75,133.01,98.44z
			 M184.98,193.77c28.1-15.32,35.96-40.83,21.02-68.23c-16.02-29.38-45.66-39.83-72.08-25.43c-27.27,14.87-46.32,47.03-31,75.12
			c7.14,13.1,20,22.12,36.2,25.41C154.52,203.77,171.24,201.26,184.98,193.77z"/>
	</g>
	<g>
		
			<linearGradient id="SVGID_15_" gradientUnits="userSpaceOnUse" x1="-201.7495" y1="289.4561" x2="-85.5532" y2="289.4561" gradientTransform="matrix(0.9304 -0.3666 0.3666 0.9304 507.5913 -48.2541)">
			<stop  offset="0" style="stop-color:#5BBCE6"/>
			<stop  offset="0.9982" style="stop-color:#9618CC"/>
		</linearGradient>
		<path class="st15" d="M534.94,254.48c11.84,30.04-10.53,60.11-40.57,71.95c-30.04,11.84-57.79-4.62-69.63-34.67
			c-11.84-30.04-0.23-54.51,29.82-66.35C484.6,213.58,523.1,224.44,534.94,254.48z"/>
		
			<linearGradient id="SVGID_16_" gradientUnits="userSpaceOnUse" x1="-189.8441" y1="278.027" x2="-73.6478" y2="278.027" gradientTransform="matrix(0.9304 -0.3666 0.3666 0.9304 507.5913 -48.2541)">
			<stop  offset="0" style="stop-color:#FDBF17"/>
			<stop  offset="0.9982" style="stop-color:#9618CC"/>
		</linearGradient>
		<path class="st16" d="M541.83,239.48c11.84,30.04-10.53,60.11-40.57,71.95c-30.04,11.84-57.79-4.62-69.63-34.67
			c-11.84-30.04-0.23-54.51,29.82-66.35C491.48,198.58,529.99,209.44,541.83,239.48z"/>
		<path class="st4" d="M541.96,247.62c11.84,30.04-10.53,60.11-40.57,71.95c-30.04,11.84-57.79-4.62-69.63-34.67
			c-11.84-30.04-0.23-54.51,29.82-66.35C491.62,206.72,530.12,217.58,541.96,247.62z"/>
		
			<linearGradient id="SVGID_17_" gradientUnits="userSpaceOnUse" x1="-193.6538" y1="285.6466" x2="-75.5527" y2="285.6466" gradientTransform="matrix(0.9304 -0.3666 0.3666 0.9304 507.5913 -48.2541)">
			<stop  offset="0" style="stop-color:#5BBCE6"/>
			<stop  offset="0.9982" style="stop-color:#9618CC"/>
		</linearGradient>
		<path class="st17" d="M501.74,320.46c-29.04,11.45-58.18-3.03-70.86-35.2c-11.88-30.15-0.53-55.41,30.35-67.58
			c14.98-5.9,32.35-6.34,47.67-1.19c16.21,5.44,28.27,16.38,33.95,30.79C555.02,278.14,531.5,308.73,501.74,320.46z M461.93,219.44
			c-29.78,11.73-40.72,36.08-29.28,65.11c12.27,31.13,40.39,45.16,68.39,34.13c28.89-11.39,51.77-40.95,40.04-70.72
			c-5.47-13.88-17.11-24.42-32.78-29.68C493.39,213.28,476.49,213.7,461.93,219.44z"/>
	</g>
	<g>
		
			<linearGradient id="SVGID_18_" gradientUnits="userSpaceOnUse" x1="-1991.4371" y1="-1181.6852" x2="-1875.241" y2="-1181.6852" gradientTransform="matrix(-0.031 -0.9995 0.9995 -0.031 1187.0472 -1688.1859)">
			<stop  offset="0" style="stop-color:#5BBCE6"/>
			<stop  offset="0.9982" style="stop-color:#9618CC"/>
		</linearGradient>
		<path class="st18" d="M66.32,222.74c32.28-1,53.03,30.21,54.03,62.48c1,32.28-23.86,52.83-56.14,53.83s-51.39-18.19-52.39-50.47
			S34.04,223.74,66.32,222.74z"/>
		
			<linearGradient id="SVGID_19_" gradientUnits="userSpaceOnUse" x1="-1979.5319" y1="-1193.1143" x2="-1863.3356" y2="-1193.1143" gradientTransform="matrix(-0.031 -0.9995 0.9995 -0.031 1187.0472 -1688.1859)">
			<stop  offset="0" style="stop-color:#FDBF17"/>
			<stop  offset="0.9982" style="stop-color:#9618CC"/>
		</linearGradient>
		<path class="st19" d="M54.53,211.19c32.28-1,53.03,30.21,54.03,62.48c1,32.28-23.86,52.83-56.14,53.83S1.03,309.32,0.03,277.04
			S22.25,212.19,54.53,211.19z"/>
		<path class="st4" d="M62.23,213.81c32.28-1,53.03,30.21,54.03,62.48s-23.86,52.83-56.14,53.83S8.74,311.94,7.74,279.66
			S29.95,214.81,62.23,213.81z"/>
		
			<linearGradient id="SVGID_20_" gradientUnits="userSpaceOnUse" x1="-1983.3416" y1="-1185.4948" x2="-1865.2405" y2="-1185.4948" gradientTransform="matrix(-0.031 -0.9995 0.9995 -0.031 1187.0472 -1688.1859)">
			<stop  offset="0" style="stop-color:#5BBCE6"/>
			<stop  offset="0.9982" style="stop-color:#9618CC"/>
		</linearGradient>
		<path class="st20" d="M117.21,276.27c0.97,31.2-22.5,53.74-57.06,54.81c-32.39,1.01-52.34-18.21-53.37-51.39
			c-0.5-16.09,4.96-32.59,14.97-45.27c10.6-13.42,24.96-21.08,40.44-21.56C95.37,211.83,116.22,244.29,117.21,276.27z M8.69,279.63
			c0.99,31.99,20.21,50.51,51.4,49.54c33.44-1.04,56.15-22.77,55.22-52.85c-0.96-31.04-21.07-62.55-53.05-61.56
			c-14.91,0.46-28.76,7.86-39.01,20.84C13.51,247.94,8.2,263.99,8.69,279.63z"/>
	</g>
	<g>
		<g>
			<path class="st21" d="M285.96,435c-0.05-0.16-0.18-0.65-0.39-1.44"/>
			<path class="st22" d="M284.77,430.64c-6.11-21.33-38.03-114.27-157.92-151.55"/>
			<path class="st21" d="M125.4,278.64c-0.48-0.15-0.96-0.29-1.44-0.44"/>
		</g>
	</g>
	<g>
		<g>
			<path class="st21" d="M291.16,432.72c-0.05-0.16-0.19-0.64-0.41-1.44"/>
			<path class="st23" d="M289.94,428.43c-6.45-22.4-38.5-127.17-109.74-213.95"/>
			<path class="st21" d="M179.24,213.33c-0.32-0.39-0.64-0.77-0.96-1.15"/>
		</g>
	</g>
	<g>
		<g>
			<path class="st21" d="M298.65,432.07c0.05-0.15,0.11-0.66,0.19-1.48"/>
			<path class="st24" d="M299.11,427.57c2.1-23.77,12.6-135.86,83.49-222.82"/>
			<path class="st21" d="M383.57,203.57c0.32-0.39,0.64-0.77,0.96-1.16"/>
		</g>
	</g>
	<g>
		<g>
			<path class="st21" d="M296.69,432.07c-0.04-0.13-0.18-0.62-0.39-1.44"/>
			<path class="st25" d="M295.6,427.74c-6.65-27.67-39.88-181.17-11.97-299.83"/>
			<path class="st21" d="M283.98,126.45c0.12-0.49,0.23-0.97,0.35-1.46"/>
		</g>
	</g>
	<g>
		<g>
			<path class="st21" d="M301.57,432.07c0.07-0.2,0.18-0.69,0.37-1.45"/>
			<path class="st26" d="M302.72,427.76c4.58-15.85,25.62-71.86,118.56-125.62"/>
			<path class="st21" d="M422.58,301.4c0.43-0.25,0.87-0.5,1.31-0.75"/>
		</g>
	</g>
	<g>
		<g>
			<path class="st21" d="M280.1,437.92c-0.32-0.31-0.66-0.68-1.01-1.11"/>
			<path class="st27" d="M277.35,434.39c-9.63-14.48-29.8-57.39-101.23-35.59"/>
			<path class="st21" d="M174.67,399.25c-0.47,0.15-0.95,0.3-1.43,0.46"/>
		</g>
	</g>
	<g>
		<g>
			<path class="st21" d="M304.83,434.67c0.34-0.32,0.69-0.68,1.05-1.07"/>
			<path class="st28" d="M307.86,431.27c9.3-11.44,26.84-37.5,79.5-32.68"/>
			<path class="st21" d="M388.89,398.73c0.49,0.05,0.99,0.1,1.49,0.16"/>
		</g>
	</g>
	<g>
		
			<linearGradient id="SVGID_21_" gradientUnits="userSpaceOnUse" x1="1440.5048" y1="-407.7961" x2="1556.7009" y2="-407.7961" gradientTransform="matrix(0.6343 0.7731 -0.7731 0.6343 -814.6548 -494.9254)">
			<stop  offset="0" style="stop-color:#5BBCE6"/>
			<stop  offset="0.9982" style="stop-color:#9618CC"/>
		</linearGradient>
		<path class="st29" d="M486.33,451.25c-24.96,20.48-60.45,8.41-80.93-16.55c-20.48-24.96-13.32-56.42,11.64-76.9
			c24.96-20.48,51.81-16.93,72.3,8.03C509.82,390.79,511.29,430.77,486.33,451.25z"/>
		
			<linearGradient id="SVGID_22_" gradientUnits="userSpaceOnUse" x1="1452.41" y1="-419.2252" x2="1568.6063" y2="-419.2252" gradientTransform="matrix(0.6343 0.7731 -0.7731 0.6343 -814.6548 -494.9254)">
			<stop  offset="0" style="stop-color:#FDBF17"/>
			<stop  offset="0.9982" style="stop-color:#9618CC"/>
		</linearGradient>
		<path class="st30" d="M502.72,453.2c-24.96,20.48-60.45,8.41-80.93-16.55c-20.48-24.96-13.32-56.42,11.64-76.9
			c24.96-20.48,51.81-16.93,72.3,8.03C526.21,392.75,527.68,432.72,502.72,453.2z"/>
		<path class="st4" d="M495.01,455.83c-24.96,20.48-60.45,8.41-80.93-16.55c-20.48-24.96-13.32-56.42,11.64-76.9
			s51.81-16.93,72.3,8.03C518.5,395.37,519.98,435.35,495.01,455.83z"/>
		
			<linearGradient id="SVGID_23_" gradientUnits="userSpaceOnUse" x1="1448.6003" y1="-411.6057" x2="1566.7015" y2="-411.6057" gradientTransform="matrix(0.6343 0.7731 -0.7731 0.6343 -814.6548 -494.9254)">
			<stop  offset="0" style="stop-color:#5BBCE6"/>
			<stop  offset="0.9982" style="stop-color:#9618CC"/>
		</linearGradient>
		<path class="st31" d="M413.35,439.88c-19.8-24.13-14.96-56.31,11.77-78.24c25.05-20.55,52.58-17.5,73.64,8.16
			c10.21,12.44,15.95,28.85,15.75,45.01c-0.21,17.1-6.92,31.93-18.89,41.76C469.96,477.62,433.64,464.61,413.35,439.88z
			 M497.28,371.01c-20.3-24.74-46.83-27.69-70.95-7.9c-25.87,21.22-30.6,52.3-11.51,75.56c19.7,24.01,54.86,36.71,79.59,16.42
			c11.53-9.46,18-23.78,18.2-40.31C512.8,399.07,507.21,383.11,497.28,371.01z"/>
	</g>
	<g>
		<path class="st32" d="M493.61,634.42H52.51c-2.15,0-3.9-1.76-3.9-3.9l0,0c0-2.15,1.76-3.9,3.9-3.9h441.1c2.15,0,3.9,1.76,3.9,3.9
			l0,0C497.51,632.66,495.76,634.42,493.61,634.42z"/>
		<g>
			<g class="st33">
				<linearGradient id="SVGID_24_" gradientUnits="userSpaceOnUse" x1="133.7368" y1="603.0114" x2="213.1887" y2="603.0114">
					<stop  offset="0" style="stop-color:#5BBCE6"/>
					<stop  offset="0.9982" style="stop-color:#9618CC"/>
				</linearGradient>
				<path class="st34" d="M149.6,626.44c-3.88,0-7.77,0-11.65-0.01c-2.55,0-4.19-1.64-4.2-4.17c-0.02-13.03-0.02-25.98,0-38.48
					c0-2.62,1.66-4.19,4.42-4.19c8.7,0,17.41,0,26.11,0l44.04,0c3.36,0,4.86,1.49,4.86,4.82l0,37.21c0,3.33-1.5,4.82-4.86,4.82
					c-7.8,0-15.59,0-23.39,0c-2.23,0-3.01-0.59-3.6-2.73l-0.51-1.86c-0.62-2.26-1.26-4.59-1.96-6.86c-0.34-1.1-0.83-2.18-1.43-3.13
					c-0.91-1.45-2.37-2.29-3.9-2.26c-1.5,0.04-2.83,0.89-3.63,2.34c-0.86,1.55-1.43,3.33-1.99,5.06l-0.29,0.88
					c-0.42,1.28-0.77,2.61-1.12,3.9c-0.2,0.76-0.4,1.52-0.62,2.27c-0.48,1.68-1.4,2.37-3.18,2.37
					C158.35,626.44,153.97,626.44,149.6,626.44z M155.16,581.34c-5.66,0-11.32,0-16.98,0c-2.39,0-2.67,1.39-2.67,2.44
					c-0.02,12.5-0.02,25.44,0,38.47c0,1.58,0.85,2.42,2.45,2.42c8.25,0.01,16.51,0.01,24.77,0c1,0,1.22-0.17,1.49-1.1
					c0.21-0.74,0.41-1.49,0.61-2.24c0.35-1.31,0.71-2.67,1.15-3.99l0.28-0.87c0.58-1.81,1.19-3.68,2.13-5.38
					c1.1-1.98,3.01-3.19,5.12-3.25c2.18-0.04,4.2,1.1,5.43,3.08c0.67,1.08,1.23,2.3,1.61,3.54c0.71,2.29,1.35,4.64,1.98,6.91
					l0.51,1.85c0.38,1.39,0.46,1.44,1.91,1.44c7.8,0,15.59,0,23.39,0c2.41,0,3.1-0.69,3.1-3.07l0-37.21c0-2.38-0.7-3.07-3.1-3.07
					l-44.04,0C161.24,581.34,158.2,581.34,155.16,581.34z M190.83,611.95L190.83,611.95c-4.99,0-8.91-3.91-8.92-8.9
					c0-2.43,0.93-4.69,2.63-6.39c1.69-1.68,3.93-2.61,6.35-2.59c4.9,0.03,8.87,4.05,8.85,8.98
					C199.73,608.04,195.81,611.95,190.83,611.95z M190.84,595.82c-1.92,0-3.72,0.74-5.06,2.08c-1.36,1.36-2.11,3.18-2.11,5.14
					c0.01,4.01,3.15,7.15,7.16,7.15c4,0,7.15-3.14,7.16-7.15c0.01-3.96-3.18-7.2-7.11-7.22
					C190.87,595.82,190.85,595.82,190.84,595.82z M156.08,611.95C156.08,611.95,156.08,611.95,156.08,611.95
					c-4.99,0-8.91-3.91-8.91-8.91c0-2.42,0.93-4.69,2.62-6.38c1.69-1.68,3.96-2.58,6.36-2.59c4.91,0.03,8.9,4.06,8.87,8.98
					C165.01,607.96,160.99,611.95,156.08,611.95z M156.1,595.83c-1.93,0-3.73,0.74-5.07,2.08c-1.36,1.36-2.11,3.18-2.11,5.13
					c0.01,4.01,3.15,7.15,7.15,7.15l0,0c0,0,0,0,0,0c3.95,0,7.17-3.2,7.19-7.14c0.02-3.96-3.18-7.2-7.13-7.22
					C156.13,595.83,156.12,595.83,156.1,595.83z"/>
			</g>
			<g class="st33">
				
					<linearGradient id="SVGID_25_" gradientUnits="userSpaceOnUse" x1="-518.8323" y1="-2733.0557" x2="-430.4821" y2="-2733.0557" gradientTransform="matrix(-1 0 0 -1 -125.8473 -2138.3)">
					<stop  offset="0" style="stop-color:#5BBCE6"/>
					<stop  offset="0.9982" style="stop-color:#9618CC"/>
				</linearGradient>
				<path class="st35" d="M304.66,620.14c0.01,4.9,1.45,6.26,6.36,6.39c0.27,0.01,0.53,0.01,0.8,0.01c24.57,0,49.15,0.01,73.72-0.01
					c1.26,0,2.54-0.11,3.79-0.29c1.94-0.28,3.12-1.45,3.39-3.4c0.16-1.19,0.25-2.39,0.25-3.59c0.02-6.88,0.01-13.76,0.01-20.63
					c0-9.55,0.01-19.1-0.01-28.65c-0.01-5.7-1.29-6.97-6.93-6.99c-0.27,0-0.53,0-0.8,0c-12.15,0-24.31,0-36.46,0
					c-12.55,0-25.11-0.02-37.66,0.01c-4.95,0.02-6.45,1.46-6.46,6.27C304.63,586.22,304.62,603.18,304.66,620.14z M306.78,571.03
					c0-0.93,0.03-1.87,0.15-2.8c0.21-1.75,1.22-2.77,2.98-2.96c0.86-0.09,1.73-0.13,2.6-0.13c24.37,0,48.75,0.01,73.12,0
					c4.29,0,5.17,0.83,5.17,5.14c0,16.29,0,32.59,0,48.88c0,4.3-0.83,5.19-5.13,5.2c-12.22,0.03-24.44,0.01-36.66,0.01
					c-12.02,0-24.04,0-36.06-0.01c-1,0-2-0.04-3-0.14c-1.86-0.19-2.87-1.28-3.04-3.12c-0.08-0.86-0.13-1.73-0.13-2.6
					C306.77,602.69,306.77,586.86,306.78,571.03z"/>
				
					<linearGradient id="SVGID_26_" gradientUnits="userSpaceOnUse" x1="-441.4328" y1="-2733.0374" x2="-435.0337" y2="-2733.0374" gradientTransform="matrix(-1 0 0 -1 -125.8473 -2138.3)">
					<stop  offset="0" style="stop-color:#5BBCE6"/>
					<stop  offset="0.9982" style="stop-color:#9618CC"/>
				</linearGradient>
				<path class="st36" d="M312.47,598.1c1.6-0.02,3.06-1.52,3.11-3.22c0.03-1.08-0.28-1.98-0.91-2.63
					c-0.57-0.58-1.35-0.89-2.25-0.89c0,0-0.01,0-0.01,0c-1.9,0.01-3.2,1.31-3.23,3.24c-0.01,0.98,0.35,1.88,1.01,2.55
					C310.81,597.78,311.63,598.11,312.47,598.1z M312.42,592.35c0.62,0.03,1.18,0.2,1.56,0.6c0.44,0.45,0.65,1.11,0.63,1.92
					c-0.03,1.18-1.06,2.26-2.14,2.27c-0.01,0-0.01,0-0.02,0c-0.58,0-1.14-0.23-1.56-0.65c-0.48-0.48-0.73-1.13-0.72-1.85
					C310.18,593.23,311.04,592.35,312.42,592.35z"/>
			</g>
			<g class="st33">
				<linearGradient id="SVGID_27_" gradientUnits="userSpaceOnUse" x1="385.6658" y1="604.181" x2="412.3863" y2="604.181">
					<stop  offset="0" style="stop-color:#BE3084"/>
					<stop  offset="0.4714" style="stop-color:#DC7351"/>
					<stop  offset="1" style="stop-color:#FDBF17"/>
				</linearGradient>
				<path class="st37" d="M412.38,587.34c0-0.9,0.01-1.79,0-2.69c-0.01-1.39-0.95-2.6-2.29-2.97c-0.19-0.05-0.39-0.08-0.58-0.11
					c-6.99,0-13.98,0-20.97,0c-0.19,0.04-0.39,0.07-0.58,0.12c-1.37,0.38-2.28,1.59-2.28,3.05c0,1.15,0,2.31,0,3.46
					c0,10.61,0,21.23,0,31.84c0,1.18,0,2.35,0,3.53c0,0.18,0,0.37,0.03,0.55c0.24,1.57,1.52,2.66,3.1,2.66c6.82,0,13.65,0,20.47,0
					c0.19,0,0.39-0.01,0.58-0.05c1.5-0.29,2.54-1.54,2.54-3.07c0-1.48,0-2.97,0-4.45C412.38,608.59,412.38,597.96,412.38,587.34z
					 M387.72,584.87c0-0.14,0-0.29,0.03-0.43c0.09-0.46,0.48-0.78,0.95-0.8c0.05,0,0.11,0,0.16,0c6.77,0,13.55,0,20.32,0
					c0.37,0,0.7,0.09,0.92,0.4c0.09,0.13,0.19,0.29,0.19,0.44c0.02,0.74,0.01,1.48,0.01,2.24c-7.52,0-15.04,0-22.59,0
					C387.72,586.09,387.72,585.48,387.72,584.87z M410.31,588.78c0,9.93,0,19.85,0,29.78c-7.53,0-15.05,0-22.58,0
					c0-9.93,0-19.85,0-29.78C395.26,588.78,402.78,588.78,410.31,588.78z M410.33,620.81c0,0.93,0,1.86,0,2.78
					c0,0.73-0.41,1.14-1.15,1.14c-6.77,0-13.54,0-20.31,0c-0.62,0-1.03-0.31-1.13-0.85c-0.01-0.06-0.02-0.13-0.02-0.19
					c0-0.98,0-1.96,0-2.94c0-0.04,0-0.07,0.01-0.12c7.53,0,15.05,0,22.6,0C410.33,620.7,410.33,620.76,410.33,620.81z"/>
				<linearGradient id="SVGID_28_" gradientUnits="userSpaceOnUse" x1="394.9057" y1="622.6799" x2="403.15" y2="622.6799">
					<stop  offset="0" style="stop-color:#BE3084"/>
					<stop  offset="0.4714" style="stop-color:#DC7351"/>
					<stop  offset="1" style="stop-color:#FDBF17"/>
				</linearGradient>
				<path class="st38" d="M395.97,623.71c1.02,0,2.04,0,3.06,0c1.02,0,2.05,0.01,3.07,0c0.75-0.01,1.24-0.71,0.98-1.39
					c-0.16-0.43-0.54-0.67-1.06-0.67c-2,0-4,0-6,0c-0.1,0-0.19,0.01-0.29,0.02c-0.46,0.08-0.81,0.48-0.83,0.95
					C394.88,623.24,395.33,623.71,395.97,623.71z"/>
			</g>
			<g class="st33">
				<linearGradient id="SVGID_29_" gradientUnits="userSpaceOnUse" x1="203.6924" y1="581.9137" x2="313.6236" y2="581.9137">
					<stop  offset="0" style="stop-color:#BE3084"/>
					<stop  offset="0.4714" style="stop-color:#DC7351"/>
					<stop  offset="1" style="stop-color:#FDBF17"/>
				</linearGradient>
				<path class="st39" d="M313.25,541.71c-0.32-0.69-0.62-1.34-1-1.93c-0.83-1.28-2.28-1.85-3.7-2.38h-99.75l-0.07,0.03
					c-0.18,0.08-0.35,0.15-0.54,0.21c-2.79,0.9-4.47,3.18-4.48,6.11c-0.01,2.17-0.01,4.34-0.01,6.51l0,58.81
					c0,4.41,2.52,6.94,6.91,6.94l41.73,0v8.34h-13.85v2.1h40.34v-2.05h-13.86V616h41.55c3.86,0,5.75-1.36,6.99-5.03
					c0.03-0.08,0.07-0.15,0.11-0.21V542.5C313.5,542.24,313.37,541.97,313.25,541.71z M262.8,624.29h-8.26v-8.24h8.26V624.29z
					 M311.55,608.97c0,3.43-1.55,4.96-5.01,4.96h-59.92l-35.95,0c-3.35,0-4.91-1.57-4.91-4.95v-64.56c0-3.43,1.54-4.96,5.01-4.96
					h95.87c3.35,0,4.91,1.57,4.91,4.95V608.97z"/>
				<linearGradient id="SVGID_30_" gradientUnits="userSpaceOnUse" x1="252.7898" y1="604.7111" x2="264.5263" y2="604.7111">
					<stop  offset="0" style="stop-color:#BE3084"/>
					<stop  offset="0.4714" style="stop-color:#DC7351"/>
					<stop  offset="1" style="stop-color:#FDBF17"/>
				</linearGradient>
				<path class="st40" d="M258.66,598.84c-3.24,0-5.87,2.63-5.87,5.87s2.63,5.87,5.87,5.87c3.24,0,5.87-2.63,5.87-5.87
					S261.89,598.84,258.66,598.84z M258.66,609.17c-2.46,0-4.46-2-4.46-4.46s2-4.46,4.46-4.46c2.46,0,4.46,2,4.46,4.46
					S261.12,609.17,258.66,609.17z"/>
			</g>
		</g>
	</g>
	<g>
		<path class="st41" d="M278.21,87.67c0-2.13,0-4.15,0-6.14c-1.44-0.61-2.89-1.09-4.21-1.8c-6.97-3.76-11.04-9.6-11.99-17.45
			c-1.16-9.55,4.08-18.76,12.79-22.82c9.5-4.43,20.79-1.74,27.23,6.53c2.68,3.45,4.26,7.36,4.62,11.74
			c0.65,7.87-2.26,14.28-8.05,19.49c-5.68,5.1-12.23,8.52-19.65,10.31C278.74,87.58,278.53,87.61,278.21,87.67z M287.37,56.6
			c0.04,0,0.09-0.01,0.13-0.01c0.05,0.18,0.11,0.36,0.14,0.54c0.4,2.38,0.79,4.75,1.19,7.13c0.16,0.93,0.59,1.36,1.49,1.36
			c3.53,0.01,7.06,0,10.58-0.05c0.35,0,0.77-0.27,1.02-0.55c0.44-0.49,0.4-1.1,0.11-1.69c-0.27-0.54-0.73-0.7-1.31-0.7
			c-2.95,0.01-5.9,0-8.85,0.02c-0.5,0-0.73-0.1-0.79-0.65c-0.13-1.1-0.36-2.19-0.55-3.28c-0.58-3.37-1.14-6.74-1.73-10.11
			c-0.13-0.74-0.64-1.19-1.24-1.18c-0.62,0-1.21,0.52-1.34,1.21c-0.74,3.96-1.47,7.91-2.2,11.87c-0.23,1.26-0.48,2.52-0.72,3.79
			c-0.2-0.21-0.27-0.41-0.31-0.61c-0.71-3.02-1.41-6.05-2.12-9.07c-0.15-0.66-0.47-1.18-1.22-1.23c-0.77-0.04-1.08,0.47-1.29,1.12
			c-0.84,2.51-1.71,5.01-2.53,7.53c-0.17,0.54-0.38,0.77-0.99,0.76c-2.2-0.04-4.4-0.01-6.6-0.02c-0.66,0-1.1,0.29-1.33,0.9
			c-0.43,1.15,0.26,2.11,1.56,2.12c2.32,0.02,4.64,0,6.96,0c1.76,0,1.96-0.16,2.52-1.86c0.44-1.33,0.9-2.66,1.42-4.16
			c0.1,0.26,0.14,0.34,0.16,0.42c0.83,3.57,1.65,7.13,2.48,10.7c0.21,0.9,0.81,1.47,1.47,1.45c0.59-0.02,1.06-0.58,1.25-1.48
			c0-0.02,0-0.05,0.01-0.07C285.61,66.07,286.49,61.33,287.37,56.6z"/>
		<path class="st4" d="M287.37,56.6c-0.88,4.73-1.76,9.46-2.64,14.2c0,0.02,0,0.05-0.01,0.07c-0.19,0.9-0.66,1.46-1.25,1.48
			c-0.66,0.03-1.26-0.54-1.47-1.45c-0.83-3.56-1.65-7.13-2.48-10.7c-0.02-0.08-0.06-0.16-0.16-0.42c-0.51,1.51-0.98,2.83-1.42,4.16
			c-0.55,1.69-0.76,1.86-2.52,1.86c-2.32,0-4.64,0.01-6.96,0c-1.3-0.01-2-0.97-1.56-2.12c0.23-0.61,0.67-0.9,1.33-0.9
			c2.2,0.01,4.4-0.02,6.6,0.02c0.61,0.01,0.82-0.22,0.99-0.76c0.82-2.52,1.69-5.02,2.53-7.53c0.22-0.65,0.53-1.17,1.29-1.12
			c0.75,0.04,1.07,0.57,1.22,1.23c0.71,3.02,1.41,6.05,2.12,9.07c0.05,0.21,0.12,0.41,0.31,0.61c0.24-1.26,0.48-2.52,0.72-3.79
			c0.73-3.96,1.46-7.91,2.2-11.87c0.13-0.69,0.73-1.21,1.34-1.21c0.61,0,1.12,0.44,1.24,1.18c0.59,3.37,1.15,6.74,1.73,10.11
			c0.19,1.09,0.42,2.18,0.55,3.28c0.07,0.55,0.3,0.65,0.79,0.65c2.95-0.02,5.9,0,8.85-0.02c0.58,0,1.04,0.16,1.31,0.7
			c0.29,0.59,0.33,1.2-0.11,1.69c-0.24,0.27-0.67,0.54-1.02,0.55c-3.53,0.05-7.06,0.06-10.58,0.05c-0.9,0-1.33-0.43-1.49-1.36
			c-0.4-2.38-0.79-4.75-1.19-7.13c-0.03-0.18-0.09-0.36-0.14-0.54C287.46,56.6,287.41,56.6,287.37,56.6z"/>
	</g>
	<g>
		<path class="st42" d="M433.26,144.61c-10.17,4.25-20.19,8.44-30.2,12.62c-3.14,1.31-6.26,2.71-9.45,3.87
			c-0.72,0.26-2.04,0-2.57-0.53c-8.37-8.33-8.27-24.33,0.19-32.66c0.47-0.47,1.58-0.84,2.13-0.61c13.16,5.5,26.28,11.1,39.41,16.68
			C432.88,144.04,432.94,144.21,433.26,144.61z"/>
		<path class="st43" d="M393.61,163.61c14.48-6.15,28.77-12.21,43.09-18.29c1.24,7.46-5.42,18.11-13.77,22.21
			C412.94,172.45,400.48,170.85,393.61,163.61z M435.41,147.52c-13.22,5.63-25.93,11.04-39.09,16.65c7.78,5.19,15.62,6.2,23.74,2.92
			C428.54,163.65,433.59,157.19,435.41,147.52z"/>
		<path class="st44" d="M436.79,142.9c-14.18-6.03-28.16-11.98-42.2-17.96c5.02-6.1,16.8-8.37,25.7-5.08
			C429.95,123.43,436.98,133.06,436.79,142.9z M435.17,140.7c-0.3-8.22-7.28-16.95-15.67-19.71c-7.91-2.61-15.32-1.65-22.61,3.48
			C409.95,130,422.5,135.32,435.17,140.7z"/>
	</g>
	<g>
		<rect x="83.82" y="387.62" width="47.03" height="47.13"/>
		<g>
			<path class="st4" d="M124.89,416.23c-0.17-0.91-0.53-1.74-1.2-2.4c-1.1-1.08-2.43-1.57-3.98-1.43c-1.2,0.11-2.17,0.6-2.87,1.59
				c-0.02,0.03-0.06,0.05-0.11,0.09c0-0.15-0.01-0.27,0-0.38c0.06-0.41,0.1-0.83,0.19-1.24c0.18-0.87,0.5-1.69,1.1-2.37
				c0.85-0.98,2.53-1.09,3.33,0.2c0.19,0.3,0.31,0.64,0.47,0.97c0.95,0,1.93,0,2.93,0c-0.03-0.16-0.05-0.31-0.08-0.45
				c-0.24-1.16-0.76-2.16-1.75-2.86c-1.49-1.05-3.14-1.21-4.85-0.75c-1.34,0.36-2.3,1.25-3.03,2.39c-0.96,1.5-1.3,3.19-1.38,4.94
				c-0.05,0.92,0.02,1.84,0.14,2.76c0.14,0.99,0.38,1.95,0.84,2.84c0.56,1.08,1.37,1.92,2.48,2.42c1.08,0.49,2.22,0.58,3.38,0.4
				c1.6-0.24,2.85-1.05,3.68-2.44C124.98,419.19,125.16,417.74,124.89,416.23z M121.4,419.36c-0.92,1.51-2.86,1.41-3.79,0.18
				c-0.8-1.06-0.82-2.78-0.06-3.87c0.86-1.23,3.06-1.39,3.91,0.28c0.25,0.49,0.4,1.09,0.4,1.82
				C121.85,418.24,121.73,418.83,121.4,419.36z"/>
			<path class="st4" d="M93.07,419.99c0.22-0.25,0.43-0.51,0.66-0.75c0.73-0.74,1.59-1.3,2.45-1.87c0.84-0.56,1.7-1.08,2.45-1.77
				c1.35-1.26,1.87-2.82,1.59-4.62c-0.24-1.52-1.09-2.63-2.45-3.34c-1.28-0.67-2.64-0.81-4.04-0.55c-1.4,0.25-2.52,0.95-3.32,2.13
				c-0.65,0.97-0.95,2.05-1.04,3.21c-0.02,0.26,0,0.53,0,0.79c1.01,0,2,0,2.98,0c0.03-0.31,0.05-0.62,0.1-0.91
				c0.05-0.3,0.11-0.59,0.2-0.88c0.37-1.08,1.11-1.82,2.35-1.74c0.62,0.04,1.16,0.25,1.58,0.72c0.62,0.71,0.76,1.9,0.33,2.76
				c-0.4,0.8-1.05,1.36-1.77,1.85c-1.14,0.79-2.29,1.55-3.39,2.38c-1.36,1.02-2.33,2.33-2.62,4.05c-0.07,0.42-0.09,0.85-0.13,1.28
				c3.83,0,7.6,0,11.38,0c0-0.9,0-1.79,0-2.7c-2.43,0-4.85,0-7.26,0C93.08,420.03,93.07,420.01,93.07,419.99z"/>
			<path class="st4" d="M107.54,407.48c-0.08,0.43-0.22,0.83-0.46,1.2c-0.71,1.08-1.77,1.52-3.01,1.64
				c-0.34,0.03-0.68,0.04-1.01,0.06c0,0.78,0,1.56,0,2.35c1.29,0,2.57,0,3.87,0c0,3.35,0,6.68,0,10.02c1.06,0,2.09,0,3.12,0
				c0-5.16,0-10.3,0-15.45c-0.83,0-1.64,0-2.47,0C107.57,407.37,107.55,407.42,107.54,407.48z"/>
			<path class="st4" d="M111.31,400.2c-0.05-0.04-0.07-0.05-0.08-0.07c-0.72-0.69-1.85-0.39-2.1,0.57
				c-0.14,0.53-0.13,1.08-0.04,1.62c0.09,0.47,0.29,0.88,0.8,1.02c0.51,0.14,0.99,0.09,1.37-0.33c0.01-0.01,0.03-0.01,0.06-0.01
				c0,0.13,0,0.24,0,0.35c0.18,0,0.33,0,0.49,0c0-1.72,0-3.42,0-5.13c-0.17,0-0.33,0-0.51,0
				C111.31,398.87,111.31,399.52,111.31,400.2z M111.2,402.41c-0.1,0.36-0.37,0.52-0.76,0.53c-0.39,0-0.66-0.16-0.77-0.51
				c-0.18-0.56-0.18-1.12,0-1.68c0.11-0.35,0.39-0.52,0.77-0.51c0.39,0.01,0.66,0.17,0.76,0.53c0.08,0.27,0.1,0.55,0.15,0.82
				C111.3,401.87,111.28,402.14,111.2,402.41z"/>
			<path class="st4" d="M122.62,403.4c0.69,0.06,1.28-0.32,1.47-0.96c0.08-0.27,0.09-0.56,0.12-0.78c-0.02-0.27-0.04-0.47-0.06-0.66
				c-0.09-0.68-0.61-1.18-1.28-1.22c-0.73-0.05-1.31,0.36-1.49,1.06c-0.11,0.45-0.1,0.91-0.03,1.36
				C121.45,402.86,121.97,403.34,122.62,403.4z M121.91,400.88c0.12-0.44,0.46-0.66,0.93-0.63c0.42,0.03,0.73,0.32,0.8,0.75
				c0.03,0.19,0.04,0.39,0.06,0.59c-0.02,0.2-0.03,0.39-0.06,0.59c-0.07,0.44-0.37,0.73-0.8,0.75c-0.47,0.03-0.81-0.19-0.93-0.63
				C121.78,401.82,121.78,401.35,121.91,400.88z"/>
			<path class="st4" d="M103.43,403.36c0.27-0.05,0.52-0.21,0.77-0.32c0,0.08,0,0.19,0,0.3c0.17,0,0.32,0,0.49,0
				c0-1.19,0-2.35,0-3.52c-0.17,0-0.33,0-0.49,0c0,0.05-0.01,0.08-0.01,0.11c0,0.7,0.01,1.4,0,2.1c-0.01,0.56-0.37,0.9-0.91,0.89
				c-0.54-0.01-0.85-0.34-0.86-0.91c0-0.38,0-0.76,0-1.14c0-0.35,0-0.7,0-1.06c-0.18,0-0.34,0-0.51,0c0,0.08,0,0.14,0,0.2
				c0,0.7,0,1.4,0,2.1C101.91,403.1,102.67,403.51,103.43,403.36z"/>
			<path class="st4" d="M91.16,402.88c-0.59,0.16-1.14,0.09-1.63-0.34c-0.11,0.12-0.22,0.23-0.34,0.36c0.73,0.55,1.5,0.63,2.31,0.33
				c0.45-0.17,0.66-0.59,0.59-1.08c-0.06-0.44-0.31-0.68-0.81-0.76c-0.33-0.05-0.66-0.06-0.99-0.12c-0.33-0.06-0.47-0.28-0.41-0.6
				c0.04-0.2,0.22-0.36,0.47-0.42c0.46-0.1,0.88-0.01,1.29,0.24c0.09-0.1,0.17-0.19,0.26-0.28c0.01-0.01,0.02-0.03,0.04-0.06
				c-0.51-0.43-1.56-0.51-2.11-0.17c-0.34,0.22-0.52,0.61-0.44,0.99c0.08,0.41,0.34,0.65,0.77,0.72c0.27,0.04,0.55,0.06,0.82,0.08
				c0.44,0.03,0.67,0.23,0.63,0.6C91.58,402.65,91.4,402.81,91.16,402.88z"/>
			<path class="st4" d="M96.4,400.45c0,0.68,0,1.35,0,2.03c0,0.4,0.23,0.75,0.59,0.83c0.21,0.05,0.44,0.05,0.66,0.07
				c0-0.17,0-0.3,0-0.46c-0.09,0-0.17,0-0.25,0c-0.31-0.01-0.49-0.18-0.49-0.49c0-0.71,0-1.43,0-2.14c0-0.02,0.01-0.05,0.02-0.09
				c0.24,0,0.48,0,0.71,0c0-0.14,0-0.25,0-0.39c-0.25,0-0.49,0-0.75,0c0-0.38,0-0.73,0-1.09c-0.18,0-0.33,0-0.51,0
				c0,0.37,0,0.72,0,1.09c-0.16,0-0.29,0-0.44,0c0,0.14,0,0.26,0,0.4c0.15,0,0.29,0,0.44,0C96.4,400.31,96.4,400.38,96.4,400.45z"/>
			<path class="st4" d="M116.94,403.35c0-1.19,0-2.36,0-3.53c-0.17,0-0.33,0-0.49,0c0,1.18,0,2.35,0,3.53
				C116.62,403.35,116.77,403.35,116.94,403.35z"/>
			<path class="st4" d="M116.97,398.21c-0.19,0-0.37,0-0.56,0c0,0.19,0,0.38,0,0.57c0.19,0,0.38,0,0.56,0
				C116.97,398.58,116.97,398.39,116.97,398.21z"/>
		</g>
	</g>
	<g>
		<path class="st45" d="M51.66,292.69c-0.53-1.38-1.1-2.64-1.5-3.95c-0.6-1.97-0.82-4.01-0.78-6.09c0.06-3.21,1.24-5.96,3.2-8.42
			c1.97-2.47,4.52-4.29,7.02-6.16c0.32-0.24,0.63-0.5,1.11-0.88c-1.52,0-2.82,0-4.13,0c-5.58,0-11.16,0.02-16.74-0.02
			c-0.67,0-0.94,0.26-1.11,0.81c-0.79,2.56-1.17,5.19-1.03,7.87c0.2,3.76,1.17,7.3,3.29,10.43c2.47,3.64,5.79,6.27,9.86,7.94
			c2.56,1.05,5.24,1.54,7.99,1.57c4.71,0.04,9-1.31,12.85-4.03c2.22-1.57,4.07-3.49,5.59-5.74c0.17-0.25,0.51-0.51,0.79-0.52
			c1.26-0.05,2.52-0.03,3.78-0.02c0.08,0,0.17,0.07,0.29,0.12c-0.05,0.22-0.1,0.42-0.15,0.67c0.77,0.08,0.75,0.44,0.42,1.02
			c-2.85,5.02-6.84,8.78-12.1,11.2c-4.14,1.91-8.5,2.65-13.01,2.23c-6.58-0.61-12.21-3.33-16.73-8.19
			c-3.15-3.39-5.38-7.31-6.64-11.76c-0.92-3.25-1.15-6.58-0.76-9.92c0.33-2.86,1.15-5.62,2.39-8.24c0.27-0.58,0.61-0.81,1.27-0.8
			c9.63,0.02,19.27,0.02,28.9,0.03c0.47,0,0.76-0.16,0.99-0.57c0.81-1.43,1.2-2.94,1.16-4.58c-0.01-0.41,0.21-0.82,0.33-1.24
			c0.31,0.3,0.68,0.57,0.92,0.92c2.06,2.94,1.59,7.08-0.65,10.09c-1.87,2.51-4.21,4.55-6.49,6.65c-2.5,2.3-4.94,4.64-6.84,7.48
			c-2.1,3.13-3.23,6.56-3.19,10.35c0,0.48,0.02,0.96,0.02,1.44C51.97,292.44,51.88,292.49,51.66,292.69z"/>
		<path class="st46" d="M36.01,260.52c1.04-1.76,2.15-3.14,3.37-4.44c2.53-2.69,5.48-4.77,8.88-6.18c1.32-0.55,2.74-0.86,4.11-1.27
			c2.75-0.83,5.59-0.85,8.41-0.67c2.95,0.19,5.81,0.86,8.56,2.08c3.37,1.5,6.3,3.56,8.8,6.24c2.77,2.99,4.75,6.47,5.89,10.37
			c0.88,3.03,1.22,6.15,0.93,9.31c-0.23,2.59-0.73,5.13-1.75,7.54c-0.19,0.44-0.43,0.58-0.9,0.57c-5.65-0.02-11.31-0.01-16.96-0.01
			c-3.16,0-6.31,0.01-9.47-0.01c-0.43,0-0.74,0.09-0.96,0.48c-0.48,0.83-0.97,1.65-1.47,2.47c-0.04,0.07-0.14,0.11-0.41,0.11
			c0.09-0.48,0.15-0.97,0.29-1.43c1.09-3.81,3.2-6.9,6.33-9.4c2.69-2.15,5.22-4.52,7.73-6.89c0.82-0.78,1.39-1.83,2-2.81
			c0.42-0.66,0.36-0.69,1.34-0.71c-0.09,0.62-0.15,1.23-0.26,1.83c-0.63,3.6-2.61,6.3-5.58,8.36c-1.6,1.11-3.14,2.3-4.7,3.45
			c0.02,0.06,0.03,0.13,0.05,0.19c0.37,0,0.74,0,1.11,0c5.8,0,11.6-0.01,17.4,0c0.49,0,0.71-0.09,0.82-0.63
			c0.5-2.47,0.82-4.92,0.48-7.47c-0.35-2.65-1.02-5.18-2.23-7.55c-2.16-4.24-5.37-7.46-9.64-9.62c-2.24-1.13-4.59-1.86-7.08-2.24
			c-2.52-0.38-4.94-0.1-7.37,0.5c-4.69,1.16-8.57,3.6-11.63,7.34c-0.16,0.19-0.4,0.45-0.61,0.46
			C39.75,260.53,37.98,260.52,36.01,260.52z"/>
	</g>
	<path class="st47" d="M481.57,281.43c4.84-9.32,11.01-17.41,17.32-25.49c-0.39,0.35-0.78,0.71-1.17,1.06
		c-7.53,6.57-14.01,14.04-19.16,22.62c-0.6,1-1.21,1.39-2.4,1.1c-2.02-0.49-4.08-0.82-6.39-1.27c8.28-9.02,17.11-16.95,26.94-23.82
		c-2.25,1.21-4.54,2.37-6.76,3.64c-8.49,4.87-15.98,11.07-23.16,17.65c-0.93,0.85-1.64,0.92-2.76,0.4c-2.79-1.33-5.45-2.82-7.58-5.1
		c-3.53-3.78-3.46-7.8,0.29-11.36c3.47-3.3,7.81-4.98,12.34-6.14c12.71-3.26,25.31-3.09,37.7,1.52c3.21,1.19,6.16,2.89,8.4,5.6
		c2.06,2.49,2.47,5.16,1.05,8.14c-2.52,5.29-6.96,8.15-12.31,9.82c-5.88,1.83-11.94,2.19-18.05,1.9
		C484.52,281.62,483.19,281.52,481.57,281.43z M496.13,254.52c-6.44-1.05-12.84-1.14-19.23-0.27c-4.33,0.58-8.56,1.59-12.33,3.97
		c-2.36,1.49-4.27,3.4-5.33,6.03c-0.69,1.72-0.32,3.17,0.99,4.28c1.66,1.41,3.31,1.66,4.92,0.75c7.86-4.46,15.84-8.7,24.23-12.12
		C491.61,256.26,493.88,255.4,496.13,254.52z M490.82,274.92c1.16,0.05,1.84,0.21,2.47,0.09c3.33-0.6,6.73-1.01,9.96-1.98
		c2.33-0.7,4.58-1.95,6.61-3.33c2.5-1.71,2.91-3.91,1.66-6.69c-1.79-4.01-5.16-6.03-9.25-7.01c-0.36-0.09-1.04,0.34-1.28,0.72
		c-1.72,2.71-3.45,5.41-5.01,8.21C494.23,268.1,492.65,271.36,490.82,274.92z"/>
	<g>
		<path class="st48" d="M434.83,404.27l0.57-3.25c0,0-7.06-1.43-10.6,2.2c-3.53,3.63-3.15,9.64-2.1,11.46
			c1.05,1.81,3.44,4.3,8.5,4.49l4.2-0.1v-3.06c0,0-4.77,0-5.44-0.48s-3.53-2-2.77-6.78c0.76-4.77,5.06-4.96,5.63-4.96
			C433.39,403.8,434.83,404.27,434.83,404.27z"/>
		<path class="st48" d="M436.93,400.84l5.06-0.1l2.39,13.18l3.34-12.98l4.2-0.1c0,0,3.06,13.94,3.15,13.65
			c0.1-0.29,2.2-13.75,2.2-13.75l5.16,0.1l-4.39,18.43l-5.63-0.1l-2.77-11.46l-2.96,11.55l-5.06-0.1L436.93,400.84z"/>
		<path class="st48" d="M478.74,404.66c-1.43-2.58-4.68-3.82-8.31-3.72c-3.63,0.1-6.87,0.38-6.87,0.38l0.1,17.38l-0.1,0.67
			c0,0,7.45-0.1,7.73-0.1c0.29,0,5.16-0.67,6.68-3.53C479.51,412.87,480.17,407.23,478.74,404.66z M473.49,414.59
			c-0.95,1.72-4.68,2.1-4.68,2.1l-0.19-12.7l2.2-0.29c3.53,0.86,3.15,3.34,3.34,4.49C474.35,409.33,474.45,412.87,473.49,414.59z"/>
		<polygon class="st49" points="482.37,395.97 477.69,400.17 487.53,410 478.36,419.45 482.47,424.04 496.21,410.1 		"/>
	</g>
	<g>
		<path class="st50" d="M154.32,123.43c-13.72,0-24.84,11.12-24.84,24.84c0,13.72,11.12,24.84,24.84,24.84
			c13.72,0,24.84-11.12,24.84-24.84C179.16,134.55,168.04,123.43,154.32,123.43z M135.75,149.76c-0.49,0.01-0.89-0.37-0.9-0.86
			c-0.01-0.49,0.37-0.89,0.86-0.9c0.49-0.01,0.89,0.37,0.9,0.86C136.62,149.34,136.24,149.74,135.75,149.76z M164.56,136.36
			c0.53-0.51,1.37-0.5,1.89,0.03c0.51,0.53,0.5,1.37-0.03,1.89c-0.53,0.51-1.37,0.5-1.89-0.03
			C164.02,137.72,164.03,136.87,164.56,136.36z M167.89,147.9c0.02,0.83-0.64,1.53-1.47,1.55c-0.83,0.02-1.53-0.64-1.55-1.47
			c-0.02-0.83,0.64-1.53,1.47-1.55C167.17,146.41,167.87,147.06,167.89,147.9z M161.94,138.79c0.6-0.58,1.56-0.56,2.14,0.04
			c0.58,0.6,0.56,1.56-0.04,2.14c-0.6,0.58-1.56,0.56-2.14-0.04C161.32,140.33,161.34,139.37,161.94,138.79z M163.95,149.76
			c-0.53,1.14-1.88,1.63-3.01,1.1c-1.14-0.53-1.63-1.88-1.1-3.01c0.53-1.14,1.88-1.63,3.01-1.1
			C163.99,147.27,164.48,148.62,163.95,149.76z M157.46,141.4c0.87-0.9,2.31-0.92,3.21-0.05c0.9,0.87,0.92,2.31,0.05,3.21
			c-0.87,0.9-2.31,0.92-3.21,0.05S156.59,142.3,157.46,141.4z M154.22,128.79c0.49,0,0.88,0.39,0.88,0.88s-0.39,0.88-0.88,0.88
			c-0.49,0-0.88-0.39-0.88-0.88S153.73,128.79,154.22,128.79z M154.22,131.29c0.74,0,1.33,0.6,1.33,1.33s-0.6,1.33-1.33,1.33
			s-1.33-0.6-1.33-1.33S153.48,131.29,154.22,131.29z M154.32,134.69c0.83,0,1.51,0.68,1.51,1.51c0,0.84-0.68,1.51-1.51,1.51
			c-0.83,0-1.51-0.68-1.51-1.51C152.81,135.37,153.48,134.69,154.32,134.69z M154.22,138.74c1.25,0,2.27,1.02,2.27,2.27
			c0,1.25-1.02,2.27-2.27,2.27c-1.25,0-2.27-1.02-2.27-2.27C151.95,139.75,152.96,138.74,154.22,138.74z M150.15,140.85
			c1.14,0.53,1.63,1.88,1.1,3.01c-0.53,1.14-1.88,1.63-3.01,1.1c-1.14-0.53-1.63-1.88-1.1-3.01
			C147.67,140.82,149.02,140.33,150.15,140.85z M149.57,148.83c-0.43,1.18-1.73,1.78-2.91,1.35c-1.18-0.43-1.78-1.73-1.35-2.91
			s1.73-1.78,2.91-1.35C149.4,146.35,150,147.66,149.57,148.83z M147.13,138.46c0.57,0.61,0.55,1.56-0.06,2.14
			c-0.61,0.57-1.56,0.55-2.14-0.06c-0.57-0.61-0.55-1.56,0.06-2.14C145.6,137.83,146.55,137.86,147.13,138.46z M144.47,136.06
			c0.51,0.54,0.48,1.38-0.05,1.89c-0.54,0.51-1.38,0.48-1.89-0.05c-0.51-0.54-0.48-1.38,0.05-1.89
			C143.12,135.5,143.96,135.52,144.47,136.06z M143.77,148.56c0.02,0.83-0.64,1.53-1.47,1.55c-0.83,0.02-1.53-0.64-1.55-1.47
			c-0.02-0.83,0.64-1.53,1.47-1.55C143.05,147.06,143.75,147.72,143.77,148.56z M140.86,134.18c0.35-0.33,0.91-0.32,1.24,0.03
			c0.33,0.35,0.32,0.91-0.03,1.24s-0.91,0.32-1.24-0.03C140.49,135.08,140.51,134.52,140.86,134.18z M138.73,150.13
			c-0.74,0.02-1.35-0.56-1.37-1.3c-0.02-0.74,0.56-1.35,1.3-1.37c0.74-0.02,1.35,0.56,1.37,1.3
			C140.04,149.5,139.46,150.11,138.73,150.13z M141.63,161.91c-0.35,0.34-0.91,0.33-1.24-0.02c-0.34-0.35-0.33-0.91,0.02-1.24
			s0.91-0.33,1.24,0.02C141.99,161.01,141.98,161.57,141.63,161.91z M144.08,160.17c-0.53,0.51-1.37,0.5-1.89-0.03
			c-0.51-0.53-0.5-1.37,0.03-1.89c0.53-0.51,1.37-0.5,1.89,0.03C144.62,158.82,144.61,159.66,144.08,160.17z M146.7,157.74
			c-0.6,0.58-1.56,0.56-2.14-0.04c-0.58-0.6-0.56-1.56,0.04-2.14c0.6-0.58,1.56-0.56,2.14,0.04
			C147.32,156.21,147.3,157.16,146.7,157.74z M150.97,154.61c-0.87,0.9-2.31,0.92-3.21,0.05c-0.9-0.87-0.92-2.31-0.05-3.21
			c0.87-0.9,2.31-0.92,3.21-0.05C151.83,152.27,151.85,153.71,150.97,154.61z M154.42,167.75c-0.49,0-0.88-0.39-0.88-0.88
			s0.39-0.88,0.88-0.88c0.49,0,0.88,0.39,0.88,0.88S154.91,167.75,154.42,167.75z M154.42,165.24c-0.74,0-1.33-0.6-1.33-1.33
			s0.6-1.33,1.33-1.33c0.74,0,1.33,0.6,1.33,1.33S155.16,165.24,154.42,165.24z M154.32,161.84c-0.83,0-1.51-0.68-1.51-1.51
			s0.68-1.51,1.51-1.51c0.83,0,1.51,0.68,1.51,1.51S155.15,161.84,154.32,161.84z M154.22,157.27c-1.25,0-2.27-1.02-2.27-2.27
			c0-1.25,1.02-2.27,2.27-2.27c1.25,0,2.27,1.02,2.27,2.27C156.49,156.25,155.47,157.27,154.22,157.27z M154.42,151.63
			c-1.81,0-3.27-1.46-3.27-3.27c0-1.81,1.46-3.27,3.27-3.27c1.81,0,3.27,1.46,3.27,3.27C157.69,150.17,156.23,151.63,154.42,151.63z
			 M158.68,155.4c-1.18-0.43-1.78-1.73-1.35-2.91c0.43-1.18,1.73-1.78,2.91-1.35c1.18,0.43,1.78,1.73,1.35,2.91
			C161.17,155.22,159.86,155.82,158.68,155.4z M161.51,158.07c-0.57-0.61-0.55-1.56,0.06-2.14c0.61-0.57,1.56-0.55,2.14,0.06
			c0.57,0.61,0.55,1.56-0.06,2.14C163.04,158.71,162.08,158.68,161.51,158.07z M164.17,160.48c-0.51-0.54-0.48-1.38,0.05-1.89
			c0.54-0.51,1.38-0.48,1.89,0.05c0.51,0.54,0.48,1.38-0.05,1.89C165.52,161.04,164.68,161.01,164.17,160.48z M167.78,162.35
			c-0.35,0.33-0.91,0.32-1.24-0.03c-0.33-0.35-0.32-0.91,0.03-1.24c0.35-0.33,0.91-0.32,1.24,0.03
			C168.15,161.46,168.13,162.02,167.78,162.35z M168.23,135.89c-0.35,0.34-0.91,0.33-1.24-0.02s-0.33-0.91,0.02-1.24
			c0.35-0.34,0.91-0.33,1.24,0.02C168.59,135,168.58,135.55,168.23,135.89z M169.99,149.07c-0.74,0.02-1.35-0.56-1.37-1.3
			c-0.02-0.74,0.56-1.35,1.3-1.37c0.74-0.02,1.35,0.56,1.37,1.3C171.3,148.44,170.72,149.05,169.99,149.07z M172.94,148.54
			c-0.49,0.01-0.89-0.37-0.9-0.86c-0.01-0.49,0.37-0.89,0.86-0.9c0.49-0.01,0.89,0.37,0.9,0.86
			C173.8,148.12,173.42,148.53,172.94,148.54z"/>
		<g>
			<path class="st4" d="M154.48,171.53c-12.79,0-23.19-10.4-23.19-23.19c0-12.79,10.4-23.19,23.19-23.19
				c12.79,0,23.19,10.4,23.19,23.19C177.67,161.13,167.27,171.53,154.48,171.53z M154.48,125.64c-12.52,0-22.7,10.19-22.7,22.7
				c0,12.52,10.19,22.7,22.7,22.7s22.7-10.19,22.7-22.7C177.19,135.82,167,125.64,154.48,125.64z"/>
		</g>
	</g>
	<linearGradient id="SVGID_31_" gradientUnits="userSpaceOnUse" x1="210.0549" y1="478.1526" x2="373.6878" y2="478.1526">
		<stop  offset="0" style="stop-color:#BE3084"/>
		<stop  offset="0.4714" style="stop-color:#DC7351"/>
		<stop  offset="1" style="stop-color:#FDBF17"/>
	</linearGradient>
	<path class="st51" d="M354.41,495.5c-23.24-1.72-26.4,16.5-48.93,12.48c-0.06-0.04-10.47-2.73-4.92-15.27
		c5.72-12.01,20.7-17.97,29.6-23.76c15.99-10.49,20.21-26.19,16.03-36.76c-5.55-14.03-21.55-19.27-34.82-15.75
		c-6.44,1.71-14.42,5.74-22.81,16.79c-7.43,11.79-22.86,11.51-35.27,7.92c-12.51-3.62-18.54-6.48-30.27-2.33
		c-11.33,4.46-15.7,13.69-11.24,25.01c4.46,11.33,13.5,15.25,26.25,13.07c2.98-0.51,14.05-3.74,20.25-5.93
		c25.11-7.89,24.89,3.59,22.53,9.61c-2.62,6.67-8.93,10.72-17.29,19.3c-7.82,7.96-9.76,19.25-3.8,25.47
		c9.79,10.22,26.47,5.38,37.41,4.14c19.2-1.78,26.69,5.21,34.48,8.12c8.07,3.01,14.09,3.74,19.8,3.08
		c13.77-1.58,21.69-8.79,22.26-21.59C374.21,506.55,367.18,496.45,354.41,495.5z"/>
</g>
</svg>
