<?xml version="1.0" encoding="utf-8"?>
<!-- Generator: Adobe Illustrator 23.0.0, SVG Export Plug-In . SVG Version: 6.00 Build 0)  -->
<svg version="1.1" id="Layer_1" xmlns="http://www.w3.org/2000/svg" xmlns:xlink="http://www.w3.org/1999/xlink" x="0px" y="0px"
	 viewBox="0 0 368.65 442.07" style="enable-background:new 0 0 368.65 442.07;" xml:space="preserve">
<style type="text/css">
	.st0{opacity:0.2;fill:url(#SVGID_1_);}
	.st1{fill:url(#SVGID_2_);}
	.st2{fill:none;stroke:#D3BACB;stroke-width:1.5;stroke-linecap:round;stroke-miterlimit:10;stroke-dasharray:3;}
	.st3{opacity:0.5;fill:none;stroke:#FFFFFF;stroke-width:4;stroke-miterlimit:10;}
	.st4{fill:#BE3084;}
	.st5{fill:#FDBF17;}
	.st6{fill:none;stroke:#000000;stroke-width:5;stroke-miterlimit:10;}
	.st7{fill:none;stroke:#FFFFFF;stroke-width:1.5;stroke-miterlimit:10;}
	.st8{fill:#5BBCE6;}
	.st9{fill:#9618CC;}
</style>
<g>
	<g>
		
			<linearGradient id="SVGID_1_" gradientUnits="userSpaceOnUse" x1="-62.2066" y1="264.4511" x2="-46.214" y2="632.0847" gradientTransform="matrix(0.9222 -0.3866 0.3866 0.9222 59.2793 -191.8471)">
			<stop  offset="0" style="stop-color:#FDBF17"/>
			<stop  offset="0.9982" style="stop-color:#9618CC"/>
		</linearGradient>
		<path class="st0" d="M49.67,394.79c5.45,23.33,47.31,84.23,115.94,15.68c76.58-76.5,89.13-70.33,121.54-77.76
			c45.82-10.5,109.7-54.77,67.95-159.52S236.15,43.7,176.62,81.68c0,0-30.31,19.52-30.77,54.94s2.61,164.06-50.99,194.07
			C61.58,345.9,42.13,362.55,49.67,394.79z"/>
		
			<linearGradient id="SVGID_2_" gradientUnits="userSpaceOnUse" x1="459.3763" y1="3278.6438" x2="88.374" y2="3128.0461" gradientTransform="matrix(0.9901 -0.1406 0.1406 0.9901 -553.9461 -2939.033)">
			<stop  offset="0" style="stop-color:#FDBF17"/>
			<stop  offset="0.9982" style="stop-color:#9618CC"/>
		</linearGradient>
		<path class="st1" d="M207.27,390.19c-19.65-24.95-40.3-56.92-78.38-72.99C90.81,301.12,3.64,248.17,0.08,160.08
			C-3.42,73.55,115.72,17.09,156.96,10.71c71.81-11.09,146.3,15.07,170.56,129.71c27.21,128.59-16.31,205.83-25.25,225.53
			C283.19,408.04,229.76,418.74,207.27,390.19z"/>
	</g>
	<path class="st2" d="M164.92,176.44c0,0-20-72,53.68-112.42"/>
	<g>
		<path class="st3" d="M57.58,298.86c0.24-1.93,0.42-3.87,0.75-5.79c2.31-13.6,8.83-24.77,19.61-33.37c2.54-2.02,5.43-3.6,8.15-5.38
			c0.1-0.07,0.2-0.14,0.24-0.16c-10.27-13.39-11.96-27.44-2.53-41.76c6.72-10.2,16.77-14.78,28.91-14.65
			c0.08,0.08,0.15,0.17,0.23,0.25c-0.54,0.84-1.04,1.71-1.64,2.51c-2.52,3.39-4.48,7.08-5.83,11.07c-0.21,0.62-0.62,0.81-1.14,1.01
			c-6.18,2.43-11.13,6.33-13.63,12.59c-2.9,7.24-1.06,13.81,3.78,19.66c1.91,2.3,4.35,3.94,7.07,5.17c2.17,0.99,3.64,2.58,4.09,4.98
			c0.63,3.39-1.6,6.72-5.13,7.55c-6.3,1.49-11.99,4.23-16.93,8.42c-7.72,6.56-12.44,14.87-13.86,24.91
			c-0.52,3.66-0.48,7.39-0.71,11.22c3.01,0,5.78,0,8.5,0c-0.47,4.02-0.93,7.94-1.4,12c-0.19,0-0.53,0-0.87,0c-3.43,0-6.85,0-10.28,0
			c-3.94,0-6.17-1.69-7.28-5.48c-0.02-0.06-0.07-0.1-0.11-0.15C57.58,308.59,57.58,303.73,57.58,298.86z"/>
		<path class="st3" d="M190.45,197.95c8.26-0.96,21.46,2.81,29.52,14.73c7.58,11.21,8.43,28.61-2.96,41.41
			c0.92,0.53,1.85,1.02,2.74,1.58c14.41,8.97,22.95,21.84,25.52,38.62c0.37,2.43,0.48,4.9,0.54,7.36c0.09,3.62,0.06,7.24,0.01,10.85
			c-0.05,3.56-2.81,6.46-6.36,6.55c-4.09,0.1-8.19,0.02-12.2,0.02c-0.46-3.97-0.91-7.88-1.37-11.91c3.02,0,6.16,0,9.34,0
			c0-2.83,0.17-5.55-0.03-8.24c-0.74-9.73-4.48-18.18-11.28-25.22c-5.46-5.65-12.07-9.29-19.69-11.13
			c-2.95-0.71-5.15-3.06-5.43-5.87c-0.27-2.78,1.34-5.38,4.09-6.66c6.95-3.23,11.03-8.62,12.11-16.23c0.7-4.95-0.91-9.21-4.05-12.97
			c-3.19-3.82-7.17-6.53-11.83-8.25c-0.66-0.24-1.04-0.58-1.26-1.26c-1.25-3.76-3.11-7.21-5.42-10.43
			C191.77,199.98,191.16,199.01,190.45,197.95z"/>
		<path class="st4" d="M208.86,328.23c-38.11,0-76.1,0-114.08,0c-0.06-0.07-0.13-0.12-0.13-0.17c-0.19-7.5-0.05-14.96,2-22.28
			c5.92-21.11,23.32-37.1,44.86-41.08c30.25-5.59,59.81,14.32,66.13,44.51C208.95,315.48,208.94,321.79,208.86,328.23z"/>
		<path class="st5" d="M180.93,224.67c-0.02,16.13-13.1,29.24-29.17,29.24c-16.1,0-29.25-13.18-29.22-29.31
			c0.03-16.14,13.23-29.32,29.29-29.25C167.92,195.42,180.95,208.54,180.93,224.67z"/>
		<path class="st6" d="M90.43,339.39c-0.02-0.02-0.04-0.07-0.06-0.07c-3.73-0.65-6.07-3.63-5.91-7.94
			c0.19-5.43-0.02-10.89,0.22-16.32c0.46-10.13,3.27-19.65,8.22-28.49c7.62-13.62,18.63-23.5,32.99-29.64
			c0.23-0.1,0.47-0.21,0.7-0.32c0.05-0.02,0.08-0.08,0.15-0.15c-10.4-8.75-15.81-19.87-15.28-33.54
			c0.42-10.76,4.65-19.98,12.43-27.44c15.8-15.15,40.36-15.03,56.05,0.34c8.65,8.47,12.69,18.95,12.07,31.03
			c-0.62,12.11-6.01,21.9-15.24,29.57c2.61,1.31,5.28,2.48,7.78,3.93c17.54,10.19,28.6,25.18,33.03,45.01
			c1.05,4.7,1.44,9.48,1.42,14.3c-0.01,4.07,0,8.13,0,12.2c0,4.18-1.78,6.44-5.86,7.43c-0.06,0.01-0.1,0.07-0.15,0.11
			C172.13,339.39,131.28,339.39,90.43,339.39z M208.86,328.23c0.08-6.44,0.09-12.76-1.22-19.02c-6.33-30.19-35.88-50.1-66.13-44.51
			c-21.53,3.98-38.94,19.96-44.86,41.08c-2.05,7.32-2.19,14.77-2,22.28c0,0.05,0.07,0.1,0.13,0.17
			C132.76,328.23,170.75,328.23,208.86,328.23z M180.93,224.67c0.02-16.13-13-29.25-29.1-29.32c-16.06-0.07-29.26,13.11-29.29,29.25
			c-0.03,16.13,13.11,29.31,29.22,29.31C167.82,253.91,180.91,240.8,180.93,224.67z"/>
	</g>
	<g>
		<path class="st7" d="M314.47,45.26c-0.39-2.6-0.78-5.2-1.21-7.8c-1.34-8.24-2.73-16.76-6.31-24.72c-1.27-2.82-3.2-4.17-6.26-4.39
			c-6.19-0.44-12.45,0.48-19.7,2.91c-1.22,0.41-2.76,0.42-3.84,0.03c-4.69-1.7-9.38-3.59-13.94-5.63
			c-6.74-3.01-13.59-3.06-20.36-0.16c-0.2,0.08-0.4,0.18-0.6,0.27c-0.61,0.29-1.25,0.59-1.69,0.54c-3.46-0.39-6.98-0.44-10.38-0.5
			c-5.57-0.09-11.33-0.18-16.85-1.74c-3.61-1.02-7.36-1.66-10.98-2.29c-1.67-0.29-3.35-0.57-5.01-0.9
			c-1.59-0.31-2.86-0.12-3.76,0.55c-0.82,0.61-1.31,1.59-1.46,2.91c-1.38,12.05-2.73,24.1-4.08,36.15l-1.18,10.48
			c-0.18,1.62,0.12,2.9,0.91,3.82c0.8,0.94,2.05,1.44,3.72,1.49c1.53,0.04,3.06,0.05,4.59,0.04c2.1,0,4.28,0,6.4,0.12
			c4.39,0.25,8.97-0.32,10.18-6.22l0,0c0.57,0.49,1.17,0.99,1.76,1.49c2.54,2.13,5.08,4.27,7.62,6.41
			c6.15,5.19,12.51,10.55,18.86,15.7c2.88,2.34,5.8,3.51,8.72,3.51c2.08,0,4.17-0.59,6.25-1.78c0.4-0.23,1.16-0.28,1.8-0.13
			c4.36,1.03,7.95,0.13,10.98-2.78c0.33-0.31,1.03-0.55,1.67-0.56c4.27-0.08,7.43-1.67,9.65-4.89c0.3-0.43,0.82-0.84,1.3-1
			c5.76-2.01,7.53-4.54,7.57-10.82c0.01-0.82,0.25-1.48,0.65-1.77c0.26-0.18,0.6-0.2,1-0.05c5.25,1.93,10.62,1.72,15.82,1.52
			c1.15-0.04,2.3-0.09,3.44-0.11c1.2-0.02,2.31-0.56,3.39-1.07c0.44-0.21,0.89-0.43,1.33-0.6l0.55-0.21v-4.15L314.47,45.26z"/>
		<path d="M308.93,44.67c-0.36-2.35-0.72-4.71-1.11-7.05c-1.24-7.45-2.52-15.15-5.82-22.35c-1.17-2.55-2.95-3.77-5.77-3.97
			c-5.7-0.4-11.47,0.44-18.15,2.63c-1.12,0.37-2.54,0.38-3.54,0.03c-4.32-1.54-8.64-3.25-12.85-5.09
			c-6.21-2.72-12.52-2.77-18.75-0.14c-0.18,0.08-0.37,0.16-0.55,0.25c-0.57,0.26-1.15,0.53-1.56,0.49c-3.19-0.35-6.43-0.4-9.56-0.45
			c-5.13-0.08-10.43-0.17-15.52-1.58c-3.32-0.92-6.78-1.5-10.12-2.07c-1.54-0.26-3.08-0.52-4.61-0.81c-1.46-0.28-2.63-0.11-3.46,0.5
			c-0.75,0.55-1.21,1.44-1.35,2.63c-1.27,10.9-2.51,21.8-3.76,32.7l-1.08,9.48c-0.17,1.46,0.11,2.62,0.84,3.46
			c0.74,0.85,1.89,1.3,3.42,1.34c1.41,0.04,2.82,0.04,4.23,0.04c1.94,0,3.94,0,5.89,0.11c4.04,0.23,8.27-0.29,9.38-5.62l0,0
			c0.53,0.44,1.07,0.89,1.62,1.34c2.34,1.93,4.68,3.86,7.02,5.8c5.66,4.69,11.52,9.54,17.38,14.2c2.65,2.11,5.34,3.17,8.03,3.17
			c1.92,0,3.84-0.54,5.76-1.61c0.37-0.21,1.07-0.26,1.66-0.12c4.01,0.94,7.32,0.11,10.12-2.52c0.3-0.28,0.95-0.5,1.54-0.51
			c3.94-0.07,6.85-1.51,8.89-4.42c0.28-0.39,0.76-0.76,1.2-0.91c5.31-1.82,6.94-4.11,6.98-9.79c0.01-0.74,0.23-1.34,0.6-1.6
			c0.24-0.17,0.55-0.18,0.92-0.05c4.84,1.75,9.78,1.56,14.57,1.38c1.06-0.04,2.12-0.08,3.17-0.1c1.11-0.02,2.13-0.5,3.12-0.97
			c0.41-0.19,0.82-0.39,1.23-0.54l0.51-0.19V48L308.93,44.67z"/>
		<path class="st8" d="M202.76,46.67c1.34,0,2.61,0.01,3.89,0.06c1.31,0.06,1.78-0.33,2.15-1.69c0.89-3.22,1.81-6.43,2.74-9.65
			c1.19-4.14,2.42-8.42,3.56-12.65c0.63-2.34,1.08-4.73,1.56-7.25c0.18-0.93,0.36-1.88,0.55-2.85l-15.59-3.08l-4.31,37.13
			c0.91,0,1.77-0.01,2.59-0.01C200.91,46.68,201.85,46.67,202.76,46.67z"/>
		<path class="st9" d="M282.78,48.28L282,47.45c-1.37-1.43-2.67-2.83-3.93-4.19c-2.71-2.92-5.27-5.68-8-8.21
			c-3.18-2.94-6.58-5.76-9.87-8.48c-1.65-1.36-3.29-2.73-4.92-4.11c-1.31-1.11-2.54-1.12-4.48-0.73c-4.33,0.87-7.06,2.62-8.85,5.68
			c-0.47,0.81-1.37,1.7-2.32,1.89c-1.74,0.34-3.67,0.72-5.36,0.22c-1.34-0.4-1.27-3.9-1-4.99c1.3-5.27,4.9-9.74,9.86-12.26
			c5.04-2.56,10.88-2.83,16.01-0.73c2.21,0.9,4.43,1.78,6.65,2.65c2.61,1.03,5.31,2.09,7.95,3.19c0.88,0.37,2.07,1.18,2.49,2.24
			c2.92,7.4,6,15.28,8.77,23.21c0.34,0.98-0.31,2.03-1,3.13c-0.27,0.43-0.55,0.88-0.74,1.29L282.78,48.28z"/>
		<path class="st8" d="M281.2,17.6l1.75,4.92c2.67,7.5,5.18,14.59,7.75,21.64c0.16,0.45,0.8,1.02,1.04,1.05
			c2.8,0.11,5.6,0.09,8.56,0.08c0.71,0,1.42-0.01,2.14-0.01c-0.09-0.71-0.17-1.41-0.25-2.11c-0.25-2.18-0.49-4.23-0.94-6.26
			c-1.1-4.95-2.35-9.96-3.56-14.8c-0.38-1.53-0.76-3.06-1.14-4.59c-0.28-1.14-0.92-1.58-2.08-1.45L281.2,17.6z"/>
		<path class="st5" d="M223.88,13.96l-1.17,4.47c-1.87,7.12-3.81,14.48-5.64,21.75c-0.04,0.2,0.23,0.88,0.56,1.15
			c8.38,6.98,17.34,14.39,27.39,22.64c1.35,1.11,2.75,1.58,4.52,1.49c-0.53-0.51-1.05-1.01-1.55-1.5c-2-1.92-3.88-3.74-5.72-5.57
			c-1-1-1.45-2.11-1.28-3.14c0.1-0.62,0.49-1.48,1.74-2.08c1.24-0.6,3.35,0.19,4.26,0.99c1.71,1.51,3.36,3.12,4.95,4.68
			c1.47,1.44,3,2.93,4.55,4.32c1.61,1.44,3.03,1.62,4.61,0.52l-2.46-2.23c-2.78-2.52-5.55-5.04-8.31-7.57
			c-0.89-0.82-1.81-1.81-1.85-3.03c-0.03-0.76,0.29-1.49,0.93-2.18c2.21-2.34,4.31-0.43,5.44,0.6c3.78,3.45,7.82,7.11,11.94,10.66
			c0.85,0.73,1.59,1.04,2.28,0.96c0.75-0.09,1.54-0.65,2.4-1.7c-0.47-0.32-1-0.67-1.47-1.1l-1.55-1.42
			c-3.76-3.44-7.66-6.99-11.39-10.59c-0.93-0.9-1.33-2.47-1.3-3.55c0.01-0.54,0.41-1.03,0.75-1.35c0.48-0.45,1.24-0.92,1.9-0.9
			c1.25,0.05,2.5,0.78,3.25,1.45c2.02,1.81,4.02,3.65,6.02,5.49c2.61,2.4,5.31,4.88,8.02,7.26c0.39,0.34,1.51,0.63,2.03,0.66
			c0.64-1.12,0.95-2.23,0.75-2.72c-0.82-2-2.06-3.86-3.48-5.24c-4.4-4.28-8.96-8.55-13.37-12.68c-2.2-2.06-4.4-4.12-6.59-6.19
			c-1.86-1.76-3.29-2.08-4.96-1.11c-0.24,0.14-0.48,0.27-0.72,0.41c-0.86,0.48-1.67,0.94-2.35,1.52c-0.61,0.52-1.17,1.1-1.76,1.71
			c-0.79,0.81-1.6,1.65-2.54,2.33c-3.49,2.53-8.19,2.74-11.44,0.52c-3.11-2.13-4.1-5.98-2.65-10.3c0.84-2.5,1.98-4.82,3.19-7.28
			c0.35-0.71,0.7-1.43,1.05-2.15H223.88z"/>
	</g>
</g>
</svg>
