<?xml version="1.0" encoding="utf-8"?>
<!-- Generator: Adobe Illustrator 23.0.0, SVG Export Plug-In . SVG Version: 6.00 Build 0)  -->
<svg version="1.1" id="Layer_1" xmlns="http://www.w3.org/2000/svg" xmlns:xlink="http://www.w3.org/1999/xlink" x="0px" y="0px"
	 viewBox="0 0 412.17 469.79" style="enable-background:new 0 0 412.17 469.79;" xml:space="preserve">
<style type="text/css">
	.st0{opacity:0.2;fill:url(#SVGID_1_);}
	.st1{fill:url(#SVGID_2_);}
	.st2{fill:#FFFFFF;}
	.st3{fill:#9618CC;}
	.st4{fill:#FDBF17;}
	.st5{opacity:0.7;}
	.st6{fill:#5BBCE6;}
	.st7{fill:#A9E6FC;}
	.st8{fill:#FCE6B1;}
	.st9{fill:#DFACF9;}
	.st10{fill:none;stroke:#D3BACB;stroke-width:1.5;stroke-linecap:round;stroke-miterlimit:10;stroke-dasharray:3;}
</style>
<g>
	<g>
		
			<linearGradient id="SVGID_1_" gradientUnits="userSpaceOnUse" x1="-61.3628" y1="289.5393" x2="-45.3702" y2="657.1729" gradientTransform="matrix(0.9222 -0.3866 0.3866 0.9222 54.7467 -186.9344)">
			<stop  offset="0" style="stop-color:#FDBF17"/>
			<stop  offset="0.9982" style="stop-color:#9618CC"/>
		</linearGradient>
		<path class="st0" d="M55.61,422.52c5.45,23.33,47.31,84.23,115.94,15.68c76.58-76.5,89.13-70.33,121.54-77.76
			c45.82-10.5,109.7-54.77,67.95-159.52S242.1,71.43,182.57,109.4c0,0-30.31,19.52-30.77,54.94
			c-0.47,35.41,2.61,164.06-50.99,194.07C67.53,373.62,48.08,390.27,55.61,422.52z"/>
		
			<linearGradient id="SVGID_2_" gradientUnits="userSpaceOnUse" x1="463.3932" y1="3305.666" x2="92.3909" y2="3155.0681" gradientTransform="matrix(0.9901 -0.1406 0.1406 0.9901 -555.777 -2937.4983)">
			<stop  offset="0" style="stop-color:#FDBF17"/>
			<stop  offset="0.9982" style="stop-color:#9618CC"/>
		</linearGradient>
		<path class="st1" d="M213.22,417.91c-19.65-24.95-40.3-56.92-78.38-72.99C96.75,328.85,9.58,275.9,6.02,187.8
			C2.52,101.27,121.66,44.81,162.9,38.44c71.81-11.09,146.3,15.07,170.56,129.71c27.21,128.59-16.31,205.83-25.25,225.53
			C289.14,435.77,235.7,446.46,213.22,417.91z"/>
	</g>
	<g>
		<g>
			<path class="st2" d="M175.14,222.1v124.56l-43.54-31.6l-0.26-0.19h-0.32H45.13H44.8l-0.26,0.19L1,346.66V222.1l43.64,28.36
				l0.25,0.16h0.3h85.77h0.3l0.25-0.16L175.14,222.1 M176.14,220.26l-45.18,29.36H45.18L0,220.26v128.37l45.13-32.76h85.88
				l45.13,32.76V220.26L176.14,220.26z"/>
		</g>
		<polygon class="st3" points="49.59,309.93 8.34,336 8.34,234.19 49.59,257.54 		"/>
		<polygon class="st4" points="127.49,309.93 168.73,336 168.73,234.19 127.49,257.54 		"/>
		<rect x="49.25" y="257.48" width="78.47" height="52.54"/>
		<path class="st2" d="M86.57,287.73c0.34,0.04,0.66,0.08,0.98,0.13c0.04,0.01,0.07,0.08,0.09,0.12c0.18,0.58,0.34,1.18,0.56,1.74
			c0.13,0.34,0.34,0.67,0.58,0.96c0.4,0.49,0.79,0.48,1.21,0.01c0.42-0.48,0.65-1.06,0.84-1.65c0.35-1.06,0.51-2.15,0.58-3.26
			c0.07-1.1,0.05-2.2-0.09-3.3c-0.01-0.11-0.05-0.14-0.16-0.15c-1.15-0.09-2.3-0.08-3.45,0.04c-0.09,0.01-0.17,0.02-0.27,0.04
			c-0.03,0.29-0.05,0.58-0.08,0.89c0.42,0,0.81,0,1.25,0c-0.61,0.87-1.2,1.72-1.81,2.59c-0.6-0.86-1.19-1.71-1.8-2.57
			c0.45,0,0.88,0,1.33,0c0.02-0.25,0.04-0.48,0.06-0.75c-0.3,0.08-0.59,0.14-0.86,0.22c-0.55,0.15-1.09,0.34-1.57,0.65
			c-0.21,0.13-0.41,0.29-0.58,0.48c-0.26,0.28-0.26,0.57,0,0.85c0.19,0.2,0.41,0.37,0.64,0.51c0.76,0.45,1.6,0.68,2.46,0.84
			c0.61,0.11,1.23,0.18,1.87,0.27c0-0.43,0-0.83,0-1.27c0.88,0.61,1.72,1.2,2.59,1.81c-0.86,0.6-1.71,1.2-2.58,1.8
			c0-0.46,0-0.88,0-1.33c-0.2-0.02-0.38-0.03-0.56-0.05c-1.34-0.15-2.66-0.39-3.89-0.97c-0.45-0.21-0.86-0.46-1.21-0.82
			c-0.73-0.76-0.71-1.74,0.05-2.47c0.51-0.49,1.11-0.81,1.77-1.03c0.62-0.2,1.26-0.35,1.89-0.52c0.11-0.03,0.15-0.07,0.18-0.18
			c0.2-1.02,0.46-2.02,1-2.92c0.18-0.3,0.41-0.6,0.67-0.84c0.69-0.65,1.58-0.64,2.29,0.01c0.47,0.43,0.76,0.97,1,1.54
			c0.29,0.67,0.48,1.38,0.61,2.1c0.02,0.13,0.06,0.19,0.21,0.22c1.02,0.16,2.01,0.39,2.95,0.83c0.52,0.24,1,0.53,1.37,0.97
			c0.57,0.67,0.58,1.52,0,2.18c-0.17,0.19-0.36,0.37-0.57,0.51c-0.98,0.68-2.12,0.97-3.29,1.21c0.04-0.36,0.08-0.71,0.11-1.03
			c0.51-0.16,1.02-0.28,1.5-0.47c0.4-0.15,0.77-0.37,1.14-0.59c0.15-0.09,0.27-0.23,0.38-0.37c0.19-0.24,0.19-0.48,0-0.72
			c-0.13-0.16-0.29-0.32-0.47-0.44c-0.63-0.43-1.34-0.66-2.08-0.84c-0.34-0.08-0.68-0.15-1.05-0.22c0.02,0.26,0.04,0.48,0.06,0.71
			c0.09,1.07,0.07,2.14-0.03,3.2c-0.1,1.01-0.27,2.01-0.59,2.98c-0.24,0.73-0.54,1.44-1.06,2.03c-0.34,0.39-0.75,0.66-1.29,0.69
			c-0.56,0.03-0.99-0.23-1.36-0.62c-0.42-0.44-0.7-0.98-0.92-1.54c-0.27-0.66-0.44-1.36-0.58-2.06
			C86.57,287.82,86.57,287.78,86.57,287.73z M91.13,281.3c-0.04-0.18-0.07-0.33-0.11-0.48c-0.17-0.68-0.38-1.34-0.76-1.94
			c-0.14-0.21-0.31-0.41-0.5-0.58c-0.25-0.22-0.5-0.21-0.76,0c-0.14,0.11-0.26,0.24-0.36,0.38c-0.45,0.62-0.68,1.32-0.87,2.05
			c-0.05,0.2-0.09,0.4-0.15,0.63C88.8,281.22,89.95,281.2,91.13,281.3z"/>
	</g>
	<g>
		<g>
			<g class="st5">
				<path class="st2" d="M209.69,2.25c0.03,0,0.14,0,0.31,0.26c0.15,0.35-0.03,1.64-0.44,2.15c-4.08,5.17-8.54,10.51-13.25,15.89
					c-1.79,2.04-2.19,3.86-1.44,6.51c4.02,14.11,7.89,28.27,11.51,42.11c1.39,5.31,0.31,9.58-3.31,13.06
					c-4.89,4.69-9.82,9.49-14.6,14.13c-5.62,5.47-11.44,11.12-17.21,16.63c-1.54,1.47-2.98,3.16-2.35,6.3
					c0.89,4.43,1.51,8.86,1.85,13.17c0.03,0.34-0.44,1.07-0.8,1.65c-0.58-0.37-1.17-0.78-1.34-1.13c-1.73-3.6-3.39-7.52-5.21-12.34
					c-0.85-2.24-2.16-3.36-4.67-3.99c-13.81-3.48-28.27-7.26-44.22-11.56c-0.84-0.23-1.52-0.33-2.15-0.33
					c-1.29,0-2.43,0.44-3.61,1.4c-6.06,4.91-11.45,9.07-16.45,12.74c-0.1,0.08-0.43,0.17-1.37,0.17l-0.28,0
					c0-0.55,0.01-1.32,0.17-1.53c3.86-4.99,8.08-10.15,12.9-15.74c1.6-1.87,1.96-3.53,1.27-5.94c-4.02-13.93-7.93-27.97-11.63-41.75
					c-0.62-2.29-1.45-4.44-4.84-5.5c-3.62-1.12-7.53-2.68-12.31-4.9c-0.45-0.21-0.92-0.84-1.37-1.48l0.5-0.31l0.9-0.56
					c1.44,0.21,2.81,0.41,4.13,0.61c3.84,0.57,7.15,1.07,10.56,1.38c0.14,0.01,0.28,0.02,0.42,0.02c1.56,0,3.46-0.77,4.62-1.88
					c6.95-6.64,13.97-13.44,20.76-20.02c4.78-4.63,9.57-9.26,14.37-13.88c1.37-1.32,3.09-1.96,5.25-1.96c0.91,0,1.92,0.12,3,0.35
					c9.77,2.1,18.36,4.1,26.23,6.11c6.52,1.67,12.83,3.61,19.82,5.8c0.74,0.23,1.4,0.34,2.03,0.34c1.69,0,2.91-0.83,3.79-1.56
					c4.07-3.38,8.29-6.74,12.38-9.99c1.46-1.16,2.92-2.33,4.38-3.5C209.02,2.37,209.5,2.25,209.69,2.25 M145.63,57.99l0.51-0.27
					c0.88-0.47,1.81-0.89,2.79-1.34c2.21-1.01,4.51-2.06,6.35-3.71c9.12-8.19,18.12-16.87,25.83-24.37c2-1.95,2.83-4.08,2.32-6.02
					c-0.5-1.9-2.21-3.33-4.83-4.02c-14.46-3.83-26.45-6.76-37.73-9.24c-0.61-0.13-1.28-0.2-2.01-0.2c-2.68,0-5.41,0.89-6.95,2.27
					c-10.13,9.07-19.84,18.43-28.92,27.25c-1.58,1.54-2.27,3.3-1.92,4.96c0.36,1.75,1.81,3.18,4.07,4.04
					c2.62,0.99,5.32,1.73,7.38,2.26c7.76,1.99,15.43,3.93,23.56,5.99l9,2.28L145.63,57.99 M154.55,66.58
					c0.02,0.17,0.03,0.34,0.05,0.51c0.1,0.99,0.2,2.01,0.46,3.04l1.26,4.89c2.35,9.1,4.77,18.5,7.31,27.72
					c1.37,4.98,3.84,6.02,5.66,6.02c1.79,0,3.67-0.98,5.76-3c4.53-4.4,9.08-8.92,13.48-13.29c3.69-3.66,7.5-7.45,11.28-11.15
					c3.73-3.65,5.01-7.87,3.79-12.56l-0.37-1.42c-2.93-11.24-5.96-22.87-9.16-34.26c-0.84-2.98-2.68-4.69-5.05-4.69
					c-1.54,0-3.14,0.76-4.63,2.21c-10.48,10.17-18.96,18.64-26.69,26.67c-1.4,1.45-2.11,3.35-2.8,5.18c-0.3,0.79-0.57,1.53-0.9,2.22
					l-0.61,1.29L154.55,66.58 M154.97,112.77c3.32,0,5.25-2.14,5.31-5.88l0-0.07l-0.01-0.07c-0.01-0.07-0.01-0.16-0.01-0.25
					c-0.01-0.38-0.01-0.91-0.17-1.46c-0.81-2.83-1.62-5.66-2.43-8.5c-2.64-9.28-5.37-18.87-8.36-28.23
					c-0.82-2.56-3.69-5.31-6.39-6.12c-13.66-4.11-27.08-7.68-38.4-10.62c-0.75-0.2-1.47-0.29-2.15-0.29c-1.73,0-3.19,0.65-4.09,1.84
					c-1.01,1.33-1.26,3.21-0.69,5.31c2.93,10.77,6.09,21.68,9.15,32.22l0.97,3.34c1.05,3.61,3.6,6.32,7.37,7.83
					c3.91,1.56,7.12,2.67,10.09,3.48c10.49,2.88,19.2,5.15,27.42,7.17C153.44,112.66,154.24,112.77,154.97,112.77 M209.69,0.75
					c-0.88,0-1.82,0.62-2.64,1.28c-5.6,4.49-11.25,8.92-16.78,13.51c-0.97,0.8-1.81,1.21-2.83,1.21c-0.48,0-1-0.09-1.58-0.27
					c-6.59-2.06-13.2-4.11-19.89-5.82c-8.71-2.23-17.49-4.24-26.29-6.12c-1.1-0.24-2.22-0.38-3.32-0.38c-2.28,0-4.47,0.63-6.29,2.38
					c-11.72,11.28-23.36,22.65-35.13,33.89c-0.85,0.82-2.37,1.46-3.58,1.46c-0.1,0-0.19,0-0.29-0.01c-4.7-0.43-9.37-1.24-15.15-2.06
					c-0.65,0.4-1.96,1.21-3.26,2.01c0.96,1.11,1.7,2.69,2.93,3.26c4.06,1.88,8.22,3.64,12.5,4.97c2.53,0.79,3.23,2.19,3.84,4.45
					c3.75,13.96,7.63,27.88,11.63,41.77c0.55,1.9,0.32,3.06-0.96,4.54c-4.44,5.17-8.79,10.42-12.95,15.8
					c-0.72,0.93-0.37,2.63-0.52,3.98c0.3-0.03,0.62-0.04,0.95-0.04c0.29,0,0.58,0.01,0.87,0.01c0.87,0,1.7-0.05,2.26-0.46
					c5.62-4.11,11.1-8.41,16.51-12.78c0.93-0.75,1.74-1.06,2.67-1.06c0.53,0,1.1,0.1,1.76,0.28c14.71,3.97,29.46,7.85,44.24,11.57
					c1.98,0.5,2.95,1.26,3.64,3.07c1.6,4.21,3.31,8.39,5.26,12.45c0.53,1.11,2.08,1.76,3.16,2.62c0.65-1.3,1.93-2.66,1.83-3.9
					c-0.35-4.47-0.99-8.94-1.88-13.35c-0.45-2.25,0.36-3.43,1.92-4.92c10.67-10.19,21.17-20.55,31.81-30.77
					c4.34-4.17,5.13-9.17,3.72-14.52c-3.69-14.08-7.53-28.13-11.52-42.14c-0.61-2.16-0.31-3.47,1.12-5.11
					c4.56-5.21,9.01-10.52,13.3-15.95c0.74-0.93,1.1-3.01,0.53-3.87C210.81,1.02,210.27,0.75,209.69,0.75L209.69,0.75z
					 M145.44,56.39c-11.32-2.87-21.94-5.54-32.55-8.26c-2.44-0.63-4.88-1.32-7.22-2.21c-3.46-1.31-4.26-3.97-1.64-6.52
					c9.48-9.21,19.02-18.38,28.88-27.21c1.33-1.19,3.81-1.88,5.95-1.88c0.6,0,1.17,0.05,1.68,0.17c12.63,2.77,25.18,5.92,37.67,9.23
					c4.37,1.16,5.1,4.36,1.85,7.51c-8.47,8.23-16.99,16.43-25.79,24.33C151.84,53.73,148.38,54.82,145.44,56.39L145.44,56.39z
					 M169.3,107.26c-1.88,0-3.31-1.65-4.22-4.92c-2.98-10.83-5.76-21.72-8.57-32.59c-0.35-1.34-0.39-2.75-0.57-4.12
					c-0.19-0.1-0.38-0.2-0.57-0.3c1.11-2.36,1.69-5.21,3.42-7c8.71-9.04,17.64-17.89,26.66-26.64c1.24-1.2,2.47-1.78,3.58-1.78
					c1.61,0,2.94,1.23,3.61,3.6c3.32,11.84,6.42,23.75,9.52,35.65c1.12,4.29-0.14,7.95-3.38,11.11c-8.3,8.1-16.44,16.36-24.76,24.43
					C172.23,106.4,170.65,107.26,169.3,107.26L169.3,107.26z M154.97,111.27c-0.6,0-1.28-0.09-2.03-0.27
					c-9.16-2.25-18.28-4.67-27.38-7.16c-3.37-0.93-6.68-2.13-9.93-3.43c-3.2-1.28-5.53-3.55-6.49-6.85
					c-3.43-11.83-6.88-23.65-10.12-35.53c-0.86-3.18,0.56-5.25,3.33-5.25c0.54,0,1.14,0.08,1.78,0.25
					c12.84,3.34,25.65,6.78,38.35,10.61c2.18,0.66,4.72,3.04,5.4,5.14c3.88,12.14,7.25,24.44,10.77,36.69
					c0.15,0.51,0.1,1.06,0.12,1.41C158.73,109.72,157.47,111.27,154.97,111.27L154.97,111.27z"/>
			</g>
			<path d="M86.52,44.4c4.85,0.69,8.77,1.36,12.72,1.73c1.05,0.1,2.48-0.48,3.25-1.22c9.88-9.44,19.65-18.99,29.5-28.47
				c2.27-2.18,5.23-2.28,8.07-1.67c7.39,1.59,14.76,3.27,22.08,5.14c5.62,1.44,11.17,3.16,16.71,4.89c1.54,0.48,2.51,0.2,3.7-0.79
				c4.64-3.85,9.38-7.57,14.09-11.34c1.14-0.91,2.57-1.75,3.55-0.26c0.48,0.73,0.17,2.47-0.45,3.25c-3.6,4.56-7.34,9.02-11.17,13.4
				c-1.21,1.38-1.46,2.48-0.94,4.29c3.35,11.76,6.58,23.56,9.68,35.39c1.18,4.49,0.52,8.69-3.13,12.2
				c-8.94,8.58-17.75,17.28-26.72,25.84c-1.31,1.25-1.99,2.24-1.61,4.13c0.74,3.7,1.28,7.45,1.58,11.21
				c0.08,1.05-0.99,2.18-1.54,3.28c-0.91-0.72-2.21-1.27-2.66-2.2c-1.64-3.41-3.08-6.92-4.42-10.46c-0.58-1.52-1.39-2.16-3.05-2.58
				c-12.42-3.13-24.8-6.38-37.16-9.72c-1.52-0.41-2.49-0.34-3.72,0.66c-4.54,3.67-9.15,7.28-13.87,10.74
				c-0.8,0.58-2.26,0.3-3.42,0.41c0.12-1.13-0.17-2.56,0.44-3.34c3.5-4.52,7.14-8.93,10.88-13.27c1.07-1.25,1.27-2.22,0.81-3.82
				c-3.36-11.67-6.62-23.36-9.77-35.09c-0.51-1.9-1.1-3.08-3.22-3.74c-3.59-1.12-7.09-2.59-10.5-4.17c-1.03-0.48-1.65-1.8-2.46-2.73
				C84.88,45.41,85.98,44.73,86.52,44.4z M153.25,65.83c0.16,0.09,0.32,0.17,0.48,0.26c0.15,1.16,0.19,2.34,0.48,3.46
				c2.36,9.13,4.69,18.28,7.2,27.37c1.3,4.74,3.94,5.42,7.5,1.97c6.99-6.78,13.83-13.71,20.8-20.52c2.72-2.66,3.78-5.73,2.84-9.33
				c-2.61-10-5.2-20-7.99-29.94c-0.94-3.35-3.49-3.99-6.04-1.52c-7.58,7.35-15.08,14.78-22.39,22.37
				C154.67,61.45,154.18,63.84,153.25,65.83z M156.11,100.72c-0.02-0.29,0.02-0.76-0.1-1.19c-2.96-10.29-5.79-20.61-9.05-30.81
				c-0.56-1.77-2.7-3.77-4.53-4.32c-10.66-3.21-21.42-6.1-32.21-8.91c-3.28-0.85-5.16,1.02-4.29,4.21
				c2.71,9.98,5.61,19.91,8.5,29.84c0.8,2.77,2.77,4.68,5.45,5.76c2.73,1.09,5.5,2.1,8.34,2.88c7.64,2.09,15.3,4.13,23,6.01
				C154.43,104.98,156.06,103.7,156.11,100.72z M144.91,58.33c2.47-1.31,5.38-2.23,7.42-4.07c7.39-6.63,14.54-13.52,21.66-20.43
				c2.73-2.65,2.12-5.34-1.55-6.31c-10.49-2.78-21.03-5.42-31.64-7.75c-1.97-0.43-4.98,0.16-6.41,1.44
				c-8.28,7.41-16.29,15.12-24.25,22.85c-2.2,2.14-1.53,4.37,1.37,5.47c1.97,0.75,4.02,1.33,6.07,1.85
				C126.48,53.68,135.4,55.92,144.91,58.33z"/>
			<path class="st4" d="M153.25,65.83c0.93-1.98,1.42-4.37,2.87-5.88c7.31-7.6,14.81-15.02,22.39-22.37
				c2.55-2.47,5.1-1.83,6.04,1.52c2.79,9.95,5.39,19.95,7.99,29.94c0.94,3.6-0.12,6.67-2.84,9.33c-6.97,6.81-13.81,13.74-20.8,20.52
				c-3.56,3.45-6.19,2.77-7.5-1.97c-2.51-9.1-4.84-18.24-7.2-27.37c-0.29-1.12-0.32-2.31-0.48-3.46
				C153.57,66,153.41,65.91,153.25,65.83z"/>
			<path class="st6" d="M156.11,100.72c-0.05,2.99-1.68,4.26-4.9,3.47c-7.7-1.89-15.36-3.92-23-6.01c-2.83-0.78-5.61-1.79-8.34-2.88
				c-2.68-1.07-4.65-2.98-5.45-5.76c-2.88-9.93-5.78-19.86-8.5-29.84c-0.87-3.19,1.01-5.06,4.29-4.21
				c10.78,2.8,21.55,5.7,32.21,8.91c1.83,0.55,3.97,2.55,4.53,4.32c3.26,10.2,6.09,20.52,9.05,30.81
				C156.13,99.95,156.09,100.42,156.11,100.72z"/>
			<path class="st3" d="M144.91,58.33c-9.5-2.41-18.43-4.65-27.34-6.94c-2.05-0.53-4.1-1.11-6.07-1.85
				c-2.91-1.1-3.58-3.33-1.37-5.47c7.97-7.73,15.97-15.44,24.25-22.85c1.43-1.28,4.44-1.88,6.41-1.44
				c10.61,2.33,21.15,4.97,31.64,7.75c3.67,0.97,4.28,3.66,1.55,6.31c-7.12,6.91-14.27,13.8-21.66,20.43
				C150.28,56.09,147.37,57.01,144.91,58.33z"/>
		</g>
		<path class="st7" d="M122.92,79.69c0.07-0.33,0.14-0.66,0.22-0.98c0.83-3.31,3.58-5.57,7.08-5.82c0.09-0.01,0.18-0.01,0.33-0.02
			c0-0.75,0-1.51,0-2.24c1.26,1.26,2.49,2.49,3.7,3.69c-1.18,1.18-2.42,2.41-3.67,3.66c0-0.81,0-1.65,0-2.47
			c-2.17-0.38-4.66,1.79-5.06,4.36c-0.43,2.73,1.57,5.35,4.42,5.73c2.68,0.36,5.55-1.51,5.76-5.02c0.85,0,1.69,0,2.54,0
			c0,0.18,0,0.35,0,0.53c-0.03,0.13-0.06,0.25-0.08,0.38c-0.47,3.06-2.16,5.15-5.05,6.26c-0.54,0.21-1.13,0.3-1.69,0.45
			c-0.56,0-1.12,0-1.68,0c-0.08-0.03-0.16-0.07-0.24-0.08c-3.11-0.44-5.64-2.74-6.37-5.8c-0.07-0.31-0.14-0.63-0.21-0.94
			C122.92,80.81,122.92,80.25,122.92,79.69z"/>
		<g>
			<path class="st8" d="M176.05,70.02c-0.68,0.21-1.34,0.41-2.01,0.61c0.35,1.14,0.69,2.28,1.04,3.42
				c-0.61,0.18-1.21,0.37-1.83,0.55c1.34,1,2.66,1.99,4,2.98c0.56-1.57,1.11-3.13,1.67-4.7c-0.62,0.19-1.21,0.37-1.83,0.56
				C176.75,72.3,176.4,71.16,176.05,70.02z"/>
			<path class="st8" d="M183.66,65.6c-1.57-0.56-3.13-1.11-4.71-1.67c0.19,0.63,0.37,1.22,0.56,1.84c-1.14,0.35-2.28,0.69-3.42,1.04
				c0.21,0.68,0.41,1.34,0.61,2.01c1.14-0.35,2.28-0.69,3.42-1.04c0.18,0.61,0.37,1.21,0.55,1.82
				C181.68,68.26,182.66,66.94,183.66,65.6z"/>
			<path class="st8" d="M172.88,66.77c0.67-0.2,1.33-0.41,2-0.61c-0.35-1.14-0.69-2.27-1.04-3.42c0.61-0.19,1.21-0.37,1.83-0.56
				c-1.34-1-2.67-1.99-4-2.98c-0.56,1.57-1.11,3.13-1.67,4.71c0.63-0.19,1.23-0.37,1.84-0.56C172.19,64.5,172.53,65.63,172.88,66.77
				z"/>
			<path class="st8" d="M172.23,67.98c-1.14,0.35-2.27,0.69-3.42,1.04c-0.19-0.61-0.37-1.21-0.55-1.83c-1,1.34-1.99,2.67-2.98,4
				c1.57,0.56,3.13,1.11,4.71,1.67c-0.19-0.63-0.37-1.23-0.56-1.83c1.14-0.35,2.27-0.69,3.41-1.04
				C172.63,69.31,172.43,68.65,172.23,67.98z"/>
		</g>
		<path class="st9" d="M148.01,34.03c0-0.1,0-0.2-0.03-0.3c-0.06-0.27-0.27-0.44-0.54-0.47c-0.06-0.01-0.13-0.01-0.19-0.01
			c-0.76,0-1.52,0-2.27,0c-0.05,0-0.11,0-0.18,0c0-0.08,0-0.13,0-0.19c0-0.95,0-1.91,0-2.86c0-0.29-0.09-0.52-0.36-0.65
			c-0.08-0.04-0.18-0.06-0.28-0.06c-1.71,0-3.41,0-5.12,0c-0.27,0-0.44,0.18-0.62,0.34c-0.98,0.89-1.95,1.78-2.93,2.68
			c-0.33,0.3-0.66,0.61-1,0.91c-0.17,0.15-0.24,0.35-0.24,0.57c0,0.24,0,0.47,0,0.71c0,2.48,0,4.96,0,7.44
			c0,0.31,0.1,0.55,0.39,0.67c0.11,0.04,0.23,0.05,0.35,0.05c0.76,0,1.52,0,2.29,0c0.06,0,0.12,0.01,0.19,0.01c0,0.07,0,0.12,0,0.17
			c0,0.92,0.01,1.84,0,2.77c-0.01,0.39,0.11,0.67,0.49,0.82c3.19,0,6.37,0,9.56,0c0.38-0.14,0.5-0.43,0.5-0.82
			C148.01,41.89,148.01,37.96,148.01,34.03z M138.55,31.41c0,0.79,0,1.55,0,2.32c-0.84,0-1.67,0-2.53,0
			C136.87,32.95,137.7,32.19,138.55,31.41z M137.71,37.18c-0.17,0.16-0.23,0.36-0.23,0.59c0,1.22,0,2.44,0,3.66
			c0,0.18,0,0.18-0.18,0.18c-0.54,0-1.08,0-1.62,0c-0.12,0-0.17-0.02-0.17-0.16c0-2.1,0-4.21,0-6.31c0-0.12,0.04-0.15,0.16-0.15
			c1.15,0,2.3,0,3.45,0c0.27,0,0.5-0.09,0.62-0.35c0.05-0.11,0.07-0.25,0.07-0.38c0.01-1.11,0-2.23,0-3.34c0-0.18,0-0.18,0.18-0.18
			c1.12,0,2.25,0,3.37,0c0.05,0,0.11,0,0.18,0c0,0.85,0,1.67,0,2.51c-0.05,0-0.1,0.01-0.15,0.01c-0.3,0-0.59,0.02-0.89,0
			c-0.36-0.03-0.63,0.11-0.89,0.36c-0.63,0.6-1.27,1.17-1.91,1.76C139.03,35.97,138.37,36.58,137.71,37.18z M141.76,35.18
			c0,0.79,0,1.54,0,2.32c-0.83,0-1.66,0-2.48,0c-0.01-0.01-0.01-0.02-0.02-0.03C140.09,36.71,140.91,35.95,141.76,35.18z
			 M146.58,45.38c-2.56,0-5.12,0-7.68,0c-0.14,0-0.17-0.04-0.17-0.18c0-2.09,0-4.19,0-6.28c0-0.05,0-0.1,0-0.16
			c0.06,0,0.12-0.01,0.17-0.01c1.13,0,2.26,0,3.4,0c0.5,0,0.73-0.23,0.73-0.73c0-1.11,0-2.23,0-3.34c0-0.18,0-0.18,0.18-0.18
			c1.12,0,2.25,0,3.37,0c0.18,0,0.18,0,0.18,0.18c0,3.51,0,7.01,0,10.52C146.76,45.38,146.76,45.38,146.58,45.38z"/>
	</g>
	<g>
		<g>
			<path class="st2" d="M347.51,168.02c3.41,0,5.86,2.02,7.5,6.18c1.31,3.34,2.62,6.68,3.92,10.02c3.1,7.94,6.3,16.15,9.58,24.18
				c0.19,0.45,0.42,0.92,0.7,1.4l0.77,1.97l0.19,0.48l0,0l1.27,3.23l0.14,0.37l-0.01,0.02l0.23,0.76c0.05,0.17,0.1,0.35,0.15,0.52
				c0.12,0.41,0.24,0.83,0.4,1.25c2.33,6.31,0.7,9.89-5.6,12.38c-3,1.19-6.01,2.36-9.01,3.53c-2.88,1.12-5.76,2.25-8.64,3.38
				c-0.32,0.13-0.63,0.27-0.87,0.39c-0.32,0.16-0.66,0.33-1.05,0.53c-0.35,0.18-0.74,0.38-1.19,0.6l-2.47,1.22l0.24,0.15
				c-0.23-0.03-0.46-0.05-0.69-0.05c-0.3,0-0.61,0.03-0.92,0.08c-0.27,0.05-0.55,0.12-0.84,0.22l-0.02,0l-0.12,0.04
				c-0.31,0.12-0.63,0.27-0.94,0.44c-0.41,0.23-0.78,0.48-1.13,0.75l-1.53,1.2l1.45,1.1c-1.19-0.69-2.23-1.02-3.27-1.02
				c-1.31,0-2.53,0.52-3.74,1.58l-1.34,1.17l1.38,1.12c0.19,0.15,0.36,0.31,0.54,0.46c0.42,0.37,0.86,0.75,1.39,1.07
				c1.36,0.82,2.73,1.64,4.09,2.47c5.19,3.13,10.55,6.37,15.93,9.39c0.98,0.55,2.27,0.85,3.64,0.85c0.8,0,1.59-0.11,2.27-0.31
				c1.87-0.56,3.74-1.11,5.62-1.66c10.59-3.13,21.54-6.36,32.14-10.06c1.09-0.38,2.08-0.57,3.04-0.57c1.76,0,3.3,0.64,5.02,1.71
				l-3.83,1.17c-4.94,1.51-9.74,2.98-14.54,4.46c-2.62,0.8-5.23,1.62-7.84,2.43c-7.05,2.19-14.33,4.45-21.53,6.53
				c-0.33,0.1-0.73,0.15-1.17,0.15c-0.97,0-2.01-0.25-2.7-0.64c-9.17-5.21-18.33-10.71-26.2-15.45c-1.33-0.8-2.55-1.18-3.83-1.18
				c-0.1,0-0.2,0-0.31,0.01l-0.56-0.37l-0.71,0.27l-0.55,0.21l-1.55,0.58l0.1,0.21c-3.74,1.54-7.58,3.05-11.07,4.41
				c-1.7-2.37-3.18-4.42-4.1-5.8l8.61-3.45l2.56-1.02l-2.25-1.59c-0.34-0.24-5.57-3.38-16.6-10c-3.18-1.91-6.31-3.79-8.87-5.32
				l-3.74-2.24l1.03,2.68c-2.43,0.17-4.71,1.02-6.22,2.34c-0.53,0.46-0.99,0.97-1.4,1.52l-0.04,0.06c-0.06,0.08-0.12,0.15-0.18,0.24
				c-0.1,0.15-0.2,0.31-0.28,0.47l-0.2-0.09l-0.47,1.7c-0.54,1.94-0.26,4.2,0.88,7.11c0.63,1.61,1.25,3.22,1.88,4.83
				c1.71,4.4,3.48,8.95,5.28,13.41c0.35,0.86,0.99,1.43,1.56,1.94c0.2,0.18,0.39,0.35,0.54,0.51l2.31,2.45l0.28-3.35
				c0.02-0.22,0.07-0.49,0.12-0.77c0.14-0.78,0.32-1.74-0.03-2.68c-1.43-3.84-2.95-7.71-4.41-11.46c-0.92-2.36-1.85-4.72-2.76-7.09
				c-0.57-1.48-0.55-2.67,0.05-3.66c0.05-0.08,0.1-0.16,0.15-0.22c0.04-0.06,0.08-0.11,0.13-0.17c0.14-0.17,0.26-0.3,0.38-0.41
				c0.79-0.72,1.65-1.1,2.48-1.1c0.53,0,1.07,0.16,1.58,0.47c0.18,0.11,0.37,0.25,0.6,0.44c0.07,0.06,0.14,0.13,0.2,0.19l0.09,0.09
				l0.07,0.07c0.06,0.06,0.12,0.11,0.18,0.19c0.12,0.12,0.24,0.27,0.37,0.45l0.09,0.12c0.3,0.41,0.5,0.75,0.62,1.05
				c0.8,1.97,1.6,3.94,2.4,5.9c3.79,9.3,7.71,18.91,11.06,28.53c1.09,3.14,0.66,7.23,0.09,10.82c-0.55,3.48-1.47,7-2.36,10.4
				c-0.53,2.02-1.07,4.12-1.54,6.2c-0.19,0.85-0.28,0.95-1.38,0.95l-0.1,0c-3.72-0.04-6.97-0.07-9.95-0.07
				c-3.36,0-6.44,0.03-9.41,0.08l-0.1,0c-1.16,0-1.67-0.32-2.34-1.48c-3.6-6.18-7.31-12.43-10.89-18.47
				c-1.74-2.93-3.48-5.86-5.21-8.79c-2.58-4.37-2.39-8.89,0.49-12.92c0.1,0.24,0.19,0.5,0.28,0.76c0.63,1.74,1.41,3.91,4.13,4.87
				l2.8,0.98l-0.86-2.84c-0.33-1.08-0.69-2.17-1.04-3.22c-0.81-2.42-1.58-4.71-2.01-7.08c-0.41-2.25,0.11-4.48,1.74-7.18l1.84,4.57
				l2.37,5.87l0.5,1.24l1.29-0.36l0.62-0.17l0.54-0.15l1.26-0.35l-0.17-1.29c-0.03-0.26-0.05-0.52-0.07-0.78
				c-0.05-0.69-0.11-1.47-0.4-2.24c-1.02-2.73-2.09-5.5-3.13-8.18c-1.07-2.76-2.17-5.61-3.22-8.42c-1.33-3.55-0.85-4.63,2.69-6.05
				c1.29-0.52,2.58-1.03,3.98-1.59l0.31-0.12l0.21-0.08l1.4-0.56l1.37-0.55l-0.53-1.38l-2.06-5.39L271.2,208
				c-2.72-7.1-1.36-10.25,5.59-12.99c19.4-7.65,40.42-15.91,66.15-26C344.61,168.35,346.14,168.02,347.51,168.02L347.51,168.02
				 M284.76,223.89l1.57-1.03l1.96-1.28c1.14,0.68,3.38,2.01,6.15,3.66c8.86,5.27,23.7,14.09,24,14.28c1.23,0.74,2.3,1.09,3.36,1.09
				c0.23,0,0.46-0.02,0.68-0.05c0.34-0.05,0.68-0.14,1.02-0.26l0.01,0l0.04-0.01c0.34-0.13,0.69-0.31,1.03-0.52
				c0.44-0.28,0.82-0.56,1.19-0.9l1.42-1.3c0.59,0.19,1.15,0.28,1.71,0.28c0.23,0,0.47-0.02,0.69-0.05
				c0.34-0.05,0.68-0.14,1.01-0.26l0.02-0.01l0.05-0.02c0.35-0.14,0.7-0.31,1.03-0.53c0.3-0.19,0.58-0.4,0.84-0.62l3.31-1.25
				c0.07,0,0.13,0,0.2,0c0.44,0,0.84-0.07,1.2-0.2l0.33-0.13l0.3-0.11c7.29-2.78,14.39-5.57,21.91-8.53l5.24-2.06l0.69-0.07
				l2.01-0.21l-0.79-1.86l-3-7.11c-0.42-1.24-0.93-2.45-1.51-3.58l-4.02-9.51l-0.11-0.27l-8.11-20.62l-1.91-4.87l-0.55-1.39
				l-1.4,0.55l-68.52,26.87l-1.4,0.55l0.55,1.4c0.77,1.95,1.54,3.88,2.3,5.79c1.7,4.26,3.3,8.28,4.83,12.39L284.76,223.89
				 M354.99,253.94c1.32,0.38,2.68,0.56,4.08,0.56c0.48,0,0.97-0.02,1.46-0.06c-0.19,0.06-0.39,0.12-0.58,0.19
				c-0.75,0.24-1.4,0.36-1.99,0.36c-0.9,0-1.75-0.27-2.69-0.86C355.18,254.06,355.09,254,354.99,253.94 M347.51,166.52
				c-1.56,0-3.27,0.36-5.12,1.09c-22.06,8.65-44.11,17.31-66.15,26c-7.7,3.04-9.43,7.13-6.45,14.92c1.78,4.64,3.55,9.28,5.37,14.03
				c-0.56,0.22-1.09,0.44-1.61,0.64c-1.52,0.61-2.91,1.16-4.29,1.71c-4.28,1.72-5.17,3.6-3.54,7.96c2.07,5.55,4.27,11.05,6.35,16.6
				c0.31,0.83,0.27,1.79,0.39,2.69c-0.39,0.11-0.77,0.22-1.16,0.32c-1.7-4.21-3.4-8.42-5.27-13.04c-2.65,3.55-4.23,6.89-3.55,10.62
				c0.65,3.56,2.03,6.98,3.09,10.46c-3.36-1.18-2.78-4.81-4.71-6.82c-4.54,4.91-5.26,10.73-1.98,16.29
				c5.37,9.08,10.79,18.14,16.1,27.25c0.89,1.53,1.85,2.23,3.64,2.23c0.04,0,0.09,0,0.13,0c3.12-0.06,6.25-0.08,9.38-0.08
				c3.31,0,6.62,0.03,9.93,0.07c0.04,0,0.08,0,0.12,0c1.57,0,2.45-0.39,2.84-2.12c1.26-5.58,3.02-11.07,3.92-16.7
				c0.6-3.78,1.06-8.08-0.15-11.55c-4.06-11.65-8.85-23.05-13.49-34.5c-0.19-0.47-0.48-0.93-0.8-1.37c-0.03-0.05-0.07-0.09-0.1-0.14
				c-0.15-0.19-0.3-0.38-0.47-0.56c-0.1-0.11-0.2-0.2-0.3-0.3c-0.13-0.12-0.25-0.25-0.38-0.36c-0.25-0.21-0.52-0.41-0.79-0.57
				c-0.77-0.47-1.57-0.68-2.36-0.68c-1.24,0-2.44,0.54-3.49,1.5c-0.2,0.18-0.37,0.38-0.53,0.57c-0.06,0.08-0.12,0.16-0.18,0.23
				c-0.08,0.11-0.15,0.22-0.22,0.34c-0.91,1.49-0.84,3.22-0.17,4.98c2.38,6.18,4.85,12.33,7.17,18.54c0.3,0.8-0.1,1.86-0.18,2.79
				c-0.62-0.65-1.49-1.2-1.81-1.97c-2.45-6.05-4.78-12.14-7.15-18.22c-1.01-2.58-1.28-4.53-0.83-6.17c0,0,0,0,0,0
				c0.16-0.58,0.41-1.13,0.75-1.64c0.05-0.08,0.12-0.15,0.18-0.23c0.32-0.44,0.71-0.87,1.18-1.29c1.42-1.24,3.78-2,6.12-2
				c0.44,0,0.88,0.03,1.32,0.08l-0.27-0.7c8.94,5.37,24.92,14.93,25.38,15.26c-3.65,1.46-6.98,2.8-10.28,4.12
				c0.22,0.36,0.44,0.72,0.68,1.08c1,1.54,2.86,4.12,5.12,7.26c4.39-1.71,8.65-3.38,12.88-5.13c0.27-0.11,0.54-0.2,0.8-0.28
				c-0.06-0.12-0.1-0.2-0.1-0.2l0.55-0.21l0.36,0.24c0.23-0.03,0.47-0.05,0.69-0.05c1.02,0,2,0.33,3.05,0.96
				c8.7,5.24,17.41,10.45,26.23,15.47c0.94,0.53,2.24,0.84,3.44,0.84c0.56,0,1.11-0.07,1.59-0.2c9.84-2.84,19.61-5.95,29.4-8.96
				c6.98-2.15,13.96-4.27,21.35-6.54c-2.88-2.07-5.32-3.73-8.44-3.73c-1.08,0-2.24,0.2-3.53,0.65c-12.41,4.34-25.08,7.96-37.69,11.7
				c-0.55,0.16-1.19,0.25-1.84,0.25c-1.04,0-2.12-0.22-2.91-0.66c-6.75-3.79-13.34-7.85-19.98-11.83c-0.62-0.37-1.14-0.9-1.76-1.41
				c0.97-0.85,1.87-1.2,2.75-1.2c0.89,0,1.77,0.36,2.69,0.92c5.32,3.25,10.76,6.3,16.03,9.62c1.2,0.75,2.31,1.09,3.48,1.09
				c0.78,0,1.58-0.15,2.45-0.43c8.9-2.84,17.84-5.55,26.76-8.31c7.16-2.22,14.31-4.44,21.47-6.66c-0.03-0.38-0.05-0.76-0.08-1.14
				c-1.03,0-2.1-0.15-3.13-0.15c-0.59,0-1.17,0.05-1.72,0.21c-12.61,3.75-25.3,7.31-37.71,11.65c-2.47,0.86-4.75,1.35-6.93,1.35
				c-3.1,0-6-0.99-8.93-3.29c-2.43-1.91-5.32-3.23-7.98-4.86c-0.72-0.44-1.36-1.02-2.14-1.61c0.32-0.25,0.64-0.45,0.94-0.62
				c0.25-0.14,0.49-0.25,0.73-0.34c0,0,0,0,0,0c0.24-0.09,0.48-0.15,0.71-0.2c0.22-0.04,0.44-0.06,0.65-0.06
				c0.9,0,1.78,0.33,2.71,0.92c3.13,2.01,6.48,3.68,9.56,5.75c1.27,0.85,2.47,1.22,3.74,1.22c0.88,0,1.78-0.18,2.76-0.49
				c9.76-3.12,19.57-6.07,29.36-9.09c6.21-1.92,12.42-3.86,19.12-5.94c-1.12-0.66-1.78-1.04-2.45-1.44
				c-6.83-4.06-26.51-15.76-36.5-21.73l-0.82-2.09c-0.26-0.43-0.49-0.87-0.67-1.3c-4.64-11.33-9.01-22.78-13.49-34.17
				C354.54,168.93,351.53,166.52,347.51,166.52L347.51,166.52z M285.51,221.61c-2.24-6.01-4.69-11.97-7.14-18.2
				c22.87-8.97,45.53-17.86,68.52-26.87c3.34,8.49,6.58,16.73,10.02,25.49c0,0-0.01,0-0.01,0l4.17,9.87
				c0.56,1.09,1.05,2.25,1.47,3.48l3.02,7.16l-0.89,0.09c-9.23,3.62-18.26,7.2-27.33,10.65c-0.21,0.08-0.42,0.16-0.62,0.24
				c-0.19,0.07-0.42,0.11-0.66,0.11c-0.13,0-0.27-0.01-0.41-0.03l-3.89,1.47c-0.29,0.27-0.58,0.48-0.86,0.67
				c-0.26,0.17-0.51,0.29-0.76,0.39c-0.01,0-0.01,0-0.02,0.01c-0.25,0.09-0.5,0.16-0.74,0.19c0,0,0,0,0,0
				c-0.16,0.02-0.32,0.03-0.48,0.03c-0.9,0-1.8-0.35-2.75-0.92c-0.89-0.53-31.46-18.72-32.35-19.25l-2.52,1.65
				c1.27,0.75,32.21,19.17,33.48,19.92c-0.34,0.31-0.66,0.54-0.97,0.73c0,0,0,0,0,0c-0.26,0.16-0.52,0.29-0.77,0.39
				c0,0-0.01,0-0.01,0c-0.25,0.09-0.49,0.16-0.74,0.19c0,0,0,0,0,0c-0.16,0.02-0.32,0.03-0.47,0.03c-0.87,0-1.7-0.34-2.59-0.87
				c-0.42-0.26-30.53-18.16-30.96-18.42L285.51,221.61L285.51,221.61z M359.28,247.33c-1.05,0-2.05-0.3-3.1-1
				c-2.9-1.95-5.97-3.64-9.52-5.78c0.94-0.46,1.61-0.83,2.23-1.12c0.26-0.13,0.52-0.24,0.77-0.34c5.88-2.32,11.78-4.59,17.65-6.92
				c7.04-2.78,9.05-7.27,6.46-14.3c-0.2-0.55-0.35-1.13-0.53-1.69c0.02-0.02,0.04-0.05,0.06-0.07l-0.46-1.17
				c9.33,5.56,25.64,15.29,31.14,18.56c-1.82,0.77-2.67,1.22-3.58,1.5c-12.95,3.99-25.91,7.93-38.86,11.95
				C360.75,247.19,360,247.33,359.28,247.33L359.28,247.33z"/>
		</g>
		<path class="st2" d="M313.59,203.23c0.93-0.16,27.37-9.8,27.37-9.8l10.42,27.53l-27.22,10.58L313.59,203.23z"/>
		<g>
			<path d="M321.86,224.11c-0.6,0.23-1.13,0.42-1.68,0.63c1.01,2.7,2.01,5.34,3.03,8.05c2.75-1.03,5.43-2.04,8.14-3.06
				c-0.21-0.56-0.41-1.09-0.64-1.69c-2.16,0.81-4.28,1.61-6.46,2.43C323.43,228.3,322.64,226.2,321.86,224.11z"/>
			<path d="M350.59,220.59c-2.21,0.83-4.32,1.63-6.45,2.43c0.23,0.6,0.42,1.13,0.62,1.65c2.73-1.03,5.42-2.04,8.12-3.06
				c-1.02-2.7-2.02-5.36-3.03-8.05c-0.57,0.21-1.1,0.41-1.68,0.63C348.98,216.31,349.76,218.39,350.59,220.59z"/>
			<path d="M312.49,202.99c-0.43,0.16-0.39,0.38-0.26,0.72c0.9,2.36,1.78,4.72,2.67,7.07c0.06,0.16,0.15,0.31,0.23,0.46
				c0.57-0.22,1.1-0.41,1.7-0.64c-0.81-2.15-1.6-4.25-2.41-6.41c2.19-0.82,4.3-1.62,6.43-2.42c-0.22-0.58-0.41-1.1-0.61-1.62
				c-0.12,0.02-0.21,0.02-0.29,0.05C317.46,201.13,314.98,202.07,312.49,202.99z"/>
			<path d="M341.23,192.18c-2.4,0.91-4.8,1.81-7.2,2.72c-0.14,0.05-0.27,0.14-0.4,0.22c0.21,0.55,0.4,1.06,0.62,1.64
				c2.15-0.81,4.27-1.61,6.47-2.44c0.82,2.18,1.62,4.3,2.41,6.4c0.6-0.23,1.12-0.42,1.64-0.62c-0.02-0.13-0.02-0.22-0.05-0.3
				c-0.92-2.46-1.86-4.93-2.77-7.4C341.79,191.97,341.55,192.06,341.23,192.18z"/>
		</g>
		<path class="st4" d="M291.53,228.58c-0.13,0.03-0.27,0.07-0.39,0.09l-0.44,1.36c0.32,0.06,0.64,0.15,0.94,0.25L291.53,228.58z"/>
		<path class="st4" d="M390.65,248.28c-11.46,4-23.15,7.35-34.8,10.81c-1.33,0.39-3.2,0.28-4.38-0.38
			c-6.23-3.5-12.32-7.25-18.44-10.93c-0.57-0.34-1.05-0.83-1.62-1.3c1.8-1.58,3.33-1.29,5.02-0.26c4.91,3,9.93,5.82,14.8,8.88
			c1.84,1.16,3.47,1.25,5.48,0.61c8.22-2.63,16.47-5.12,24.71-7.67c6.61-2.05,13.21-4.1,19.82-6.15c-0.02-0.35-0.05-0.7-0.07-1.05
			c-1.5,0-3.1-0.35-4.48,0.06c-11.64,3.46-23.36,6.75-34.81,10.76c-5.51,1.93-10.04,1.83-14.64-1.79c-2.24-1.76-4.91-2.99-7.37-4.49
			c-0.66-0.41-1.25-0.94-1.98-1.49c1.94-1.52,3.53-1.42,5.31-0.28c2.89,1.85,5.98,3.4,8.83,5.3c1.98,1.33,3.79,1.38,6,0.68
			c9.01-2.88,18.07-5.6,27.11-8.39c5.74-1.77,11.46-3.56,17.65-5.49c-1.03-0.61-1.65-0.96-2.26-1.33
			c-7.19-4.28-29.83-17.73-37-22.04c-0.03,0.89-0.06,1.75-0.09,2.58c5.86,3.49,27.24,16.24,33.49,19.96
			c-1.68,0.71-2.47,1.12-3.3,1.38c-11.96,3.68-23.93,7.33-35.87,11.03c-1.79,0.56-3.32,0.54-4.96-0.57
			c-2.68-1.8-5.51-3.36-8.79-5.33c0.88-0.44,1.51-0.78,2.09-1.05c-2.95-1.55-7.16-3.78-10.69-5.67c-0.19,0.07-0.38,0.15-0.58,0.22
			c-0.28,0.11-0.63,0.12-0.99,0.07l-3.59,1.36c-1.82,1.69-3.39,1.41-5.18,0.34c-0.82-0.49-29.04-17.28-29.86-17.77l-2.33,1.53
			c1.17,0.7,29.74,17.7,30.91,18.4c-1.93,1.76-3.44,1.46-5.12,0.44c-0.39-0.24-28.19-16.77-28.58-17.01l-5.68,3.73
			c0.43,0.31,28.31,16.97,28.89,17.39c-0.08,0.03-0.15,0.06-0.23,0.09l9.47,6.25c1.19-0.17,2.27,0.13,3.46,0.84
			c8.03,4.84,16.07,9.65,24.22,14.28c1.27,0.72,3.25,0.99,4.64,0.58c9.09-2.62,18.1-5.49,27.14-8.27
			c6.44-1.98,12.89-3.95,19.72-6.04C398.12,248.54,395.28,246.66,390.65,248.28z"/>
		<g>
			<path class="st3" d="M290.29,232.87c-1.83-1.1-3.82-0.7-5.4,0.75c-0.6,0.55-0.99,1.15-1.22,1.79c0.39,0.06,0.79,0.07,1.16,0.01
				c0.94-0.16,4.49-0.16,7.77-0.12C292.05,234.33,291.2,233.42,290.29,232.87z"/>
			<path class="st3" d="M369.03,220.46c-0.19-0.51-0.33-1.04-0.49-1.56c0.02-0.02,0.04-0.04,0.05-0.07l-2.52-6.44
				c-0.24-0.4-0.45-0.8-0.61-1.2c-4.28-10.46-8.32-21.03-12.46-31.55c-2.38-6.06-6.82-7.98-12.93-5.58
				c-20.37,7.99-40.73,15.98-61.08,24.01c-7.11,2.8-8.71,6.58-5.95,13.78c1.64,4.29,3.28,8.57,4.96,12.96
				c-0.51,0.21-1.01,0.4-1.49,0.59l3.95,8.78c0,0,0.32,0.2,0.82,0.44c0.3-1.09,0.93-2.03,1.95-2.92c1.56-1.36,4.34-2.1,6.87-1.77
				l-0.75-1.95c-0.35-0.4-0.66-0.96-0.94-1.73c-2.28-6.34-4.88-12.58-7.46-19.14c21.11-8.28,42.03-16.49,63.27-24.81
				c3.08,7.84,6.07,15.44,9.25,23.53c0,0-0.01,0-0.01,0l3.85,9.11c0.52,1.01,0.97,2.08,1.35,3.21l2.79,6.61l-0.82,0.09
				c-8.72,3.42-17.24,6.8-25.81,10.06c-0.08,0.03-0.17,0.04-0.26,0.05c-1.45,0.56-3.21,1.25-5.12,1.99
				c-0.48,0.31-0.94,0.48-1.4,0.54c-1.69,0.65-3.44,1.34-5.17,2c-0.49,0.3-0.95,0.48-1.4,0.54c-3.3,1.28-6.36,2.45-8.38,3.2
				c0.06,0.05,0.12,0.09,0.18,0.13c-3.37,1.35-6.44,2.58-9.49,3.8c0.2,0.33,0.41,0.67,0.62,1c0.93,1.43,2.64,3.8,4.73,6.7
				c4.05-1.58,7.99-3.12,11.89-4.74c0.25-0.11,0.5-0.19,0.74-0.26c-0.05-0.11-0.09-0.19-0.09-0.19l17.07-6.37
				c0.46-0.26,0.9-0.42,1.34-0.5l4.29-1.6c1-0.5,1.68-0.88,2.39-1.16c5.43-2.14,10.87-4.24,16.3-6.39
				C369.56,231.1,371.42,226.95,369.03,220.46z"/>
		</g>
		<path d="M292.91,235.92c-0.48-1.19-1.52-2.39-2.62-3.05c-1.83-1.1-3.82-0.7-5.4,0.75c-1.72,1.58-1.81,3.59-1.02,5.65
			c2.19,5.71,4.48,11.38,6.62,17.11c0.27,0.74-0.1,1.71-0.17,2.58c-0.57-0.6-1.38-1.11-1.67-1.82c-2.26-5.59-4.41-11.21-6.61-16.82
			c-1.42-3.63-1.29-5.91,0.42-7.85c-0.13,0.05-0.21,0.09-0.21,0.09l-4.31-7.72c-2,0.8-3.7,1.47-5.4,2.15
			c-3.96,1.58-4.77,3.33-3.27,7.35c1.92,5.12,3.94,10.2,5.86,15.32c0.29,0.77,0.25,1.66,0.36,2.49c-0.36,0.1-0.71,0.2-1.07,0.3
			c-1.57-3.89-3.14-7.77-4.86-12.04c-2.45,3.28-3.91,6.36-3.28,9.8c0.6,3.28,1.88,6.45,2.86,9.66c-3.1-1.09-2.57-4.44-4.35-6.29
			c-4.2,4.53-4.86,9.91-1.82,15.04c4.96,8.39,9.96,16.74,14.87,25.16c0.84,1.45,1.75,2.09,3.48,2.06
			c5.94-0.11,11.89-0.09,17.83-0.01c1.52,0.02,2.37-0.32,2.74-1.96c1.16-5.15,2.79-10.22,3.62-15.41c0.55-3.49,0.97-7.46-0.14-10.66
			C301.62,257.01,297.19,246.48,292.91,235.92z"/>
	</g>
	<circle class="st10" cx="204.33" cy="177.26" r="10"/>
	<line class="st10" x1="205.33" y1="166.26" x2="196.33" y2="112.26"/>
	<line class="st10" x1="195.33" y1="183.26" x2="138.33" y2="216.26"/>
	<line class="st10" x1="215.33" y1="179.26" x2="264.33" y2="202.26"/>
</g>
</svg>
