<?xml version="1.0" encoding="utf-8"?>
<!-- Generator: Adobe Illustrator 23.0.0, SVG Export Plug-In . SVG Version: 6.00 Build 0)  -->
<svg version="1.1" id="Layer_1" xmlns="http://www.w3.org/2000/svg" xmlns:xlink="http://www.w3.org/1999/xlink" x="0px" y="0px"
	 viewBox="0 0 690.25 434.04" style="enable-background:new 0 0 690.25 434.04;" xml:space="preserve">
<style type="text/css">
	.st0{opacity:0.2;fill:url(#SVGID_1_);}
	.st1{opacity:0.1;fill:url(#SVGID_2_);}
	.st2{fill:url(#SVGID_3_);}
	.st3{opacity:0.2;}
	.st4{fill:url(#SVGID_4_);}
	.st5{fill:#333333;}
	.st6{fill:#FDBF17;}
	.st7{fill:#9618CC;}
	.st8{fill:none;}
	.st9{fill:#1A1A1A;}
	.st10{fill:#BE3084;}
	.st11{fill:#808080;}
	.st12{fill:#666666;}
	.st13{fill:#FFFFFF;}
</style>
<g>
	<g>
		
			<linearGradient id="SVGID_1_" gradientUnits="userSpaceOnUse" x1="485.0896" y1="201.0594" x2="502.4868" y2="600.9819" gradientTransform="matrix(0.9705 -0.2412 0.2412 0.9705 -142.9039 -38.3896)">
			<stop  offset="0" style="stop-color:#5BBCE6"/>
			<stop  offset="0.9982" style="stop-color:#9618CC"/>
		</linearGradient>
		<path class="st0" d="M264.81,373.29c1.98,25.99,36.86,98.42,122.03,36.12c95.05-69.52,107.5-60.8,143.59-63.4
			c51-3.67,127.04-40.65,99.56-160.2C602.52,66.25,523.64,26.84,453.33,57.78c0,0-35.82,15.95-42.21,53.95
			s-24.46,176.8-87.07,200.16C285.75,322.71,262.07,337.37,264.81,373.29z"/>
		
			<linearGradient id="SVGID_2_" gradientUnits="userSpaceOnUse" x1="-1724.3627" y1="124.408" x2="-1426.7587" y2="124.408" gradientTransform="matrix(-0.6174 -0.7867 0.7867 -0.6174 -884.7866 -991.2294)">
			<stop  offset="0" style="stop-color:#FDBF17"/>
			<stop  offset="0.9982" style="stop-color:#9618CC"/>
		</linearGradient>
		<path class="st1" d="M309.45,63.81c-10.65,26.72-26.35,57.4-21.68,94.54c4.67,37.14,2.68,129.48-64.77,172.22
			c-66.25,41.98-164.53-25.82-188.22-55.27C-6.47,224.03-19.74,153.77,59.13,82.78C147.6,3.15,227.89,2.25,247.38,0.32
			C289.03-3.81,321.64,33.24,309.45,63.81z"/>
		<linearGradient id="SVGID_3_" gradientUnits="userSpaceOnUse" x1="78.6994" y1="196.7876" x2="568.539" y2="196.7876">
			<stop  offset="0" style="stop-color:#BE3084"/>
			<stop  offset="0.4714" style="stop-color:#DC7351"/>
			<stop  offset="1" style="stop-color:#FDBF17"/>
		</linearGradient>
		<path class="st2" d="M510.83,248.72c-69.58-5.15-79.03,49.39-146.47,37.37c-0.19-0.13-31.36-8.16-14.74-45.7
			c17.12-35.95,61.96-53.79,88.62-71.13c47.86-31.41,60.5-78.4,47.98-110.04C469.6,17.21,421.71,1.53,381.98,12.06
			c-19.28,5.11-43.17,17.18-68.29,50.25c-22.26,35.3-68.43,34.45-105.58,23.71c-37.45-10.82-55.49-19.41-90.6-6.99
			C83.6,92.39,70.49,120,83.85,153.91c13.36,33.9,40.41,45.64,78.57,39.12c8.91-1.52,42.05-11.2,60.63-17.75
			c75.17-23.62,74.52,10.74,67.43,28.78c-7.85,19.97-26.74,32.09-51.76,57.77c-23.41,23.84-29.2,57.64-11.38,76.24
			c29.31,30.6,79.25,16.11,111.98,12.41c57.47-5.32,79.89,15.61,103.21,24.32c24.16,9.02,42.17,11.19,59.27,9.23
			c41.23-4.72,64.94-26.32,66.63-64.63C570.11,281.8,549.07,251.56,510.83,248.72z"/>
	</g>
	<g class="st3">
		<linearGradient id="SVGID_4_" gradientUnits="userSpaceOnUse" x1="0" y1="283.5535" x2="163.4329" y2="283.5535">
			<stop  offset="0" style="stop-color:#5BBCE6"/>
			<stop  offset="0.9982" style="stop-color:#9618CC"/>
		</linearGradient>
		<path class="st4" d="M90.84,365.74l-5.72-0.03c-0.17-0.04-0.34-0.08-0.51-0.12c-0.32-0.08-0.62-0.15-0.9-0.18
			c-6.14-0.66-11.24-2.44-15.62-5.43c-20.16-13.78-32.64-30.23-38.16-50.28c-0.23-0.84-0.32-0.96-0.78-1.11
			c-5.47-1.71-9.77-5.17-12.8-10.28c-0.15-0.25-0.58-0.57-0.84-0.62c-7.4-1.33-13.23-6.88-14.87-14.14
			c-0.15-0.68-0.29-1.36-0.42-2.05L0,280.39l0.03-9.42c0.03-0.15,0.07-0.3,0.1-0.45c0.06-0.27,0.13-0.54,0.17-0.81
			c1.01-7.88,6.84-14.23,14.52-15.79c0.63-0.13,0.89-0.33,1.19-0.9c2.51-4.88,6.49-8.47,11.84-10.68c0.48-0.2,1.01-0.68,1.19-1.08
			c2.57-5.8,5.4-10.65,8.66-14.8c10.25-13.06,23.06-21.11,38.07-23.92c2.16-0.4,4.37-0.63,6.5-0.84c0.99-0.1,1.97-0.2,2.95-0.32
			l0.14-0.01l5.2,0.01c0.3,0.03,0.6,0.07,0.9,0.11c0.62,0.08,1.24,0.16,1.86,0.2c7.97,0.56,14.79,2.21,20.87,5.04
			c15.16,7.06,26.38,18.64,33.35,34.41c0.3,0.67,0.61,0.97,1.28,1.24c7.16,2.83,11.81,8.05,13.82,15.52
			c0.29,1.07,0.44,2.15,0.59,3.2c0.06,0.46,0.13,0.93,0.2,1.39l0.02,0.19l-0.02,25.54c-0.03,0.15-0.06,0.31-0.09,0.46
			c-0.06,0.28-0.12,0.56-0.16,0.84c-1.19,9.36-6.31,15.75-15.21,18.98c-1.05,0.38-1.41,0.74-1.69,1.7
			c-3.92,13.27-10.73,24.99-20.24,34.82c-6.95,7.19-14.69,12.96-23.01,17.14c-3.93,1.98-8.13,2.89-12.07,3.58L90.84,365.74z
			 M85.48,363.42h5.15c3.74-0.66,7.69-1.52,11.32-3.35c8.09-4.07,15.62-9.68,22.38-16.68c9.24-9.56,15.86-20.96,19.68-33.86
			c0.49-1.66,1.4-2.6,3.13-3.22c8.02-2.91,12.62-8.65,13.7-17.08c0.04-0.35,0.12-0.69,0.19-1.03c0.02-0.1,0.04-0.21,0.07-0.31
			v-25.11c-0.07-0.45-0.14-0.9-0.2-1.35c-0.14-1.02-0.28-1.99-0.53-2.92c-1.81-6.71-5.99-11.41-12.43-13.96
			c-1.25-0.49-2.01-1.23-2.56-2.46c-6.73-15.24-17.56-26.42-32.2-33.24c-5.81-2.71-12.37-4.29-20.05-4.83
			c-0.67-0.05-1.34-0.13-1.98-0.21c-0.27-0.03-0.54-0.07-0.81-0.1h-4.93c-0.97,0.12-1.95,0.21-2.93,0.31
			c-2.09,0.21-4.24,0.43-6.31,0.82c-14.65,2.74-26.64,10.29-36.67,23.07c-3.14,4-5.87,8.68-8.36,14.3c-0.42,0.95-1.39,1.87-2.43,2.3
			c-4.89,2.02-8.38,5.15-10.66,9.59c-0.62,1.2-1.48,1.85-2.79,2.12C8.48,257.58,3.5,263,2.61,270c-0.05,0.38-0.13,0.72-0.21,1.06
			c-0.02,0.09-0.05,0.19-0.07,0.28v8.94l0.16,0.8c0.13,0.66,0.26,1.33,0.41,1.99c1.43,6.34,6.54,11.19,13.01,12.36
			c0.93,0.17,1.93,0.88,2.43,1.72c2.73,4.61,6.6,7.72,11.5,9.25c1.73,0.54,2.09,1.85,2.33,2.71c5.37,19.49,17.55,35.51,37.23,48.97
			c4.05,2.77,8.81,4.42,14.55,5.04c0.43,0.05,0.82,0.14,1.19,0.23C85.26,363.36,85.37,363.39,85.48,363.42z M87.39,356.98
			c-4.88,0-9.71-1.51-14.34-4.52c-14.33-9.32-24.79-21.24-31.1-35.42c-0.78-1.76-1.41-3.54-2.08-5.42
			c-0.31-0.87-0.62-1.76-0.96-2.66l-0.58-1.57h3.64c2.57,0,5.15,0,7.72-0.01c6.8-0.01,13.84-0.03,20.77,0.05
			c2.06,0.02,3.49-0.61,4.9-2.19c2.81-3.14,5.75-6.27,8.6-9.31c1.18-1.25,2.36-2.51,3.54-3.78l0.85-0.91l0.85,0.91
			c1.15,1.23,2.3,2.44,3.44,3.65c2.68,2.83,5.45,5.75,8.03,8.74c1.83,2.13,3.75,2.96,6.63,2.91c6.44-0.13,12.99-0.11,19.32-0.08
			c2.53,0.01,5.07,0.02,7.6,0.02h3.68l-0.57,1.57c-0.25,0.68-0.48,1.35-0.72,2c-0.5,1.41-0.97,2.74-1.52,4.06
			c-6.95,16.7-18.68,29.65-34.85,38.48C95.99,355.82,91.67,356.98,87.39,356.98z M41.68,309.72c0.13,0.38,0.27,0.76,0.4,1.13
			c0.65,1.84,1.26,3.58,2.01,5.25c6.12,13.77,16.3,25.34,30.24,34.41c7.92,5.16,16.5,5.48,24.81,0.94
			c15.7-8.57,27.07-21.14,33.82-37.33c0.53-1.27,0.99-2.57,1.47-3.95c0.05-0.15,0.11-0.3,0.16-0.46h-0.36
			c-2.54,0-5.07-0.01-7.61-0.02c-6.32-0.02-12.85-0.05-19.26,0.08c-3.56,0.08-6.17-1.07-8.45-3.72c-2.54-2.95-5.29-5.85-7.95-8.66
			c-0.87-0.91-1.74-1.83-2.6-2.75c-0.9,0.96-1.8,1.92-2.7,2.88c-2.84,3.02-5.77,6.15-8.56,9.27c-1.86,2.08-3.93,2.99-6.66,2.97
			c-6.91-0.08-13.94-0.06-20.74-0.05c-2.58,0-5.15,0.01-7.73,0.01H41.68z M127.55,300.8c-7.17,0-13.41-0.02-19.38-0.05
			c-1.07-0.01-2.35-0.57-3.11-1.37c-3.15-3.3-6.31-6.7-9.36-9.98c-1.46-1.57-2.91-3.13-4.37-4.7c-1.01-1.08-2.01-1.63-2.98-1.63l0,0
			c-0.95,0-1.94,0.54-2.93,1.6c-1.48,1.58-2.95,3.17-4.42,4.75c-3.04,3.27-6.18,6.65-9.31,9.93c-0.78,0.81-2.11,1.39-3.25,1.4
			c-10.95,0.07-22.12,0.05-31.97,0.04c-8.39-0.01-14.04-5.67-14.05-14.09c-0.01-7.54-0.01-15.08,0-22.63
			c0.01-8.52,5.71-14.25,14.2-14.25c12.32,0,24.64,0,36.95,0l14.78,0l14.78,0c12.32,0,24.64,0,36.95,0c8.5,0,14.22,5.72,14.23,14.22
			c0.01,7.6,0.01,15.19,0,22.79c-0.02,8.2-5.72,13.94-13.86,13.96C135.8,300.79,131.53,300.8,127.55,300.8z M88.35,280.74
			L88.35,280.74c1.64,0,3.21,0.8,4.68,2.37c1.46,1.56,2.92,3.13,4.38,4.7c3.05,3.28,6.2,6.67,9.34,9.96
			c0.32,0.34,0.99,0.64,1.44,0.64c9.27,0.06,19.22,0.07,32.27,0.04c6.78-0.02,11.52-4.8,11.54-11.63c0.01-7.59,0.01-15.19,0-22.78
			c-0.01-7.22-4.68-11.89-11.9-11.89c-12.32,0-24.64,0-36.95,0l-14.78,0l-14.78,0c-12.32,0-24.64,0-36.95,0
			c-7.21,0-11.87,4.68-11.87,11.92c-0.01,7.54-0.01,15.08,0,22.62c0.01,7.03,4.72,11.75,11.72,11.76
			c9.85,0.01,21.01,0.03,31.95-0.04c0.51,0,1.23-0.31,1.58-0.68c3.12-3.27,6.26-6.65,9.29-9.91c1.47-1.59,2.95-3.17,4.43-4.76
			C85.17,281.52,86.72,280.74,88.35,280.74z M15.67,288.86l-1.8-1.16c-3-1.93-4.53-4.32-4.68-7.3c-0.15-3.06-0.15-6.24,0-9.44
			c0.14-2.89,1.66-5.26,4.66-7.26l1.81-1.21V288.86z M13.34,267.1c-1.17,1.18-1.74,2.46-1.82,3.98c-0.15,3.13-0.15,6.23,0,9.21
			c0.08,1.54,0.66,2.86,1.82,4.03V267.1z M138.55,243.16H38.29l0.72-1.64c6.4-14.45,23.76-29.76,44.56-31.04
			c13.17-0.81,24.94,2.19,34.97,8.92c10.16,6.82,16.03,15.77,19.17,22.07L138.55,243.16z M41.91,240.83h92.84
			c-3.18-5.89-8.64-13.55-17.51-19.49c-9.6-6.44-20.88-9.31-33.53-8.53C64.62,213.99,48.56,227.52,41.91,240.83z"/>
	</g>
	<path class="st5" d="M690.23,285.64v0.06c0.01-0.02,0.01-0.04,0.02-0.06H690.23z"/>
	<path class="st5" d="M690.23,274.48v0.06c0.01-0.02,0.01-0.04,0.02-0.06H690.23z"/>
	<g>
		<g>
			<polygon class="st6" points="476.73,143.14 439.54,143.14 439.54,104.96 			"/>
			<g>
				<path class="st7" d="M490.42,105.04v36.01c35.01-2.41,60.4-9.56,60.4-18.01C550.82,114.6,525.43,107.45,490.42,105.04z"/>
				<path class="st7" d="M439.55,104.97c-35.56,2.34-61.48,9.54-61.48,18.08c0,8.53,25.91,15.74,61.48,18.08V104.97z"/>
			</g>
			<g>
				<path d="M378.46,121.3h-0.02v0.05C378.45,121.34,378.45,121.32,378.46,121.3z"/>
				<path d="M464.45,141.93c-45.08,0-82.08-7.55-86-17.18v89.95c19.95,10.53,99.63,29.01,171.91,0.08v-89.76
					C545.86,134.52,509.12,141.93,464.45,141.93z"/>
			</g>
		</g>
		<circle class="st7" cx="450.58" cy="162.54" r="8.62"/>
		<path class="st8" d="M452.93,207.02c0,0-0.01,0-0.01,0L452.93,207.02L452.93,207.02z"/>
		<polygon class="st9" points="452.47,207.72 453.39,207.72 452.93,207.03 		"/>
		<path class="st6" d="M435.08,174.24l-18.84,28.58c11.93,2.44,26.09,4.37,41.57,5.06L435.08,174.24z"/>
		<path class="st6" d="M457.82,207.88c17.05,0.75,35.69-0.02,54.73-3.3l-26.6-39.36L457.82,207.88z"/>
		<g>
			<path class="st6" d="M469.17,208.31c-48.11,0-79.63-12.67-80.08-12.85c-0.23-0.1-0.34-0.36-0.24-0.59
				c0.09-0.23,0.36-0.34,0.59-0.25c0.65,0.27,65.84,26.45,152.15,3.12c0.24-0.07,0.49,0.08,0.55,0.32c0.07,0.24-0.08,0.49-0.32,0.55
				C515.18,205.81,490.54,208.31,469.17,208.31z"/>
		</g>
		<path class="st10" d="M434.29,215.89c17.19,2.25,37.19,3.17,58.23,1.34l-29.92-44.27L434.29,215.89z"/>
		<g>
			<path class="st10" d="M469.17,218.57c-48.11,0-79.63-12.67-80.08-12.85c-0.23-0.1-0.34-0.36-0.24-0.59
				c0.09-0.23,0.36-0.34,0.59-0.25c0.65,0.27,65.84,26.45,152.15,3.12c0.24-0.07,0.49,0.08,0.55,0.32c0.07,0.24-0.08,0.49-0.32,0.55
				C515.18,216.07,490.53,218.57,469.17,218.57z"/>
		</g>
		<g>
			<path class="st11" d="M425.24,167.25c-1.9,0-3.44-1.54-3.44-3.44c0-1.9,1.54-3.44,3.44-3.44c1.89,0,3.44,1.54,3.44,3.44
				C428.67,165.71,427.13,167.25,425.24,167.25z M425.24,160.59c-1.77,0-3.22,1.44-3.22,3.22c0,1.77,1.44,3.22,3.22,3.22
				c1.77,0,3.22-1.44,3.22-3.22C428.46,162.04,427.01,160.59,425.24,160.59z"/>
		</g>
		<g>
			<path class="st12" d="M508.44,165.73c-1.9,0-3.44-1.54-3.44-3.44c0-1.9,1.54-3.44,3.44-3.44c1.9,0,3.44,1.54,3.44,3.44
				C511.88,164.19,510.33,165.73,508.44,165.73z M508.44,159.07c-1.77,0-3.22,1.44-3.22,3.22c0,1.77,1.44,3.22,3.22,3.22
				c1.77,0,3.22-1.44,3.22-3.22C511.66,160.52,510.21,159.07,508.44,159.07z"/>
		</g>
		<g>
			<path class="st11" d="M395.6,151.86c-1.37,0-2.49-1.12-2.49-2.49s1.12-2.49,2.49-2.49c1.37,0,2.49,1.12,2.49,2.49
				S396.98,151.86,395.6,151.86z M395.6,147.04c-1.28,0-2.33,1.04-2.33,2.33c0,1.28,1.04,2.33,2.33,2.33s2.33-1.04,2.33-2.33
				C397.93,148.09,396.89,147.04,395.6,147.04z"/>
		</g>
		<g>
			<path class="st12" d="M531.42,182.25c-1.37,0-2.49-1.12-2.49-2.49c0-1.37,1.12-2.49,2.49-2.49c1.37,0,2.49,1.12,2.49,2.49
				C533.91,181.14,532.79,182.25,531.42,182.25z M531.42,177.44c-1.28,0-2.33,1.04-2.33,2.33c0,1.28,1.04,2.33,2.33,2.33
				c1.28,0,2.33-1.04,2.33-2.33C533.75,178.48,532.71,177.44,531.42,177.44z"/>
		</g>
		<g>
			<path class="st11" d="M403.97,177.25c-0.95,0-1.72-0.77-1.72-1.72s0.77-1.72,1.72-1.72c0.95,0,1.72,0.77,1.72,1.72
				S404.92,177.25,403.97,177.25z M403.97,173.92c-0.89,0-1.61,0.72-1.61,1.61c0,0.89,0.72,1.61,1.61,1.61s1.61-0.72,1.61-1.61
				C405.58,174.64,404.86,173.92,403.97,173.92z"/>
		</g>
		<g>
			<path class="st12" d="M536.48,146.9c-0.95,0-1.72-0.77-1.72-1.72s0.77-1.72,1.72-1.72c0.95,0,1.72,0.77,1.72,1.72
				S537.43,146.9,536.48,146.9z M536.48,143.57c-0.89,0-1.61,0.72-1.61,1.61c0,0.89,0.72,1.61,1.61,1.61s1.61-0.72,1.61-1.61
				C538.09,144.29,537.37,143.57,536.48,143.57z"/>
		</g>
		<path class="st13" d="M464.72,234.08c-7.58,0-14.6-0.31-20.91-0.78c-31.86-2.38-58.24-9.8-69.26-15.68l-0.24-0.13v-94.92
			c-0.25-0.64-0.38-1.28-0.38-1.9c0-0.62,0.13-1.26,0.38-1.9v-0.37l0.17-0.01c3.84-8.11,31.75-15.33,66.6-17.69v-0.71l0.66,0.68H442
			l0,0.26l35.82,37.06c3.67-0.1,4.59-0.18,6.57-0.33c0.73-0.06,1.61-0.13,2.82-0.21v-36.23l0.49,0.03
			c32.29,2.25,67.05,9.29,67.05,19.43c0,0.7-0.16,1.42-0.48,2.14v94.79l-0.29,0.12C522.32,230.54,490.35,234.08,464.72,234.08z
			 M553.35,123.49v-0.75h0.1l-0.13-0.07c0.34-0.69,0.52-1.36,0.52-2c0-8.02-27.6-15.78-65.7-18.48v36.1l-0.43,0.03
			c-1.43,0.1-2.43,0.18-3.24,0.24c-2.03,0.16-2.95,0.23-6.81,0.34l-0.19,0l-0.14-0.13l-35.96-37.19
			c-34.47,2.31-62.92,9.6-66.17,17.41l-0.05,0.11c-0.21,0.53-0.31,1.05-0.31,1.55c0,0.53,0.12,1.08,0.35,1.64l0.03,0.17v94.45
			c11.09,5.82,37.16,13.1,68.66,15.45c27.45,2.05,68.7,1.03,109.46-15.4v-93.12 M438.37,140.17L438.37,140.17c-0.01,0-0.02,0-0.03,0
			 M385.75,130.83l-0.22-0.09"/>
	</g>
	<g class="st3">
		<path class="st13" d="M283.73,314.93c-6.25-0.77-12.07-2.27-17.47-5.17c-3-1.61-5.63-3.68-7.51-6.61c-0.61-0.96-0.61-1.78,0-2.74
			c1.86-2.94,4.51-4.99,7.51-6.61c6.14-3.31,12.79-4.75,19.63-5.51v-2.01c-10.55,1.2-20.51,3.51-28.25,11.78
			c0.09-2.61,1.18-4.79,3.49-6.98c3.86-3.67,8.6-5.75,13.65-7.03c3.62-0.92,7.33-1.52,11.11-2.2v-1.92
			c-1.73,0.2-3.36,0.39-4.98,0.65c-6.58,1.06-12.89,2.94-18.45,6.77c-4.73,3.25-7.58,7.52-7.12,13.53c0.09,1.24,0.06,2.5,0.01,3.75
			c-0.18,4.3,1.54,7.74,4.67,10.59c4.17,3.79,9.19,5.93,14.54,7.35c3.04,0.81,6.15,1.36,9.43,2.06c0,2.61,0,5.17,0,7.73
			c4.32-4.31,8.51-8.49,12.4-12.37c-4.19-4.18-8.43-8.41-12.64-12.61C283.73,309.72,283.73,312.3,283.73,314.93z M285.89,312.16
			c2.64,2.69,5.15,5.24,7.61,7.74c-2.29,2.27-4.84,4.8-7.53,7.47c0-1.55,0-3.06,0-4.17c-5.28-1.38-10.3-2.51-15.21-4.02
			c-3.84-1.18-7.28-3.26-10.1-6.19c-1.98-2.05-3.36-4.42-3.08-7.68c7.53,8.51,17.58,10.57,28.31,12.06
			C285.89,315.48,285.89,313.83,285.89,312.16z"/>
		<path class="st13" d="M323.93,288.76c-4.29-3.62-9.3-5.8-14.69-7.08c-3.43-0.82-6.92-1.37-10.46-1.99l-0.02,2.01
			c3.79,0.73,7.5,1.35,11.11,2.31c5.35,1.42,10.35,3.67,14.24,7.81c1.65,1.75,2.87,3.74,2.92,6.46
			c-7.76-8.47-17.77-10.85-28.32-12.15l-0.02,1.98c2.81,0.46,5.55,0.85,8.23,1.49c6.11,1.46,12.04,3.49,16.57,8.11
			c3.9,3.98,3.74,4.53-0.16,8.47c-3.42,3.45-7.84,5.26-12.42,6.59c-2.66,0.77-5.39,1.33-8.05,1.98c-0.03,3.11-0.06,6.09-0.09,9.27
			c0.97-0.15,1.71-0.25,2.44-0.39c6.29-1.22,12.34-3.08,17.56-6.97c3.25-2.41,5.81-5.38,6.28-9.58c0.25-2.22,0.06-4.49,0.19-6.74
			C329.52,295.53,327.52,291.79,323.93,288.76z M323.94,312.88c-2.33,2-4.9,3.89-7.68,5.16c-3.57,1.64-7.45,2.61-11.19,3.87
			c-0.09-0.19-0.18-0.38-0.27-0.57c-0.03-0.05-0.08-0.11-0.08-0.16c-0.24-4.63-0.23-4.6,4.24-5.74c6.77-1.73,13.08-4.32,17.98-10.05
			C327.22,308.64,326.01,311.11,323.94,312.88z"/>
		<path class="st13" d="M292.35,306.03c1.98,0,3.59-1.61,3.59-3.59v-31.89c0-1.98-1.61-3.59-3.59-3.59s-3.59,1.61-3.59,3.59v31.89
			C288.75,304.42,290.37,306.03,292.35,306.03z M290.37,270.55c0-1.09,0.88-1.97,1.97-1.97s1.97,0.88,1.97,1.97v31.89
			c0,1.09-0.88,1.97-1.97,1.97s-1.97-0.88-1.97-1.97V270.55z"/>
	</g>
	<g class="st3">
		<path class="st13" d="M212.92,145.57h-44.04c-1.52,0-2.75-1.24-2.75-2.75c0-1.52,1.24-2.75,2.75-2.75h13.32v-16.79h-41.12
			c-5.29,0-9.6-4.31-9.6-9.6V51.01c0-5.29,4.31-9.6,9.6-9.6h99.64c5.29,0,9.6,4.31,9.6,9.6v62.67c0,5.29-4.31,9.6-9.6,9.6h-41.12
			v16.79h13.32c1.52,0,2.75,1.24,2.75,2.75C215.68,144.34,214.44,145.57,212.92,145.57z M168.89,141.53c-0.71,0-1.29,0.58-1.29,1.29
			c0,0.71,0.58,1.29,1.29,1.29h44.04c0.71,0,1.29-0.58,1.29-1.29c0-0.71-0.58-1.29-1.29-1.29h-14.78v-18.47
			c0-0.11-0.02-0.22-0.05-0.33l-0.25-0.92h42.87c4.49,0,8.14-3.65,8.14-8.14V51.01c0-4.49-3.65-8.14-8.14-8.14h-99.64
			c-4.49,0-8.14,3.65-8.14,8.14v62.67c0,4.49,3.65,8.14,8.14,8.14h42.87l-0.25,0.92c-0.03,0.11-0.05,0.22-0.05,0.33v18.47H168.89z
			 M195.56,141.53h-9.32v-18.47c0-0.11-0.02-0.22-0.05-0.33l-0.25-0.92h9.9l-0.25,0.92c-0.03,0.11-0.05,0.22-0.05,0.33V141.53z
			 M187.71,140.07h6.39v-16.79h-6.39V140.07z M240.72,118.89h-99.64c-2.87,0-5.21-2.34-5.21-5.21V51.01c0-2.87,2.34-5.21,5.21-5.21
			h99.64c2.87,0,5.21,2.34,5.21,5.21v62.67C245.93,116.55,243.6,118.89,240.72,118.89z M141.09,47.26c-2.07,0-3.75,1.68-3.75,3.75
			v62.67c0,2.07,1.68,3.75,3.75,3.75h99.64c2.07,0,3.75-1.68,3.75-3.75V51.01c0-2.07-1.68-3.75-3.75-3.75H141.09z"/>
	</g>
</g>
</svg>
