<?xml version="1.0" encoding="utf-8"?>
<!-- Generator: Adobe Illustrator 23.0.1, SVG Export Plug-In . SVG Version: 6.00 Build 0)  -->
<svg version="1.1" id="Layer_1" xmlns="http://www.w3.org/2000/svg" xmlns:xlink="http://www.w3.org/1999/xlink" x="0px" y="0px"
	 viewBox="0 0 634 434.04" style="enable-background:new 0 0 634 434.04;" xml:space="preserve">
<style type="text/css">
	.st0{opacity:0.2;fill:url(#SVGID_1_);}
	.st1{opacity:0.1;fill:url(#SVGID_2_);}
	.st2{fill:url(#SVGID_3_);}
	.st3{opacity:0.2;}
	.st4{fill:#FFFFFF;}
	.st5{fill:#FDBF17;}
	.st6{fill:#BE3084;}
	.st7{fill:#9618CC;}
	.st8{fill:#5BBCE6;}
	.st9{opacity:0.2;fill:url(#SVGID_4_);}
</style>
<g>
	<g>
		
			<linearGradient id="SVGID_1_" gradientUnits="userSpaceOnUse" x1="482.6675" y1="204.9484" x2="500.0648" y2="604.8708" gradientTransform="matrix(0.9705 -0.2412 0.2412 0.9705 -143.3056 -42.748)">
			<stop  offset="0" style="stop-color:#5BBCE6"/>
			<stop  offset="0.9982" style="stop-color:#9618CC"/>
		</linearGradient>
		<path class="st0" d="M263,373.29c1.98,25.99,36.86,98.42,122.03,36.12c95.05-69.52,107.5-60.8,143.59-63.4
			c51-3.67,127.04-40.65,99.56-160.2C600.7,66.25,521.83,26.84,451.52,57.78c0,0-35.82,15.95-42.21,53.95s-24.46,176.8-87.07,200.16
			C283.94,322.71,260.26,337.37,263,373.29z"/>
		
			<linearGradient id="SVGID_2_" gradientUnits="userSpaceOnUse" x1="-1752.7836" y1="136.2724" x2="-1455.1794" y2="136.2724" gradientTransform="matrix(-0.6174 -0.7867 0.7867 -0.6174 -913.4809 -1006.2617)">
			<stop  offset="0" style="stop-color:#FDBF17"/>
			<stop  offset="0.9982" style="stop-color:#9618CC"/>
		</linearGradient>
		<path class="st1" d="M307.64,63.81c-10.65,26.72-26.35,57.4-21.68,94.54c4.67,37.14,2.68,129.48-64.77,172.22
			c-66.25,41.98-164.53-25.82-188.22-55.27C-8.29,224.03-21.55,153.77,57.32,82.78C145.79,3.15,226.08,2.25,245.57,0.32
			C287.22-3.81,319.83,33.24,307.64,63.81z"/>
		<linearGradient id="SVGID_3_" gradientUnits="userSpaceOnUse" x1="76.8851" y1="196.7876" x2="566.7247" y2="196.7876">
			<stop  offset="0" style="stop-color:#BE3084"/>
			<stop  offset="0.4714" style="stop-color:#DC7351"/>
			<stop  offset="1" style="stop-color:#FDBF17"/>
		</linearGradient>
		<path class="st2" d="M509.02,248.72c-69.58-5.15-79.03,49.39-146.47,37.37c-0.19-0.13-31.36-8.16-14.74-45.7
			c17.12-35.95,61.96-53.79,88.62-71.13c47.86-31.41,60.5-78.4,47.98-110.04c-16.63-42.01-64.52-57.69-104.25-47.16
			c-19.28,5.11-43.17,17.18-68.29,50.25c-22.26,35.3-68.43,34.45-105.58,23.71c-37.45-10.82-55.49-19.41-90.6-6.99
			C81.78,92.39,68.68,120,82.04,153.91c13.36,33.9,40.41,45.64,78.57,39.12c8.91-1.52,42.05-11.2,60.63-17.75
			c75.17-23.62,74.52,10.74,67.43,28.78c-7.85,19.97-26.74,32.09-51.76,57.77c-23.41,23.84-29.2,57.64-11.38,76.24
			c29.31,30.6,79.25,16.11,111.98,12.41c57.47-5.32,79.89,15.61,103.21,24.32c24.16,9.02,42.17,11.19,59.27,9.23
			c41.23-4.72,64.94-26.32,66.63-64.63C568.29,281.8,547.25,251.56,509.02,248.72z"/>
	</g>
	<g class="st3">
		<path class="st4" d="M297.4,331.36h-41.33v-41.33h41.33V331.36z M258.04,329.39h37.39V292h-37.39V329.39z M280.5,325.57h-7.47
			v-5.63l-3.59,0.02v5.6H262v-7.56l5.49-0.02v-3.53h-5.5v-7.47h5.44v-3.56h-5.43v-7.47h29.62v18.46H286l0.02,3.6h5.6v7.57h-7.56
			l-0.02-5.62h-3.53V325.57z M275,323.6h3.54v-5.63h5.5v-5.54h5.63V297.9h-25.69v3.53h5.43v7.5h-5.44v3.54h5.5v5.5H275V323.6z
			 M286.02,323.59h3.63v-3.64h-3.63V323.59z M263.97,323.59h3.5v-3.63h-3.5V323.59z"/>
	</g>
	<g>
		<g>
			<rect x="382.42" y="129.97" class="st5" width="143.07" height="77.75"/>
			<g>
				<path class="st4" d="M439.44,162.39c0-3.88-2.98-7.06-6.78-7.38c-0.83-3.19-3.72-5.55-7.17-5.55c-1.25,0-2.43,0.31-3.46,0.86
					c-1.57-2.85-4.6-4.79-8.09-4.79c-5.1,0-9.23,4.13-9.23,9.23c0,0.34,0.02,0.67,0.06,1c-2.6,1.15-4.41,3.75-4.41,6.77
					c0.34,6.78,6.25,7.41,6.25,7.41h26.62C433.23,169.95,439.85,169.17,439.44,162.39z"/>
				<path class="st5" d="M406.47,162.85c0-1.96,1.17-3.64,2.86-4.38c-0.02-0.21-0.04-0.43-0.04-0.65c0-2.89,2.06-5.31,4.79-5.85
					c-0.38-0.08-0.77-0.12-1.18-0.12c-3.3,0-5.97,2.67-5.97,5.97c0,0.22,0.01,0.43,0.04,0.65c-1.68,0.74-2.86,2.43-2.86,4.38
					c0.22,4.39,4.04,4.8,4.04,4.8h2.35C410.51,167.64,406.69,167.23,406.47,162.85z"/>
			</g>
			<path class="st6" d="M424.84,188c0-3.89,0.05-7.59-0.02-11.27c-0.03-1.69,0.52-2.95,1.75-4.12c8.55-8.07,17.04-16.18,25.56-24.28
				c2.24-2.13,4.22-2.14,6.45-0.03c8.65,8.14,17.28,16.29,25.94,24.41c1.13,1.06,1.67,2.27,1.65,3.81
				c-0.03,3.33-0.01,6.66-0.01,9.98c0,0.44,0,0.88,0,1.45c5.28,0,10.44,0,15.69,0c0,2.48,0,4.84,0,7.36c-1.76,0-3.53,0-5.39,0
				c0,5.85,0,11.54,0,17.35c0.48,0.02,0.92,0.06,1.36,0.06c4.97,0,9.94,0,14.92,0c2.99,0,4.46,1.46,4.46,4.46
				c0.01,15,0.01,30,0,44.99c0,2.84-1.39,4.19-4.27,4.19c-38.42,0-76.84,0-115.26,0c-2.71,0-4.14-1.38-4.14-4.08
				c-0.01-15.16-0.01-30.33,0-45.49c0-2.69,1.42-4.08,4.14-4.08c5.01-0.01,10.03,0,15.04,0c0.48,0,0.97,0,1.54,0
				c0-5.81,0-11.5,0-17.35c-1.8,0-3.57,0-5.4,0c0-2.53,0-4.89,0-7.37C414.17,188,419.42,188,424.84,188z M435.9,259.19
				c0-0.47,0-0.87,0-1.26c0-8.59,0-17.18,0.01-25.77c0-3.18,1.29-4.46,4.51-4.46c10.03-0.01,20.06,0,30.09,0
				c2.99,0,4.35,1.36,4.35,4.38c0,8.51,0,17.02,0,25.52c0,0.44,0,0.87,0,1.32c4.7,0,9.24,0,13.81,0c0-21.12,0-42.17,0-63.25
				c-22.25,0-44.39,0-66.6,0c0,21.2,0,42.34,0,63.52C426.7,259.19,431.24,259.19,435.9,259.19z M478.53,188.18
				c0-3.44,0.02-6.76-0.03-10.08c0-0.33-0.35-0.71-0.63-0.98c-7.18-6.88-14.38-13.74-21.57-20.61c-0.29-0.28-0.6-0.52-0.94-0.81
				c-0.36,0.33-0.67,0.59-0.97,0.87c-6.27,5.99-12.43,12.1-18.87,17.91c-2.5,2.26-3.82,4.52-3.35,7.91
				c0.26,1.88,0.05,3.83,0.05,5.79C447.71,188.18,463.03,188.18,478.53,188.18z M443.36,235.12c0,7.97,0,15.86,0,23.78
				c8.06,0,16.04,0,24.01,0c0-7.98,0-15.88,0-23.78C459.32,235.12,451.37,235.12,443.36,235.12z M414.28,258.91
				c0-12.88,0-25.64,0-38.48c-4.48,0-8.89,0-13.31,0c0,12.87,0,25.63,0,38.48C405.41,258.91,409.79,258.91,414.28,258.91z
				 M509.8,258.93c0-12.9,0-25.66,0-38.5c-4.45,0-8.86,0-13.32,0c0,12.87,0,25.66,0,38.5C500.93,258.93,505.31,258.93,509.8,258.93z
				"/>
			<path class="st4" d="M435.9,259.19c-4.66,0-9.2,0-13.83,0c0-21.18,0-42.32,0-63.52c22.21,0,44.35,0,66.6,0
				c0,21.08,0,42.12,0,63.25c-4.57,0-9.11,0-13.81,0c0-0.45,0-0.89,0-1.32c0-8.51,0-17.02,0-25.52c0-3.02-1.36-4.38-4.35-4.38
				c-10.03,0-20.06,0-30.09,0c-3.22,0-4.51,1.28-4.51,4.46c-0.01,8.59,0,17.18-0.01,25.77C435.9,258.32,435.9,258.72,435.9,259.19z
				 M431.77,208.58c0,2.44,0,4.81,0,7.17c2.46,0,4.85,0,7.26,0c0-2.44,0-4.76,0-7.17C436.58,208.58,434.18,208.58,431.77,208.58z
				 M459.01,208.6c-2.48,0-4.87,0-7.24,0c0,2.47,0,4.82,0,7.17c2.46,0,4.82,0,7.24,0C459.01,213.37,459.01,211.04,459.01,208.6z
				 M471.49,208.58c0,2.44,0,4.8,0,7.17c2.47,0,4.85,0,7.26,0c0-2.44,0-4.76,0-7.17C476.3,208.58,473.9,208.58,471.49,208.58z"/>
			<path class="st4" d="M478.53,188.18c-15.51,0-30.83,0-46.31,0c0-1.96,0.22-3.91-0.05-5.79c-0.47-3.39,0.85-5.66,3.35-7.91
				c6.44-5.8,12.6-11.92,18.87-17.91c0.29-0.28,0.6-0.54,0.97-0.87c0.34,0.29,0.65,0.54,0.94,0.81c7.2,6.87,14.39,13.73,21.57,20.61
				c0.28,0.27,0.63,0.65,0.63,0.98C478.55,181.42,478.53,184.74,478.53,188.18z M458.99,179.25c0-2.5,0-4.86,0-7.23
				c-2.47,0-4.86,0-7.23,0c0,2.46,0,4.82,0,7.23C454.2,179.25,456.56,179.25,458.99,179.25z"/>
			<path class="st4" d="M443.36,235.12c8.01,0,15.96,0,24.01,0c0,7.9,0,15.8,0,23.78c-7.98,0-15.96,0-24.01,0
				C443.36,250.99,443.36,243.09,443.36,235.12z"/>
			<path class="st4" d="M414.28,258.91c-4.49,0-8.87,0-13.31,0c0-12.84,0-25.61,0-38.48c4.42,0,8.83,0,13.31,0
				C414.28,233.27,414.28,246.04,414.28,258.91z"/>
			<path class="st4" d="M509.8,258.93c-4.49,0-8.87,0-13.32,0c0-12.85,0-25.63,0-38.5c4.47,0,8.87,0,13.32,0
				C509.8,233.27,509.8,246.03,509.8,258.93z"/>
			<g>
				<path class="st4" d="M474.33,153.24c0-3.88,2.98-7.06,6.78-7.38c0.83-3.19,3.72-5.55,7.17-5.55c1.25,0,2.43,0.31,3.46,0.86
					c1.57-2.85,4.6-4.79,8.09-4.79c5.1,0,9.23,4.13,9.23,9.23c0,0.34-0.02,0.67-0.06,1c2.6,1.15,4.41,3.75,4.41,6.77
					c-0.34,6.78-6.25,7.41-6.25,7.41h-26.62C480.54,160.79,473.92,160.02,474.33,153.24z"/>
				<path class="st5" d="M505.51,148.4c0.03-0.25,0.04-0.51,0.04-0.77c0-3.91-3.17-7.08-7.08-7.08c-2.39,0-4.5,1.19-5.78,3
					c1.15-0.81,2.55-1.28,4.06-1.28c3.91,0,7.08,3.17,7.08,7.08c0,0.26-0.02,0.52-0.04,0.77c1.99,0.88,3.39,2.88,3.39,5.2
					c-0.07,1.34-0.42,2.36-0.91,3.15c1.21-0.75,2.49-2.17,2.63-4.87C508.89,151.28,507.5,149.28,505.51,148.4z"/>
			</g>
			<g>
				<path class="st7" d="M379.37,216.39c-6.38,0-11.58-5.19-11.58-11.58v-72.97c0-6.38,5.19-11.58,11.58-11.58h156.87
					c4.57,0,8.29,3.72,8.29,8.29v82.09c0,3.17-2.58,5.75-5.75,5.75H379.37z M524.34,206.57v-75.45H383.57v75.45H524.34z"/>
				<path d="M536.24,121.42c3.94,0,7.14,3.19,7.14,7.14v82.09c0,2.54-2.06,4.6-4.6,4.6H379.37c-5.76,0-10.42-4.67-10.42-10.42
					v-72.97c0-5.76,4.67-10.42,10.42-10.42H536.24 M382.42,207.72h143.07v-77.75H382.42V207.72 M536.24,119.11H379.37
					c-7.02,0-12.73,5.71-12.73,12.73v72.97c0,7.02,5.71,12.73,12.73,12.73h159.41c3.8,0,6.9-3.1,6.9-6.9v-82.09
					C545.68,123.35,541.44,119.11,536.24,119.11L536.24,119.11z M384.73,132.27h138.46v73.15H384.73V132.27L384.73,132.27z"/>
			</g>
			<circle class="st4" cx="375.68" cy="140.85" r="3.11"/>
			<circle class="st4" cx="375.94" cy="150.44" r="1.9"/>
			<path class="st4" d="M534.61,180.17L534.61,180.17c-2.44,0-4.42-1.98-4.42-4.42v-13.91c0-2.44,1.98-4.42,4.42-4.42l0,0
				c2.44,0,4.42,1.98,4.42,4.42v13.91C539.03,178.19,537.05,180.17,534.61,180.17z"/>
			<circle class="st8" cx="455.67" cy="176.01" r="7.03"/>
			<path class="st5" d="M407.81,249.32c1.21,0,2.19,0.98,2.19,2.19s-0.98,2.19-2.19,2.19c-1.21,0-2.19-0.98-2.19-2.19
				S406.6,249.32,407.81,249.32 M407.81,247.78c-2.06,0-3.73,1.67-3.73,3.73c0,2.06,1.67,3.73,3.73,3.73c2.06,0,3.73-1.67,3.73-3.73
				C411.54,249.46,409.87,247.78,407.81,247.78L407.81,247.78z"/>
			<path class="st5" d="M407.81,239.26c1.21,0,2.19,0.98,2.19,2.19s-0.98,2.19-2.19,2.19c-1.21,0-2.19-0.98-2.19-2.19
				S406.6,239.26,407.81,239.26 M407.81,237.72c-2.06,0-3.73,1.67-3.73,3.73c0,2.06,1.67,3.73,3.73,3.73c2.06,0,3.73-1.67,3.73-3.73
				C411.54,239.39,409.87,237.72,407.81,237.72L407.81,237.72z"/>
			<path class="st5" d="M407.81,229.19c1.21,0,2.19,0.98,2.19,2.19s-0.98,2.19-2.19,2.19c-1.21,0-2.19-0.98-2.19-2.19
				S406.6,229.19,407.81,229.19 M407.81,227.66c-2.06,0-3.73,1.67-3.73,3.73c0,2.06,1.67,3.73,3.73,3.73c2.06,0,3.73-1.67,3.73-3.73
				C411.54,229.33,409.87,227.66,407.81,227.66L407.81,227.66z"/>
			<path class="st5" d="M503.12,249.32c1.21,0,2.19,0.98,2.19,2.19s-0.98,2.19-2.19,2.19c-1.21,0-2.19-0.98-2.19-2.19
				S501.91,249.32,503.12,249.32 M503.12,247.78c-2.06,0-3.73,1.67-3.73,3.73c0,2.06,1.67,3.73,3.73,3.73
				c2.06,0,3.73-1.67,3.73-3.73C506.85,249.46,505.17,247.78,503.12,247.78L503.12,247.78z"/>
			<path class="st5" d="M503.12,239.26c1.21,0,2.19,0.98,2.19,2.19s-0.98,2.19-2.19,2.19c-1.21,0-2.19-0.98-2.19-2.19
				S501.91,239.26,503.12,239.26 M503.12,237.72c-2.06,0-3.73,1.67-3.73,3.73c0,2.06,1.67,3.73,3.73,3.73
				c2.06,0,3.73-1.67,3.73-3.73C506.85,239.39,505.17,237.72,503.12,237.72L503.12,237.72z"/>
			<path class="st5" d="M503.12,229.19c1.21,0,2.19,0.98,2.19,2.19s-0.98,2.19-2.19,2.19c-1.21,0-2.19-0.98-2.19-2.19
				S501.91,229.19,503.12,229.19 M503.12,227.66c-2.06,0-3.73,1.67-3.73,3.73c0,2.06,1.67,3.73,3.73,3.73
				c2.06,0,3.73-1.67,3.73-3.73C506.85,229.33,505.17,227.66,503.12,227.66L503.12,227.66z"/>
			<rect x="440.79" y="233.81" class="st6" width="29.1" height="26.43"/>
			<g>
				<path d="M429.69,273.54v-50.29h50.29v50.29H429.69z M456.2,262.87v-6.64l6.48,0v-6.54h6.64v-15.62h-28.79v2.65h6.41v10.37h-6.42
					v2.66H447v6.49h6.54v6.64H456.2z M469.31,262.86v-2.77h-2.77v2.77H469.31z M443.14,262.85v-2.77h-2.62v2.77H443.14z"/>
				<path class="st4" d="M478.06,225.17c0,15.45,0,30.92,0,46.45c-15.51,0-30.96,0-46.45,0c0-15.49,0-30.93,0-46.45
					C447.07,225.17,462.54,225.17,478.06,225.17 M438.61,238.63c2.17,0,4.28,0,6.41,0c0,2.19,0,4.31,0,6.53c-2.18,0-4.31,0-6.43,0
					c0,2.19,0,4.3,0,6.5c2.17,0,4.3,0,6.49,0c0,2.22,0,4.35,0,6.49c-0.01,0-0.01,0-0.02,0c0,0.01,0,0.01,0,0.02
					c-2.15,0-4.3,0-6.46,0c0,2.26,0,4.44,0,6.61c2.18,0,4.3,0,6.46,0c0-2.24,0-4.42,0-6.61c0.01,0,0.01,0,0.02,0
					c0-0.01,0-0.01,0-0.02c2.15,0,4.3,0,6.54,0c0,2.3,0,4.48,0,6.64c2.19,0,4.3,0,6.5,0c0-2.22,0-4.4,0-6.64c2.22,0,4.35,0,6.49,0
					c0,0.01,0,0.01,0,0.02c0.01,0,0.01,0,0.02,0c0,2.2,0,4.4,0,6.61c2.26,0,4.44,0,6.61,0c0-2.23,0-4.41,0-6.61
					c-2.24,0-4.42,0-6.61,0c0-0.01,0-0.01,0-0.02c-0.01,0-0.01,0-0.02,0c0-2.15,0-4.31,0-6.54c2.3,0,4.48,0,6.64,0
					c0-6.54,0-12.99,0-19.46c-10.91,0-21.77,0-32.63,0C438.61,234.32,438.61,236.45,438.61,238.63 M481.9,221.33h-3.84h-46.45h-3.84
					v3.84v46.45v3.84h3.84h46.45h3.84v-3.84v-46.45V221.33L481.9,221.33z M448.86,235.98h18.55v11.78h-2.8h-3.84v3.84v2.7h-2.65
					h-2.66v0h-3.84h-2.7v-2.65v-3.84h-0.06v-2.66v-6.53V235.98L448.86,235.98z"/>
			</g>
			<polygon class="st4" points="468.08,247.27 463.59,250.3 462.13,256.24 447.83,255.39 447.83,234.66 468.38,234.66 			"/>
		</g>
		<g>
			<path class="st4" d="M484.7,282.4h-59.93v-9.81l-31.7,0c-3.37,0-5.23-1.84-5.23-5.16c-0.01-15.84-0.01-28.7,0-44.44h-14.52
				c-8.03,0-14.5-9.61-14.5-17.57v-78.73c0-8,6.51-14.5,14.5-14.5h169.24c6.04,0,10.95,4.91,10.95,10.95v88.57
				c0,4.44-3.53,11.28-8.21,11.28h-22.5c0.01,15.7,0.01,28.52,0,44.32c0,3.51-1.81,5.28-5.38,5.28l-32.73,0V282.4z M426.3,280.86
				h56.86v-9.81l34.26,0c2.69,0,3.84-1.12,3.84-3.75c0.01-16.05,0.01-29.03,0-45.08l0-0.77h24.03c3.62,0,6.68-5.99,6.68-9.75v-88.57
				c0-5.19-4.22-9.42-9.42-9.42H373.31c-7.15,0-12.96,5.82-12.96,12.96v78.73c0,7.22,5.98,16.04,12.96,16.04h16.06l0,0.77
				c-0.01,16.09-0.01,29.11,0,45.21c0,2.48,1.18,3.63,3.7,3.63l33.23,0V280.86z"/>
		</g>
	</g>
	<g class="st3">
		<path class="st4" d="M164.53,89.66c1.64,2.98,5.94,4.53,9.12,6.64c4.12,2.73,8.28,5.4,12.85,8.37c0-6.45,0.02-12.36-0.01-18.27
			c-0.02-3.82,1.12-8.31-0.51-11.28c-1.63-2.97-6.02-4.44-9.23-6.53c-4.06-2.65-8.13-5.26-12.66-8.18c0,6.44-0.01,12.34,0,18.24
			C164.11,82.38,162.95,86.78,164.53,89.66z M165.89,82.28c0.1-1.2,0.21-2.44,0.21-3.64c-0.01-4.11-0.01-8.22-0.01-12.51l0-2.06
			c0.33,0.21,0.66,0.43,0.99,0.64c2.96,1.91,5.78,3.72,8.58,5.55c1.02,0.67,2.14,1.27,3.21,1.84c2.21,1.18,4.49,2.41,5.35,3.98
			c0.86,1.57,0.65,4.16,0.45,6.67c-0.1,1.21-0.2,2.45-0.19,3.66c0.02,4.11,0.02,8.2,0.01,12.52c0,0.68,0,1.36,0,2.05
			c-0.34-0.22-0.69-0.45-1.03-0.67c-3.02-1.96-5.87-3.8-8.71-5.69c-0.98-0.65-2.05-1.24-3.08-1.82c-2.21-1.23-4.5-2.5-5.39-4.12
			C165.47,87.21,165.68,84.7,165.89,82.28z"/>
		<path class="st4" d="M190.47,77.64c0.14,8.05,0.05,16.1,0.06,24.15c0,0.8,0.09,1.6,0.16,2.79c7.32-4.78,14.28-9.31,21.2-13.91
			c0.52-0.35,0.99-1.22,0.99-1.84c0.06-9.28,0.04-18.56,0.04-28.51c-7.06,4.6-13.5,8.89-20.05,13
			C191.15,74.41,190.44,75.54,190.47,77.64z M193.95,75.01c4.75-2.99,9.41-6.04,14.35-9.28c0.87-0.57,1.75-1.15,2.64-1.73l0,2.03
			c0,7.85,0.01,15.27-0.04,22.72c-0.02,0.08-0.09,0.21-0.15,0.28c-5.5,3.66-10.98,7.23-16.77,11.02l-1.44,0.94
			c0-2.15,0-4.29,0.01-6.44c0.01-5.55,0.03-11.29-0.07-16.95C192.45,76.28,192.74,75.77,193.95,75.01z"/>
		<path class="st4" d="M188.27,71.02c0.59,0,1.31-0.21,1.77-0.49c2.95-1.79,5.8-3.72,8.68-5.61c4.06-2.66,8.11-5.33,12.48-8.2
			c-7.8-5.1-15.22-9.95-22.7-14.84c-7.5,4.91-14.91,9.76-22.68,14.85c7.47,4.89,14.56,9.57,21.73,14.12
			C187.73,70.97,187.99,71.02,188.27,71.02z M169.48,56.73l8.51-5.57l10.52-6.89l3.89,2.54l15.16,9.91l-1.4,0.92
			c-2.91,1.91-5.72,3.76-8.53,5.6c-0.69,0.45-1.38,0.91-2.07,1.37c-2.13,1.41-4.34,2.87-6.55,4.21c-0.12,0.07-0.41,0.16-0.62,0.19
			c-5.61-3.57-11.12-7.18-16.95-11L169.48,56.73z"/>
		<path class="st4" d="M135.89,67.82c-3.92,0.01-4.13,0.21-4.13,4.03c0,15.83,0,31.67,0,47.5c0,3.55-0.13,7.11,0.1,10.65
			c0.06,0.95,1.12,2.54,1.86,2.63c1.22,0.14,2.45,0.18,3.69,0.18c1.5,0,3.01-0.06,4.52-0.06c0-21.8,0-43.18,0-64.94
			c-1.37,0-2.63,0-3.83,0C137.35,67.82,136.62,67.82,135.89,67.82z M139.93,69.82v60.97c-0.1,0-0.2,0-0.3,0.01
			c-0.74,0.01-1.48,0.03-2.22,0.03c-1.21,0-2.21-0.04-3.1-0.13c-0.19-0.23-0.43-0.64-0.46-0.85c-0.16-2.48-0.13-5.09-0.11-7.61
			c0.01-0.96,0.02-1.92,0.02-2.87l0-8.03c0-13.16,0-26.32,0-39.48c0-0.47,0-1.45,0.07-1.96c0.51-0.08,1.53-0.08,2.06-0.08
			c0.73,0,1.46,0,2.2,0l1.79,0H139.93z"/>
		<path class="st4" d="M245.26,112.75c0-13.72,0-27.45,0-41.17c0-3.48-0.29-3.75-3.81-3.76c-0.76,0-1.51,0-2.28,0
			c-1.28,0-2.6,0-4.03,0c0,21.8,0,43.25,0,65c1.44,0,2.81-0.03,4.17-0.03c0.86,0,1.7,0.01,2.55,0.04c0.11,0,0.22,0.01,0.32,0.01
			c2.19,0,3.16-0.97,3.11-3.39C245.18,123.89,245.26,118.32,245.26,112.75z M243.12,130.69c0,0-0.19,0.15-0.94,0.15
			c-0.08,0-0.16,0-0.24,0c-0.78-0.03-1.62-0.05-2.63-0.05c-0.67,0-1.35,0.01-2.04,0.01c-0.04,0-0.09,0-0.13,0V69.82l0.13,0l1.9,0
			c0.77,0,1.52,0,2.28,0c0.34,0,1.26,0,1.75,0.07c0.07,0.48,0.07,1.36,0.07,1.69c0,10.67,0,21.33,0,32l0,9.17
			c0,1.63-0.01,3.26-0.01,4.89c-0.02,3.88-0.03,7.89,0.05,11.85C243.31,130.3,243.17,130.63,243.12,130.69z"/>
		<path class="st4" d="M216.84,89.37c0.02,1.79-0.42,3.02-2.03,4.05c-8.08,5.17-16.09,10.43-24.09,15.72
			c-0.82,0.54-1.59,0.81-2.35,0.81c-0.79,0-1.57-0.29-2.41-0.84c-7.92-5.23-15.92-10.34-23.77-15.68c-1.03-0.7-1.84-2.44-1.88-3.72
			c-0.19-6.23-0.08-12.47-0.09-18.71c0-1.01-0.09-2.01-0.14-2.98c-4.88,0-9.44,0-13.95,0c0,21.65,0,43.09,0,64.61
			c28.4,0,56.56,0,84.87,0c0-21.58,0-42.96,0-64.65c-4.78,0-9.34,0-14.19,0C216.81,75.21,216.76,82.29,216.84,89.37z M188.51,113.56
			c3.71,0,6.72,3.01,6.72,6.72s-3.01,6.72-6.72,6.72c-3.71,0-6.72-3.01-6.72-6.72S184.81,113.56,188.51,113.56z M218.8,73.84
			c0-1.29,0-2.57,0.01-3.87h10.19v60.65h-80.87V70.02h10.06c0.02,0.33,0.03,0.66,0.03,0.99c0,1.81,0,3.62-0.01,5.44
			c-0.02,4.37-0.03,8.88,0.1,13.33c0.05,1.7,1.04,4.14,2.76,5.31c5.16,3.51,10.46,6.97,15.59,10.31c2.74,1.79,5.48,3.58,8.21,5.38
			c0.68,0.45,1.35,0.75,2.01,0.94c-4.02,0.77-7.08,4.31-7.08,8.56c0,4.81,3.91,8.72,8.72,8.72s8.72-3.91,8.72-8.72
			c0-4.31-3.14-7.88-7.25-8.59c0.61-0.19,1.22-0.48,1.84-0.89c9.65-6.38,17.07-11.23,24.07-15.71c2.65-1.7,2.97-3.97,2.95-5.76
			C218.78,84.2,218.79,79.17,218.8,73.84z"/>
		<path class="st4" d="M251.29,71.28c0-6.27-3.24-9.45-9.61-9.46c-2.92,0-5.84-0.01-8.75-0.01l-6.35,0l-6.35,0h-0.15h-1.3
			c-0.02-1.01-0.04-1.9,0.05-2.73c0.32-2.93-0.79-5.09-3.47-6.78c-8.34-5.27-16.35-10.58-23.08-15.07c-1.28-0.85-2.42-1.25-3.6-1.25
			c-1.17,0-2.33,0.4-3.55,1.23c-5.95,4.04-12.3,8.31-18.71,12.22l-0.39,0.24c-4.07,2.48-9.02,5.49-7.9,12.15h-1.32l-6.49,0l-6.68,0
			c-2.81,0-5.62,0-8.43,0.01c-6.45,0.01-9.45,3.03-9.46,9.52c0,19.2,0,38.4,0,57.6c0,6.99,2.74,9.71,9.77,9.72
			c13.28,0,26.56,0.01,39.84,0.01c22.24,0,44.47,0,66.71-0.01c6.12,0,9.23-3.09,9.23-9.19C251.3,111.98,251.3,92.94,251.29,71.28z
			 M249.29,129.46c0,4.98-2.23,7.19-7.24,7.19c-22.24,0.01-44.47,0.01-66.71,0.01c-13.28,0-26.56,0-39.83-0.01
			c-5.92,0-7.77-1.87-7.77-7.72c0-19.2,0-38.4,0-57.6c0-5.43,2.07-7.51,7.46-7.52c2.81,0,5.62-0.01,8.43-0.01c4.39,0,8.78,0,13.17,0
			c1.03,0,2.07,0,3.92,0c-2.6-7.24,2.06-9.82,6.74-12.68c6.38-3.9,12.6-8.07,18.79-12.27c0.89-0.6,1.66-0.89,2.43-0.89
			c0.8,0,1.59,0.31,2.49,0.91c7.66,5.11,15.34,10.18,23.13,15.1c1.97,1.24,2.8,2.61,2.55,4.88c-0.16,1.51-0.03,3.05-0.03,4.95
			c1.22,0,2.25,0,3.27,0c0.05,0,0.1,0,0.15,0c4.23,0,8.47,0,12.7,0c2.92,0,5.83,0,8.75,0.01c5.3,0.01,7.61,2.26,7.61,7.46
			C249.3,90.67,249.3,110.06,249.29,129.46z"/>
		<path class="st4" d="M170.35,111.56c-4.81,0-8.72,3.91-8.72,8.72c0,4.81,3.91,8.72,8.72,8.72c4.81,0,8.72-3.91,8.72-8.72
			C179.07,115.47,175.16,111.56,170.35,111.56z M170.35,127c-3.71,0-6.72-3.01-6.72-6.72s3.01-6.72,6.72-6.72s6.72,3.01,6.72,6.72
			S174.05,127,170.35,127z"/>
		<path class="st4" d="M170.35,115.6c-2.58,0-4.68,2.1-4.68,4.68c0,2.58,2.1,4.68,4.68,4.68c2.58,0,4.68-2.1,4.68-4.68
			C175.02,117.7,172.93,115.6,170.35,115.6z M170.35,122.96c-1.48,0-2.68-1.2-2.68-2.68c0-1.48,1.2-2.68,2.68-2.68
			s2.68,1.2,2.68,2.68C173.02,121.76,171.82,122.96,170.35,122.96z"/>
		<path class="st4" d="M188.51,124.96c2.58,0,4.68-2.1,4.68-4.68c0-2.58-2.1-4.68-4.68-4.68s-4.68,2.1-4.68,4.68
			C183.84,122.86,185.94,124.96,188.51,124.96z M188.51,117.6c1.48,0,2.68,1.2,2.68,2.68c0,1.48-1.2,2.68-2.68,2.68
			c-1.48,0-2.68-1.2-2.68-2.68C185.84,118.81,187.04,117.6,188.51,117.6z"/>
		<path class="st4" d="M206.68,115.6c-2.58,0-4.68,2.1-4.68,4.68c0,2.58,2.1,4.68,4.68,4.68c2.58,0,4.68-2.1,4.68-4.68
			C211.36,117.7,209.26,115.6,206.68,115.6z M206.68,122.96c-1.48,0-2.68-1.2-2.68-2.68c0-1.48,1.2-2.68,2.68-2.68
			c1.48,0,2.68,1.2,2.68,2.68C209.36,121.76,208.16,122.96,206.68,122.96z"/>
		<path class="st4" d="M206.68,111.56c-4.81,0-8.72,3.91-8.72,8.72c0,4.81,3.91,8.72,8.72,8.72c4.81,0,8.72-3.91,8.72-8.72
			C215.4,115.47,211.49,111.56,206.68,111.56z M206.68,127c-3.71,0-6.72-3.01-6.72-6.72s3.01-6.72,6.72-6.72
			c3.7,0,6.72,3.01,6.72,6.72S210.39,127,206.68,127z"/>
	</g>
	<linearGradient id="SVGID_4_" gradientUnits="userSpaceOnUse" x1="21.2754" y1="288.2182" x2="164.4548" y2="288.2182">
		<stop  offset="0" style="stop-color:#5BBCE6"/>
		<stop  offset="0.9982" style="stop-color:#9618CC"/>
	</linearGradient>
	<path class="st9" d="M159.64,284.26c-1.78-2.25-1.88-4.7-1.85-8.48c0.06-6.88,0.04-13.84,0.01-20.58c0-0.35,0-0.7-0.01-1.05
		c-0.04-3.82,0.03-6.28,1.83-8.56l4.78-6.04l-7.7,0.35l-1.01,0.04c-0.63,0.03-1.15,0.05-1.67,0.08c-2.88,0.17-5.76,0.35-8.63,0.53
		c-1.46,0.09-2.91,0.18-4.37,0.26l0.51-0.73l-1.52-2.04c-0.53-0.71-1.05-1.44-1.56-2.16c-1.2-1.69-2.44-3.43-3.89-5.07
		c-4.37-4.97-9.99-8.96-17.17-12.18c-13.87-6.23-26.86-9.5-39.71-10c-1.14-0.04-2.27-0.07-3.38-0.07
		c-14.61,0-26.76,3.73-37.13,11.42c-9.27,6.87-14.52,15.8-15.6,26.54c-0.02,0.06-0.03,0.12-0.05,0.18
		c-0.05,0.16-0.09,0.32-0.13,0.48l-0.11,0.42v0.44v5.26v0.27l0.04,0.27c0.16,1.01,0.3,2.03,0.45,3.05c0.32,2.28,0.65,4.64,1.17,6.99
		c3.27,14.89,9.79,28.32,19.4,39.91c5.93,7.16,8.81,15.11,8.8,24.3c0,4.05,0.01,8.1,0.03,12.15c0.02,5.27,0.05,10.72,0.02,16.08
		c-0.02,4.65,3.12,6.12,4.47,6.54c0.82,0.25,1.63,0.51,2.45,0.77c3.27,1.03,6.66,2.1,10.16,2.79c3.01,0.59,6.03,0.85,8.96,1.1
		c1.22,0.1,2.49,0.21,3.71,0.34l0.18,0.02h0.19h4.27h0.13l0.13-0.01c0.89-0.07,1.78-0.12,2.67-0.17c2.08-0.12,4.23-0.24,6.4-0.55
		c4.36-0.63,8.69-1.5,12.76-2.33c1.36-0.28,2.54-0.88,3.48-1.36c0.18-0.09,0.36-0.18,0.53-0.27c2.47-1.22,3.82-3.49,3.78-6.37
		c-0.02-1.6-0.03-3.19-0.04-4.79l0-1.35v-7.77c0.01-1.4,0.02-2.82,0.04-4.24c0-0.24-0.01-0.48-0.03-0.71
		c2.29,0.84,4.58,1.67,6.87,2.51c1.98,0.72,3.96,1.08,5.9,1.08c2.02,0,4.01-0.39,5.92-1.17c3.37-1.37,5.37-3.87,5.5-6.87
		c0.14-3.38,0.11-6.81,0.09-10.12l0-0.35c0.5-2.43,1.44-4.96,2.19-6.56c1.87-4.02,0.54-8.56,0.38-9.06l-0.08-0.25
		c0.42-0.28,0.79-0.62,1.11-1.02c0.99-1.26,1.24-2.89,0.77-4.83c-0.54-2.21-1.18-4.29-1.9-6.2c-0.03-0.07-0.05-0.13-0.06-0.17
		c0.01-0.01,0.03-0.03,0.05-0.05c0.7-0.67,1.26-1.36,1.85-2.09c0.24-0.3,0.5-0.61,0.78-0.95l2.06-2.42c0.89,0.05,1.77,0.1,2.66,0.15
		c1.54,0.09,3.09,0.17,4.74,0.25l2.44,0.12l7.76,0.4L159.64,284.26z M55.04,253.02c0-0.92,0-1.85,0-2.77c0-3.82,0-7.65,0-11.64
		c2.15,0,4.05,0,6.06,0c0.05,0.46,0.13,0.88,0.13,1.29c0,4.38,0.02,8.76,0.01,13.14c2.53,0.66,4.75,2.11,6.37,4.06
		c0.42,0.49,0.8,1.03,1.14,1.61c1.1,1.85,1.73,4.01,1.73,6.31c0,6.84-5.55,12.39-12.39,12.39c-6.84,0-12.39-5.55-12.39-12.39
		C45.71,259.23,49.68,254.38,55.04,253.02z M139.72,292.35c-1.22,1.17-1.44,2.41-0.84,4c0.71,1.89,1.29,3.84,1.78,5.8
		c0.42,1.71-0.15,2.36-1.8,2.36c-1.72,0-3.43,0.01-5.15,0.01c-1.35,0-2.7,0-4.05-0.01c-0.01,0-0.02,0-0.03,0
		c-1.29,0-2.17,0.59-2.21,1.87c-0.04,1.38,0.89,2.03,2.24,2.07c0.21,0.01,0.41,0.01,0.62,0.01c0.28,0,0.57,0,0.85,0
		c0,0,0.01,0,0.01,0c1.3,0,2.61,0,3.91,0s2.59,0,3.87,0c0,0,1.13,3.62-0.22,6.53c-0.9,1.94-1.99,4.91-2.52,7.72
		c0.03,3.61,0.07,7.13-0.08,10.65c-0.08,1.86-1.58,3.06-3.3,3.76c-1.53,0.62-3.06,0.91-4.6,0.91c-1.56,0-3.13-0.3-4.69-0.87
		c-3.87-1.41-7.74-2.82-11.6-4.24v5.16c0.02,0.17,0.04,0.34,0.04,0.55c-0.02,1.43-0.03,2.85-0.04,4.28v7.77h-0.01
		c0.01,2.06,0.02,4.12,0.04,6.18c0.02,1.52-0.53,2.54-1.82,3.18c-1.03,0.51-2.06,1.11-3.16,1.34c-4.17,0.85-8.35,1.68-12.56,2.3
		c-2.91,0.42-5.88,0.48-8.82,0.69c-1.42,0-2.85,0-4.27,0c-4.13-0.44-8.31-0.59-12.36-1.39c-4.15-0.82-8.19-2.22-12.25-3.47
		c-1.44-0.44-2-1.52-1.99-3.16c0.05-9.41-0.06-18.83-0.05-28.24c0.01-10.03-3.19-18.8-9.61-26.55
		c-9.33-11.26-15.54-24.13-18.67-38.42c-0.71-3.24-1.06-6.55-1.57-9.83c0-1.75,0-3.5,0-5.26c0.09-0.37,0.23-0.73,0.27-1.1
		c1.01-10.24,6.1-18.14,14.2-24.14c10.47-7.76,22.38-10.72,35.03-10.72c1.08,0,2.16,0.02,3.25,0.06c13.46,0.52,26.19,4.2,38.41,9.69
		c6.03,2.71,11.56,6.28,15.97,11.3c1.93,2.19,3.52,4.67,5.27,7.01c-0.11,0.15-0.22,0.31-0.32,0.46c-2.43,0.16-4.87,0.34-7.3,0.49
		c-10.04,0.6-17.66,5.16-22.81,13.84c-0.28,0.48-1.06,0.94-1.61,0.94c-5.49,0.03-10.98,0.04-16.46,0.04
		c-5.3,0-10.59-0.01-15.89-0.04c-0.59,0-1.25-0.44-1.74-0.84c-1.64-1.34-3.14-2.87-4.85-4.11c-0.79-0.57-1.03-1.09-1.03-1.98
		c0.03-3.89,0.02-7.77,0.01-11.66c-0.01-1.99-0.68-2.67-2.65-2.68c-1.43-0.01-2.85-0.01-4.28-0.01c-1.48,0-2.95,0-4.43,0.01
		c-0.92,0-1.54,0.15-1.97,0.48h-0.33v0.35c-0.29,0.43-0.42,1.05-0.42,1.94c-0.01,3.78-0.04,7.56,0.02,11.33
		c0.02,1.09-0.26,1.73-1.28,2.33c-6.29,3.72-9.31,11.01-7.42,17.92c1.73,6.3,5.86,10.37,12.2,11.79c1.34,0.3,2.63,0.45,3.88,0.45
		c4.76,0,8.87-2.14,12.3-6.07c0.45-0.51,1.17-1.1,1.77-1.11c5.55-0.03,11.1-0.05,16.65-0.05c5.34,0,10.69,0.01,16.03,0.04
		c0.51,0,1.22,0.44,1.48,0.89c5.19,8.83,12.95,13.34,23.12,13.9c3.97,0.22,7.93,0.49,12.26,0.76
		C141.19,290.66,140.53,291.57,139.72,292.35z M149.72,286.07c-6.94-0.41-13.88-0.75-20.82-1.26c-7.1-0.53-12.84-3.69-17.16-9.38
		c-0.29-0.38-0.51-0.8-0.89-1.4c2.17,0,4.02,0,6.01,0c0.04,0.32,0.08,0.64,0.12,0.96v-5.11h-0.07c0,0.02,0,0.04,0,0.07
		c-14.43,0-28.78,0-42.84,0c0-3.36,0-6.65,0-10.01c0.05,0,0.11,0,0.16,0v-0.43h42.75V255c-0.03,0.25-0.06,0.51-0.09,0.79
		c-1.95,0-3.87,0-6.08,0c0.66-0.91,1.17-1.72,1.8-2.44c4.41-5.09,9.95-7.9,16.7-8.3c8.31-0.49,16.61-1.01,24.91-1.52
		c0.75-0.05,1.51-0.07,2.63-0.12c-2.91,3.68-2.6,7.77-2.58,11.81c0.03,6.84,0.05,13.69-0.01,20.53c-0.03,3.7-0.03,7.35,2.61,10.69
		C154.25,286.31,151.99,286.2,149.72,286.07z"/>
</g>
</svg>
