<?xml version="1.0" encoding="utf-8"?>
<!-- Generator: Adobe Illustrator 23.0.0, SVG Export Plug-In . SVG Version: 6.00 Build 0)  -->
<svg version="1.1" id="Layer_1" xmlns="http://www.w3.org/2000/svg" xmlns:xlink="http://www.w3.org/1999/xlink" x="0px" y="0px"
	 viewBox="0 0 507.76 623.49" style="enable-background:new 0 0 507.76 623.49;" xml:space="preserve">
<style type="text/css">
	.st0{opacity:0.39;fill:url(#SVGID_1_);}
	.st1{opacity:0.34;fill:url(#SVGID_2_);}
	.st2{fill:url(#SVGID_3_);}
	.st3{fill:url(#SVGID_4_);}
	.st4{fill:url(#SVGID_5_);}
	.st5{fill:#FFFFFF;}
	.st6{fill:url(#SVGID_6_);}
	.st7{fill:#FDBF17;}
	.st8{fill:url(#SVGID_7_);}
	.st9{opacity:0.5;}
	.st10{fill:url(#SVGID_8_);}
	.st11{fill:#FDBF17;stroke:#000000;stroke-width:2;stroke-miterlimit:10;}
	.st12{fill:url(#SVGID_9_);}
	.st13{opacity:0.5;fill:#FFFFFF;}
</style>
<g>
	<g>
		
			<linearGradient id="SVGID_1_" gradientUnits="userSpaceOnUse" x1="-2075.0984" y1="327.4519" x2="-1633.5634" y2="327.4519" gradientTransform="matrix(-0.6174 -0.7867 0.7867 -0.6174 -1103.4438 -909.0353)">
			<stop  offset="0" style="stop-color:#FDBF17"/>
			<stop  offset="0.9982" style="stop-color:#9618CC"/>
		</linearGradient>
		<path class="st0" d="M482.42,187.91c-15.8,39.64-39.1,85.17-32.17,140.27c6.92,55.1,3.98,192.11-96.09,255.51
			c-98.29,62.28-244.1-38.31-279.25-81.99c-61.21-76.06-80.88-180.3,36.13-285.63C242.29,97.91,361.41,96.58,390.34,93.71
			C452.12,87.6,500.5,142.56,482.42,187.91z"/>
		
			<linearGradient id="SVGID_2_" gradientUnits="userSpaceOnUse" x1="-2104.1055" y1="332.017" x2="-1662.5704" y2="332.017" gradientTransform="matrix(-0.6174 -0.7867 0.7867 -0.6174 -1103.4438 -909.0353)">
			<stop  offset="0" style="stop-color:#FDBF17"/>
			<stop  offset="0.9982" style="stop-color:#9618CC"/>
		</linearGradient>
		<path class="st1" d="M503.92,207.91c-15.8,39.64-39.1,85.17-32.17,140.27c6.92,55.1,3.98,192.11-96.09,255.51
			c-98.29,62.28-244.1-38.31-279.25-81.99c-61.21-76.06-80.88-180.3,36.13-285.63c131.25-118.15,250.37-119.48,279.3-122.35
			C473.62,107.6,522,162.56,503.92,207.91z"/>
		
			<linearGradient id="SVGID_3_" gradientUnits="userSpaceOnUse" x1="-2038.5931" y1="323.0513" x2="-1597.0581" y2="323.0513" gradientTransform="matrix(-0.6174 -0.7867 0.7867 -0.6174 -1103.4438 -909.0353)">
			<stop  offset="0" style="stop-color:#FDBF17"/>
			<stop  offset="0.9982" style="stop-color:#9618CC"/>
		</linearGradient>
		<path class="st2" d="M456.42,161.91c-15.8,39.64-39.1,85.17-32.17,140.27c6.92,55.1,3.98,192.11-96.09,255.51
			c-98.29,62.28-244.1-38.31-279.25-81.99c-61.21-76.06-80.88-180.3,36.13-285.63C216.29,71.91,335.41,70.58,364.34,67.71
			C426.12,61.6,474.5,116.56,456.42,161.91z"/>
	</g>
	<linearGradient id="SVGID_4_" gradientUnits="userSpaceOnUse" x1="181.8254" y1="196.365" x2="261.7431" y2="196.365">
		<stop  offset="0" style="stop-color:#FDBF17"/>
		<stop  offset="0.9982" style="stop-color:#9618CC"/>
	</linearGradient>
	<path class="st3" d="M258.11,169.69l-2.83,7.78c-10.57,17.33-33.22,16.52-42.48,15.36c-14.34-1.79-25.39-18.11-25.5-18.27
		l-1.25-1.87l-4.23,21.14l0.08,0.24c9.14,26.05,29.63,27.63,31.14,27.71c4.7,0.87,8.96,1.26,12.81,1.26
		c24.88,0,32.84-16.4,35.38-27.2c1.9-8.08-2.17-22.74-2.35-23.35L258.11,169.69z M259.42,195.41c-6.48,27.56-31.66,27.19-46.1,24.52
		l-0.15-0.02c-0.83-0.02-20.38-0.8-29.42-26.23l3.27-16.34c1.27,1.66,3.44,4.3,6.33,7.04c4.36,4.15,11.24,9.3,19.21,10.29
		c9.63,1.2,33.23,2.02,44.35-16.32l0.91-2.44C258.92,180.62,260.72,189.87,259.42,195.41z"/>
	<linearGradient id="SVGID_5_" gradientUnits="userSpaceOnUse" x1="205.6791" y1="165.0301" x2="236.0401" y2="165.0301">
		<stop  offset="0" style="stop-color:#FDBF17"/>
		<stop  offset="0.9982" style="stop-color:#9618CC"/>
	</linearGradient>
	<path class="st4" d="M232.54,161.53h-23.35c-1.93,0-3.5,1.57-3.5,3.5c0,1.93,1.57,3.5,3.5,3.5h23.35c1.93,0,3.5-1.57,3.5-3.5
		C236.04,163.1,234.47,161.53,232.54,161.53z M232.54,166.66h-23.35c-0.9,0-1.63-0.73-1.63-1.63c0-0.9,0.73-1.63,1.63-1.63h23.35
		c0.9,0,1.63,0.73,1.63,1.63C234.17,165.93,233.44,166.66,232.54,166.66z"/>
	<path class="st5" d="M190.28,93.15c-4.61,0-8.37,3.75-8.37,8.37s3.75,8.37,8.37,8.37s8.37-3.75,8.37-8.37S194.9,93.15,190.28,93.15
		z M190.28,107.08c-3.07,0-5.56-2.5-5.56-5.56s2.5-5.56,5.56-5.56c3.07,0,5.56,2.5,5.56,5.56S193.35,107.08,190.28,107.08z"/>
	<path class="st5" d="M253.22,93.15c-4.61,0-8.37,3.75-8.37,8.37s3.75,8.37,8.37,8.37s8.37-3.75,8.37-8.37
		S257.83,93.15,253.22,93.15z M253.22,107.08c-3.07,0-5.56-2.5-5.56-5.56s2.5-5.56,5.56-5.56c3.07,0,5.56,2.5,5.56,5.56
		S256.29,107.08,253.22,107.08z"/>
	<path class="st5" d="M258.11,169.69l-2.83,7.78c-10.57,17.33-33.22,16.52-42.48,15.36c-14.34-1.79-25.39-18.11-25.5-18.27
		l-1.25-1.87l-4.23,21.14l0.08,0.24c9.14,26.05,29.63,27.63,31.14,27.71c4.7,0.87,8.96,1.26,12.81,1.26
		c24.88,0,32.84-16.4,35.38-27.2c1.9-8.08-2.17-22.74-2.35-23.35L258.11,169.69z M259.42,195.41c-6.48,27.56-31.66,27.19-46.1,24.52
		l-0.15-0.02c-0.83-0.02-20.38-0.8-29.42-26.23l3.27-16.34c1.27,1.66,3.44,4.3,6.33,7.04c4.36,4.15,11.24,9.3,19.21,10.29
		c9.63,1.2,33.23,2.02,44.35-16.32l0.91-2.44C258.92,180.62,260.72,189.87,259.42,195.41z"/>
	<path class="st5" d="M232.54,161.53h-23.35c-1.93,0-3.5,1.57-3.5,3.5c0,1.93,1.57,3.5,3.5,3.5h23.35c1.93,0,3.5-1.57,3.5-3.5
		C236.04,163.1,234.47,161.53,232.54,161.53z M232.54,166.66h-23.35c-0.9,0-1.63-0.73-1.63-1.63c0-0.9,0.73-1.63,1.63-1.63h23.35
		c0.9,0,1.63,0.73,1.63,1.63C234.17,165.93,233.44,166.66,232.54,166.66z"/>
	<linearGradient id="SVGID_6_" gradientUnits="userSpaceOnUse" x1="72.5005" y1="265.4434" x2="368.7683" y2="265.4434">
		<stop  offset="0" style="stop-color:#FDBF17"/>
		<stop  offset="0.9982" style="stop-color:#9618CC"/>
	</linearGradient>
	<path class="st6" d="M165.05,197.8c0,0-26.54,3.4-48.3,14.31c-21.76,10.91-42.32,23.05-42.32,85.64c0,0-14.95,50.45,38.3,42.97
		s166.28-69.13,212.06-56.05s45.78,4.67,42.97-8.41c-2.8-13.08,3.32-54.64-50.45-65.39c-9.34-1.87-51.38-15.88-53.25-18.68
		s-1.87-2.8-1.87-2.8s2.34,25.22-15.88,31.3c0,0-47.18,22.42-67.26-27.09L165.05,197.8z"/>
	<g>
		<path class="st7" d="M108.74,348.5c-11.01,0-19.22-3.07-24.48-9.18c-10.89-12.64-5.27-33.57-4.69-35.62
			c0.03-64.89,22.77-76.29,42.83-86.35c21.07-10.56,46.9-14.18,48.52-14.4l14.76-4.43l0.32,0.79c5.9,14.54,14.74,24.19,26.28,28.68
			c19.18,7.47,39.52-1.99,39.72-2.08l0.1-0.04c17.31-5.77,15.27-30.08,15.25-30.32l-0.34-3.68l3.92,5.87
			c2.04,2.48,42.89,16.33,52.65,18.29c46.23,9.25,48.87,41.25,50.29,58.44c0.25,3.07,0.47,5.73,0.89,7.67
			c1.2,5.62,1.94,10.51-1.25,13.49c-4.74,4.44-17.57,3.24-42.89-3.99c-27.59-7.88-81.57,12.31-129.21,30.12
			c-31.65,11.84-61.55,23.02-82.47,25.95C115.31,348.24,111.91,348.49,108.74,348.5z M184.59,200.81l-13.35,3.99
			c-0.26,0.03-26.63,3.51-48,14.22c-19.59,9.82-41.8,20.95-41.8,84.81l-0.04,0.27c-0.06,0.22-6.27,21.77,4.28,34
			c6.33,7.35,17.43,9.96,33,7.78c20.72-2.91,50.52-14.05,82.07-25.85c50.24-18.79,102.2-38.21,130.37-30.17
			c23.95,6.84,37.01,8.25,41.1,4.42c2.48-2.32,1.78-6.69,0.7-11.74c-0.44-2.06-0.66-4.77-0.92-7.91c-0.72-8.67-1.69-20.55-8.1-31.47
			c-7.57-12.9-21.26-21.41-40.69-25.29c-8.89-1.78-51.64-15.78-53.84-19.08l-0.08-0.12c-0.1,7.19-1.94,24.05-16.55,28.96
			c-1.42,0.67-21.49,9.75-41.13,2.12C199.78,225.15,190.69,215.42,184.59,200.81z"/>
	</g>
	<g>
		<path d="M194.49,93.15c-4.61,0-8.37,3.75-8.37,8.37s3.75,8.37,8.37,8.37c4.61,0,8.37-3.75,8.37-8.37S199.11,93.15,194.49,93.15z
			 M194.49,107.08c-3.07,0-5.56-2.5-5.56-5.56s2.5-5.56,5.56-5.56c3.07,0,5.56,2.5,5.56,5.56S197.56,107.08,194.49,107.08z"/>
		<path d="M257.43,93.15c-4.61,0-8.37,3.75-8.37,8.37s3.75,8.37,8.37,8.37c4.61,0,8.37-3.75,8.37-8.37S262.04,93.15,257.43,93.15z
			 M257.43,107.08c-3.07,0-5.56-2.5-5.56-5.56s2.5-5.56,5.56-5.56c3.07,0,5.56,2.5,5.56,5.56S260.5,107.08,257.43,107.08z"/>
		<path d="M262.32,169.69l-2.83,7.78c-10.57,17.33-33.22,16.52-42.48,15.36c-14.34-1.79-25.39-18.11-25.5-18.27l-1.25-1.87
			l-4.23,21.14l0.08,0.24c9.14,26.05,29.63,27.63,31.14,27.71c4.7,0.87,8.96,1.26,12.81,1.26c24.88,0,32.84-16.4,35.38-27.2
			c1.9-8.08-2.17-22.74-2.35-23.35L262.32,169.69z M263.63,195.41c-6.48,27.56-31.66,27.19-46.1,24.52l-0.15-0.02
			c-0.83-0.02-20.38-0.8-29.42-26.23l3.27-16.34c1.27,1.66,3.44,4.3,6.33,7.04c4.36,4.15,11.24,9.3,19.21,10.29
			c9.63,1.2,33.23,2.02,44.35-16.32l0.91-2.44C263.14,180.62,264.93,189.87,263.63,195.41z"/>
		<path d="M236.75,161.53h-23.35c-1.93,0-3.5,1.57-3.5,3.5c0,1.93,1.57,3.5,3.5,3.5h23.35c1.93,0,3.5-1.57,3.5-3.5
			C240.25,163.1,238.68,161.53,236.75,161.53z M236.75,166.66h-23.35c-0.9,0-1.63-0.73-1.63-1.63c0-0.9,0.73-1.63,1.63-1.63h23.35
			c0.9,0,1.63,0.73,1.63,1.63C238.38,165.93,237.65,166.66,236.75,166.66z"/>
		<path d="M287.49,60.6h0.16l-0.07-1c-1.56-22.56-8.56-34-8.87-34.49c-10.23-15.48-26.76-24.14-47.8-25.03
			c-15.83-0.68-28.8,3.3-28.97,3.36c-29.46,10.71-36.41,47.64-37.5,54.89h-0.09c-0.04,0.46-0.09,1.13-0.16,1.96l-0.03,0.31h0.01
			c-0.72,9.91-2.34,41.9,5.01,61.69c0,0,0.36,1.88,0.47,2.2c0,0,1.27,3.56,1.74,4.47c9.62,23.53,24.96,44.66,25.13,44.9
			c6.79,8.87,15.44,13.64,25.71,14.17c0.62,0.03,1.23,0.05,1.84,0.05c12.99,0,25.46-6.92,31.79-13.65
			c5.99-6.36,13.73-20.97,19.51-32.91h-0.14c5.73-12.11,9.16-24.02,10.75-30.29h0.03c0.21-0.83,0.89-3.47,0.95-3.67
			C288.44,93.96,289.67,75.12,287.49,60.6z M202.54,5.2c0.5-0.16,50.69-15.26,74.6,20.92c0.07,0.11,6.84,11.16,8.5,32.6h-7.37
			c0.03,0,0.06,0.01,0.09,0.01H166.27C167.25,52.1,173.87,15.62,202.54,5.2z M285.23,106.33L285.23,106.33
			c-0.04,0.19-3.82,18.77-12.9,36.94l0.08,0.04c-5.57,11.29-12.53,24.16-17.89,29.84c-6.35,6.74-19.13,13.68-32.18,13.01
			c-9.7-0.5-17.88-5.02-24.31-13.42c-0.15-0.2-12.06-16.61-21.4-36.53c0.13-0.07-4.43-11.63-4.43-11.63c-0.02,0-0.03,0-0.05,0
			c-0.06-0.14-0.12-0.29-0.18-0.43h0.06l-0.76-1.87h-0.07c-7.44-19.23-5.82-51.98-5.14-61.69h119.55
			C287.75,74.61,286.65,92.84,285.23,106.33z"/>
	</g>
	<linearGradient id="SVGID_7_" gradientUnits="userSpaceOnUse" x1="440.3004" y1="381.4771" x2="233.8239" y2="384.1281">
		<stop  offset="0" style="stop-color:#FDBF17"/>
		<stop  offset="0.9982" style="stop-color:#9618CC"/>
	</linearGradient>
	<path class="st8" d="M235.97,392.62c23.53,101.2,158.28-14.61,206.48,0c-0.21-2.15-0.32-4.24-0.62-6.3
		c-1.53-10.38-5.63-19.53-13.18-26.97c-4.22-4.16-9.18-7.31-14.33-10.13c-5-2.75-10.13-5.26-15.42-7.99
		c0.3,2.35,0.65,4.37,0.82,6.41c0.58,7.02-0.17,13.83-3.67,20.11c-3.86,6.93-9.93,11.03-17.32,13.4
		c-7.38,2.36-14.98,2.84-22.65,2.43c-9.11-0.48-17.86-2.56-26.02-6.72c-12.9-6.57-22.25-16.4-27.17-30.16
		c-1.58-4.43-2.31-9.03-1.75-13.76c0.03-0.22,0.02-0.44,0.04-0.71c-0.14,0-0.26-0.03-0.34,0c-8.07,3.6-16.16,7.13-24.18,10.83
		c-7.25,3.35-14.26,7.13-20.49,12.21c-8.53,6.95-14.98,15.37-18.32,25.99c-1.1,3.5-1.75,7.08-1.92,10.74
		C235.93,392.19,235.95,392.37,235.97,392.62z"/>
	<g>
		<path class="st7" d="M283.95,439.94c-8.75,0-16.8-1.52-23.79-5.16c-12.36-6.42-20.46-18.58-24.78-37.16l-0.03-0.31
			c-0.01-0.17-0.03-0.31-0.02-0.46c0.17-3.66,0.82-7.32,1.94-10.89c3.18-10.12,9.24-18.72,18.51-26.28
			c5.42-4.42,11.78-8.21,20.62-12.29c5.72-2.64,11.57-5.24,17.23-7.75c2.32-1.03,4.64-2.06,6.96-3.09c0.2-0.09,0.38-0.07,0.5-0.06
			l0.09,0.01h0.64l-0.04,0.88c-0.01,0.18-0.01,0.34-0.03,0.51c-0.52,4.39,0.05,8.8,1.72,13.48c4.68,13.09,13.72,23.12,26.87,29.82
			c7.7,3.92,16.37,6.16,25.78,6.65c8.73,0.46,15.86-0.3,22.43-2.41c7.92-2.54,13.48-6.83,16.97-13.11
			c3.1-5.57,4.24-11.85,3.59-19.77c-0.11-1.36-0.31-2.73-0.51-4.19c-0.1-0.71-0.2-1.44-0.3-2.2l-0.15-1.15l1.03,0.53
			c1.62,0.84,3.22,1.65,4.81,2.46c3.67,1.87,7.14,3.63,10.62,5.54c4.29,2.36,9.81,5.65,14.47,10.23
			c7.24,7.14,11.74,16.33,13.35,27.31c0.21,1.43,0.33,2.9,0.45,4.31c0.06,0.67,0.11,1.34,0.18,2.02l0.09,0.9l-0.87-0.26
			c-16.99-5.15-45.3,6.28-75.26,18.37C339.27,427.64,308.8,439.94,283.95,439.94z M236.57,397.39
			c4.24,18.19,12.14,30.07,24.15,36.31c26.35,13.69,68.58-3.35,105.83-18.39c29.68-11.98,57.74-23.31,75.21-18.65
			c-0.03-0.38-0.07-0.77-0.1-1.15c-0.12-1.46-0.24-2.85-0.44-4.24c-1.6-10.86-5.85-19.57-13-26.62c-4.54-4.48-9.97-7.71-14.2-10.03
			c-3.46-1.9-6.92-3.66-10.58-5.52c-1.25-0.64-2.51-1.28-3.78-1.93c0.05,0.35,0.1,0.69,0.15,1.03c0.21,1.47,0.4,2.86,0.52,4.26
			c0.66,8.05-0.56,14.74-3.74,20.46c-3.66,6.57-9.43,11.05-17.67,13.68c-6.72,2.15-13.98,2.93-22.87,2.46
			c-9.58-0.5-18.41-2.79-26.27-6.78c-13.44-6.84-22.68-17.1-27.46-30.49c-1.69-4.74-2.3-9.4-1.8-13.86
			c-2.13,0.95-4.26,1.89-6.39,2.84c-5.66,2.51-11.5,5.1-17.21,7.74c-8.74,4.03-15.02,7.77-20.36,12.13
			c-9.09,7.41-15.01,15.81-18.12,25.7c-1.09,3.47-1.73,7.03-1.89,10.59c0,0.09,0.01,0.19,0.02,0.3L236.57,397.39z"/>
	</g>
	<path d="M398.41,287.84c-6.63-0.02-12.72-0.02-18.63,0c-1.02,0-1.92,0.36-2.55,1.01c-0.58,0.61-0.89,1.43-0.86,2.33
		c0.06,1.83,1.43,3.02,3.49,3.02c0,0,0.01,0,0.01,0c2.2,0,4.41,0,6.61,0l2.64,0l0.74,0l1.91,0c2.2,0,4.41,0,6.61-0.01
		c2.04-0.01,3.44-1.23,3.5-3.04c0.03-0.85-0.28-1.65-0.87-2.26C400.36,288.22,399.43,287.85,398.41,287.84z M398.37,292.56
		L398.37,292.56c-2.2,0.01-4.4,0.01-6.61,0.01l-2.64,0l-0.78,0l-1.86,0c-2.2,0-4.41,0-6.61,0c0,0,0,0-0.01,0
		c-0.83,0-1.83-0.25-1.86-1.45c-0.02-0.46,0.13-0.86,0.41-1.15c0.32-0.33,0.8-0.51,1.38-0.51c2.88-0.01,5.81-0.02,8.83-0.02
		c3.15,0,6.4,0.01,9.79,0.02c0.59,0,1.1,0.2,1.44,0.55c0.28,0.29,0.42,0.67,0.41,1.08C400.21,292.41,398.92,292.56,398.37,292.56z"
		/>
	<g class="st9">
		<path class="st5" d="M403.35,246.47c-3.1,0-5.62,2.52-5.62,5.62c0,3.1,2.52,5.62,5.62,5.62c3.1,0,5.62-2.52,5.62-5.62
			C408.97,248.99,406.45,246.47,403.35,246.47z M403.35,255.82c-2.06,0-3.74-1.68-3.74-3.74s1.68-3.74,3.74-3.74
			s3.74,1.68,3.74,3.74S405.41,255.82,403.35,255.82z"/>
		<path class="st5" d="M372.14,246.47c-3.1,0-5.62,2.52-5.62,5.62c0,3.1,2.52,5.62,5.62,5.62c3.1,0,5.62-2.52,5.62-5.62
			C377.76,248.99,375.24,246.47,372.14,246.47z M372.14,255.82c-2.06,0-3.74-1.68-3.74-3.74s1.68-3.74,3.74-3.74
			s3.74,1.68,3.74,3.74S374.2,255.82,372.14,255.82z"/>
		<path class="st5" d="M414.85,216.79h0.07l-0.21-0.39c-0.05-0.14-0.09-0.24-0.1-0.27l-0.16-0.4l-0.13-0.05l-0.65-1.21
			c-1.95-3.59-4.31-6.82-7.23-9.87c-8.45-8.81-19.04-14.49-31.5-16.87c-4.27-0.82-8.46-1.23-12.45-1.23
			c-5.72,0-11.11,0.81-16.48,2.48c-10.75,3.34-19.53,9.83-26.85,19.84c-1.08,1.47-2.05,2.97-3.08,4.56l-0.14,0.21
			c-0.26,0.4-0.52,0.8-0.78,1.2l-1.07,1.63l0.02,0.01c-1.87,2.85-4.94,9.2-6.78,21.79l-0.01,0.02l-0.16,0.97
			c-0.11,2.43,0.14,4.92,0.78,7.85c1.49,6.74,4.62,13.44,9.58,20.48c1.88,2.68,4.05,5.45,6.45,8.23c2.47,2.87,3.39,5.96,2.82,9.44
			c-1.56,9.51-3.23,17.41-6.31,25.03c-3.03,7.52-7.3,13.14-13.04,17.18c-0.75,0.53-1.18,1.4-1.37,1.87
			c-1.39,3.45-1.58,7.24-0.61,11.91c1.83,8.75,6.37,16.41,13.88,23.43c8.84,8.26,19.73,13.19,32.37,14.66
			c3.08,0.36,6.03,0.54,8.89,0.54c5.4,0,10.44-0.64,15.26-1.92c5.18-1.38,9.3-3.57,12.58-6.68c4.51-4.29,6.94-9.92,7.41-17.23
			c0.31-4.75-0.26-9.72-1.68-14.78c-0.25-0.9-1.09-1.57-1.44-1.82c-0.83-0.59-1.69-1.15-2.52-1.7c-1.35-0.89-2.75-1.8-4-2.83
			c-3.47-2.84-5.36-6.63-5.61-11.27l-0.07-1.08l-0.52-0.17c-0.98-0.32-1.96-0.62-2.94-0.93c-2.11-0.65-4.11-1.27-6.09-2.03
			c-11.32-4.33-21.4-11.01-29.93-19.84c-0.37-0.38-0.79-0.82-1.12-1.27c-0.48-0.66-0.38-1.55,0.21-2.08
			c0.58-0.51,1.51-0.48,2.11,0.06c0.15,0.13,0.28,0.29,0.42,0.44c0.11,0.12,0.21,0.24,0.32,0.35
			c10.23,10.53,22.15,17.76,35.43,21.49c3.92,1.1,7.41,1.17,10.69,0.22c4.29-1.24,7.55-4.17,10.24-9.22
			c2.3-4.29,3.6-8.94,4.57-12.91c1.46-5.99,4.05-11.85,7.87-17.89c0,0-0.01-0.01,0-0.01c0.06-0.12,0.48-1.08,0.63-1.41l0.17-0.45
			c0.1-0.16,0.51-1.53,0.51-1.53c2.74-8.01,4.35-17.9,4.99-30.4C418.8,229.31,415.75,219.39,414.85,216.79z M320.44,209.74
			c7.11-9.73,15.63-16.04,26.05-19.27c5.17-1.61,10.48-2.41,16.01-2.41c3.92,0,7.96,0.4,12.15,1.2
			c12.13,2.32,22.44,7.84,30.66,16.42c2.81,2.94,5.11,6.06,6.98,9.53h-0.08c-3.85,0-7.71-0.01-11.56-0.02
			c-3.51-0.01-7.07-0.02-10.64-0.02c-5.42,0-10.88,0.02-16.29,0.09c-9.74,0.12-16.98,4.71-21.54,13.64
			c-0.02,0.03-0.03,0.06-0.04,0.09c-0.1-0.05-0.21-0.11-0.3-0.16c-0.06,0.11-0.1,0.22-0.16,0.33l-34.78-13.35l-0.28-0.34
			c0.27-0.41,0.53-0.82,0.8-1.22C318.42,212.67,319.39,211.19,320.44,209.74z M315.92,217.12l35.09,13.47
			c-2.88,6.81-3.14,15.81-1.85,24.35c-12.67-5.14-25.34-10.26-38.02-15.38l-2.2-0.89c-0.02-0.01-0.03-0.01-0.05-0.02
			c1.9-13.11,5.28-19.2,6.99-21.55L315.92,217.12z M416.23,242.84c-0.64,12.64-2.29,22.56-5.09,30.5l-0.15,0.41
			c-0.31,0.7-1.57,3.58-2.02,4.56c-3.11,5.35-5.29,10.59-6.6,15.94c-0.95,3.88-2.21,8.4-4.42,12.53c-2.51,4.7-5.37,7.3-9.27,8.43
			c-2.98,0.86-6.19,0.79-9.8-0.23c-13-3.66-24.68-10.74-34.71-21.06c-0.09-0.1-0.18-0.2-0.27-0.3c-0.17-0.19-0.34-0.38-0.54-0.56
			c-1.22-1.11-3.06-1.15-4.27-0.08c-1.23,1.08-1.43,2.91-0.46,4.25c0.39,0.54,0.86,1.02,1.26,1.44c8.7,9,18.97,15.8,30.52,20.22
			c2.03,0.78,4.14,1.43,6.19,2.07c0.79,0.25,1.59,0.49,2.39,0.75c0.28,5.1,2.37,9.27,6.2,12.41c1.32,1.08,2.75,2.02,4.14,2.93
			c0.82,0.54,1.66,1.09,2.47,1.66c0.42,0.29,0.74,0.67,0.82,0.94c1.37,4.88,1.92,9.67,1.62,14.23c-0.44,6.88-2.7,12.16-6.91,16.15
			c-3.08,2.92-6.96,4.98-11.88,6.29c-7.17,1.91-14.88,2.35-23.55,1.34c-12.29-1.43-22.87-6.21-31.45-14.23
			c-7.26-6.79-11.64-14.17-13.4-22.58c-0.91-4.34-0.74-7.83,0.52-10.97c0.21-0.51,0.5-0.94,0.8-1.15
			c6.01-4.23,10.46-10.08,13.61-17.9c3.13-7.76,4.82-15.75,6.4-25.37c0.66-3.99-0.39-7.51-3.19-10.76c-2.36-2.75-4.5-5.47-6.35-8.1
			c-4.83-6.86-7.88-13.37-9.32-19.9c-0.52-2.34-0.77-4.39-0.77-6.34l1.76,0.71c13.41,5.41,26.82,10.83,40.22,16.27l0.53-1.54
			c-0.21-0.09-0.42-0.17-0.63-0.26l0.58,0.16c-1.41-8.64-1.3-17.87,1.58-24.55l0.58-1.18c0.06-0.12,0.12-0.24,0.18-0.36
			c4.27-8.37,11.06-12.67,20.17-12.78c4.72-0.06,9.89-0.08,16.27-0.08c3.51,0,6.99,0.01,10.44,0.02l0.2,0
			c3.43,0.01,6.86,0.01,10.29,0.02l1.27,0h0.08h0.67l0.04,0.42C413.72,219.28,416.92,229.29,416.23,242.84z"/>
	</g>
	
		<linearGradient id="SVGID_8_" gradientUnits="userSpaceOnUse" x1="-971.8911" y1="345.6624" x2="-1169.3918" y2="348.1982" gradientTransform="matrix(-1 0 0 1 -951.1117 0)">
		<stop  offset="0" style="stop-color:#FDBF17"/>
		<stop  offset="0.9982" style="stop-color:#9618CC"/>
	</linearGradient>
	<path class="st10" d="M216.23,356.32c-22.51,96.8-151.4-13.98-197.51,0c0.2-2.05,0.3-4.05,0.59-6.03
		c1.46-9.93,5.39-18.68,12.6-25.79c4.03-3.98,8.78-6.99,13.71-9.69c4.78-2.63,9.69-5.03,14.75-7.64c-0.29,2.25-0.62,4.18-0.78,6.14
		c-0.55,6.72,0.17,13.23,3.51,19.24c3.69,6.63,9.5,10.55,16.57,12.81c7.06,2.26,14.33,2.72,21.66,2.33
		c8.72-0.46,17.08-2.45,24.89-6.43c12.34-6.28,21.28-15.68,25.99-28.85c1.51-4.24,2.21-8.64,1.67-13.16
		c-0.02-0.21-0.02-0.43-0.03-0.68c0.14,0,0.25-0.03,0.32,0c7.71,3.44,15.46,6.82,23.13,10.36c6.94,3.2,13.64,6.82,19.6,11.68
		c8.16,6.65,14.33,14.71,17.52,24.86c1.05,3.34,1.67,6.77,1.83,10.27C216.27,355.91,216.24,356.09,216.23,356.32z"/>
	<g>
		<path class="st7" d="M90.88,379.11c-28.66-11.57-55.74-22.5-71.99-17.57l-0.83,0.25l0.08-0.86c0.06-0.65,0.12-1.29,0.17-1.93
			c0.11-1.36,0.23-2.76,0.43-4.13c1.54-10.5,5.84-19.29,12.77-26.12c4.45-4.39,9.73-7.53,13.84-9.79c3.33-1.83,6.64-3.51,10.15-5.3
			c1.52-0.77,3.06-1.55,4.6-2.35l0.99-0.51l-0.14,1.1c-0.09,0.73-0.19,1.43-0.29,2.1c-0.2,1.39-0.38,2.7-0.49,4
			c-0.62,7.57,0.47,13.58,3.44,18.91c3.35,6.01,8.66,10.12,16.24,12.54c6.28,2.01,13.1,2.74,21.46,2.3c9-0.47,17.29-2.62,24.66-6.36
			c12.58-6.4,21.23-16,25.7-28.52c1.6-4.48,2.14-8.7,1.65-12.9c-0.02-0.16-0.02-0.31-0.03-0.49l-0.04-0.85h0.61l0.08-0.01
			c0.12-0.01,0.29-0.02,0.48,0.06c2.22,0.99,4.44,1.97,6.65,2.96c5.41,2.4,11.01,4.88,16.48,7.41c8.45,3.9,14.54,7.53,19.73,11.75
			c8.87,7.23,14.67,15.45,17.71,25.13c1.07,3.42,1.7,6.92,1.86,10.42c0.01,0.14,0,0.28-0.02,0.44l-0.03,0.3
			c-4.13,17.78-11.89,29.4-23.71,35.55c-6.69,3.48-14.38,4.93-22.75,4.93C146.57,401.59,117.41,389.82,90.88,379.11z M215.67,360.71
			c0.01-0.1,0.02-0.19,0.01-0.28c-0.16-3.4-0.76-6.8-1.81-10.13c-2.97-9.46-8.64-17.5-17.33-24.58c-5.11-4.16-11.12-7.74-19.48-11.6
			c-5.46-2.52-11.06-5-16.47-7.4c-2.04-0.9-4.07-1.81-6.11-2.72c0.47,4.27-0.11,8.73-1.72,13.26
			c-4.58,12.81-13.41,22.63-26.27,29.17c-7.51,3.82-15.96,6.01-25.12,6.49c-8.5,0.45-15.45-0.3-21.87-2.36
			c-7.87-2.52-13.4-6.8-16.9-13.09c-3.04-5.47-4.21-11.87-3.58-19.57c0.11-1.34,0.3-2.66,0.5-4.07c0.05-0.32,0.09-0.65,0.14-0.99
			c-1.21,0.62-2.42,1.24-3.62,1.84c-3.5,1.78-6.81,3.46-10.12,5.28c-4.04,2.22-9.23,5.31-13.58,9.6
			c-6.84,6.74-10.91,15.07-12.44,25.46c-0.2,1.33-0.3,2.65-0.42,4.05c-0.03,0.36-0.06,0.73-0.09,1.1
			c16.71-4.45,43.55,6.38,71.94,17.84c35.64,14.39,76.03,30.69,101.23,17.59c11.49-5.97,19.05-17.33,23.1-34.73L215.67,360.71z"/>
	</g>
	<path d="M58.37,257.1c-0.56,0.58-0.85,1.35-0.83,2.16c0.05,1.73,1.4,2.9,3.34,2.91c2.11,0.01,4.22,0,6.33,0.01l1.82,0l0.71,0
		l2.53,0c2.11,0,4.21,0,6.32,0c0,0,0,0,0.01,0c1.97,0,3.28-1.13,3.34-2.89c0.03-0.86-0.26-1.65-0.82-2.23
		c-0.6-0.62-1.46-0.96-2.44-0.97c-5.65-0.02-11.48-0.02-17.82,0C59.87,256.1,58.99,256.45,58.37,257.1z M59.09,259.21
		c-0.01-0.4,0.12-0.76,0.39-1.04c0.33-0.34,0.81-0.52,1.37-0.53c3.24-0.01,6.35-0.02,9.36-0.02c2.88,0,5.68,0.01,8.44,0.02
		c0.56,0,1.02,0.17,1.32,0.49c0.27,0.28,0.4,0.66,0.39,1.1c-0.04,1.14-0.99,1.38-1.78,1.38c0,0,0,0-0.01,0c-2.11,0-4.22,0-6.32,0
		l-1.78,0l-0.75,0l-2.53,0c-2.11,0-4.21,0-6.32-0.01h0C60.36,260.61,59.13,260.47,59.09,259.21z"/>
	<g class="st9">
		<path class="st5" d="M50.53,221.9c0,2.96,2.41,5.38,5.38,5.38c2.96,0,5.38-2.41,5.38-5.38s-2.41-5.38-5.38-5.38
			C52.94,216.52,50.53,218.93,50.53,221.9z M52.33,221.9c0-1.97,1.6-3.57,3.57-3.57c1.97,0,3.58,1.6,3.58,3.57s-1.6,3.57-3.58,3.57
			C53.93,225.47,52.33,223.87,52.33,221.9z"/>
		<path class="st5" d="M80.38,221.9c0,2.96,2.41,5.38,5.38,5.38c2.96,0,5.38-2.41,5.38-5.38s-2.41-5.38-5.38-5.38
			C82.79,216.52,80.38,218.93,80.38,221.9z M82.18,221.9c0-1.97,1.6-3.57,3.57-3.57c1.97,0,3.57,1.6,3.57,3.57s-1.6,3.57-3.57,3.57
			C83.79,225.47,82.18,223.87,82.18,221.9z"/>
		<path class="st5" d="M41.78,213.15c0.61,11.95,2.15,21.42,4.77,29.08c0,0,0.4,1.31,0.49,1.46l0.16,0.43
			c0.14,0.32,0.55,1.24,0.61,1.35c0,0,0,0.01,0,0.01c3.65,5.78,6.13,11.39,7.53,17.12c0.93,3.8,2.17,8.24,4.37,12.35
			c2.58,4.83,5.7,7.63,9.8,8.82c3.14,0.91,6.48,0.84,10.23-0.21c12.7-3.57,24.11-10.49,33.89-20.56c0.11-0.11,0.21-0.22,0.31-0.34
			c0.13-0.14,0.26-0.29,0.4-0.42c0.57-0.52,1.46-0.55,2.02-0.06c0.57,0.5,0.66,1.36,0.21,1.99c-0.31,0.43-0.71,0.85-1.07,1.21
			c-8.17,8.44-17.8,14.83-28.63,18.97c-1.89,0.72-3.8,1.32-5.82,1.94c-0.93,0.29-1.87,0.58-2.81,0.88l-0.5,0.16l-0.07,1.04
			c-0.24,4.44-2.04,8.07-5.37,10.78c-1.2,0.98-2.54,1.86-3.83,2.7c-0.79,0.52-1.62,1.06-2.41,1.62c-0.33,0.24-1.14,0.88-1.38,1.74
			c-1.36,4.84-1.9,9.59-1.61,14.13c0.45,6.99,2.77,12.38,7.09,16.48c3.14,2.98,7.07,5.07,12.03,6.39c4.61,1.23,9.44,1.84,14.6,1.84
			c2.74,0,5.56-0.17,8.51-0.51c12.09-1.4,22.51-6.12,30.96-14.02c7.19-6.72,11.53-14.05,13.28-22.42c0.93-4.47,0.75-8.09-0.58-11.39
			c-0.18-0.45-0.59-1.29-1.31-1.79c-5.5-3.86-9.58-9.24-12.48-16.43c-2.94-7.29-4.54-14.84-6.03-23.94
			c-0.55-3.33,0.33-6.29,2.7-9.03c2.29-2.66,4.36-5.31,6.17-7.87c4.74-6.74,7.74-13.14,9.16-19.59c0.62-2.79,0.85-5.18,0.75-7.51
			l-0.15-0.93l-0.01-0.02c-1.76-12.03-4.7-18.11-6.49-20.84l0.02-0.01l-1.02-1.56c-0.25-0.38-0.5-0.77-0.75-1.15l-0.13-0.2
			c-0.99-1.52-1.92-2.95-2.95-4.36c-7-9.58-15.4-15.79-25.68-18.98c-5.14-1.6-10.29-2.37-15.76-2.37c-3.81,0-7.82,0.4-11.9,1.18
			c-11.91,2.28-22.05,7.71-30.13,16.14c-2.79,2.91-5.05,6-6.91,9.44l-0.63,1.16l-0.13,0.04l-0.15,0.38
			c-0.01,0.03-0.05,0.12-0.1,0.26l-0.2,0.37h0.07C44.04,190.62,41.12,200.11,41.78,213.15z M138.12,185.7
			c0.25,0.39,0.5,0.78,0.76,1.17l-0.27,0.32l-33.27,12.77c-0.05-0.1-0.1-0.21-0.15-0.31c-0.09,0.05-0.19,0.1-0.29,0.15
			c-0.01-0.03-0.03-0.06-0.04-0.09c-4.36-8.54-11.3-12.93-20.61-13.04c-5.17-0.06-10.4-0.08-15.58-0.08
			c-3.42,0-6.82,0.01-10.18,0.02c-3.69,0.01-7.37,0.01-11.06,0.02h-0.08c1.79-3.31,3.99-6.31,6.68-9.12
			c7.86-8.2,17.73-13.49,29.33-15.7c4.01-0.77,7.87-1.15,11.62-1.15c5.3,0,10.37,0.77,15.32,2.3c9.97,3.09,18.11,9.12,24.91,18.43
			C136.22,182.77,137.14,184.2,138.12,185.7z M139.56,188.44c1.63,2.24,4.87,8.07,6.68,20.61c-0.02,0.01-0.03,0.01-0.05,0.02
			l-2.1,0.85c-12.12,4.9-24.25,9.79-36.36,14.71c1.24-8.17,0.99-16.77-1.77-23.29l33.57-12.89L139.56,188.44z M46.67,188.53
			l0.03-0.4h0.64h0.08l1.21,0c3.28,0,6.56-0.01,9.85-0.01l0.2,0c3.29-0.01,6.63-0.01,9.98-0.01c6.1,0,11.05,0.03,15.56,0.08
			c8.71,0.11,15.2,4.22,19.29,12.22c0.06,0.11,0.12,0.23,0.17,0.35l0.56,1.12c2.75,6.39,2.85,15.22,1.51,23.48l0.55-0.15
			c-0.2,0.08-0.4,0.16-0.6,0.25l0.5,1.47c12.82-5.21,25.64-10.39,38.47-15.57l1.69-0.68c0,1.87-0.24,3.83-0.74,6.07
			c-1.38,6.24-4.29,12.47-8.91,19.03c-1.77,2.52-3.82,5.13-6.07,7.75c-2.68,3.12-3.68,6.48-3.05,10.3
			c1.51,9.2,3.13,16.85,6.12,24.27c3.01,7.48,7.27,13.08,13.02,17.12c0.28,0.2,0.56,0.61,0.76,1.1c1.21,3.01,1.37,6.34,0.5,10.49
			c-1.68,8.04-5.87,15.11-12.82,21.6c-8.21,7.67-18.33,12.25-30.08,13.61c-8.3,0.96-15.67,0.54-22.53-1.28
			c-4.7-1.25-8.42-3.22-11.36-6.02c-4.02-3.82-6.18-8.87-6.61-15.45c-0.28-4.36,0.24-8.94,1.55-13.61c0.07-0.25,0.39-0.61,0.78-0.9
			c0.77-0.55,1.58-1.08,2.36-1.59c1.33-0.87,2.7-1.77,3.96-2.8c3.67-3,5.66-6.99,5.93-11.87c0.77-0.24,1.53-0.48,2.29-0.72
			c1.96-0.61,3.98-1.23,5.92-1.98c11.05-4.23,20.87-10.74,29.19-19.34c0.39-0.4,0.83-0.86,1.21-1.38c0.93-1.28,0.74-3.03-0.44-4.07
			c-1.16-1.02-2.92-0.98-4.09,0.08c-0.18,0.17-0.35,0.35-0.51,0.53c-0.09,0.1-0.17,0.19-0.26,0.29
			c-9.59,9.87-20.76,16.65-33.2,20.15c-3.46,0.97-6.52,1.04-9.38,0.22c-3.73-1.08-6.46-3.57-8.86-8.06
			c-2.11-3.95-3.32-8.28-4.23-11.99c-1.25-5.12-3.33-10.14-6.31-15.25c-0.43-0.94-1.64-3.69-1.93-4.36l-0.14-0.39
			c-2.68-7.59-4.25-17.08-4.87-29.17C42.92,200.09,45.98,190.51,46.67,188.53z"/>
	</g>
	<g>
		<path class="st7" d="M177.73,52.58l0.05-1.04c1.14-25.33,23.28-45.17,50.42-45.17c27.14,0,49.28,19.84,50.42,45.17l0.05,1.04
			H177.73z"/>
		<path d="M228.2,7.37c26.62,0,48.32,19.62,49.42,44.21h-98.84C179.88,26.99,201.58,7.37,228.2,7.37 M228.2,5.37
			c-27.67,0-50.26,20.26-51.42,46.12l-0.09,2.09h2.09h98.84h2.09l-0.09-2.09C278.45,25.63,255.87,5.37,228.2,5.37L228.2,5.37z"/>
	</g>
	<g>
		<path class="st7" d="M277.62,51.58c-1.1-24.59-22.8-44.21-49.42-44.21s-48.32,19.62-49.42,44.21H277.62z"/>
	</g>
	<g>
		<path class="st5" d="M225.14,11.01c-1.16,0.06-2.31,0.17-3.45,0.31c21.45,0.52,39.2,15.94,41.13,36.04l6.91-0.35
			C267.7,25.84,248.11,9.85,225.14,11.01z"/>
	</g>
	<g>
		<path class="st7" d="M85.58,184.11c-4.01-1.27-12.15-1.97-22.92-1.97c-4.41,0-7.65,0.12-7.69,0.12l-2.58,0.1l1.84-1.81
			c13.43-13.19,28.14-15.96,38.12-15.96c8.53,0,14.25,1.96,14.49,2.04l1.77,0.62l-22.54,17.02L85.58,184.11z"/>
		<path d="M92.35,165.59c8.46,0,14.16,1.99,14.16,1.99l-20.63,15.58c-5.34-1.69-15.93-2.02-23.22-2.02c-4.49,0-7.72,0.12-7.72,0.12
			C67.94,168.48,82.14,165.59,92.35,165.59 M92.35,163.59c-10.16,0-25.15,2.82-38.82,16.25l-3.69,3.62l5.16-0.19
			c0.03,0,3.26-0.12,7.65-0.12c10.67,0,18.71,0.68,22.62,1.92l0.98,0.31l0.82-0.62l20.63-15.58l2.98-2.25l-3.53-1.23
			C106.92,165.6,101.04,163.59,92.35,163.59L92.35,163.59z"/>
	</g>
	<g>
		<path class="st5" d="M66.13,177.65c5.02-4.71,10.21-7.65,15.16-9.44c-6.39,1.4-13.5,4.54-20.3,10.93c0,0,17.91-0.27,24.79,2.09
			l-5.05-1.96C72.84,177.56,66.13,177.65,66.13,177.65z"/>
	</g>
	<path class="st11" d="M332.3,208.74l23.68,9.16c0,0,5.68-6.95,19.89-7.26c14.21-0.32,31.26,0.95,31.26,0.95
		s-15.39-18.79-38.84-18.95C348.66,192.5,335.46,205.1,332.3,208.74z"/>
	<path class="st5" d="M370.2,195.1c10.11,3.27,17.69,8.61,17.69,8.61s-13.21-0.41-23.89,1.66c-1.27,0.25-6.6,2.45-7.33,3.41
		l-1.36,5.06c0,0,3.8-5.73,14.6-7.05c10.8-1.33,23.89-1.66,23.89-1.66S383.6,197.18,370.2,195.1z"/>
	<path class="st5" d="M281.74,63.16c1.66,13.61,0.61,30.49-0.73,43.17l0,0c-0.04,0.19-3.82,18.77-12.9,36.94l0.08,0.04
		c-5.57,11.29-12.53,24.16-17.89,29.84c-6.35,6.74-19.13,13.68-32.18,13.01c-9.7-0.5-17.88-5.02-24.31-13.42
		c-0.15-0.2-12.06-16.61-21.4-36.53c0.13-0.07-4.43-11.63-4.43-11.63c-0.02,0-0.03,0-0.05,0c-0.06-0.14-0.12-0.29-0.18-0.43h0.06
		l-0.76-1.87h-0.07c-6.89-17.8-6.01-47.16-5.3-59.13h-1.89c-0.74,12.03-1.63,40.81,5.19,59.13c0,0,0.36,1.88,0.47,2.2
		c0,0,1.27,3.56,1.74,4.47c9.62,23.53,24.96,44.66,25.13,44.9c6.79,8.87,15.44,13.64,25.71,14.17c0.62,0.03,1.23,0.05,1.84,0.05
		c12.99,0,25.46-6.92,31.79-13.65c5.99-6.36,13.73-20.97,19.51-32.91h-0.14c5.73-12.11,9.16-24.02,10.75-30.29h0.03
		c0.2-0.83,0.89-3.47,0.95-3.67c1.39-12.82,2.55-30.29,0.86-44.41H281.74z"/>
	<linearGradient id="SVGID_9_" gradientUnits="userSpaceOnUse" x1="159.8464" y1="31.1578" x2="283.5095" y2="31.1578">
		<stop  offset="0" style="stop-color:#FDBF17"/>
		<stop  offset="0.9982" style="stop-color:#9618CC"/>
	</linearGradient>
	<path class="st12" d="M159.85,62.32h1.89c0.04-0.63,0.08-1.21,0.11-1.71h119.55c0.09,0.56,0.16,1.14,0.23,1.71h1.88
		c-0.07-0.57-0.14-1.15-0.23-1.71h0.16l-0.07-1c-1.56-22.56-8.56-34-8.87-34.49C264.27,9.63,247.74,0.97,226.7,0.08
		c-15.83-0.68-28.8,3.3-28.97,3.36c-29.46,10.71-36.41,47.64-37.5,54.89h-0.09c-0.04,0.46-0.09,1.13-0.16,1.96l-0.03,0.31h0.01
		C159.93,61.11,159.89,61.69,159.85,62.32z M198.33,5.2c0.5-0.16,50.69-15.26,74.6,20.92c0.07,0.11,6.84,11.16,8.5,32.6h-7.37
		c0.03,0,0.06,0.01,0.09,0.01H162.06C163.04,52.1,169.66,15.62,198.33,5.2z"/>
	<g>
		<path d="M407.14,246.47c-3.1,0-5.62,2.52-5.62,5.62c0,3.1,2.52,5.62,5.62,5.62s5.62-2.52,5.62-5.62
			C412.76,248.99,410.24,246.47,407.14,246.47z M407.14,255.82c-2.06,0-3.74-1.68-3.74-3.74s1.68-3.74,3.74-3.74
			s3.74,1.68,3.74,3.74S409.2,255.82,407.14,255.82z"/>
		<path d="M375.93,246.47c-3.1,0-5.62,2.52-5.62,5.62c0,3.1,2.52,5.62,5.62,5.62s5.62-2.52,5.62-5.62
			C381.55,248.99,379.03,246.47,375.93,246.47z M375.93,255.82c-2.06,0-3.74-1.68-3.74-3.74s1.68-3.74,3.74-3.74
			s3.74,1.68,3.74,3.74S377.99,255.82,375.93,255.82z"/>
		<path d="M418.64,216.79h0.07l-0.21-0.39c-0.05-0.14-0.09-0.24-0.1-0.27l-0.16-0.4l-0.13-0.05l-0.65-1.21
			c-1.95-3.59-4.31-6.82-7.23-9.87c-8.45-8.81-19.04-14.49-31.5-16.87c-4.27-0.82-8.46-1.23-12.45-1.23
			c-5.72,0-11.11,0.81-16.48,2.48c-10.75,3.34-19.53,9.83-26.85,19.84c-1.08,1.47-2.05,2.97-3.08,4.56l-0.14,0.21
			c-0.26,0.4-0.52,0.8-0.78,1.2l-1.07,1.63l0.02,0.01c-1.87,2.85-4.94,9.2-6.78,21.79l-0.01,0.02l-0.16,0.97
			c-0.11,2.43,0.14,4.92,0.78,7.85c1.49,6.74,4.62,13.44,9.58,20.48c1.88,2.68,4.05,5.45,6.45,8.23c2.47,2.87,3.39,5.96,2.82,9.44
			c-1.56,9.51-3.23,17.41-6.31,25.03c-3.03,7.52-7.3,13.14-13.04,17.18c-0.75,0.53-1.18,1.4-1.37,1.87
			c-1.39,3.45-1.58,7.24-0.61,11.91c1.83,8.75,6.37,16.41,13.88,23.43c8.84,8.26,19.73,13.19,32.37,14.66
			c3.08,0.36,6.03,0.54,8.89,0.54c5.4,0,10.44-0.64,15.26-1.92c5.18-1.38,9.3-3.57,12.58-6.68c4.51-4.29,6.94-9.92,7.41-17.23
			c0.31-4.75-0.26-9.72-1.68-14.78c-0.25-0.9-1.09-1.57-1.44-1.82c-0.83-0.59-1.69-1.15-2.52-1.7c-1.35-0.89-2.75-1.8-4-2.83
			c-3.47-2.84-5.36-6.63-5.61-11.27l-0.07-1.08l-0.52-0.17c-0.98-0.32-1.96-0.62-2.94-0.93c-2.11-0.65-4.11-1.27-6.09-2.03
			c-11.32-4.33-21.4-11.01-29.93-19.84c-0.37-0.38-0.79-0.82-1.12-1.27c-0.48-0.66-0.38-1.55,0.21-2.08
			c0.58-0.51,1.51-0.48,2.11,0.06c0.15,0.13,0.28,0.29,0.42,0.44c0.11,0.12,0.21,0.24,0.32,0.35
			c10.23,10.53,22.15,17.76,35.43,21.49c3.92,1.1,7.41,1.17,10.69,0.22c4.29-1.24,7.55-4.17,10.24-9.22
			c2.3-4.29,3.6-8.94,4.57-12.91c1.46-5.99,4.05-11.85,7.87-17.89c0,0-0.01-0.01,0-0.01c0.06-0.12,0.48-1.08,0.63-1.41l0.17-0.45
			c0.1-0.16,0.51-1.53,0.51-1.53c2.74-8.01,4.35-17.9,4.99-30.4C422.59,229.31,419.54,219.39,418.64,216.79z M324.23,209.74
			c7.11-9.73,15.63-16.04,26.05-19.27c5.17-1.61,10.48-2.41,16.01-2.41c3.92,0,7.96,0.4,12.15,1.2
			c12.13,2.32,22.44,7.84,30.66,16.42c2.81,2.94,5.11,6.06,6.98,9.53H416c-3.85,0-7.71-0.01-11.56-0.02
			c-3.51-0.01-7.07-0.02-10.64-0.02c-5.42,0-10.88,0.02-16.29,0.09c-9.74,0.12-16.98,4.71-21.54,13.64
			c-0.02,0.03-0.03,0.06-0.04,0.09c-0.1-0.05-0.21-0.11-0.3-0.16c-0.06,0.11-0.1,0.22-0.16,0.33l-34.78-13.35l-0.28-0.34
			c0.27-0.41,0.53-0.82,0.8-1.22C322.21,212.67,323.18,211.19,324.23,209.74z M319.71,217.12l35.09,13.47
			c-2.88,6.81-3.14,15.81-1.85,24.35c-12.67-5.14-25.34-10.26-38.02-15.38l-2.2-0.89c-0.02-0.01-0.03-0.01-0.05-0.02
			c1.9-13.11,5.28-19.2,6.99-21.55L319.71,217.12z M420.02,242.84c-0.64,12.64-2.29,22.56-5.09,30.5l-0.15,0.41
			c-0.31,0.7-1.57,3.58-2.02,4.56c-3.11,5.35-5.29,10.59-6.6,15.94c-0.95,3.88-2.21,8.4-4.42,12.53c-2.51,4.7-5.37,7.3-9.26,8.43
			c-2.98,0.86-6.19,0.79-9.8-0.23c-13-3.66-24.68-10.74-34.71-21.06c-0.09-0.1-0.18-0.2-0.27-0.3c-0.17-0.19-0.34-0.38-0.54-0.56
			c-1.22-1.11-3.06-1.15-4.27-0.08c-1.23,1.08-1.43,2.91-0.46,4.25c0.39,0.54,0.86,1.02,1.26,1.44c8.7,9,18.97,15.8,30.52,20.22
			c2.03,0.78,4.14,1.43,6.19,2.07c0.79,0.25,1.59,0.49,2.39,0.75c0.28,5.1,2.37,9.27,6.2,12.41c1.32,1.08,2.75,2.02,4.14,2.93
			c0.82,0.54,1.66,1.09,2.47,1.66c0.42,0.29,0.74,0.67,0.82,0.94c1.37,4.88,1.92,9.67,1.62,14.23c-0.44,6.88-2.7,12.16-6.91,16.15
			c-3.08,2.92-6.96,4.98-11.88,6.29c-7.17,1.91-14.88,2.35-23.55,1.34c-12.29-1.43-22.87-6.21-31.45-14.23
			c-7.26-6.79-11.64-14.17-13.4-22.58c-0.91-4.34-0.74-7.83,0.52-10.97c0.21-0.51,0.5-0.94,0.8-1.15
			c6.01-4.23,10.46-10.08,13.61-17.9c3.13-7.76,4.82-15.75,6.4-25.37c0.66-3.99-0.39-7.51-3.19-10.76c-2.36-2.75-4.5-5.47-6.35-8.1
			c-4.83-6.86-7.88-13.37-9.32-19.9c-0.52-2.34-0.77-4.39-0.77-6.34l1.76,0.71c13.41,5.41,26.82,10.83,40.22,16.27l0.53-1.54
			c-0.21-0.09-0.42-0.17-0.63-0.26l0.58,0.16c-1.41-8.64-1.3-17.87,1.58-24.55l0.58-1.18c0.06-0.12,0.12-0.24,0.18-0.36
			c4.27-8.37,11.06-12.67,20.17-12.78c4.72-0.06,9.89-0.08,16.27-0.08c3.51,0,6.99,0.01,10.44,0.02l0.2,0
			c3.43,0.01,6.86,0.01,10.29,0.02l1.27,0h0.08h0.67l0.04,0.42C417.51,219.28,420.71,229.29,420.02,242.84z"/>
	</g>
	<g>
		<path d="M47.12,221.9c0,2.96,2.41,5.38,5.38,5.38c2.96,0,5.38-2.41,5.38-5.38s-2.41-5.38-5.38-5.38
			C49.53,216.52,47.12,218.93,47.12,221.9z M48.92,221.9c0-1.97,1.6-3.57,3.57-3.57c1.97,0,3.58,1.6,3.58,3.57s-1.6,3.57-3.58,3.57
			C50.53,225.47,48.92,223.87,48.92,221.9z"/>
		<path d="M76.98,221.9c0,2.96,2.41,5.38,5.38,5.38c2.96,0,5.38-2.41,5.38-5.38s-2.41-5.38-5.38-5.38
			C79.39,216.52,76.98,218.93,76.98,221.9z M78.78,221.9c0-1.97,1.6-3.57,3.57-3.57c1.97,0,3.57,1.6,3.57,3.57s-1.6,3.57-3.57,3.57
			C80.38,225.47,78.78,223.87,78.78,221.9z"/>
		<path d="M38.38,213.15c0.61,11.95,2.15,21.42,4.77,29.08c0,0,0.4,1.31,0.49,1.46l0.16,0.43c0.14,0.32,0.55,1.24,0.61,1.35
			c0,0,0,0.01,0,0.01c3.65,5.78,6.13,11.39,7.53,17.12c0.93,3.8,2.17,8.24,4.37,12.35c2.58,4.83,5.7,7.63,9.8,8.82
			c3.14,0.91,6.48,0.84,10.23-0.21c12.7-3.57,24.11-10.49,33.89-20.56c0.11-0.11,0.21-0.22,0.31-0.34c0.13-0.14,0.26-0.29,0.4-0.42
			c0.57-0.52,1.46-0.55,2.02-0.06c0.57,0.5,0.66,1.36,0.21,1.99c-0.31,0.43-0.71,0.85-1.07,1.21c-8.17,8.44-17.8,14.83-28.63,18.97
			c-1.89,0.72-3.8,1.32-5.82,1.94c-0.93,0.29-1.87,0.58-2.81,0.88l-0.5,0.16l-0.07,1.04c-0.24,4.44-2.04,8.07-5.37,10.78
			c-1.2,0.98-2.54,1.86-3.83,2.7c-0.79,0.52-1.62,1.06-2.41,1.62c-0.33,0.24-1.14,0.88-1.38,1.74c-1.36,4.84-1.9,9.59-1.61,14.13
			c0.45,6.99,2.77,12.38,7.09,16.48c3.14,2.98,7.07,5.07,12.03,6.39c4.61,1.23,9.44,1.84,14.6,1.84c2.74,0,5.56-0.17,8.51-0.51
			c12.09-1.4,22.51-6.12,30.96-14.02c7.19-6.72,11.53-14.05,13.28-22.42c0.93-4.47,0.75-8.09-0.58-11.39
			c-0.18-0.45-0.59-1.29-1.31-1.79c-5.5-3.86-9.58-9.24-12.48-16.43c-2.94-7.29-4.54-14.84-6.03-23.94
			c-0.55-3.33,0.33-6.29,2.7-9.03c2.29-2.66,4.36-5.31,6.17-7.87c4.74-6.74,7.74-13.14,9.16-19.59c0.62-2.79,0.85-5.18,0.75-7.51
			l-0.15-0.93l-0.01-0.02c-1.76-12.03-4.7-18.11-6.49-20.84l0.02-0.01l-1.02-1.56c-0.25-0.38-0.5-0.77-0.75-1.15l-0.13-0.2
			c-0.99-1.52-1.92-2.95-2.95-4.36c-7-9.58-15.4-15.79-25.68-18.98c-5.14-1.6-10.29-2.37-15.76-2.37c-3.81,0-7.82,0.4-11.9,1.18
			c-11.91,2.28-22.05,7.71-30.13,16.14c-2.79,2.91-5.05,6-6.91,9.44L42,187.07l-0.13,0.04l-0.15,0.38c-0.01,0.03-0.05,0.12-0.1,0.26
			l-0.2,0.37h0.07C40.63,190.62,37.72,200.11,38.38,213.15z M134.72,185.7c0.25,0.39,0.5,0.78,0.76,1.17l-0.27,0.32l-33.27,12.77
			c-0.05-0.1-0.1-0.21-0.15-0.31c-0.09,0.05-0.19,0.1-0.29,0.15c-0.01-0.03-0.03-0.06-0.04-0.09c-4.36-8.54-11.3-12.93-20.61-13.04
			c-5.17-0.06-10.4-0.08-15.58-0.08c-3.42,0-6.82,0.01-10.18,0.02c-3.69,0.01-7.37,0.01-11.06,0.02h-0.08
			c1.79-3.31,3.99-6.31,6.68-9.12c7.86-8.2,17.73-13.49,29.33-15.7c4.01-0.77,7.87-1.15,11.62-1.15c5.3,0,10.37,0.77,15.32,2.3
			c9.97,3.09,18.11,9.12,24.91,18.43C132.81,182.77,133.74,184.2,134.72,185.7z M136.16,188.44c1.63,2.24,4.87,8.07,6.68,20.61
			c-0.02,0.01-0.03,0.01-0.05,0.02l-2.1,0.85c-12.12,4.9-24.25,9.79-36.36,14.71c1.24-8.17,0.99-16.77-1.77-23.29l33.57-12.89
			L136.16,188.44z M43.27,188.53l0.03-0.4h0.64h0.08l1.21,0c3.28,0,6.56-0.01,9.85-0.01l0.2,0c3.29-0.01,6.63-0.01,9.98-0.01
			c6.1,0,11.05,0.03,15.56,0.08c8.71,0.11,15.2,4.22,19.29,12.22c0.06,0.11,0.12,0.23,0.17,0.35l0.56,1.12
			c2.75,6.39,2.85,15.22,1.51,23.48l0.55-0.15c-0.2,0.08-0.4,0.16-0.6,0.25l0.5,1.47c12.82-5.21,25.64-10.39,38.47-15.57l1.69-0.68
			c0,1.87-0.24,3.83-0.74,6.07c-1.38,6.24-4.29,12.47-8.91,19.03c-1.77,2.52-3.82,5.13-6.07,7.75c-2.68,3.12-3.68,6.48-3.05,10.3
			c1.51,9.2,3.13,16.85,6.12,24.27c3.01,7.48,7.27,13.08,13.02,17.12c0.28,0.2,0.56,0.61,0.76,1.1c1.21,3.01,1.37,6.34,0.5,10.49
			c-1.68,8.04-5.87,15.11-12.82,21.6c-8.21,7.67-18.33,12.25-30.08,13.61c-8.3,0.96-15.67,0.54-22.53-1.28
			c-4.7-1.25-8.42-3.22-11.36-6.02c-4.02-3.82-6.18-8.87-6.61-15.45c-0.28-4.36,0.24-8.94,1.55-13.61c0.07-0.25,0.39-0.61,0.78-0.9
			c0.77-0.55,1.58-1.08,2.36-1.59c1.33-0.87,2.7-1.77,3.96-2.8c3.67-3,5.66-6.99,5.93-11.87c0.77-0.24,1.53-0.48,2.29-0.72
			c1.96-0.61,3.98-1.23,5.92-1.98c11.05-4.23,20.87-10.74,29.19-19.34c0.39-0.4,0.83-0.86,1.21-1.38c0.93-1.28,0.74-3.03-0.44-4.07
			c-1.16-1.02-2.92-0.98-4.09,0.08c-0.18,0.17-0.35,0.35-0.51,0.53c-0.09,0.1-0.17,0.19-0.26,0.29
			c-9.59,9.87-20.76,16.65-33.2,20.15c-3.46,0.97-6.52,1.04-9.38,0.22c-3.73-1.08-6.46-3.57-8.86-8.06
			c-2.11-3.95-3.32-8.28-4.23-11.99c-1.25-5.12-3.33-10.14-6.31-15.25c-0.43-0.94-1.64-3.69-1.93-4.36l-0.14-0.39
			c-2.68-7.59-4.25-17.08-4.87-29.17C39.52,200.09,42.58,190.51,43.27,188.53z"/>
	</g>
	<g>
		<circle class="st7" cx="195.35" cy="101.26" r="3.58"/>
	</g>
	<g>
		<circle class="st7" cx="53.15" cy="222.18" r="2.16"/>
	</g>
	<g>
		<circle class="st7" cx="376.12" cy="251.89" r="2.16"/>
	</g>
	<g>
		<circle class="st7" cx="407.14" cy="252.21" r="2.16"/>
	</g>
	<g>
		<circle class="st7" cx="82.12" cy="221.55" r="2.16"/>
	</g>
	<g>
		<circle class="st7" cx="258.3" cy="101.05" r="3.58"/>
	</g>
	<path class="st13" d="M258.26,508.44c-5.04-0.06-9.4,3.49-10.37,8.43l-24.13-5.32l13.42-22.78c1.32,0.43,2.71,0.65,4.1,0.66
		c7.08,0.09,12.9-5.57,13.01-12.65c-0.24-7.19-6.27-12.82-13.45-12.57c-6.85,0.23-12.34,5.73-12.57,12.57
		c0.01,0.62,0.06,1.25,0.16,1.86H199.6c-1.75-2.42-4.56-3.84-7.55-3.83c-5.02-0.07-9.15,3.93-9.23,8.95
		c0.09,5.02,4.22,9.02,9.23,8.95c3.53,0,6.75-2,8.31-5.16l28.7-6.4c1.03,2.68,2.93,4.92,5.4,6.38l-19.11,20.08
		c-3.71,0.25-6.51,3.46-6.26,7.17c0.25,3.71,3.46,6.51,7.17,6.26c1.59,0.02,3.15-0.5,4.4-1.49l27.09-0.21
		c0.21,5.82,5.11,10.36,10.93,10.15c5.82-0.21,10.36-5.11,10.15-10.93c-0.21-5.71-4.92-10.21-10.64-10.16L258.26,508.44z
		 M192.05,491.35c-4.22,0.03-7.68-3.36-7.74-7.58c0.06-4.22,3.52-7.61,7.74-7.58c4.24-0.06,7.74,3.33,7.8,7.58
		C199.78,488.02,196.29,491.4,192.05,491.35z M201,486.03c0.57-1.99,0.38-4.11-0.54-5.97h27.3L201,486.03z M229.65,476.78
		c0.23-6.4,5.6-11.4,12-11.17c6.07,0.22,10.95,5.09,11.17,11.17c-0.23,6.4-5.6,11.4-12,11.17
		C234.74,487.73,229.87,482.85,229.65,476.78z M235.72,488.22h0.09l-13.42,22.85c-1.05-1.89-2.92-3.18-5.06-3.49l0,0L235.72,488.22z
		 M210.72,514.28c-0.08-3.06,2.33-5.6,5.38-5.68c3.06-0.08,5.6,2.33,5.68,5.38c0.08,3.05-2.33,5.6-5.38,5.68c-0.05,0-0.1,0-0.15,0
		C213.25,519.69,210.77,517.29,210.72,514.28z M222,518.08c0.8-1.11,1.22-2.44,1.22-3.8c0-0.5-0.06-1-0.18-1.49l23.49,5.19
		L222,518.08z M258.26,527.55c-4.89-0.15-8.74-4.23-8.59-9.12s4.23-8.74,9.12-8.59c4.78,0.15,8.59,4.06,8.59,8.85
		c-0.05,4.94-4.09,8.91-9.04,8.86C258.32,527.55,258.29,527.55,258.26,527.55z"/>
</g>
</svg>
