<?xml version="1.0" encoding="utf-8"?>
<!-- Generator: Adobe Illustrator 23.0.0, SVG Export Plug-In . SVG Version: 6.00 Build 0)  -->
<svg version="1.1" id="Layer_1" xmlns="http://www.w3.org/2000/svg" xmlns:xlink="http://www.w3.org/1999/xlink" x="0px" y="0px"
	 viewBox="0 0 164.17 114.67" style="enable-background:new 0 0 164.17 114.67;" xml:space="preserve">
<style type="text/css">
	.st0{fill:#5BBCE6;}
	.st1{fill:#BE3084;}
	.st2{fill:#FDBF17;}
</style>
<g>
	<path class="st0" d="M82.5,0.89c15.64,0.21,31.27,0.42,46.91,0.63c7.61,0.1,15.23,0.18,22.84,0.26c5.8,0.06,10.54,3.87,11.77,9.44
		c0.17,0.77,0.07,1.24-0.66,1.74c-20.48,14.03-40.94,28.09-61.41,42.13c-2.44,1.67-4.97,3.2-7.43,4.85
		c-4.8,3.21-10.09,3.84-15.65,3.05c-3.59-0.51-6.88-1.79-9.86-3.91c-11.33-8.06-22.73-16.03-34.02-24.15
		c-11.05-7.95-22-16.04-33.01-24.05c-0.65-0.47-0.82-0.89-0.64-1.66C2.59,3.83,7.45-0.06,13.02,0c13.32,0.16,26.64,0.34,39.97,0.52
		C62.82,0.65,72.66,0.77,82.5,0.9C82.5,0.9,82.5,0.9,82.5,0.89z"/>
	<path class="st1" d="M81.44,113.78c-19.3-0.25-38.6-0.51-57.89-0.76c-3.98-0.05-7.96-0.1-11.95-0.16
		c-5.62-0.08-10.37-4.05-11.47-9.55c-0.12-0.61-0.09-1.06,0.52-1.48c19.75-13.55,39.49-27.11,59.2-40.71
		c0.77-0.53,1.24-0.43,1.97,0.04c2.95,1.89,5.79,4.1,8.98,5.44c8.04,3.38,16.25,3.6,24.23-0.35c2.61-1.29,5-3.04,7.46-4.62
		c0.54-0.35,0.89-0.41,1.45,0c19.48,14.13,38.97,28.25,58.47,42.36c0.44,0.32,0.56,0.62,0.45,1.16c-1.05,5.52-6.05,9.6-11.77,9.53
		c-8.73-0.1-17.45-0.22-26.18-0.33C110.43,114.15,95.94,113.96,81.44,113.78C81.44,113.77,81.44,113.78,81.44,113.78z"/>
	<path class="st2" d="M108.59,57.72c18.47-12.71,36.96-25.43,55.58-38.24c-0.33,25.96-0.67,51.82-1,77.81
		C144.92,84.06,126.76,70.89,108.59,57.72z"/>
	<path class="st2" d="M55.58,56.96C37.1,69.67,18.61,82.39,0,95.19c0.33-25.96,0.66-51.82,1-77.81
		C19.24,30.61,37.4,43.78,55.58,56.96z"/>
</g>
</svg>
